G04 MADE WITH FRITZING*
G04 WWW.FRITZING.ORG*
G04 DOUBLE SIDED*
G04 HOLES PLATED*
G04 CONTOUR ON CENTER OF CONTOUR VECTOR*
%ASAXBY*%
%FSLAX23Y23*%
%MOIN*%
%OFA0B0*%
%SFA1.0B1.0*%
%ADD10C,0.008*%
%LNCONTOUR*%
G90*
G70*
G54D10*
X360Y2942D02*
X361Y2942D01*
X362Y2942D01*
X363Y2942D01*
X364Y2942D01*
X365Y2942D01*
X366Y2942D01*
X367Y2942D01*
X368Y2942D01*
X369Y2942D01*
X370Y2942D01*
X371Y2942D01*
X372Y2942D01*
X373Y2942D01*
X374Y2942D01*
X375Y2942D01*
X376Y2942D01*
X377Y2942D01*
X378Y2942D01*
X379Y2942D01*
X380Y2942D01*
X381Y2942D01*
X382Y2942D01*
X383Y2942D01*
X384Y2942D01*
X385Y2942D01*
X386Y2942D01*
X387Y2942D01*
X388Y2942D01*
X389Y2942D01*
X390Y2942D01*
X391Y2942D01*
X392Y2942D01*
X393Y2942D01*
X394Y2942D01*
X395Y2942D01*
X396Y2942D01*
X397Y2942D01*
X398Y2942D01*
X399Y2942D01*
X400Y2942D01*
X401Y2942D01*
X402Y2942D01*
X403Y2942D01*
X404Y2942D01*
X405Y2942D01*
X406Y2942D01*
X407Y2942D01*
X408Y2942D01*
X409Y2942D01*
X410Y2942D01*
X411Y2942D01*
X412Y2942D01*
X413Y2942D01*
X414Y2942D01*
X415Y2942D01*
X416Y2942D01*
X417Y2942D01*
X418Y2942D01*
X419Y2942D01*
X420Y2942D01*
X421Y2942D01*
X422Y2942D01*
X423Y2942D01*
X424Y2942D01*
X425Y2942D01*
X426Y2942D01*
X427Y2942D01*
X428Y2942D01*
X429Y2942D01*
X430Y2942D01*
X431Y2942D01*
X432Y2942D01*
X433Y2942D01*
X434Y2942D01*
X435Y2942D01*
X436Y2942D01*
X437Y2942D01*
X438Y2942D01*
X439Y2942D01*
X440Y2942D01*
X441Y2942D01*
X442Y2942D01*
X443Y2942D01*
X444Y2942D01*
X445Y2942D01*
X446Y2942D01*
X447Y2942D01*
X448Y2942D01*
X449Y2942D01*
X450Y2942D01*
X451Y2942D01*
X452Y2942D01*
X453Y2942D01*
X454Y2942D01*
X455Y2942D01*
X456Y2942D01*
X457Y2942D01*
X458Y2942D01*
X459Y2942D01*
X460Y2942D01*
X461Y2942D01*
X462Y2942D01*
X463Y2942D01*
X464Y2942D01*
X465Y2942D01*
X466Y2942D01*
X467Y2942D01*
X468Y2942D01*
X469Y2942D01*
X470Y2942D01*
X471Y2942D01*
X472Y2942D01*
X473Y2942D01*
X474Y2942D01*
X475Y2942D01*
X476Y2942D01*
X477Y2942D01*
X478Y2942D01*
X479Y2942D01*
X480Y2942D01*
X481Y2942D01*
X482Y2942D01*
X483Y2942D01*
X484Y2942D01*
X485Y2942D01*
X486Y2942D01*
X487Y2942D01*
X488Y2942D01*
X489Y2942D01*
X490Y2942D01*
X491Y2942D01*
X492Y2942D01*
X493Y2942D01*
X494Y2942D01*
X495Y2942D01*
X496Y2942D01*
X497Y2942D01*
X498Y2942D01*
X499Y2942D01*
X500Y2942D01*
X501Y2942D01*
X502Y2942D01*
X503Y2942D01*
X504Y2942D01*
X505Y2942D01*
X506Y2942D01*
X507Y2942D01*
X508Y2942D01*
X509Y2942D01*
X510Y2942D01*
X511Y2942D01*
X512Y2942D01*
X513Y2942D01*
X514Y2942D01*
X515Y2942D01*
X516Y2942D01*
X517Y2942D01*
X518Y2942D01*
X519Y2942D01*
X520Y2942D01*
X521Y2942D01*
X522Y2942D01*
X523Y2942D01*
X524Y2942D01*
X525Y2942D01*
X526Y2942D01*
X527Y2942D01*
X528Y2942D01*
X529Y2942D01*
X530Y2942D01*
X531Y2942D01*
X532Y2942D01*
X533Y2942D01*
X534Y2942D01*
X535Y2942D01*
X536Y2942D01*
X537Y2942D01*
X538Y2942D01*
X539Y2942D01*
X540Y2942D01*
X541Y2942D01*
X542Y2942D01*
X543Y2942D01*
X544Y2942D01*
X545Y2942D01*
X546Y2942D01*
X547Y2942D01*
X548Y2942D01*
X549Y2942D01*
X550Y2942D01*
X551Y2942D01*
X552Y2942D01*
X553Y2942D01*
X554Y2942D01*
X555Y2942D01*
X556Y2942D01*
X557Y2942D01*
X558Y2942D01*
X559Y2942D01*
X560Y2942D01*
X561Y2942D01*
X562Y2942D01*
X563Y2942D01*
X564Y2942D01*
X565Y2942D01*
X566Y2942D01*
X567Y2942D01*
X568Y2942D01*
X569Y2942D01*
X570Y2942D01*
X571Y2942D01*
X572Y2942D01*
X573Y2942D01*
X574Y2942D01*
X575Y2942D01*
X576Y2942D01*
X577Y2942D01*
X578Y2942D01*
X579Y2942D01*
X580Y2942D01*
X581Y2942D01*
X582Y2942D01*
X583Y2942D01*
X584Y2942D01*
X585Y2942D01*
X586Y2942D01*
X587Y2942D01*
X588Y2942D01*
X589Y2942D01*
X590Y2942D01*
X591Y2942D01*
X592Y2942D01*
X593Y2942D01*
X594Y2942D01*
X595Y2942D01*
X596Y2942D01*
X597Y2942D01*
X598Y2942D01*
X599Y2942D01*
X600Y2942D01*
X601Y2942D01*
X602Y2942D01*
X603Y2942D01*
X604Y2942D01*
X605Y2942D01*
X606Y2942D01*
X607Y2942D01*
X608Y2942D01*
X609Y2942D01*
X610Y2942D01*
X611Y2942D01*
X612Y2942D01*
X613Y2942D01*
X614Y2942D01*
X615Y2942D01*
X616Y2942D01*
X617Y2942D01*
X618Y2942D01*
X619Y2942D01*
X620Y2942D01*
X621Y2942D01*
X622Y2942D01*
X623Y2942D01*
X624Y2942D01*
X625Y2942D01*
X626Y2942D01*
X627Y2942D01*
X628Y2942D01*
X629Y2942D01*
X630Y2942D01*
X631Y2942D01*
X632Y2942D01*
X633Y2942D01*
X634Y2942D01*
X635Y2942D01*
X636Y2942D01*
X637Y2942D01*
X638Y2942D01*
X639Y2942D01*
X640Y2942D01*
X641Y2942D01*
X642Y2942D01*
X643Y2942D01*
X644Y2942D01*
X645Y2942D01*
X646Y2942D01*
X647Y2942D01*
X648Y2942D01*
X649Y2942D01*
X650Y2942D01*
X651Y2942D01*
X652Y2942D01*
X653Y2942D01*
X654Y2942D01*
X655Y2942D01*
X656Y2942D01*
X657Y2942D01*
X658Y2942D01*
X659Y2942D01*
X660Y2942D01*
X661Y2942D01*
X662Y2942D01*
X663Y2942D01*
X664Y2942D01*
X665Y2942D01*
X666Y2942D01*
X667Y2942D01*
X668Y2942D01*
X669Y2942D01*
X670Y2942D01*
X671Y2942D01*
X672Y2942D01*
X673Y2942D01*
X674Y2942D01*
X675Y2942D01*
X676Y2942D01*
X677Y2942D01*
X678Y2942D01*
X679Y2942D01*
X680Y2942D01*
X681Y2942D01*
X682Y2942D01*
X683Y2942D01*
X684Y2942D01*
X685Y2942D01*
X686Y2942D01*
X687Y2942D01*
X688Y2942D01*
X689Y2942D01*
X690Y2942D01*
X691Y2942D01*
X692Y2942D01*
X693Y2942D01*
X694Y2942D01*
X695Y2942D01*
X696Y2942D01*
X697Y2942D01*
X698Y2942D01*
X699Y2942D01*
X700Y2942D01*
X701Y2942D01*
X702Y2942D01*
X703Y2942D01*
X704Y2942D01*
X705Y2942D01*
X706Y2942D01*
X707Y2942D01*
X708Y2942D01*
X709Y2942D01*
X710Y2942D01*
X711Y2942D01*
X712Y2942D01*
X713Y2942D01*
X714Y2942D01*
X715Y2942D01*
X716Y2942D01*
X717Y2942D01*
X718Y2942D01*
X719Y2942D01*
X720Y2942D01*
X721Y2942D01*
X722Y2942D01*
X723Y2942D01*
X724Y2942D01*
X725Y2942D01*
X726Y2942D01*
X727Y2942D01*
X728Y2942D01*
X729Y2942D01*
X730Y2942D01*
X731Y2942D01*
X732Y2942D01*
X733Y2942D01*
X734Y2942D01*
X735Y2942D01*
X736Y2942D01*
X737Y2942D01*
X738Y2942D01*
X739Y2942D01*
X740Y2942D01*
X741Y2942D01*
X742Y2942D01*
X743Y2942D01*
X744Y2942D01*
X745Y2942D01*
X746Y2942D01*
X747Y2942D01*
X748Y2942D01*
X749Y2942D01*
X750Y2942D01*
X751Y2942D01*
X752Y2942D01*
X753Y2942D01*
X754Y2942D01*
X755Y2942D01*
X756Y2942D01*
X757Y2942D01*
X758Y2942D01*
X759Y2942D01*
X760Y2942D01*
X761Y2942D01*
X762Y2942D01*
X763Y2942D01*
X764Y2942D01*
X765Y2942D01*
X766Y2942D01*
X767Y2942D01*
X768Y2942D01*
X769Y2942D01*
X770Y2942D01*
X771Y2942D01*
X772Y2942D01*
X773Y2942D01*
X774Y2942D01*
X775Y2942D01*
X776Y2942D01*
X777Y2942D01*
X778Y2942D01*
X779Y2942D01*
X780Y2942D01*
X781Y2942D01*
X782Y2942D01*
X783Y2942D01*
X784Y2942D01*
X785Y2942D01*
X786Y2942D01*
X787Y2942D01*
X788Y2942D01*
X789Y2942D01*
X790Y2942D01*
X791Y2942D01*
X792Y2942D01*
X793Y2942D01*
X794Y2942D01*
X795Y2942D01*
X796Y2942D01*
X797Y2942D01*
X798Y2942D01*
X799Y2942D01*
X800Y2942D01*
X801Y2942D01*
X802Y2942D01*
X803Y2942D01*
X804Y2942D01*
X805Y2942D01*
X806Y2942D01*
X807Y2942D01*
X808Y2942D01*
X809Y2942D01*
X810Y2942D01*
X811Y2942D01*
X812Y2942D01*
X813Y2942D01*
X814Y2942D01*
X815Y2942D01*
X816Y2942D01*
X817Y2942D01*
X818Y2942D01*
X819Y2942D01*
X820Y2942D01*
X821Y2942D01*
X822Y2942D01*
X823Y2942D01*
X824Y2942D01*
X825Y2942D01*
X826Y2942D01*
X827Y2942D01*
X828Y2942D01*
X829Y2942D01*
X830Y2942D01*
X831Y2942D01*
X832Y2942D01*
X833Y2942D01*
X834Y2942D01*
X835Y2942D01*
X836Y2942D01*
X837Y2942D01*
X838Y2942D01*
X839Y2942D01*
X840Y2942D01*
X841Y2942D01*
X842Y2942D01*
X843Y2942D01*
X844Y2942D01*
X845Y2942D01*
X846Y2942D01*
X847Y2942D01*
X848Y2942D01*
X849Y2942D01*
X850Y2942D01*
X851Y2942D01*
X852Y2942D01*
X853Y2942D01*
X854Y2942D01*
X855Y2942D01*
X856Y2942D01*
X857Y2942D01*
X858Y2942D01*
X859Y2942D01*
X860Y2942D01*
X861Y2942D01*
X862Y2942D01*
X863Y2942D01*
X864Y2942D01*
X865Y2942D01*
X866Y2942D01*
X867Y2942D01*
X868Y2942D01*
X869Y2942D01*
X870Y2942D01*
X871Y2942D01*
X872Y2942D01*
X873Y2942D01*
X874Y2942D01*
X875Y2942D01*
X876Y2942D01*
X877Y2942D01*
X878Y2942D01*
X879Y2942D01*
X880Y2942D01*
X881Y2942D01*
X882Y2942D01*
X883Y2942D01*
X884Y2942D01*
X885Y2942D01*
X886Y2942D01*
X887Y2942D01*
X888Y2942D01*
X889Y2942D01*
X890Y2942D01*
X891Y2942D01*
X892Y2942D01*
X893Y2942D01*
X894Y2942D01*
X895Y2942D01*
X896Y2942D01*
X897Y2942D01*
X898Y2942D01*
X899Y2942D01*
X900Y2942D01*
X901Y2942D01*
X902Y2942D01*
X903Y2942D01*
X904Y2942D01*
X905Y2942D01*
X906Y2942D01*
X907Y2942D01*
X908Y2942D01*
X909Y2942D01*
X910Y2942D01*
X911Y2942D01*
X912Y2942D01*
X913Y2942D01*
X914Y2942D01*
X915Y2942D01*
X916Y2942D01*
X917Y2942D01*
X918Y2942D01*
X919Y2942D01*
X920Y2942D01*
X921Y2942D01*
X922Y2942D01*
X923Y2942D01*
X924Y2942D01*
X925Y2942D01*
X926Y2942D01*
X927Y2942D01*
X928Y2942D01*
X929Y2942D01*
X930Y2942D01*
X931Y2942D01*
X932Y2942D01*
X933Y2942D01*
X934Y2942D01*
X935Y2942D01*
X936Y2942D01*
X937Y2942D01*
X938Y2942D01*
X939Y2942D01*
X940Y2942D01*
X941Y2942D01*
X942Y2942D01*
X943Y2942D01*
X944Y2942D01*
X945Y2942D01*
X946Y2942D01*
X947Y2942D01*
X948Y2942D01*
X949Y2942D01*
X950Y2942D01*
X951Y2942D01*
X952Y2942D01*
X953Y2942D01*
X954Y2942D01*
X955Y2942D01*
X956Y2942D01*
X957Y2942D01*
X958Y2942D01*
X959Y2942D01*
X960Y2942D01*
X961Y2942D01*
X962Y2942D01*
X963Y2942D01*
X964Y2942D01*
X965Y2942D01*
X966Y2942D01*
X967Y2942D01*
X968Y2942D01*
X969Y2942D01*
X970Y2942D01*
X971Y2942D01*
X972Y2942D01*
X973Y2942D01*
X974Y2942D01*
X975Y2942D01*
X976Y2942D01*
X977Y2942D01*
X978Y2942D01*
X979Y2942D01*
X980Y2942D01*
X981Y2942D01*
X982Y2942D01*
X983Y2942D01*
X984Y2942D01*
X985Y2942D01*
X986Y2942D01*
X987Y2942D01*
X988Y2942D01*
X989Y2942D01*
X990Y2942D01*
X991Y2942D01*
X992Y2942D01*
X993Y2942D01*
X994Y2942D01*
X995Y2942D01*
X996Y2942D01*
X997Y2942D01*
X998Y2942D01*
X999Y2942D01*
X1000Y2942D01*
X1001Y2942D01*
X1002Y2942D01*
X1003Y2942D01*
X1004Y2942D01*
X1005Y2942D01*
X1006Y2942D01*
X1007Y2942D01*
X1008Y2942D01*
X1009Y2942D01*
X1010Y2942D01*
X1011Y2942D01*
X1012Y2942D01*
X1013Y2942D01*
X1014Y2942D01*
X1015Y2942D01*
X1016Y2942D01*
X1017Y2942D01*
X1018Y2942D01*
X1019Y2942D01*
X1020Y2942D01*
X1021Y2942D01*
X1022Y2942D01*
X1023Y2942D01*
X1024Y2942D01*
X1025Y2942D01*
X1026Y2942D01*
X1027Y2942D01*
X1028Y2942D01*
X1029Y2942D01*
X1030Y2942D01*
X1031Y2942D01*
X1032Y2942D01*
X1033Y2942D01*
X1034Y2942D01*
X1035Y2942D01*
X1036Y2942D01*
X1037Y2942D01*
X1038Y2942D01*
X1039Y2942D01*
X1040Y2942D01*
X1041Y2942D01*
X1042Y2942D01*
X1043Y2942D01*
X1044Y2942D01*
X1045Y2942D01*
X1046Y2942D01*
X1047Y2942D01*
X1048Y2942D01*
X1049Y2942D01*
X1050Y2942D01*
X1051Y2942D01*
X1052Y2942D01*
X1053Y2942D01*
X1054Y2942D01*
X1055Y2942D01*
X1056Y2942D01*
X1057Y2942D01*
X1058Y2942D01*
X1059Y2942D01*
X1060Y2942D01*
X1061Y2942D01*
X1062Y2942D01*
X1063Y2942D01*
X1064Y2942D01*
X1065Y2942D01*
X1066Y2942D01*
X1067Y2942D01*
X1068Y2942D01*
X1069Y2942D01*
X1070Y2942D01*
X1071Y2942D01*
X1072Y2942D01*
X1073Y2942D01*
X1074Y2942D01*
X1075Y2942D01*
X1076Y2942D01*
X1077Y2942D01*
X1078Y2942D01*
X1079Y2942D01*
X1080Y2942D01*
X1081Y2942D01*
X1082Y2942D01*
X1083Y2942D01*
X1084Y2942D01*
X1085Y2942D01*
X1086Y2942D01*
X1087Y2942D01*
X1088Y2942D01*
X1089Y2942D01*
X1090Y2942D01*
X1091Y2942D01*
X1092Y2942D01*
X1093Y2942D01*
X1094Y2942D01*
X1095Y2942D01*
X1096Y2942D01*
X1097Y2942D01*
X1098Y2942D01*
X1099Y2942D01*
X1100Y2942D01*
X1101Y2942D01*
X1102Y2942D01*
X1103Y2942D01*
X1104Y2942D01*
X1105Y2942D01*
X1106Y2942D01*
X1107Y2942D01*
X1108Y2942D01*
X1109Y2942D01*
X1110Y2942D01*
X1111Y2942D01*
X1112Y2942D01*
X1113Y2942D01*
X1114Y2942D01*
X1115Y2942D01*
X1116Y2942D01*
X1117Y2942D01*
X1118Y2942D01*
X1119Y2942D01*
X1120Y2942D01*
X1121Y2942D01*
X1122Y2942D01*
X1123Y2942D01*
X1124Y2942D01*
X1125Y2942D01*
X1126Y2942D01*
X1127Y2942D01*
X1128Y2942D01*
X1129Y2942D01*
X1130Y2942D01*
X1131Y2942D01*
X1132Y2942D01*
X1133Y2942D01*
X1134Y2942D01*
X1135Y2942D01*
X1136Y2942D01*
X1137Y2942D01*
X1138Y2942D01*
X1139Y2942D01*
X1140Y2942D01*
X1141Y2942D01*
X1142Y2942D01*
X1143Y2942D01*
X1144Y2942D01*
X1145Y2942D01*
X1146Y2942D01*
X1147Y2942D01*
X1148Y2942D01*
X1149Y2942D01*
X1150Y2942D01*
X1151Y2942D01*
X1152Y2942D01*
X1153Y2942D01*
X1154Y2942D01*
X1155Y2942D01*
X1156Y2942D01*
X1157Y2942D01*
X1158Y2942D01*
X1159Y2942D01*
X1160Y2942D01*
X1161Y2942D01*
X1162Y2942D01*
X1163Y2942D01*
X1164Y2942D01*
X1165Y2942D01*
X1166Y2942D01*
X1167Y2942D01*
X1168Y2942D01*
X1169Y2942D01*
X1170Y2942D01*
X1171Y2942D01*
X1172Y2942D01*
X1173Y2942D01*
X1174Y2942D01*
X1175Y2942D01*
X1176Y2942D01*
X1177Y2942D01*
X1178Y2942D01*
X1179Y2942D01*
X1180Y2942D01*
X1181Y2942D01*
X1182Y2942D01*
X1183Y2942D01*
X1184Y2942D01*
X1185Y2942D01*
X1186Y2942D01*
X1187Y2942D01*
X1188Y2942D01*
X1189Y2942D01*
X1190Y2942D01*
X1191Y2942D01*
X1192Y2942D01*
X1193Y2942D01*
X1194Y2942D01*
X1195Y2942D01*
X1196Y2942D01*
X1197Y2942D01*
X1198Y2942D01*
X1199Y2942D01*
X1200Y2942D01*
X1201Y2942D01*
X1202Y2942D01*
X1203Y2942D01*
X1204Y2942D01*
X1205Y2942D01*
X1206Y2942D01*
X1207Y2942D01*
X1208Y2942D01*
X1209Y2942D01*
X1210Y2942D01*
X1211Y2942D01*
X1212Y2942D01*
X1213Y2942D01*
X1214Y2942D01*
X1215Y2942D01*
X1216Y2942D01*
X1217Y2942D01*
X1218Y2942D01*
X1219Y2942D01*
X1220Y2942D01*
X1221Y2942D01*
X1222Y2942D01*
X1223Y2942D01*
X1224Y2942D01*
X1225Y2942D01*
X1226Y2942D01*
X1227Y2942D01*
X1228Y2942D01*
X1229Y2942D01*
X1230Y2942D01*
X1231Y2942D01*
X1232Y2942D01*
X1233Y2942D01*
X1234Y2942D01*
X1235Y2942D01*
X1236Y2942D01*
X1237Y2942D01*
X1238Y2942D01*
X1239Y2942D01*
X1240Y2942D01*
X1241Y2942D01*
X1242Y2942D01*
X1243Y2942D01*
X1244Y2942D01*
X1245Y2942D01*
X1246Y2942D01*
X1247Y2942D01*
X1248Y2942D01*
X1249Y2942D01*
X1250Y2942D01*
X1251Y2942D01*
X1252Y2942D01*
X1253Y2942D01*
X1254Y2942D01*
X1255Y2942D01*
X1256Y2942D01*
X1257Y2942D01*
X1258Y2942D01*
X1259Y2942D01*
X1260Y2942D01*
X1261Y2942D01*
X1262Y2942D01*
X1263Y2942D01*
X1264Y2942D01*
X1265Y2942D01*
X1266Y2942D01*
X1267Y2942D01*
X1268Y2942D01*
X1269Y2942D01*
X1270Y2942D01*
X1271Y2942D01*
X1272Y2942D01*
X1273Y2942D01*
X1274Y2942D01*
X1275Y2942D01*
X1276Y2942D01*
X1277Y2942D01*
X1278Y2942D01*
X1279Y2942D01*
X1280Y2942D01*
X1281Y2942D01*
X1282Y2942D01*
X1283Y2942D01*
X1284Y2942D01*
X1285Y2942D01*
X1286Y2942D01*
X1287Y2942D01*
X1288Y2942D01*
X1289Y2942D01*
X1290Y2942D01*
X1291Y2942D01*
X1292Y2942D01*
X1293Y2942D01*
X1294Y2942D01*
X1295Y2942D01*
X1296Y2942D01*
X1297Y2942D01*
X1298Y2942D01*
X1299Y2942D01*
X1300Y2942D01*
X1301Y2942D01*
X1302Y2942D01*
X1303Y2942D01*
X1304Y2942D01*
X1305Y2942D01*
X1306Y2942D01*
X1307Y2942D01*
X1308Y2942D01*
X1309Y2942D01*
X1310Y2942D01*
X1311Y2942D01*
X1312Y2942D01*
X1313Y2942D01*
X1314Y2942D01*
X1315Y2942D01*
X1316Y2942D01*
X1317Y2942D01*
X1318Y2942D01*
X1319Y2942D01*
X1320Y2942D01*
X1321Y2942D01*
X1322Y2942D01*
X1323Y2942D01*
X1324Y2942D01*
X1325Y2942D01*
X1326Y2942D01*
X1327Y2942D01*
X1328Y2942D01*
X1329Y2942D01*
X1330Y2942D01*
X1331Y2942D01*
X1332Y2942D01*
X1333Y2942D01*
X1334Y2942D01*
X1335Y2942D01*
X1336Y2942D01*
X1337Y2942D01*
X1338Y2942D01*
X1339Y2942D01*
X1340Y2942D01*
X1341Y2942D01*
X1342Y2942D01*
X1343Y2942D01*
X1344Y2942D01*
X1345Y2942D01*
X1346Y2942D01*
X1347Y2942D01*
X1348Y2942D01*
X1349Y2942D01*
X1350Y2942D01*
X1351Y2942D01*
X1352Y2942D01*
X1353Y2942D01*
X1354Y2942D01*
X1355Y2942D01*
X1356Y2942D01*
X1357Y2942D01*
X1358Y2942D01*
X1359Y2942D01*
X1360Y2942D01*
X1361Y2942D01*
X1362Y2942D01*
X1363Y2942D01*
X1364Y2942D01*
X1365Y2942D01*
X1366Y2942D01*
X1367Y2942D01*
X1368Y2942D01*
X1369Y2942D01*
X1370Y2942D01*
X1371Y2942D01*
X1372Y2942D01*
X1373Y2942D01*
X1374Y2942D01*
X1375Y2942D01*
X1376Y2942D01*
X1377Y2942D01*
X1378Y2942D01*
X1379Y2942D01*
X1380Y2942D01*
X1381Y2942D01*
X1382Y2942D01*
X1383Y2942D01*
X1384Y2942D01*
X1385Y2942D01*
X1386Y2942D01*
X1387Y2942D01*
X1388Y2942D01*
X1389Y2942D01*
X1390Y2942D01*
X1391Y2942D01*
X1392Y2942D01*
X1393Y2942D01*
X1394Y2942D01*
X1395Y2942D01*
X1396Y2942D01*
X1397Y2942D01*
X1398Y2942D01*
X1399Y2942D01*
X1400Y2942D01*
X1401Y2942D01*
X1402Y2942D01*
X1403Y2942D01*
X1404Y2942D01*
X1405Y2942D01*
X1406Y2942D01*
X1407Y2942D01*
X1408Y2942D01*
X1409Y2942D01*
X1410Y2942D01*
X1411Y2942D01*
X1412Y2942D01*
X1413Y2942D01*
X1414Y2942D01*
X1415Y2942D01*
X1416Y2942D01*
X1417Y2942D01*
X1418Y2942D01*
X1419Y2942D01*
X1420Y2942D01*
X1421Y2942D01*
X1422Y2942D01*
X1423Y2942D01*
X1424Y2942D01*
X1425Y2942D01*
X1426Y2942D01*
X1427Y2942D01*
X1428Y2942D01*
X1429Y2942D01*
X1430Y2942D01*
X1431Y2942D01*
X1432Y2942D01*
X1433Y2942D01*
X1434Y2942D01*
X1435Y2942D01*
X1436Y2942D01*
X1437Y2942D01*
X1438Y2942D01*
X1439Y2942D01*
X1440Y2942D01*
X1441Y2942D01*
X1442Y2942D01*
X1443Y2942D01*
X1444Y2942D01*
X1445Y2942D01*
X1446Y2942D01*
X1447Y2942D01*
X1448Y2942D01*
X1449Y2942D01*
X1450Y2942D01*
X1451Y2942D01*
X1452Y2942D01*
X1453Y2942D01*
X1454Y2942D01*
X1455Y2942D01*
X1456Y2942D01*
X1457Y2942D01*
X1458Y2942D01*
X1459Y2942D01*
X1460Y2942D01*
X1461Y2942D01*
X1462Y2942D01*
X1463Y2942D01*
X1464Y2942D01*
X1465Y2942D01*
X1466Y2942D01*
X1467Y2942D01*
X1468Y2942D01*
X1469Y2942D01*
X1470Y2942D01*
X1471Y2942D01*
X1472Y2942D01*
X1473Y2942D01*
X1474Y2942D01*
X1475Y2942D01*
X1476Y2942D01*
X1477Y2942D01*
X1478Y2942D01*
X1479Y2942D01*
X1480Y2942D01*
X1481Y2942D01*
X1482Y2942D01*
X1483Y2942D01*
X1484Y2942D01*
X1485Y2942D01*
X1486Y2942D01*
X1487Y2942D01*
X1488Y2942D01*
X1489Y2942D01*
X1490Y2942D01*
X1491Y2942D01*
X1492Y2942D01*
X1493Y2942D01*
X1494Y2942D01*
X1495Y2942D01*
X1496Y2942D01*
X1497Y2942D01*
X1498Y2942D01*
X1499Y2942D01*
X1500Y2942D01*
X1501Y2942D01*
X1502Y2942D01*
X1503Y2942D01*
X1504Y2942D01*
X1505Y2942D01*
X1506Y2942D01*
X1507Y2942D01*
X1508Y2942D01*
X1509Y2942D01*
X1510Y2942D01*
X1511Y2942D01*
X1512Y2942D01*
X1513Y2942D01*
X1514Y2942D01*
X1515Y2942D01*
X1516Y2942D01*
X1517Y2942D01*
X1518Y2942D01*
X1519Y2942D01*
X1520Y2942D01*
X1521Y2942D01*
X1522Y2942D01*
X1523Y2942D01*
X1524Y2942D01*
X1525Y2942D01*
X1526Y2942D01*
X1527Y2942D01*
X1528Y2942D01*
X1529Y2942D01*
X1530Y2942D01*
X1531Y2942D01*
X1532Y2942D01*
X1533Y2942D01*
X1534Y2942D01*
X1535Y2942D01*
X1536Y2942D01*
X1537Y2942D01*
X1538Y2942D01*
X1539Y2942D01*
X1540Y2942D01*
X1541Y2942D01*
X1542Y2942D01*
X1543Y2942D01*
X1544Y2942D01*
X1545Y2942D01*
X1546Y2942D01*
X1547Y2942D01*
X1548Y2942D01*
X1549Y2942D01*
X1550Y2942D01*
X1551Y2942D01*
X1552Y2942D01*
X1553Y2942D01*
X1554Y2942D01*
X1555Y2942D01*
X1556Y2942D01*
X1557Y2942D01*
X1558Y2942D01*
X1559Y2942D01*
X1560Y2942D01*
X1561Y2942D01*
X1562Y2942D01*
X1563Y2942D01*
X1564Y2942D01*
X1565Y2942D01*
X1566Y2942D01*
X1567Y2942D01*
X1568Y2942D01*
X1569Y2942D01*
X1570Y2942D01*
X1571Y2942D01*
X1572Y2942D01*
X1573Y2942D01*
X1574Y2942D01*
X1575Y2942D01*
X1576Y2942D01*
X1577Y2942D01*
X1578Y2942D01*
X1579Y2942D01*
X1580Y2942D01*
X1581Y2942D01*
X1582Y2942D01*
X1583Y2942D01*
X1584Y2942D01*
X1585Y2942D01*
X1586Y2942D01*
X1587Y2942D01*
X1588Y2942D01*
X1589Y2942D01*
X1590Y2942D01*
X1591Y2942D01*
X1592Y2942D01*
X1593Y2942D01*
X1594Y2942D01*
X1595Y2942D01*
X1596Y2942D01*
X1597Y2942D01*
X1598Y2942D01*
X1599Y2942D01*
X1600Y2942D01*
X1601Y2942D01*
X1602Y2942D01*
X1603Y2942D01*
X1604Y2942D01*
X1605Y2942D01*
X1606Y2942D01*
X1607Y2942D01*
X1608Y2942D01*
X1609Y2942D01*
X1610Y2942D01*
X1611Y2942D01*
X1612Y2942D01*
X1613Y2942D01*
X1614Y2942D01*
X1615Y2942D01*
X1616Y2942D01*
X1617Y2942D01*
X1618Y2942D01*
X1619Y2942D01*
X1620Y2942D01*
X1621Y2942D01*
X1622Y2942D01*
X1623Y2942D01*
X1624Y2942D01*
X1625Y2942D01*
X1626Y2942D01*
X1627Y2942D01*
X1628Y2942D01*
X1629Y2942D01*
X1630Y2942D01*
X1631Y2942D01*
X1632Y2942D01*
X1633Y2942D01*
X1634Y2942D01*
X1635Y2942D01*
X1636Y2942D01*
X1637Y2942D01*
X1638Y2942D01*
X1639Y2942D01*
X1640Y2942D01*
X1641Y2942D01*
X1642Y2942D01*
X1643Y2942D01*
X1644Y2942D01*
X1645Y2942D01*
X1646Y2942D01*
X1647Y2942D01*
X1648Y2942D01*
X1649Y2942D01*
X1650Y2942D01*
X1651Y2942D01*
X1652Y2942D01*
X1653Y2942D01*
X1654Y2942D01*
X1655Y2942D01*
X1656Y2942D01*
X1657Y2942D01*
X1658Y2942D01*
X1659Y2942D01*
X1660Y2942D01*
X1661Y2942D01*
X1662Y2942D01*
X1663Y2942D01*
X1664Y2942D01*
X1665Y2942D01*
X1666Y2942D01*
X1667Y2942D01*
X1668Y2942D01*
X1669Y2942D01*
X1670Y2942D01*
X1671Y2942D01*
X1672Y2942D01*
X1673Y2942D01*
X1674Y2942D01*
X1675Y2942D01*
X1676Y2942D01*
X1677Y2942D01*
X1678Y2942D01*
X1679Y2942D01*
X1680Y2942D01*
X1681Y2942D01*
X1682Y2942D01*
X1683Y2942D01*
X1684Y2942D01*
X1685Y2942D01*
X1686Y2942D01*
X1687Y2942D01*
X1688Y2942D01*
X1689Y2942D01*
X1690Y2942D01*
X1691Y2942D01*
X1692Y2942D01*
X1693Y2942D01*
X1694Y2942D01*
X1695Y2942D01*
X1696Y2942D01*
X1697Y2942D01*
X1698Y2942D01*
X1699Y2942D01*
X1700Y2942D01*
X1701Y2942D01*
X1702Y2942D01*
X1703Y2942D01*
X1704Y2942D01*
X1705Y2942D01*
X1706Y2942D01*
X1707Y2942D01*
X1708Y2942D01*
X1709Y2942D01*
X1710Y2942D01*
X1711Y2942D01*
X1712Y2942D01*
X1713Y2942D01*
X1714Y2942D01*
X1715Y2942D01*
X1716Y2942D01*
X1717Y2942D01*
X1718Y2942D01*
X1719Y2942D01*
X1720Y2942D01*
X1721Y2942D01*
X1722Y2942D01*
X1723Y2942D01*
X1724Y2942D01*
X1725Y2942D01*
X1726Y2942D01*
X1727Y2942D01*
X1728Y2942D01*
X1729Y2942D01*
X1730Y2942D01*
X1731Y2942D01*
X1732Y2942D01*
X1733Y2942D01*
X1734Y2942D01*
X1735Y2942D01*
X1736Y2942D01*
X1737Y2942D01*
X1738Y2942D01*
X1739Y2942D01*
X1740Y2942D01*
X1741Y2942D01*
X1742Y2942D01*
X1743Y2942D01*
X1744Y2942D01*
X1745Y2942D01*
X1746Y2942D01*
X1747Y2942D01*
X1748Y2942D01*
X1749Y2942D01*
X1750Y2942D01*
X1751Y2942D01*
X1752Y2942D01*
X1753Y2942D01*
X1754Y2942D01*
X1755Y2942D01*
X1756Y2942D01*
X1757Y2942D01*
X1758Y2942D01*
X1759Y2942D01*
X1760Y2942D01*
X1761Y2942D01*
X1762Y2942D01*
X1763Y2942D01*
X1764Y2942D01*
X1765Y2942D01*
X1766Y2942D01*
X1767Y2942D01*
X1768Y2942D01*
X1769Y2942D01*
X1770Y2942D01*
X1771Y2942D01*
X1772Y2942D01*
X1773Y2942D01*
X1774Y2942D01*
X1775Y2942D01*
X1776Y2942D01*
X1777Y2942D01*
X1778Y2942D01*
X1779Y2942D01*
X1780Y2942D01*
X1781Y2942D01*
X1782Y2942D01*
X1783Y2942D01*
X1784Y2942D01*
X1785Y2942D01*
X1786Y2942D01*
X1787Y2942D01*
X1788Y2942D01*
X1789Y2942D01*
X1790Y2942D01*
X1791Y2942D01*
X1792Y2942D01*
X1793Y2942D01*
X1794Y2942D01*
X1795Y2942D01*
X1796Y2942D01*
X1797Y2942D01*
X1798Y2942D01*
X1799Y2942D01*
X1800Y2942D01*
X1801Y2942D01*
X1802Y2942D01*
X1803Y2942D01*
X1804Y2942D01*
X1805Y2942D01*
X1806Y2942D01*
X1807Y2942D01*
X1808Y2942D01*
X1809Y2942D01*
X1810Y2942D01*
X1811Y2942D01*
X1812Y2942D01*
X1813Y2942D01*
X1814Y2942D01*
X1815Y2942D01*
X1816Y2942D01*
X1817Y2942D01*
X1818Y2942D01*
X1819Y2942D01*
X1820Y2942D01*
X1821Y2942D01*
X1822Y2942D01*
X1823Y2942D01*
X1824Y2942D01*
X1825Y2942D01*
X1826Y2942D01*
X1827Y2942D01*
X1828Y2942D01*
X1829Y2942D01*
X1830Y2942D01*
X1831Y2942D01*
X1832Y2942D01*
X1833Y2942D01*
X1834Y2942D01*
X1835Y2942D01*
X1836Y2942D01*
X1837Y2942D01*
X1838Y2942D01*
X1839Y2942D01*
X1840Y2942D01*
X1841Y2942D01*
X1842Y2942D01*
X1843Y2942D01*
X1844Y2942D01*
X1845Y2942D01*
X1846Y2942D01*
X1847Y2942D01*
X1848Y2942D01*
X1849Y2942D01*
X1850Y2942D01*
X1851Y2942D01*
X1852Y2942D01*
X1853Y2942D01*
X1854Y2942D01*
X1855Y2942D01*
X1856Y2942D01*
X1857Y2942D01*
X1858Y2942D01*
X1859Y2942D01*
X1860Y2942D01*
X1861Y2942D01*
X1862Y2942D01*
X1863Y2942D01*
X1864Y2942D01*
X1865Y2942D01*
X1866Y2942D01*
X1867Y2942D01*
X1868Y2942D01*
X1869Y2942D01*
X1870Y2942D01*
X1871Y2942D01*
X1872Y2942D01*
X1873Y2942D01*
X1874Y2942D01*
X1875Y2942D01*
X1876Y2942D01*
X1877Y2942D01*
X1878Y2942D01*
X1879Y2942D01*
X1880Y2942D01*
X1881Y2942D01*
X1882Y2942D01*
X1883Y2942D01*
X1884Y2942D01*
X1885Y2942D01*
X1886Y2942D01*
X1887Y2942D01*
X1888Y2942D01*
X1889Y2942D01*
X1890Y2942D01*
X1891Y2942D01*
X1892Y2942D01*
X1893Y2942D01*
X1894Y2942D01*
X1895Y2942D01*
X1896Y2942D01*
X1897Y2942D01*
X1898Y2942D01*
X1899Y2942D01*
X1900Y2942D01*
X1901Y2942D01*
X1902Y2942D01*
X1903Y2942D01*
X1904Y2942D01*
X1905Y2942D01*
X1906Y2942D01*
X1907Y2942D01*
X1908Y2942D01*
X1909Y2942D01*
X1910Y2942D01*
X1911Y2942D01*
X1912Y2942D01*
X1913Y2942D01*
X1914Y2942D01*
X1915Y2942D01*
X1916Y2942D01*
X1917Y2942D01*
X1918Y2942D01*
X1919Y2942D01*
X1920Y2942D01*
X1921Y2942D01*
X1922Y2942D01*
X1923Y2942D01*
X1924Y2942D01*
X1925Y2942D01*
X1926Y2942D01*
X1927Y2942D01*
X1928Y2942D01*
X1929Y2942D01*
X1930Y2942D01*
X1931Y2942D01*
X1932Y2942D01*
X1933Y2942D01*
X1934Y2942D01*
X1935Y2942D01*
X1936Y2942D01*
X1937Y2942D01*
X1938Y2942D01*
X1939Y2942D01*
X1940Y2942D01*
X1941Y2942D01*
X1942Y2942D01*
X1943Y2942D01*
X1944Y2942D01*
X1945Y2942D01*
X1946Y2942D01*
X1947Y2942D01*
X1948Y2942D01*
X1949Y2942D01*
X1950Y2942D01*
X1951Y2942D01*
X1952Y2942D01*
X1953Y2942D01*
X1954Y2942D01*
X1955Y2942D01*
X1956Y2942D01*
X1957Y2942D01*
X1958Y2942D01*
X1959Y2942D01*
X1960Y2942D01*
X1961Y2942D01*
X1962Y2942D01*
X1963Y2942D01*
X1964Y2942D01*
X1965Y2942D01*
X1966Y2942D01*
X1967Y2942D01*
X1968Y2942D01*
X1969Y2942D01*
X1970Y2942D01*
X1971Y2942D01*
X1972Y2942D01*
X1973Y2942D01*
X1974Y2942D01*
X1975Y2942D01*
X1976Y2942D01*
X1977Y2942D01*
X1978Y2942D01*
X1979Y2942D01*
X1980Y2942D01*
X1981Y2942D01*
X1982Y2942D01*
X1983Y2942D01*
X1984Y2942D01*
X1985Y2942D01*
X1986Y2942D01*
X1987Y2942D01*
X1988Y2942D01*
X1989Y2942D01*
X1990Y2942D01*
X1991Y2942D01*
X1992Y2942D01*
X1993Y2942D01*
X1994Y2942D01*
X1995Y2942D01*
X1996Y2942D01*
X1997Y2942D01*
X1998Y2942D01*
X1999Y2942D01*
X2000Y2942D01*
X2001Y2942D01*
X2002Y2942D01*
X2003Y2942D01*
X2004Y2942D01*
X2005Y2942D01*
X2006Y2942D01*
X2007Y2942D01*
X2008Y2942D01*
X2009Y2942D01*
X2010Y2942D01*
X2011Y2942D01*
X2012Y2942D01*
X2013Y2942D01*
X2014Y2942D01*
X2015Y2942D01*
X2016Y2942D01*
X2017Y2942D01*
X2018Y2942D01*
X2019Y2942D01*
X2020Y2942D01*
X2021Y2942D01*
X2022Y2942D01*
X2023Y2942D01*
X2024Y2942D01*
X2025Y2942D01*
X2026Y2942D01*
X2027Y2942D01*
X2028Y2942D01*
X2029Y2942D01*
X2030Y2942D01*
X2031Y2942D01*
X2032Y2942D01*
X2033Y2942D01*
X2034Y2942D01*
X2035Y2942D01*
X2036Y2942D01*
X2037Y2942D01*
X2038Y2942D01*
X2039Y2942D01*
X2040Y2942D01*
X2041Y2942D01*
X2042Y2942D01*
X2043Y2942D01*
X2044Y2942D01*
X2045Y2942D01*
X2046Y2942D01*
X2047Y2942D01*
X2048Y2942D01*
X2049Y2942D01*
X2050Y2942D01*
X2051Y2942D01*
X2052Y2942D01*
X2053Y2942D01*
X2054Y2942D01*
X2055Y2942D01*
X2056Y2942D01*
X2057Y2942D01*
X2058Y2942D01*
X2059Y2942D01*
X2060Y2942D01*
X2061Y2942D01*
X2062Y2942D01*
X2063Y2942D01*
X2064Y2942D01*
X2065Y2942D01*
X2066Y2942D01*
X2067Y2942D01*
X2068Y2942D01*
X2069Y2942D01*
X2070Y2942D01*
X2071Y2942D01*
X2072Y2942D01*
X2073Y2942D01*
X2074Y2942D01*
X2075Y2942D01*
X2076Y2942D01*
X2077Y2942D01*
X2078Y2942D01*
X2079Y2942D01*
X2080Y2942D01*
X2081Y2942D01*
X2082Y2942D01*
X2083Y2942D01*
X2084Y2942D01*
X2085Y2942D01*
X2086Y2942D01*
X2087Y2942D01*
X2088Y2942D01*
X2089Y2942D01*
X2090Y2942D01*
X2091Y2942D01*
X2092Y2942D01*
X2093Y2942D01*
X2094Y2942D01*
X2095Y2942D01*
X2096Y2942D01*
X2097Y2942D01*
X2098Y2942D01*
X2099Y2942D01*
X2100Y2942D01*
X2101Y2942D01*
X2102Y2942D01*
X2103Y2942D01*
X2104Y2942D01*
X2105Y2942D01*
X2106Y2942D01*
X2107Y2942D01*
X2108Y2942D01*
X2109Y2942D01*
X2110Y2942D01*
X2111Y2942D01*
X2112Y2942D01*
X2113Y2942D01*
X2114Y2942D01*
X2115Y2942D01*
X2116Y2942D01*
X2117Y2942D01*
X2118Y2942D01*
X2119Y2942D01*
X2120Y2942D01*
X2121Y2942D01*
X2122Y2942D01*
X2123Y2942D01*
X2124Y2942D01*
X2125Y2942D01*
X2126Y2942D01*
X2127Y2942D01*
X2128Y2942D01*
X2129Y2942D01*
X2130Y2942D01*
X2131Y2942D01*
X2132Y2942D01*
X2133Y2942D01*
X2134Y2942D01*
X2135Y2942D01*
X2136Y2942D01*
X2137Y2942D01*
X2138Y2942D01*
X2139Y2942D01*
X2140Y2942D01*
X2141Y2942D01*
X2142Y2942D01*
X2143Y2942D01*
X2144Y2942D01*
X2145Y2942D01*
X2146Y2942D01*
X2147Y2942D01*
X2148Y2942D01*
X2149Y2942D01*
X2150Y2942D01*
X2151Y2942D01*
X2152Y2942D01*
X2153Y2942D01*
X2154Y2942D01*
X2155Y2942D01*
X2156Y2942D01*
X2157Y2942D01*
X2158Y2942D01*
X2159Y2942D01*
X2160Y2942D01*
X2161Y2942D01*
X2162Y2942D01*
X2163Y2942D01*
X2164Y2942D01*
X2165Y2942D01*
X2166Y2942D01*
X2167Y2942D01*
X2168Y2942D01*
X2169Y2942D01*
X2170Y2942D01*
X2171Y2942D01*
X2172Y2942D01*
X2173Y2942D01*
X2174Y2942D01*
X2175Y2942D01*
X2176Y2942D01*
X2177Y2942D01*
X2178Y2942D01*
X2179Y2942D01*
X2180Y2942D01*
X2181Y2942D01*
X2182Y2942D01*
X2183Y2942D01*
X2184Y2942D01*
X2185Y2942D01*
X2186Y2942D01*
X2187Y2942D01*
X2188Y2942D01*
X2189Y2942D01*
X2190Y2942D01*
X2191Y2942D01*
X2192Y2942D01*
X2193Y2942D01*
X2194Y2942D01*
X2195Y2942D01*
X2196Y2942D01*
X2197Y2942D01*
X2198Y2942D01*
X2199Y2942D01*
X2200Y2942D01*
X2201Y2942D01*
X2202Y2942D01*
X2203Y2942D01*
X2204Y2942D01*
X2205Y2942D01*
X2206Y2942D01*
X2207Y2942D01*
X2208Y2942D01*
X2209Y2942D01*
X2210Y2942D01*
X2211Y2942D01*
X2212Y2942D01*
X2213Y2942D01*
X2214Y2942D01*
X2215Y2942D01*
X2216Y2942D01*
X2217Y2942D01*
X2218Y2942D01*
X2219Y2942D01*
X2220Y2942D01*
X2221Y2942D01*
X2222Y2942D01*
X2223Y2942D01*
X2224Y2942D01*
X2225Y2942D01*
X2226Y2942D01*
X2227Y2942D01*
X2228Y2942D01*
X2229Y2942D01*
X2230Y2942D01*
X2231Y2942D01*
X2232Y2942D01*
X2233Y2942D01*
X2234Y2942D01*
X2235Y2942D01*
X2236Y2942D01*
X2237Y2942D01*
X2238Y2942D01*
X2239Y2942D01*
X2240Y2942D01*
X2241Y2942D01*
X2242Y2942D01*
X2243Y2942D01*
X2244Y2942D01*
X2245Y2942D01*
X2246Y2942D01*
X2247Y2942D01*
X2248Y2942D01*
X2249Y2942D01*
X2250Y2942D01*
X2251Y2942D01*
X2252Y2942D01*
X2253Y2942D01*
X2254Y2942D01*
X2255Y2942D01*
X2256Y2942D01*
X2257Y2942D01*
X2258Y2942D01*
X2259Y2942D01*
X2260Y2942D01*
X2261Y2942D01*
X2262Y2942D01*
X2263Y2942D01*
X2264Y2942D01*
X2265Y2942D01*
X2266Y2942D01*
X2267Y2942D01*
X2268Y2942D01*
X2269Y2942D01*
X2270Y2942D01*
X2271Y2942D01*
X2272Y2942D01*
X2273Y2942D01*
X2274Y2942D01*
X2275Y2942D01*
X2276Y2942D01*
X2277Y2942D01*
X2278Y2942D01*
X2279Y2942D01*
X2280Y2942D01*
X2281Y2942D01*
X2282Y2942D01*
X2283Y2942D01*
X2284Y2942D01*
X2285Y2942D01*
X2286Y2942D01*
X2287Y2942D01*
X2288Y2942D01*
X2289Y2942D01*
X2290Y2942D01*
X2291Y2942D01*
X2292Y2942D01*
X2293Y2942D01*
X2294Y2942D01*
X2295Y2942D01*
X2296Y2942D01*
X2297Y2942D01*
X2298Y2942D01*
X2299Y2942D01*
X2300Y2942D01*
X2301Y2942D01*
X2302Y2942D01*
X2303Y2942D01*
X2304Y2942D01*
X2305Y2942D01*
X2306Y2942D01*
X2307Y2942D01*
X2308Y2942D01*
X2309Y2942D01*
X2310Y2942D01*
X2311Y2942D01*
X2312Y2942D01*
X2313Y2942D01*
X2314Y2942D01*
X2315Y2942D01*
X2316Y2942D01*
X2317Y2942D01*
X2318Y2942D01*
X2319Y2942D01*
X2320Y2942D01*
X2321Y2942D01*
X2322Y2942D01*
X2323Y2942D01*
X2324Y2942D01*
X2325Y2942D01*
X2326Y2942D01*
X2327Y2942D01*
X2328Y2942D01*
X2329Y2942D01*
X2330Y2942D01*
X2331Y2942D01*
X2332Y2942D01*
X2333Y2942D01*
X2334Y2942D01*
X2335Y2942D01*
X2336Y2942D01*
X2337Y2942D01*
X2338Y2942D01*
X2339Y2942D01*
X2340Y2942D01*
X2341Y2942D01*
X2342Y2942D01*
X2343Y2942D01*
X2344Y2942D01*
X2345Y2942D01*
X2346Y2942D01*
X2347Y2942D01*
X2348Y2942D01*
X2349Y2942D01*
X2350Y2942D01*
X2351Y2942D01*
X2352Y2942D01*
X2353Y2942D01*
X2354Y2942D01*
X2355Y2942D01*
X2356Y2942D01*
X2357Y2942D01*
X2358Y2942D01*
X2359Y2942D01*
X2360Y2942D01*
X2361Y2942D01*
X2362Y2942D01*
X2363Y2942D01*
X2364Y2942D01*
X2365Y2942D01*
X2366Y2942D01*
X2367Y2942D01*
X2368Y2942D01*
X2369Y2942D01*
X2370Y2942D01*
X2371Y2942D01*
X2372Y2942D01*
X2373Y2942D01*
X2374Y2942D01*
X2375Y2942D01*
X2376Y2942D01*
X2377Y2942D01*
X2378Y2942D01*
X2379Y2942D01*
X2380Y2942D01*
X2381Y2942D01*
X2382Y2942D01*
X2383Y2942D01*
X2384Y2942D01*
X2385Y2942D01*
X2386Y2942D01*
X2387Y2942D01*
X2388Y2942D01*
X2389Y2942D01*
X2390Y2942D01*
X2391Y2942D01*
X2392Y2942D01*
X2393Y2942D01*
X2394Y2942D01*
X2395Y2942D01*
X2396Y2942D01*
X2397Y2942D01*
X2398Y2942D01*
X2399Y2942D01*
X2400Y2942D01*
X2401Y2942D01*
X2402Y2942D01*
X2403Y2942D01*
X2404Y2942D01*
X2405Y2942D01*
X2406Y2942D01*
X2407Y2942D01*
X2408Y2942D01*
X2409Y2942D01*
X2410Y2942D01*
X2411Y2942D01*
X2412Y2942D01*
X2413Y2942D01*
X2414Y2942D01*
X2415Y2942D01*
X2416Y2942D01*
X2417Y2942D01*
X2418Y2942D01*
X2419Y2942D01*
X2420Y2942D01*
X2421Y2942D01*
X2422Y2942D01*
X2423Y2942D01*
X2424Y2942D01*
X2425Y2942D01*
X2426Y2942D01*
X2427Y2942D01*
X2428Y2942D01*
X2429Y2942D01*
X2430Y2942D01*
X2431Y2942D01*
X2432Y2942D01*
X2433Y2942D01*
X2434Y2942D01*
X2435Y2942D01*
X2436Y2942D01*
X2437Y2942D01*
X2438Y2942D01*
X2439Y2942D01*
X2440Y2942D01*
X2441Y2942D01*
X2442Y2942D01*
X2443Y2942D01*
X2444Y2942D01*
X2445Y2942D01*
X2446Y2942D01*
X2447Y2942D01*
X2448Y2942D01*
X2449Y2942D01*
X2450Y2942D01*
X2451Y2942D01*
X2452Y2942D01*
X2453Y2942D01*
X2454Y2942D01*
X2455Y2942D01*
X2456Y2942D01*
X2457Y2942D01*
X2458Y2942D01*
X2459Y2942D01*
X2460Y2942D01*
X2461Y2942D01*
X2462Y2942D01*
X2463Y2942D01*
X2464Y2942D01*
X2465Y2942D01*
X2466Y2942D01*
X2467Y2942D01*
X2468Y2942D01*
X2469Y2942D01*
X2470Y2942D01*
X2471Y2942D01*
X2472Y2942D01*
X2473Y2942D01*
X2474Y2942D01*
X2475Y2942D01*
X2476Y2942D01*
X2477Y2942D01*
X2478Y2942D01*
X2479Y2942D01*
X2480Y2942D01*
X2481Y2942D01*
X2482Y2942D01*
X2483Y2942D01*
X2484Y2942D01*
X2485Y2942D01*
X2486Y2942D01*
X2487Y2942D01*
X2488Y2942D01*
X2489Y2942D01*
X2490Y2942D01*
X2491Y2942D01*
X2492Y2942D01*
X2493Y2942D01*
X2494Y2942D01*
X2495Y2942D01*
X2496Y2942D01*
X2497Y2942D01*
X2498Y2942D01*
X2499Y2942D01*
X2500Y2942D01*
X2501Y2942D01*
X2502Y2942D01*
X2503Y2942D01*
X2504Y2942D01*
X2505Y2942D01*
X2506Y2942D01*
X2507Y2942D01*
X2508Y2942D01*
X2509Y2942D01*
X2510Y2942D01*
X2511Y2942D01*
X2512Y2942D01*
X2513Y2942D01*
X2514Y2942D01*
X2515Y2942D01*
X2516Y2942D01*
X2517Y2942D01*
X2518Y2942D01*
X2519Y2942D01*
X2520Y2942D01*
X2521Y2942D01*
X2522Y2942D01*
X2523Y2942D01*
X2524Y2942D01*
X2525Y2942D01*
X2526Y2942D01*
X2527Y2942D01*
X2528Y2942D01*
X2529Y2942D01*
X2530Y2942D01*
X2531Y2942D01*
X2532Y2942D01*
X2533Y2942D01*
X2534Y2942D01*
X2535Y2942D01*
X2536Y2942D01*
X2537Y2942D01*
X2538Y2942D01*
X2539Y2942D01*
X2540Y2942D01*
X2541Y2942D01*
X2542Y2942D01*
X2543Y2942D01*
X2544Y2942D01*
X2545Y2942D01*
X2546Y2942D01*
X2547Y2942D01*
X2548Y2942D01*
X2549Y2942D01*
X2550Y2942D01*
X2551Y2942D01*
X2552Y2942D01*
X2553Y2942D01*
X2554Y2942D01*
X2555Y2942D01*
X2556Y2942D01*
X2557Y2942D01*
X2558Y2942D01*
X2559Y2942D01*
X2560Y2942D01*
X2561Y2942D01*
X2562Y2942D01*
X2563Y2942D01*
X2564Y2942D01*
X2565Y2942D01*
X2566Y2942D01*
X2567Y2942D01*
X2568Y2942D01*
X2569Y2942D01*
X2570Y2942D01*
X2571Y2942D01*
X2572Y2942D01*
X2573Y2942D01*
X2574Y2942D01*
X2575Y2942D01*
X2576Y2942D01*
X2577Y2942D01*
X2578Y2942D01*
X2579Y2942D01*
X2580Y2942D01*
X2581Y2942D01*
X2582Y2942D01*
X2583Y2942D01*
X2584Y2942D01*
X2585Y2942D01*
X2586Y2942D01*
X2587Y2942D01*
X2588Y2942D01*
X2589Y2942D01*
X2590Y2942D01*
X2591Y2942D01*
X2592Y2942D01*
X2593Y2942D01*
X2594Y2942D01*
X2595Y2942D01*
X2596Y2942D01*
X2597Y2942D01*
X2598Y2942D01*
X2599Y2942D01*
X2600Y2942D01*
X2601Y2942D01*
X2602Y2942D01*
X2603Y2942D01*
X2604Y2942D01*
X2605Y2942D01*
X2606Y2942D01*
X2607Y2942D01*
X2608Y2942D01*
X2609Y2942D01*
X2610Y2942D01*
X2611Y2942D01*
X2612Y2942D01*
X2613Y2942D01*
X2614Y2942D01*
X2615Y2942D01*
X2616Y2942D01*
X2617Y2942D01*
X2618Y2942D01*
X2619Y2942D01*
X2620Y2942D01*
X2621Y2942D01*
X2622Y2942D01*
X2623Y2942D01*
X2624Y2942D01*
X2625Y2942D01*
X2626Y2942D01*
X2627Y2942D01*
X2628Y2942D01*
X2629Y2942D01*
X2630Y2942D01*
X2631Y2942D01*
X2632Y2942D01*
X2633Y2942D01*
X2634Y2942D01*
X2635Y2942D01*
X2636Y2942D01*
X2637Y2942D01*
X2638Y2942D01*
X2639Y2942D01*
X2640Y2942D01*
X2641Y2942D01*
X2642Y2942D01*
X2643Y2942D01*
X2644Y2942D01*
X2645Y2942D01*
X2646Y2942D01*
X2647Y2942D01*
X2648Y2942D01*
X2649Y2942D01*
X2650Y2942D01*
X2651Y2942D01*
X2652Y2942D01*
X2653Y2942D01*
X2654Y2942D01*
X2655Y2942D01*
X2656Y2942D01*
X2657Y2942D01*
X2658Y2942D01*
X2659Y2942D01*
X2660Y2942D01*
X2661Y2942D01*
X2662Y2942D01*
X2663Y2942D01*
X2664Y2942D01*
X2665Y2942D01*
X2666Y2942D01*
X2667Y2942D01*
X2668Y2942D01*
X2669Y2942D01*
X2670Y2942D01*
X2671Y2942D01*
X2672Y2942D01*
X2673Y2942D01*
X2674Y2942D01*
X2675Y2942D01*
X2676Y2942D01*
X2677Y2942D01*
X2678Y2942D01*
X2679Y2942D01*
X2680Y2942D01*
X2681Y2942D01*
X2682Y2942D01*
X2683Y2942D01*
X2684Y2942D01*
X2685Y2942D01*
X2686Y2942D01*
X2687Y2942D01*
X2688Y2942D01*
X2689Y2942D01*
X2690Y2942D01*
X2691Y2942D01*
X2692Y2942D01*
X2693Y2942D01*
X2694Y2942D01*
X2695Y2942D01*
X2696Y2942D01*
X2697Y2942D01*
X2698Y2942D01*
X2699Y2942D01*
X2700Y2942D01*
X2701Y2942D01*
X2702Y2942D01*
X2703Y2942D01*
X2704Y2942D01*
X2705Y2942D01*
X2706Y2942D01*
X2707Y2942D01*
X2708Y2942D01*
X2709Y2942D01*
X2710Y2942D01*
X2711Y2942D01*
X2712Y2942D01*
X2713Y2942D01*
X2714Y2942D01*
X2715Y2942D01*
X2716Y2942D01*
X2717Y2942D01*
X2718Y2942D01*
X2719Y2942D01*
X2720Y2942D01*
X2721Y2942D01*
X2722Y2942D01*
X2723Y2942D01*
X2724Y2942D01*
X2725Y2942D01*
X2726Y2942D01*
X2727Y2942D01*
X2728Y2942D01*
X2729Y2942D01*
X2730Y2942D01*
X2731Y2942D01*
X2732Y2942D01*
X2733Y2942D01*
X2734Y2942D01*
X2735Y2942D01*
X2736Y2942D01*
X2737Y2942D01*
X2738Y2942D01*
X2739Y2942D01*
X2740Y2942D01*
X2741Y2942D01*
X2742Y2942D01*
X2743Y2942D01*
X2744Y2942D01*
X2745Y2942D01*
X2746Y2942D01*
X2747Y2942D01*
X2748Y2942D01*
X2749Y2942D01*
X2750Y2942D01*
X2751Y2942D01*
X2752Y2942D01*
X2753Y2942D01*
X2754Y2942D01*
X2755Y2942D01*
X2756Y2942D01*
X2757Y2942D01*
X2758Y2942D01*
X2759Y2942D01*
X2760Y2942D01*
X2761Y2942D01*
X2762Y2942D01*
X2763Y2942D01*
X2764Y2942D01*
X2765Y2942D01*
X2766Y2942D01*
X2767Y2942D01*
X2768Y2942D01*
X2769Y2942D01*
X2770Y2942D01*
X2771Y2942D01*
X2772Y2942D01*
X2773Y2942D01*
X2774Y2942D01*
X2775Y2942D01*
X2776Y2942D01*
X2777Y2942D01*
X2778Y2942D01*
X2779Y2942D01*
X2780Y2942D01*
X2781Y2942D01*
X2782Y2942D01*
X2783Y2942D01*
X2784Y2942D01*
X2785Y2942D01*
X2786Y2942D01*
X2787Y2942D01*
X2788Y2942D01*
X2789Y2942D01*
X2790Y2942D01*
X2791Y2942D01*
X2792Y2942D01*
X2793Y2942D01*
X2794Y2942D01*
X2795Y2942D01*
X2796Y2942D01*
X2797Y2942D01*
X2798Y2942D01*
X2799Y2942D01*
X2800Y2942D01*
X2801Y2942D01*
X2802Y2942D01*
X2803Y2942D01*
X2804Y2942D01*
X2805Y2942D01*
X2806Y2942D01*
X2807Y2942D01*
X2808Y2942D01*
X2809Y2942D01*
X2810Y2942D01*
X2811Y2942D01*
X2812Y2942D01*
X2813Y2942D01*
X2814Y2942D01*
X2815Y2942D01*
X2816Y2942D01*
X2817Y2942D01*
X2818Y2942D01*
X2819Y2942D01*
X2820Y2942D01*
X2821Y2942D01*
X2822Y2942D01*
X2823Y2942D01*
X2824Y2942D01*
X2825Y2942D01*
X2826Y2942D01*
X2827Y2942D01*
X2828Y2942D01*
X2829Y2942D01*
X2830Y2942D01*
X2831Y2942D01*
X2832Y2942D01*
X2833Y2942D01*
X2834Y2942D01*
X2835Y2942D01*
X2836Y2942D01*
X2837Y2942D01*
X2838Y2942D01*
X2839Y2942D01*
X2840Y2942D01*
X2841Y2942D01*
X2842Y2942D01*
X2843Y2942D01*
X2844Y2942D01*
X2845Y2942D01*
X2846Y2942D01*
X2847Y2942D01*
X2848Y2942D01*
X2849Y2942D01*
X2850Y2942D01*
X2851Y2942D01*
X2852Y2942D01*
X2853Y2942D01*
X2854Y2942D01*
X2855Y2942D01*
X2856Y2942D01*
X2857Y2942D01*
X2858Y2942D01*
X2859Y2942D01*
X2860Y2942D01*
X2861Y2942D01*
X2862Y2942D01*
X2863Y2942D01*
X2864Y2942D01*
X2865Y2942D01*
X2866Y2942D01*
X2867Y2942D01*
X2868Y2942D01*
X2869Y2942D01*
X2870Y2942D01*
X2871Y2942D01*
X2872Y2942D01*
X2873Y2942D01*
X2874Y2942D01*
X2875Y2942D01*
X2876Y2942D01*
X2877Y2942D01*
X2878Y2942D01*
X2879Y2942D01*
X2880Y2942D01*
X2881Y2942D01*
X2882Y2942D01*
X2883Y2942D01*
X2884Y2942D01*
X2885Y2942D01*
X2886Y2942D01*
X2887Y2942D01*
X2888Y2942D01*
X2889Y2942D01*
X2890Y2942D01*
X2891Y2942D01*
X2892Y2942D01*
X2893Y2942D01*
X2894Y2942D01*
X2895Y2942D01*
X2896Y2942D01*
X2897Y2942D01*
X2898Y2942D01*
X2899Y2942D01*
X2900Y2942D01*
X2901Y2942D01*
X2902Y2942D01*
X2903Y2942D01*
X2904Y2942D01*
X2905Y2942D01*
X2906Y2942D01*
X2907Y2942D01*
X2908Y2942D01*
X2909Y2942D01*
X2910Y2942D01*
X2911Y2942D01*
X2912Y2942D01*
X2913Y2942D01*
X2914Y2942D01*
X2915Y2942D01*
X2916Y2942D01*
X2917Y2942D01*
X2918Y2942D01*
X2919Y2942D01*
X2920Y2942D01*
X2921Y2942D01*
X2922Y2942D01*
X2923Y2942D01*
X2924Y2942D01*
X2925Y2942D01*
X2926Y2942D01*
X2927Y2942D01*
X2928Y2942D01*
X2929Y2942D01*
X2930Y2942D01*
X2931Y2942D01*
X2932Y2942D01*
X2933Y2942D01*
X2934Y2942D01*
X2935Y2942D01*
X2936Y2942D01*
X2937Y2942D01*
X2938Y2942D01*
X2939Y2942D01*
X2940Y2942D01*
X2941Y2942D01*
X2942Y2942D01*
X2943Y2942D01*
X2944Y2942D01*
X2945Y2942D01*
X2946Y2942D01*
X2947Y2942D01*
X2948Y2942D01*
X2949Y2942D01*
X2950Y2942D01*
X2951Y2942D01*
X2952Y2942D01*
X2953Y2942D01*
X2954Y2942D01*
X2955Y2942D01*
X2956Y2942D01*
X2957Y2942D01*
X2958Y2942D01*
X2959Y2942D01*
X2960Y2942D01*
X2961Y2942D01*
X2962Y2942D01*
X2963Y2942D01*
X2964Y2942D01*
X2965Y2942D01*
X2966Y2942D01*
X2967Y2942D01*
X2968Y2942D01*
X2969Y2942D01*
X2970Y2942D01*
X2971Y2942D01*
X2972Y2942D01*
X2973Y2942D01*
X2974Y2942D01*
X2975Y2942D01*
X2976Y2942D01*
X2977Y2942D01*
X2978Y2942D01*
X2979Y2942D01*
X2980Y2942D01*
X2981Y2942D01*
X2982Y2942D01*
X2983Y2942D01*
X2984Y2942D01*
X2985Y2942D01*
X2986Y2942D01*
X2987Y2942D01*
X2988Y2942D01*
X2989Y2942D01*
X2990Y2942D01*
X2991Y2942D01*
X2992Y2942D01*
X2993Y2942D01*
X2994Y2942D01*
X2995Y2942D01*
X2996Y2942D01*
X2997Y2942D01*
X2998Y2942D01*
X2999Y2942D01*
X3000Y2942D01*
X3001Y2942D01*
X3002Y2942D01*
X3003Y2942D01*
X3004Y2942D01*
X3005Y2942D01*
X3006Y2942D01*
X3007Y2942D01*
X3008Y2942D01*
X3009Y2942D01*
X3010Y2942D01*
X3011Y2942D01*
X3012Y2942D01*
X3013Y2942D01*
X3014Y2942D01*
X3015Y2942D01*
X3016Y2942D01*
X3017Y2942D01*
X3018Y2942D01*
X3019Y2942D01*
X3020Y2942D01*
X3021Y2942D01*
X3022Y2942D01*
X3023Y2942D01*
X3024Y2942D01*
X3025Y2942D01*
X3026Y2942D01*
X3027Y2942D01*
X3028Y2942D01*
X3029Y2942D01*
X3030Y2942D01*
X3031Y2942D01*
X3032Y2942D01*
X3033Y2942D01*
X3034Y2942D01*
X3035Y2942D01*
X3036Y2942D01*
X3037Y2942D01*
X3038Y2942D01*
X3039Y2942D01*
X3040Y2942D01*
X3041Y2942D01*
X3042Y2942D01*
X3043Y2942D01*
X3044Y2942D01*
X3045Y2942D01*
X3046Y2942D01*
X3047Y2942D01*
X3048Y2942D01*
X3049Y2942D01*
X3050Y2942D01*
X3051Y2942D01*
X3052Y2942D01*
X3053Y2942D01*
X3054Y2942D01*
X3055Y2942D01*
X3056Y2942D01*
X3057Y2942D01*
X3058Y2942D01*
X3059Y2942D01*
X3060Y2942D01*
X3061Y2942D01*
X3062Y2942D01*
X3063Y2942D01*
X3064Y2942D01*
X3065Y2942D01*
X3066Y2942D01*
X3067Y2942D01*
X3068Y2942D01*
X3069Y2942D01*
X3070Y2942D01*
X3071Y2942D01*
X3072Y2942D01*
X3073Y2942D01*
X3074Y2942D01*
X3075Y2942D01*
X3076Y2942D01*
X3077Y2942D01*
X3078Y2942D01*
X3079Y2942D01*
X3080Y2942D01*
X3081Y2942D01*
X3082Y2942D01*
X3083Y2942D01*
X3084Y2942D01*
X3085Y2942D01*
X3086Y2942D01*
X3087Y2942D01*
X3088Y2942D01*
X3089Y2942D01*
X3090Y2942D01*
X3091Y2942D01*
X3092Y2942D01*
X3093Y2942D01*
X3094Y2942D01*
X3095Y2942D01*
X3096Y2942D01*
X3097Y2942D01*
X3098Y2942D01*
X3099Y2942D01*
X3100Y2942D01*
X3101Y2942D01*
X3102Y2942D01*
X3103Y2942D01*
X3104Y2942D01*
X3105Y2942D01*
X3106Y2942D01*
X3107Y2942D01*
X3108Y2942D01*
X3109Y2942D01*
X3110Y2942D01*
X3111Y2942D01*
X3112Y2942D01*
X3113Y2942D01*
X3114Y2942D01*
X3115Y2942D01*
X3116Y2942D01*
X3117Y2942D01*
X3118Y2942D01*
X3119Y2942D01*
X3120Y2942D01*
X3121Y2942D01*
X3122Y2942D01*
X3123Y2942D01*
X3124Y2942D01*
X3125Y2942D01*
X3126Y2942D01*
X3127Y2942D01*
X3128Y2942D01*
X3129Y2942D01*
X3130Y2942D01*
X3131Y2942D01*
X3132Y2942D01*
X3133Y2942D01*
X3134Y2942D01*
X3135Y2942D01*
X3136Y2942D01*
X3137Y2942D01*
X3138Y2942D01*
X3139Y2942D01*
X3140Y2942D01*
X3141Y2942D01*
X3142Y2942D01*
X3143Y2942D01*
X3144Y2942D01*
X3145Y2942D01*
X3146Y2942D01*
X3147Y2942D01*
X3148Y2942D01*
X3149Y2942D01*
X3150Y2942D01*
X3151Y2942D01*
X3152Y2942D01*
X3153Y2942D01*
X3154Y2942D01*
X3155Y2942D01*
X3156Y2942D01*
X3157Y2942D01*
X3158Y2942D01*
X3159Y2942D01*
X3160Y2942D01*
X3161Y2942D01*
X3162Y2942D01*
X3163Y2942D01*
X3164Y2942D01*
X3165Y2942D01*
X3166Y2942D01*
X3167Y2942D01*
X3168Y2942D01*
X3169Y2942D01*
X3170Y2942D01*
X3171Y2942D01*
X3172Y2942D01*
X3173Y2942D01*
X3174Y2942D01*
X3175Y2942D01*
X3176Y2942D01*
X3177Y2942D01*
X3178Y2942D01*
X3179Y2942D01*
X3180Y2942D01*
X3181Y2942D01*
X3182Y2942D01*
X3183Y2942D01*
X3184Y2942D01*
X3185Y2942D01*
X3186Y2942D01*
X3187Y2942D01*
X3188Y2942D01*
X3189Y2942D01*
X3190Y2942D01*
X3191Y2942D01*
X3192Y2942D01*
X3193Y2942D01*
X3194Y2942D01*
X3195Y2942D01*
X3196Y2942D01*
X3197Y2942D01*
X3198Y2942D01*
X3199Y2942D01*
X3200Y2942D01*
X3201Y2942D01*
X3202Y2942D01*
X3203Y2942D01*
X3204Y2942D01*
X3205Y2942D01*
X3206Y2942D01*
X3207Y2942D01*
X3208Y2942D01*
X3209Y2942D01*
X3210Y2942D01*
X3211Y2942D01*
X3212Y2942D01*
X3213Y2942D01*
X3214Y2942D01*
X3215Y2942D01*
X3216Y2942D01*
X3217Y2942D01*
X3218Y2942D01*
X3219Y2942D01*
X3220Y2942D01*
X3221Y2942D01*
X3222Y2942D01*
X3223Y2942D01*
X3224Y2942D01*
X3225Y2942D01*
X3226Y2942D01*
X3227Y2942D01*
X3228Y2942D01*
X3229Y2942D01*
X3230Y2942D01*
X3231Y2942D01*
X3232Y2942D01*
X3233Y2942D01*
X3234Y2942D01*
X3235Y2942D01*
X3236Y2942D01*
X3237Y2942D01*
X3238Y2942D01*
X3239Y2942D01*
X3240Y2942D01*
X3241Y2942D01*
X3242Y2942D01*
X3243Y2942D01*
X3244Y2942D01*
X3245Y2942D01*
X3246Y2942D01*
X3247Y2942D01*
X3248Y2942D01*
X3249Y2942D01*
X3250Y2942D01*
X3251Y2942D01*
X3252Y2942D01*
X3253Y2942D01*
X3254Y2942D01*
X3255Y2942D01*
X3256Y2942D01*
X3257Y2942D01*
X3258Y2942D01*
X3259Y2942D01*
X3260Y2942D01*
X3261Y2942D01*
X3262Y2942D01*
X3263Y2942D01*
X3264Y2942D01*
X3265Y2942D01*
X3266Y2942D01*
X3267Y2942D01*
X3268Y2942D01*
X3269Y2942D01*
X3270Y2942D01*
X3271Y2942D01*
X3272Y2942D01*
X3273Y2942D01*
X3274Y2942D01*
X3275Y2942D01*
X3276Y2942D01*
X3277Y2942D01*
X3278Y2942D01*
X3279Y2942D01*
X3280Y2942D01*
X3281Y2942D01*
X3282Y2942D01*
X3283Y2942D01*
X3284Y2942D01*
X3285Y2942D01*
X3286Y2942D01*
X3287Y2942D01*
X3288Y2942D01*
X3289Y2942D01*
X3290Y2942D01*
X3291Y2942D01*
X3292Y2942D01*
X3293Y2942D01*
X3294Y2942D01*
X3295Y2942D01*
X3296Y2942D01*
X3297Y2942D01*
X3298Y2942D01*
X3299Y2942D01*
X3300Y2942D01*
X3301Y2942D01*
X3302Y2942D01*
X3303Y2942D01*
X3304Y2942D01*
X3305Y2942D01*
X3306Y2942D01*
X3307Y2942D01*
X3308Y2942D01*
X3309Y2942D01*
X3310Y2942D01*
X3311Y2942D01*
X3312Y2942D01*
X3313Y2942D01*
X3314Y2942D01*
X3315Y2942D01*
X3316Y2942D01*
X3317Y2942D01*
X3318Y2942D01*
X3319Y2942D01*
X3320Y2942D01*
X3321Y2942D01*
X3322Y2942D01*
X3323Y2942D01*
X3324Y2942D01*
X3325Y2942D01*
X3326Y2942D01*
X3327Y2942D01*
X3328Y2942D01*
X3329Y2942D01*
X3330Y2942D01*
X3331Y2942D01*
X3332Y2942D01*
X3333Y2942D01*
X3334Y2942D01*
X3335Y2942D01*
X3336Y2942D01*
X3337Y2942D01*
X3338Y2942D01*
X3339Y2942D01*
X3340Y2942D01*
X3341Y2942D01*
X3342Y2942D01*
X3343Y2942D01*
X3344Y2942D01*
X3345Y2942D01*
X3346Y2942D01*
X3347Y2942D01*
X3348Y2942D01*
X3349Y2942D01*
X3350Y2942D01*
X3351Y2942D01*
X3352Y2942D01*
X3353Y2942D01*
X3354Y2942D01*
X3355Y2942D01*
X3356Y2942D01*
X3357Y2942D01*
X3358Y2942D01*
X3359Y2942D01*
X3360Y2942D01*
X3361Y2942D01*
X3362Y2942D01*
X3363Y2942D01*
X3364Y2942D01*
X3365Y2942D01*
X3366Y2942D01*
X3367Y2942D01*
X3368Y2942D01*
X3369Y2942D01*
X3370Y2942D01*
X3371Y2942D01*
X3372Y2942D01*
X3373Y2942D01*
X3374Y2942D01*
X3375Y2942D01*
X3376Y2942D01*
X3377Y2942D01*
X3378Y2942D01*
X3379Y2942D01*
X3380Y2942D01*
X3381Y2942D01*
X3382Y2942D01*
X3383Y2942D01*
X3384Y2942D01*
X3385Y2942D01*
X3386Y2942D01*
X3387Y2942D01*
X3388Y2942D01*
X3389Y2942D01*
X3390Y2942D01*
X3391Y2942D01*
X3392Y2942D01*
X3393Y2942D01*
X3394Y2942D01*
X3395Y2942D01*
X3396Y2942D01*
X3397Y2942D01*
X3398Y2942D01*
X3399Y2942D01*
X3400Y2942D01*
X3401Y2942D01*
X3402Y2942D01*
X3403Y2942D01*
X3404Y2942D01*
X3405Y2942D01*
X3406Y2942D01*
X3407Y2942D01*
X3408Y2942D01*
X3409Y2942D01*
X3410Y2942D01*
X3411Y2942D01*
X3412Y2942D01*
X3413Y2942D01*
X3414Y2942D01*
X3415Y2942D01*
X3416Y2942D01*
X3417Y2942D01*
X3418Y2942D01*
X3419Y2942D01*
X3420Y2942D01*
X3421Y2942D01*
X3422Y2942D01*
X3423Y2942D01*
X3424Y2942D01*
X3425Y2942D01*
X3426Y2942D01*
X3427Y2942D01*
X3428Y2942D01*
X3429Y2942D01*
X3430Y2942D01*
X3431Y2942D01*
X3432Y2942D01*
X3433Y2942D01*
X3434Y2942D01*
X3435Y2942D01*
X3436Y2942D01*
X3437Y2942D01*
X3438Y2942D01*
X3439Y2942D01*
X3440Y2942D01*
X3441Y2942D01*
X3442Y2942D01*
X3443Y2942D01*
X3444Y2942D01*
X3445Y2942D01*
X3446Y2942D01*
X3447Y2942D01*
X3448Y2942D01*
X3449Y2942D01*
X3450Y2942D01*
X3451Y2942D01*
X3452Y2942D01*
X3453Y2942D01*
X3454Y2942D01*
X3455Y2942D01*
X3456Y2942D01*
X3457Y2942D01*
X3458Y2942D01*
X3459Y2942D01*
X3460Y2942D01*
X3461Y2942D01*
X3462Y2942D01*
X3463Y2942D01*
X3464Y2942D01*
X3465Y2942D01*
X3466Y2942D01*
X3467Y2942D01*
X3468Y2942D01*
X3469Y2942D01*
X3470Y2942D01*
X3471Y2942D01*
X3472Y2942D01*
X3473Y2942D01*
X3474Y2942D01*
X3475Y2942D01*
X3476Y2942D01*
X3477Y2942D01*
X3478Y2942D01*
X3479Y2942D01*
X3480Y2942D01*
X3481Y2942D01*
X3482Y2942D01*
X3483Y2942D01*
X3484Y2942D01*
X3485Y2942D01*
X3486Y2942D01*
X3487Y2942D01*
X3488Y2942D01*
X3489Y2942D01*
X3490Y2942D01*
X3491Y2942D01*
X3492Y2942D01*
X3493Y2942D01*
X3494Y2942D01*
X3495Y2942D01*
X3496Y2942D01*
X3497Y2942D01*
X3498Y2942D01*
X3499Y2942D01*
X3500Y2942D01*
X3501Y2942D01*
X3502Y2942D01*
X3503Y2942D01*
X3504Y2942D01*
X3505Y2942D01*
X3506Y2942D01*
X3507Y2942D01*
X3508Y2942D01*
X3509Y2942D01*
X3510Y2942D01*
X3511Y2942D01*
X3512Y2942D01*
X3513Y2942D01*
X3514Y2942D01*
X3515Y2942D01*
X3516Y2942D01*
X3517Y2942D01*
X3518Y2942D01*
X3519Y2942D01*
X3520Y2942D01*
X3521Y2942D01*
X3522Y2942D01*
X3523Y2942D01*
X3524Y2942D01*
X3525Y2942D01*
X3526Y2942D01*
X3527Y2942D01*
X3528Y2942D01*
X3529Y2942D01*
X3530Y2942D01*
X3531Y2942D01*
X3532Y2942D01*
X3533Y2942D01*
X3534Y2942D01*
X3535Y2942D01*
X3536Y2942D01*
X3537Y2942D01*
X3538Y2942D01*
X3539Y2942D01*
X3540Y2942D01*
X3541Y2942D01*
X3542Y2942D01*
X3543Y2942D01*
X3544Y2942D01*
X3545Y2942D01*
X3546Y2942D01*
X3547Y2942D01*
X3548Y2942D01*
X3549Y2942D01*
X3550Y2942D01*
X3551Y2942D01*
X3552Y2942D01*
X3553Y2942D01*
X3554Y2942D01*
X3555Y2942D01*
X3556Y2942D01*
X3557Y2942D01*
X3558Y2942D01*
X3559Y2942D01*
X3560Y2942D01*
X3561Y2942D01*
X3562Y2942D01*
X3563Y2942D01*
X3564Y2942D01*
X3565Y2942D01*
X3566Y2942D01*
X3567Y2942D01*
X3568Y2942D01*
X3569Y2942D01*
X3570Y2942D01*
X3571Y2942D01*
X3572Y2942D01*
X3573Y2942D01*
X3574Y2942D01*
X3575Y2942D01*
X3576Y2942D01*
X3577Y2942D01*
X3578Y2942D01*
X3579Y2942D01*
X3580Y2942D01*
X3581Y2942D01*
X3582Y2942D01*
X3583Y2942D01*
X3584Y2942D01*
X3585Y2942D01*
X3586Y2942D01*
X3587Y2942D01*
X3588Y2942D01*
X3589Y2942D01*
X3590Y2942D01*
X3591Y2942D01*
X3592Y2942D01*
X3593Y2942D01*
X3594Y2942D01*
X3595Y2942D01*
X3596Y2942D01*
X3597Y2942D01*
X3598Y2942D01*
X3599Y2942D01*
X3600Y2942D01*
X3601Y2942D01*
X3602Y2942D01*
X3603Y2942D01*
X3604Y2942D01*
X3605Y2942D01*
X3606Y2942D01*
X3607Y2942D01*
X3608Y2942D01*
X3609Y2942D01*
X3610Y2942D01*
X3611Y2942D01*
X3612Y2942D01*
X3613Y2942D01*
X3614Y2942D01*
X3615Y2942D01*
X3616Y2942D01*
X3617Y2942D01*
X3618Y2942D01*
X3619Y2942D01*
X3620Y2942D01*
X3621Y2942D01*
X3622Y2942D01*
X3623Y2942D01*
X3624Y2942D01*
X3625Y2942D01*
X3626Y2942D01*
X3627Y2942D01*
X3628Y2942D01*
X3629Y2942D01*
X3630Y2942D01*
X3631Y2942D01*
X3632Y2942D01*
X3633Y2942D01*
X3634Y2942D01*
X3635Y2942D01*
X3636Y2942D01*
X3637Y2942D01*
X3638Y2942D01*
X3639Y2942D01*
X3640Y2942D01*
X3641Y2942D01*
X3642Y2942D01*
X3643Y2942D01*
X3644Y2942D01*
X3645Y2942D01*
X3646Y2942D01*
X3647Y2942D01*
X3648Y2942D01*
X3649Y2942D01*
X3650Y2942D01*
X3651Y2942D01*
X3652Y2942D01*
X3653Y2942D01*
X3654Y2942D01*
X3655Y2942D01*
X3656Y2942D01*
X3657Y2942D01*
X3658Y2942D01*
X3659Y2942D01*
X3660Y2942D01*
X3661Y2942D01*
X3662Y2942D01*
X3663Y2942D01*
X3664Y2942D01*
X3665Y2942D01*
X3666Y2942D01*
X3667Y2942D01*
X3668Y2942D01*
X3669Y2942D01*
X3670Y2942D01*
X3671Y2942D01*
X3672Y2942D01*
X3673Y2942D01*
X3674Y2942D01*
X3675Y2942D01*
X3676Y2942D01*
X3677Y2942D01*
X3678Y2942D01*
X3679Y2942D01*
X3680Y2942D01*
X3681Y2942D01*
X3682Y2942D01*
X3683Y2942D01*
X3684Y2942D01*
X3685Y2942D01*
X3686Y2942D01*
X3687Y2942D01*
X3688Y2942D01*
X3689Y2942D01*
X3690Y2942D01*
X3691Y2942D01*
X3692Y2942D01*
X3693Y2942D01*
X3694Y2942D01*
X3695Y2942D01*
X3696Y2942D01*
X3697Y2942D01*
X3698Y2942D01*
X3699Y2942D01*
X3700Y2942D01*
X3701Y2942D01*
X3702Y2942D01*
X3703Y2942D01*
X3704Y2942D01*
X3705Y2942D01*
X3706Y2942D01*
X3707Y2942D01*
X3708Y2942D01*
X3709Y2942D01*
X3710Y2942D01*
X3711Y2942D01*
X3712Y2942D01*
X3713Y2942D01*
X3714Y2942D01*
X3715Y2942D01*
X3716Y2942D01*
X3717Y2942D01*
X3718Y2942D01*
X3719Y2942D01*
X3720Y2942D01*
X3721Y2942D01*
X3722Y2942D01*
X3723Y2942D01*
X3724Y2942D01*
X3725Y2942D01*
X3726Y2942D01*
X3727Y2942D01*
X3728Y2942D01*
X3729Y2942D01*
X3730Y2942D01*
X3731Y2942D01*
X3732Y2942D01*
X3733Y2942D01*
X3734Y2942D01*
X3735Y2942D01*
X3736Y2942D01*
X3737Y2942D01*
X3738Y2942D01*
X3739Y2942D01*
X3740Y2942D01*
X3741Y2942D01*
X3742Y2942D01*
X3743Y2942D01*
X3744Y2942D01*
X3745Y2942D01*
X3746Y2942D01*
X3747Y2942D01*
X3748Y2942D01*
X3749Y2942D01*
X3750Y2942D01*
X3751Y2942D01*
X3752Y2942D01*
X3753Y2942D01*
X3754Y2942D01*
X3755Y2942D01*
X3756Y2942D01*
X3757Y2942D01*
X3758Y2942D01*
X3759Y2942D01*
X3760Y2942D01*
X3761Y2942D01*
X3762Y2942D01*
X3763Y2942D01*
X3764Y2942D01*
X3765Y2942D01*
X3766Y2942D01*
X3767Y2942D01*
X3768Y2942D01*
X3769Y2942D01*
X3770Y2942D01*
X3771Y2942D01*
X3772Y2942D01*
X3773Y2942D01*
X3774Y2942D01*
X3775Y2942D01*
X3776Y2942D01*
X3777Y2942D01*
X3778Y2942D01*
X3779Y2942D01*
X3780Y2942D01*
X3781Y2942D01*
X3782Y2942D01*
X3783Y2942D01*
X3784Y2942D01*
X3785Y2942D01*
X3786Y2942D01*
X3787Y2942D01*
X3788Y2942D01*
X3789Y2942D01*
X3790Y2942D01*
X3791Y2942D01*
X3792Y2942D01*
X3793Y2942D01*
X3794Y2942D01*
X3795Y2942D01*
X3796Y2942D01*
X3797Y2942D01*
X3798Y2942D01*
X3799Y2942D01*
X3800Y2942D01*
X3801Y2942D01*
X3802Y2942D01*
X3803Y2942D01*
X3804Y2942D01*
X3805Y2942D01*
X3806Y2942D01*
X3807Y2942D01*
X3808Y2942D01*
X3809Y2942D01*
X3810Y2942D01*
X3811Y2942D01*
X3812Y2942D01*
X3813Y2942D01*
X3814Y2942D01*
X3815Y2942D01*
X3816Y2942D01*
X3817Y2942D01*
X3818Y2942D01*
X3819Y2942D01*
X3820Y2942D01*
X3821Y2942D01*
X3822Y2942D01*
X3823Y2942D01*
X3824Y2942D01*
X3825Y2941D01*
X3826Y2941D01*
X3827Y2941D01*
X3828Y2941D01*
X3829Y2941D01*
X3830Y2941D01*
X3831Y2941D01*
X3832Y2941D01*
X3833Y2941D01*
X3834Y2941D01*
X3835Y2941D01*
X3836Y2941D01*
X3837Y2941D01*
X3838Y2940D01*
X3839Y2940D01*
X3840Y2940D01*
X3841Y2940D01*
X3842Y2940D01*
X3843Y2940D01*
X3844Y2940D01*
X3845Y2940D01*
X3846Y2940D01*
X3847Y2940D01*
X3848Y2939D01*
X3849Y2939D01*
X3850Y2939D01*
X3851Y2939D01*
X3852Y2939D01*
X3853Y2939D01*
X3854Y2939D01*
X3855Y2939D01*
X3856Y2938D01*
X3857Y2938D01*
X3858Y2938D01*
X3859Y2938D01*
X3860Y2938D01*
X3861Y2938D01*
X3862Y2938D01*
X3863Y2937D01*
X3864Y2937D01*
X3865Y2937D01*
X3866Y2937D01*
X3867Y2937D01*
X3868Y2937D01*
X3869Y2936D01*
X3870Y2936D01*
X3871Y2936D01*
X3872Y2936D01*
X3873Y2936D01*
X3874Y2936D01*
X3875Y2935D01*
X3876Y2935D01*
X3877Y2935D01*
X3878Y2935D01*
X3879Y2935D01*
X3880Y2934D01*
X3881Y2934D01*
X3882Y2934D01*
X3883Y2934D01*
X3884Y2933D01*
X3885Y2933D01*
X3886Y2933D01*
X3887Y2933D01*
X3888Y2933D01*
X3889Y2932D01*
X3890Y2932D01*
X3891Y2932D01*
X3892Y2932D01*
X3893Y2931D01*
X3894Y2931D01*
X3895Y2931D01*
X3896Y2931D01*
X3897Y2930D01*
X3898Y2930D01*
X3899Y2930D01*
X3900Y2930D01*
X3901Y2929D01*
X3902Y2929D01*
X3903Y2929D01*
X3904Y2929D01*
X3905Y2928D01*
X3906Y2928D01*
X3907Y2928D01*
X3908Y2927D01*
X3909Y2927D01*
X3910Y2927D01*
X3911Y2927D01*
X3912Y2926D01*
X3913Y2926D01*
X3914Y2926D01*
X3915Y2925D01*
X3916Y2925D01*
X3917Y2925D01*
X3918Y2924D01*
X3919Y2924D01*
X3920Y2924D01*
X3921Y2923D01*
X3922Y2923D01*
X3923Y2923D01*
X3924Y2922D01*
X3925Y2922D01*
X3926Y2922D01*
X3927Y2921D01*
X3928Y2921D01*
X3929Y2921D01*
X3930Y2920D01*
X3931Y2920D01*
X3932Y2920D01*
X3933Y2919D01*
X3934Y2919D01*
X3935Y2919D01*
X3936Y2918D01*
X3937Y2918D01*
X3938Y2917D01*
X3939Y2917D01*
X3940Y2917D01*
X3941Y2916D01*
X3942Y2916D01*
X3943Y2915D01*
X3944Y2915D01*
X3945Y2915D01*
X3946Y2914D01*
X3947Y2914D01*
X3948Y2913D01*
X3949Y2913D01*
X3950Y2913D01*
X3951Y2912D01*
X3952Y2912D01*
X3953Y2911D01*
X3954Y2911D01*
X3955Y2910D01*
X3956Y2910D01*
X3957Y2910D01*
X3958Y2909D01*
X3959Y2909D01*
X3960Y2908D01*
X3961Y2908D01*
X3962Y2907D01*
X3963Y2907D01*
X3964Y2906D01*
X3965Y2906D01*
X3966Y2905D01*
X3967Y2905D01*
X3968Y2905D01*
X3969Y2904D01*
X3970Y2904D01*
X3971Y2903D01*
X3972Y2903D01*
X3973Y2902D01*
X3974Y2901D01*
X3975Y2901D01*
X3976Y2900D01*
X3977Y2900D01*
X3978Y2899D01*
X3979Y2899D01*
X3980Y2898D01*
X3981Y2898D01*
X3982Y2897D01*
X3983Y2897D01*
X3984Y2896D01*
X3985Y2896D01*
X3986Y2895D01*
X3987Y2895D01*
X3988Y2894D01*
X3989Y2893D01*
X3990Y2893D01*
X3991Y2892D01*
X3992Y2892D01*
X3993Y2891D01*
X3994Y2891D01*
X3995Y2890D01*
X3996Y2889D01*
X3997Y2889D01*
X3998Y2888D01*
X3999Y2888D01*
X4000Y2887D01*
X4001Y2886D01*
X4002Y2886D01*
X4003Y2885D01*
X4004Y2885D01*
X4005Y2884D01*
X4006Y2883D01*
X4007Y2883D01*
X4008Y2882D01*
X4009Y2881D01*
X4010Y2881D01*
X4011Y2880D01*
X4012Y2879D01*
X4013Y2879D01*
X4014Y2878D01*
X4015Y2877D01*
X4016Y2877D01*
X4017Y2876D01*
X4018Y2875D01*
X4019Y2875D01*
X4020Y2874D01*
X4021Y2873D01*
X4022Y2873D01*
X4023Y2872D01*
X4024Y2871D01*
X4025Y2870D01*
X4026Y2870D01*
X4027Y2869D01*
X4028Y2868D01*
X4029Y2867D01*
X4030Y2867D01*
X4031Y2866D01*
X4032Y2865D01*
X4033Y2865D01*
X4034Y2864D01*
X4035Y2863D01*
X4036Y2862D01*
X4037Y2861D01*
X4038Y2861D01*
X4039Y2860D01*
X4040Y2859D01*
X4041Y2858D01*
X4042Y2857D01*
X4043Y2857D01*
X4044Y2856D01*
X4045Y2855D01*
X4046Y2854D01*
X4047Y2853D01*
X4048Y2852D01*
X4049Y2852D01*
X4050Y2851D01*
X4051Y2850D01*
X4052Y2849D01*
X4053Y2848D01*
X4054Y2847D01*
X4055Y2846D01*
X4056Y2845D01*
X4057Y2845D01*
X4058Y2844D01*
X4059Y2843D01*
X4060Y2842D01*
X4061Y2841D01*
X4062Y2840D01*
X4063Y2839D01*
X4064Y2838D01*
X4065Y2837D01*
X4066Y2836D01*
X4067Y2835D01*
X4068Y2834D01*
X4069Y2833D01*
X4070Y2832D01*
X4071Y2831D01*
X4072Y2830D01*
X4073Y2829D01*
X4074Y2828D01*
X4075Y2827D01*
X4076Y2826D01*
X4077Y2825D01*
X4078Y2824D01*
X4079Y2823D01*
X4080Y2822D01*
X4081Y2821D01*
X4082Y2820D01*
X4083Y2819D01*
X4084Y2818D01*
X4085Y2817D01*
X4085Y2816D01*
X4086Y2815D01*
X4087Y2814D01*
X4088Y2813D01*
X4089Y2812D01*
X4090Y2811D01*
X4091Y2810D01*
X4091Y2809D01*
X4092Y2808D01*
X4093Y2807D01*
X4094Y2806D01*
X4095Y2805D01*
X4096Y2804D01*
X4097Y2803D01*
X4097Y2802D01*
X4098Y2801D01*
X4099Y2800D01*
X4100Y2799D01*
X4101Y2798D01*
X4101Y2797D01*
X4102Y2796D01*
X4103Y2795D01*
X4104Y2794D01*
X4104Y2793D01*
X4105Y2792D01*
X4106Y2791D01*
X4107Y2790D01*
X4107Y2789D01*
X4108Y2788D01*
X4109Y2787D01*
X4110Y2786D01*
X4110Y2785D01*
X4111Y2784D01*
X4112Y2783D01*
X4112Y2782D01*
X4113Y2781D01*
X4114Y2780D01*
X4115Y2779D01*
X4115Y2778D01*
X4116Y2777D01*
X4117Y2776D01*
X4117Y2775D01*
X4118Y2774D01*
X4119Y2773D01*
X4119Y2772D01*
X4120Y2771D01*
X4121Y2770D01*
X4121Y2769D01*
X4122Y2768D01*
X4123Y2767D01*
X4123Y2766D01*
X4124Y2765D01*
X4124Y2764D01*
X4125Y2763D01*
X4126Y2762D01*
X4126Y2761D01*
X4127Y2760D01*
X4128Y2759D01*
X4128Y2758D01*
X4129Y2757D01*
X4129Y2756D01*
X4130Y2755D01*
X4131Y2754D01*
X4131Y2753D01*
X4132Y2752D01*
X4132Y2751D01*
X4133Y2750D01*
X4133Y2749D01*
X4134Y2748D01*
X4135Y2747D01*
X4135Y2746D01*
X4136Y2745D01*
X4136Y2744D01*
X4137Y2743D01*
X4137Y2742D01*
X4138Y2741D01*
X4138Y2740D01*
X4139Y2739D01*
X4139Y2738D01*
X4140Y2737D01*
X4140Y2736D01*
X4141Y2735D01*
X4141Y2734D01*
X4142Y2733D01*
X4142Y2732D01*
X4143Y2731D01*
X4144Y2730D01*
X4144Y2729D01*
X4145Y2728D01*
X4145Y2727D01*
X4146Y2726D01*
X4146Y2725D01*
X4147Y2724D01*
X4147Y2722D01*
X4148Y2721D01*
X4148Y2720D01*
X4149Y2719D01*
X4149Y2718D01*
X4150Y2717D01*
X4150Y2716D01*
X4151Y2715D01*
X4151Y2713D01*
X4152Y2712D01*
X4152Y2711D01*
X4153Y2710D01*
X4153Y2709D01*
X4154Y2708D01*
X4154Y2706D01*
X4155Y2705D01*
X4155Y2704D01*
X4156Y2703D01*
X4156Y2701D01*
X4157Y2700D01*
X4157Y2699D01*
X4158Y2698D01*
X4158Y2696D01*
X4159Y2695D01*
X4159Y2694D01*
X4160Y2693D01*
X4160Y2691D01*
X4161Y2690D01*
X4161Y2688D01*
X4162Y2687D01*
X4162Y2685D01*
X4163Y2684D01*
X4163Y2682D01*
X4164Y2681D01*
X4164Y2679D01*
X4165Y2678D01*
X4165Y2676D01*
X4166Y2675D01*
X4166Y2673D01*
X4167Y2672D01*
X4167Y2670D01*
X4168Y2669D01*
X4168Y2667D01*
X4169Y2666D01*
X4169Y2663D01*
X4170Y2662D01*
X4170Y2659D01*
X4171Y2658D01*
X4171Y2656D01*
X4172Y2655D01*
X4172Y2652D01*
X4173Y2651D01*
X4173Y2648D01*
X4174Y2647D01*
X4174Y2643D01*
X4175Y2642D01*
X4175Y2639D01*
X4176Y2638D01*
X4176Y2634D01*
X4177Y2633D01*
X4177Y2629D01*
X4178Y2628D01*
X4178Y2623D01*
X4179Y2622D01*
X4179Y2617D01*
X4180Y2616D01*
X4180Y2610D01*
X4181Y2609D01*
X4181Y2602D01*
X4182Y2601D01*
X4182Y2592D01*
X4183Y2591D01*
X4183Y2577D01*
X4184Y2576D01*
X4184Y367D01*
X4183Y366D01*
X4183Y352D01*
X4182Y351D01*
X4182Y342D01*
X4181Y341D01*
X4181Y334D01*
X4180Y333D01*
X4180Y327D01*
X4179Y326D01*
X4179Y321D01*
X4178Y320D01*
X4178Y315D01*
X4177Y314D01*
X4177Y310D01*
X4176Y309D01*
X4176Y305D01*
X4175Y304D01*
X4175Y301D01*
X4174Y300D01*
X4174Y296D01*
X4173Y295D01*
X4173Y292D01*
X4172Y291D01*
X4172Y288D01*
X4171Y287D01*
X4171Y285D01*
X4170Y284D01*
X4170Y281D01*
X4169Y280D01*
X4169Y277D01*
X4168Y276D01*
X4168Y274D01*
X4167Y273D01*
X4167Y271D01*
X4166Y270D01*
X4166Y268D01*
X4165Y267D01*
X4165Y265D01*
X4164Y264D01*
X4164Y262D01*
X4163Y261D01*
X4163Y259D01*
X4162Y258D01*
X4162Y256D01*
X4161Y255D01*
X4161Y253D01*
X4160Y252D01*
X4160Y250D01*
X4159Y249D01*
X4159Y248D01*
X4158Y247D01*
X4158Y245D01*
X4157Y244D01*
X4157Y243D01*
X4156Y242D01*
X4156Y240D01*
X4155Y239D01*
X4155Y238D01*
X4154Y237D01*
X4154Y235D01*
X4153Y234D01*
X4153Y233D01*
X4152Y232D01*
X4152Y231D01*
X4151Y230D01*
X4151Y228D01*
X4150Y227D01*
X4150Y226D01*
X4149Y225D01*
X4149Y224D01*
X4148Y223D01*
X4148Y222D01*
X4147Y221D01*
X4147Y219D01*
X4146Y218D01*
X4146Y217D01*
X4145Y216D01*
X4145Y215D01*
X4144Y214D01*
X4144Y213D01*
X4143Y212D01*
X4142Y211D01*
X4142Y210D01*
X4141Y209D01*
X4141Y208D01*
X4140Y207D01*
X4140Y206D01*
X4139Y205D01*
X4139Y204D01*
X4138Y203D01*
X4138Y202D01*
X4137Y201D01*
X4137Y200D01*
X4136Y199D01*
X4136Y198D01*
X4135Y197D01*
X4135Y196D01*
X4134Y195D01*
X4133Y194D01*
X4133Y193D01*
X4132Y192D01*
X4132Y191D01*
X4131Y190D01*
X4131Y189D01*
X4130Y188D01*
X4129Y187D01*
X4129Y186D01*
X4128Y185D01*
X4128Y184D01*
X4127Y183D01*
X4126Y182D01*
X4126Y181D01*
X4125Y180D01*
X4124Y179D01*
X4124Y178D01*
X4123Y177D01*
X4123Y176D01*
X4122Y175D01*
X4121Y174D01*
X4121Y173D01*
X4120Y172D01*
X4119Y171D01*
X4119Y170D01*
X4118Y169D01*
X4117Y168D01*
X4117Y167D01*
X4116Y166D01*
X4115Y165D01*
X4115Y164D01*
X4114Y163D01*
X4113Y162D01*
X4112Y161D01*
X4112Y160D01*
X4111Y159D01*
X4110Y158D01*
X4110Y157D01*
X4109Y156D01*
X4108Y155D01*
X4107Y154D01*
X4107Y153D01*
X4106Y152D01*
X4105Y151D01*
X4104Y150D01*
X4104Y149D01*
X4103Y148D01*
X4102Y147D01*
X4101Y146D01*
X4101Y145D01*
X4100Y144D01*
X4099Y143D01*
X4098Y142D01*
X4097Y141D01*
X4097Y140D01*
X4096Y139D01*
X4095Y138D01*
X4094Y137D01*
X4093Y136D01*
X4092Y135D01*
X4091Y134D01*
X4091Y133D01*
X4090Y132D01*
X4089Y131D01*
X4088Y130D01*
X4087Y129D01*
X4086Y128D01*
X4085Y127D01*
X4085Y126D01*
X4084Y125D01*
X4083Y124D01*
X4082Y123D01*
X4081Y122D01*
X4080Y121D01*
X4079Y120D01*
X4078Y119D01*
X4077Y118D01*
X4076Y117D01*
X4075Y116D01*
X4074Y115D01*
X4073Y114D01*
X4072Y113D01*
X4071Y112D01*
X4070Y111D01*
X4069Y110D01*
X4068Y109D01*
X4067Y108D01*
X4066Y107D01*
X4065Y106D01*
X4064Y105D01*
X4063Y104D01*
X4062Y103D01*
X4061Y102D01*
X4060Y101D01*
X4059Y100D01*
X4058Y99D01*
X4057Y98D01*
X4056Y98D01*
X4055Y97D01*
X4054Y96D01*
X4053Y95D01*
X4052Y94D01*
X4051Y93D01*
X4050Y92D01*
X4049Y91D01*
X4048Y91D01*
X4047Y90D01*
X4046Y89D01*
X4045Y88D01*
X4044Y87D01*
X4043Y86D01*
X4042Y86D01*
X4041Y85D01*
X4040Y84D01*
X4039Y83D01*
X4038Y82D01*
X4037Y82D01*
X4036Y81D01*
X4035Y80D01*
X4034Y79D01*
X4033Y78D01*
X4032Y78D01*
X4031Y77D01*
X4030Y76D01*
X4029Y76D01*
X4028Y75D01*
X4027Y74D01*
X4026Y73D01*
X4025Y73D01*
X4024Y72D01*
X4023Y71D01*
X4022Y70D01*
X4021Y70D01*
X4020Y69D01*
X4019Y68D01*
X4018Y68D01*
X4017Y67D01*
X4016Y66D01*
X4015Y66D01*
X4014Y65D01*
X4013Y64D01*
X4012Y64D01*
X4011Y63D01*
X4010Y62D01*
X4009Y62D01*
X4008Y61D01*
X4007Y60D01*
X4006Y60D01*
X4005Y59D01*
X4004Y58D01*
X4003Y58D01*
X4002Y57D01*
X4001Y57D01*
X4000Y56D01*
X3999Y55D01*
X3998Y55D01*
X3997Y54D01*
X3996Y54D01*
X3995Y53D01*
X3994Y52D01*
X3993Y52D01*
X3992Y51D01*
X3991Y51D01*
X3990Y50D01*
X3989Y50D01*
X3988Y49D01*
X3987Y48D01*
X3986Y48D01*
X3985Y47D01*
X3984Y47D01*
X3983Y46D01*
X3982Y46D01*
X3981Y45D01*
X3980Y45D01*
X3979Y44D01*
X3978Y44D01*
X3977Y43D01*
X3976Y43D01*
X3975Y42D01*
X3974Y42D01*
X3973Y41D01*
X3972Y40D01*
X3971Y40D01*
X3970Y39D01*
X3969Y39D01*
X3968Y38D01*
X3967Y38D01*
X3966Y38D01*
X3965Y37D01*
X3964Y37D01*
X3963Y36D01*
X3962Y36D01*
X3961Y35D01*
X3960Y35D01*
X3959Y34D01*
X3958Y34D01*
X3957Y33D01*
X3956Y33D01*
X3955Y33D01*
X3954Y32D01*
X3953Y32D01*
X3952Y31D01*
X3951Y31D01*
X3950Y30D01*
X3949Y30D01*
X3948Y30D01*
X3947Y29D01*
X3946Y29D01*
X3945Y28D01*
X3944Y28D01*
X3943Y28D01*
X3942Y27D01*
X3941Y27D01*
X3940Y26D01*
X3939Y26D01*
X3938Y26D01*
X3937Y25D01*
X3936Y25D01*
X3935Y24D01*
X3934Y24D01*
X3933Y24D01*
X3932Y23D01*
X3931Y23D01*
X3930Y23D01*
X3929Y22D01*
X3928Y22D01*
X3927Y22D01*
X3926Y21D01*
X3925Y21D01*
X3924Y21D01*
X3923Y20D01*
X3922Y20D01*
X3921Y20D01*
X3920Y19D01*
X3919Y19D01*
X3918Y19D01*
X3917Y18D01*
X3916Y18D01*
X3915Y18D01*
X3914Y17D01*
X3913Y17D01*
X3912Y17D01*
X3911Y16D01*
X3910Y16D01*
X3909Y16D01*
X3908Y16D01*
X3907Y15D01*
X3906Y15D01*
X3905Y15D01*
X3904Y14D01*
X3903Y14D01*
X3902Y14D01*
X3901Y14D01*
X3900Y13D01*
X3899Y13D01*
X3898Y13D01*
X3897Y13D01*
X3896Y12D01*
X3895Y12D01*
X3894Y12D01*
X3893Y12D01*
X3892Y11D01*
X3891Y11D01*
X3890Y11D01*
X3889Y11D01*
X3888Y10D01*
X3887Y10D01*
X3886Y10D01*
X3885Y10D01*
X3884Y10D01*
X3883Y9D01*
X3882Y9D01*
X3881Y9D01*
X3880Y9D01*
X3879Y8D01*
X3878Y8D01*
X3877Y8D01*
X3876Y8D01*
X3875Y8D01*
X3874Y7D01*
X3873Y7D01*
X3872Y7D01*
X3871Y7D01*
X3870Y7D01*
X3869Y7D01*
X3868Y6D01*
X3867Y6D01*
X3866Y6D01*
X3865Y6D01*
X3864Y6D01*
X3863Y6D01*
X3862Y5D01*
X3861Y5D01*
X3860Y5D01*
X3859Y5D01*
X3858Y5D01*
X3857Y5D01*
X3856Y5D01*
X3855Y4D01*
X3854Y4D01*
X3853Y4D01*
X3852Y4D01*
X3851Y4D01*
X3850Y4D01*
X3849Y4D01*
X3848Y4D01*
X3847Y3D01*
X3846Y3D01*
X3845Y3D01*
X3844Y3D01*
X3843Y3D01*
X3842Y3D01*
X3841Y3D01*
X3840Y3D01*
X3839Y3D01*
X3838Y3D01*
X3837Y2D01*
X3836Y2D01*
X3835Y2D01*
X3834Y2D01*
X3833Y2D01*
X3832Y2D01*
X3831Y2D01*
X3830Y2D01*
X3829Y2D01*
X3828Y2D01*
X3827Y2D01*
X3826Y2D01*
X3825Y2D01*
X3824Y1D01*
X3823Y1D01*
X3822Y1D01*
X3821Y1D01*
X3820Y1D01*
X3819Y1D01*
X3818Y1D01*
X3817Y1D01*
X3816Y1D01*
X3815Y1D01*
X3814Y1D01*
X3813Y1D01*
X3812Y1D01*
X3811Y1D01*
X3810Y1D01*
X3809Y1D01*
X3808Y1D01*
X3807Y1D01*
X3806Y1D01*
X3805Y1D01*
X3804Y1D01*
X3803Y1D01*
X3802Y1D01*
X3801Y1D01*
X3800Y1D01*
X3799Y1D01*
X3798Y1D01*
X3797Y1D01*
X3796Y1D01*
X3795Y1D01*
X3794Y1D01*
X3793Y1D01*
X3792Y1D01*
X3791Y1D01*
X3790Y1D01*
X3789Y1D01*
X3788Y1D01*
X3787Y1D01*
X3786Y1D01*
X3785Y1D01*
X3784Y1D01*
X3783Y1D01*
X3782Y1D01*
X3781Y1D01*
X3780Y1D01*
X3779Y1D01*
X3778Y1D01*
X3777Y1D01*
X3776Y1D01*
X3775Y1D01*
X3774Y1D01*
X3773Y1D01*
X3772Y1D01*
X3771Y1D01*
X3770Y1D01*
X3769Y1D01*
X3768Y1D01*
X3767Y1D01*
X3766Y1D01*
X3765Y1D01*
X3764Y1D01*
X3763Y1D01*
X3762Y1D01*
X3761Y1D01*
X3760Y1D01*
X3759Y1D01*
X3758Y1D01*
X3757Y1D01*
X3756Y1D01*
X3755Y1D01*
X3754Y1D01*
X3753Y1D01*
X3752Y1D01*
X3751Y1D01*
X3750Y1D01*
X3749Y1D01*
X3748Y1D01*
X3747Y1D01*
X3746Y1D01*
X3745Y1D01*
X3744Y1D01*
X3743Y1D01*
X3742Y1D01*
X3741Y1D01*
X3740Y1D01*
X3739Y1D01*
X3738Y1D01*
X3737Y1D01*
X3736Y1D01*
X3735Y1D01*
X3734Y1D01*
X3733Y1D01*
X3732Y1D01*
X3731Y1D01*
X3730Y1D01*
X3729Y1D01*
X3728Y1D01*
X3727Y1D01*
X3726Y1D01*
X3725Y1D01*
X3724Y1D01*
X3723Y1D01*
X3722Y1D01*
X3721Y1D01*
X3720Y1D01*
X3719Y1D01*
X3718Y1D01*
X3717Y1D01*
X3716Y1D01*
X3715Y1D01*
X3714Y1D01*
X3713Y1D01*
X3712Y1D01*
X3711Y1D01*
X3710Y1D01*
X3709Y1D01*
X3708Y1D01*
X3707Y1D01*
X3706Y1D01*
X3705Y1D01*
X3704Y1D01*
X3703Y1D01*
X3702Y1D01*
X3701Y1D01*
X3700Y1D01*
X3699Y1D01*
X3698Y1D01*
X3697Y1D01*
X3696Y1D01*
X3695Y1D01*
X3694Y1D01*
X3693Y1D01*
X3692Y1D01*
X3691Y1D01*
X3690Y1D01*
X3689Y1D01*
X3688Y1D01*
X3687Y1D01*
X3686Y1D01*
X3685Y1D01*
X3684Y1D01*
X3683Y1D01*
X3682Y1D01*
X3681Y1D01*
X3680Y1D01*
X3679Y1D01*
X3678Y1D01*
X3677Y1D01*
X3676Y1D01*
X3675Y1D01*
X3674Y1D01*
X3673Y1D01*
X3672Y1D01*
X3671Y1D01*
X3670Y1D01*
X3669Y1D01*
X3668Y1D01*
X3667Y1D01*
X3666Y1D01*
X3665Y1D01*
X3664Y1D01*
X3663Y1D01*
X3662Y1D01*
X3661Y1D01*
X3660Y1D01*
X3659Y1D01*
X3658Y1D01*
X3657Y1D01*
X3656Y1D01*
X3655Y1D01*
X3654Y1D01*
X3653Y1D01*
X3652Y1D01*
X3651Y1D01*
X3650Y1D01*
X3649Y1D01*
X3648Y1D01*
X3647Y1D01*
X3646Y1D01*
X3645Y1D01*
X3644Y1D01*
X3643Y1D01*
X3642Y1D01*
X3641Y1D01*
X3640Y1D01*
X3639Y1D01*
X3638Y1D01*
X3637Y1D01*
X3636Y1D01*
X3635Y1D01*
X3634Y1D01*
X3633Y1D01*
X3632Y1D01*
X3631Y1D01*
X3630Y1D01*
X3629Y1D01*
X3628Y1D01*
X3627Y1D01*
X3626Y1D01*
X3625Y1D01*
X3624Y1D01*
X3623Y1D01*
X3622Y1D01*
X3621Y1D01*
X3620Y1D01*
X3619Y1D01*
X3618Y1D01*
X3617Y1D01*
X3616Y1D01*
X3615Y1D01*
X3614Y1D01*
X3613Y1D01*
X3612Y1D01*
X3611Y1D01*
X3610Y1D01*
X3609Y1D01*
X3608Y1D01*
X3607Y1D01*
X3606Y1D01*
X3605Y1D01*
X3604Y1D01*
X3603Y1D01*
X3602Y1D01*
X3601Y1D01*
X3600Y1D01*
X3599Y1D01*
X3598Y1D01*
X3597Y1D01*
X3596Y1D01*
X3595Y1D01*
X3594Y1D01*
X3593Y1D01*
X3592Y1D01*
X3591Y1D01*
X3590Y1D01*
X3589Y1D01*
X3588Y1D01*
X3587Y1D01*
X3586Y1D01*
X3585Y1D01*
X3584Y1D01*
X3583Y1D01*
X3582Y1D01*
X3581Y1D01*
X3580Y1D01*
X3579Y1D01*
X3578Y1D01*
X3577Y1D01*
X3576Y1D01*
X3575Y1D01*
X3574Y1D01*
X3573Y1D01*
X3572Y1D01*
X3571Y1D01*
X3570Y1D01*
X3569Y1D01*
X3568Y1D01*
X3567Y1D01*
X3566Y1D01*
X3565Y1D01*
X3564Y1D01*
X3563Y1D01*
X3562Y1D01*
X3561Y1D01*
X3560Y1D01*
X3559Y1D01*
X3558Y1D01*
X3557Y1D01*
X3556Y1D01*
X3555Y1D01*
X3554Y1D01*
X3553Y1D01*
X3552Y1D01*
X3551Y1D01*
X3550Y1D01*
X3549Y1D01*
X3548Y1D01*
X3547Y1D01*
X3546Y1D01*
X3545Y1D01*
X3544Y1D01*
X3543Y1D01*
X3542Y1D01*
X3541Y1D01*
X3540Y1D01*
X3539Y1D01*
X3538Y1D01*
X3537Y1D01*
X3536Y1D01*
X3535Y1D01*
X3534Y1D01*
X3533Y1D01*
X3532Y1D01*
X3531Y1D01*
X3530Y1D01*
X3529Y1D01*
X3528Y1D01*
X3527Y1D01*
X3526Y1D01*
X3525Y1D01*
X3524Y1D01*
X3523Y1D01*
X3522Y1D01*
X3521Y1D01*
X3520Y1D01*
X3519Y1D01*
X3518Y1D01*
X3517Y1D01*
X3516Y1D01*
X3515Y1D01*
X3514Y1D01*
X3513Y1D01*
X3512Y1D01*
X3511Y1D01*
X3510Y1D01*
X3509Y1D01*
X3508Y1D01*
X3507Y1D01*
X3506Y1D01*
X3505Y1D01*
X3504Y1D01*
X3503Y1D01*
X3502Y1D01*
X3501Y1D01*
X3500Y1D01*
X3499Y1D01*
X3498Y1D01*
X3497Y1D01*
X3496Y1D01*
X3495Y1D01*
X3494Y1D01*
X3493Y1D01*
X3492Y1D01*
X3491Y1D01*
X3490Y1D01*
X3489Y1D01*
X3488Y1D01*
X3487Y1D01*
X3486Y1D01*
X3485Y1D01*
X3484Y1D01*
X3483Y1D01*
X3482Y1D01*
X3481Y1D01*
X3480Y1D01*
X3479Y1D01*
X3478Y1D01*
X3477Y1D01*
X3476Y1D01*
X3475Y1D01*
X3474Y1D01*
X3473Y1D01*
X3472Y1D01*
X3471Y1D01*
X3470Y1D01*
X3469Y1D01*
X3468Y1D01*
X3467Y1D01*
X3466Y1D01*
X3465Y1D01*
X3464Y1D01*
X3463Y1D01*
X3462Y1D01*
X3461Y1D01*
X3460Y1D01*
X3459Y1D01*
X3458Y1D01*
X3457Y1D01*
X3456Y1D01*
X3455Y1D01*
X3454Y1D01*
X3453Y1D01*
X3452Y1D01*
X3451Y1D01*
X3450Y1D01*
X3449Y1D01*
X3448Y1D01*
X3447Y1D01*
X3446Y1D01*
X3445Y1D01*
X3444Y1D01*
X3443Y1D01*
X3442Y1D01*
X3441Y1D01*
X3440Y1D01*
X3439Y1D01*
X3438Y1D01*
X3437Y1D01*
X3436Y1D01*
X3435Y1D01*
X3434Y1D01*
X3433Y1D01*
X3432Y1D01*
X3431Y1D01*
X3430Y1D01*
X3429Y1D01*
X3428Y1D01*
X3427Y1D01*
X3426Y1D01*
X3425Y1D01*
X3424Y1D01*
X3423Y1D01*
X3422Y1D01*
X3421Y1D01*
X3420Y1D01*
X3419Y1D01*
X3418Y1D01*
X3417Y1D01*
X3416Y1D01*
X3415Y1D01*
X3414Y1D01*
X3413Y1D01*
X3412Y1D01*
X3411Y1D01*
X3410Y1D01*
X3409Y1D01*
X3408Y1D01*
X3407Y1D01*
X3406Y1D01*
X3405Y1D01*
X3404Y1D01*
X3403Y1D01*
X3402Y1D01*
X3401Y1D01*
X3400Y1D01*
X3399Y1D01*
X3398Y1D01*
X3397Y1D01*
X3396Y1D01*
X3395Y1D01*
X3394Y1D01*
X3393Y1D01*
X3392Y1D01*
X3391Y1D01*
X3390Y1D01*
X3389Y1D01*
X3388Y1D01*
X3387Y1D01*
X3386Y1D01*
X3385Y1D01*
X3384Y1D01*
X3383Y1D01*
X3382Y1D01*
X3381Y1D01*
X3380Y1D01*
X3379Y1D01*
X3378Y1D01*
X3377Y1D01*
X3376Y1D01*
X3375Y1D01*
X3374Y1D01*
X3373Y1D01*
X3372Y1D01*
X3371Y1D01*
X3370Y1D01*
X3369Y1D01*
X3368Y1D01*
X3367Y1D01*
X3366Y1D01*
X3365Y1D01*
X3364Y1D01*
X3363Y1D01*
X3362Y1D01*
X3361Y1D01*
X3360Y1D01*
X3359Y1D01*
X3358Y1D01*
X3357Y1D01*
X3356Y1D01*
X3355Y1D01*
X3354Y1D01*
X3353Y1D01*
X3352Y1D01*
X3351Y1D01*
X3350Y1D01*
X3349Y1D01*
X3348Y1D01*
X3347Y1D01*
X3346Y1D01*
X3345Y1D01*
X3344Y1D01*
X3343Y1D01*
X3342Y1D01*
X3341Y1D01*
X3340Y1D01*
X3339Y1D01*
X3338Y1D01*
X3337Y1D01*
X3336Y1D01*
X3335Y1D01*
X3334Y1D01*
X3333Y1D01*
X3332Y1D01*
X3331Y1D01*
X3330Y1D01*
X3329Y1D01*
X3328Y1D01*
X3327Y1D01*
X3326Y1D01*
X3325Y1D01*
X3324Y1D01*
X3323Y1D01*
X3322Y1D01*
X3321Y1D01*
X3320Y1D01*
X3319Y1D01*
X3318Y1D01*
X3317Y1D01*
X3316Y1D01*
X3315Y1D01*
X3314Y1D01*
X3313Y1D01*
X3312Y1D01*
X3311Y1D01*
X3310Y1D01*
X3309Y1D01*
X3308Y1D01*
X3307Y1D01*
X3306Y1D01*
X3305Y1D01*
X3304Y1D01*
X3303Y1D01*
X3302Y1D01*
X3301Y1D01*
X3300Y1D01*
X3299Y1D01*
X3298Y1D01*
X3297Y1D01*
X3296Y1D01*
X3295Y1D01*
X3294Y1D01*
X3293Y1D01*
X3292Y1D01*
X3291Y1D01*
X3290Y1D01*
X3289Y1D01*
X3288Y1D01*
X3287Y1D01*
X3286Y1D01*
X3285Y1D01*
X3284Y1D01*
X3283Y1D01*
X3282Y1D01*
X3281Y1D01*
X3280Y1D01*
X3279Y1D01*
X3278Y1D01*
X3277Y1D01*
X3276Y1D01*
X3275Y1D01*
X3274Y1D01*
X3273Y1D01*
X3272Y1D01*
X3271Y1D01*
X3270Y1D01*
X3269Y1D01*
X3268Y1D01*
X3267Y1D01*
X3266Y1D01*
X3265Y1D01*
X3264Y1D01*
X3263Y1D01*
X3262Y1D01*
X3261Y1D01*
X3260Y1D01*
X3259Y1D01*
X3258Y1D01*
X3257Y1D01*
X3256Y1D01*
X3255Y1D01*
X3254Y1D01*
X3253Y1D01*
X3252Y1D01*
X3251Y1D01*
X3250Y1D01*
X3249Y1D01*
X3248Y1D01*
X3247Y1D01*
X3246Y1D01*
X3245Y1D01*
X3244Y1D01*
X3243Y1D01*
X3242Y1D01*
X3241Y1D01*
X3240Y1D01*
X3239Y1D01*
X3238Y1D01*
X3237Y1D01*
X3236Y1D01*
X3235Y1D01*
X3234Y1D01*
X3233Y1D01*
X3232Y1D01*
X3231Y1D01*
X3230Y1D01*
X3229Y1D01*
X3228Y1D01*
X3227Y1D01*
X3226Y1D01*
X3225Y1D01*
X3224Y1D01*
X3223Y1D01*
X3222Y1D01*
X3221Y1D01*
X3220Y1D01*
X3219Y1D01*
X3218Y1D01*
X3217Y1D01*
X3216Y1D01*
X3215Y1D01*
X3214Y1D01*
X3213Y1D01*
X3212Y1D01*
X3211Y1D01*
X3210Y1D01*
X3209Y1D01*
X3208Y1D01*
X3207Y1D01*
X3206Y1D01*
X3205Y1D01*
X3204Y1D01*
X3203Y1D01*
X3202Y1D01*
X3201Y1D01*
X3200Y1D01*
X3199Y1D01*
X3198Y1D01*
X3197Y1D01*
X3196Y1D01*
X3195Y1D01*
X3194Y1D01*
X3193Y1D01*
X3192Y1D01*
X3191Y1D01*
X3190Y1D01*
X3189Y1D01*
X3188Y1D01*
X3187Y1D01*
X3186Y1D01*
X3185Y1D01*
X3184Y1D01*
X3183Y1D01*
X3182Y1D01*
X3181Y1D01*
X3180Y1D01*
X3179Y1D01*
X3178Y1D01*
X3177Y1D01*
X3176Y1D01*
X3175Y1D01*
X3174Y1D01*
X3173Y1D01*
X3172Y1D01*
X3171Y1D01*
X3170Y1D01*
X3169Y1D01*
X3168Y1D01*
X3167Y1D01*
X3166Y1D01*
X3165Y1D01*
X3164Y1D01*
X3163Y1D01*
X3162Y1D01*
X3161Y1D01*
X3160Y1D01*
X3159Y1D01*
X3158Y1D01*
X3157Y1D01*
X3156Y1D01*
X3155Y1D01*
X3154Y1D01*
X3153Y1D01*
X3152Y1D01*
X3151Y1D01*
X3150Y1D01*
X3149Y1D01*
X3148Y1D01*
X3147Y1D01*
X3146Y1D01*
X3145Y1D01*
X3144Y1D01*
X3143Y1D01*
X3142Y1D01*
X3141Y1D01*
X3140Y1D01*
X3139Y1D01*
X3138Y1D01*
X3137Y1D01*
X3136Y1D01*
X3135Y1D01*
X3134Y1D01*
X3133Y1D01*
X3132Y1D01*
X3131Y1D01*
X3130Y1D01*
X3129Y1D01*
X3128Y1D01*
X3127Y1D01*
X3126Y1D01*
X3125Y1D01*
X3124Y1D01*
X3123Y1D01*
X3122Y1D01*
X3121Y1D01*
X3120Y1D01*
X3119Y1D01*
X3118Y1D01*
X3117Y1D01*
X3116Y1D01*
X3115Y1D01*
X3114Y1D01*
X3113Y1D01*
X3112Y1D01*
X3111Y1D01*
X3110Y1D01*
X3109Y1D01*
X3108Y1D01*
X3107Y1D01*
X3106Y1D01*
X3105Y1D01*
X3104Y1D01*
X3103Y1D01*
X3102Y1D01*
X3101Y1D01*
X3100Y1D01*
X3099Y1D01*
X3098Y1D01*
X3097Y1D01*
X3096Y1D01*
X3095Y1D01*
X3094Y1D01*
X3093Y1D01*
X3092Y1D01*
X3091Y1D01*
X3090Y1D01*
X3089Y1D01*
X3088Y1D01*
X3087Y1D01*
X3086Y1D01*
X3085Y1D01*
X3084Y1D01*
X3083Y1D01*
X3082Y1D01*
X3081Y1D01*
X3080Y1D01*
X3079Y1D01*
X3078Y1D01*
X3077Y1D01*
X3076Y1D01*
X3075Y1D01*
X3074Y1D01*
X3073Y1D01*
X3072Y1D01*
X3071Y1D01*
X3070Y1D01*
X3069Y1D01*
X3068Y1D01*
X3067Y1D01*
X3066Y1D01*
X3065Y1D01*
X3064Y1D01*
X3063Y1D01*
X3062Y1D01*
X3061Y1D01*
X3060Y1D01*
X3059Y1D01*
X3058Y1D01*
X3057Y1D01*
X3056Y1D01*
X3055Y1D01*
X3054Y1D01*
X3053Y1D01*
X3052Y1D01*
X3051Y1D01*
X3050Y1D01*
X3049Y1D01*
X3048Y1D01*
X3047Y1D01*
X3046Y1D01*
X3045Y1D01*
X3044Y1D01*
X3043Y1D01*
X3042Y1D01*
X3041Y1D01*
X3040Y1D01*
X3039Y1D01*
X3038Y1D01*
X3037Y1D01*
X3036Y1D01*
X3035Y1D01*
X3034Y1D01*
X3033Y1D01*
X3032Y1D01*
X3031Y1D01*
X3030Y1D01*
X3029Y1D01*
X3028Y1D01*
X3027Y1D01*
X3026Y1D01*
X3025Y1D01*
X3024Y1D01*
X3023Y1D01*
X3022Y1D01*
X3021Y1D01*
X3020Y1D01*
X3019Y1D01*
X3018Y1D01*
X3017Y1D01*
X3016Y1D01*
X3015Y1D01*
X3014Y1D01*
X3013Y1D01*
X3012Y1D01*
X3011Y1D01*
X3010Y1D01*
X3009Y1D01*
X3008Y1D01*
X3007Y1D01*
X3006Y1D01*
X3005Y1D01*
X3004Y1D01*
X3003Y1D01*
X3002Y1D01*
X3001Y1D01*
X3000Y1D01*
X2999Y1D01*
X2998Y1D01*
X2997Y1D01*
X2996Y1D01*
X2995Y1D01*
X2994Y1D01*
X2993Y1D01*
X2992Y1D01*
X2991Y1D01*
X2990Y1D01*
X2989Y1D01*
X2988Y1D01*
X2987Y1D01*
X2986Y1D01*
X2985Y1D01*
X2984Y1D01*
X2983Y1D01*
X2982Y1D01*
X2981Y1D01*
X2980Y1D01*
X2979Y1D01*
X2978Y1D01*
X2977Y1D01*
X2976Y1D01*
X2975Y1D01*
X2974Y1D01*
X2973Y1D01*
X2972Y1D01*
X2971Y1D01*
X2970Y1D01*
X2969Y1D01*
X2968Y1D01*
X2967Y1D01*
X2966Y1D01*
X2965Y1D01*
X2964Y1D01*
X2963Y1D01*
X2962Y1D01*
X2961Y1D01*
X2960Y1D01*
X2959Y1D01*
X2958Y1D01*
X2957Y1D01*
X2956Y1D01*
X2955Y1D01*
X2954Y1D01*
X2953Y1D01*
X2952Y1D01*
X2951Y1D01*
X2950Y1D01*
X2949Y1D01*
X2948Y1D01*
X2947Y1D01*
X2946Y1D01*
X2945Y1D01*
X2944Y1D01*
X2943Y1D01*
X2942Y1D01*
X2941Y1D01*
X2940Y1D01*
X2939Y1D01*
X2938Y1D01*
X2937Y1D01*
X2936Y1D01*
X2935Y1D01*
X2934Y1D01*
X2933Y1D01*
X2932Y1D01*
X2931Y1D01*
X2930Y1D01*
X2929Y1D01*
X2928Y1D01*
X2927Y1D01*
X2926Y1D01*
X2925Y1D01*
X2924Y1D01*
X2923Y1D01*
X2922Y1D01*
X2921Y1D01*
X2920Y1D01*
X2919Y1D01*
X2918Y1D01*
X2917Y1D01*
X2916Y1D01*
X2915Y1D01*
X2914Y1D01*
X2913Y1D01*
X2912Y1D01*
X2911Y1D01*
X2910Y1D01*
X2909Y1D01*
X2908Y1D01*
X2907Y1D01*
X2906Y1D01*
X2905Y1D01*
X2904Y1D01*
X2903Y1D01*
X2902Y1D01*
X2901Y1D01*
X2900Y1D01*
X2899Y1D01*
X2898Y1D01*
X2897Y1D01*
X2896Y1D01*
X2895Y1D01*
X2894Y1D01*
X2893Y1D01*
X2892Y1D01*
X2891Y1D01*
X2890Y1D01*
X2889Y1D01*
X2888Y1D01*
X2887Y1D01*
X2886Y1D01*
X2885Y1D01*
X2884Y1D01*
X2883Y1D01*
X2882Y1D01*
X2881Y1D01*
X2880Y1D01*
X2879Y1D01*
X2878Y1D01*
X2877Y1D01*
X2876Y1D01*
X2875Y1D01*
X2874Y1D01*
X2873Y1D01*
X2872Y1D01*
X2871Y1D01*
X2870Y1D01*
X2869Y1D01*
X2868Y1D01*
X2867Y1D01*
X2866Y1D01*
X2865Y1D01*
X2864Y1D01*
X2863Y1D01*
X2862Y1D01*
X2861Y1D01*
X2860Y1D01*
X2859Y1D01*
X2858Y1D01*
X2857Y1D01*
X2856Y1D01*
X2855Y1D01*
X2854Y1D01*
X2853Y1D01*
X2852Y1D01*
X2851Y1D01*
X2850Y1D01*
X2849Y1D01*
X2848Y1D01*
X2847Y1D01*
X2846Y1D01*
X2845Y1D01*
X2844Y1D01*
X2843Y1D01*
X2842Y1D01*
X2841Y1D01*
X2840Y1D01*
X2839Y1D01*
X2838Y1D01*
X2837Y1D01*
X2836Y1D01*
X2835Y1D01*
X2834Y1D01*
X2833Y1D01*
X2832Y1D01*
X2831Y1D01*
X2830Y1D01*
X2829Y1D01*
X2828Y1D01*
X2827Y1D01*
X2826Y1D01*
X2825Y1D01*
X2824Y1D01*
X2823Y1D01*
X2822Y1D01*
X2821Y1D01*
X2820Y1D01*
X2819Y1D01*
X2818Y1D01*
X2817Y1D01*
X2816Y1D01*
X2815Y1D01*
X2814Y1D01*
X2813Y1D01*
X2812Y1D01*
X2811Y1D01*
X2810Y1D01*
X2809Y1D01*
X2808Y1D01*
X2807Y1D01*
X2806Y1D01*
X2805Y1D01*
X2804Y1D01*
X2803Y1D01*
X2802Y1D01*
X2801Y1D01*
X2800Y1D01*
X2799Y1D01*
X2798Y1D01*
X2797Y1D01*
X2796Y1D01*
X2795Y1D01*
X2794Y1D01*
X2793Y1D01*
X2792Y1D01*
X2791Y1D01*
X2790Y1D01*
X2789Y1D01*
X2788Y1D01*
X2787Y1D01*
X2786Y1D01*
X2785Y1D01*
X2784Y1D01*
X2783Y1D01*
X2782Y1D01*
X2781Y1D01*
X2780Y1D01*
X2779Y1D01*
X2778Y1D01*
X2777Y1D01*
X2776Y1D01*
X2775Y1D01*
X2774Y1D01*
X2773Y1D01*
X2772Y1D01*
X2771Y1D01*
X2770Y1D01*
X2769Y1D01*
X2768Y1D01*
X2767Y1D01*
X2766Y1D01*
X2765Y1D01*
X2764Y1D01*
X2763Y1D01*
X2762Y1D01*
X2761Y1D01*
X2760Y1D01*
X2759Y1D01*
X2758Y1D01*
X2757Y1D01*
X2756Y1D01*
X2755Y1D01*
X2754Y1D01*
X2753Y1D01*
X2752Y1D01*
X2751Y1D01*
X2750Y1D01*
X2749Y1D01*
X2748Y1D01*
X2747Y1D01*
X2746Y1D01*
X2745Y1D01*
X2744Y1D01*
X2743Y1D01*
X2742Y1D01*
X2741Y1D01*
X2740Y1D01*
X2739Y1D01*
X2738Y1D01*
X2737Y1D01*
X2736Y1D01*
X2735Y1D01*
X2734Y1D01*
X2733Y1D01*
X2732Y1D01*
X2731Y1D01*
X2730Y1D01*
X2729Y1D01*
X2728Y1D01*
X2727Y1D01*
X2726Y1D01*
X2725Y1D01*
X2724Y1D01*
X2723Y1D01*
X2722Y1D01*
X2721Y1D01*
X2720Y1D01*
X2719Y1D01*
X2718Y1D01*
X2717Y1D01*
X2716Y1D01*
X2715Y1D01*
X2714Y1D01*
X2713Y1D01*
X2712Y1D01*
X2711Y1D01*
X2710Y1D01*
X2709Y1D01*
X2708Y1D01*
X2707Y1D01*
X2706Y1D01*
X2705Y1D01*
X2704Y1D01*
X2703Y1D01*
X2702Y1D01*
X2701Y1D01*
X2700Y1D01*
X2699Y1D01*
X2698Y1D01*
X2697Y1D01*
X2696Y1D01*
X2695Y1D01*
X2694Y1D01*
X2693Y1D01*
X2692Y1D01*
X2691Y1D01*
X2690Y1D01*
X2689Y1D01*
X2688Y1D01*
X2687Y1D01*
X2686Y1D01*
X2685Y1D01*
X2684Y1D01*
X2683Y1D01*
X2682Y1D01*
X2681Y1D01*
X2680Y1D01*
X2679Y1D01*
X2678Y1D01*
X2677Y1D01*
X2676Y1D01*
X2675Y1D01*
X2674Y1D01*
X2673Y1D01*
X2672Y1D01*
X2671Y1D01*
X2670Y1D01*
X2669Y1D01*
X2668Y1D01*
X2667Y1D01*
X2666Y1D01*
X2665Y1D01*
X2664Y1D01*
X2663Y1D01*
X2662Y1D01*
X2661Y1D01*
X2660Y1D01*
X2659Y1D01*
X2658Y1D01*
X2657Y1D01*
X2656Y1D01*
X2655Y1D01*
X2654Y1D01*
X2653Y1D01*
X2652Y1D01*
X2651Y1D01*
X2650Y1D01*
X2649Y1D01*
X2648Y1D01*
X2647Y1D01*
X2646Y1D01*
X2645Y1D01*
X2644Y1D01*
X2643Y1D01*
X2642Y1D01*
X2641Y1D01*
X2640Y1D01*
X2639Y1D01*
X2638Y1D01*
X2637Y1D01*
X2636Y1D01*
X2635Y1D01*
X2634Y1D01*
X2633Y1D01*
X2632Y1D01*
X2631Y1D01*
X2630Y1D01*
X2629Y1D01*
X2628Y1D01*
X2627Y1D01*
X2626Y1D01*
X2625Y1D01*
X2624Y1D01*
X2623Y1D01*
X2622Y1D01*
X2621Y1D01*
X2620Y1D01*
X2619Y1D01*
X2618Y1D01*
X2617Y1D01*
X2616Y1D01*
X2615Y1D01*
X2614Y1D01*
X2613Y1D01*
X2612Y1D01*
X2611Y1D01*
X2610Y1D01*
X2609Y1D01*
X2608Y1D01*
X2607Y1D01*
X2606Y1D01*
X2605Y1D01*
X2604Y1D01*
X2603Y1D01*
X2602Y1D01*
X2601Y1D01*
X2600Y1D01*
X2599Y1D01*
X2598Y1D01*
X2597Y1D01*
X2596Y1D01*
X2595Y1D01*
X2594Y1D01*
X2593Y1D01*
X2592Y1D01*
X2591Y1D01*
X2590Y1D01*
X2589Y1D01*
X2588Y1D01*
X2587Y1D01*
X2586Y1D01*
X2585Y1D01*
X2584Y1D01*
X2583Y1D01*
X2582Y1D01*
X2581Y1D01*
X2580Y1D01*
X2579Y1D01*
X2578Y1D01*
X2577Y1D01*
X2576Y1D01*
X2575Y1D01*
X2574Y1D01*
X2573Y1D01*
X2572Y1D01*
X2571Y1D01*
X2570Y1D01*
X2569Y1D01*
X2568Y1D01*
X2567Y1D01*
X2566Y1D01*
X2565Y1D01*
X2564Y1D01*
X2563Y1D01*
X2562Y1D01*
X2561Y1D01*
X2560Y1D01*
X2559Y1D01*
X2558Y1D01*
X2557Y1D01*
X2556Y1D01*
X2555Y1D01*
X2554Y1D01*
X2553Y1D01*
X2552Y1D01*
X2551Y1D01*
X2550Y1D01*
X2549Y1D01*
X2548Y1D01*
X2547Y1D01*
X2546Y1D01*
X2545Y1D01*
X2544Y1D01*
X2543Y1D01*
X2542Y1D01*
X2541Y1D01*
X2540Y1D01*
X2539Y1D01*
X2538Y1D01*
X2537Y1D01*
X2536Y1D01*
X2535Y1D01*
X2534Y1D01*
X2533Y1D01*
X2532Y1D01*
X2531Y1D01*
X2530Y1D01*
X2529Y1D01*
X2528Y1D01*
X2527Y1D01*
X2526Y1D01*
X2525Y1D01*
X2524Y1D01*
X2523Y1D01*
X2522Y1D01*
X2521Y1D01*
X2520Y1D01*
X2519Y1D01*
X2518Y1D01*
X2517Y1D01*
X2516Y1D01*
X2515Y1D01*
X2514Y1D01*
X2513Y1D01*
X2512Y1D01*
X2511Y1D01*
X2510Y1D01*
X2509Y1D01*
X2508Y1D01*
X2507Y1D01*
X2506Y1D01*
X2505Y1D01*
X2504Y1D01*
X2503Y1D01*
X2502Y1D01*
X2501Y1D01*
X2500Y1D01*
X2499Y1D01*
X2498Y1D01*
X2497Y1D01*
X2496Y1D01*
X2495Y1D01*
X2494Y1D01*
X2493Y1D01*
X2492Y1D01*
X2491Y1D01*
X2490Y1D01*
X2489Y1D01*
X2488Y1D01*
X2487Y1D01*
X2486Y1D01*
X2485Y1D01*
X2484Y1D01*
X2483Y1D01*
X2482Y1D01*
X2481Y1D01*
X2480Y1D01*
X2479Y1D01*
X2478Y1D01*
X2477Y1D01*
X2476Y1D01*
X2475Y1D01*
X2474Y1D01*
X2473Y1D01*
X2472Y1D01*
X2471Y1D01*
X2470Y1D01*
X2469Y1D01*
X2468Y1D01*
X2467Y1D01*
X2466Y1D01*
X2465Y1D01*
X2464Y1D01*
X2463Y1D01*
X2462Y1D01*
X2461Y1D01*
X2460Y1D01*
X2459Y1D01*
X2458Y1D01*
X2457Y1D01*
X2456Y1D01*
X2455Y1D01*
X2454Y1D01*
X2453Y1D01*
X2452Y1D01*
X2451Y1D01*
X2450Y1D01*
X2449Y1D01*
X2448Y1D01*
X2447Y1D01*
X2446Y1D01*
X2445Y1D01*
X2444Y1D01*
X2443Y1D01*
X2442Y1D01*
X2441Y1D01*
X2440Y1D01*
X2439Y1D01*
X2438Y1D01*
X2437Y1D01*
X2436Y1D01*
X2435Y1D01*
X2434Y1D01*
X2433Y1D01*
X2432Y1D01*
X2431Y1D01*
X2430Y1D01*
X2429Y1D01*
X2428Y1D01*
X2427Y1D01*
X2426Y1D01*
X2425Y1D01*
X2424Y1D01*
X2423Y1D01*
X2422Y1D01*
X2421Y1D01*
X2420Y1D01*
X2419Y1D01*
X2418Y1D01*
X2417Y1D01*
X2416Y1D01*
X2415Y1D01*
X2414Y1D01*
X2413Y1D01*
X2412Y1D01*
X2411Y1D01*
X2410Y1D01*
X2409Y1D01*
X2408Y1D01*
X2407Y1D01*
X2406Y1D01*
X2405Y1D01*
X2404Y1D01*
X2403Y1D01*
X2402Y1D01*
X2401Y1D01*
X2400Y1D01*
X2399Y1D01*
X2398Y1D01*
X2397Y1D01*
X2396Y1D01*
X2395Y1D01*
X2394Y1D01*
X2393Y1D01*
X2392Y1D01*
X2391Y1D01*
X2390Y1D01*
X2389Y1D01*
X2388Y1D01*
X2387Y1D01*
X2386Y1D01*
X2385Y1D01*
X2384Y1D01*
X2383Y1D01*
X2382Y1D01*
X2381Y1D01*
X2380Y1D01*
X2379Y1D01*
X2378Y1D01*
X2377Y1D01*
X2376Y1D01*
X2375Y1D01*
X2374Y1D01*
X2373Y1D01*
X2372Y1D01*
X2371Y1D01*
X2370Y1D01*
X2369Y1D01*
X2368Y1D01*
X2367Y1D01*
X2366Y1D01*
X2365Y1D01*
X2364Y1D01*
X2363Y1D01*
X2362Y1D01*
X2361Y1D01*
X2360Y1D01*
X2359Y1D01*
X2358Y1D01*
X2357Y1D01*
X2356Y1D01*
X2355Y1D01*
X2354Y1D01*
X2353Y1D01*
X2352Y1D01*
X2351Y1D01*
X2350Y1D01*
X2349Y1D01*
X2348Y1D01*
X2347Y1D01*
X2346Y1D01*
X2345Y1D01*
X2344Y1D01*
X2343Y1D01*
X2342Y1D01*
X2341Y1D01*
X2340Y1D01*
X2339Y1D01*
X2338Y1D01*
X2337Y1D01*
X2336Y1D01*
X2335Y1D01*
X2334Y1D01*
X2333Y1D01*
X2332Y1D01*
X2331Y1D01*
X2330Y1D01*
X2329Y1D01*
X2328Y1D01*
X2327Y1D01*
X2326Y1D01*
X2325Y1D01*
X2324Y1D01*
X2323Y1D01*
X2322Y1D01*
X2321Y1D01*
X2320Y1D01*
X2319Y1D01*
X2318Y1D01*
X2317Y1D01*
X2316Y1D01*
X2315Y1D01*
X2314Y1D01*
X2313Y1D01*
X2312Y1D01*
X2311Y1D01*
X2310Y1D01*
X2309Y1D01*
X2308Y1D01*
X2307Y1D01*
X2306Y1D01*
X2305Y1D01*
X2304Y1D01*
X2303Y1D01*
X2302Y1D01*
X2301Y1D01*
X2300Y1D01*
X2299Y1D01*
X2298Y1D01*
X2297Y1D01*
X2296Y1D01*
X2295Y1D01*
X2294Y1D01*
X2293Y1D01*
X2292Y1D01*
X2291Y1D01*
X2290Y1D01*
X2289Y1D01*
X2288Y1D01*
X2287Y1D01*
X2286Y1D01*
X2285Y1D01*
X2284Y1D01*
X2283Y1D01*
X2282Y1D01*
X2281Y1D01*
X2280Y1D01*
X2279Y1D01*
X2278Y1D01*
X2277Y1D01*
X2276Y1D01*
X2275Y1D01*
X2274Y1D01*
X2273Y1D01*
X2272Y1D01*
X2271Y1D01*
X2270Y1D01*
X2269Y1D01*
X2268Y1D01*
X2267Y1D01*
X2266Y1D01*
X2265Y1D01*
X2264Y1D01*
X2263Y1D01*
X2262Y1D01*
X2261Y1D01*
X2260Y1D01*
X2259Y1D01*
X2258Y1D01*
X2257Y1D01*
X2256Y1D01*
X2255Y1D01*
X2254Y1D01*
X2253Y1D01*
X2252Y1D01*
X2251Y1D01*
X2250Y1D01*
X2249Y1D01*
X2248Y1D01*
X2247Y1D01*
X2246Y1D01*
X2245Y1D01*
X2244Y1D01*
X2243Y1D01*
X2242Y1D01*
X2241Y1D01*
X2240Y1D01*
X2239Y1D01*
X2238Y1D01*
X2237Y1D01*
X2236Y1D01*
X2235Y1D01*
X2234Y1D01*
X2233Y1D01*
X2232Y1D01*
X2231Y1D01*
X2230Y1D01*
X2229Y1D01*
X2228Y1D01*
X2227Y1D01*
X2226Y1D01*
X2225Y1D01*
X2224Y1D01*
X2223Y1D01*
X2222Y1D01*
X2221Y1D01*
X2220Y1D01*
X2219Y1D01*
X2218Y1D01*
X2217Y1D01*
X2216Y1D01*
X2215Y1D01*
X2214Y1D01*
X2213Y1D01*
X2212Y1D01*
X2211Y1D01*
X2210Y1D01*
X2209Y1D01*
X2208Y1D01*
X2207Y1D01*
X2206Y1D01*
X2205Y1D01*
X2204Y1D01*
X2203Y1D01*
X2202Y1D01*
X2201Y1D01*
X2200Y1D01*
X2199Y1D01*
X2198Y1D01*
X2197Y1D01*
X2196Y1D01*
X2195Y1D01*
X2194Y1D01*
X2193Y1D01*
X2192Y1D01*
X2191Y1D01*
X2190Y1D01*
X2189Y1D01*
X2188Y1D01*
X2187Y1D01*
X2186Y1D01*
X2185Y1D01*
X2184Y1D01*
X2183Y1D01*
X2182Y1D01*
X2181Y1D01*
X2180Y1D01*
X2179Y1D01*
X2178Y1D01*
X2177Y1D01*
X2176Y1D01*
X2175Y1D01*
X2174Y1D01*
X2173Y1D01*
X2172Y1D01*
X2171Y1D01*
X2170Y1D01*
X2169Y1D01*
X2168Y1D01*
X2167Y1D01*
X2166Y1D01*
X2165Y1D01*
X2164Y1D01*
X2163Y1D01*
X2162Y1D01*
X2161Y1D01*
X2160Y1D01*
X2159Y1D01*
X2158Y1D01*
X2157Y1D01*
X2156Y1D01*
X2155Y1D01*
X2154Y1D01*
X2153Y1D01*
X2152Y1D01*
X2151Y1D01*
X2150Y1D01*
X2149Y1D01*
X2148Y1D01*
X2147Y1D01*
X2146Y1D01*
X2145Y1D01*
X2144Y1D01*
X2143Y1D01*
X2142Y1D01*
X2141Y1D01*
X2140Y1D01*
X2139Y1D01*
X2138Y1D01*
X2137Y1D01*
X2136Y1D01*
X2135Y1D01*
X2134Y1D01*
X2133Y1D01*
X2132Y1D01*
X2131Y1D01*
X2130Y1D01*
X2129Y1D01*
X2128Y1D01*
X2127Y1D01*
X2126Y1D01*
X2125Y1D01*
X2124Y1D01*
X2123Y1D01*
X2122Y1D01*
X2121Y1D01*
X2120Y1D01*
X2119Y1D01*
X2118Y1D01*
X2117Y1D01*
X2116Y1D01*
X2115Y1D01*
X2114Y1D01*
X2113Y1D01*
X2112Y1D01*
X2111Y1D01*
X2110Y1D01*
X2109Y1D01*
X2108Y1D01*
X2107Y1D01*
X2106Y1D01*
X2105Y1D01*
X2104Y1D01*
X2103Y1D01*
X2102Y1D01*
X2101Y1D01*
X2100Y1D01*
X2099Y1D01*
X2098Y1D01*
X2097Y1D01*
X2096Y1D01*
X2095Y1D01*
X2094Y1D01*
X2093Y1D01*
X2092Y1D01*
X2091Y1D01*
X2090Y1D01*
X2089Y1D01*
X2088Y1D01*
X2087Y1D01*
X2086Y1D01*
X2085Y1D01*
X2084Y1D01*
X2083Y1D01*
X2082Y1D01*
X2081Y1D01*
X2080Y1D01*
X2079Y1D01*
X2078Y1D01*
X2077Y1D01*
X2076Y1D01*
X2075Y1D01*
X2074Y1D01*
X2073Y1D01*
X2072Y1D01*
X2071Y1D01*
X2070Y1D01*
X2069Y1D01*
X2068Y1D01*
X2067Y1D01*
X2066Y1D01*
X2065Y1D01*
X2064Y1D01*
X2063Y1D01*
X2062Y1D01*
X2061Y1D01*
X2060Y1D01*
X2059Y1D01*
X2058Y1D01*
X2057Y1D01*
X2056Y1D01*
X2055Y1D01*
X2054Y1D01*
X2053Y1D01*
X2052Y1D01*
X2051Y1D01*
X2050Y1D01*
X2049Y1D01*
X2048Y1D01*
X2047Y1D01*
X2046Y1D01*
X2045Y1D01*
X2044Y1D01*
X2043Y1D01*
X2042Y1D01*
X2041Y1D01*
X2040Y1D01*
X2039Y1D01*
X2038Y1D01*
X2037Y1D01*
X2036Y1D01*
X2035Y1D01*
X2034Y1D01*
X2033Y1D01*
X2032Y1D01*
X2031Y1D01*
X2030Y1D01*
X2029Y1D01*
X2028Y1D01*
X2027Y1D01*
X2026Y1D01*
X2025Y1D01*
X2024Y1D01*
X2023Y1D01*
X2022Y1D01*
X2021Y1D01*
X2020Y1D01*
X2019Y1D01*
X2018Y1D01*
X2017Y1D01*
X2016Y1D01*
X2015Y1D01*
X2014Y1D01*
X2013Y1D01*
X2012Y1D01*
X2011Y1D01*
X2010Y1D01*
X2009Y1D01*
X2008Y1D01*
X2007Y1D01*
X2006Y1D01*
X2005Y1D01*
X2004Y1D01*
X2003Y1D01*
X2002Y1D01*
X2001Y1D01*
X2000Y1D01*
X1999Y1D01*
X1998Y1D01*
X1997Y1D01*
X1996Y1D01*
X1995Y1D01*
X1994Y1D01*
X1993Y1D01*
X1992Y1D01*
X1991Y1D01*
X1990Y1D01*
X1989Y1D01*
X1988Y1D01*
X1987Y1D01*
X1986Y1D01*
X1985Y1D01*
X1984Y1D01*
X1983Y1D01*
X1982Y1D01*
X1981Y1D01*
X1980Y1D01*
X1979Y1D01*
X1978Y1D01*
X1977Y1D01*
X1976Y1D01*
X1975Y1D01*
X1974Y1D01*
X1973Y1D01*
X1972Y1D01*
X1971Y1D01*
X1970Y1D01*
X1969Y1D01*
X1968Y1D01*
X1967Y1D01*
X1966Y1D01*
X1965Y1D01*
X1964Y1D01*
X1963Y1D01*
X1962Y1D01*
X1961Y1D01*
X1960Y1D01*
X1959Y1D01*
X1958Y1D01*
X1957Y1D01*
X1956Y1D01*
X1955Y1D01*
X1954Y1D01*
X1953Y1D01*
X1952Y1D01*
X1951Y1D01*
X1950Y1D01*
X1949Y1D01*
X1948Y1D01*
X1947Y1D01*
X1946Y1D01*
X1945Y1D01*
X1944Y1D01*
X1943Y1D01*
X1942Y1D01*
X1941Y1D01*
X1940Y1D01*
X1939Y1D01*
X1938Y1D01*
X1937Y1D01*
X1936Y1D01*
X1935Y1D01*
X1934Y1D01*
X1933Y1D01*
X1932Y1D01*
X1931Y1D01*
X1930Y1D01*
X1929Y1D01*
X1928Y1D01*
X1927Y1D01*
X1926Y1D01*
X1925Y1D01*
X1924Y1D01*
X1923Y1D01*
X1922Y1D01*
X1921Y1D01*
X1920Y1D01*
X1919Y1D01*
X1918Y1D01*
X1917Y1D01*
X1916Y1D01*
X1915Y1D01*
X1914Y1D01*
X1913Y1D01*
X1912Y1D01*
X1911Y1D01*
X1910Y1D01*
X1909Y1D01*
X1908Y1D01*
X1907Y1D01*
X1906Y1D01*
X1905Y1D01*
X1904Y1D01*
X1903Y1D01*
X1902Y1D01*
X1901Y1D01*
X1900Y1D01*
X1899Y1D01*
X1898Y1D01*
X1897Y1D01*
X1896Y1D01*
X1895Y1D01*
X1894Y1D01*
X1893Y1D01*
X1892Y1D01*
X1891Y1D01*
X1890Y1D01*
X1889Y1D01*
X1888Y1D01*
X1887Y1D01*
X1886Y1D01*
X1885Y1D01*
X1884Y1D01*
X1883Y1D01*
X1882Y1D01*
X1881Y1D01*
X1880Y1D01*
X1879Y1D01*
X1878Y1D01*
X1877Y1D01*
X1876Y1D01*
X1875Y1D01*
X1874Y1D01*
X1873Y1D01*
X1872Y1D01*
X1871Y1D01*
X1870Y1D01*
X1869Y1D01*
X1868Y1D01*
X1867Y1D01*
X1866Y1D01*
X1865Y1D01*
X1864Y1D01*
X1863Y1D01*
X1862Y1D01*
X1861Y1D01*
X1860Y1D01*
X1859Y1D01*
X1858Y1D01*
X1857Y1D01*
X1856Y1D01*
X1855Y1D01*
X1854Y1D01*
X1853Y1D01*
X1852Y1D01*
X1851Y1D01*
X1850Y1D01*
X1849Y1D01*
X1848Y1D01*
X1847Y1D01*
X1846Y1D01*
X1845Y1D01*
X1844Y1D01*
X1843Y1D01*
X1842Y1D01*
X1841Y1D01*
X1840Y1D01*
X1839Y1D01*
X1838Y1D01*
X1837Y1D01*
X1836Y1D01*
X1835Y1D01*
X1834Y1D01*
X1833Y1D01*
X1832Y1D01*
X1831Y1D01*
X1830Y1D01*
X1829Y1D01*
X1828Y1D01*
X1827Y1D01*
X1826Y1D01*
X1825Y1D01*
X1824Y1D01*
X1823Y1D01*
X1822Y1D01*
X1821Y1D01*
X1820Y1D01*
X1819Y1D01*
X1818Y1D01*
X1817Y1D01*
X1816Y1D01*
X1815Y1D01*
X1814Y1D01*
X1813Y1D01*
X1812Y1D01*
X1811Y1D01*
X1810Y1D01*
X1809Y1D01*
X1808Y1D01*
X1807Y1D01*
X1806Y1D01*
X1805Y1D01*
X1804Y1D01*
X1803Y1D01*
X1802Y1D01*
X1801Y1D01*
X1800Y1D01*
X1799Y1D01*
X1798Y1D01*
X1797Y1D01*
X1796Y1D01*
X1795Y1D01*
X1794Y1D01*
X1793Y1D01*
X1792Y1D01*
X1791Y1D01*
X1790Y1D01*
X1789Y1D01*
X1788Y1D01*
X1787Y1D01*
X1786Y1D01*
X1785Y1D01*
X1784Y1D01*
X1783Y1D01*
X1782Y1D01*
X1781Y1D01*
X1780Y1D01*
X1779Y1D01*
X1778Y1D01*
X1777Y1D01*
X1776Y1D01*
X1775Y1D01*
X1774Y1D01*
X1773Y1D01*
X1772Y1D01*
X1771Y1D01*
X1770Y1D01*
X1769Y1D01*
X1768Y1D01*
X1767Y1D01*
X1766Y1D01*
X1765Y1D01*
X1764Y1D01*
X1763Y1D01*
X1762Y1D01*
X1761Y1D01*
X1760Y1D01*
X1759Y1D01*
X1758Y1D01*
X1757Y1D01*
X1756Y1D01*
X1755Y1D01*
X1754Y1D01*
X1753Y1D01*
X1752Y1D01*
X1751Y1D01*
X1750Y1D01*
X1749Y1D01*
X1748Y1D01*
X1747Y1D01*
X1746Y1D01*
X1745Y1D01*
X1744Y1D01*
X1743Y1D01*
X1742Y1D01*
X1741Y1D01*
X1740Y1D01*
X1739Y1D01*
X1738Y1D01*
X1737Y1D01*
X1736Y1D01*
X1735Y1D01*
X1734Y1D01*
X1733Y1D01*
X1732Y1D01*
X1731Y1D01*
X1730Y1D01*
X1729Y1D01*
X1728Y1D01*
X1727Y1D01*
X1726Y1D01*
X1725Y1D01*
X1724Y1D01*
X1723Y1D01*
X1722Y1D01*
X1721Y1D01*
X1720Y1D01*
X1719Y1D01*
X1718Y1D01*
X1717Y1D01*
X1716Y1D01*
X1715Y1D01*
X1714Y1D01*
X1713Y1D01*
X1712Y1D01*
X1711Y1D01*
X1710Y1D01*
X1709Y1D01*
X1708Y1D01*
X1707Y1D01*
X1706Y1D01*
X1705Y1D01*
X1704Y1D01*
X1703Y1D01*
X1702Y1D01*
X1701Y1D01*
X1700Y1D01*
X1699Y1D01*
X1698Y1D01*
X1697Y1D01*
X1696Y1D01*
X1695Y1D01*
X1694Y1D01*
X1693Y1D01*
X1692Y1D01*
X1691Y1D01*
X1690Y1D01*
X1689Y1D01*
X1688Y1D01*
X1687Y1D01*
X1686Y1D01*
X1685Y1D01*
X1684Y1D01*
X1683Y1D01*
X1682Y1D01*
X1681Y1D01*
X1680Y1D01*
X1679Y1D01*
X1678Y1D01*
X1677Y1D01*
X1676Y1D01*
X1675Y1D01*
X1674Y1D01*
X1673Y1D01*
X1672Y1D01*
X1671Y1D01*
X1670Y1D01*
X1669Y1D01*
X1668Y1D01*
X1667Y1D01*
X1666Y1D01*
X1665Y1D01*
X1664Y1D01*
X1663Y1D01*
X1662Y1D01*
X1661Y1D01*
X1660Y1D01*
X1659Y1D01*
X1658Y1D01*
X1657Y1D01*
X1656Y1D01*
X1655Y1D01*
X1654Y1D01*
X1653Y1D01*
X1652Y1D01*
X1651Y1D01*
X1650Y1D01*
X1649Y1D01*
X1648Y1D01*
X1647Y1D01*
X1646Y1D01*
X1645Y1D01*
X1644Y1D01*
X1643Y1D01*
X1642Y1D01*
X1641Y1D01*
X1640Y1D01*
X1639Y1D01*
X1638Y1D01*
X1637Y1D01*
X1636Y1D01*
X1635Y1D01*
X1634Y1D01*
X1633Y1D01*
X1632Y1D01*
X1631Y1D01*
X1630Y1D01*
X1629Y1D01*
X1628Y1D01*
X1627Y1D01*
X1626Y1D01*
X1625Y1D01*
X1624Y1D01*
X1623Y1D01*
X1622Y1D01*
X1621Y1D01*
X1620Y1D01*
X1619Y1D01*
X1618Y1D01*
X1617Y1D01*
X1616Y1D01*
X1615Y1D01*
X1614Y1D01*
X1613Y1D01*
X1612Y1D01*
X1611Y1D01*
X1610Y1D01*
X1609Y1D01*
X1608Y1D01*
X1607Y1D01*
X1606Y1D01*
X1605Y1D01*
X1604Y1D01*
X1603Y1D01*
X1602Y1D01*
X1601Y1D01*
X1600Y1D01*
X1599Y1D01*
X1598Y1D01*
X1597Y1D01*
X1596Y1D01*
X1595Y1D01*
X1594Y1D01*
X1593Y1D01*
X1592Y1D01*
X1591Y1D01*
X1590Y1D01*
X1589Y1D01*
X1588Y1D01*
X1587Y1D01*
X1586Y1D01*
X1585Y1D01*
X1584Y1D01*
X1583Y1D01*
X1582Y1D01*
X1581Y1D01*
X1580Y1D01*
X1579Y1D01*
X1578Y1D01*
X1577Y1D01*
X1576Y1D01*
X1575Y1D01*
X1574Y1D01*
X1573Y1D01*
X1572Y1D01*
X1571Y1D01*
X1570Y1D01*
X1569Y1D01*
X1568Y1D01*
X1567Y1D01*
X1566Y1D01*
X1565Y1D01*
X1564Y1D01*
X1563Y1D01*
X1562Y1D01*
X1561Y1D01*
X1560Y1D01*
X1559Y1D01*
X1558Y1D01*
X1557Y1D01*
X1556Y1D01*
X1555Y1D01*
X1554Y1D01*
X1553Y1D01*
X1552Y1D01*
X1551Y1D01*
X1550Y1D01*
X1549Y1D01*
X1548Y1D01*
X1547Y1D01*
X1546Y1D01*
X1545Y1D01*
X1544Y1D01*
X1543Y1D01*
X1542Y1D01*
X1541Y1D01*
X1540Y1D01*
X1539Y1D01*
X1538Y1D01*
X1537Y1D01*
X1536Y1D01*
X1535Y1D01*
X1534Y1D01*
X1533Y1D01*
X1532Y1D01*
X1531Y1D01*
X1530Y1D01*
X1529Y1D01*
X1528Y1D01*
X1527Y1D01*
X1526Y1D01*
X1525Y1D01*
X1524Y1D01*
X1523Y1D01*
X1522Y1D01*
X1521Y1D01*
X1520Y1D01*
X1519Y1D01*
X1518Y1D01*
X1517Y1D01*
X1516Y1D01*
X1515Y1D01*
X1514Y1D01*
X1513Y1D01*
X1512Y1D01*
X1511Y1D01*
X1510Y1D01*
X1509Y1D01*
X1508Y1D01*
X1507Y1D01*
X1506Y1D01*
X1505Y1D01*
X1504Y1D01*
X1503Y1D01*
X1502Y1D01*
X1501Y1D01*
X1500Y1D01*
X1499Y1D01*
X1498Y1D01*
X1497Y1D01*
X1496Y1D01*
X1495Y1D01*
X1494Y1D01*
X1493Y1D01*
X1492Y1D01*
X1491Y1D01*
X1490Y1D01*
X1489Y1D01*
X1488Y1D01*
X1487Y1D01*
X1486Y1D01*
X1485Y1D01*
X1484Y1D01*
X1483Y1D01*
X1482Y1D01*
X1481Y1D01*
X1480Y1D01*
X1479Y1D01*
X1478Y1D01*
X1477Y1D01*
X1476Y1D01*
X1475Y1D01*
X1474Y1D01*
X1473Y1D01*
X1472Y1D01*
X1471Y1D01*
X1470Y1D01*
X1469Y1D01*
X1468Y1D01*
X1467Y1D01*
X1466Y1D01*
X1465Y1D01*
X1464Y1D01*
X1463Y1D01*
X1462Y1D01*
X1461Y1D01*
X1460Y1D01*
X1459Y1D01*
X1458Y1D01*
X1457Y1D01*
X1456Y1D01*
X1455Y1D01*
X1454Y1D01*
X1453Y1D01*
X1452Y1D01*
X1451Y1D01*
X1450Y1D01*
X1449Y1D01*
X1448Y1D01*
X1447Y1D01*
X1446Y1D01*
X1445Y1D01*
X1444Y1D01*
X1443Y1D01*
X1442Y1D01*
X1441Y1D01*
X1440Y1D01*
X1439Y1D01*
X1438Y1D01*
X1437Y1D01*
X1436Y1D01*
X1435Y1D01*
X1434Y1D01*
X1433Y1D01*
X1432Y1D01*
X1431Y1D01*
X1430Y1D01*
X1429Y1D01*
X1428Y1D01*
X1427Y1D01*
X1426Y1D01*
X1425Y1D01*
X1424Y1D01*
X1423Y1D01*
X1422Y1D01*
X1421Y1D01*
X1420Y1D01*
X1419Y1D01*
X1418Y1D01*
X1417Y1D01*
X1416Y1D01*
X1415Y1D01*
X1414Y1D01*
X1413Y1D01*
X1412Y1D01*
X1411Y1D01*
X1410Y1D01*
X1409Y1D01*
X1408Y1D01*
X1407Y1D01*
X1406Y1D01*
X1405Y1D01*
X1404Y1D01*
X1403Y1D01*
X1402Y1D01*
X1401Y1D01*
X1400Y1D01*
X1399Y1D01*
X1398Y1D01*
X1397Y1D01*
X1396Y1D01*
X1395Y1D01*
X1394Y1D01*
X1393Y1D01*
X1392Y1D01*
X1391Y1D01*
X1390Y1D01*
X1389Y1D01*
X1388Y1D01*
X1387Y1D01*
X1386Y1D01*
X1385Y1D01*
X1384Y1D01*
X1383Y1D01*
X1382Y1D01*
X1381Y1D01*
X1380Y1D01*
X1379Y1D01*
X1378Y1D01*
X1377Y1D01*
X1376Y1D01*
X1375Y1D01*
X1374Y1D01*
X1373Y1D01*
X1372Y1D01*
X1371Y1D01*
X1370Y1D01*
X1369Y1D01*
X1368Y1D01*
X1367Y1D01*
X1366Y1D01*
X1365Y1D01*
X1364Y1D01*
X1363Y1D01*
X1362Y1D01*
X1361Y1D01*
X1360Y1D01*
X1359Y1D01*
X1358Y1D01*
X1357Y1D01*
X1356Y1D01*
X1355Y1D01*
X1354Y1D01*
X1353Y1D01*
X1352Y1D01*
X1351Y1D01*
X1350Y1D01*
X1349Y1D01*
X1348Y1D01*
X1347Y1D01*
X1346Y1D01*
X1345Y1D01*
X1344Y1D01*
X1343Y1D01*
X1342Y1D01*
X1341Y1D01*
X1340Y1D01*
X1339Y1D01*
X1338Y1D01*
X1337Y1D01*
X1336Y1D01*
X1335Y1D01*
X1334Y1D01*
X1333Y1D01*
X1332Y1D01*
X1331Y1D01*
X1330Y1D01*
X1329Y1D01*
X1328Y1D01*
X1327Y1D01*
X1326Y1D01*
X1325Y1D01*
X1324Y1D01*
X1323Y1D01*
X1322Y1D01*
X1321Y1D01*
X1320Y1D01*
X1319Y1D01*
X1318Y1D01*
X1317Y1D01*
X1316Y1D01*
X1315Y1D01*
X1314Y1D01*
X1313Y1D01*
X1312Y1D01*
X1311Y1D01*
X1310Y1D01*
X1309Y1D01*
X1308Y1D01*
X1307Y1D01*
X1306Y1D01*
X1305Y1D01*
X1304Y1D01*
X1303Y1D01*
X1302Y1D01*
X1301Y1D01*
X1300Y1D01*
X1299Y1D01*
X1298Y1D01*
X1297Y1D01*
X1296Y1D01*
X1295Y1D01*
X1294Y1D01*
X1293Y1D01*
X1292Y1D01*
X1291Y1D01*
X1290Y1D01*
X1289Y1D01*
X1288Y1D01*
X1287Y1D01*
X1286Y1D01*
X1285Y1D01*
X1284Y1D01*
X1283Y1D01*
X1282Y1D01*
X1281Y1D01*
X1280Y1D01*
X1279Y1D01*
X1278Y1D01*
X1277Y1D01*
X1276Y1D01*
X1275Y1D01*
X1274Y1D01*
X1273Y1D01*
X1272Y1D01*
X1271Y1D01*
X1270Y1D01*
X1269Y1D01*
X1268Y1D01*
X1267Y1D01*
X1266Y1D01*
X1265Y1D01*
X1264Y1D01*
X1263Y1D01*
X1262Y1D01*
X1261Y1D01*
X1260Y1D01*
X1259Y1D01*
X1258Y1D01*
X1257Y1D01*
X1256Y1D01*
X1255Y1D01*
X1254Y1D01*
X1253Y1D01*
X1252Y1D01*
X1251Y1D01*
X1250Y1D01*
X1249Y1D01*
X1248Y1D01*
X1247Y1D01*
X1246Y1D01*
X1245Y1D01*
X1244Y1D01*
X1243Y1D01*
X1242Y1D01*
X1241Y1D01*
X1240Y1D01*
X1239Y1D01*
X1238Y1D01*
X1237Y1D01*
X1236Y1D01*
X1235Y1D01*
X1234Y1D01*
X1233Y1D01*
X1232Y1D01*
X1231Y1D01*
X1230Y1D01*
X1229Y1D01*
X1228Y1D01*
X1227Y1D01*
X1226Y1D01*
X1225Y1D01*
X1224Y1D01*
X1223Y1D01*
X1222Y1D01*
X1221Y1D01*
X1220Y1D01*
X1219Y1D01*
X1218Y1D01*
X1217Y1D01*
X1216Y1D01*
X1215Y1D01*
X1214Y1D01*
X1213Y1D01*
X1212Y1D01*
X1211Y1D01*
X1210Y1D01*
X1209Y1D01*
X1208Y1D01*
X1207Y1D01*
X1206Y1D01*
X1205Y1D01*
X1204Y1D01*
X1203Y1D01*
X1202Y1D01*
X1201Y1D01*
X1200Y1D01*
X1199Y1D01*
X1198Y1D01*
X1197Y1D01*
X1196Y1D01*
X1195Y1D01*
X1194Y1D01*
X1193Y1D01*
X1192Y1D01*
X1191Y1D01*
X1190Y1D01*
X1189Y1D01*
X1188Y1D01*
X1187Y1D01*
X1186Y1D01*
X1185Y1D01*
X1184Y1D01*
X1183Y1D01*
X1182Y1D01*
X1181Y1D01*
X1180Y1D01*
X1179Y1D01*
X1178Y1D01*
X1177Y1D01*
X1176Y1D01*
X1175Y1D01*
X1174Y1D01*
X1173Y1D01*
X1172Y1D01*
X1171Y1D01*
X1170Y1D01*
X1169Y1D01*
X1168Y1D01*
X1167Y1D01*
X1166Y1D01*
X1165Y1D01*
X1164Y1D01*
X1163Y1D01*
X1162Y1D01*
X1161Y1D01*
X1160Y1D01*
X1159Y1D01*
X1158Y1D01*
X1157Y1D01*
X1156Y1D01*
X1155Y1D01*
X1154Y1D01*
X1153Y1D01*
X1152Y1D01*
X1151Y1D01*
X1150Y1D01*
X1149Y1D01*
X1148Y1D01*
X1147Y1D01*
X1146Y1D01*
X1145Y1D01*
X1144Y1D01*
X1143Y1D01*
X1142Y1D01*
X1141Y1D01*
X1140Y1D01*
X1139Y1D01*
X1138Y1D01*
X1137Y1D01*
X1136Y1D01*
X1135Y1D01*
X1134Y1D01*
X1133Y1D01*
X1132Y1D01*
X1131Y1D01*
X1130Y1D01*
X1129Y1D01*
X1128Y1D01*
X1127Y1D01*
X1126Y1D01*
X1125Y1D01*
X1124Y1D01*
X1123Y1D01*
X1122Y1D01*
X1121Y1D01*
X1120Y1D01*
X1119Y1D01*
X1118Y1D01*
X1117Y1D01*
X1116Y1D01*
X1115Y1D01*
X1114Y1D01*
X1113Y1D01*
X1112Y1D01*
X1111Y1D01*
X1110Y1D01*
X1109Y1D01*
X1108Y1D01*
X1107Y1D01*
X1106Y1D01*
X1105Y1D01*
X1104Y1D01*
X1103Y1D01*
X1102Y1D01*
X1101Y1D01*
X1100Y1D01*
X1099Y1D01*
X1098Y1D01*
X1097Y1D01*
X1096Y1D01*
X1095Y1D01*
X1094Y1D01*
X1093Y1D01*
X1092Y1D01*
X1091Y1D01*
X1090Y1D01*
X1089Y1D01*
X1088Y1D01*
X1087Y1D01*
X1086Y1D01*
X1085Y1D01*
X1084Y1D01*
X1083Y1D01*
X1082Y1D01*
X1081Y1D01*
X1080Y1D01*
X1079Y1D01*
X1078Y1D01*
X1077Y1D01*
X1076Y1D01*
X1075Y1D01*
X1074Y1D01*
X1073Y1D01*
X1072Y1D01*
X1071Y1D01*
X1070Y1D01*
X1069Y1D01*
X1068Y1D01*
X1067Y1D01*
X1066Y1D01*
X1065Y1D01*
X1064Y1D01*
X1063Y1D01*
X1062Y1D01*
X1061Y1D01*
X1060Y1D01*
X1059Y1D01*
X1058Y1D01*
X1057Y1D01*
X1056Y1D01*
X1055Y1D01*
X1054Y1D01*
X1053Y1D01*
X1052Y1D01*
X1051Y1D01*
X1050Y1D01*
X1049Y1D01*
X1048Y1D01*
X1047Y1D01*
X1046Y1D01*
X1045Y1D01*
X1044Y1D01*
X1043Y1D01*
X1042Y1D01*
X1041Y1D01*
X1040Y1D01*
X1039Y1D01*
X1038Y1D01*
X1037Y1D01*
X1036Y1D01*
X1035Y1D01*
X1034Y1D01*
X1033Y1D01*
X1032Y1D01*
X1031Y1D01*
X1030Y1D01*
X1029Y1D01*
X1028Y1D01*
X1027Y1D01*
X1026Y1D01*
X1025Y1D01*
X1024Y1D01*
X1023Y1D01*
X1022Y1D01*
X1021Y1D01*
X1020Y1D01*
X1019Y1D01*
X1018Y1D01*
X1017Y1D01*
X1016Y1D01*
X1015Y1D01*
X1014Y1D01*
X1013Y1D01*
X1012Y1D01*
X1011Y1D01*
X1010Y1D01*
X1009Y1D01*
X1008Y1D01*
X1007Y1D01*
X1006Y1D01*
X1005Y1D01*
X1004Y1D01*
X1003Y1D01*
X1002Y1D01*
X1001Y1D01*
X1000Y1D01*
X999Y1D01*
X998Y1D01*
X997Y1D01*
X996Y1D01*
X995Y1D01*
X994Y1D01*
X993Y1D01*
X992Y1D01*
X991Y1D01*
X990Y1D01*
X989Y1D01*
X988Y1D01*
X987Y1D01*
X986Y1D01*
X985Y1D01*
X984Y1D01*
X983Y1D01*
X982Y1D01*
X981Y1D01*
X980Y1D01*
X979Y1D01*
X978Y1D01*
X977Y1D01*
X976Y1D01*
X975Y1D01*
X974Y1D01*
X973Y1D01*
X972Y1D01*
X971Y1D01*
X970Y1D01*
X969Y1D01*
X968Y1D01*
X967Y1D01*
X966Y1D01*
X965Y1D01*
X964Y1D01*
X963Y1D01*
X962Y1D01*
X961Y1D01*
X960Y1D01*
X959Y1D01*
X958Y1D01*
X957Y1D01*
X956Y1D01*
X955Y1D01*
X954Y1D01*
X953Y1D01*
X952Y1D01*
X951Y1D01*
X950Y1D01*
X949Y1D01*
X948Y1D01*
X947Y1D01*
X946Y1D01*
X945Y1D01*
X944Y1D01*
X943Y1D01*
X942Y1D01*
X941Y1D01*
X940Y1D01*
X939Y1D01*
X938Y1D01*
X937Y1D01*
X936Y1D01*
X935Y1D01*
X934Y1D01*
X933Y1D01*
X932Y1D01*
X931Y1D01*
X930Y1D01*
X929Y1D01*
X928Y1D01*
X927Y1D01*
X926Y1D01*
X925Y1D01*
X924Y1D01*
X923Y1D01*
X922Y1D01*
X921Y1D01*
X920Y1D01*
X919Y1D01*
X918Y1D01*
X917Y1D01*
X916Y1D01*
X915Y1D01*
X914Y1D01*
X913Y1D01*
X912Y1D01*
X911Y1D01*
X910Y1D01*
X909Y1D01*
X908Y1D01*
X907Y1D01*
X906Y1D01*
X905Y1D01*
X904Y1D01*
X903Y1D01*
X902Y1D01*
X901Y1D01*
X900Y1D01*
X899Y1D01*
X898Y1D01*
X897Y1D01*
X896Y1D01*
X895Y1D01*
X894Y1D01*
X893Y1D01*
X892Y1D01*
X891Y1D01*
X890Y1D01*
X889Y1D01*
X888Y1D01*
X887Y1D01*
X886Y1D01*
X885Y1D01*
X884Y1D01*
X883Y1D01*
X882Y1D01*
X881Y1D01*
X880Y1D01*
X879Y1D01*
X878Y1D01*
X877Y1D01*
X876Y1D01*
X875Y1D01*
X874Y1D01*
X873Y1D01*
X872Y1D01*
X871Y1D01*
X870Y1D01*
X869Y1D01*
X868Y1D01*
X867Y1D01*
X866Y1D01*
X865Y1D01*
X864Y1D01*
X863Y1D01*
X862Y1D01*
X861Y1D01*
X860Y1D01*
X859Y1D01*
X858Y1D01*
X857Y1D01*
X856Y1D01*
X855Y1D01*
X854Y1D01*
X853Y1D01*
X852Y1D01*
X851Y1D01*
X850Y1D01*
X849Y1D01*
X848Y1D01*
X847Y1D01*
X846Y1D01*
X845Y1D01*
X844Y1D01*
X843Y1D01*
X842Y1D01*
X841Y1D01*
X840Y1D01*
X839Y1D01*
X838Y1D01*
X837Y1D01*
X836Y1D01*
X835Y1D01*
X834Y1D01*
X833Y1D01*
X832Y1D01*
X831Y1D01*
X830Y1D01*
X829Y1D01*
X828Y1D01*
X827Y1D01*
X826Y1D01*
X825Y1D01*
X824Y1D01*
X823Y1D01*
X822Y1D01*
X821Y1D01*
X820Y1D01*
X819Y1D01*
X818Y1D01*
X817Y1D01*
X816Y1D01*
X815Y1D01*
X814Y1D01*
X813Y1D01*
X812Y1D01*
X811Y1D01*
X810Y1D01*
X809Y1D01*
X808Y1D01*
X807Y1D01*
X806Y1D01*
X805Y1D01*
X804Y1D01*
X803Y1D01*
X802Y1D01*
X801Y1D01*
X800Y1D01*
X799Y1D01*
X798Y1D01*
X797Y1D01*
X796Y1D01*
X795Y1D01*
X794Y1D01*
X793Y1D01*
X792Y1D01*
X791Y1D01*
X790Y1D01*
X789Y1D01*
X788Y1D01*
X787Y1D01*
X786Y1D01*
X785Y1D01*
X784Y1D01*
X783Y1D01*
X782Y1D01*
X781Y1D01*
X780Y1D01*
X779Y1D01*
X778Y1D01*
X777Y1D01*
X776Y1D01*
X775Y1D01*
X774Y1D01*
X773Y1D01*
X772Y1D01*
X771Y1D01*
X770Y1D01*
X769Y1D01*
X768Y1D01*
X767Y1D01*
X766Y1D01*
X765Y1D01*
X764Y1D01*
X763Y1D01*
X762Y1D01*
X761Y1D01*
X760Y1D01*
X759Y1D01*
X758Y1D01*
X757Y1D01*
X756Y1D01*
X755Y1D01*
X754Y1D01*
X753Y1D01*
X752Y1D01*
X751Y1D01*
X750Y1D01*
X749Y1D01*
X748Y1D01*
X747Y1D01*
X746Y1D01*
X745Y1D01*
X744Y1D01*
X743Y1D01*
X742Y1D01*
X741Y1D01*
X740Y1D01*
X739Y1D01*
X738Y1D01*
X737Y1D01*
X736Y1D01*
X735Y1D01*
X734Y1D01*
X733Y1D01*
X732Y1D01*
X731Y1D01*
X730Y1D01*
X729Y1D01*
X728Y1D01*
X727Y1D01*
X726Y1D01*
X725Y1D01*
X724Y1D01*
X723Y1D01*
X722Y1D01*
X721Y1D01*
X720Y1D01*
X719Y1D01*
X718Y1D01*
X717Y1D01*
X716Y1D01*
X715Y1D01*
X714Y1D01*
X713Y1D01*
X712Y1D01*
X711Y1D01*
X710Y1D01*
X709Y1D01*
X708Y1D01*
X707Y1D01*
X706Y1D01*
X705Y1D01*
X704Y1D01*
X703Y1D01*
X702Y1D01*
X701Y1D01*
X700Y1D01*
X699Y1D01*
X698Y1D01*
X697Y1D01*
X696Y1D01*
X695Y1D01*
X694Y1D01*
X693Y1D01*
X692Y1D01*
X691Y1D01*
X690Y1D01*
X689Y1D01*
X688Y1D01*
X687Y1D01*
X686Y1D01*
X685Y1D01*
X684Y1D01*
X683Y1D01*
X682Y1D01*
X681Y1D01*
X680Y1D01*
X679Y1D01*
X678Y1D01*
X677Y1D01*
X676Y1D01*
X675Y1D01*
X674Y1D01*
X673Y1D01*
X672Y1D01*
X671Y1D01*
X670Y1D01*
X669Y1D01*
X668Y1D01*
X667Y1D01*
X666Y1D01*
X665Y1D01*
X664Y1D01*
X663Y1D01*
X662Y1D01*
X661Y1D01*
X660Y1D01*
X659Y1D01*
X658Y1D01*
X657Y1D01*
X656Y1D01*
X655Y1D01*
X654Y1D01*
X653Y1D01*
X652Y1D01*
X651Y1D01*
X650Y1D01*
X649Y1D01*
X648Y1D01*
X647Y1D01*
X646Y1D01*
X645Y1D01*
X644Y1D01*
X643Y1D01*
X642Y1D01*
X641Y1D01*
X640Y1D01*
X639Y1D01*
X638Y1D01*
X637Y1D01*
X636Y1D01*
X635Y1D01*
X634Y1D01*
X633Y1D01*
X632Y1D01*
X631Y1D01*
X630Y1D01*
X629Y1D01*
X628Y1D01*
X627Y1D01*
X626Y1D01*
X625Y1D01*
X624Y1D01*
X623Y1D01*
X622Y1D01*
X621Y1D01*
X620Y1D01*
X619Y1D01*
X618Y1D01*
X617Y1D01*
X616Y1D01*
X615Y1D01*
X614Y1D01*
X613Y1D01*
X612Y1D01*
X611Y1D01*
X610Y1D01*
X609Y1D01*
X608Y1D01*
X607Y1D01*
X606Y1D01*
X605Y1D01*
X604Y1D01*
X603Y1D01*
X602Y1D01*
X601Y1D01*
X600Y1D01*
X599Y1D01*
X598Y1D01*
X597Y1D01*
X596Y1D01*
X595Y1D01*
X594Y1D01*
X593Y1D01*
X592Y1D01*
X591Y1D01*
X590Y1D01*
X589Y1D01*
X588Y1D01*
X587Y1D01*
X586Y1D01*
X585Y1D01*
X584Y1D01*
X583Y1D01*
X582Y1D01*
X581Y1D01*
X580Y1D01*
X579Y1D01*
X578Y1D01*
X577Y1D01*
X576Y1D01*
X575Y1D01*
X574Y1D01*
X573Y1D01*
X572Y1D01*
X571Y1D01*
X570Y1D01*
X569Y1D01*
X568Y1D01*
X567Y1D01*
X566Y1D01*
X565Y1D01*
X564Y1D01*
X563Y1D01*
X562Y1D01*
X561Y1D01*
X560Y1D01*
X559Y1D01*
X558Y1D01*
X557Y1D01*
X556Y1D01*
X555Y1D01*
X554Y1D01*
X553Y1D01*
X552Y1D01*
X551Y1D01*
X550Y1D01*
X549Y1D01*
X548Y1D01*
X547Y1D01*
X546Y1D01*
X545Y1D01*
X544Y1D01*
X543Y1D01*
X542Y1D01*
X541Y1D01*
X540Y1D01*
X539Y1D01*
X538Y1D01*
X537Y1D01*
X536Y1D01*
X535Y1D01*
X534Y1D01*
X533Y1D01*
X532Y1D01*
X531Y1D01*
X530Y1D01*
X529Y1D01*
X528Y1D01*
X527Y1D01*
X526Y1D01*
X525Y1D01*
X524Y1D01*
X523Y1D01*
X522Y1D01*
X521Y1D01*
X520Y1D01*
X519Y1D01*
X518Y1D01*
X517Y1D01*
X516Y1D01*
X515Y1D01*
X514Y1D01*
X513Y1D01*
X512Y1D01*
X511Y1D01*
X510Y1D01*
X509Y1D01*
X508Y1D01*
X507Y1D01*
X506Y1D01*
X505Y1D01*
X504Y1D01*
X503Y1D01*
X502Y1D01*
X501Y1D01*
X500Y1D01*
X499Y1D01*
X498Y1D01*
X497Y1D01*
X496Y1D01*
X495Y1D01*
X494Y1D01*
X493Y1D01*
X492Y1D01*
X491Y1D01*
X490Y1D01*
X489Y1D01*
X488Y1D01*
X487Y1D01*
X486Y1D01*
X485Y1D01*
X484Y1D01*
X483Y1D01*
X482Y1D01*
X481Y1D01*
X480Y1D01*
X479Y1D01*
X478Y1D01*
X477Y1D01*
X476Y1D01*
X475Y1D01*
X474Y1D01*
X473Y1D01*
X472Y1D01*
X471Y1D01*
X470Y1D01*
X469Y1D01*
X468Y1D01*
X467Y1D01*
X466Y1D01*
X465Y1D01*
X464Y1D01*
X463Y1D01*
X462Y1D01*
X461Y1D01*
X460Y1D01*
X459Y1D01*
X458Y1D01*
X457Y1D01*
X456Y1D01*
X455Y1D01*
X454Y1D01*
X453Y1D01*
X452Y1D01*
X451Y1D01*
X450Y1D01*
X449Y1D01*
X448Y1D01*
X447Y1D01*
X446Y1D01*
X445Y1D01*
X444Y1D01*
X443Y1D01*
X442Y1D01*
X441Y1D01*
X440Y1D01*
X439Y1D01*
X438Y1D01*
X437Y1D01*
X436Y1D01*
X435Y1D01*
X434Y1D01*
X433Y1D01*
X432Y1D01*
X431Y1D01*
X430Y1D01*
X429Y1D01*
X428Y1D01*
X427Y1D01*
X426Y1D01*
X425Y1D01*
X424Y1D01*
X423Y1D01*
X422Y1D01*
X421Y1D01*
X420Y1D01*
X419Y1D01*
X418Y1D01*
X417Y1D01*
X416Y1D01*
X415Y1D01*
X414Y1D01*
X413Y1D01*
X412Y1D01*
X411Y1D01*
X410Y1D01*
X409Y1D01*
X408Y1D01*
X407Y1D01*
X406Y1D01*
X405Y1D01*
X404Y1D01*
X403Y1D01*
X402Y1D01*
X401Y1D01*
X400Y1D01*
X399Y1D01*
X398Y1D01*
X397Y1D01*
X396Y1D01*
X395Y1D01*
X394Y1D01*
X393Y1D01*
X392Y1D01*
X391Y1D01*
X390Y1D01*
X389Y1D01*
X388Y1D01*
X387Y1D01*
X386Y1D01*
X385Y1D01*
X384Y1D01*
X383Y1D01*
X382Y1D01*
X381Y1D01*
X380Y1D01*
X379Y1D01*
X378Y1D01*
X377Y1D01*
X376Y1D01*
X375Y1D01*
X374Y1D01*
X373Y1D01*
X372Y1D01*
X371Y1D01*
X370Y1D01*
X369Y1D01*
X368Y1D01*
X367Y1D01*
X366Y1D01*
X365Y1D01*
X364Y1D01*
X363Y1D01*
X362Y1D01*
X361Y1D01*
X360Y1D01*
X359Y2D01*
X358Y2D01*
X357Y2D01*
X356Y2D01*
X355Y2D01*
X354Y2D01*
X353Y2D01*
X352Y2D01*
X351Y2D01*
X350Y2D01*
X349Y2D01*
X348Y2D01*
X347Y2D01*
X346Y3D01*
X345Y3D01*
X344Y3D01*
X343Y3D01*
X342Y3D01*
X341Y3D01*
X340Y3D01*
X339Y3D01*
X338Y3D01*
X337Y3D01*
X336Y4D01*
X335Y4D01*
X334Y4D01*
X333Y4D01*
X332Y4D01*
X331Y4D01*
X330Y4D01*
X329Y4D01*
X328Y5D01*
X327Y5D01*
X326Y5D01*
X325Y5D01*
X324Y5D01*
X323Y5D01*
X322Y5D01*
X321Y6D01*
X320Y6D01*
X319Y6D01*
X318Y6D01*
X317Y6D01*
X316Y6D01*
X315Y7D01*
X314Y7D01*
X313Y7D01*
X312Y7D01*
X311Y7D01*
X310Y7D01*
X309Y8D01*
X308Y8D01*
X307Y8D01*
X306Y8D01*
X305Y8D01*
X304Y9D01*
X303Y9D01*
X302Y9D01*
X301Y9D01*
X300Y10D01*
X299Y10D01*
X298Y10D01*
X297Y10D01*
X296Y10D01*
X295Y11D01*
X294Y11D01*
X293Y11D01*
X292Y11D01*
X291Y12D01*
X290Y12D01*
X289Y12D01*
X288Y12D01*
X287Y13D01*
X286Y13D01*
X285Y13D01*
X284Y13D01*
X283Y14D01*
X282Y14D01*
X281Y14D01*
X280Y14D01*
X279Y15D01*
X278Y15D01*
X277Y15D01*
X276Y16D01*
X275Y16D01*
X274Y16D01*
X273Y16D01*
X272Y17D01*
X271Y17D01*
X270Y17D01*
X269Y18D01*
X268Y18D01*
X267Y18D01*
X266Y19D01*
X265Y19D01*
X264Y19D01*
X263Y20D01*
X262Y20D01*
X261Y20D01*
X260Y21D01*
X259Y21D01*
X258Y21D01*
X257Y22D01*
X256Y22D01*
X255Y22D01*
X254Y23D01*
X253Y23D01*
X252Y23D01*
X251Y24D01*
X250Y24D01*
X249Y24D01*
X248Y25D01*
X247Y25D01*
X246Y26D01*
X245Y26D01*
X244Y26D01*
X243Y27D01*
X242Y27D01*
X241Y28D01*
X240Y28D01*
X239Y28D01*
X238Y29D01*
X237Y29D01*
X236Y30D01*
X235Y30D01*
X234Y30D01*
X233Y31D01*
X232Y31D01*
X231Y32D01*
X230Y32D01*
X229Y33D01*
X228Y33D01*
X227Y33D01*
X226Y34D01*
X225Y34D01*
X224Y35D01*
X223Y35D01*
X222Y36D01*
X221Y36D01*
X220Y37D01*
X219Y37D01*
X218Y38D01*
X217Y38D01*
X216Y38D01*
X215Y39D01*
X214Y39D01*
X213Y40D01*
X212Y40D01*
X211Y41D01*
X210Y42D01*
X209Y42D01*
X208Y43D01*
X207Y43D01*
X206Y44D01*
X205Y44D01*
X204Y45D01*
X203Y45D01*
X202Y46D01*
X201Y46D01*
X200Y47D01*
X199Y47D01*
X198Y48D01*
X197Y48D01*
X196Y49D01*
X195Y50D01*
X194Y50D01*
X193Y51D01*
X192Y51D01*
X191Y52D01*
X190Y52D01*
X189Y53D01*
X188Y54D01*
X187Y54D01*
X186Y55D01*
X185Y55D01*
X184Y56D01*
X183Y57D01*
X182Y57D01*
X181Y58D01*
X180Y58D01*
X179Y59D01*
X178Y60D01*
X177Y60D01*
X176Y61D01*
X175Y62D01*
X174Y62D01*
X173Y63D01*
X172Y64D01*
X171Y64D01*
X170Y65D01*
X169Y66D01*
X168Y66D01*
X167Y67D01*
X166Y68D01*
X165Y68D01*
X164Y69D01*
X163Y70D01*
X162Y70D01*
X161Y71D01*
X160Y72D01*
X159Y73D01*
X158Y73D01*
X157Y74D01*
X156Y75D01*
X155Y76D01*
X154Y76D01*
X153Y77D01*
X152Y78D01*
X151Y78D01*
X150Y79D01*
X149Y80D01*
X148Y81D01*
X147Y82D01*
X146Y82D01*
X145Y83D01*
X144Y84D01*
X143Y85D01*
X142Y86D01*
X141Y86D01*
X140Y87D01*
X139Y88D01*
X138Y89D01*
X137Y90D01*
X136Y91D01*
X135Y91D01*
X134Y92D01*
X133Y93D01*
X132Y94D01*
X131Y95D01*
X130Y96D01*
X129Y97D01*
X128Y98D01*
X127Y98D01*
X126Y99D01*
X125Y100D01*
X124Y101D01*
X123Y102D01*
X122Y103D01*
X121Y104D01*
X120Y105D01*
X119Y106D01*
X118Y107D01*
X117Y108D01*
X116Y109D01*
X115Y110D01*
X114Y111D01*
X113Y112D01*
X112Y113D01*
X111Y114D01*
X110Y115D01*
X109Y116D01*
X108Y117D01*
X107Y118D01*
X106Y119D01*
X105Y120D01*
X104Y121D01*
X103Y122D01*
X102Y123D01*
X101Y124D01*
X100Y125D01*
X99Y126D01*
X99Y127D01*
X98Y128D01*
X97Y129D01*
X96Y130D01*
X95Y131D01*
X94Y132D01*
X93Y133D01*
X93Y134D01*
X92Y135D01*
X91Y136D01*
X90Y137D01*
X89Y138D01*
X88Y139D01*
X87Y140D01*
X87Y141D01*
X86Y142D01*
X85Y143D01*
X84Y144D01*
X83Y145D01*
X83Y146D01*
X82Y147D01*
X81Y148D01*
X80Y149D01*
X80Y150D01*
X79Y151D01*
X78Y152D01*
X77Y153D01*
X77Y154D01*
X76Y155D01*
X75Y156D01*
X74Y157D01*
X74Y158D01*
X73Y159D01*
X72Y160D01*
X72Y161D01*
X71Y162D01*
X70Y163D01*
X69Y164D01*
X69Y165D01*
X68Y166D01*
X67Y167D01*
X67Y168D01*
X66Y169D01*
X65Y170D01*
X65Y171D01*
X64Y172D01*
X63Y173D01*
X63Y174D01*
X62Y175D01*
X61Y176D01*
X61Y177D01*
X60Y178D01*
X60Y179D01*
X59Y180D01*
X58Y181D01*
X58Y182D01*
X57Y183D01*
X56Y184D01*
X56Y185D01*
X55Y186D01*
X55Y187D01*
X54Y188D01*
X53Y189D01*
X53Y190D01*
X52Y191D01*
X52Y192D01*
X51Y193D01*
X51Y194D01*
X50Y195D01*
X49Y196D01*
X49Y197D01*
X48Y198D01*
X48Y199D01*
X47Y200D01*
X47Y201D01*
X46Y202D01*
X46Y203D01*
X45Y204D01*
X45Y205D01*
X44Y206D01*
X44Y207D01*
X43Y208D01*
X43Y209D01*
X42Y210D01*
X41Y211D01*
X41Y212D01*
X40Y213D01*
X40Y214D01*
X39Y215D01*
X39Y216D01*
X38Y217D01*
X38Y218D01*
X37Y219D01*
X37Y221D01*
X36Y222D01*
X36Y223D01*
X35Y224D01*
X35Y225D01*
X34Y226D01*
X34Y227D01*
X33Y228D01*
X33Y230D01*
X32Y231D01*
X32Y232D01*
X31Y233D01*
X31Y234D01*
X30Y235D01*
X30Y236D01*
X29Y237D01*
X29Y239D01*
X28Y240D01*
X28Y242D01*
X27Y243D01*
X27Y244D01*
X26Y245D01*
X26Y247D01*
X25Y248D01*
X25Y249D01*
X24Y250D01*
X24Y252D01*
X23Y253D01*
X23Y255D01*
X22Y256D01*
X22Y258D01*
X21Y259D01*
X21Y261D01*
X20Y262D01*
X20Y264D01*
X19Y265D01*
X19Y267D01*
X18Y268D01*
X18Y270D01*
X17Y271D01*
X17Y273D01*
X16Y274D01*
X16Y276D01*
X15Y277D01*
X15Y280D01*
X14Y281D01*
X14Y284D01*
X13Y285D01*
X13Y287D01*
X12Y288D01*
X12Y291D01*
X11Y292D01*
X11Y295D01*
X10Y296D01*
X10Y300D01*
X9Y301D01*
X9Y304D01*
X8Y305D01*
X8Y309D01*
X7Y310D01*
X7Y314D01*
X6Y315D01*
X6Y320D01*
X5Y321D01*
X5Y326D01*
X4Y327D01*
X4Y333D01*
X3Y334D01*
X3Y341D01*
X2Y342D01*
X2Y351D01*
X1Y352D01*
X1Y366D01*
X0Y367D01*
X0Y2576D01*
X1Y2577D01*
X1Y2591D01*
X2Y2592D01*
X2Y2601D01*
X3Y2602D01*
X3Y2609D01*
X4Y2610D01*
X4Y2616D01*
X5Y2617D01*
X5Y2622D01*
X6Y2623D01*
X6Y2628D01*
X7Y2629D01*
X7Y2633D01*
X8Y2634D01*
X8Y2638D01*
X9Y2639D01*
X9Y2642D01*
X10Y2643D01*
X10Y2647D01*
X11Y2648D01*
X11Y2651D01*
X12Y2652D01*
X12Y2655D01*
X13Y2656D01*
X13Y2658D01*
X14Y2659D01*
X14Y2662D01*
X15Y2663D01*
X15Y2666D01*
X16Y2667D01*
X16Y2669D01*
X17Y2670D01*
X17Y2672D01*
X18Y2673D01*
X18Y2675D01*
X19Y2676D01*
X19Y2678D01*
X20Y2679D01*
X20Y2681D01*
X21Y2682D01*
X21Y2684D01*
X22Y2685D01*
X22Y2687D01*
X23Y2688D01*
X23Y2690D01*
X24Y2691D01*
X24Y2693D01*
X25Y2694D01*
X25Y2695D01*
X26Y2696D01*
X26Y2698D01*
X27Y2699D01*
X27Y2700D01*
X28Y2701D01*
X28Y2703D01*
X29Y2704D01*
X29Y2706D01*
X30Y2707D01*
X30Y2708D01*
X31Y2709D01*
X31Y2710D01*
X32Y2711D01*
X32Y2712D01*
X33Y2713D01*
X33Y2715D01*
X34Y2716D01*
X34Y2717D01*
X35Y2718D01*
X35Y2719D01*
X36Y2720D01*
X36Y2721D01*
X37Y2722D01*
X37Y2724D01*
X38Y2725D01*
X38Y2726D01*
X39Y2727D01*
X39Y2728D01*
X40Y2729D01*
X40Y2730D01*
X41Y2731D01*
X41Y2732D01*
X42Y2733D01*
X43Y2734D01*
X43Y2735D01*
X44Y2736D01*
X44Y2737D01*
X45Y2738D01*
X45Y2739D01*
X46Y2740D01*
X46Y2741D01*
X47Y2742D01*
X47Y2743D01*
X48Y2744D01*
X48Y2745D01*
X49Y2746D01*
X49Y2747D01*
X50Y2748D01*
X51Y2749D01*
X51Y2750D01*
X52Y2751D01*
X52Y2752D01*
X53Y2753D01*
X53Y2754D01*
X54Y2755D01*
X55Y2756D01*
X55Y2757D01*
X56Y2758D01*
X56Y2759D01*
X57Y2760D01*
X58Y2761D01*
X58Y2762D01*
X59Y2763D01*
X60Y2764D01*
X60Y2765D01*
X61Y2766D01*
X61Y2767D01*
X62Y2768D01*
X63Y2769D01*
X63Y2770D01*
X64Y2771D01*
X65Y2772D01*
X65Y2773D01*
X66Y2774D01*
X67Y2775D01*
X67Y2776D01*
X68Y2777D01*
X69Y2778D01*
X69Y2779D01*
X70Y2780D01*
X71Y2781D01*
X72Y2782D01*
X72Y2783D01*
X73Y2784D01*
X74Y2785D01*
X74Y2786D01*
X75Y2787D01*
X76Y2788D01*
X77Y2789D01*
X77Y2790D01*
X78Y2791D01*
X79Y2792D01*
X80Y2793D01*
X80Y2794D01*
X81Y2795D01*
X82Y2796D01*
X83Y2797D01*
X83Y2798D01*
X84Y2799D01*
X85Y2800D01*
X86Y2801D01*
X87Y2802D01*
X87Y2803D01*
X88Y2804D01*
X89Y2805D01*
X90Y2806D01*
X91Y2807D01*
X92Y2808D01*
X93Y2809D01*
X93Y2810D01*
X94Y2811D01*
X95Y2812D01*
X96Y2813D01*
X97Y2814D01*
X98Y2815D01*
X99Y2816D01*
X99Y2817D01*
X100Y2818D01*
X101Y2819D01*
X102Y2820D01*
X103Y2821D01*
X104Y2822D01*
X105Y2823D01*
X106Y2824D01*
X107Y2825D01*
X108Y2826D01*
X109Y2827D01*
X110Y2828D01*
X111Y2829D01*
X112Y2830D01*
X113Y2831D01*
X114Y2832D01*
X115Y2833D01*
X116Y2834D01*
X117Y2835D01*
X118Y2836D01*
X119Y2837D01*
X120Y2838D01*
X121Y2839D01*
X122Y2840D01*
X123Y2841D01*
X124Y2842D01*
X125Y2843D01*
X126Y2844D01*
X127Y2845D01*
X128Y2845D01*
X129Y2846D01*
X130Y2847D01*
X131Y2848D01*
X132Y2849D01*
X133Y2850D01*
X134Y2851D01*
X135Y2852D01*
X136Y2852D01*
X137Y2853D01*
X138Y2854D01*
X139Y2855D01*
X140Y2856D01*
X141Y2857D01*
X142Y2857D01*
X143Y2858D01*
X144Y2859D01*
X145Y2860D01*
X146Y2861D01*
X147Y2861D01*
X148Y2862D01*
X149Y2863D01*
X150Y2864D01*
X151Y2865D01*
X152Y2865D01*
X153Y2866D01*
X154Y2867D01*
X155Y2867D01*
X156Y2868D01*
X157Y2869D01*
X158Y2870D01*
X159Y2870D01*
X160Y2871D01*
X161Y2872D01*
X162Y2873D01*
X163Y2873D01*
X164Y2874D01*
X165Y2875D01*
X166Y2875D01*
X167Y2876D01*
X168Y2877D01*
X169Y2877D01*
X170Y2878D01*
X171Y2879D01*
X172Y2879D01*
X173Y2880D01*
X174Y2881D01*
X175Y2881D01*
X176Y2882D01*
X177Y2883D01*
X178Y2883D01*
X179Y2884D01*
X180Y2885D01*
X181Y2885D01*
X182Y2886D01*
X183Y2886D01*
X184Y2887D01*
X185Y2888D01*
X186Y2888D01*
X187Y2889D01*
X188Y2889D01*
X189Y2890D01*
X190Y2891D01*
X191Y2891D01*
X192Y2892D01*
X193Y2892D01*
X194Y2893D01*
X195Y2893D01*
X196Y2894D01*
X197Y2895D01*
X198Y2895D01*
X199Y2896D01*
X200Y2896D01*
X201Y2897D01*
X202Y2897D01*
X203Y2898D01*
X204Y2898D01*
X205Y2899D01*
X206Y2899D01*
X207Y2900D01*
X208Y2900D01*
X209Y2901D01*
X210Y2901D01*
X211Y2902D01*
X212Y2903D01*
X213Y2903D01*
X214Y2904D01*
X215Y2904D01*
X216Y2905D01*
X217Y2905D01*
X218Y2905D01*
X219Y2906D01*
X220Y2906D01*
X221Y2907D01*
X222Y2907D01*
X223Y2908D01*
X224Y2908D01*
X225Y2909D01*
X226Y2909D01*
X227Y2910D01*
X228Y2910D01*
X229Y2910D01*
X230Y2911D01*
X231Y2911D01*
X232Y2912D01*
X233Y2912D01*
X234Y2913D01*
X235Y2913D01*
X236Y2913D01*
X237Y2914D01*
X238Y2914D01*
X239Y2915D01*
X240Y2915D01*
X241Y2915D01*
X242Y2916D01*
X243Y2916D01*
X244Y2917D01*
X245Y2917D01*
X246Y2917D01*
X247Y2918D01*
X248Y2918D01*
X249Y2919D01*
X250Y2919D01*
X251Y2919D01*
X252Y2920D01*
X253Y2920D01*
X254Y2920D01*
X255Y2921D01*
X256Y2921D01*
X257Y2921D01*
X258Y2922D01*
X259Y2922D01*
X260Y2922D01*
X261Y2923D01*
X262Y2923D01*
X263Y2923D01*
X264Y2924D01*
X265Y2924D01*
X266Y2924D01*
X267Y2925D01*
X268Y2925D01*
X269Y2925D01*
X270Y2926D01*
X271Y2926D01*
X272Y2926D01*
X273Y2927D01*
X274Y2927D01*
X275Y2927D01*
X276Y2927D01*
X277Y2928D01*
X278Y2928D01*
X279Y2928D01*
X280Y2929D01*
X281Y2929D01*
X282Y2929D01*
X283Y2929D01*
X284Y2930D01*
X285Y2930D01*
X286Y2930D01*
X287Y2930D01*
X288Y2931D01*
X289Y2931D01*
X290Y2931D01*
X291Y2931D01*
X292Y2932D01*
X293Y2932D01*
X294Y2932D01*
X295Y2932D01*
X296Y2933D01*
X297Y2933D01*
X298Y2933D01*
X299Y2933D01*
X300Y2933D01*
X301Y2934D01*
X302Y2934D01*
X303Y2934D01*
X304Y2934D01*
X305Y2935D01*
X306Y2935D01*
X307Y2935D01*
X308Y2935D01*
X309Y2935D01*
X310Y2936D01*
X311Y2936D01*
X312Y2936D01*
X313Y2936D01*
X314Y2936D01*
X315Y2936D01*
X316Y2937D01*
X317Y2937D01*
X318Y2937D01*
X319Y2937D01*
X320Y2937D01*
X321Y2937D01*
X322Y2938D01*
X323Y2938D01*
X324Y2938D01*
X325Y2938D01*
X326Y2938D01*
X327Y2938D01*
X328Y2938D01*
X329Y2939D01*
X330Y2939D01*
X331Y2939D01*
X332Y2939D01*
X333Y2939D01*
X334Y2939D01*
X335Y2939D01*
X336Y2939D01*
X337Y2940D01*
X338Y2940D01*
X339Y2940D01*
X340Y2940D01*
X341Y2940D01*
X342Y2940D01*
X343Y2940D01*
X344Y2940D01*
X345Y2940D01*
X346Y2940D01*
X347Y2941D01*
X348Y2941D01*
X349Y2941D01*
X350Y2941D01*
X351Y2941D01*
X352Y2941D01*
X353Y2941D01*
X354Y2941D01*
X355Y2941D01*
X356Y2941D01*
X357Y2941D01*
X358Y2941D01*
X359Y2941D01*
X360Y2942D01*
D02*
G04 End of contour*
M02*