G04 MADE WITH FRITZING*
G04 WWW.FRITZING.ORG*
G04 DOUBLE SIDED*
G04 HOLES PLATED*
G04 CONTOUR ON CENTER OF CONTOUR VECTOR*
%ASAXBY*%
%FSLAX23Y23*%
%MOIN*%
%OFA0B0*%
%SFA1.0B1.0*%
%ADD10C,0.057829*%
%ADD11C,0.049370*%
%ADD12C,0.092000*%
%ADD13C,0.085000*%
%ADD14C,0.254000*%
%ADD15C,0.175354*%
%ADD16R,0.092000X0.092000*%
%ADD17C,0.030000*%
%LNMASK1*%
G90*
G70*
G54D10*
X2387Y1120D03*
X2187Y222D03*
X2287Y222D03*
X2387Y222D03*
X2487Y222D03*
X2586Y222D03*
X2287Y1120D03*
X2187Y1120D03*
X2487Y1120D03*
X2686Y222D03*
X2786Y222D03*
X2886Y222D03*
X2986Y222D03*
X3086Y222D03*
X3185Y222D03*
X3285Y222D03*
X3385Y222D03*
X3485Y222D03*
X3585Y222D03*
X2886Y1120D03*
X2986Y1120D03*
X3086Y1120D03*
X3185Y1120D03*
X3285Y1120D03*
X3385Y1120D03*
X3485Y1120D03*
X3585Y1120D03*
X2586Y1120D03*
X2686Y1120D03*
X2786Y1120D03*
G54D11*
X2686Y616D03*
G54D12*
X1242Y1026D03*
X1030Y814D03*
G54D13*
X3286Y1320D03*
X2886Y1320D03*
G54D14*
X1686Y320D03*
X1686Y320D03*
X1186Y320D03*
X1186Y320D03*
X3886Y1420D03*
X3886Y1420D03*
X286Y2420D03*
X286Y2420D03*
X986Y2620D03*
X986Y2620D03*
X286Y1420D03*
X286Y1420D03*
X1986Y2620D03*
X1986Y2620D03*
X2486Y2620D03*
X2486Y2620D03*
X3386Y2620D03*
X3386Y2620D03*
X3886Y2020D03*
X3886Y2020D03*
X286Y1920D03*
X286Y1920D03*
X1486Y2620D03*
X1486Y2620D03*
X2986Y2620D03*
X2986Y2620D03*
X3886Y2520D03*
X3886Y2520D03*
X686Y320D03*
X686Y320D03*
X286Y920D03*
X286Y920D03*
X286Y320D03*
X286Y320D03*
G54D12*
X3186Y1820D03*
X3398Y2032D03*
X1586Y1820D03*
X1586Y2120D03*
X2486Y1820D03*
X2486Y2120D03*
G54D15*
X3986Y1720D03*
X3986Y320D03*
X3086Y920D03*
X2186Y1520D03*
X586Y820D03*
X586Y2620D03*
X1086Y1520D03*
X2786Y1520D03*
G54D16*
X2486Y1820D03*
G54D17*
G36*
X1242Y982D02*
X1198Y1026D01*
X1242Y1070D01*
X1286Y1026D01*
X1242Y982D01*
G37*
D02*
G36*
X3186Y1863D02*
X3229Y1820D01*
X3186Y1776D01*
X3142Y1820D01*
X3186Y1863D01*
G37*
D02*
G36*
X1555Y1851D02*
X1617Y1851D01*
X1617Y1789D01*
X1555Y1789D01*
X1555Y1851D01*
G37*
D02*
G04 End of Mask1*
M02*