; NON-PLATED HOLES START AT T1
; THROUGH (PLATED) HOLES START AT T100
M48
INCH
T1C0.165354
T2C0.035433
T100C0.042000
T101C0.015748
T102C0.150000
T103C0.035000
T104C0.022334
%
T1
X005856Y026195
X039856Y003195
X005856Y008195
X010856Y015195
X021856Y015195
X030856Y009195
X039856Y017195
X027856Y015195
T2
X040742Y007719
X040742Y008900
T100
X015856Y021195
X015856Y018195
X012416Y010256
X033977Y020317
X024856Y021195
X024856Y018195
X010295Y008135
X031856Y018195
T101
X026856Y006158
T102
X019856Y026195
X033856Y026195
X009856Y026195
X002856Y024195
X002856Y014195
X038856Y014195
X016856Y003195
X024856Y026195
X002856Y019195
X011856Y003195
X006856Y003195
X002856Y009195
X038856Y020195
X014856Y026195
X029856Y026195
X002856Y003195
X038856Y025195
T103
X032856Y013195
X028856Y013195
T104
X030856Y002222
X026862Y002222
X021870Y011195
X022868Y002222
X027860Y011195
X031854Y011195
X033851Y002222
X026862Y011195
X030856Y011195
X035848Y002222
X022868Y011195
X032853Y002222
X024865Y002222
X033851Y011195
X035848Y011195
X023867Y002222
X032853Y011195
X029857Y002222
X024865Y011195
X034850Y002222
X028859Y002222
X025863Y002222
X023867Y011195
X029857Y011195
X034850Y011195
X025863Y011195
X028859Y011195
X021870Y002222
X031854Y002222
X027860Y002222
T00
M30
