G04 MADE WITH FRITZING*
G04 WWW.FRITZING.ORG*
G04 DOUBLE SIDED*
G04 HOLES PLATED*
G04 CONTOUR ON CENTER OF CONTOUR VECTOR*
%ASAXBY*%
%FSLAX23Y23*%
%MOIN*%
%OFA0B0*%
%SFA1.0B1.0*%
%ADD10C,0.005000*%
%ADD11R,0.001000X0.001000*%
%LNSILK0*%
G90*
G70*
G54D10*
X5327Y1215D02*
X5429Y1215D01*
D02*
X5429Y1215D02*
X5429Y951D01*
D02*
X5429Y951D02*
X5327Y951D01*
D02*
X5327Y951D02*
X5327Y1215D01*
G54D11*
X370Y3150D02*
X5140Y3150D01*
X356Y3149D02*
X5154Y3149D01*
X346Y3148D02*
X5164Y3148D01*
X338Y3147D02*
X5172Y3147D01*
X331Y3146D02*
X5179Y3146D01*
X325Y3145D02*
X5185Y3145D01*
X319Y3144D02*
X5191Y3144D01*
X314Y3143D02*
X5196Y3143D01*
X309Y3142D02*
X369Y3142D01*
X5141Y3142D02*
X5201Y3142D01*
X304Y3141D02*
X355Y3141D01*
X5155Y3141D02*
X5206Y3141D01*
X300Y3140D02*
X345Y3140D01*
X5165Y3140D02*
X5210Y3140D01*
X296Y3139D02*
X337Y3139D01*
X5173Y3139D02*
X5214Y3139D01*
X292Y3138D02*
X330Y3138D01*
X5180Y3138D02*
X5218Y3138D01*
X288Y3137D02*
X324Y3137D01*
X5186Y3137D02*
X5222Y3137D01*
X285Y3136D02*
X318Y3136D01*
X5192Y3136D02*
X5225Y3136D01*
X281Y3135D02*
X313Y3135D01*
X5197Y3135D02*
X5229Y3135D01*
X278Y3134D02*
X308Y3134D01*
X5202Y3134D02*
X5232Y3134D01*
X275Y3133D02*
X304Y3133D01*
X5206Y3133D02*
X5235Y3133D01*
X272Y3132D02*
X300Y3132D01*
X5210Y3132D02*
X5238Y3132D01*
X269Y3131D02*
X296Y3131D01*
X5214Y3131D02*
X5241Y3131D01*
X266Y3130D02*
X292Y3130D01*
X5218Y3130D02*
X5244Y3130D01*
X263Y3129D02*
X288Y3129D01*
X5222Y3129D02*
X5247Y3129D01*
X260Y3128D02*
X284Y3128D01*
X5226Y3128D02*
X5250Y3128D01*
X257Y3127D02*
X281Y3127D01*
X5229Y3127D02*
X5253Y3127D01*
X254Y3126D02*
X278Y3126D01*
X5232Y3126D02*
X5256Y3126D01*
X252Y3125D02*
X275Y3125D01*
X5235Y3125D02*
X5258Y3125D01*
X250Y3124D02*
X272Y3124D01*
X5238Y3124D02*
X5260Y3124D01*
X247Y3123D02*
X269Y3123D01*
X5241Y3123D02*
X5263Y3123D01*
X245Y3122D02*
X266Y3122D01*
X5244Y3122D02*
X5265Y3122D01*
X242Y3121D02*
X263Y3121D01*
X5247Y3121D02*
X5268Y3121D01*
X240Y3120D02*
X260Y3120D01*
X5250Y3120D02*
X5270Y3120D01*
X237Y3119D02*
X257Y3119D01*
X5253Y3119D02*
X5273Y3119D01*
X235Y3118D02*
X255Y3118D01*
X5255Y3118D02*
X5275Y3118D01*
X233Y3117D02*
X252Y3117D01*
X5258Y3117D02*
X5277Y3117D01*
X231Y3116D02*
X250Y3116D01*
X5260Y3116D02*
X5279Y3116D01*
X228Y3115D02*
X247Y3115D01*
X5263Y3115D02*
X5282Y3115D01*
X226Y3114D02*
X245Y3114D01*
X5265Y3114D02*
X5284Y3114D01*
X224Y3113D02*
X242Y3113D01*
X5268Y3113D02*
X5286Y3113D01*
X222Y3112D02*
X240Y3112D01*
X5270Y3112D02*
X5288Y3112D01*
X220Y3111D02*
X238Y3111D01*
X5272Y3111D02*
X5290Y3111D01*
X218Y3110D02*
X235Y3110D01*
X5275Y3110D02*
X5292Y3110D01*
X216Y3109D02*
X233Y3109D01*
X5277Y3109D02*
X5294Y3109D01*
X214Y3108D02*
X231Y3108D01*
X5279Y3108D02*
X5296Y3108D01*
X212Y3107D02*
X229Y3107D01*
X5281Y3107D02*
X5298Y3107D01*
X210Y3106D02*
X227Y3106D01*
X5283Y3106D02*
X5300Y3106D01*
X208Y3105D02*
X225Y3105D01*
X5285Y3105D02*
X5302Y3105D01*
X206Y3104D02*
X222Y3104D01*
X5288Y3104D02*
X5304Y3104D01*
X205Y3103D02*
X221Y3103D01*
X5289Y3103D02*
X5305Y3103D01*
X203Y3102D02*
X219Y3102D01*
X5291Y3102D02*
X5307Y3102D01*
X201Y3101D02*
X217Y3101D01*
X5293Y3101D02*
X5309Y3101D01*
X199Y3100D02*
X215Y3100D01*
X5295Y3100D02*
X5311Y3100D01*
X198Y3099D02*
X213Y3099D01*
X5297Y3099D02*
X5312Y3099D01*
X196Y3098D02*
X211Y3098D01*
X5299Y3098D02*
X5314Y3098D01*
X194Y3097D02*
X209Y3097D01*
X5301Y3097D02*
X5316Y3097D01*
X192Y3096D02*
X207Y3096D01*
X5303Y3096D02*
X5318Y3096D01*
X191Y3095D02*
X205Y3095D01*
X5305Y3095D02*
X5319Y3095D01*
X189Y3094D02*
X204Y3094D01*
X5306Y3094D02*
X5321Y3094D01*
X187Y3093D02*
X202Y3093D01*
X5308Y3093D02*
X5323Y3093D01*
X186Y3092D02*
X200Y3092D01*
X5310Y3092D02*
X5324Y3092D01*
X184Y3091D02*
X199Y3091D01*
X5311Y3091D02*
X5326Y3091D01*
X183Y3090D02*
X197Y3090D01*
X5313Y3090D02*
X5327Y3090D01*
X181Y3089D02*
X195Y3089D01*
X5315Y3089D02*
X5329Y3089D01*
X180Y3088D02*
X193Y3088D01*
X5317Y3088D02*
X5330Y3088D01*
X178Y3087D02*
X192Y3087D01*
X5318Y3087D02*
X5332Y3087D01*
X177Y3086D02*
X190Y3086D01*
X5320Y3086D02*
X5333Y3086D01*
X175Y3085D02*
X189Y3085D01*
X5321Y3085D02*
X5335Y3085D01*
X174Y3084D02*
X187Y3084D01*
X5323Y3084D02*
X5336Y3084D01*
X172Y3083D02*
X185Y3083D01*
X5325Y3083D02*
X5338Y3083D01*
X171Y3082D02*
X184Y3082D01*
X5326Y3082D02*
X5339Y3082D01*
X169Y3081D02*
X182Y3081D01*
X5328Y3081D02*
X5341Y3081D01*
X168Y3080D02*
X181Y3080D01*
X5329Y3080D02*
X5342Y3080D01*
X166Y3079D02*
X179Y3079D01*
X5331Y3079D02*
X5344Y3079D01*
X165Y3078D02*
X178Y3078D01*
X5332Y3078D02*
X5345Y3078D01*
X164Y3077D02*
X176Y3077D01*
X5334Y3077D02*
X5346Y3077D01*
X162Y3076D02*
X175Y3076D01*
X5335Y3076D02*
X5348Y3076D01*
X161Y3075D02*
X173Y3075D01*
X5337Y3075D02*
X5349Y3075D01*
X160Y3074D02*
X172Y3074D01*
X5338Y3074D02*
X5350Y3074D01*
X158Y3073D02*
X171Y3073D01*
X5339Y3073D02*
X5352Y3073D01*
X157Y3072D02*
X169Y3072D01*
X5341Y3072D02*
X5353Y3072D01*
X155Y3071D02*
X168Y3071D01*
X5342Y3071D02*
X5355Y3071D01*
X154Y3070D02*
X167Y3070D01*
X5343Y3070D02*
X5356Y3070D01*
X153Y3069D02*
X165Y3069D01*
X5345Y3069D02*
X5357Y3069D01*
X152Y3068D02*
X164Y3068D01*
X5346Y3068D02*
X5358Y3068D01*
X150Y3067D02*
X162Y3067D01*
X5348Y3067D02*
X5360Y3067D01*
X149Y3066D02*
X161Y3066D01*
X5349Y3066D02*
X5361Y3066D01*
X148Y3065D02*
X160Y3065D01*
X5350Y3065D02*
X5362Y3065D01*
X147Y3064D02*
X158Y3064D01*
X5352Y3064D02*
X5363Y3064D01*
X145Y3063D02*
X157Y3063D01*
X5353Y3063D02*
X5365Y3063D01*
X144Y3062D02*
X156Y3062D01*
X5354Y3062D02*
X5366Y3062D01*
X143Y3061D02*
X155Y3061D01*
X5355Y3061D02*
X5367Y3061D01*
X142Y3060D02*
X153Y3060D01*
X5357Y3060D02*
X5368Y3060D01*
X141Y3059D02*
X152Y3059D01*
X5358Y3059D02*
X5369Y3059D01*
X139Y3058D02*
X151Y3058D01*
X5359Y3058D02*
X5371Y3058D01*
X138Y3057D02*
X150Y3057D01*
X5360Y3057D02*
X5372Y3057D01*
X137Y3056D02*
X148Y3056D01*
X5362Y3056D02*
X5373Y3056D01*
X136Y3055D02*
X147Y3055D01*
X5363Y3055D02*
X5374Y3055D01*
X135Y3054D02*
X146Y3054D01*
X5364Y3054D02*
X5375Y3054D01*
X134Y3053D02*
X145Y3053D01*
X5365Y3053D02*
X5376Y3053D01*
X133Y3052D02*
X144Y3052D01*
X5366Y3052D02*
X5377Y3052D01*
X132Y3051D02*
X143Y3051D01*
X5367Y3051D02*
X5378Y3051D01*
X130Y3050D02*
X141Y3050D01*
X5369Y3050D02*
X5380Y3050D01*
X129Y3049D02*
X140Y3049D01*
X5370Y3049D02*
X5381Y3049D01*
X128Y3048D02*
X139Y3048D01*
X5371Y3048D02*
X5382Y3048D01*
X127Y3047D02*
X138Y3047D01*
X5372Y3047D02*
X5383Y3047D01*
X126Y3046D02*
X137Y3046D01*
X5373Y3046D02*
X5384Y3046D01*
X125Y3045D02*
X136Y3045D01*
X5374Y3045D02*
X5385Y3045D01*
X124Y3044D02*
X135Y3044D01*
X5375Y3044D02*
X5386Y3044D01*
X123Y3043D02*
X134Y3043D01*
X5376Y3043D02*
X5387Y3043D01*
X122Y3042D02*
X132Y3042D01*
X5378Y3042D02*
X5388Y3042D01*
X121Y3041D02*
X131Y3041D01*
X5379Y3041D02*
X5389Y3041D01*
X120Y3040D02*
X130Y3040D01*
X5380Y3040D02*
X5390Y3040D01*
X119Y3039D02*
X129Y3039D01*
X5381Y3039D02*
X5391Y3039D01*
X118Y3038D02*
X128Y3038D01*
X5382Y3038D02*
X5392Y3038D01*
X117Y3037D02*
X127Y3037D01*
X5383Y3037D02*
X5393Y3037D01*
X116Y3036D02*
X126Y3036D01*
X5384Y3036D02*
X5394Y3036D01*
X115Y3035D02*
X125Y3035D01*
X5385Y3035D02*
X5395Y3035D01*
X114Y3034D02*
X124Y3034D01*
X5386Y3034D02*
X5396Y3034D01*
X113Y3033D02*
X123Y3033D01*
X5387Y3033D02*
X5397Y3033D01*
X112Y3032D02*
X122Y3032D01*
X5388Y3032D02*
X5398Y3032D01*
X111Y3031D02*
X121Y3031D01*
X5389Y3031D02*
X5399Y3031D01*
X110Y3030D02*
X120Y3030D01*
X5390Y3030D02*
X5400Y3030D01*
X109Y3029D02*
X119Y3029D01*
X5391Y3029D02*
X5401Y3029D01*
X108Y3028D02*
X118Y3028D01*
X5392Y3028D02*
X5402Y3028D01*
X107Y3027D02*
X117Y3027D01*
X5393Y3027D02*
X5403Y3027D01*
X106Y3026D02*
X116Y3026D01*
X5394Y3026D02*
X5404Y3026D01*
X105Y3025D02*
X115Y3025D01*
X5395Y3025D02*
X5405Y3025D01*
X104Y3024D02*
X114Y3024D01*
X5396Y3024D02*
X5406Y3024D01*
X103Y3023D02*
X113Y3023D01*
X5397Y3023D02*
X5407Y3023D01*
X102Y3022D02*
X112Y3022D01*
X5398Y3022D02*
X5408Y3022D01*
X102Y3021D02*
X111Y3021D01*
X5399Y3021D02*
X5408Y3021D01*
X101Y3020D02*
X111Y3020D01*
X5399Y3020D02*
X5409Y3020D01*
X100Y3019D02*
X110Y3019D01*
X5400Y3019D02*
X5410Y3019D01*
X99Y3018D02*
X109Y3018D01*
X5401Y3018D02*
X5411Y3018D01*
X98Y3017D02*
X108Y3017D01*
X5402Y3017D02*
X5412Y3017D01*
X97Y3016D02*
X107Y3016D01*
X5403Y3016D02*
X5413Y3016D01*
X96Y3015D02*
X106Y3015D01*
X5404Y3015D02*
X5414Y3015D01*
X96Y3014D02*
X105Y3014D01*
X5405Y3014D02*
X5414Y3014D01*
X95Y3013D02*
X104Y3013D01*
X5406Y3013D02*
X5415Y3013D01*
X94Y3012D02*
X103Y3012D01*
X5407Y3012D02*
X5416Y3012D01*
X93Y3011D02*
X102Y3011D01*
X5408Y3011D02*
X5417Y3011D01*
X92Y3010D02*
X102Y3010D01*
X5408Y3010D02*
X5418Y3010D01*
X91Y3009D02*
X101Y3009D01*
X5409Y3009D02*
X5419Y3009D01*
X90Y3008D02*
X100Y3008D01*
X5410Y3008D02*
X5420Y3008D01*
X90Y3007D02*
X99Y3007D01*
X5411Y3007D02*
X5420Y3007D01*
X89Y3006D02*
X98Y3006D01*
X5412Y3006D02*
X5421Y3006D01*
X88Y3005D02*
X97Y3005D01*
X5413Y3005D02*
X5422Y3005D01*
X87Y3004D02*
X97Y3004D01*
X5413Y3004D02*
X5423Y3004D01*
X86Y3003D02*
X96Y3003D01*
X5414Y3003D02*
X5424Y3003D01*
X86Y3002D02*
X95Y3002D01*
X5415Y3002D02*
X5424Y3002D01*
X85Y3001D02*
X94Y3001D01*
X5416Y3001D02*
X5425Y3001D01*
X84Y3000D02*
X93Y3000D01*
X5417Y3000D02*
X5426Y3000D01*
X83Y2999D02*
X92Y2999D01*
X5418Y2999D02*
X5427Y2999D01*
X83Y2998D02*
X92Y2998D01*
X5418Y2998D02*
X5427Y2998D01*
X82Y2997D02*
X91Y2997D01*
X5419Y2997D02*
X5428Y2997D01*
X81Y2996D02*
X90Y2996D01*
X5420Y2996D02*
X5429Y2996D01*
X80Y2995D02*
X89Y2995D01*
X5421Y2995D02*
X5430Y2995D01*
X80Y2994D02*
X89Y2994D01*
X5421Y2994D02*
X5430Y2994D01*
X79Y2993D02*
X88Y2993D01*
X5422Y2993D02*
X5431Y2993D01*
X78Y2992D02*
X87Y2992D01*
X5423Y2992D02*
X5432Y2992D01*
X77Y2991D02*
X86Y2991D01*
X5424Y2991D02*
X5433Y2991D01*
X77Y2990D02*
X85Y2990D01*
X5425Y2990D02*
X5433Y2990D01*
X76Y2989D02*
X85Y2989D01*
X5425Y2989D02*
X5434Y2989D01*
X75Y2988D02*
X84Y2988D01*
X5426Y2988D02*
X5435Y2988D01*
X74Y2987D02*
X83Y2987D01*
X5427Y2987D02*
X5436Y2987D01*
X74Y2986D02*
X82Y2986D01*
X5428Y2986D02*
X5436Y2986D01*
X73Y2985D02*
X82Y2985D01*
X5428Y2985D02*
X5437Y2985D01*
X72Y2984D02*
X81Y2984D01*
X5429Y2984D02*
X5438Y2984D01*
X72Y2983D02*
X80Y2983D01*
X5430Y2983D02*
X5438Y2983D01*
X71Y2982D02*
X80Y2982D01*
X5430Y2982D02*
X5439Y2982D01*
X70Y2981D02*
X79Y2981D01*
X5431Y2981D02*
X5440Y2981D01*
X70Y2980D02*
X78Y2980D01*
X5432Y2980D02*
X5440Y2980D01*
X69Y2979D02*
X78Y2979D01*
X5432Y2979D02*
X5441Y2979D01*
X68Y2978D02*
X77Y2978D01*
X5433Y2978D02*
X5442Y2978D01*
X67Y2977D02*
X76Y2977D01*
X5434Y2977D02*
X5443Y2977D01*
X67Y2976D02*
X75Y2976D01*
X5435Y2976D02*
X5443Y2976D01*
X66Y2975D02*
X75Y2975D01*
X5435Y2975D02*
X5444Y2975D01*
X65Y2974D02*
X74Y2974D01*
X5436Y2974D02*
X5445Y2974D01*
X65Y2973D02*
X73Y2973D01*
X5437Y2973D02*
X5445Y2973D01*
X64Y2972D02*
X73Y2972D01*
X5437Y2972D02*
X5446Y2972D01*
X64Y2971D02*
X72Y2971D01*
X5438Y2971D02*
X5446Y2971D01*
X63Y2970D02*
X71Y2970D01*
X5439Y2970D02*
X5447Y2970D01*
X62Y2969D02*
X71Y2969D01*
X5439Y2969D02*
X5448Y2969D01*
X62Y2968D02*
X70Y2968D01*
X5440Y2968D02*
X5448Y2968D01*
X61Y2967D02*
X69Y2967D01*
X5441Y2967D02*
X5449Y2967D01*
X60Y2966D02*
X69Y2966D01*
X5441Y2966D02*
X5450Y2966D01*
X60Y2965D02*
X68Y2965D01*
X5442Y2965D02*
X5450Y2965D01*
X59Y2964D02*
X68Y2964D01*
X5442Y2964D02*
X5451Y2964D01*
X59Y2963D02*
X67Y2963D01*
X5443Y2963D02*
X5451Y2963D01*
X58Y2962D02*
X66Y2962D01*
X5444Y2962D02*
X5452Y2962D01*
X57Y2961D02*
X66Y2961D01*
X5444Y2961D02*
X5453Y2961D01*
X57Y2960D02*
X65Y2960D01*
X5445Y2960D02*
X5453Y2960D01*
X56Y2959D02*
X64Y2959D01*
X5446Y2959D02*
X5454Y2959D01*
X56Y2958D02*
X64Y2958D01*
X5446Y2958D02*
X5454Y2958D01*
X55Y2957D02*
X63Y2957D01*
X5447Y2957D02*
X5455Y2957D01*
X54Y2956D02*
X63Y2956D01*
X5447Y2956D02*
X5456Y2956D01*
X54Y2955D02*
X62Y2955D01*
X5448Y2955D02*
X5456Y2955D01*
X53Y2954D02*
X61Y2954D01*
X5449Y2954D02*
X5457Y2954D01*
X53Y2953D02*
X61Y2953D01*
X5449Y2953D02*
X5457Y2953D01*
X52Y2952D02*
X60Y2952D01*
X5450Y2952D02*
X5458Y2952D01*
X52Y2951D02*
X60Y2951D01*
X5450Y2951D02*
X5458Y2951D01*
X51Y2950D02*
X59Y2950D01*
X5451Y2950D02*
X5459Y2950D01*
X50Y2949D02*
X59Y2949D01*
X5451Y2949D02*
X5460Y2949D01*
X50Y2948D02*
X58Y2948D01*
X5452Y2948D02*
X5460Y2948D01*
X49Y2947D02*
X57Y2947D01*
X5453Y2947D02*
X5461Y2947D01*
X49Y2946D02*
X57Y2946D01*
X5453Y2946D02*
X5461Y2946D01*
X48Y2945D02*
X56Y2945D01*
X5454Y2945D02*
X5462Y2945D01*
X48Y2944D02*
X56Y2944D01*
X5454Y2944D02*
X5462Y2944D01*
X47Y2943D02*
X55Y2943D01*
X5455Y2943D02*
X5463Y2943D01*
X47Y2942D02*
X55Y2942D01*
X5455Y2942D02*
X5463Y2942D01*
X46Y2941D02*
X54Y2941D01*
X5456Y2941D02*
X5464Y2941D01*
X46Y2940D02*
X53Y2940D01*
X5457Y2940D02*
X5464Y2940D01*
X45Y2939D02*
X53Y2939D01*
X5457Y2939D02*
X5465Y2939D01*
X45Y2938D02*
X52Y2938D01*
X5458Y2938D02*
X5465Y2938D01*
X44Y2937D02*
X52Y2937D01*
X5458Y2937D02*
X5466Y2937D01*
X44Y2936D02*
X51Y2936D01*
X5459Y2936D02*
X5466Y2936D01*
X43Y2935D02*
X51Y2935D01*
X5459Y2935D02*
X5467Y2935D01*
X43Y2934D02*
X50Y2934D01*
X5460Y2934D02*
X5467Y2934D01*
X42Y2933D02*
X50Y2933D01*
X5460Y2933D02*
X5468Y2933D01*
X42Y2932D02*
X49Y2932D01*
X5461Y2932D02*
X5468Y2932D01*
X41Y2931D02*
X49Y2931D01*
X5461Y2931D02*
X5469Y2931D01*
X41Y2930D02*
X48Y2930D01*
X5462Y2930D02*
X5469Y2930D01*
X40Y2929D02*
X48Y2929D01*
X5462Y2929D02*
X5470Y2929D01*
X40Y2928D02*
X47Y2928D01*
X5463Y2928D02*
X5470Y2928D01*
X39Y2927D02*
X47Y2927D01*
X5463Y2927D02*
X5471Y2927D01*
X39Y2926D02*
X46Y2926D01*
X5464Y2926D02*
X5471Y2926D01*
X38Y2925D02*
X46Y2925D01*
X5464Y2925D02*
X5472Y2925D01*
X38Y2924D02*
X45Y2924D01*
X5465Y2924D02*
X5472Y2924D01*
X37Y2923D02*
X45Y2923D01*
X5465Y2923D02*
X5473Y2923D01*
X37Y2922D02*
X44Y2922D01*
X5466Y2922D02*
X5473Y2922D01*
X36Y2921D02*
X44Y2921D01*
X5466Y2921D02*
X5474Y2921D01*
X36Y2920D02*
X43Y2920D01*
X5467Y2920D02*
X5474Y2920D01*
X35Y2919D02*
X43Y2919D01*
X5467Y2919D02*
X5475Y2919D01*
X35Y2918D02*
X43Y2918D01*
X5467Y2918D02*
X5475Y2918D01*
X35Y2917D02*
X42Y2917D01*
X5468Y2917D02*
X5475Y2917D01*
X34Y2916D02*
X42Y2916D01*
X5468Y2916D02*
X5476Y2916D01*
X34Y2915D02*
X41Y2915D01*
X5469Y2915D02*
X5476Y2915D01*
X33Y2914D02*
X41Y2914D01*
X5469Y2914D02*
X5477Y2914D01*
X33Y2913D02*
X40Y2913D01*
X5470Y2913D02*
X5477Y2913D01*
X32Y2912D02*
X40Y2912D01*
X5470Y2912D02*
X5478Y2912D01*
X32Y2911D02*
X39Y2911D01*
X5471Y2911D02*
X5478Y2911D01*
X31Y2910D02*
X39Y2910D01*
X5471Y2910D02*
X5479Y2910D01*
X31Y2909D02*
X39Y2909D01*
X5471Y2909D02*
X5479Y2909D01*
X31Y2908D02*
X38Y2908D01*
X5472Y2908D02*
X5479Y2908D01*
X30Y2907D02*
X38Y2907D01*
X5472Y2907D02*
X5480Y2907D01*
X30Y2906D02*
X37Y2906D01*
X5473Y2906D02*
X5480Y2906D01*
X29Y2905D02*
X37Y2905D01*
X5473Y2905D02*
X5481Y2905D01*
X29Y2904D02*
X36Y2904D01*
X5474Y2904D02*
X5481Y2904D01*
X29Y2903D02*
X36Y2903D01*
X5474Y2903D02*
X5481Y2903D01*
X28Y2902D02*
X36Y2902D01*
X5474Y2902D02*
X5482Y2902D01*
X28Y2901D02*
X35Y2901D01*
X5475Y2901D02*
X5482Y2901D01*
X27Y2900D02*
X35Y2900D01*
X5475Y2900D02*
X5483Y2900D01*
X27Y2899D02*
X35Y2899D01*
X5476Y2899D02*
X5483Y2899D01*
X27Y2898D02*
X34Y2898D01*
X5476Y2898D02*
X5483Y2898D01*
X26Y2897D02*
X34Y2897D01*
X5476Y2897D02*
X5484Y2897D01*
X26Y2896D02*
X33Y2896D01*
X5477Y2896D02*
X5484Y2896D01*
X26Y2895D02*
X33Y2895D01*
X5477Y2895D02*
X5484Y2895D01*
X25Y2894D02*
X33Y2894D01*
X5477Y2894D02*
X5485Y2894D01*
X25Y2893D02*
X32Y2893D01*
X5478Y2893D02*
X5485Y2893D01*
X24Y2892D02*
X32Y2892D01*
X5478Y2892D02*
X5486Y2892D01*
X24Y2891D02*
X31Y2891D01*
X5479Y2891D02*
X5486Y2891D01*
X24Y2890D02*
X31Y2890D01*
X5479Y2890D02*
X5486Y2890D01*
X23Y2889D02*
X31Y2889D01*
X5479Y2889D02*
X5487Y2889D01*
X23Y2888D02*
X30Y2888D01*
X5480Y2888D02*
X5487Y2888D01*
X23Y2887D02*
X30Y2887D01*
X5480Y2887D02*
X5487Y2887D01*
X22Y2886D02*
X30Y2886D01*
X5480Y2886D02*
X5488Y2886D01*
X22Y2885D02*
X29Y2885D01*
X5481Y2885D02*
X5488Y2885D01*
X22Y2884D02*
X29Y2884D01*
X5481Y2884D02*
X5488Y2884D01*
X21Y2883D02*
X29Y2883D01*
X5481Y2883D02*
X5489Y2883D01*
X21Y2882D02*
X28Y2882D01*
X5482Y2882D02*
X5489Y2882D01*
X21Y2881D02*
X28Y2881D01*
X5482Y2881D02*
X5489Y2881D01*
X20Y2880D02*
X28Y2880D01*
X5482Y2880D02*
X5490Y2880D01*
X20Y2879D02*
X27Y2879D01*
X5483Y2879D02*
X5490Y2879D01*
X20Y2878D02*
X27Y2878D01*
X5483Y2878D02*
X5490Y2878D01*
X19Y2877D02*
X27Y2877D01*
X5483Y2877D02*
X5491Y2877D01*
X19Y2876D02*
X26Y2876D01*
X5484Y2876D02*
X5491Y2876D01*
X19Y2875D02*
X26Y2875D01*
X5484Y2875D02*
X5491Y2875D01*
X18Y2874D02*
X26Y2874D01*
X5484Y2874D02*
X5492Y2874D01*
X18Y2873D02*
X25Y2873D01*
X5485Y2873D02*
X5492Y2873D01*
X18Y2872D02*
X25Y2872D01*
X5485Y2872D02*
X5492Y2872D01*
X17Y2871D02*
X25Y2871D01*
X5485Y2871D02*
X5493Y2871D01*
X17Y2870D02*
X24Y2870D01*
X5486Y2870D02*
X5493Y2870D01*
X17Y2869D02*
X24Y2869D01*
X5486Y2869D02*
X5493Y2869D01*
X16Y2868D02*
X24Y2868D01*
X5486Y2868D02*
X5494Y2868D01*
X16Y2867D02*
X23Y2867D01*
X5487Y2867D02*
X5494Y2867D01*
X16Y2866D02*
X23Y2866D01*
X5487Y2866D02*
X5494Y2866D01*
X16Y2865D02*
X23Y2865D01*
X5487Y2865D02*
X5494Y2865D01*
X15Y2864D02*
X22Y2864D01*
X5488Y2864D02*
X5495Y2864D01*
X15Y2863D02*
X22Y2863D01*
X5488Y2863D02*
X5495Y2863D01*
X15Y2862D02*
X22Y2862D01*
X5488Y2862D02*
X5495Y2862D01*
X14Y2861D02*
X22Y2861D01*
X5488Y2861D02*
X5496Y2861D01*
X14Y2860D02*
X21Y2860D01*
X5489Y2860D02*
X5496Y2860D01*
X14Y2859D02*
X21Y2859D01*
X5489Y2859D02*
X5496Y2859D01*
X14Y2858D02*
X21Y2858D01*
X5489Y2858D02*
X5496Y2858D01*
X13Y2857D02*
X21Y2857D01*
X5489Y2857D02*
X5497Y2857D01*
X13Y2856D02*
X20Y2856D01*
X5490Y2856D02*
X5497Y2856D01*
X13Y2855D02*
X20Y2855D01*
X5490Y2855D02*
X5497Y2855D01*
X13Y2854D02*
X20Y2854D01*
X5490Y2854D02*
X5497Y2854D01*
X12Y2853D02*
X19Y2853D01*
X5491Y2853D02*
X5498Y2853D01*
X12Y2852D02*
X19Y2852D01*
X5491Y2852D02*
X5498Y2852D01*
X12Y2851D02*
X19Y2851D01*
X5491Y2851D02*
X5498Y2851D01*
X12Y2850D02*
X19Y2850D01*
X5491Y2850D02*
X5498Y2850D01*
X11Y2849D02*
X18Y2849D01*
X5492Y2849D02*
X5499Y2849D01*
X11Y2848D02*
X18Y2848D01*
X5492Y2848D02*
X5499Y2848D01*
X11Y2847D02*
X18Y2847D01*
X5492Y2847D02*
X5499Y2847D01*
X11Y2846D02*
X18Y2846D01*
X5492Y2846D02*
X5499Y2846D01*
X10Y2845D02*
X18Y2845D01*
X5492Y2845D02*
X5500Y2845D01*
X10Y2844D02*
X17Y2844D01*
X5493Y2844D02*
X5500Y2844D01*
X10Y2843D02*
X17Y2843D01*
X5493Y2843D02*
X5500Y2843D01*
X10Y2842D02*
X17Y2842D01*
X5493Y2842D02*
X5500Y2842D01*
X9Y2841D02*
X17Y2841D01*
X5493Y2841D02*
X5501Y2841D01*
X9Y2840D02*
X16Y2840D01*
X5494Y2840D02*
X5501Y2840D01*
X9Y2839D02*
X16Y2839D01*
X5494Y2839D02*
X5501Y2839D01*
X9Y2838D02*
X16Y2838D01*
X5494Y2838D02*
X5501Y2838D01*
X9Y2837D02*
X16Y2837D01*
X5494Y2837D02*
X5501Y2837D01*
X8Y2836D02*
X16Y2836D01*
X5494Y2836D02*
X5502Y2836D01*
X8Y2835D02*
X15Y2835D01*
X5495Y2835D02*
X5502Y2835D01*
X8Y2834D02*
X15Y2834D01*
X5495Y2834D02*
X5502Y2834D01*
X8Y2833D02*
X15Y2833D01*
X5495Y2833D02*
X5502Y2833D01*
X8Y2832D02*
X15Y2832D01*
X5495Y2832D02*
X5502Y2832D01*
X7Y2831D02*
X14Y2831D01*
X5496Y2831D02*
X5503Y2831D01*
X7Y2830D02*
X14Y2830D01*
X5496Y2830D02*
X5503Y2830D01*
X7Y2829D02*
X14Y2829D01*
X5496Y2829D02*
X5503Y2829D01*
X7Y2828D02*
X14Y2828D01*
X5496Y2828D02*
X5503Y2828D01*
X7Y2827D02*
X14Y2827D01*
X5496Y2827D02*
X5503Y2827D01*
X6Y2826D02*
X14Y2826D01*
X5496Y2826D02*
X5504Y2826D01*
X6Y2825D02*
X13Y2825D01*
X5497Y2825D02*
X5504Y2825D01*
X6Y2824D02*
X13Y2824D01*
X5497Y2824D02*
X5504Y2824D01*
X6Y2823D02*
X13Y2823D01*
X5497Y2823D02*
X5504Y2823D01*
X6Y2822D02*
X13Y2822D01*
X5497Y2822D02*
X5504Y2822D01*
X6Y2821D02*
X13Y2821D01*
X5497Y2821D02*
X5504Y2821D01*
X5Y2820D02*
X12Y2820D01*
X5498Y2820D02*
X5505Y2820D01*
X5Y2819D02*
X12Y2819D01*
X5498Y2819D02*
X5505Y2819D01*
X5Y2818D02*
X12Y2818D01*
X5498Y2818D02*
X5505Y2818D01*
X5Y2817D02*
X12Y2817D01*
X5498Y2817D02*
X5505Y2817D01*
X5Y2816D02*
X12Y2816D01*
X5498Y2816D02*
X5505Y2816D01*
X5Y2815D02*
X12Y2815D01*
X5498Y2815D02*
X5505Y2815D01*
X4Y2814D02*
X12Y2814D01*
X5498Y2814D02*
X5506Y2814D01*
X4Y2813D02*
X11Y2813D01*
X5499Y2813D02*
X5506Y2813D01*
X4Y2812D02*
X11Y2812D01*
X5499Y2812D02*
X5506Y2812D01*
X4Y2811D02*
X11Y2811D01*
X5499Y2811D02*
X5506Y2811D01*
X4Y2810D02*
X11Y2810D01*
X5499Y2810D02*
X5506Y2810D01*
X4Y2809D02*
X11Y2809D01*
X5499Y2809D02*
X5506Y2809D01*
X4Y2808D02*
X11Y2808D01*
X5499Y2808D02*
X5506Y2808D01*
X4Y2807D02*
X11Y2807D01*
X5499Y2807D02*
X5507Y2807D01*
X3Y2806D02*
X10Y2806D01*
X5500Y2806D02*
X5507Y2806D01*
X3Y2805D02*
X10Y2805D01*
X5500Y2805D02*
X5507Y2805D01*
X3Y2804D02*
X10Y2804D01*
X5500Y2804D02*
X5507Y2804D01*
X3Y2803D02*
X10Y2803D01*
X5500Y2803D02*
X5507Y2803D01*
X3Y2802D02*
X10Y2802D01*
X5500Y2802D02*
X5507Y2802D01*
X3Y2801D02*
X10Y2801D01*
X5500Y2801D02*
X5507Y2801D01*
X3Y2800D02*
X10Y2800D01*
X5500Y2800D02*
X5507Y2800D01*
X3Y2799D02*
X10Y2799D01*
X5500Y2799D02*
X5507Y2799D01*
X2Y2798D02*
X9Y2798D01*
X5501Y2798D02*
X5508Y2798D01*
X2Y2797D02*
X9Y2797D01*
X5501Y2797D02*
X5508Y2797D01*
X2Y2796D02*
X9Y2796D01*
X5501Y2796D02*
X5508Y2796D01*
X2Y2795D02*
X9Y2795D01*
X5501Y2795D02*
X5508Y2795D01*
X2Y2794D02*
X9Y2794D01*
X5501Y2794D02*
X5508Y2794D01*
X2Y2793D02*
X9Y2793D01*
X5501Y2793D02*
X5508Y2793D01*
X2Y2792D02*
X9Y2792D01*
X5501Y2792D02*
X5508Y2792D01*
X2Y2791D02*
X9Y2791D01*
X5501Y2791D02*
X5508Y2791D01*
X2Y2790D02*
X9Y2790D01*
X5501Y2790D02*
X5508Y2790D01*
X2Y2789D02*
X9Y2789D01*
X5501Y2789D02*
X5508Y2789D01*
X1Y2788D02*
X8Y2788D01*
X5502Y2788D02*
X5509Y2788D01*
X1Y2787D02*
X8Y2787D01*
X5502Y2787D02*
X5509Y2787D01*
X1Y2786D02*
X8Y2786D01*
X5502Y2786D02*
X5509Y2786D01*
X1Y2785D02*
X8Y2785D01*
X5502Y2785D02*
X5509Y2785D01*
X1Y2784D02*
X8Y2784D01*
X5502Y2784D02*
X5509Y2784D01*
X1Y2783D02*
X8Y2783D01*
X5502Y2783D02*
X5509Y2783D01*
X1Y2782D02*
X8Y2782D01*
X5502Y2782D02*
X5509Y2782D01*
X1Y2781D02*
X8Y2781D01*
X5502Y2781D02*
X5509Y2781D01*
X1Y2780D02*
X8Y2780D01*
X5502Y2780D02*
X5509Y2780D01*
X1Y2779D02*
X8Y2779D01*
X5502Y2779D02*
X5509Y2779D01*
X1Y2778D02*
X8Y2778D01*
X5502Y2778D02*
X5509Y2778D01*
X1Y2777D02*
X8Y2777D01*
X5502Y2777D02*
X5509Y2777D01*
X1Y2776D02*
X8Y2776D01*
X5502Y2776D02*
X5509Y2776D01*
X1Y2775D02*
X8Y2775D01*
X5502Y2775D02*
X5509Y2775D01*
X1Y2774D02*
X8Y2774D01*
X5503Y2774D02*
X5510Y2774D01*
X0Y2773D02*
X7Y2773D01*
X5503Y2773D02*
X5510Y2773D01*
X0Y2772D02*
X7Y2772D01*
X5503Y2772D02*
X5510Y2772D01*
X0Y2771D02*
X7Y2771D01*
X5503Y2771D02*
X5510Y2771D01*
X0Y2770D02*
X7Y2770D01*
X5503Y2770D02*
X5510Y2770D01*
X0Y2769D02*
X7Y2769D01*
X5503Y2769D02*
X5510Y2769D01*
X0Y2768D02*
X7Y2768D01*
X5503Y2768D02*
X5510Y2768D01*
X0Y2767D02*
X7Y2767D01*
X5503Y2767D02*
X5510Y2767D01*
X0Y2766D02*
X7Y2766D01*
X5503Y2766D02*
X5510Y2766D01*
X0Y2765D02*
X7Y2765D01*
X5503Y2765D02*
X5510Y2765D01*
X0Y2764D02*
X7Y2764D01*
X5503Y2764D02*
X5510Y2764D01*
X0Y2763D02*
X7Y2763D01*
X5503Y2763D02*
X5510Y2763D01*
X0Y2762D02*
X7Y2762D01*
X5503Y2762D02*
X5510Y2762D01*
X0Y2761D02*
X7Y2761D01*
X5503Y2761D02*
X5510Y2761D01*
X0Y2760D02*
X7Y2760D01*
X5503Y2760D02*
X5510Y2760D01*
X0Y2759D02*
X7Y2759D01*
X5503Y2759D02*
X5510Y2759D01*
X0Y2758D02*
X7Y2758D01*
X5503Y2758D02*
X5510Y2758D01*
X0Y2757D02*
X7Y2757D01*
X5503Y2757D02*
X5510Y2757D01*
X0Y2756D02*
X7Y2756D01*
X5503Y2756D02*
X5510Y2756D01*
X0Y2755D02*
X7Y2755D01*
X5503Y2755D02*
X5510Y2755D01*
X0Y2754D02*
X7Y2754D01*
X5503Y2754D02*
X5510Y2754D01*
X0Y2753D02*
X7Y2753D01*
X5503Y2753D02*
X5510Y2753D01*
X0Y2752D02*
X7Y2752D01*
X5503Y2752D02*
X5510Y2752D01*
X0Y2751D02*
X7Y2751D01*
X5503Y2751D02*
X5510Y2751D01*
X0Y2750D02*
X7Y2750D01*
X5503Y2750D02*
X5510Y2750D01*
X0Y2749D02*
X7Y2749D01*
X5503Y2749D02*
X5510Y2749D01*
X0Y2748D02*
X7Y2748D01*
X5503Y2748D02*
X5510Y2748D01*
X0Y2747D02*
X7Y2747D01*
X5503Y2747D02*
X5510Y2747D01*
X0Y2746D02*
X7Y2746D01*
X5503Y2746D02*
X5510Y2746D01*
X0Y2745D02*
X7Y2745D01*
X5503Y2745D02*
X5510Y2745D01*
X0Y2744D02*
X7Y2744D01*
X5503Y2744D02*
X5510Y2744D01*
X0Y2743D02*
X7Y2743D01*
X5503Y2743D02*
X5510Y2743D01*
X0Y2742D02*
X7Y2742D01*
X5503Y2742D02*
X5510Y2742D01*
X0Y2741D02*
X7Y2741D01*
X5503Y2741D02*
X5510Y2741D01*
X0Y2740D02*
X7Y2740D01*
X5503Y2740D02*
X5510Y2740D01*
X0Y2739D02*
X7Y2739D01*
X5503Y2739D02*
X5510Y2739D01*
X0Y2738D02*
X7Y2738D01*
X5503Y2738D02*
X5510Y2738D01*
X0Y2737D02*
X7Y2737D01*
X5503Y2737D02*
X5510Y2737D01*
X0Y2736D02*
X7Y2736D01*
X5503Y2736D02*
X5510Y2736D01*
X0Y2735D02*
X7Y2735D01*
X5503Y2735D02*
X5510Y2735D01*
X0Y2734D02*
X7Y2734D01*
X5503Y2734D02*
X5510Y2734D01*
X0Y2733D02*
X7Y2733D01*
X5503Y2733D02*
X5510Y2733D01*
X0Y2732D02*
X7Y2732D01*
X5503Y2732D02*
X5510Y2732D01*
X0Y2731D02*
X7Y2731D01*
X5503Y2731D02*
X5510Y2731D01*
X0Y2730D02*
X7Y2730D01*
X5503Y2730D02*
X5510Y2730D01*
X0Y2729D02*
X7Y2729D01*
X5503Y2729D02*
X5510Y2729D01*
X0Y2728D02*
X7Y2728D01*
X5503Y2728D02*
X5510Y2728D01*
X0Y2727D02*
X7Y2727D01*
X5503Y2727D02*
X5510Y2727D01*
X0Y2726D02*
X7Y2726D01*
X5503Y2726D02*
X5510Y2726D01*
X0Y2725D02*
X7Y2725D01*
X5503Y2725D02*
X5510Y2725D01*
X0Y2724D02*
X7Y2724D01*
X5503Y2724D02*
X5510Y2724D01*
X0Y2723D02*
X7Y2723D01*
X5503Y2723D02*
X5510Y2723D01*
X0Y2722D02*
X7Y2722D01*
X5503Y2722D02*
X5510Y2722D01*
X0Y2721D02*
X7Y2721D01*
X5503Y2721D02*
X5510Y2721D01*
X0Y2720D02*
X7Y2720D01*
X5503Y2720D02*
X5510Y2720D01*
X0Y2719D02*
X7Y2719D01*
X5503Y2719D02*
X5510Y2719D01*
X0Y2718D02*
X7Y2718D01*
X5503Y2718D02*
X5510Y2718D01*
X0Y2717D02*
X7Y2717D01*
X5503Y2717D02*
X5510Y2717D01*
X0Y2716D02*
X7Y2716D01*
X5503Y2716D02*
X5510Y2716D01*
X0Y2715D02*
X7Y2715D01*
X5503Y2715D02*
X5510Y2715D01*
X0Y2714D02*
X7Y2714D01*
X5503Y2714D02*
X5510Y2714D01*
X0Y2713D02*
X7Y2713D01*
X5503Y2713D02*
X5510Y2713D01*
X0Y2712D02*
X7Y2712D01*
X5503Y2712D02*
X5510Y2712D01*
X0Y2711D02*
X7Y2711D01*
X5503Y2711D02*
X5510Y2711D01*
X0Y2710D02*
X7Y2710D01*
X5503Y2710D02*
X5510Y2710D01*
X0Y2709D02*
X7Y2709D01*
X5503Y2709D02*
X5510Y2709D01*
X0Y2708D02*
X7Y2708D01*
X5503Y2708D02*
X5510Y2708D01*
X0Y2707D02*
X7Y2707D01*
X5503Y2707D02*
X5510Y2707D01*
X0Y2706D02*
X7Y2706D01*
X5503Y2706D02*
X5510Y2706D01*
X0Y2705D02*
X7Y2705D01*
X5503Y2705D02*
X5510Y2705D01*
X0Y2704D02*
X7Y2704D01*
X5503Y2704D02*
X5510Y2704D01*
X0Y2703D02*
X7Y2703D01*
X5503Y2703D02*
X5510Y2703D01*
X0Y2702D02*
X7Y2702D01*
X5503Y2702D02*
X5510Y2702D01*
X0Y2701D02*
X7Y2701D01*
X5503Y2701D02*
X5510Y2701D01*
X0Y2700D02*
X7Y2700D01*
X5503Y2700D02*
X5510Y2700D01*
X0Y2699D02*
X7Y2699D01*
X5503Y2699D02*
X5510Y2699D01*
X0Y2698D02*
X7Y2698D01*
X5503Y2698D02*
X5510Y2698D01*
X0Y2697D02*
X7Y2697D01*
X5503Y2697D02*
X5510Y2697D01*
X0Y2696D02*
X7Y2696D01*
X5503Y2696D02*
X5510Y2696D01*
X0Y2695D02*
X7Y2695D01*
X5503Y2695D02*
X5510Y2695D01*
X0Y2694D02*
X7Y2694D01*
X5503Y2694D02*
X5510Y2694D01*
X0Y2693D02*
X7Y2693D01*
X5503Y2693D02*
X5510Y2693D01*
X0Y2692D02*
X7Y2692D01*
X5503Y2692D02*
X5510Y2692D01*
X0Y2691D02*
X7Y2691D01*
X5503Y2691D02*
X5510Y2691D01*
X0Y2690D02*
X7Y2690D01*
X5503Y2690D02*
X5510Y2690D01*
X0Y2689D02*
X7Y2689D01*
X5503Y2689D02*
X5510Y2689D01*
X0Y2688D02*
X7Y2688D01*
X5503Y2688D02*
X5510Y2688D01*
X0Y2687D02*
X7Y2687D01*
X5503Y2687D02*
X5510Y2687D01*
X0Y2686D02*
X7Y2686D01*
X5503Y2686D02*
X5510Y2686D01*
X0Y2685D02*
X7Y2685D01*
X5503Y2685D02*
X5510Y2685D01*
X0Y2684D02*
X7Y2684D01*
X5503Y2684D02*
X5510Y2684D01*
X0Y2683D02*
X7Y2683D01*
X5503Y2683D02*
X5510Y2683D01*
X0Y2682D02*
X7Y2682D01*
X5503Y2682D02*
X5510Y2682D01*
X0Y2681D02*
X7Y2681D01*
X5503Y2681D02*
X5510Y2681D01*
X0Y2680D02*
X7Y2680D01*
X5503Y2680D02*
X5510Y2680D01*
X0Y2679D02*
X7Y2679D01*
X5503Y2679D02*
X5510Y2679D01*
X0Y2678D02*
X7Y2678D01*
X5503Y2678D02*
X5510Y2678D01*
X0Y2677D02*
X7Y2677D01*
X5503Y2677D02*
X5510Y2677D01*
X0Y2676D02*
X7Y2676D01*
X5503Y2676D02*
X5510Y2676D01*
X0Y2675D02*
X7Y2675D01*
X5503Y2675D02*
X5510Y2675D01*
X0Y2674D02*
X7Y2674D01*
X5503Y2674D02*
X5510Y2674D01*
X0Y2673D02*
X7Y2673D01*
X5503Y2673D02*
X5510Y2673D01*
X0Y2672D02*
X7Y2672D01*
X5503Y2672D02*
X5510Y2672D01*
X0Y2671D02*
X7Y2671D01*
X5503Y2671D02*
X5510Y2671D01*
X0Y2670D02*
X7Y2670D01*
X5503Y2670D02*
X5510Y2670D01*
X0Y2669D02*
X7Y2669D01*
X5503Y2669D02*
X5510Y2669D01*
X0Y2668D02*
X7Y2668D01*
X5503Y2668D02*
X5510Y2668D01*
X0Y2667D02*
X7Y2667D01*
X5503Y2667D02*
X5510Y2667D01*
X0Y2666D02*
X7Y2666D01*
X5503Y2666D02*
X5510Y2666D01*
X0Y2665D02*
X7Y2665D01*
X5503Y2665D02*
X5510Y2665D01*
X0Y2664D02*
X7Y2664D01*
X5503Y2664D02*
X5510Y2664D01*
X0Y2663D02*
X7Y2663D01*
X5503Y2663D02*
X5510Y2663D01*
X0Y2662D02*
X7Y2662D01*
X5503Y2662D02*
X5510Y2662D01*
X0Y2661D02*
X7Y2661D01*
X5503Y2661D02*
X5510Y2661D01*
X0Y2660D02*
X7Y2660D01*
X5503Y2660D02*
X5510Y2660D01*
X0Y2659D02*
X7Y2659D01*
X5503Y2659D02*
X5510Y2659D01*
X0Y2658D02*
X7Y2658D01*
X5503Y2658D02*
X5510Y2658D01*
X0Y2657D02*
X7Y2657D01*
X5503Y2657D02*
X5510Y2657D01*
X0Y2656D02*
X7Y2656D01*
X5503Y2656D02*
X5510Y2656D01*
X0Y2655D02*
X7Y2655D01*
X5503Y2655D02*
X5510Y2655D01*
X0Y2654D02*
X7Y2654D01*
X5503Y2654D02*
X5510Y2654D01*
X0Y2653D02*
X7Y2653D01*
X5503Y2653D02*
X5510Y2653D01*
X0Y2652D02*
X7Y2652D01*
X5503Y2652D02*
X5510Y2652D01*
X0Y2651D02*
X7Y2651D01*
X5503Y2651D02*
X5510Y2651D01*
X0Y2650D02*
X7Y2650D01*
X5503Y2650D02*
X5510Y2650D01*
X0Y2649D02*
X7Y2649D01*
X5503Y2649D02*
X5510Y2649D01*
X0Y2648D02*
X7Y2648D01*
X5503Y2648D02*
X5510Y2648D01*
X0Y2647D02*
X7Y2647D01*
X5503Y2647D02*
X5510Y2647D01*
X0Y2646D02*
X7Y2646D01*
X5503Y2646D02*
X5510Y2646D01*
X0Y2645D02*
X7Y2645D01*
X5503Y2645D02*
X5510Y2645D01*
X0Y2644D02*
X7Y2644D01*
X5503Y2644D02*
X5510Y2644D01*
X0Y2643D02*
X7Y2643D01*
X5503Y2643D02*
X5510Y2643D01*
X0Y2642D02*
X7Y2642D01*
X5503Y2642D02*
X5510Y2642D01*
X0Y2641D02*
X7Y2641D01*
X5503Y2641D02*
X5510Y2641D01*
X0Y2640D02*
X7Y2640D01*
X5503Y2640D02*
X5510Y2640D01*
X0Y2639D02*
X7Y2639D01*
X5503Y2639D02*
X5510Y2639D01*
X0Y2638D02*
X7Y2638D01*
X5503Y2638D02*
X5510Y2638D01*
X0Y2637D02*
X7Y2637D01*
X5503Y2637D02*
X5510Y2637D01*
X0Y2636D02*
X7Y2636D01*
X5503Y2636D02*
X5510Y2636D01*
X0Y2635D02*
X7Y2635D01*
X5503Y2635D02*
X5510Y2635D01*
X0Y2634D02*
X7Y2634D01*
X5503Y2634D02*
X5510Y2634D01*
X0Y2633D02*
X7Y2633D01*
X5503Y2633D02*
X5510Y2633D01*
X0Y2632D02*
X7Y2632D01*
X5503Y2632D02*
X5510Y2632D01*
X0Y2631D02*
X7Y2631D01*
X5503Y2631D02*
X5510Y2631D01*
X0Y2630D02*
X7Y2630D01*
X5503Y2630D02*
X5510Y2630D01*
X0Y2629D02*
X7Y2629D01*
X5503Y2629D02*
X5510Y2629D01*
X0Y2628D02*
X7Y2628D01*
X5503Y2628D02*
X5510Y2628D01*
X0Y2627D02*
X7Y2627D01*
X5503Y2627D02*
X5510Y2627D01*
X0Y2626D02*
X7Y2626D01*
X5503Y2626D02*
X5510Y2626D01*
X0Y2625D02*
X7Y2625D01*
X5503Y2625D02*
X5510Y2625D01*
X0Y2624D02*
X7Y2624D01*
X5503Y2624D02*
X5510Y2624D01*
X0Y2623D02*
X7Y2623D01*
X5503Y2623D02*
X5510Y2623D01*
X0Y2622D02*
X7Y2622D01*
X5503Y2622D02*
X5510Y2622D01*
X0Y2621D02*
X7Y2621D01*
X5503Y2621D02*
X5510Y2621D01*
X0Y2620D02*
X7Y2620D01*
X5503Y2620D02*
X5510Y2620D01*
X0Y2619D02*
X7Y2619D01*
X5503Y2619D02*
X5510Y2619D01*
X0Y2618D02*
X7Y2618D01*
X5503Y2618D02*
X5510Y2618D01*
X0Y2617D02*
X7Y2617D01*
X5503Y2617D02*
X5510Y2617D01*
X0Y2616D02*
X7Y2616D01*
X5503Y2616D02*
X5510Y2616D01*
X0Y2615D02*
X7Y2615D01*
X5503Y2615D02*
X5510Y2615D01*
X0Y2614D02*
X7Y2614D01*
X5503Y2614D02*
X5510Y2614D01*
X0Y2613D02*
X7Y2613D01*
X5503Y2613D02*
X5510Y2613D01*
X0Y2612D02*
X7Y2612D01*
X5503Y2612D02*
X5510Y2612D01*
X0Y2611D02*
X7Y2611D01*
X5503Y2611D02*
X5510Y2611D01*
X0Y2610D02*
X7Y2610D01*
X5503Y2610D02*
X5510Y2610D01*
X0Y2609D02*
X7Y2609D01*
X5503Y2609D02*
X5510Y2609D01*
X0Y2608D02*
X7Y2608D01*
X5503Y2608D02*
X5510Y2608D01*
X0Y2607D02*
X7Y2607D01*
X5503Y2607D02*
X5510Y2607D01*
X0Y2606D02*
X7Y2606D01*
X5503Y2606D02*
X5510Y2606D01*
X0Y2605D02*
X7Y2605D01*
X5503Y2605D02*
X5510Y2605D01*
X0Y2604D02*
X7Y2604D01*
X5503Y2604D02*
X5510Y2604D01*
X0Y2603D02*
X7Y2603D01*
X5503Y2603D02*
X5510Y2603D01*
X0Y2602D02*
X7Y2602D01*
X5503Y2602D02*
X5510Y2602D01*
X0Y2601D02*
X7Y2601D01*
X5503Y2601D02*
X5510Y2601D01*
X0Y2600D02*
X7Y2600D01*
X5503Y2600D02*
X5510Y2600D01*
X0Y2599D02*
X7Y2599D01*
X5503Y2599D02*
X5510Y2599D01*
X0Y2598D02*
X7Y2598D01*
X5503Y2598D02*
X5510Y2598D01*
X0Y2597D02*
X7Y2597D01*
X5503Y2597D02*
X5510Y2597D01*
X0Y2596D02*
X7Y2596D01*
X5503Y2596D02*
X5510Y2596D01*
X0Y2595D02*
X7Y2595D01*
X5503Y2595D02*
X5510Y2595D01*
X0Y2594D02*
X7Y2594D01*
X5503Y2594D02*
X5510Y2594D01*
X0Y2593D02*
X7Y2593D01*
X5503Y2593D02*
X5510Y2593D01*
X0Y2592D02*
X7Y2592D01*
X5503Y2592D02*
X5510Y2592D01*
X0Y2591D02*
X7Y2591D01*
X5503Y2591D02*
X5510Y2591D01*
X0Y2590D02*
X7Y2590D01*
X5503Y2590D02*
X5510Y2590D01*
X0Y2589D02*
X7Y2589D01*
X5503Y2589D02*
X5510Y2589D01*
X0Y2588D02*
X7Y2588D01*
X5503Y2588D02*
X5510Y2588D01*
X0Y2587D02*
X7Y2587D01*
X5503Y2587D02*
X5510Y2587D01*
X0Y2586D02*
X7Y2586D01*
X5503Y2586D02*
X5510Y2586D01*
X0Y2585D02*
X7Y2585D01*
X5503Y2585D02*
X5510Y2585D01*
X0Y2584D02*
X7Y2584D01*
X5503Y2584D02*
X5510Y2584D01*
X0Y2583D02*
X7Y2583D01*
X5503Y2583D02*
X5510Y2583D01*
X0Y2582D02*
X7Y2582D01*
X5503Y2582D02*
X5510Y2582D01*
X0Y2581D02*
X7Y2581D01*
X5503Y2581D02*
X5510Y2581D01*
X0Y2580D02*
X7Y2580D01*
X5503Y2580D02*
X5510Y2580D01*
X0Y2579D02*
X7Y2579D01*
X5503Y2579D02*
X5510Y2579D01*
X0Y2578D02*
X7Y2578D01*
X5503Y2578D02*
X5510Y2578D01*
X0Y2577D02*
X7Y2577D01*
X5503Y2577D02*
X5510Y2577D01*
X0Y2576D02*
X7Y2576D01*
X5503Y2576D02*
X5510Y2576D01*
X0Y2575D02*
X7Y2575D01*
X5503Y2575D02*
X5510Y2575D01*
X0Y2574D02*
X7Y2574D01*
X5503Y2574D02*
X5510Y2574D01*
X0Y2573D02*
X7Y2573D01*
X5503Y2573D02*
X5510Y2573D01*
X0Y2572D02*
X7Y2572D01*
X5503Y2572D02*
X5510Y2572D01*
X0Y2571D02*
X7Y2571D01*
X5503Y2571D02*
X5510Y2571D01*
X0Y2570D02*
X7Y2570D01*
X5503Y2570D02*
X5510Y2570D01*
X0Y2569D02*
X7Y2569D01*
X5503Y2569D02*
X5510Y2569D01*
X0Y2568D02*
X7Y2568D01*
X5503Y2568D02*
X5510Y2568D01*
X0Y2567D02*
X7Y2567D01*
X5503Y2567D02*
X5510Y2567D01*
X0Y2566D02*
X7Y2566D01*
X5503Y2566D02*
X5510Y2566D01*
X0Y2565D02*
X7Y2565D01*
X5503Y2565D02*
X5510Y2565D01*
X0Y2564D02*
X7Y2564D01*
X5503Y2564D02*
X5510Y2564D01*
X0Y2563D02*
X7Y2563D01*
X5503Y2563D02*
X5510Y2563D01*
X0Y2562D02*
X7Y2562D01*
X5503Y2562D02*
X5510Y2562D01*
X0Y2561D02*
X7Y2561D01*
X5503Y2561D02*
X5510Y2561D01*
X0Y2560D02*
X7Y2560D01*
X5503Y2560D02*
X5510Y2560D01*
X0Y2559D02*
X7Y2559D01*
X5503Y2559D02*
X5510Y2559D01*
X0Y2558D02*
X7Y2558D01*
X5503Y2558D02*
X5510Y2558D01*
X0Y2557D02*
X7Y2557D01*
X5503Y2557D02*
X5510Y2557D01*
X0Y2556D02*
X7Y2556D01*
X5503Y2556D02*
X5510Y2556D01*
X0Y2555D02*
X7Y2555D01*
X5503Y2555D02*
X5510Y2555D01*
X0Y2554D02*
X7Y2554D01*
X5503Y2554D02*
X5510Y2554D01*
X0Y2553D02*
X7Y2553D01*
X5503Y2553D02*
X5510Y2553D01*
X0Y2552D02*
X7Y2552D01*
X5503Y2552D02*
X5510Y2552D01*
X0Y2551D02*
X7Y2551D01*
X5503Y2551D02*
X5510Y2551D01*
X0Y2550D02*
X7Y2550D01*
X5503Y2550D02*
X5510Y2550D01*
X0Y2549D02*
X7Y2549D01*
X5503Y2549D02*
X5510Y2549D01*
X0Y2548D02*
X7Y2548D01*
X5503Y2548D02*
X5510Y2548D01*
X0Y2547D02*
X7Y2547D01*
X5503Y2547D02*
X5510Y2547D01*
X0Y2546D02*
X7Y2546D01*
X5503Y2546D02*
X5510Y2546D01*
X0Y2545D02*
X7Y2545D01*
X5503Y2545D02*
X5510Y2545D01*
X0Y2544D02*
X7Y2544D01*
X5503Y2544D02*
X5510Y2544D01*
X0Y2543D02*
X7Y2543D01*
X5503Y2543D02*
X5510Y2543D01*
X0Y2542D02*
X7Y2542D01*
X5503Y2542D02*
X5510Y2542D01*
X0Y2541D02*
X7Y2541D01*
X5503Y2541D02*
X5510Y2541D01*
X0Y2540D02*
X7Y2540D01*
X5503Y2540D02*
X5510Y2540D01*
X0Y2539D02*
X7Y2539D01*
X5503Y2539D02*
X5510Y2539D01*
X0Y2538D02*
X7Y2538D01*
X5503Y2538D02*
X5510Y2538D01*
X0Y2537D02*
X7Y2537D01*
X5503Y2537D02*
X5510Y2537D01*
X0Y2536D02*
X7Y2536D01*
X5503Y2536D02*
X5510Y2536D01*
X0Y2535D02*
X7Y2535D01*
X5503Y2535D02*
X5510Y2535D01*
X0Y2534D02*
X7Y2534D01*
X5503Y2534D02*
X5510Y2534D01*
X0Y2533D02*
X7Y2533D01*
X5503Y2533D02*
X5510Y2533D01*
X0Y2532D02*
X7Y2532D01*
X5503Y2532D02*
X5510Y2532D01*
X0Y2531D02*
X7Y2531D01*
X5503Y2531D02*
X5510Y2531D01*
X0Y2530D02*
X7Y2530D01*
X5503Y2530D02*
X5510Y2530D01*
X0Y2529D02*
X7Y2529D01*
X5503Y2529D02*
X5510Y2529D01*
X0Y2528D02*
X7Y2528D01*
X5503Y2528D02*
X5510Y2528D01*
X0Y2527D02*
X7Y2527D01*
X5503Y2527D02*
X5510Y2527D01*
X0Y2526D02*
X7Y2526D01*
X5503Y2526D02*
X5510Y2526D01*
X0Y2525D02*
X7Y2525D01*
X5503Y2525D02*
X5510Y2525D01*
X0Y2524D02*
X7Y2524D01*
X5503Y2524D02*
X5510Y2524D01*
X0Y2523D02*
X7Y2523D01*
X5503Y2523D02*
X5510Y2523D01*
X0Y2522D02*
X7Y2522D01*
X5503Y2522D02*
X5510Y2522D01*
X0Y2521D02*
X7Y2521D01*
X5503Y2521D02*
X5510Y2521D01*
X0Y2520D02*
X7Y2520D01*
X5503Y2520D02*
X5510Y2520D01*
X0Y2519D02*
X7Y2519D01*
X5503Y2519D02*
X5510Y2519D01*
X0Y2518D02*
X7Y2518D01*
X5503Y2518D02*
X5510Y2518D01*
X0Y2517D02*
X7Y2517D01*
X5503Y2517D02*
X5510Y2517D01*
X0Y2516D02*
X7Y2516D01*
X5503Y2516D02*
X5510Y2516D01*
X0Y2515D02*
X7Y2515D01*
X5503Y2515D02*
X5510Y2515D01*
X0Y2514D02*
X7Y2514D01*
X5503Y2514D02*
X5510Y2514D01*
X0Y2513D02*
X7Y2513D01*
X5503Y2513D02*
X5510Y2513D01*
X0Y2512D02*
X7Y2512D01*
X5503Y2512D02*
X5510Y2512D01*
X0Y2511D02*
X7Y2511D01*
X5503Y2511D02*
X5510Y2511D01*
X0Y2510D02*
X7Y2510D01*
X5503Y2510D02*
X5510Y2510D01*
X0Y2509D02*
X7Y2509D01*
X5503Y2509D02*
X5510Y2509D01*
X0Y2508D02*
X7Y2508D01*
X5503Y2508D02*
X5510Y2508D01*
X0Y2507D02*
X7Y2507D01*
X5503Y2507D02*
X5510Y2507D01*
X0Y2506D02*
X7Y2506D01*
X5503Y2506D02*
X5510Y2506D01*
X0Y2505D02*
X7Y2505D01*
X5503Y2505D02*
X5510Y2505D01*
X0Y2504D02*
X7Y2504D01*
X5503Y2504D02*
X5510Y2504D01*
X0Y2503D02*
X7Y2503D01*
X5503Y2503D02*
X5510Y2503D01*
X0Y2502D02*
X7Y2502D01*
X5503Y2502D02*
X5510Y2502D01*
X0Y2501D02*
X7Y2501D01*
X5503Y2501D02*
X5510Y2501D01*
X0Y2500D02*
X7Y2500D01*
X5503Y2500D02*
X5510Y2500D01*
X0Y2499D02*
X7Y2499D01*
X5503Y2499D02*
X5510Y2499D01*
X0Y2498D02*
X7Y2498D01*
X5503Y2498D02*
X5510Y2498D01*
X0Y2497D02*
X7Y2497D01*
X5503Y2497D02*
X5510Y2497D01*
X0Y2496D02*
X7Y2496D01*
X5503Y2496D02*
X5510Y2496D01*
X0Y2495D02*
X7Y2495D01*
X5503Y2495D02*
X5510Y2495D01*
X0Y2494D02*
X7Y2494D01*
X5503Y2494D02*
X5510Y2494D01*
X0Y2493D02*
X7Y2493D01*
X5503Y2493D02*
X5510Y2493D01*
X0Y2492D02*
X7Y2492D01*
X5503Y2492D02*
X5510Y2492D01*
X0Y2491D02*
X7Y2491D01*
X5503Y2491D02*
X5510Y2491D01*
X0Y2490D02*
X7Y2490D01*
X5503Y2490D02*
X5510Y2490D01*
X0Y2489D02*
X7Y2489D01*
X5503Y2489D02*
X5510Y2489D01*
X0Y2488D02*
X7Y2488D01*
X5503Y2488D02*
X5510Y2488D01*
X0Y2487D02*
X7Y2487D01*
X5503Y2487D02*
X5510Y2487D01*
X0Y2486D02*
X7Y2486D01*
X5503Y2486D02*
X5510Y2486D01*
X0Y2485D02*
X7Y2485D01*
X5503Y2485D02*
X5510Y2485D01*
X0Y2484D02*
X7Y2484D01*
X5503Y2484D02*
X5510Y2484D01*
X0Y2483D02*
X7Y2483D01*
X5503Y2483D02*
X5510Y2483D01*
X0Y2482D02*
X7Y2482D01*
X5503Y2482D02*
X5510Y2482D01*
X0Y2481D02*
X7Y2481D01*
X5503Y2481D02*
X5510Y2481D01*
X0Y2480D02*
X7Y2480D01*
X5503Y2480D02*
X5510Y2480D01*
X0Y2479D02*
X7Y2479D01*
X5503Y2479D02*
X5510Y2479D01*
X0Y2478D02*
X7Y2478D01*
X5503Y2478D02*
X5510Y2478D01*
X0Y2477D02*
X7Y2477D01*
X5503Y2477D02*
X5510Y2477D01*
X0Y2476D02*
X7Y2476D01*
X5503Y2476D02*
X5510Y2476D01*
X0Y2475D02*
X7Y2475D01*
X5503Y2475D02*
X5510Y2475D01*
X0Y2474D02*
X7Y2474D01*
X5503Y2474D02*
X5510Y2474D01*
X0Y2473D02*
X7Y2473D01*
X5503Y2473D02*
X5510Y2473D01*
X0Y2472D02*
X7Y2472D01*
X5503Y2472D02*
X5510Y2472D01*
X0Y2471D02*
X7Y2471D01*
X5503Y2471D02*
X5510Y2471D01*
X0Y2470D02*
X7Y2470D01*
X5503Y2470D02*
X5510Y2470D01*
X0Y2469D02*
X7Y2469D01*
X5503Y2469D02*
X5510Y2469D01*
X0Y2468D02*
X7Y2468D01*
X5503Y2468D02*
X5510Y2468D01*
X0Y2467D02*
X7Y2467D01*
X5503Y2467D02*
X5510Y2467D01*
X0Y2466D02*
X7Y2466D01*
X5503Y2466D02*
X5510Y2466D01*
X0Y2465D02*
X7Y2465D01*
X5503Y2465D02*
X5510Y2465D01*
X0Y2464D02*
X7Y2464D01*
X5503Y2464D02*
X5510Y2464D01*
X0Y2463D02*
X7Y2463D01*
X5503Y2463D02*
X5510Y2463D01*
X0Y2462D02*
X7Y2462D01*
X5503Y2462D02*
X5510Y2462D01*
X0Y2461D02*
X7Y2461D01*
X5503Y2461D02*
X5510Y2461D01*
X0Y2460D02*
X7Y2460D01*
X5503Y2460D02*
X5510Y2460D01*
X0Y2459D02*
X7Y2459D01*
X5503Y2459D02*
X5510Y2459D01*
X0Y2458D02*
X7Y2458D01*
X5503Y2458D02*
X5510Y2458D01*
X0Y2457D02*
X7Y2457D01*
X5503Y2457D02*
X5510Y2457D01*
X0Y2456D02*
X7Y2456D01*
X5503Y2456D02*
X5510Y2456D01*
X0Y2455D02*
X7Y2455D01*
X5503Y2455D02*
X5510Y2455D01*
X0Y2454D02*
X7Y2454D01*
X5503Y2454D02*
X5510Y2454D01*
X0Y2453D02*
X7Y2453D01*
X5503Y2453D02*
X5510Y2453D01*
X0Y2452D02*
X7Y2452D01*
X5503Y2452D02*
X5510Y2452D01*
X0Y2451D02*
X7Y2451D01*
X5503Y2451D02*
X5510Y2451D01*
X0Y2450D02*
X7Y2450D01*
X5503Y2450D02*
X5510Y2450D01*
X0Y2449D02*
X7Y2449D01*
X5503Y2449D02*
X5510Y2449D01*
X0Y2448D02*
X7Y2448D01*
X5503Y2448D02*
X5510Y2448D01*
X0Y2447D02*
X7Y2447D01*
X5503Y2447D02*
X5510Y2447D01*
X0Y2446D02*
X7Y2446D01*
X5503Y2446D02*
X5510Y2446D01*
X0Y2445D02*
X7Y2445D01*
X5503Y2445D02*
X5510Y2445D01*
X0Y2444D02*
X7Y2444D01*
X5503Y2444D02*
X5510Y2444D01*
X0Y2443D02*
X7Y2443D01*
X5503Y2443D02*
X5510Y2443D01*
X0Y2442D02*
X7Y2442D01*
X5503Y2442D02*
X5510Y2442D01*
X0Y2441D02*
X7Y2441D01*
X5503Y2441D02*
X5510Y2441D01*
X0Y2440D02*
X7Y2440D01*
X5503Y2440D02*
X5510Y2440D01*
X0Y2439D02*
X7Y2439D01*
X5503Y2439D02*
X5510Y2439D01*
X0Y2438D02*
X7Y2438D01*
X5503Y2438D02*
X5510Y2438D01*
X0Y2437D02*
X7Y2437D01*
X5503Y2437D02*
X5510Y2437D01*
X0Y2436D02*
X7Y2436D01*
X5503Y2436D02*
X5510Y2436D01*
X0Y2435D02*
X7Y2435D01*
X5503Y2435D02*
X5510Y2435D01*
X0Y2434D02*
X7Y2434D01*
X5503Y2434D02*
X5510Y2434D01*
X0Y2433D02*
X7Y2433D01*
X5503Y2433D02*
X5510Y2433D01*
X0Y2432D02*
X7Y2432D01*
X5503Y2432D02*
X5510Y2432D01*
X0Y2431D02*
X7Y2431D01*
X5503Y2431D02*
X5510Y2431D01*
X0Y2430D02*
X7Y2430D01*
X5503Y2430D02*
X5510Y2430D01*
X0Y2429D02*
X7Y2429D01*
X5503Y2429D02*
X5510Y2429D01*
X0Y2428D02*
X7Y2428D01*
X5503Y2428D02*
X5510Y2428D01*
X0Y2427D02*
X7Y2427D01*
X5503Y2427D02*
X5510Y2427D01*
X0Y2426D02*
X7Y2426D01*
X5503Y2426D02*
X5510Y2426D01*
X0Y2425D02*
X7Y2425D01*
X5503Y2425D02*
X5510Y2425D01*
X0Y2424D02*
X7Y2424D01*
X5503Y2424D02*
X5510Y2424D01*
X0Y2423D02*
X7Y2423D01*
X5503Y2423D02*
X5510Y2423D01*
X0Y2422D02*
X7Y2422D01*
X5503Y2422D02*
X5510Y2422D01*
X0Y2421D02*
X7Y2421D01*
X5503Y2421D02*
X5510Y2421D01*
X0Y2420D02*
X7Y2420D01*
X5503Y2420D02*
X5510Y2420D01*
X0Y2419D02*
X7Y2419D01*
X5503Y2419D02*
X5510Y2419D01*
X0Y2418D02*
X7Y2418D01*
X5503Y2418D02*
X5510Y2418D01*
X0Y2417D02*
X7Y2417D01*
X5503Y2417D02*
X5510Y2417D01*
X0Y2416D02*
X7Y2416D01*
X5503Y2416D02*
X5510Y2416D01*
X0Y2415D02*
X7Y2415D01*
X5503Y2415D02*
X5510Y2415D01*
X0Y2414D02*
X7Y2414D01*
X5503Y2414D02*
X5510Y2414D01*
X0Y2413D02*
X7Y2413D01*
X5503Y2413D02*
X5510Y2413D01*
X0Y2412D02*
X7Y2412D01*
X5503Y2412D02*
X5510Y2412D01*
X0Y2411D02*
X7Y2411D01*
X5503Y2411D02*
X5510Y2411D01*
X0Y2410D02*
X7Y2410D01*
X5503Y2410D02*
X5510Y2410D01*
X0Y2409D02*
X7Y2409D01*
X5503Y2409D02*
X5510Y2409D01*
X0Y2408D02*
X7Y2408D01*
X5503Y2408D02*
X5510Y2408D01*
X0Y2407D02*
X7Y2407D01*
X5503Y2407D02*
X5510Y2407D01*
X0Y2406D02*
X7Y2406D01*
X5503Y2406D02*
X5510Y2406D01*
X0Y2405D02*
X7Y2405D01*
X5503Y2405D02*
X5510Y2405D01*
X0Y2404D02*
X7Y2404D01*
X5503Y2404D02*
X5510Y2404D01*
X0Y2403D02*
X7Y2403D01*
X5503Y2403D02*
X5510Y2403D01*
X0Y2402D02*
X7Y2402D01*
X5503Y2402D02*
X5510Y2402D01*
X0Y2401D02*
X7Y2401D01*
X5503Y2401D02*
X5510Y2401D01*
X0Y2400D02*
X7Y2400D01*
X5503Y2400D02*
X5510Y2400D01*
X0Y2399D02*
X7Y2399D01*
X5503Y2399D02*
X5510Y2399D01*
X0Y2398D02*
X7Y2398D01*
X5503Y2398D02*
X5510Y2398D01*
X0Y2397D02*
X7Y2397D01*
X5503Y2397D02*
X5510Y2397D01*
X0Y2396D02*
X7Y2396D01*
X5503Y2396D02*
X5510Y2396D01*
X0Y2395D02*
X7Y2395D01*
X5503Y2395D02*
X5510Y2395D01*
X0Y2394D02*
X7Y2394D01*
X5503Y2394D02*
X5510Y2394D01*
X0Y2393D02*
X7Y2393D01*
X5503Y2393D02*
X5510Y2393D01*
X0Y2392D02*
X7Y2392D01*
X5503Y2392D02*
X5510Y2392D01*
X0Y2391D02*
X7Y2391D01*
X5503Y2391D02*
X5510Y2391D01*
X0Y2390D02*
X7Y2390D01*
X5503Y2390D02*
X5510Y2390D01*
X0Y2389D02*
X7Y2389D01*
X5503Y2389D02*
X5510Y2389D01*
X0Y2388D02*
X7Y2388D01*
X5503Y2388D02*
X5510Y2388D01*
X0Y2387D02*
X7Y2387D01*
X5503Y2387D02*
X5510Y2387D01*
X0Y2386D02*
X7Y2386D01*
X5503Y2386D02*
X5510Y2386D01*
X0Y2385D02*
X7Y2385D01*
X5503Y2385D02*
X5510Y2385D01*
X0Y2384D02*
X7Y2384D01*
X5503Y2384D02*
X5510Y2384D01*
X0Y2383D02*
X7Y2383D01*
X5503Y2383D02*
X5510Y2383D01*
X0Y2382D02*
X7Y2382D01*
X5503Y2382D02*
X5510Y2382D01*
X0Y2381D02*
X7Y2381D01*
X5503Y2381D02*
X5510Y2381D01*
X0Y2380D02*
X7Y2380D01*
X5503Y2380D02*
X5510Y2380D01*
X0Y2379D02*
X7Y2379D01*
X5503Y2379D02*
X5510Y2379D01*
X0Y2378D02*
X7Y2378D01*
X5503Y2378D02*
X5510Y2378D01*
X0Y2377D02*
X7Y2377D01*
X5503Y2377D02*
X5510Y2377D01*
X0Y2376D02*
X7Y2376D01*
X5503Y2376D02*
X5510Y2376D01*
X0Y2375D02*
X7Y2375D01*
X5503Y2375D02*
X5510Y2375D01*
X0Y2374D02*
X7Y2374D01*
X5503Y2374D02*
X5510Y2374D01*
X0Y2373D02*
X7Y2373D01*
X5503Y2373D02*
X5510Y2373D01*
X0Y2372D02*
X7Y2372D01*
X5503Y2372D02*
X5510Y2372D01*
X0Y2371D02*
X7Y2371D01*
X5503Y2371D02*
X5510Y2371D01*
X0Y2370D02*
X7Y2370D01*
X5503Y2370D02*
X5510Y2370D01*
X0Y2369D02*
X7Y2369D01*
X5503Y2369D02*
X5510Y2369D01*
X0Y2368D02*
X7Y2368D01*
X5503Y2368D02*
X5510Y2368D01*
X0Y2367D02*
X7Y2367D01*
X5503Y2367D02*
X5510Y2367D01*
X0Y2366D02*
X7Y2366D01*
X5503Y2366D02*
X5510Y2366D01*
X0Y2365D02*
X7Y2365D01*
X5503Y2365D02*
X5510Y2365D01*
X0Y2364D02*
X7Y2364D01*
X5503Y2364D02*
X5510Y2364D01*
X0Y2363D02*
X7Y2363D01*
X5503Y2363D02*
X5510Y2363D01*
X0Y2362D02*
X7Y2362D01*
X5503Y2362D02*
X5510Y2362D01*
X0Y2361D02*
X7Y2361D01*
X5503Y2361D02*
X5510Y2361D01*
X0Y2360D02*
X7Y2360D01*
X5503Y2360D02*
X5510Y2360D01*
X0Y2359D02*
X7Y2359D01*
X5503Y2359D02*
X5510Y2359D01*
X0Y2358D02*
X7Y2358D01*
X5503Y2358D02*
X5510Y2358D01*
X0Y2357D02*
X7Y2357D01*
X5503Y2357D02*
X5510Y2357D01*
X0Y2356D02*
X7Y2356D01*
X5503Y2356D02*
X5510Y2356D01*
X0Y2355D02*
X7Y2355D01*
X5503Y2355D02*
X5510Y2355D01*
X0Y2354D02*
X7Y2354D01*
X5503Y2354D02*
X5510Y2354D01*
X0Y2353D02*
X7Y2353D01*
X5503Y2353D02*
X5510Y2353D01*
X0Y2352D02*
X7Y2352D01*
X5503Y2352D02*
X5510Y2352D01*
X0Y2351D02*
X7Y2351D01*
X5503Y2351D02*
X5510Y2351D01*
X0Y2350D02*
X7Y2350D01*
X5503Y2350D02*
X5510Y2350D01*
X0Y2349D02*
X7Y2349D01*
X5503Y2349D02*
X5510Y2349D01*
X0Y2348D02*
X7Y2348D01*
X5503Y2348D02*
X5510Y2348D01*
X0Y2347D02*
X7Y2347D01*
X5503Y2347D02*
X5510Y2347D01*
X0Y2346D02*
X7Y2346D01*
X5503Y2346D02*
X5510Y2346D01*
X0Y2345D02*
X7Y2345D01*
X5503Y2345D02*
X5510Y2345D01*
X0Y2344D02*
X7Y2344D01*
X5503Y2344D02*
X5510Y2344D01*
X0Y2343D02*
X7Y2343D01*
X5503Y2343D02*
X5510Y2343D01*
X0Y2342D02*
X7Y2342D01*
X5503Y2342D02*
X5510Y2342D01*
X0Y2341D02*
X7Y2341D01*
X5503Y2341D02*
X5510Y2341D01*
X0Y2340D02*
X7Y2340D01*
X5503Y2340D02*
X5510Y2340D01*
X0Y2339D02*
X7Y2339D01*
X5503Y2339D02*
X5510Y2339D01*
X0Y2338D02*
X7Y2338D01*
X5503Y2338D02*
X5510Y2338D01*
X0Y2337D02*
X7Y2337D01*
X5503Y2337D02*
X5510Y2337D01*
X0Y2336D02*
X7Y2336D01*
X5503Y2336D02*
X5510Y2336D01*
X0Y2335D02*
X7Y2335D01*
X5503Y2335D02*
X5510Y2335D01*
X0Y2334D02*
X7Y2334D01*
X5503Y2334D02*
X5510Y2334D01*
X0Y2333D02*
X7Y2333D01*
X5503Y2333D02*
X5510Y2333D01*
X0Y2332D02*
X7Y2332D01*
X5503Y2332D02*
X5510Y2332D01*
X0Y2331D02*
X7Y2331D01*
X5503Y2331D02*
X5510Y2331D01*
X0Y2330D02*
X7Y2330D01*
X5503Y2330D02*
X5510Y2330D01*
X0Y2329D02*
X7Y2329D01*
X5503Y2329D02*
X5510Y2329D01*
X0Y2328D02*
X7Y2328D01*
X5503Y2328D02*
X5510Y2328D01*
X0Y2327D02*
X7Y2327D01*
X5503Y2327D02*
X5510Y2327D01*
X0Y2326D02*
X7Y2326D01*
X5503Y2326D02*
X5510Y2326D01*
X0Y2325D02*
X7Y2325D01*
X5503Y2325D02*
X5510Y2325D01*
X0Y2324D02*
X7Y2324D01*
X5503Y2324D02*
X5510Y2324D01*
X0Y2323D02*
X7Y2323D01*
X5503Y2323D02*
X5510Y2323D01*
X0Y2322D02*
X7Y2322D01*
X5503Y2322D02*
X5510Y2322D01*
X0Y2321D02*
X7Y2321D01*
X5503Y2321D02*
X5510Y2321D01*
X0Y2320D02*
X7Y2320D01*
X5503Y2320D02*
X5510Y2320D01*
X0Y2319D02*
X7Y2319D01*
X5503Y2319D02*
X5510Y2319D01*
X0Y2318D02*
X7Y2318D01*
X5503Y2318D02*
X5510Y2318D01*
X0Y2317D02*
X7Y2317D01*
X5503Y2317D02*
X5510Y2317D01*
X0Y2316D02*
X7Y2316D01*
X5503Y2316D02*
X5510Y2316D01*
X0Y2315D02*
X7Y2315D01*
X5503Y2315D02*
X5510Y2315D01*
X0Y2314D02*
X7Y2314D01*
X5503Y2314D02*
X5510Y2314D01*
X0Y2313D02*
X7Y2313D01*
X5503Y2313D02*
X5510Y2313D01*
X0Y2312D02*
X7Y2312D01*
X5503Y2312D02*
X5510Y2312D01*
X0Y2311D02*
X7Y2311D01*
X5503Y2311D02*
X5510Y2311D01*
X0Y2310D02*
X7Y2310D01*
X5503Y2310D02*
X5510Y2310D01*
X0Y2309D02*
X7Y2309D01*
X5503Y2309D02*
X5510Y2309D01*
X0Y2308D02*
X7Y2308D01*
X5503Y2308D02*
X5510Y2308D01*
X0Y2307D02*
X7Y2307D01*
X5503Y2307D02*
X5510Y2307D01*
X0Y2306D02*
X7Y2306D01*
X5503Y2306D02*
X5510Y2306D01*
X0Y2305D02*
X7Y2305D01*
X5503Y2305D02*
X5510Y2305D01*
X0Y2304D02*
X7Y2304D01*
X5503Y2304D02*
X5510Y2304D01*
X0Y2303D02*
X7Y2303D01*
X5503Y2303D02*
X5510Y2303D01*
X0Y2302D02*
X7Y2302D01*
X5503Y2302D02*
X5510Y2302D01*
X0Y2301D02*
X7Y2301D01*
X5503Y2301D02*
X5510Y2301D01*
X0Y2300D02*
X7Y2300D01*
X5503Y2300D02*
X5510Y2300D01*
X0Y2299D02*
X7Y2299D01*
X5503Y2299D02*
X5510Y2299D01*
X0Y2298D02*
X7Y2298D01*
X5503Y2298D02*
X5510Y2298D01*
X0Y2297D02*
X7Y2297D01*
X5503Y2297D02*
X5510Y2297D01*
X0Y2296D02*
X7Y2296D01*
X5503Y2296D02*
X5510Y2296D01*
X0Y2295D02*
X7Y2295D01*
X5503Y2295D02*
X5510Y2295D01*
X0Y2294D02*
X7Y2294D01*
X5503Y2294D02*
X5510Y2294D01*
X0Y2293D02*
X7Y2293D01*
X5503Y2293D02*
X5510Y2293D01*
X0Y2292D02*
X7Y2292D01*
X5503Y2292D02*
X5510Y2292D01*
X0Y2291D02*
X7Y2291D01*
X5503Y2291D02*
X5510Y2291D01*
X0Y2290D02*
X7Y2290D01*
X5503Y2290D02*
X5510Y2290D01*
X0Y2289D02*
X7Y2289D01*
X5503Y2289D02*
X5510Y2289D01*
X0Y2288D02*
X7Y2288D01*
X5503Y2288D02*
X5510Y2288D01*
X0Y2287D02*
X7Y2287D01*
X5503Y2287D02*
X5510Y2287D01*
X0Y2286D02*
X7Y2286D01*
X5503Y2286D02*
X5510Y2286D01*
X0Y2285D02*
X7Y2285D01*
X5503Y2285D02*
X5510Y2285D01*
X0Y2284D02*
X7Y2284D01*
X5503Y2284D02*
X5510Y2284D01*
X0Y2283D02*
X7Y2283D01*
X5503Y2283D02*
X5510Y2283D01*
X0Y2282D02*
X7Y2282D01*
X5503Y2282D02*
X5510Y2282D01*
X0Y2281D02*
X7Y2281D01*
X5503Y2281D02*
X5510Y2281D01*
X0Y2280D02*
X7Y2280D01*
X5503Y2280D02*
X5510Y2280D01*
X0Y2279D02*
X7Y2279D01*
X5503Y2279D02*
X5510Y2279D01*
X0Y2278D02*
X7Y2278D01*
X5503Y2278D02*
X5510Y2278D01*
X0Y2277D02*
X7Y2277D01*
X5503Y2277D02*
X5510Y2277D01*
X0Y2276D02*
X7Y2276D01*
X5503Y2276D02*
X5510Y2276D01*
X0Y2275D02*
X7Y2275D01*
X5503Y2275D02*
X5510Y2275D01*
X0Y2274D02*
X7Y2274D01*
X5503Y2274D02*
X5510Y2274D01*
X0Y2273D02*
X7Y2273D01*
X5503Y2273D02*
X5510Y2273D01*
X0Y2272D02*
X7Y2272D01*
X5503Y2272D02*
X5510Y2272D01*
X0Y2271D02*
X7Y2271D01*
X5503Y2271D02*
X5510Y2271D01*
X0Y2270D02*
X7Y2270D01*
X5503Y2270D02*
X5510Y2270D01*
X0Y2269D02*
X7Y2269D01*
X5503Y2269D02*
X5510Y2269D01*
X0Y2268D02*
X7Y2268D01*
X5503Y2268D02*
X5510Y2268D01*
X0Y2267D02*
X7Y2267D01*
X5503Y2267D02*
X5510Y2267D01*
X0Y2266D02*
X7Y2266D01*
X5503Y2266D02*
X5510Y2266D01*
X0Y2265D02*
X7Y2265D01*
X5503Y2265D02*
X5510Y2265D01*
X0Y2264D02*
X7Y2264D01*
X5503Y2264D02*
X5510Y2264D01*
X0Y2263D02*
X7Y2263D01*
X5503Y2263D02*
X5510Y2263D01*
X0Y2262D02*
X7Y2262D01*
X5503Y2262D02*
X5510Y2262D01*
X0Y2261D02*
X7Y2261D01*
X5503Y2261D02*
X5510Y2261D01*
X0Y2260D02*
X7Y2260D01*
X5503Y2260D02*
X5510Y2260D01*
X0Y2259D02*
X7Y2259D01*
X5503Y2259D02*
X5510Y2259D01*
X0Y2258D02*
X7Y2258D01*
X5503Y2258D02*
X5510Y2258D01*
X0Y2257D02*
X7Y2257D01*
X5503Y2257D02*
X5510Y2257D01*
X0Y2256D02*
X7Y2256D01*
X5503Y2256D02*
X5510Y2256D01*
X0Y2255D02*
X7Y2255D01*
X5503Y2255D02*
X5510Y2255D01*
X0Y2254D02*
X7Y2254D01*
X5503Y2254D02*
X5510Y2254D01*
X0Y2253D02*
X7Y2253D01*
X5503Y2253D02*
X5510Y2253D01*
X0Y2252D02*
X7Y2252D01*
X5503Y2252D02*
X5510Y2252D01*
X0Y2251D02*
X7Y2251D01*
X5503Y2251D02*
X5510Y2251D01*
X0Y2250D02*
X7Y2250D01*
X5503Y2250D02*
X5510Y2250D01*
X0Y2249D02*
X7Y2249D01*
X5503Y2249D02*
X5510Y2249D01*
X0Y2248D02*
X7Y2248D01*
X5503Y2248D02*
X5510Y2248D01*
X0Y2247D02*
X7Y2247D01*
X5503Y2247D02*
X5510Y2247D01*
X0Y2246D02*
X7Y2246D01*
X5503Y2246D02*
X5510Y2246D01*
X0Y2245D02*
X7Y2245D01*
X5503Y2245D02*
X5510Y2245D01*
X0Y2244D02*
X7Y2244D01*
X5503Y2244D02*
X5510Y2244D01*
X0Y2243D02*
X7Y2243D01*
X5503Y2243D02*
X5510Y2243D01*
X0Y2242D02*
X7Y2242D01*
X5503Y2242D02*
X5510Y2242D01*
X0Y2241D02*
X7Y2241D01*
X5503Y2241D02*
X5510Y2241D01*
X0Y2240D02*
X7Y2240D01*
X5503Y2240D02*
X5510Y2240D01*
X0Y2239D02*
X7Y2239D01*
X5503Y2239D02*
X5510Y2239D01*
X0Y2238D02*
X7Y2238D01*
X5503Y2238D02*
X5510Y2238D01*
X0Y2237D02*
X7Y2237D01*
X5503Y2237D02*
X5510Y2237D01*
X0Y2236D02*
X7Y2236D01*
X5503Y2236D02*
X5510Y2236D01*
X0Y2235D02*
X7Y2235D01*
X5503Y2235D02*
X5510Y2235D01*
X0Y2234D02*
X7Y2234D01*
X5503Y2234D02*
X5510Y2234D01*
X0Y2233D02*
X7Y2233D01*
X5503Y2233D02*
X5510Y2233D01*
X0Y2232D02*
X7Y2232D01*
X5503Y2232D02*
X5510Y2232D01*
X0Y2231D02*
X7Y2231D01*
X5503Y2231D02*
X5510Y2231D01*
X0Y2230D02*
X7Y2230D01*
X5503Y2230D02*
X5510Y2230D01*
X0Y2229D02*
X7Y2229D01*
X5503Y2229D02*
X5510Y2229D01*
X0Y2228D02*
X7Y2228D01*
X5503Y2228D02*
X5510Y2228D01*
X0Y2227D02*
X7Y2227D01*
X5503Y2227D02*
X5510Y2227D01*
X0Y2226D02*
X7Y2226D01*
X5503Y2226D02*
X5510Y2226D01*
X0Y2225D02*
X7Y2225D01*
X5503Y2225D02*
X5510Y2225D01*
X0Y2224D02*
X7Y2224D01*
X5503Y2224D02*
X5510Y2224D01*
X0Y2223D02*
X7Y2223D01*
X5503Y2223D02*
X5510Y2223D01*
X0Y2222D02*
X7Y2222D01*
X5503Y2222D02*
X5510Y2222D01*
X0Y2221D02*
X7Y2221D01*
X5503Y2221D02*
X5510Y2221D01*
X0Y2220D02*
X7Y2220D01*
X5503Y2220D02*
X5510Y2220D01*
X0Y2219D02*
X7Y2219D01*
X5503Y2219D02*
X5510Y2219D01*
X0Y2218D02*
X7Y2218D01*
X5503Y2218D02*
X5510Y2218D01*
X0Y2217D02*
X7Y2217D01*
X5503Y2217D02*
X5510Y2217D01*
X0Y2216D02*
X7Y2216D01*
X5503Y2216D02*
X5510Y2216D01*
X0Y2215D02*
X7Y2215D01*
X5503Y2215D02*
X5510Y2215D01*
X0Y2214D02*
X7Y2214D01*
X5503Y2214D02*
X5510Y2214D01*
X0Y2213D02*
X7Y2213D01*
X5503Y2213D02*
X5510Y2213D01*
X0Y2212D02*
X7Y2212D01*
X5503Y2212D02*
X5510Y2212D01*
X0Y2211D02*
X7Y2211D01*
X5503Y2211D02*
X5510Y2211D01*
X0Y2210D02*
X7Y2210D01*
X5503Y2210D02*
X5510Y2210D01*
X0Y2209D02*
X7Y2209D01*
X5503Y2209D02*
X5510Y2209D01*
X0Y2208D02*
X7Y2208D01*
X5503Y2208D02*
X5510Y2208D01*
X0Y2207D02*
X7Y2207D01*
X5503Y2207D02*
X5510Y2207D01*
X0Y2206D02*
X7Y2206D01*
X5503Y2206D02*
X5510Y2206D01*
X0Y2205D02*
X7Y2205D01*
X5503Y2205D02*
X5510Y2205D01*
X0Y2204D02*
X7Y2204D01*
X5503Y2204D02*
X5510Y2204D01*
X0Y2203D02*
X7Y2203D01*
X5503Y2203D02*
X5510Y2203D01*
X0Y2202D02*
X7Y2202D01*
X5503Y2202D02*
X5510Y2202D01*
X0Y2201D02*
X7Y2201D01*
X5503Y2201D02*
X5510Y2201D01*
X0Y2200D02*
X7Y2200D01*
X5503Y2200D02*
X5510Y2200D01*
X0Y2199D02*
X7Y2199D01*
X5503Y2199D02*
X5510Y2199D01*
X0Y2198D02*
X7Y2198D01*
X5503Y2198D02*
X5510Y2198D01*
X0Y2197D02*
X7Y2197D01*
X5503Y2197D02*
X5510Y2197D01*
X0Y2196D02*
X7Y2196D01*
X5503Y2196D02*
X5510Y2196D01*
X0Y2195D02*
X7Y2195D01*
X5503Y2195D02*
X5510Y2195D01*
X0Y2194D02*
X7Y2194D01*
X5503Y2194D02*
X5510Y2194D01*
X0Y2193D02*
X7Y2193D01*
X5503Y2193D02*
X5510Y2193D01*
X0Y2192D02*
X7Y2192D01*
X5503Y2192D02*
X5510Y2192D01*
X0Y2191D02*
X7Y2191D01*
X5503Y2191D02*
X5510Y2191D01*
X0Y2190D02*
X7Y2190D01*
X5503Y2190D02*
X5510Y2190D01*
X0Y2189D02*
X7Y2189D01*
X5503Y2189D02*
X5510Y2189D01*
X0Y2188D02*
X7Y2188D01*
X5503Y2188D02*
X5510Y2188D01*
X0Y2187D02*
X7Y2187D01*
X5503Y2187D02*
X5510Y2187D01*
X0Y2186D02*
X7Y2186D01*
X5503Y2186D02*
X5510Y2186D01*
X0Y2185D02*
X7Y2185D01*
X5503Y2185D02*
X5510Y2185D01*
X0Y2184D02*
X7Y2184D01*
X5503Y2184D02*
X5510Y2184D01*
X0Y2183D02*
X7Y2183D01*
X5503Y2183D02*
X5510Y2183D01*
X0Y2182D02*
X7Y2182D01*
X5503Y2182D02*
X5510Y2182D01*
X0Y2181D02*
X7Y2181D01*
X5503Y2181D02*
X5510Y2181D01*
X0Y2180D02*
X7Y2180D01*
X5503Y2180D02*
X5510Y2180D01*
X0Y2179D02*
X7Y2179D01*
X5503Y2179D02*
X5510Y2179D01*
X0Y2178D02*
X7Y2178D01*
X5503Y2178D02*
X5510Y2178D01*
X0Y2177D02*
X7Y2177D01*
X5503Y2177D02*
X5510Y2177D01*
X0Y2176D02*
X7Y2176D01*
X5503Y2176D02*
X5510Y2176D01*
X0Y2175D02*
X7Y2175D01*
X5503Y2175D02*
X5510Y2175D01*
X0Y2174D02*
X7Y2174D01*
X5503Y2174D02*
X5510Y2174D01*
X0Y2173D02*
X7Y2173D01*
X5503Y2173D02*
X5510Y2173D01*
X0Y2172D02*
X7Y2172D01*
X5503Y2172D02*
X5510Y2172D01*
X0Y2171D02*
X7Y2171D01*
X5503Y2171D02*
X5510Y2171D01*
X0Y2170D02*
X7Y2170D01*
X5503Y2170D02*
X5510Y2170D01*
X0Y2169D02*
X7Y2169D01*
X5503Y2169D02*
X5510Y2169D01*
X0Y2168D02*
X7Y2168D01*
X5503Y2168D02*
X5510Y2168D01*
X0Y2167D02*
X7Y2167D01*
X5503Y2167D02*
X5510Y2167D01*
X0Y2166D02*
X7Y2166D01*
X5503Y2166D02*
X5510Y2166D01*
X0Y2165D02*
X7Y2165D01*
X5503Y2165D02*
X5510Y2165D01*
X0Y2164D02*
X7Y2164D01*
X5503Y2164D02*
X5510Y2164D01*
X0Y2163D02*
X7Y2163D01*
X5503Y2163D02*
X5510Y2163D01*
X0Y2162D02*
X7Y2162D01*
X5503Y2162D02*
X5510Y2162D01*
X0Y2161D02*
X7Y2161D01*
X5503Y2161D02*
X5510Y2161D01*
X0Y2160D02*
X7Y2160D01*
X5503Y2160D02*
X5510Y2160D01*
X0Y2159D02*
X7Y2159D01*
X5503Y2159D02*
X5510Y2159D01*
X0Y2158D02*
X7Y2158D01*
X5503Y2158D02*
X5510Y2158D01*
X0Y2157D02*
X7Y2157D01*
X5503Y2157D02*
X5510Y2157D01*
X0Y2156D02*
X7Y2156D01*
X5503Y2156D02*
X5510Y2156D01*
X0Y2155D02*
X7Y2155D01*
X5503Y2155D02*
X5510Y2155D01*
X0Y2154D02*
X7Y2154D01*
X5503Y2154D02*
X5510Y2154D01*
X0Y2153D02*
X7Y2153D01*
X5503Y2153D02*
X5510Y2153D01*
X0Y2152D02*
X7Y2152D01*
X5503Y2152D02*
X5510Y2152D01*
X0Y2151D02*
X7Y2151D01*
X5503Y2151D02*
X5510Y2151D01*
X0Y2150D02*
X7Y2150D01*
X5503Y2150D02*
X5510Y2150D01*
X0Y2149D02*
X7Y2149D01*
X5503Y2149D02*
X5510Y2149D01*
X0Y2148D02*
X7Y2148D01*
X5503Y2148D02*
X5510Y2148D01*
X0Y2147D02*
X7Y2147D01*
X5503Y2147D02*
X5510Y2147D01*
X0Y2146D02*
X7Y2146D01*
X5503Y2146D02*
X5510Y2146D01*
X0Y2145D02*
X7Y2145D01*
X5503Y2145D02*
X5510Y2145D01*
X0Y2144D02*
X7Y2144D01*
X5503Y2144D02*
X5510Y2144D01*
X0Y2143D02*
X7Y2143D01*
X5503Y2143D02*
X5510Y2143D01*
X0Y2142D02*
X7Y2142D01*
X5503Y2142D02*
X5510Y2142D01*
X0Y2141D02*
X7Y2141D01*
X5503Y2141D02*
X5510Y2141D01*
X0Y2140D02*
X7Y2140D01*
X5503Y2140D02*
X5510Y2140D01*
X0Y2139D02*
X7Y2139D01*
X5503Y2139D02*
X5510Y2139D01*
X0Y2138D02*
X7Y2138D01*
X5503Y2138D02*
X5510Y2138D01*
X0Y2137D02*
X7Y2137D01*
X5503Y2137D02*
X5510Y2137D01*
X0Y2136D02*
X7Y2136D01*
X5503Y2136D02*
X5510Y2136D01*
X0Y2135D02*
X7Y2135D01*
X5503Y2135D02*
X5510Y2135D01*
X0Y2134D02*
X7Y2134D01*
X5503Y2134D02*
X5510Y2134D01*
X0Y2133D02*
X7Y2133D01*
X5503Y2133D02*
X5510Y2133D01*
X0Y2132D02*
X7Y2132D01*
X5503Y2132D02*
X5510Y2132D01*
X0Y2131D02*
X7Y2131D01*
X5503Y2131D02*
X5510Y2131D01*
X0Y2130D02*
X7Y2130D01*
X5503Y2130D02*
X5510Y2130D01*
X0Y2129D02*
X7Y2129D01*
X5503Y2129D02*
X5510Y2129D01*
X0Y2128D02*
X7Y2128D01*
X5503Y2128D02*
X5510Y2128D01*
X0Y2127D02*
X7Y2127D01*
X5503Y2127D02*
X5510Y2127D01*
X0Y2126D02*
X7Y2126D01*
X5503Y2126D02*
X5510Y2126D01*
X0Y2125D02*
X7Y2125D01*
X5503Y2125D02*
X5510Y2125D01*
X0Y2124D02*
X7Y2124D01*
X5503Y2124D02*
X5510Y2124D01*
X0Y2123D02*
X7Y2123D01*
X5503Y2123D02*
X5510Y2123D01*
X0Y2122D02*
X7Y2122D01*
X5503Y2122D02*
X5510Y2122D01*
X0Y2121D02*
X7Y2121D01*
X5503Y2121D02*
X5510Y2121D01*
X0Y2120D02*
X7Y2120D01*
X5503Y2120D02*
X5510Y2120D01*
X0Y2119D02*
X7Y2119D01*
X5503Y2119D02*
X5510Y2119D01*
X0Y2118D02*
X7Y2118D01*
X5503Y2118D02*
X5510Y2118D01*
X0Y2117D02*
X7Y2117D01*
X5503Y2117D02*
X5510Y2117D01*
X0Y2116D02*
X7Y2116D01*
X5503Y2116D02*
X5510Y2116D01*
X0Y2115D02*
X7Y2115D01*
X5503Y2115D02*
X5510Y2115D01*
X0Y2114D02*
X7Y2114D01*
X5503Y2114D02*
X5510Y2114D01*
X0Y2113D02*
X7Y2113D01*
X5503Y2113D02*
X5510Y2113D01*
X0Y2112D02*
X7Y2112D01*
X5503Y2112D02*
X5510Y2112D01*
X0Y2111D02*
X7Y2111D01*
X5503Y2111D02*
X5510Y2111D01*
X0Y2110D02*
X7Y2110D01*
X5503Y2110D02*
X5510Y2110D01*
X0Y2109D02*
X7Y2109D01*
X5503Y2109D02*
X5510Y2109D01*
X0Y2108D02*
X7Y2108D01*
X5503Y2108D02*
X5510Y2108D01*
X0Y2107D02*
X7Y2107D01*
X5503Y2107D02*
X5510Y2107D01*
X0Y2106D02*
X7Y2106D01*
X5503Y2106D02*
X5510Y2106D01*
X0Y2105D02*
X7Y2105D01*
X5503Y2105D02*
X5510Y2105D01*
X0Y2104D02*
X7Y2104D01*
X5503Y2104D02*
X5510Y2104D01*
X0Y2103D02*
X7Y2103D01*
X5503Y2103D02*
X5510Y2103D01*
X0Y2102D02*
X7Y2102D01*
X5503Y2102D02*
X5510Y2102D01*
X0Y2101D02*
X7Y2101D01*
X5503Y2101D02*
X5510Y2101D01*
X0Y2100D02*
X7Y2100D01*
X5503Y2100D02*
X5510Y2100D01*
X0Y2099D02*
X7Y2099D01*
X5503Y2099D02*
X5510Y2099D01*
X0Y2098D02*
X7Y2098D01*
X5503Y2098D02*
X5510Y2098D01*
X0Y2097D02*
X7Y2097D01*
X5503Y2097D02*
X5510Y2097D01*
X0Y2096D02*
X7Y2096D01*
X5503Y2096D02*
X5510Y2096D01*
X0Y2095D02*
X7Y2095D01*
X5503Y2095D02*
X5510Y2095D01*
X0Y2094D02*
X7Y2094D01*
X5503Y2094D02*
X5510Y2094D01*
X0Y2093D02*
X7Y2093D01*
X5503Y2093D02*
X5510Y2093D01*
X0Y2092D02*
X7Y2092D01*
X5503Y2092D02*
X5510Y2092D01*
X0Y2091D02*
X7Y2091D01*
X5503Y2091D02*
X5510Y2091D01*
X0Y2090D02*
X7Y2090D01*
X5503Y2090D02*
X5510Y2090D01*
X0Y2089D02*
X7Y2089D01*
X5503Y2089D02*
X5510Y2089D01*
X0Y2088D02*
X7Y2088D01*
X5503Y2088D02*
X5510Y2088D01*
X0Y2087D02*
X7Y2087D01*
X5503Y2087D02*
X5510Y2087D01*
X0Y2086D02*
X7Y2086D01*
X5503Y2086D02*
X5510Y2086D01*
X0Y2085D02*
X7Y2085D01*
X5503Y2085D02*
X5510Y2085D01*
X0Y2084D02*
X7Y2084D01*
X5503Y2084D02*
X5510Y2084D01*
X0Y2083D02*
X7Y2083D01*
X5503Y2083D02*
X5510Y2083D01*
X0Y2082D02*
X7Y2082D01*
X5503Y2082D02*
X5510Y2082D01*
X0Y2081D02*
X7Y2081D01*
X5503Y2081D02*
X5510Y2081D01*
X0Y2080D02*
X7Y2080D01*
X5503Y2080D02*
X5510Y2080D01*
X0Y2079D02*
X7Y2079D01*
X5503Y2079D02*
X5510Y2079D01*
X0Y2078D02*
X7Y2078D01*
X5503Y2078D02*
X5510Y2078D01*
X0Y2077D02*
X7Y2077D01*
X5503Y2077D02*
X5510Y2077D01*
X0Y2076D02*
X7Y2076D01*
X5503Y2076D02*
X5510Y2076D01*
X0Y2075D02*
X7Y2075D01*
X5503Y2075D02*
X5510Y2075D01*
X0Y2074D02*
X7Y2074D01*
X5503Y2074D02*
X5510Y2074D01*
X0Y2073D02*
X7Y2073D01*
X5503Y2073D02*
X5510Y2073D01*
X0Y2072D02*
X7Y2072D01*
X5503Y2072D02*
X5510Y2072D01*
X0Y2071D02*
X7Y2071D01*
X5503Y2071D02*
X5510Y2071D01*
X0Y2070D02*
X7Y2070D01*
X5503Y2070D02*
X5510Y2070D01*
X0Y2069D02*
X7Y2069D01*
X5503Y2069D02*
X5510Y2069D01*
X0Y2068D02*
X7Y2068D01*
X5503Y2068D02*
X5510Y2068D01*
X0Y2067D02*
X7Y2067D01*
X5503Y2067D02*
X5510Y2067D01*
X0Y2066D02*
X7Y2066D01*
X5503Y2066D02*
X5510Y2066D01*
X0Y2065D02*
X7Y2065D01*
X5503Y2065D02*
X5510Y2065D01*
X0Y2064D02*
X7Y2064D01*
X5503Y2064D02*
X5510Y2064D01*
X0Y2063D02*
X7Y2063D01*
X5503Y2063D02*
X5510Y2063D01*
X0Y2062D02*
X7Y2062D01*
X5503Y2062D02*
X5510Y2062D01*
X0Y2061D02*
X7Y2061D01*
X5503Y2061D02*
X5510Y2061D01*
X0Y2060D02*
X7Y2060D01*
X5503Y2060D02*
X5510Y2060D01*
X0Y2059D02*
X7Y2059D01*
X5503Y2059D02*
X5510Y2059D01*
X0Y2058D02*
X7Y2058D01*
X5503Y2058D02*
X5510Y2058D01*
X0Y2057D02*
X7Y2057D01*
X5503Y2057D02*
X5510Y2057D01*
X0Y2056D02*
X7Y2056D01*
X5503Y2056D02*
X5510Y2056D01*
X0Y2055D02*
X7Y2055D01*
X5503Y2055D02*
X5510Y2055D01*
X0Y2054D02*
X7Y2054D01*
X5503Y2054D02*
X5510Y2054D01*
X0Y2053D02*
X7Y2053D01*
X5503Y2053D02*
X5510Y2053D01*
X0Y2052D02*
X7Y2052D01*
X5503Y2052D02*
X5510Y2052D01*
X0Y2051D02*
X7Y2051D01*
X5503Y2051D02*
X5510Y2051D01*
X0Y2050D02*
X7Y2050D01*
X5503Y2050D02*
X5510Y2050D01*
X0Y2049D02*
X7Y2049D01*
X5503Y2049D02*
X5510Y2049D01*
X0Y2048D02*
X7Y2048D01*
X5503Y2048D02*
X5510Y2048D01*
X0Y2047D02*
X7Y2047D01*
X5503Y2047D02*
X5510Y2047D01*
X0Y2046D02*
X7Y2046D01*
X5503Y2046D02*
X5510Y2046D01*
X0Y2045D02*
X7Y2045D01*
X5503Y2045D02*
X5510Y2045D01*
X0Y2044D02*
X7Y2044D01*
X5503Y2044D02*
X5510Y2044D01*
X0Y2043D02*
X7Y2043D01*
X5503Y2043D02*
X5510Y2043D01*
X0Y2042D02*
X7Y2042D01*
X5503Y2042D02*
X5510Y2042D01*
X0Y2041D02*
X7Y2041D01*
X5503Y2041D02*
X5510Y2041D01*
X0Y2040D02*
X7Y2040D01*
X5503Y2040D02*
X5510Y2040D01*
X0Y2039D02*
X7Y2039D01*
X5503Y2039D02*
X5510Y2039D01*
X0Y2038D02*
X7Y2038D01*
X5503Y2038D02*
X5510Y2038D01*
X0Y2037D02*
X7Y2037D01*
X5503Y2037D02*
X5510Y2037D01*
X0Y2036D02*
X7Y2036D01*
X5503Y2036D02*
X5510Y2036D01*
X0Y2035D02*
X7Y2035D01*
X5503Y2035D02*
X5510Y2035D01*
X0Y2034D02*
X7Y2034D01*
X5503Y2034D02*
X5510Y2034D01*
X0Y2033D02*
X7Y2033D01*
X5503Y2033D02*
X5510Y2033D01*
X0Y2032D02*
X7Y2032D01*
X5503Y2032D02*
X5510Y2032D01*
X0Y2031D02*
X7Y2031D01*
X5503Y2031D02*
X5510Y2031D01*
X0Y2030D02*
X7Y2030D01*
X5503Y2030D02*
X5510Y2030D01*
X0Y2029D02*
X7Y2029D01*
X5503Y2029D02*
X5510Y2029D01*
X0Y2028D02*
X7Y2028D01*
X5503Y2028D02*
X5510Y2028D01*
X0Y2027D02*
X7Y2027D01*
X5503Y2027D02*
X5510Y2027D01*
X0Y2026D02*
X7Y2026D01*
X5503Y2026D02*
X5510Y2026D01*
X0Y2025D02*
X7Y2025D01*
X5503Y2025D02*
X5510Y2025D01*
X0Y2024D02*
X7Y2024D01*
X5503Y2024D02*
X5510Y2024D01*
X0Y2023D02*
X7Y2023D01*
X5503Y2023D02*
X5510Y2023D01*
X0Y2022D02*
X7Y2022D01*
X5503Y2022D02*
X5510Y2022D01*
X0Y2021D02*
X7Y2021D01*
X5503Y2021D02*
X5510Y2021D01*
X0Y2020D02*
X7Y2020D01*
X5503Y2020D02*
X5510Y2020D01*
X0Y2019D02*
X7Y2019D01*
X5503Y2019D02*
X5510Y2019D01*
X0Y2018D02*
X7Y2018D01*
X5503Y2018D02*
X5510Y2018D01*
X0Y2017D02*
X7Y2017D01*
X5503Y2017D02*
X5510Y2017D01*
X0Y2016D02*
X7Y2016D01*
X5503Y2016D02*
X5510Y2016D01*
X0Y2015D02*
X7Y2015D01*
X5503Y2015D02*
X5510Y2015D01*
X0Y2014D02*
X7Y2014D01*
X5503Y2014D02*
X5510Y2014D01*
X0Y2013D02*
X7Y2013D01*
X5503Y2013D02*
X5510Y2013D01*
X0Y2012D02*
X7Y2012D01*
X5503Y2012D02*
X5510Y2012D01*
X0Y2011D02*
X7Y2011D01*
X5503Y2011D02*
X5510Y2011D01*
X0Y2010D02*
X7Y2010D01*
X5503Y2010D02*
X5510Y2010D01*
X0Y2009D02*
X7Y2009D01*
X5503Y2009D02*
X5510Y2009D01*
X0Y2008D02*
X7Y2008D01*
X5503Y2008D02*
X5510Y2008D01*
X0Y2007D02*
X7Y2007D01*
X5503Y2007D02*
X5510Y2007D01*
X0Y2006D02*
X7Y2006D01*
X5503Y2006D02*
X5510Y2006D01*
X0Y2005D02*
X7Y2005D01*
X5503Y2005D02*
X5510Y2005D01*
X0Y2004D02*
X7Y2004D01*
X5503Y2004D02*
X5510Y2004D01*
X0Y2003D02*
X7Y2003D01*
X5503Y2003D02*
X5510Y2003D01*
X0Y2002D02*
X7Y2002D01*
X5503Y2002D02*
X5510Y2002D01*
X0Y2001D02*
X7Y2001D01*
X5503Y2001D02*
X5510Y2001D01*
X0Y2000D02*
X7Y2000D01*
X5503Y2000D02*
X5510Y2000D01*
X0Y1999D02*
X7Y1999D01*
X5503Y1999D02*
X5510Y1999D01*
X0Y1998D02*
X7Y1998D01*
X5503Y1998D02*
X5510Y1998D01*
X0Y1997D02*
X7Y1997D01*
X5503Y1997D02*
X5510Y1997D01*
X0Y1996D02*
X7Y1996D01*
X5503Y1996D02*
X5510Y1996D01*
X0Y1995D02*
X7Y1995D01*
X5503Y1995D02*
X5510Y1995D01*
X0Y1994D02*
X7Y1994D01*
X5503Y1994D02*
X5510Y1994D01*
X0Y1993D02*
X7Y1993D01*
X5503Y1993D02*
X5510Y1993D01*
X0Y1992D02*
X7Y1992D01*
X5503Y1992D02*
X5510Y1992D01*
X0Y1991D02*
X7Y1991D01*
X5503Y1991D02*
X5510Y1991D01*
X0Y1990D02*
X7Y1990D01*
X5503Y1990D02*
X5510Y1990D01*
X0Y1989D02*
X7Y1989D01*
X5503Y1989D02*
X5510Y1989D01*
X0Y1988D02*
X7Y1988D01*
X5503Y1988D02*
X5510Y1988D01*
X0Y1987D02*
X7Y1987D01*
X5503Y1987D02*
X5510Y1987D01*
X0Y1986D02*
X7Y1986D01*
X5503Y1986D02*
X5510Y1986D01*
X0Y1985D02*
X7Y1985D01*
X5503Y1985D02*
X5510Y1985D01*
X0Y1984D02*
X7Y1984D01*
X5503Y1984D02*
X5510Y1984D01*
X0Y1983D02*
X7Y1983D01*
X5503Y1983D02*
X5510Y1983D01*
X0Y1982D02*
X7Y1982D01*
X5503Y1982D02*
X5510Y1982D01*
X0Y1981D02*
X7Y1981D01*
X5503Y1981D02*
X5510Y1981D01*
X0Y1980D02*
X7Y1980D01*
X5503Y1980D02*
X5510Y1980D01*
X0Y1979D02*
X7Y1979D01*
X5503Y1979D02*
X5510Y1979D01*
X0Y1978D02*
X7Y1978D01*
X5503Y1978D02*
X5510Y1978D01*
X0Y1977D02*
X7Y1977D01*
X5503Y1977D02*
X5510Y1977D01*
X0Y1976D02*
X7Y1976D01*
X5503Y1976D02*
X5510Y1976D01*
X0Y1975D02*
X7Y1975D01*
X5503Y1975D02*
X5510Y1975D01*
X0Y1974D02*
X7Y1974D01*
X5503Y1974D02*
X5510Y1974D01*
X0Y1973D02*
X7Y1973D01*
X5503Y1973D02*
X5510Y1973D01*
X0Y1972D02*
X7Y1972D01*
X5503Y1972D02*
X5510Y1972D01*
X0Y1971D02*
X7Y1971D01*
X5503Y1971D02*
X5510Y1971D01*
X0Y1970D02*
X7Y1970D01*
X5503Y1970D02*
X5510Y1970D01*
X0Y1969D02*
X7Y1969D01*
X5503Y1969D02*
X5510Y1969D01*
X0Y1968D02*
X7Y1968D01*
X5503Y1968D02*
X5510Y1968D01*
X0Y1967D02*
X7Y1967D01*
X5503Y1967D02*
X5510Y1967D01*
X0Y1966D02*
X7Y1966D01*
X5503Y1966D02*
X5510Y1966D01*
X0Y1965D02*
X7Y1965D01*
X5503Y1965D02*
X5510Y1965D01*
X0Y1964D02*
X7Y1964D01*
X5503Y1964D02*
X5510Y1964D01*
X0Y1963D02*
X7Y1963D01*
X5503Y1963D02*
X5510Y1963D01*
X0Y1962D02*
X7Y1962D01*
X5503Y1962D02*
X5510Y1962D01*
X0Y1961D02*
X7Y1961D01*
X5503Y1961D02*
X5510Y1961D01*
X0Y1960D02*
X7Y1960D01*
X5503Y1960D02*
X5510Y1960D01*
X0Y1959D02*
X7Y1959D01*
X5503Y1959D02*
X5510Y1959D01*
X0Y1958D02*
X7Y1958D01*
X5503Y1958D02*
X5510Y1958D01*
X0Y1957D02*
X7Y1957D01*
X5503Y1957D02*
X5510Y1957D01*
X0Y1956D02*
X7Y1956D01*
X5503Y1956D02*
X5510Y1956D01*
X0Y1955D02*
X7Y1955D01*
X5503Y1955D02*
X5510Y1955D01*
X0Y1954D02*
X7Y1954D01*
X5503Y1954D02*
X5510Y1954D01*
X0Y1953D02*
X7Y1953D01*
X5503Y1953D02*
X5510Y1953D01*
X0Y1952D02*
X7Y1952D01*
X5503Y1952D02*
X5510Y1952D01*
X0Y1951D02*
X7Y1951D01*
X5503Y1951D02*
X5510Y1951D01*
X0Y1950D02*
X7Y1950D01*
X5503Y1950D02*
X5510Y1950D01*
X0Y1949D02*
X7Y1949D01*
X5503Y1949D02*
X5510Y1949D01*
X0Y1948D02*
X7Y1948D01*
X5503Y1948D02*
X5510Y1948D01*
X0Y1947D02*
X7Y1947D01*
X5503Y1947D02*
X5510Y1947D01*
X0Y1946D02*
X7Y1946D01*
X5503Y1946D02*
X5510Y1946D01*
X0Y1945D02*
X7Y1945D01*
X5503Y1945D02*
X5510Y1945D01*
X0Y1944D02*
X7Y1944D01*
X5503Y1944D02*
X5510Y1944D01*
X0Y1943D02*
X7Y1943D01*
X5503Y1943D02*
X5510Y1943D01*
X0Y1942D02*
X7Y1942D01*
X5503Y1942D02*
X5510Y1942D01*
X0Y1941D02*
X7Y1941D01*
X5503Y1941D02*
X5510Y1941D01*
X0Y1940D02*
X7Y1940D01*
X5503Y1940D02*
X5510Y1940D01*
X0Y1939D02*
X7Y1939D01*
X5503Y1939D02*
X5510Y1939D01*
X0Y1938D02*
X7Y1938D01*
X5503Y1938D02*
X5510Y1938D01*
X0Y1937D02*
X7Y1937D01*
X5503Y1937D02*
X5510Y1937D01*
X0Y1936D02*
X7Y1936D01*
X5503Y1936D02*
X5510Y1936D01*
X0Y1935D02*
X7Y1935D01*
X5503Y1935D02*
X5510Y1935D01*
X0Y1934D02*
X7Y1934D01*
X5503Y1934D02*
X5510Y1934D01*
X0Y1933D02*
X7Y1933D01*
X5503Y1933D02*
X5510Y1933D01*
X0Y1932D02*
X7Y1932D01*
X5503Y1932D02*
X5510Y1932D01*
X0Y1931D02*
X7Y1931D01*
X5503Y1931D02*
X5510Y1931D01*
X0Y1930D02*
X7Y1930D01*
X5503Y1930D02*
X5510Y1930D01*
X0Y1929D02*
X7Y1929D01*
X5503Y1929D02*
X5510Y1929D01*
X0Y1928D02*
X7Y1928D01*
X5503Y1928D02*
X5510Y1928D01*
X0Y1927D02*
X7Y1927D01*
X5503Y1927D02*
X5510Y1927D01*
X0Y1926D02*
X7Y1926D01*
X5503Y1926D02*
X5510Y1926D01*
X0Y1925D02*
X7Y1925D01*
X5503Y1925D02*
X5510Y1925D01*
X0Y1924D02*
X7Y1924D01*
X5503Y1924D02*
X5510Y1924D01*
X0Y1923D02*
X7Y1923D01*
X5503Y1923D02*
X5510Y1923D01*
X0Y1922D02*
X7Y1922D01*
X5503Y1922D02*
X5510Y1922D01*
X0Y1921D02*
X7Y1921D01*
X5503Y1921D02*
X5510Y1921D01*
X0Y1920D02*
X7Y1920D01*
X5503Y1920D02*
X5510Y1920D01*
X0Y1919D02*
X7Y1919D01*
X5503Y1919D02*
X5510Y1919D01*
X0Y1918D02*
X7Y1918D01*
X5503Y1918D02*
X5510Y1918D01*
X0Y1917D02*
X7Y1917D01*
X5503Y1917D02*
X5510Y1917D01*
X0Y1916D02*
X7Y1916D01*
X5503Y1916D02*
X5510Y1916D01*
X0Y1915D02*
X7Y1915D01*
X5503Y1915D02*
X5510Y1915D01*
X0Y1914D02*
X7Y1914D01*
X5503Y1914D02*
X5510Y1914D01*
X0Y1913D02*
X7Y1913D01*
X5503Y1913D02*
X5510Y1913D01*
X0Y1912D02*
X7Y1912D01*
X5503Y1912D02*
X5510Y1912D01*
X0Y1911D02*
X7Y1911D01*
X5503Y1911D02*
X5510Y1911D01*
X0Y1910D02*
X7Y1910D01*
X5503Y1910D02*
X5510Y1910D01*
X0Y1909D02*
X7Y1909D01*
X5503Y1909D02*
X5510Y1909D01*
X0Y1908D02*
X7Y1908D01*
X5503Y1908D02*
X5510Y1908D01*
X0Y1907D02*
X7Y1907D01*
X5503Y1907D02*
X5510Y1907D01*
X0Y1906D02*
X7Y1906D01*
X5503Y1906D02*
X5510Y1906D01*
X0Y1905D02*
X7Y1905D01*
X5503Y1905D02*
X5510Y1905D01*
X0Y1904D02*
X7Y1904D01*
X5503Y1904D02*
X5510Y1904D01*
X0Y1903D02*
X7Y1903D01*
X5503Y1903D02*
X5510Y1903D01*
X0Y1902D02*
X7Y1902D01*
X5503Y1902D02*
X5510Y1902D01*
X0Y1901D02*
X7Y1901D01*
X5503Y1901D02*
X5510Y1901D01*
X0Y1900D02*
X7Y1900D01*
X5503Y1900D02*
X5510Y1900D01*
X0Y1899D02*
X7Y1899D01*
X5503Y1899D02*
X5510Y1899D01*
X0Y1898D02*
X7Y1898D01*
X5503Y1898D02*
X5510Y1898D01*
X0Y1897D02*
X7Y1897D01*
X5503Y1897D02*
X5510Y1897D01*
X0Y1896D02*
X7Y1896D01*
X5503Y1896D02*
X5510Y1896D01*
X0Y1895D02*
X7Y1895D01*
X5503Y1895D02*
X5510Y1895D01*
X0Y1894D02*
X7Y1894D01*
X5503Y1894D02*
X5510Y1894D01*
X0Y1893D02*
X7Y1893D01*
X5503Y1893D02*
X5510Y1893D01*
X0Y1892D02*
X7Y1892D01*
X5503Y1892D02*
X5510Y1892D01*
X0Y1891D02*
X7Y1891D01*
X5503Y1891D02*
X5510Y1891D01*
X0Y1890D02*
X7Y1890D01*
X5503Y1890D02*
X5510Y1890D01*
X0Y1889D02*
X7Y1889D01*
X5503Y1889D02*
X5510Y1889D01*
X0Y1888D02*
X7Y1888D01*
X5503Y1888D02*
X5510Y1888D01*
X0Y1887D02*
X7Y1887D01*
X5503Y1887D02*
X5510Y1887D01*
X0Y1886D02*
X7Y1886D01*
X5503Y1886D02*
X5510Y1886D01*
X0Y1885D02*
X7Y1885D01*
X5503Y1885D02*
X5510Y1885D01*
X0Y1884D02*
X7Y1884D01*
X5503Y1884D02*
X5510Y1884D01*
X0Y1883D02*
X7Y1883D01*
X5503Y1883D02*
X5510Y1883D01*
X0Y1882D02*
X7Y1882D01*
X5503Y1882D02*
X5510Y1882D01*
X0Y1881D02*
X7Y1881D01*
X5503Y1881D02*
X5510Y1881D01*
X0Y1880D02*
X7Y1880D01*
X5503Y1880D02*
X5510Y1880D01*
X0Y1879D02*
X7Y1879D01*
X5503Y1879D02*
X5510Y1879D01*
X0Y1878D02*
X7Y1878D01*
X5503Y1878D02*
X5510Y1878D01*
X0Y1877D02*
X7Y1877D01*
X5503Y1877D02*
X5510Y1877D01*
X0Y1876D02*
X7Y1876D01*
X5503Y1876D02*
X5510Y1876D01*
X0Y1875D02*
X7Y1875D01*
X5503Y1875D02*
X5510Y1875D01*
X0Y1874D02*
X7Y1874D01*
X5503Y1874D02*
X5510Y1874D01*
X0Y1873D02*
X7Y1873D01*
X5503Y1873D02*
X5510Y1873D01*
X0Y1872D02*
X7Y1872D01*
X5503Y1872D02*
X5510Y1872D01*
X0Y1871D02*
X7Y1871D01*
X5503Y1871D02*
X5510Y1871D01*
X0Y1870D02*
X7Y1870D01*
X5503Y1870D02*
X5510Y1870D01*
X0Y1869D02*
X7Y1869D01*
X5503Y1869D02*
X5510Y1869D01*
X0Y1868D02*
X7Y1868D01*
X5503Y1868D02*
X5510Y1868D01*
X0Y1867D02*
X7Y1867D01*
X5503Y1867D02*
X5510Y1867D01*
X0Y1866D02*
X7Y1866D01*
X5503Y1866D02*
X5510Y1866D01*
X0Y1865D02*
X7Y1865D01*
X5503Y1865D02*
X5510Y1865D01*
X0Y1864D02*
X7Y1864D01*
X5503Y1864D02*
X5510Y1864D01*
X0Y1863D02*
X7Y1863D01*
X5503Y1863D02*
X5510Y1863D01*
X0Y1862D02*
X7Y1862D01*
X5503Y1862D02*
X5510Y1862D01*
X0Y1861D02*
X7Y1861D01*
X5503Y1861D02*
X5510Y1861D01*
X0Y1860D02*
X7Y1860D01*
X5503Y1860D02*
X5510Y1860D01*
X0Y1859D02*
X7Y1859D01*
X5503Y1859D02*
X5510Y1859D01*
X0Y1858D02*
X7Y1858D01*
X5503Y1858D02*
X5510Y1858D01*
X0Y1857D02*
X7Y1857D01*
X5503Y1857D02*
X5510Y1857D01*
X0Y1856D02*
X7Y1856D01*
X5503Y1856D02*
X5510Y1856D01*
X0Y1855D02*
X7Y1855D01*
X5503Y1855D02*
X5510Y1855D01*
X0Y1854D02*
X7Y1854D01*
X5503Y1854D02*
X5510Y1854D01*
X0Y1853D02*
X7Y1853D01*
X5503Y1853D02*
X5510Y1853D01*
X0Y1852D02*
X7Y1852D01*
X5503Y1852D02*
X5510Y1852D01*
X0Y1851D02*
X7Y1851D01*
X5503Y1851D02*
X5510Y1851D01*
X0Y1850D02*
X7Y1850D01*
X5503Y1850D02*
X5510Y1850D01*
X0Y1849D02*
X7Y1849D01*
X5503Y1849D02*
X5510Y1849D01*
X0Y1848D02*
X7Y1848D01*
X5503Y1848D02*
X5510Y1848D01*
X0Y1847D02*
X7Y1847D01*
X5503Y1847D02*
X5510Y1847D01*
X0Y1846D02*
X7Y1846D01*
X5503Y1846D02*
X5510Y1846D01*
X0Y1845D02*
X7Y1845D01*
X5503Y1845D02*
X5510Y1845D01*
X0Y1844D02*
X7Y1844D01*
X5503Y1844D02*
X5510Y1844D01*
X0Y1843D02*
X7Y1843D01*
X5503Y1843D02*
X5510Y1843D01*
X0Y1842D02*
X7Y1842D01*
X5503Y1842D02*
X5510Y1842D01*
X0Y1841D02*
X7Y1841D01*
X5503Y1841D02*
X5510Y1841D01*
X0Y1840D02*
X7Y1840D01*
X5503Y1840D02*
X5510Y1840D01*
X0Y1839D02*
X7Y1839D01*
X5503Y1839D02*
X5510Y1839D01*
X0Y1838D02*
X7Y1838D01*
X5503Y1838D02*
X5510Y1838D01*
X0Y1837D02*
X7Y1837D01*
X5503Y1837D02*
X5510Y1837D01*
X0Y1836D02*
X7Y1836D01*
X5503Y1836D02*
X5510Y1836D01*
X0Y1835D02*
X7Y1835D01*
X5503Y1835D02*
X5510Y1835D01*
X0Y1834D02*
X7Y1834D01*
X5503Y1834D02*
X5510Y1834D01*
X0Y1833D02*
X7Y1833D01*
X5503Y1833D02*
X5510Y1833D01*
X0Y1832D02*
X7Y1832D01*
X5503Y1832D02*
X5510Y1832D01*
X0Y1831D02*
X7Y1831D01*
X5503Y1831D02*
X5510Y1831D01*
X0Y1830D02*
X7Y1830D01*
X5503Y1830D02*
X5510Y1830D01*
X0Y1829D02*
X7Y1829D01*
X5503Y1829D02*
X5510Y1829D01*
X0Y1828D02*
X7Y1828D01*
X5503Y1828D02*
X5510Y1828D01*
X0Y1827D02*
X7Y1827D01*
X5503Y1827D02*
X5510Y1827D01*
X0Y1826D02*
X7Y1826D01*
X5503Y1826D02*
X5510Y1826D01*
X0Y1825D02*
X7Y1825D01*
X5503Y1825D02*
X5510Y1825D01*
X0Y1824D02*
X7Y1824D01*
X5503Y1824D02*
X5510Y1824D01*
X0Y1823D02*
X7Y1823D01*
X5503Y1823D02*
X5510Y1823D01*
X0Y1822D02*
X7Y1822D01*
X5503Y1822D02*
X5510Y1822D01*
X0Y1821D02*
X7Y1821D01*
X5503Y1821D02*
X5510Y1821D01*
X0Y1820D02*
X7Y1820D01*
X5503Y1820D02*
X5510Y1820D01*
X0Y1819D02*
X7Y1819D01*
X5503Y1819D02*
X5510Y1819D01*
X0Y1818D02*
X7Y1818D01*
X5503Y1818D02*
X5510Y1818D01*
X0Y1817D02*
X7Y1817D01*
X5503Y1817D02*
X5510Y1817D01*
X0Y1816D02*
X7Y1816D01*
X5503Y1816D02*
X5510Y1816D01*
X0Y1815D02*
X7Y1815D01*
X5503Y1815D02*
X5510Y1815D01*
X0Y1814D02*
X7Y1814D01*
X5503Y1814D02*
X5510Y1814D01*
X0Y1813D02*
X7Y1813D01*
X5503Y1813D02*
X5510Y1813D01*
X0Y1812D02*
X7Y1812D01*
X5503Y1812D02*
X5510Y1812D01*
X0Y1811D02*
X7Y1811D01*
X5503Y1811D02*
X5510Y1811D01*
X0Y1810D02*
X7Y1810D01*
X5503Y1810D02*
X5510Y1810D01*
X0Y1809D02*
X7Y1809D01*
X5503Y1809D02*
X5510Y1809D01*
X0Y1808D02*
X7Y1808D01*
X5503Y1808D02*
X5510Y1808D01*
X0Y1807D02*
X7Y1807D01*
X5503Y1807D02*
X5510Y1807D01*
X0Y1806D02*
X7Y1806D01*
X5503Y1806D02*
X5510Y1806D01*
X0Y1805D02*
X7Y1805D01*
X5503Y1805D02*
X5510Y1805D01*
X0Y1804D02*
X7Y1804D01*
X5503Y1804D02*
X5510Y1804D01*
X0Y1803D02*
X7Y1803D01*
X5503Y1803D02*
X5510Y1803D01*
X0Y1802D02*
X7Y1802D01*
X5503Y1802D02*
X5510Y1802D01*
X0Y1801D02*
X7Y1801D01*
X5503Y1801D02*
X5510Y1801D01*
X0Y1800D02*
X7Y1800D01*
X5503Y1800D02*
X5510Y1800D01*
X0Y1799D02*
X7Y1799D01*
X5503Y1799D02*
X5510Y1799D01*
X0Y1798D02*
X7Y1798D01*
X5503Y1798D02*
X5510Y1798D01*
X0Y1797D02*
X7Y1797D01*
X5503Y1797D02*
X5510Y1797D01*
X0Y1796D02*
X7Y1796D01*
X5503Y1796D02*
X5510Y1796D01*
X0Y1795D02*
X7Y1795D01*
X5503Y1795D02*
X5510Y1795D01*
X0Y1794D02*
X7Y1794D01*
X5503Y1794D02*
X5510Y1794D01*
X0Y1793D02*
X7Y1793D01*
X5503Y1793D02*
X5510Y1793D01*
X0Y1792D02*
X7Y1792D01*
X5503Y1792D02*
X5510Y1792D01*
X0Y1791D02*
X7Y1791D01*
X5503Y1791D02*
X5510Y1791D01*
X0Y1790D02*
X7Y1790D01*
X5503Y1790D02*
X5510Y1790D01*
X0Y1789D02*
X7Y1789D01*
X5503Y1789D02*
X5510Y1789D01*
X0Y1788D02*
X7Y1788D01*
X5503Y1788D02*
X5510Y1788D01*
X0Y1787D02*
X7Y1787D01*
X5503Y1787D02*
X5510Y1787D01*
X0Y1786D02*
X7Y1786D01*
X5503Y1786D02*
X5510Y1786D01*
X0Y1785D02*
X7Y1785D01*
X5503Y1785D02*
X5510Y1785D01*
X0Y1784D02*
X7Y1784D01*
X5503Y1784D02*
X5510Y1784D01*
X0Y1783D02*
X7Y1783D01*
X5503Y1783D02*
X5510Y1783D01*
X0Y1782D02*
X7Y1782D01*
X5503Y1782D02*
X5510Y1782D01*
X0Y1781D02*
X7Y1781D01*
X5503Y1781D02*
X5510Y1781D01*
X0Y1780D02*
X7Y1780D01*
X5503Y1780D02*
X5510Y1780D01*
X0Y1779D02*
X7Y1779D01*
X5503Y1779D02*
X5510Y1779D01*
X0Y1778D02*
X7Y1778D01*
X5503Y1778D02*
X5510Y1778D01*
X0Y1777D02*
X7Y1777D01*
X5503Y1777D02*
X5510Y1777D01*
X0Y1776D02*
X7Y1776D01*
X5503Y1776D02*
X5510Y1776D01*
X0Y1775D02*
X7Y1775D01*
X5503Y1775D02*
X5510Y1775D01*
X0Y1774D02*
X7Y1774D01*
X5503Y1774D02*
X5510Y1774D01*
X0Y1773D02*
X7Y1773D01*
X5503Y1773D02*
X5510Y1773D01*
X0Y1772D02*
X7Y1772D01*
X5503Y1772D02*
X5510Y1772D01*
X0Y1771D02*
X7Y1771D01*
X5503Y1771D02*
X5510Y1771D01*
X0Y1770D02*
X7Y1770D01*
X5503Y1770D02*
X5510Y1770D01*
X0Y1769D02*
X7Y1769D01*
X5503Y1769D02*
X5510Y1769D01*
X0Y1768D02*
X7Y1768D01*
X5503Y1768D02*
X5510Y1768D01*
X0Y1767D02*
X7Y1767D01*
X5503Y1767D02*
X5510Y1767D01*
X0Y1766D02*
X7Y1766D01*
X5503Y1766D02*
X5510Y1766D01*
X0Y1765D02*
X7Y1765D01*
X5503Y1765D02*
X5510Y1765D01*
X0Y1764D02*
X7Y1764D01*
X5503Y1764D02*
X5510Y1764D01*
X0Y1763D02*
X7Y1763D01*
X5503Y1763D02*
X5510Y1763D01*
X0Y1762D02*
X7Y1762D01*
X5503Y1762D02*
X5510Y1762D01*
X0Y1761D02*
X7Y1761D01*
X5503Y1761D02*
X5510Y1761D01*
X0Y1760D02*
X7Y1760D01*
X5503Y1760D02*
X5510Y1760D01*
X0Y1759D02*
X7Y1759D01*
X5503Y1759D02*
X5510Y1759D01*
X0Y1758D02*
X7Y1758D01*
X5503Y1758D02*
X5510Y1758D01*
X0Y1757D02*
X7Y1757D01*
X5503Y1757D02*
X5510Y1757D01*
X0Y1756D02*
X7Y1756D01*
X5503Y1756D02*
X5510Y1756D01*
X0Y1755D02*
X7Y1755D01*
X5503Y1755D02*
X5510Y1755D01*
X0Y1754D02*
X7Y1754D01*
X5503Y1754D02*
X5510Y1754D01*
X0Y1753D02*
X7Y1753D01*
X5503Y1753D02*
X5510Y1753D01*
X0Y1752D02*
X7Y1752D01*
X5503Y1752D02*
X5510Y1752D01*
X0Y1751D02*
X7Y1751D01*
X5503Y1751D02*
X5510Y1751D01*
X0Y1750D02*
X7Y1750D01*
X5503Y1750D02*
X5510Y1750D01*
X0Y1749D02*
X7Y1749D01*
X5503Y1749D02*
X5510Y1749D01*
X0Y1748D02*
X7Y1748D01*
X5503Y1748D02*
X5510Y1748D01*
X0Y1747D02*
X7Y1747D01*
X5503Y1747D02*
X5510Y1747D01*
X0Y1746D02*
X7Y1746D01*
X5503Y1746D02*
X5510Y1746D01*
X0Y1745D02*
X7Y1745D01*
X5503Y1745D02*
X5510Y1745D01*
X0Y1744D02*
X7Y1744D01*
X5503Y1744D02*
X5510Y1744D01*
X0Y1743D02*
X7Y1743D01*
X5503Y1743D02*
X5510Y1743D01*
X0Y1742D02*
X7Y1742D01*
X5503Y1742D02*
X5510Y1742D01*
X0Y1741D02*
X7Y1741D01*
X5503Y1741D02*
X5510Y1741D01*
X0Y1740D02*
X7Y1740D01*
X5503Y1740D02*
X5510Y1740D01*
X0Y1739D02*
X7Y1739D01*
X5503Y1739D02*
X5510Y1739D01*
X0Y1738D02*
X7Y1738D01*
X5503Y1738D02*
X5510Y1738D01*
X0Y1737D02*
X7Y1737D01*
X5503Y1737D02*
X5510Y1737D01*
X0Y1736D02*
X7Y1736D01*
X5503Y1736D02*
X5510Y1736D01*
X0Y1735D02*
X7Y1735D01*
X5503Y1735D02*
X5510Y1735D01*
X0Y1734D02*
X7Y1734D01*
X5503Y1734D02*
X5510Y1734D01*
X0Y1733D02*
X7Y1733D01*
X5503Y1733D02*
X5510Y1733D01*
X0Y1732D02*
X7Y1732D01*
X5503Y1732D02*
X5510Y1732D01*
X0Y1731D02*
X7Y1731D01*
X5503Y1731D02*
X5510Y1731D01*
X0Y1730D02*
X7Y1730D01*
X5503Y1730D02*
X5510Y1730D01*
X0Y1729D02*
X7Y1729D01*
X5503Y1729D02*
X5510Y1729D01*
X0Y1728D02*
X7Y1728D01*
X5503Y1728D02*
X5510Y1728D01*
X0Y1727D02*
X7Y1727D01*
X5503Y1727D02*
X5510Y1727D01*
X0Y1726D02*
X7Y1726D01*
X5503Y1726D02*
X5510Y1726D01*
X0Y1725D02*
X7Y1725D01*
X5503Y1725D02*
X5510Y1725D01*
X0Y1724D02*
X7Y1724D01*
X5503Y1724D02*
X5510Y1724D01*
X0Y1723D02*
X7Y1723D01*
X5503Y1723D02*
X5510Y1723D01*
X0Y1722D02*
X7Y1722D01*
X5503Y1722D02*
X5510Y1722D01*
X0Y1721D02*
X7Y1721D01*
X5503Y1721D02*
X5510Y1721D01*
X0Y1720D02*
X7Y1720D01*
X5503Y1720D02*
X5510Y1720D01*
X0Y1719D02*
X7Y1719D01*
X5503Y1719D02*
X5510Y1719D01*
X0Y1718D02*
X7Y1718D01*
X5503Y1718D02*
X5510Y1718D01*
X0Y1717D02*
X7Y1717D01*
X5503Y1717D02*
X5510Y1717D01*
X0Y1716D02*
X7Y1716D01*
X5503Y1716D02*
X5510Y1716D01*
X0Y1715D02*
X7Y1715D01*
X5503Y1715D02*
X5510Y1715D01*
X0Y1714D02*
X7Y1714D01*
X5503Y1714D02*
X5510Y1714D01*
X0Y1713D02*
X7Y1713D01*
X5503Y1713D02*
X5510Y1713D01*
X0Y1712D02*
X7Y1712D01*
X5503Y1712D02*
X5510Y1712D01*
X0Y1711D02*
X7Y1711D01*
X5503Y1711D02*
X5510Y1711D01*
X0Y1710D02*
X7Y1710D01*
X5503Y1710D02*
X5510Y1710D01*
X0Y1709D02*
X7Y1709D01*
X5503Y1709D02*
X5510Y1709D01*
X0Y1708D02*
X7Y1708D01*
X5503Y1708D02*
X5510Y1708D01*
X0Y1707D02*
X7Y1707D01*
X5503Y1707D02*
X5510Y1707D01*
X0Y1706D02*
X7Y1706D01*
X5503Y1706D02*
X5510Y1706D01*
X0Y1705D02*
X7Y1705D01*
X5503Y1705D02*
X5510Y1705D01*
X0Y1704D02*
X7Y1704D01*
X5503Y1704D02*
X5510Y1704D01*
X0Y1703D02*
X7Y1703D01*
X5503Y1703D02*
X5510Y1703D01*
X0Y1702D02*
X7Y1702D01*
X5503Y1702D02*
X5510Y1702D01*
X0Y1701D02*
X7Y1701D01*
X5503Y1701D02*
X5510Y1701D01*
X0Y1700D02*
X7Y1700D01*
X5503Y1700D02*
X5510Y1700D01*
X0Y1699D02*
X7Y1699D01*
X5503Y1699D02*
X5510Y1699D01*
X0Y1698D02*
X7Y1698D01*
X5503Y1698D02*
X5510Y1698D01*
X0Y1697D02*
X7Y1697D01*
X5503Y1697D02*
X5510Y1697D01*
X0Y1696D02*
X7Y1696D01*
X5503Y1696D02*
X5510Y1696D01*
X0Y1695D02*
X7Y1695D01*
X5503Y1695D02*
X5510Y1695D01*
X0Y1694D02*
X7Y1694D01*
X5503Y1694D02*
X5510Y1694D01*
X0Y1693D02*
X7Y1693D01*
X5503Y1693D02*
X5510Y1693D01*
X0Y1692D02*
X7Y1692D01*
X5503Y1692D02*
X5510Y1692D01*
X0Y1691D02*
X7Y1691D01*
X5503Y1691D02*
X5510Y1691D01*
X0Y1690D02*
X7Y1690D01*
X5503Y1690D02*
X5510Y1690D01*
X0Y1689D02*
X7Y1689D01*
X5503Y1689D02*
X5510Y1689D01*
X0Y1688D02*
X7Y1688D01*
X5503Y1688D02*
X5510Y1688D01*
X0Y1687D02*
X7Y1687D01*
X5503Y1687D02*
X5510Y1687D01*
X0Y1686D02*
X7Y1686D01*
X5503Y1686D02*
X5510Y1686D01*
X0Y1685D02*
X7Y1685D01*
X5503Y1685D02*
X5510Y1685D01*
X0Y1684D02*
X7Y1684D01*
X5503Y1684D02*
X5510Y1684D01*
X0Y1683D02*
X7Y1683D01*
X5503Y1683D02*
X5510Y1683D01*
X0Y1682D02*
X7Y1682D01*
X5503Y1682D02*
X5510Y1682D01*
X0Y1681D02*
X7Y1681D01*
X5503Y1681D02*
X5510Y1681D01*
X0Y1680D02*
X7Y1680D01*
X5503Y1680D02*
X5510Y1680D01*
X0Y1679D02*
X7Y1679D01*
X5503Y1679D02*
X5510Y1679D01*
X0Y1678D02*
X7Y1678D01*
X5503Y1678D02*
X5510Y1678D01*
X0Y1677D02*
X7Y1677D01*
X5503Y1677D02*
X5510Y1677D01*
X0Y1676D02*
X7Y1676D01*
X5503Y1676D02*
X5510Y1676D01*
X0Y1675D02*
X7Y1675D01*
X5503Y1675D02*
X5510Y1675D01*
X0Y1674D02*
X7Y1674D01*
X5503Y1674D02*
X5510Y1674D01*
X0Y1673D02*
X7Y1673D01*
X5503Y1673D02*
X5510Y1673D01*
X0Y1672D02*
X7Y1672D01*
X5503Y1672D02*
X5510Y1672D01*
X0Y1671D02*
X7Y1671D01*
X5503Y1671D02*
X5510Y1671D01*
X0Y1670D02*
X7Y1670D01*
X5503Y1670D02*
X5510Y1670D01*
X0Y1669D02*
X7Y1669D01*
X5503Y1669D02*
X5510Y1669D01*
X0Y1668D02*
X7Y1668D01*
X5503Y1668D02*
X5510Y1668D01*
X0Y1667D02*
X7Y1667D01*
X5503Y1667D02*
X5510Y1667D01*
X0Y1666D02*
X7Y1666D01*
X5503Y1666D02*
X5510Y1666D01*
X0Y1665D02*
X7Y1665D01*
X5503Y1665D02*
X5510Y1665D01*
X0Y1664D02*
X7Y1664D01*
X5503Y1664D02*
X5510Y1664D01*
X0Y1663D02*
X7Y1663D01*
X5503Y1663D02*
X5510Y1663D01*
X0Y1662D02*
X7Y1662D01*
X5503Y1662D02*
X5510Y1662D01*
X0Y1661D02*
X7Y1661D01*
X5503Y1661D02*
X5510Y1661D01*
X0Y1660D02*
X7Y1660D01*
X5503Y1660D02*
X5510Y1660D01*
X0Y1659D02*
X7Y1659D01*
X5503Y1659D02*
X5510Y1659D01*
X0Y1658D02*
X7Y1658D01*
X5503Y1658D02*
X5510Y1658D01*
X0Y1657D02*
X7Y1657D01*
X5503Y1657D02*
X5510Y1657D01*
X0Y1656D02*
X7Y1656D01*
X5503Y1656D02*
X5510Y1656D01*
X0Y1655D02*
X7Y1655D01*
X5503Y1655D02*
X5510Y1655D01*
X0Y1654D02*
X7Y1654D01*
X5503Y1654D02*
X5510Y1654D01*
X0Y1653D02*
X7Y1653D01*
X5503Y1653D02*
X5510Y1653D01*
X0Y1652D02*
X7Y1652D01*
X5503Y1652D02*
X5510Y1652D01*
X0Y1651D02*
X7Y1651D01*
X5503Y1651D02*
X5510Y1651D01*
X0Y1650D02*
X7Y1650D01*
X5503Y1650D02*
X5510Y1650D01*
X0Y1649D02*
X7Y1649D01*
X5503Y1649D02*
X5510Y1649D01*
X0Y1648D02*
X7Y1648D01*
X5503Y1648D02*
X5510Y1648D01*
X0Y1647D02*
X7Y1647D01*
X5503Y1647D02*
X5510Y1647D01*
X0Y1646D02*
X7Y1646D01*
X5503Y1646D02*
X5510Y1646D01*
X0Y1645D02*
X7Y1645D01*
X5503Y1645D02*
X5510Y1645D01*
X0Y1644D02*
X7Y1644D01*
X5503Y1644D02*
X5510Y1644D01*
X0Y1643D02*
X7Y1643D01*
X5503Y1643D02*
X5510Y1643D01*
X0Y1642D02*
X7Y1642D01*
X5503Y1642D02*
X5510Y1642D01*
X0Y1641D02*
X7Y1641D01*
X5503Y1641D02*
X5510Y1641D01*
X0Y1640D02*
X7Y1640D01*
X5503Y1640D02*
X5510Y1640D01*
X0Y1639D02*
X7Y1639D01*
X5503Y1639D02*
X5510Y1639D01*
X0Y1638D02*
X7Y1638D01*
X5503Y1638D02*
X5510Y1638D01*
X0Y1637D02*
X7Y1637D01*
X5503Y1637D02*
X5510Y1637D01*
X0Y1636D02*
X7Y1636D01*
X5503Y1636D02*
X5510Y1636D01*
X0Y1635D02*
X7Y1635D01*
X5503Y1635D02*
X5510Y1635D01*
X0Y1634D02*
X7Y1634D01*
X5503Y1634D02*
X5510Y1634D01*
X0Y1633D02*
X7Y1633D01*
X5503Y1633D02*
X5510Y1633D01*
X0Y1632D02*
X7Y1632D01*
X5503Y1632D02*
X5510Y1632D01*
X0Y1631D02*
X7Y1631D01*
X5503Y1631D02*
X5510Y1631D01*
X0Y1630D02*
X7Y1630D01*
X5503Y1630D02*
X5510Y1630D01*
X0Y1629D02*
X7Y1629D01*
X5503Y1629D02*
X5510Y1629D01*
X0Y1628D02*
X7Y1628D01*
X5503Y1628D02*
X5510Y1628D01*
X0Y1627D02*
X7Y1627D01*
X5503Y1627D02*
X5510Y1627D01*
X0Y1626D02*
X7Y1626D01*
X5503Y1626D02*
X5510Y1626D01*
X0Y1625D02*
X7Y1625D01*
X5503Y1625D02*
X5510Y1625D01*
X0Y1624D02*
X7Y1624D01*
X5503Y1624D02*
X5510Y1624D01*
X0Y1623D02*
X7Y1623D01*
X5503Y1623D02*
X5510Y1623D01*
X0Y1622D02*
X7Y1622D01*
X5503Y1622D02*
X5510Y1622D01*
X0Y1621D02*
X7Y1621D01*
X5503Y1621D02*
X5510Y1621D01*
X0Y1620D02*
X7Y1620D01*
X5503Y1620D02*
X5510Y1620D01*
X0Y1619D02*
X7Y1619D01*
X5503Y1619D02*
X5510Y1619D01*
X0Y1618D02*
X7Y1618D01*
X5503Y1618D02*
X5510Y1618D01*
X0Y1617D02*
X7Y1617D01*
X5503Y1617D02*
X5510Y1617D01*
X0Y1616D02*
X7Y1616D01*
X5503Y1616D02*
X5510Y1616D01*
X0Y1615D02*
X7Y1615D01*
X5503Y1615D02*
X5510Y1615D01*
X0Y1614D02*
X7Y1614D01*
X5503Y1614D02*
X5510Y1614D01*
X0Y1613D02*
X7Y1613D01*
X5503Y1613D02*
X5510Y1613D01*
X0Y1612D02*
X7Y1612D01*
X5503Y1612D02*
X5510Y1612D01*
X0Y1611D02*
X7Y1611D01*
X5503Y1611D02*
X5510Y1611D01*
X0Y1610D02*
X7Y1610D01*
X5503Y1610D02*
X5510Y1610D01*
X0Y1609D02*
X7Y1609D01*
X5503Y1609D02*
X5510Y1609D01*
X0Y1608D02*
X7Y1608D01*
X5503Y1608D02*
X5510Y1608D01*
X0Y1607D02*
X7Y1607D01*
X5503Y1607D02*
X5510Y1607D01*
X0Y1606D02*
X7Y1606D01*
X5503Y1606D02*
X5510Y1606D01*
X0Y1605D02*
X7Y1605D01*
X5503Y1605D02*
X5510Y1605D01*
X0Y1604D02*
X7Y1604D01*
X5503Y1604D02*
X5510Y1604D01*
X0Y1603D02*
X7Y1603D01*
X5503Y1603D02*
X5510Y1603D01*
X0Y1602D02*
X7Y1602D01*
X5503Y1602D02*
X5510Y1602D01*
X0Y1601D02*
X7Y1601D01*
X5503Y1601D02*
X5510Y1601D01*
X0Y1600D02*
X7Y1600D01*
X5503Y1600D02*
X5510Y1600D01*
X0Y1599D02*
X7Y1599D01*
X5503Y1599D02*
X5510Y1599D01*
X0Y1598D02*
X7Y1598D01*
X5503Y1598D02*
X5510Y1598D01*
X0Y1597D02*
X7Y1597D01*
X5503Y1597D02*
X5510Y1597D01*
X0Y1596D02*
X7Y1596D01*
X5503Y1596D02*
X5510Y1596D01*
X0Y1595D02*
X7Y1595D01*
X5503Y1595D02*
X5510Y1595D01*
X0Y1594D02*
X7Y1594D01*
X5503Y1594D02*
X5510Y1594D01*
X0Y1593D02*
X7Y1593D01*
X5503Y1593D02*
X5510Y1593D01*
X0Y1592D02*
X7Y1592D01*
X5503Y1592D02*
X5510Y1592D01*
X0Y1591D02*
X7Y1591D01*
X5503Y1591D02*
X5510Y1591D01*
X0Y1590D02*
X7Y1590D01*
X5503Y1590D02*
X5510Y1590D01*
X0Y1589D02*
X7Y1589D01*
X5503Y1589D02*
X5510Y1589D01*
X0Y1588D02*
X7Y1588D01*
X5503Y1588D02*
X5510Y1588D01*
X0Y1587D02*
X7Y1587D01*
X5503Y1587D02*
X5510Y1587D01*
X0Y1586D02*
X7Y1586D01*
X5503Y1586D02*
X5510Y1586D01*
X0Y1585D02*
X7Y1585D01*
X5503Y1585D02*
X5510Y1585D01*
X0Y1584D02*
X7Y1584D01*
X5503Y1584D02*
X5510Y1584D01*
X0Y1583D02*
X7Y1583D01*
X5503Y1583D02*
X5510Y1583D01*
X0Y1582D02*
X7Y1582D01*
X5503Y1582D02*
X5510Y1582D01*
X0Y1581D02*
X7Y1581D01*
X5503Y1581D02*
X5510Y1581D01*
X0Y1580D02*
X7Y1580D01*
X5503Y1580D02*
X5510Y1580D01*
X0Y1579D02*
X7Y1579D01*
X5503Y1579D02*
X5510Y1579D01*
X0Y1578D02*
X7Y1578D01*
X5503Y1578D02*
X5510Y1578D01*
X0Y1577D02*
X7Y1577D01*
X5503Y1577D02*
X5510Y1577D01*
X0Y1576D02*
X7Y1576D01*
X5503Y1576D02*
X5510Y1576D01*
X0Y1575D02*
X7Y1575D01*
X5503Y1575D02*
X5510Y1575D01*
X0Y1574D02*
X7Y1574D01*
X5503Y1574D02*
X5510Y1574D01*
X0Y1573D02*
X7Y1573D01*
X5503Y1573D02*
X5510Y1573D01*
X0Y1572D02*
X7Y1572D01*
X5503Y1572D02*
X5510Y1572D01*
X0Y1571D02*
X7Y1571D01*
X5503Y1571D02*
X5510Y1571D01*
X0Y1570D02*
X7Y1570D01*
X5503Y1570D02*
X5510Y1570D01*
X0Y1569D02*
X7Y1569D01*
X5503Y1569D02*
X5510Y1569D01*
X0Y1568D02*
X7Y1568D01*
X5503Y1568D02*
X5510Y1568D01*
X0Y1567D02*
X7Y1567D01*
X5503Y1567D02*
X5510Y1567D01*
X0Y1566D02*
X7Y1566D01*
X5503Y1566D02*
X5510Y1566D01*
X0Y1565D02*
X7Y1565D01*
X5503Y1565D02*
X5510Y1565D01*
X0Y1564D02*
X7Y1564D01*
X5503Y1564D02*
X5510Y1564D01*
X0Y1563D02*
X7Y1563D01*
X5503Y1563D02*
X5510Y1563D01*
X0Y1562D02*
X7Y1562D01*
X5503Y1562D02*
X5510Y1562D01*
X0Y1561D02*
X7Y1561D01*
X5503Y1561D02*
X5510Y1561D01*
X0Y1560D02*
X7Y1560D01*
X5503Y1560D02*
X5510Y1560D01*
X0Y1559D02*
X7Y1559D01*
X5503Y1559D02*
X5510Y1559D01*
X0Y1558D02*
X7Y1558D01*
X5503Y1558D02*
X5510Y1558D01*
X0Y1557D02*
X7Y1557D01*
X5503Y1557D02*
X5510Y1557D01*
X0Y1556D02*
X7Y1556D01*
X5503Y1556D02*
X5510Y1556D01*
X0Y1555D02*
X7Y1555D01*
X5503Y1555D02*
X5510Y1555D01*
X0Y1554D02*
X7Y1554D01*
X5503Y1554D02*
X5510Y1554D01*
X0Y1553D02*
X7Y1553D01*
X5503Y1553D02*
X5510Y1553D01*
X0Y1552D02*
X7Y1552D01*
X5503Y1552D02*
X5510Y1552D01*
X0Y1551D02*
X7Y1551D01*
X5503Y1551D02*
X5510Y1551D01*
X0Y1550D02*
X7Y1550D01*
X5503Y1550D02*
X5510Y1550D01*
X0Y1549D02*
X7Y1549D01*
X5503Y1549D02*
X5510Y1549D01*
X0Y1548D02*
X7Y1548D01*
X5503Y1548D02*
X5510Y1548D01*
X0Y1547D02*
X7Y1547D01*
X5503Y1547D02*
X5510Y1547D01*
X0Y1546D02*
X7Y1546D01*
X5503Y1546D02*
X5510Y1546D01*
X0Y1545D02*
X7Y1545D01*
X5503Y1545D02*
X5510Y1545D01*
X0Y1544D02*
X7Y1544D01*
X5503Y1544D02*
X5510Y1544D01*
X0Y1543D02*
X7Y1543D01*
X5503Y1543D02*
X5510Y1543D01*
X0Y1542D02*
X7Y1542D01*
X5503Y1542D02*
X5510Y1542D01*
X0Y1541D02*
X7Y1541D01*
X5503Y1541D02*
X5510Y1541D01*
X0Y1540D02*
X7Y1540D01*
X5503Y1540D02*
X5510Y1540D01*
X0Y1539D02*
X7Y1539D01*
X5503Y1539D02*
X5510Y1539D01*
X0Y1538D02*
X7Y1538D01*
X5503Y1538D02*
X5510Y1538D01*
X0Y1537D02*
X7Y1537D01*
X5503Y1537D02*
X5510Y1537D01*
X0Y1536D02*
X7Y1536D01*
X5503Y1536D02*
X5510Y1536D01*
X0Y1535D02*
X7Y1535D01*
X5503Y1535D02*
X5510Y1535D01*
X0Y1534D02*
X7Y1534D01*
X5503Y1534D02*
X5510Y1534D01*
X0Y1533D02*
X7Y1533D01*
X5503Y1533D02*
X5510Y1533D01*
X0Y1532D02*
X7Y1532D01*
X5503Y1532D02*
X5510Y1532D01*
X0Y1531D02*
X7Y1531D01*
X5503Y1531D02*
X5510Y1531D01*
X0Y1530D02*
X7Y1530D01*
X5503Y1530D02*
X5510Y1530D01*
X0Y1529D02*
X7Y1529D01*
X5503Y1529D02*
X5510Y1529D01*
X0Y1528D02*
X7Y1528D01*
X5503Y1528D02*
X5510Y1528D01*
X0Y1527D02*
X7Y1527D01*
X5503Y1527D02*
X5510Y1527D01*
X0Y1526D02*
X7Y1526D01*
X5503Y1526D02*
X5510Y1526D01*
X0Y1525D02*
X7Y1525D01*
X5503Y1525D02*
X5510Y1525D01*
X0Y1524D02*
X7Y1524D01*
X5503Y1524D02*
X5510Y1524D01*
X0Y1523D02*
X7Y1523D01*
X5503Y1523D02*
X5510Y1523D01*
X0Y1522D02*
X7Y1522D01*
X5503Y1522D02*
X5510Y1522D01*
X0Y1521D02*
X7Y1521D01*
X5503Y1521D02*
X5510Y1521D01*
X0Y1520D02*
X7Y1520D01*
X5503Y1520D02*
X5510Y1520D01*
X0Y1519D02*
X7Y1519D01*
X5503Y1519D02*
X5510Y1519D01*
X0Y1518D02*
X7Y1518D01*
X5503Y1518D02*
X5510Y1518D01*
X0Y1517D02*
X7Y1517D01*
X5503Y1517D02*
X5510Y1517D01*
X0Y1516D02*
X7Y1516D01*
X5503Y1516D02*
X5510Y1516D01*
X0Y1515D02*
X7Y1515D01*
X5503Y1515D02*
X5510Y1515D01*
X0Y1514D02*
X7Y1514D01*
X5503Y1514D02*
X5510Y1514D01*
X0Y1513D02*
X7Y1513D01*
X5503Y1513D02*
X5510Y1513D01*
X0Y1512D02*
X7Y1512D01*
X5503Y1512D02*
X5510Y1512D01*
X0Y1511D02*
X7Y1511D01*
X5503Y1511D02*
X5510Y1511D01*
X0Y1510D02*
X7Y1510D01*
X5503Y1510D02*
X5510Y1510D01*
X0Y1509D02*
X7Y1509D01*
X5503Y1509D02*
X5510Y1509D01*
X0Y1508D02*
X7Y1508D01*
X5503Y1508D02*
X5510Y1508D01*
X0Y1507D02*
X7Y1507D01*
X5503Y1507D02*
X5510Y1507D01*
X0Y1506D02*
X7Y1506D01*
X5503Y1506D02*
X5510Y1506D01*
X0Y1505D02*
X7Y1505D01*
X5503Y1505D02*
X5510Y1505D01*
X0Y1504D02*
X7Y1504D01*
X5503Y1504D02*
X5510Y1504D01*
X0Y1503D02*
X7Y1503D01*
X5503Y1503D02*
X5510Y1503D01*
X0Y1502D02*
X7Y1502D01*
X5503Y1502D02*
X5510Y1502D01*
X0Y1501D02*
X7Y1501D01*
X5503Y1501D02*
X5510Y1501D01*
X0Y1500D02*
X7Y1500D01*
X5503Y1500D02*
X5510Y1500D01*
X0Y1499D02*
X7Y1499D01*
X5503Y1499D02*
X5510Y1499D01*
X0Y1498D02*
X7Y1498D01*
X5503Y1498D02*
X5510Y1498D01*
X0Y1497D02*
X7Y1497D01*
X5503Y1497D02*
X5510Y1497D01*
X0Y1496D02*
X7Y1496D01*
X5503Y1496D02*
X5510Y1496D01*
X0Y1495D02*
X7Y1495D01*
X5503Y1495D02*
X5510Y1495D01*
X0Y1494D02*
X7Y1494D01*
X5503Y1494D02*
X5510Y1494D01*
X0Y1493D02*
X7Y1493D01*
X5503Y1493D02*
X5510Y1493D01*
X0Y1492D02*
X7Y1492D01*
X5503Y1492D02*
X5510Y1492D01*
X0Y1491D02*
X7Y1491D01*
X5503Y1491D02*
X5510Y1491D01*
X0Y1490D02*
X7Y1490D01*
X5503Y1490D02*
X5510Y1490D01*
X0Y1489D02*
X7Y1489D01*
X5503Y1489D02*
X5510Y1489D01*
X0Y1488D02*
X7Y1488D01*
X5503Y1488D02*
X5510Y1488D01*
X0Y1487D02*
X7Y1487D01*
X5503Y1487D02*
X5510Y1487D01*
X0Y1486D02*
X7Y1486D01*
X5503Y1486D02*
X5510Y1486D01*
X0Y1485D02*
X7Y1485D01*
X5503Y1485D02*
X5510Y1485D01*
X0Y1484D02*
X7Y1484D01*
X5503Y1484D02*
X5510Y1484D01*
X0Y1483D02*
X7Y1483D01*
X5503Y1483D02*
X5510Y1483D01*
X0Y1482D02*
X7Y1482D01*
X5503Y1482D02*
X5510Y1482D01*
X0Y1481D02*
X7Y1481D01*
X5503Y1481D02*
X5510Y1481D01*
X0Y1480D02*
X7Y1480D01*
X5503Y1480D02*
X5510Y1480D01*
X0Y1479D02*
X7Y1479D01*
X5503Y1479D02*
X5510Y1479D01*
X0Y1478D02*
X7Y1478D01*
X5503Y1478D02*
X5510Y1478D01*
X0Y1477D02*
X7Y1477D01*
X5503Y1477D02*
X5510Y1477D01*
X0Y1476D02*
X7Y1476D01*
X5503Y1476D02*
X5510Y1476D01*
X0Y1475D02*
X7Y1475D01*
X5503Y1475D02*
X5510Y1475D01*
X0Y1474D02*
X7Y1474D01*
X5503Y1474D02*
X5510Y1474D01*
X0Y1473D02*
X7Y1473D01*
X5503Y1473D02*
X5510Y1473D01*
X0Y1472D02*
X7Y1472D01*
X5503Y1472D02*
X5510Y1472D01*
X0Y1471D02*
X7Y1471D01*
X5503Y1471D02*
X5510Y1471D01*
X0Y1470D02*
X7Y1470D01*
X5503Y1470D02*
X5510Y1470D01*
X0Y1469D02*
X7Y1469D01*
X5503Y1469D02*
X5510Y1469D01*
X0Y1468D02*
X7Y1468D01*
X5503Y1468D02*
X5510Y1468D01*
X0Y1467D02*
X7Y1467D01*
X5503Y1467D02*
X5510Y1467D01*
X0Y1466D02*
X7Y1466D01*
X5503Y1466D02*
X5510Y1466D01*
X0Y1465D02*
X7Y1465D01*
X5503Y1465D02*
X5510Y1465D01*
X0Y1464D02*
X7Y1464D01*
X5503Y1464D02*
X5510Y1464D01*
X0Y1463D02*
X7Y1463D01*
X5503Y1463D02*
X5510Y1463D01*
X0Y1462D02*
X7Y1462D01*
X5503Y1462D02*
X5510Y1462D01*
X0Y1461D02*
X7Y1461D01*
X5503Y1461D02*
X5510Y1461D01*
X0Y1460D02*
X7Y1460D01*
X5503Y1460D02*
X5510Y1460D01*
X0Y1459D02*
X7Y1459D01*
X5503Y1459D02*
X5510Y1459D01*
X0Y1458D02*
X7Y1458D01*
X5503Y1458D02*
X5510Y1458D01*
X0Y1457D02*
X7Y1457D01*
X5503Y1457D02*
X5510Y1457D01*
X0Y1456D02*
X7Y1456D01*
X5503Y1456D02*
X5510Y1456D01*
X0Y1455D02*
X7Y1455D01*
X5503Y1455D02*
X5510Y1455D01*
X0Y1454D02*
X7Y1454D01*
X5503Y1454D02*
X5510Y1454D01*
X0Y1453D02*
X7Y1453D01*
X5503Y1453D02*
X5510Y1453D01*
X0Y1452D02*
X7Y1452D01*
X5503Y1452D02*
X5510Y1452D01*
X0Y1451D02*
X7Y1451D01*
X5503Y1451D02*
X5510Y1451D01*
X0Y1450D02*
X7Y1450D01*
X5503Y1450D02*
X5510Y1450D01*
X0Y1449D02*
X7Y1449D01*
X5503Y1449D02*
X5510Y1449D01*
X0Y1448D02*
X7Y1448D01*
X5503Y1448D02*
X5510Y1448D01*
X0Y1447D02*
X7Y1447D01*
X5503Y1447D02*
X5510Y1447D01*
X0Y1446D02*
X7Y1446D01*
X5503Y1446D02*
X5510Y1446D01*
X0Y1445D02*
X7Y1445D01*
X5503Y1445D02*
X5510Y1445D01*
X0Y1444D02*
X7Y1444D01*
X5503Y1444D02*
X5510Y1444D01*
X0Y1443D02*
X7Y1443D01*
X5503Y1443D02*
X5510Y1443D01*
X0Y1442D02*
X7Y1442D01*
X5503Y1442D02*
X5510Y1442D01*
X0Y1441D02*
X7Y1441D01*
X5503Y1441D02*
X5510Y1441D01*
X0Y1440D02*
X7Y1440D01*
X5503Y1440D02*
X5510Y1440D01*
X0Y1439D02*
X7Y1439D01*
X5503Y1439D02*
X5510Y1439D01*
X0Y1438D02*
X7Y1438D01*
X5503Y1438D02*
X5510Y1438D01*
X0Y1437D02*
X7Y1437D01*
X5503Y1437D02*
X5510Y1437D01*
X0Y1436D02*
X7Y1436D01*
X5503Y1436D02*
X5510Y1436D01*
X0Y1435D02*
X7Y1435D01*
X5503Y1435D02*
X5510Y1435D01*
X0Y1434D02*
X7Y1434D01*
X5503Y1434D02*
X5510Y1434D01*
X0Y1433D02*
X7Y1433D01*
X5503Y1433D02*
X5510Y1433D01*
X0Y1432D02*
X7Y1432D01*
X5503Y1432D02*
X5510Y1432D01*
X0Y1431D02*
X7Y1431D01*
X5503Y1431D02*
X5510Y1431D01*
X0Y1430D02*
X7Y1430D01*
X5503Y1430D02*
X5510Y1430D01*
X0Y1429D02*
X7Y1429D01*
X5503Y1429D02*
X5510Y1429D01*
X0Y1428D02*
X7Y1428D01*
X5503Y1428D02*
X5510Y1428D01*
X0Y1427D02*
X7Y1427D01*
X5503Y1427D02*
X5510Y1427D01*
X0Y1426D02*
X7Y1426D01*
X5503Y1426D02*
X5510Y1426D01*
X0Y1425D02*
X7Y1425D01*
X5503Y1425D02*
X5510Y1425D01*
X0Y1424D02*
X7Y1424D01*
X5503Y1424D02*
X5510Y1424D01*
X0Y1423D02*
X7Y1423D01*
X5503Y1423D02*
X5510Y1423D01*
X0Y1422D02*
X7Y1422D01*
X5503Y1422D02*
X5510Y1422D01*
X0Y1421D02*
X7Y1421D01*
X5503Y1421D02*
X5510Y1421D01*
X0Y1420D02*
X7Y1420D01*
X5503Y1420D02*
X5510Y1420D01*
X0Y1419D02*
X7Y1419D01*
X5503Y1419D02*
X5510Y1419D01*
X0Y1418D02*
X7Y1418D01*
X5503Y1418D02*
X5510Y1418D01*
X0Y1417D02*
X7Y1417D01*
X5503Y1417D02*
X5510Y1417D01*
X0Y1416D02*
X7Y1416D01*
X5503Y1416D02*
X5510Y1416D01*
X0Y1415D02*
X7Y1415D01*
X5503Y1415D02*
X5510Y1415D01*
X0Y1414D02*
X7Y1414D01*
X5503Y1414D02*
X5510Y1414D01*
X0Y1413D02*
X7Y1413D01*
X5503Y1413D02*
X5510Y1413D01*
X0Y1412D02*
X7Y1412D01*
X5503Y1412D02*
X5510Y1412D01*
X0Y1411D02*
X7Y1411D01*
X5503Y1411D02*
X5510Y1411D01*
X0Y1410D02*
X7Y1410D01*
X5503Y1410D02*
X5510Y1410D01*
X0Y1409D02*
X7Y1409D01*
X5503Y1409D02*
X5510Y1409D01*
X0Y1408D02*
X7Y1408D01*
X5503Y1408D02*
X5510Y1408D01*
X0Y1407D02*
X7Y1407D01*
X5503Y1407D02*
X5510Y1407D01*
X0Y1406D02*
X7Y1406D01*
X5503Y1406D02*
X5510Y1406D01*
X0Y1405D02*
X7Y1405D01*
X5503Y1405D02*
X5510Y1405D01*
X0Y1404D02*
X7Y1404D01*
X5503Y1404D02*
X5510Y1404D01*
X0Y1403D02*
X7Y1403D01*
X5503Y1403D02*
X5510Y1403D01*
X0Y1402D02*
X7Y1402D01*
X5503Y1402D02*
X5510Y1402D01*
X0Y1401D02*
X7Y1401D01*
X5503Y1401D02*
X5510Y1401D01*
X0Y1400D02*
X7Y1400D01*
X5503Y1400D02*
X5510Y1400D01*
X0Y1399D02*
X7Y1399D01*
X5503Y1399D02*
X5510Y1399D01*
X0Y1398D02*
X7Y1398D01*
X5503Y1398D02*
X5510Y1398D01*
X0Y1397D02*
X7Y1397D01*
X5503Y1397D02*
X5510Y1397D01*
X0Y1396D02*
X7Y1396D01*
X5503Y1396D02*
X5510Y1396D01*
X0Y1395D02*
X7Y1395D01*
X5503Y1395D02*
X5510Y1395D01*
X0Y1394D02*
X7Y1394D01*
X5503Y1394D02*
X5510Y1394D01*
X0Y1393D02*
X7Y1393D01*
X5503Y1393D02*
X5510Y1393D01*
X0Y1392D02*
X7Y1392D01*
X5503Y1392D02*
X5510Y1392D01*
X0Y1391D02*
X7Y1391D01*
X5503Y1391D02*
X5510Y1391D01*
X0Y1390D02*
X7Y1390D01*
X5503Y1390D02*
X5510Y1390D01*
X0Y1389D02*
X7Y1389D01*
X5503Y1389D02*
X5510Y1389D01*
X0Y1388D02*
X7Y1388D01*
X5503Y1388D02*
X5510Y1388D01*
X0Y1387D02*
X7Y1387D01*
X5503Y1387D02*
X5510Y1387D01*
X0Y1386D02*
X7Y1386D01*
X5503Y1386D02*
X5510Y1386D01*
X0Y1385D02*
X7Y1385D01*
X5503Y1385D02*
X5510Y1385D01*
X0Y1384D02*
X7Y1384D01*
X5503Y1384D02*
X5510Y1384D01*
X0Y1383D02*
X7Y1383D01*
X5503Y1383D02*
X5510Y1383D01*
X0Y1382D02*
X7Y1382D01*
X5503Y1382D02*
X5510Y1382D01*
X0Y1381D02*
X7Y1381D01*
X5503Y1381D02*
X5510Y1381D01*
X0Y1380D02*
X7Y1380D01*
X5503Y1380D02*
X5510Y1380D01*
X0Y1379D02*
X7Y1379D01*
X5503Y1379D02*
X5510Y1379D01*
X0Y1378D02*
X7Y1378D01*
X5503Y1378D02*
X5510Y1378D01*
X0Y1377D02*
X7Y1377D01*
X5503Y1377D02*
X5510Y1377D01*
X0Y1376D02*
X7Y1376D01*
X5503Y1376D02*
X5510Y1376D01*
X0Y1375D02*
X7Y1375D01*
X5503Y1375D02*
X5510Y1375D01*
X0Y1374D02*
X7Y1374D01*
X5503Y1374D02*
X5510Y1374D01*
X0Y1373D02*
X7Y1373D01*
X5503Y1373D02*
X5510Y1373D01*
X0Y1372D02*
X7Y1372D01*
X5503Y1372D02*
X5510Y1372D01*
X0Y1371D02*
X7Y1371D01*
X5503Y1371D02*
X5510Y1371D01*
X0Y1370D02*
X7Y1370D01*
X5503Y1370D02*
X5510Y1370D01*
X0Y1369D02*
X7Y1369D01*
X5503Y1369D02*
X5510Y1369D01*
X0Y1368D02*
X7Y1368D01*
X5503Y1368D02*
X5510Y1368D01*
X0Y1367D02*
X7Y1367D01*
X5503Y1367D02*
X5510Y1367D01*
X0Y1366D02*
X7Y1366D01*
X5503Y1366D02*
X5510Y1366D01*
X0Y1365D02*
X7Y1365D01*
X5503Y1365D02*
X5510Y1365D01*
X0Y1364D02*
X7Y1364D01*
X5503Y1364D02*
X5510Y1364D01*
X0Y1363D02*
X7Y1363D01*
X5503Y1363D02*
X5510Y1363D01*
X0Y1362D02*
X7Y1362D01*
X5503Y1362D02*
X5510Y1362D01*
X0Y1361D02*
X7Y1361D01*
X5503Y1361D02*
X5510Y1361D01*
X0Y1360D02*
X7Y1360D01*
X5503Y1360D02*
X5510Y1360D01*
X0Y1359D02*
X7Y1359D01*
X5503Y1359D02*
X5510Y1359D01*
X0Y1358D02*
X7Y1358D01*
X5503Y1358D02*
X5510Y1358D01*
X0Y1357D02*
X7Y1357D01*
X5503Y1357D02*
X5510Y1357D01*
X0Y1356D02*
X7Y1356D01*
X5503Y1356D02*
X5510Y1356D01*
X0Y1355D02*
X7Y1355D01*
X5503Y1355D02*
X5510Y1355D01*
X0Y1354D02*
X7Y1354D01*
X5503Y1354D02*
X5510Y1354D01*
X0Y1353D02*
X7Y1353D01*
X5503Y1353D02*
X5510Y1353D01*
X0Y1352D02*
X7Y1352D01*
X5503Y1352D02*
X5510Y1352D01*
X0Y1351D02*
X7Y1351D01*
X5503Y1351D02*
X5510Y1351D01*
X0Y1350D02*
X7Y1350D01*
X5503Y1350D02*
X5510Y1350D01*
X0Y1349D02*
X7Y1349D01*
X5503Y1349D02*
X5510Y1349D01*
X0Y1348D02*
X7Y1348D01*
X5503Y1348D02*
X5510Y1348D01*
X0Y1347D02*
X7Y1347D01*
X5503Y1347D02*
X5510Y1347D01*
X0Y1346D02*
X7Y1346D01*
X5503Y1346D02*
X5510Y1346D01*
X0Y1345D02*
X7Y1345D01*
X5503Y1345D02*
X5510Y1345D01*
X0Y1344D02*
X7Y1344D01*
X5503Y1344D02*
X5510Y1344D01*
X0Y1343D02*
X7Y1343D01*
X5503Y1343D02*
X5510Y1343D01*
X0Y1342D02*
X7Y1342D01*
X5503Y1342D02*
X5510Y1342D01*
X0Y1341D02*
X7Y1341D01*
X5503Y1341D02*
X5510Y1341D01*
X0Y1340D02*
X7Y1340D01*
X5503Y1340D02*
X5510Y1340D01*
X0Y1339D02*
X7Y1339D01*
X5503Y1339D02*
X5510Y1339D01*
X0Y1338D02*
X7Y1338D01*
X5503Y1338D02*
X5510Y1338D01*
X0Y1337D02*
X7Y1337D01*
X5503Y1337D02*
X5510Y1337D01*
X0Y1336D02*
X7Y1336D01*
X5503Y1336D02*
X5510Y1336D01*
X0Y1335D02*
X7Y1335D01*
X5503Y1335D02*
X5510Y1335D01*
X0Y1334D02*
X7Y1334D01*
X5503Y1334D02*
X5510Y1334D01*
X0Y1333D02*
X7Y1333D01*
X5503Y1333D02*
X5510Y1333D01*
X0Y1332D02*
X7Y1332D01*
X5503Y1332D02*
X5510Y1332D01*
X0Y1331D02*
X7Y1331D01*
X5503Y1331D02*
X5510Y1331D01*
X0Y1330D02*
X7Y1330D01*
X5503Y1330D02*
X5510Y1330D01*
X0Y1329D02*
X7Y1329D01*
X5503Y1329D02*
X5510Y1329D01*
X0Y1328D02*
X7Y1328D01*
X5503Y1328D02*
X5510Y1328D01*
X0Y1327D02*
X7Y1327D01*
X5503Y1327D02*
X5510Y1327D01*
X0Y1326D02*
X7Y1326D01*
X5503Y1326D02*
X5510Y1326D01*
X0Y1325D02*
X7Y1325D01*
X5503Y1325D02*
X5510Y1325D01*
X0Y1324D02*
X7Y1324D01*
X5503Y1324D02*
X5510Y1324D01*
X0Y1323D02*
X7Y1323D01*
X5503Y1323D02*
X5510Y1323D01*
X0Y1322D02*
X7Y1322D01*
X5503Y1322D02*
X5510Y1322D01*
X0Y1321D02*
X7Y1321D01*
X5503Y1321D02*
X5510Y1321D01*
X0Y1320D02*
X7Y1320D01*
X5503Y1320D02*
X5510Y1320D01*
X0Y1319D02*
X7Y1319D01*
X5503Y1319D02*
X5510Y1319D01*
X0Y1318D02*
X7Y1318D01*
X5503Y1318D02*
X5510Y1318D01*
X0Y1317D02*
X7Y1317D01*
X5503Y1317D02*
X5510Y1317D01*
X0Y1316D02*
X7Y1316D01*
X5503Y1316D02*
X5510Y1316D01*
X0Y1315D02*
X7Y1315D01*
X5503Y1315D02*
X5510Y1315D01*
X0Y1314D02*
X7Y1314D01*
X5503Y1314D02*
X5510Y1314D01*
X0Y1313D02*
X7Y1313D01*
X5503Y1313D02*
X5510Y1313D01*
X0Y1312D02*
X7Y1312D01*
X5503Y1312D02*
X5510Y1312D01*
X0Y1311D02*
X7Y1311D01*
X5503Y1311D02*
X5510Y1311D01*
X0Y1310D02*
X7Y1310D01*
X5503Y1310D02*
X5510Y1310D01*
X0Y1309D02*
X7Y1309D01*
X5503Y1309D02*
X5510Y1309D01*
X0Y1308D02*
X7Y1308D01*
X5503Y1308D02*
X5510Y1308D01*
X0Y1307D02*
X7Y1307D01*
X5503Y1307D02*
X5510Y1307D01*
X0Y1306D02*
X7Y1306D01*
X5503Y1306D02*
X5510Y1306D01*
X0Y1305D02*
X7Y1305D01*
X5503Y1305D02*
X5510Y1305D01*
X0Y1304D02*
X7Y1304D01*
X5503Y1304D02*
X5510Y1304D01*
X0Y1303D02*
X7Y1303D01*
X5503Y1303D02*
X5510Y1303D01*
X0Y1302D02*
X7Y1302D01*
X5503Y1302D02*
X5510Y1302D01*
X0Y1301D02*
X7Y1301D01*
X5503Y1301D02*
X5510Y1301D01*
X0Y1300D02*
X7Y1300D01*
X5503Y1300D02*
X5510Y1300D01*
X0Y1299D02*
X7Y1299D01*
X5503Y1299D02*
X5510Y1299D01*
X0Y1298D02*
X7Y1298D01*
X5503Y1298D02*
X5510Y1298D01*
X0Y1297D02*
X7Y1297D01*
X5503Y1297D02*
X5510Y1297D01*
X0Y1296D02*
X7Y1296D01*
X5503Y1296D02*
X5510Y1296D01*
X0Y1295D02*
X7Y1295D01*
X5503Y1295D02*
X5510Y1295D01*
X0Y1294D02*
X7Y1294D01*
X5503Y1294D02*
X5510Y1294D01*
X0Y1293D02*
X7Y1293D01*
X5503Y1293D02*
X5510Y1293D01*
X0Y1292D02*
X7Y1292D01*
X5503Y1292D02*
X5510Y1292D01*
X0Y1291D02*
X7Y1291D01*
X5503Y1291D02*
X5510Y1291D01*
X0Y1290D02*
X7Y1290D01*
X5503Y1290D02*
X5510Y1290D01*
X0Y1289D02*
X7Y1289D01*
X5503Y1289D02*
X5510Y1289D01*
X0Y1288D02*
X7Y1288D01*
X5503Y1288D02*
X5510Y1288D01*
X0Y1287D02*
X7Y1287D01*
X5503Y1287D02*
X5510Y1287D01*
X0Y1286D02*
X7Y1286D01*
X5503Y1286D02*
X5510Y1286D01*
X0Y1285D02*
X7Y1285D01*
X5503Y1285D02*
X5510Y1285D01*
X0Y1284D02*
X7Y1284D01*
X5503Y1284D02*
X5510Y1284D01*
X0Y1283D02*
X7Y1283D01*
X5503Y1283D02*
X5510Y1283D01*
X0Y1282D02*
X7Y1282D01*
X5503Y1282D02*
X5510Y1282D01*
X0Y1281D02*
X7Y1281D01*
X5503Y1281D02*
X5510Y1281D01*
X0Y1280D02*
X7Y1280D01*
X5503Y1280D02*
X5510Y1280D01*
X0Y1279D02*
X7Y1279D01*
X5503Y1279D02*
X5510Y1279D01*
X0Y1278D02*
X7Y1278D01*
X5503Y1278D02*
X5510Y1278D01*
X0Y1277D02*
X7Y1277D01*
X5503Y1277D02*
X5510Y1277D01*
X0Y1276D02*
X7Y1276D01*
X5503Y1276D02*
X5510Y1276D01*
X0Y1275D02*
X7Y1275D01*
X5503Y1275D02*
X5510Y1275D01*
X0Y1274D02*
X7Y1274D01*
X5503Y1274D02*
X5510Y1274D01*
X0Y1273D02*
X7Y1273D01*
X5503Y1273D02*
X5510Y1273D01*
X0Y1272D02*
X7Y1272D01*
X5503Y1272D02*
X5510Y1272D01*
X0Y1271D02*
X7Y1271D01*
X5503Y1271D02*
X5510Y1271D01*
X0Y1270D02*
X7Y1270D01*
X5503Y1270D02*
X5510Y1270D01*
X0Y1269D02*
X7Y1269D01*
X5503Y1269D02*
X5510Y1269D01*
X0Y1268D02*
X7Y1268D01*
X5503Y1268D02*
X5510Y1268D01*
X0Y1267D02*
X7Y1267D01*
X5503Y1267D02*
X5510Y1267D01*
X0Y1266D02*
X7Y1266D01*
X5503Y1266D02*
X5510Y1266D01*
X0Y1265D02*
X7Y1265D01*
X5503Y1265D02*
X5510Y1265D01*
X0Y1264D02*
X7Y1264D01*
X5503Y1264D02*
X5510Y1264D01*
X0Y1263D02*
X7Y1263D01*
X5503Y1263D02*
X5510Y1263D01*
X0Y1262D02*
X7Y1262D01*
X5503Y1262D02*
X5510Y1262D01*
X0Y1261D02*
X7Y1261D01*
X5503Y1261D02*
X5510Y1261D01*
X0Y1260D02*
X7Y1260D01*
X5503Y1260D02*
X5510Y1260D01*
X0Y1259D02*
X7Y1259D01*
X5503Y1259D02*
X5510Y1259D01*
X0Y1258D02*
X7Y1258D01*
X5503Y1258D02*
X5510Y1258D01*
X0Y1257D02*
X7Y1257D01*
X5503Y1257D02*
X5510Y1257D01*
X0Y1256D02*
X7Y1256D01*
X5503Y1256D02*
X5510Y1256D01*
X0Y1255D02*
X7Y1255D01*
X5503Y1255D02*
X5510Y1255D01*
X0Y1254D02*
X7Y1254D01*
X5503Y1254D02*
X5510Y1254D01*
X0Y1253D02*
X7Y1253D01*
X5503Y1253D02*
X5510Y1253D01*
X0Y1252D02*
X7Y1252D01*
X5503Y1252D02*
X5510Y1252D01*
X0Y1251D02*
X7Y1251D01*
X5503Y1251D02*
X5510Y1251D01*
X0Y1250D02*
X7Y1250D01*
X5503Y1250D02*
X5510Y1250D01*
X0Y1249D02*
X7Y1249D01*
X5503Y1249D02*
X5510Y1249D01*
X0Y1248D02*
X7Y1248D01*
X5503Y1248D02*
X5510Y1248D01*
X0Y1247D02*
X7Y1247D01*
X5503Y1247D02*
X5510Y1247D01*
X0Y1246D02*
X7Y1246D01*
X5503Y1246D02*
X5510Y1246D01*
X0Y1245D02*
X7Y1245D01*
X5503Y1245D02*
X5510Y1245D01*
X0Y1244D02*
X7Y1244D01*
X5503Y1244D02*
X5510Y1244D01*
X0Y1243D02*
X7Y1243D01*
X5503Y1243D02*
X5510Y1243D01*
X0Y1242D02*
X7Y1242D01*
X5503Y1242D02*
X5510Y1242D01*
X0Y1241D02*
X7Y1241D01*
X5503Y1241D02*
X5510Y1241D01*
X0Y1240D02*
X7Y1240D01*
X5503Y1240D02*
X5510Y1240D01*
X0Y1239D02*
X7Y1239D01*
X5503Y1239D02*
X5510Y1239D01*
X0Y1238D02*
X7Y1238D01*
X5503Y1238D02*
X5510Y1238D01*
X0Y1237D02*
X7Y1237D01*
X5503Y1237D02*
X5510Y1237D01*
X0Y1236D02*
X7Y1236D01*
X5503Y1236D02*
X5510Y1236D01*
X0Y1235D02*
X7Y1235D01*
X5503Y1235D02*
X5510Y1235D01*
X0Y1234D02*
X7Y1234D01*
X5503Y1234D02*
X5510Y1234D01*
X0Y1233D02*
X7Y1233D01*
X5503Y1233D02*
X5510Y1233D01*
X0Y1232D02*
X7Y1232D01*
X5503Y1232D02*
X5510Y1232D01*
X0Y1231D02*
X7Y1231D01*
X5503Y1231D02*
X5510Y1231D01*
X0Y1230D02*
X7Y1230D01*
X5503Y1230D02*
X5510Y1230D01*
X0Y1229D02*
X7Y1229D01*
X5503Y1229D02*
X5510Y1229D01*
X0Y1228D02*
X7Y1228D01*
X5503Y1228D02*
X5510Y1228D01*
X0Y1227D02*
X7Y1227D01*
X5503Y1227D02*
X5510Y1227D01*
X0Y1226D02*
X7Y1226D01*
X5503Y1226D02*
X5510Y1226D01*
X0Y1225D02*
X7Y1225D01*
X5503Y1225D02*
X5510Y1225D01*
X0Y1224D02*
X7Y1224D01*
X5503Y1224D02*
X5510Y1224D01*
X0Y1223D02*
X7Y1223D01*
X5503Y1223D02*
X5510Y1223D01*
X0Y1222D02*
X7Y1222D01*
X5503Y1222D02*
X5510Y1222D01*
X0Y1221D02*
X7Y1221D01*
X5503Y1221D02*
X5510Y1221D01*
X0Y1220D02*
X7Y1220D01*
X5503Y1220D02*
X5510Y1220D01*
X0Y1219D02*
X7Y1219D01*
X5503Y1219D02*
X5510Y1219D01*
X0Y1218D02*
X7Y1218D01*
X5503Y1218D02*
X5510Y1218D01*
X0Y1217D02*
X7Y1217D01*
X5503Y1217D02*
X5510Y1217D01*
X0Y1216D02*
X7Y1216D01*
X5503Y1216D02*
X5510Y1216D01*
X0Y1215D02*
X7Y1215D01*
X5503Y1215D02*
X5510Y1215D01*
X0Y1214D02*
X7Y1214D01*
X5503Y1214D02*
X5510Y1214D01*
X0Y1213D02*
X7Y1213D01*
X5503Y1213D02*
X5510Y1213D01*
X0Y1212D02*
X7Y1212D01*
X5503Y1212D02*
X5510Y1212D01*
X0Y1211D02*
X7Y1211D01*
X5503Y1211D02*
X5510Y1211D01*
X0Y1210D02*
X7Y1210D01*
X5503Y1210D02*
X5510Y1210D01*
X0Y1209D02*
X7Y1209D01*
X5503Y1209D02*
X5510Y1209D01*
X0Y1208D02*
X7Y1208D01*
X5503Y1208D02*
X5510Y1208D01*
X0Y1207D02*
X7Y1207D01*
X5503Y1207D02*
X5510Y1207D01*
X0Y1206D02*
X7Y1206D01*
X5503Y1206D02*
X5510Y1206D01*
X0Y1205D02*
X7Y1205D01*
X5503Y1205D02*
X5510Y1205D01*
X0Y1204D02*
X7Y1204D01*
X5503Y1204D02*
X5510Y1204D01*
X0Y1203D02*
X7Y1203D01*
X5503Y1203D02*
X5510Y1203D01*
X0Y1202D02*
X7Y1202D01*
X5503Y1202D02*
X5510Y1202D01*
X0Y1201D02*
X7Y1201D01*
X5503Y1201D02*
X5510Y1201D01*
X0Y1200D02*
X7Y1200D01*
X5503Y1200D02*
X5510Y1200D01*
X0Y1199D02*
X7Y1199D01*
X5503Y1199D02*
X5510Y1199D01*
X0Y1198D02*
X7Y1198D01*
X5503Y1198D02*
X5510Y1198D01*
X0Y1197D02*
X7Y1197D01*
X5503Y1197D02*
X5510Y1197D01*
X0Y1196D02*
X7Y1196D01*
X5503Y1196D02*
X5510Y1196D01*
X0Y1195D02*
X7Y1195D01*
X5503Y1195D02*
X5510Y1195D01*
X0Y1194D02*
X7Y1194D01*
X5503Y1194D02*
X5510Y1194D01*
X0Y1193D02*
X7Y1193D01*
X5503Y1193D02*
X5510Y1193D01*
X0Y1192D02*
X7Y1192D01*
X5503Y1192D02*
X5510Y1192D01*
X0Y1191D02*
X7Y1191D01*
X5503Y1191D02*
X5510Y1191D01*
X0Y1190D02*
X7Y1190D01*
X5503Y1190D02*
X5510Y1190D01*
X0Y1189D02*
X7Y1189D01*
X5503Y1189D02*
X5510Y1189D01*
X0Y1188D02*
X7Y1188D01*
X5503Y1188D02*
X5510Y1188D01*
X0Y1187D02*
X7Y1187D01*
X5503Y1187D02*
X5510Y1187D01*
X0Y1186D02*
X7Y1186D01*
X5503Y1186D02*
X5510Y1186D01*
X0Y1185D02*
X7Y1185D01*
X5503Y1185D02*
X5510Y1185D01*
X0Y1184D02*
X7Y1184D01*
X5503Y1184D02*
X5510Y1184D01*
X0Y1183D02*
X7Y1183D01*
X5503Y1183D02*
X5510Y1183D01*
X0Y1182D02*
X7Y1182D01*
X5503Y1182D02*
X5510Y1182D01*
X0Y1181D02*
X7Y1181D01*
X5503Y1181D02*
X5510Y1181D01*
X0Y1180D02*
X7Y1180D01*
X5503Y1180D02*
X5510Y1180D01*
X0Y1179D02*
X7Y1179D01*
X5503Y1179D02*
X5510Y1179D01*
X0Y1178D02*
X7Y1178D01*
X5503Y1178D02*
X5510Y1178D01*
X0Y1177D02*
X7Y1177D01*
X5503Y1177D02*
X5510Y1177D01*
X0Y1176D02*
X7Y1176D01*
X5503Y1176D02*
X5510Y1176D01*
X0Y1175D02*
X7Y1175D01*
X5503Y1175D02*
X5510Y1175D01*
X0Y1174D02*
X7Y1174D01*
X5503Y1174D02*
X5510Y1174D01*
X0Y1173D02*
X7Y1173D01*
X5503Y1173D02*
X5510Y1173D01*
X0Y1172D02*
X7Y1172D01*
X5503Y1172D02*
X5510Y1172D01*
X0Y1171D02*
X7Y1171D01*
X5503Y1171D02*
X5510Y1171D01*
X0Y1170D02*
X7Y1170D01*
X5503Y1170D02*
X5510Y1170D01*
X0Y1169D02*
X7Y1169D01*
X5503Y1169D02*
X5510Y1169D01*
X0Y1168D02*
X7Y1168D01*
X5503Y1168D02*
X5510Y1168D01*
X0Y1167D02*
X7Y1167D01*
X5503Y1167D02*
X5510Y1167D01*
X0Y1166D02*
X7Y1166D01*
X5503Y1166D02*
X5510Y1166D01*
X0Y1165D02*
X7Y1165D01*
X5503Y1165D02*
X5510Y1165D01*
X0Y1164D02*
X7Y1164D01*
X5503Y1164D02*
X5510Y1164D01*
X0Y1163D02*
X7Y1163D01*
X5503Y1163D02*
X5510Y1163D01*
X0Y1162D02*
X7Y1162D01*
X5503Y1162D02*
X5510Y1162D01*
X0Y1161D02*
X7Y1161D01*
X5503Y1161D02*
X5510Y1161D01*
X0Y1160D02*
X7Y1160D01*
X5503Y1160D02*
X5510Y1160D01*
X0Y1159D02*
X7Y1159D01*
X5503Y1159D02*
X5510Y1159D01*
X0Y1158D02*
X7Y1158D01*
X5503Y1158D02*
X5510Y1158D01*
X0Y1157D02*
X7Y1157D01*
X5503Y1157D02*
X5510Y1157D01*
X0Y1156D02*
X7Y1156D01*
X5503Y1156D02*
X5510Y1156D01*
X0Y1155D02*
X7Y1155D01*
X5503Y1155D02*
X5510Y1155D01*
X0Y1154D02*
X7Y1154D01*
X5503Y1154D02*
X5510Y1154D01*
X0Y1153D02*
X7Y1153D01*
X5503Y1153D02*
X5510Y1153D01*
X0Y1152D02*
X7Y1152D01*
X5503Y1152D02*
X5510Y1152D01*
X0Y1151D02*
X7Y1151D01*
X5503Y1151D02*
X5510Y1151D01*
X0Y1150D02*
X7Y1150D01*
X5503Y1150D02*
X5510Y1150D01*
X0Y1149D02*
X7Y1149D01*
X5503Y1149D02*
X5510Y1149D01*
X0Y1148D02*
X7Y1148D01*
X5503Y1148D02*
X5510Y1148D01*
X0Y1147D02*
X7Y1147D01*
X5503Y1147D02*
X5510Y1147D01*
X0Y1146D02*
X7Y1146D01*
X5503Y1146D02*
X5510Y1146D01*
X0Y1145D02*
X7Y1145D01*
X5503Y1145D02*
X5510Y1145D01*
X0Y1144D02*
X7Y1144D01*
X5503Y1144D02*
X5510Y1144D01*
X0Y1143D02*
X7Y1143D01*
X5503Y1143D02*
X5510Y1143D01*
X0Y1142D02*
X7Y1142D01*
X5503Y1142D02*
X5510Y1142D01*
X0Y1141D02*
X7Y1141D01*
X5503Y1141D02*
X5510Y1141D01*
X0Y1140D02*
X7Y1140D01*
X5503Y1140D02*
X5510Y1140D01*
X0Y1139D02*
X7Y1139D01*
X5503Y1139D02*
X5510Y1139D01*
X0Y1138D02*
X7Y1138D01*
X5503Y1138D02*
X5510Y1138D01*
X0Y1137D02*
X7Y1137D01*
X5503Y1137D02*
X5510Y1137D01*
X0Y1136D02*
X7Y1136D01*
X5503Y1136D02*
X5510Y1136D01*
X0Y1135D02*
X7Y1135D01*
X5503Y1135D02*
X5510Y1135D01*
X0Y1134D02*
X7Y1134D01*
X5503Y1134D02*
X5510Y1134D01*
X0Y1133D02*
X7Y1133D01*
X5503Y1133D02*
X5510Y1133D01*
X0Y1132D02*
X7Y1132D01*
X5503Y1132D02*
X5510Y1132D01*
X0Y1131D02*
X7Y1131D01*
X5503Y1131D02*
X5510Y1131D01*
X0Y1130D02*
X7Y1130D01*
X5503Y1130D02*
X5510Y1130D01*
X0Y1129D02*
X7Y1129D01*
X5503Y1129D02*
X5510Y1129D01*
X0Y1128D02*
X7Y1128D01*
X5503Y1128D02*
X5510Y1128D01*
X0Y1127D02*
X7Y1127D01*
X5503Y1127D02*
X5510Y1127D01*
X0Y1126D02*
X7Y1126D01*
X5503Y1126D02*
X5510Y1126D01*
X0Y1125D02*
X7Y1125D01*
X5503Y1125D02*
X5510Y1125D01*
X0Y1124D02*
X7Y1124D01*
X5503Y1124D02*
X5510Y1124D01*
X0Y1123D02*
X7Y1123D01*
X5503Y1123D02*
X5510Y1123D01*
X0Y1122D02*
X7Y1122D01*
X5503Y1122D02*
X5510Y1122D01*
X0Y1121D02*
X7Y1121D01*
X5503Y1121D02*
X5510Y1121D01*
X0Y1120D02*
X7Y1120D01*
X5503Y1120D02*
X5510Y1120D01*
X0Y1119D02*
X7Y1119D01*
X5503Y1119D02*
X5510Y1119D01*
X0Y1118D02*
X7Y1118D01*
X5503Y1118D02*
X5510Y1118D01*
X0Y1117D02*
X7Y1117D01*
X5503Y1117D02*
X5510Y1117D01*
X0Y1116D02*
X7Y1116D01*
X5503Y1116D02*
X5510Y1116D01*
X0Y1115D02*
X7Y1115D01*
X5503Y1115D02*
X5510Y1115D01*
X0Y1114D02*
X7Y1114D01*
X5503Y1114D02*
X5510Y1114D01*
X0Y1113D02*
X7Y1113D01*
X5503Y1113D02*
X5510Y1113D01*
X0Y1112D02*
X7Y1112D01*
X5503Y1112D02*
X5510Y1112D01*
X0Y1111D02*
X7Y1111D01*
X5503Y1111D02*
X5510Y1111D01*
X0Y1110D02*
X7Y1110D01*
X5503Y1110D02*
X5510Y1110D01*
X0Y1109D02*
X7Y1109D01*
X5503Y1109D02*
X5510Y1109D01*
X0Y1108D02*
X7Y1108D01*
X5503Y1108D02*
X5510Y1108D01*
X0Y1107D02*
X7Y1107D01*
X5503Y1107D02*
X5510Y1107D01*
X0Y1106D02*
X7Y1106D01*
X5503Y1106D02*
X5510Y1106D01*
X0Y1105D02*
X7Y1105D01*
X5503Y1105D02*
X5510Y1105D01*
X0Y1104D02*
X7Y1104D01*
X5503Y1104D02*
X5510Y1104D01*
X0Y1103D02*
X7Y1103D01*
X5503Y1103D02*
X5510Y1103D01*
X0Y1102D02*
X7Y1102D01*
X5503Y1102D02*
X5510Y1102D01*
X0Y1101D02*
X7Y1101D01*
X5503Y1101D02*
X5510Y1101D01*
X0Y1100D02*
X7Y1100D01*
X5503Y1100D02*
X5510Y1100D01*
X0Y1099D02*
X7Y1099D01*
X5503Y1099D02*
X5510Y1099D01*
X0Y1098D02*
X7Y1098D01*
X5503Y1098D02*
X5510Y1098D01*
X0Y1097D02*
X7Y1097D01*
X5503Y1097D02*
X5510Y1097D01*
X0Y1096D02*
X7Y1096D01*
X5503Y1096D02*
X5510Y1096D01*
X0Y1095D02*
X7Y1095D01*
X5503Y1095D02*
X5510Y1095D01*
X0Y1094D02*
X7Y1094D01*
X5503Y1094D02*
X5510Y1094D01*
X0Y1093D02*
X7Y1093D01*
X5503Y1093D02*
X5510Y1093D01*
X0Y1092D02*
X7Y1092D01*
X5503Y1092D02*
X5510Y1092D01*
X0Y1091D02*
X7Y1091D01*
X5503Y1091D02*
X5510Y1091D01*
X0Y1090D02*
X7Y1090D01*
X5503Y1090D02*
X5510Y1090D01*
X0Y1089D02*
X7Y1089D01*
X5503Y1089D02*
X5510Y1089D01*
X0Y1088D02*
X7Y1088D01*
X5503Y1088D02*
X5510Y1088D01*
X0Y1087D02*
X7Y1087D01*
X5503Y1087D02*
X5510Y1087D01*
X0Y1086D02*
X7Y1086D01*
X5503Y1086D02*
X5510Y1086D01*
X0Y1085D02*
X7Y1085D01*
X5503Y1085D02*
X5510Y1085D01*
X0Y1084D02*
X7Y1084D01*
X5503Y1084D02*
X5510Y1084D01*
X0Y1083D02*
X7Y1083D01*
X5503Y1083D02*
X5510Y1083D01*
X0Y1082D02*
X7Y1082D01*
X5503Y1082D02*
X5510Y1082D01*
X0Y1081D02*
X7Y1081D01*
X5503Y1081D02*
X5510Y1081D01*
X0Y1080D02*
X7Y1080D01*
X5503Y1080D02*
X5510Y1080D01*
X0Y1079D02*
X7Y1079D01*
X5503Y1079D02*
X5510Y1079D01*
X0Y1078D02*
X7Y1078D01*
X5503Y1078D02*
X5510Y1078D01*
X0Y1077D02*
X7Y1077D01*
X5503Y1077D02*
X5510Y1077D01*
X0Y1076D02*
X7Y1076D01*
X5503Y1076D02*
X5510Y1076D01*
X0Y1075D02*
X7Y1075D01*
X5503Y1075D02*
X5510Y1075D01*
X0Y1074D02*
X7Y1074D01*
X5503Y1074D02*
X5510Y1074D01*
X0Y1073D02*
X7Y1073D01*
X5503Y1073D02*
X5510Y1073D01*
X0Y1072D02*
X7Y1072D01*
X5503Y1072D02*
X5510Y1072D01*
X0Y1071D02*
X7Y1071D01*
X5503Y1071D02*
X5510Y1071D01*
X0Y1070D02*
X7Y1070D01*
X5503Y1070D02*
X5510Y1070D01*
X0Y1069D02*
X7Y1069D01*
X5503Y1069D02*
X5510Y1069D01*
X0Y1068D02*
X7Y1068D01*
X5503Y1068D02*
X5510Y1068D01*
X0Y1067D02*
X7Y1067D01*
X5503Y1067D02*
X5510Y1067D01*
X0Y1066D02*
X7Y1066D01*
X5503Y1066D02*
X5510Y1066D01*
X0Y1065D02*
X7Y1065D01*
X5503Y1065D02*
X5510Y1065D01*
X0Y1064D02*
X7Y1064D01*
X5503Y1064D02*
X5510Y1064D01*
X0Y1063D02*
X7Y1063D01*
X5503Y1063D02*
X5510Y1063D01*
X0Y1062D02*
X7Y1062D01*
X5503Y1062D02*
X5510Y1062D01*
X0Y1061D02*
X7Y1061D01*
X5503Y1061D02*
X5510Y1061D01*
X0Y1060D02*
X7Y1060D01*
X5503Y1060D02*
X5510Y1060D01*
X0Y1059D02*
X7Y1059D01*
X5503Y1059D02*
X5510Y1059D01*
X0Y1058D02*
X7Y1058D01*
X5503Y1058D02*
X5510Y1058D01*
X0Y1057D02*
X7Y1057D01*
X5503Y1057D02*
X5510Y1057D01*
X0Y1056D02*
X7Y1056D01*
X5503Y1056D02*
X5510Y1056D01*
X0Y1055D02*
X7Y1055D01*
X5503Y1055D02*
X5510Y1055D01*
X0Y1054D02*
X7Y1054D01*
X5503Y1054D02*
X5510Y1054D01*
X0Y1053D02*
X7Y1053D01*
X5503Y1053D02*
X5510Y1053D01*
X0Y1052D02*
X7Y1052D01*
X5503Y1052D02*
X5510Y1052D01*
X0Y1051D02*
X7Y1051D01*
X5503Y1051D02*
X5510Y1051D01*
X0Y1050D02*
X7Y1050D01*
X5503Y1050D02*
X5510Y1050D01*
X0Y1049D02*
X7Y1049D01*
X5503Y1049D02*
X5510Y1049D01*
X0Y1048D02*
X7Y1048D01*
X5503Y1048D02*
X5510Y1048D01*
X0Y1047D02*
X7Y1047D01*
X5503Y1047D02*
X5510Y1047D01*
X0Y1046D02*
X7Y1046D01*
X5503Y1046D02*
X5510Y1046D01*
X0Y1045D02*
X7Y1045D01*
X5503Y1045D02*
X5510Y1045D01*
X0Y1044D02*
X7Y1044D01*
X5503Y1044D02*
X5510Y1044D01*
X0Y1043D02*
X7Y1043D01*
X5503Y1043D02*
X5510Y1043D01*
X0Y1042D02*
X7Y1042D01*
X5503Y1042D02*
X5510Y1042D01*
X0Y1041D02*
X7Y1041D01*
X5503Y1041D02*
X5510Y1041D01*
X0Y1040D02*
X7Y1040D01*
X5503Y1040D02*
X5510Y1040D01*
X0Y1039D02*
X7Y1039D01*
X5503Y1039D02*
X5510Y1039D01*
X0Y1038D02*
X7Y1038D01*
X5503Y1038D02*
X5510Y1038D01*
X0Y1037D02*
X7Y1037D01*
X5503Y1037D02*
X5510Y1037D01*
X0Y1036D02*
X7Y1036D01*
X5503Y1036D02*
X5510Y1036D01*
X0Y1035D02*
X7Y1035D01*
X5503Y1035D02*
X5510Y1035D01*
X0Y1034D02*
X7Y1034D01*
X5503Y1034D02*
X5510Y1034D01*
X0Y1033D02*
X7Y1033D01*
X5503Y1033D02*
X5510Y1033D01*
X0Y1032D02*
X7Y1032D01*
X5503Y1032D02*
X5510Y1032D01*
X0Y1031D02*
X7Y1031D01*
X5503Y1031D02*
X5510Y1031D01*
X0Y1030D02*
X7Y1030D01*
X5503Y1030D02*
X5510Y1030D01*
X0Y1029D02*
X7Y1029D01*
X5503Y1029D02*
X5510Y1029D01*
X0Y1028D02*
X7Y1028D01*
X5503Y1028D02*
X5510Y1028D01*
X0Y1027D02*
X7Y1027D01*
X5503Y1027D02*
X5510Y1027D01*
X0Y1026D02*
X7Y1026D01*
X5503Y1026D02*
X5510Y1026D01*
X0Y1025D02*
X7Y1025D01*
X5503Y1025D02*
X5510Y1025D01*
X0Y1024D02*
X7Y1024D01*
X5503Y1024D02*
X5510Y1024D01*
X0Y1023D02*
X7Y1023D01*
X5503Y1023D02*
X5510Y1023D01*
X0Y1022D02*
X7Y1022D01*
X5503Y1022D02*
X5510Y1022D01*
X0Y1021D02*
X7Y1021D01*
X5503Y1021D02*
X5510Y1021D01*
X0Y1020D02*
X7Y1020D01*
X5503Y1020D02*
X5510Y1020D01*
X0Y1019D02*
X7Y1019D01*
X5503Y1019D02*
X5510Y1019D01*
X0Y1018D02*
X7Y1018D01*
X5503Y1018D02*
X5510Y1018D01*
X0Y1017D02*
X7Y1017D01*
X5503Y1017D02*
X5510Y1017D01*
X0Y1016D02*
X7Y1016D01*
X5503Y1016D02*
X5510Y1016D01*
X0Y1015D02*
X7Y1015D01*
X5503Y1015D02*
X5510Y1015D01*
X0Y1014D02*
X7Y1014D01*
X5503Y1014D02*
X5510Y1014D01*
X0Y1013D02*
X7Y1013D01*
X5503Y1013D02*
X5510Y1013D01*
X0Y1012D02*
X7Y1012D01*
X5503Y1012D02*
X5510Y1012D01*
X0Y1011D02*
X7Y1011D01*
X5503Y1011D02*
X5510Y1011D01*
X0Y1010D02*
X7Y1010D01*
X5503Y1010D02*
X5510Y1010D01*
X0Y1009D02*
X7Y1009D01*
X5503Y1009D02*
X5510Y1009D01*
X0Y1008D02*
X7Y1008D01*
X5503Y1008D02*
X5510Y1008D01*
X0Y1007D02*
X7Y1007D01*
X5503Y1007D02*
X5510Y1007D01*
X0Y1006D02*
X7Y1006D01*
X5503Y1006D02*
X5510Y1006D01*
X0Y1005D02*
X7Y1005D01*
X5503Y1005D02*
X5510Y1005D01*
X0Y1004D02*
X7Y1004D01*
X5503Y1004D02*
X5510Y1004D01*
X0Y1003D02*
X7Y1003D01*
X5503Y1003D02*
X5510Y1003D01*
X0Y1002D02*
X7Y1002D01*
X5503Y1002D02*
X5510Y1002D01*
X0Y1001D02*
X7Y1001D01*
X5503Y1001D02*
X5510Y1001D01*
X0Y1000D02*
X7Y1000D01*
X5503Y1000D02*
X5510Y1000D01*
X0Y999D02*
X7Y999D01*
X5503Y999D02*
X5510Y999D01*
X0Y998D02*
X7Y998D01*
X5503Y998D02*
X5510Y998D01*
X0Y997D02*
X7Y997D01*
X5503Y997D02*
X5510Y997D01*
X0Y996D02*
X7Y996D01*
X5503Y996D02*
X5510Y996D01*
X0Y995D02*
X7Y995D01*
X5503Y995D02*
X5510Y995D01*
X0Y994D02*
X7Y994D01*
X5503Y994D02*
X5510Y994D01*
X0Y993D02*
X7Y993D01*
X5503Y993D02*
X5510Y993D01*
X0Y992D02*
X7Y992D01*
X5503Y992D02*
X5510Y992D01*
X0Y991D02*
X7Y991D01*
X5503Y991D02*
X5510Y991D01*
X0Y990D02*
X7Y990D01*
X5503Y990D02*
X5510Y990D01*
X0Y989D02*
X7Y989D01*
X5503Y989D02*
X5510Y989D01*
X0Y988D02*
X7Y988D01*
X5503Y988D02*
X5510Y988D01*
X0Y987D02*
X7Y987D01*
X5503Y987D02*
X5510Y987D01*
X0Y986D02*
X7Y986D01*
X5503Y986D02*
X5510Y986D01*
X0Y985D02*
X7Y985D01*
X5503Y985D02*
X5510Y985D01*
X0Y984D02*
X7Y984D01*
X5503Y984D02*
X5510Y984D01*
X0Y983D02*
X7Y983D01*
X5503Y983D02*
X5510Y983D01*
X0Y982D02*
X7Y982D01*
X5503Y982D02*
X5510Y982D01*
X0Y981D02*
X7Y981D01*
X5503Y981D02*
X5510Y981D01*
X0Y980D02*
X7Y980D01*
X5503Y980D02*
X5510Y980D01*
X0Y979D02*
X7Y979D01*
X5503Y979D02*
X5510Y979D01*
X0Y978D02*
X7Y978D01*
X5503Y978D02*
X5510Y978D01*
X0Y977D02*
X7Y977D01*
X5503Y977D02*
X5510Y977D01*
X0Y976D02*
X7Y976D01*
X5503Y976D02*
X5510Y976D01*
X0Y975D02*
X7Y975D01*
X5503Y975D02*
X5510Y975D01*
X0Y974D02*
X7Y974D01*
X5503Y974D02*
X5510Y974D01*
X0Y973D02*
X7Y973D01*
X5503Y973D02*
X5510Y973D01*
X0Y972D02*
X7Y972D01*
X5503Y972D02*
X5510Y972D01*
X0Y971D02*
X7Y971D01*
X5503Y971D02*
X5510Y971D01*
X0Y970D02*
X7Y970D01*
X5503Y970D02*
X5510Y970D01*
X0Y969D02*
X7Y969D01*
X5503Y969D02*
X5510Y969D01*
X0Y968D02*
X7Y968D01*
X5503Y968D02*
X5510Y968D01*
X0Y967D02*
X7Y967D01*
X5503Y967D02*
X5510Y967D01*
X0Y966D02*
X7Y966D01*
X5503Y966D02*
X5510Y966D01*
X0Y965D02*
X7Y965D01*
X5503Y965D02*
X5510Y965D01*
X0Y964D02*
X7Y964D01*
X5503Y964D02*
X5510Y964D01*
X0Y963D02*
X7Y963D01*
X5503Y963D02*
X5510Y963D01*
X0Y962D02*
X7Y962D01*
X5503Y962D02*
X5510Y962D01*
X0Y961D02*
X7Y961D01*
X5503Y961D02*
X5510Y961D01*
X0Y960D02*
X7Y960D01*
X5503Y960D02*
X5510Y960D01*
X0Y959D02*
X7Y959D01*
X5503Y959D02*
X5510Y959D01*
X0Y958D02*
X7Y958D01*
X5503Y958D02*
X5510Y958D01*
X0Y957D02*
X7Y957D01*
X5503Y957D02*
X5510Y957D01*
X0Y956D02*
X7Y956D01*
X5503Y956D02*
X5510Y956D01*
X0Y955D02*
X7Y955D01*
X5503Y955D02*
X5510Y955D01*
X0Y954D02*
X7Y954D01*
X5503Y954D02*
X5510Y954D01*
X0Y953D02*
X7Y953D01*
X5503Y953D02*
X5510Y953D01*
X0Y952D02*
X7Y952D01*
X5503Y952D02*
X5510Y952D01*
X0Y951D02*
X7Y951D01*
X5503Y951D02*
X5510Y951D01*
X0Y950D02*
X7Y950D01*
X5503Y950D02*
X5510Y950D01*
X0Y949D02*
X7Y949D01*
X5503Y949D02*
X5510Y949D01*
X0Y948D02*
X7Y948D01*
X5503Y948D02*
X5510Y948D01*
X0Y947D02*
X7Y947D01*
X5503Y947D02*
X5510Y947D01*
X0Y946D02*
X7Y946D01*
X5503Y946D02*
X5510Y946D01*
X0Y945D02*
X7Y945D01*
X5503Y945D02*
X5510Y945D01*
X0Y944D02*
X7Y944D01*
X5503Y944D02*
X5510Y944D01*
X0Y943D02*
X7Y943D01*
X5503Y943D02*
X5510Y943D01*
X0Y942D02*
X7Y942D01*
X5503Y942D02*
X5510Y942D01*
X0Y941D02*
X7Y941D01*
X5503Y941D02*
X5510Y941D01*
X0Y940D02*
X7Y940D01*
X5503Y940D02*
X5510Y940D01*
X0Y939D02*
X7Y939D01*
X5503Y939D02*
X5510Y939D01*
X0Y938D02*
X7Y938D01*
X5503Y938D02*
X5510Y938D01*
X0Y937D02*
X7Y937D01*
X5503Y937D02*
X5510Y937D01*
X0Y936D02*
X7Y936D01*
X5503Y936D02*
X5510Y936D01*
X0Y935D02*
X7Y935D01*
X5503Y935D02*
X5510Y935D01*
X0Y934D02*
X7Y934D01*
X5503Y934D02*
X5510Y934D01*
X0Y933D02*
X7Y933D01*
X5503Y933D02*
X5510Y933D01*
X0Y932D02*
X7Y932D01*
X5503Y932D02*
X5510Y932D01*
X0Y931D02*
X7Y931D01*
X5503Y931D02*
X5510Y931D01*
X0Y930D02*
X7Y930D01*
X5503Y930D02*
X5510Y930D01*
X0Y929D02*
X7Y929D01*
X5503Y929D02*
X5510Y929D01*
X0Y928D02*
X7Y928D01*
X5503Y928D02*
X5510Y928D01*
X0Y927D02*
X7Y927D01*
X5503Y927D02*
X5510Y927D01*
X0Y926D02*
X7Y926D01*
X5503Y926D02*
X5510Y926D01*
X0Y925D02*
X7Y925D01*
X5503Y925D02*
X5510Y925D01*
X0Y924D02*
X7Y924D01*
X5503Y924D02*
X5510Y924D01*
X0Y923D02*
X7Y923D01*
X5503Y923D02*
X5510Y923D01*
X0Y922D02*
X7Y922D01*
X5503Y922D02*
X5510Y922D01*
X0Y921D02*
X7Y921D01*
X5503Y921D02*
X5510Y921D01*
X0Y920D02*
X7Y920D01*
X5503Y920D02*
X5510Y920D01*
X0Y919D02*
X7Y919D01*
X5503Y919D02*
X5510Y919D01*
X0Y918D02*
X7Y918D01*
X5503Y918D02*
X5510Y918D01*
X0Y917D02*
X7Y917D01*
X5503Y917D02*
X5510Y917D01*
X0Y916D02*
X7Y916D01*
X5503Y916D02*
X5510Y916D01*
X0Y915D02*
X7Y915D01*
X5503Y915D02*
X5510Y915D01*
X0Y914D02*
X7Y914D01*
X5503Y914D02*
X5510Y914D01*
X0Y913D02*
X7Y913D01*
X5503Y913D02*
X5510Y913D01*
X0Y912D02*
X7Y912D01*
X5503Y912D02*
X5510Y912D01*
X0Y911D02*
X7Y911D01*
X5503Y911D02*
X5510Y911D01*
X0Y910D02*
X7Y910D01*
X5503Y910D02*
X5510Y910D01*
X0Y909D02*
X7Y909D01*
X5503Y909D02*
X5510Y909D01*
X0Y908D02*
X7Y908D01*
X5503Y908D02*
X5510Y908D01*
X0Y907D02*
X7Y907D01*
X5503Y907D02*
X5510Y907D01*
X0Y906D02*
X7Y906D01*
X5503Y906D02*
X5510Y906D01*
X0Y905D02*
X7Y905D01*
X5503Y905D02*
X5510Y905D01*
X0Y904D02*
X7Y904D01*
X5503Y904D02*
X5510Y904D01*
X0Y903D02*
X7Y903D01*
X5503Y903D02*
X5510Y903D01*
X0Y902D02*
X7Y902D01*
X5503Y902D02*
X5510Y902D01*
X0Y901D02*
X7Y901D01*
X5503Y901D02*
X5510Y901D01*
X0Y900D02*
X7Y900D01*
X5503Y900D02*
X5510Y900D01*
X0Y899D02*
X7Y899D01*
X5503Y899D02*
X5510Y899D01*
X0Y898D02*
X7Y898D01*
X5503Y898D02*
X5510Y898D01*
X0Y897D02*
X7Y897D01*
X5503Y897D02*
X5510Y897D01*
X0Y896D02*
X7Y896D01*
X5503Y896D02*
X5510Y896D01*
X0Y895D02*
X7Y895D01*
X5503Y895D02*
X5510Y895D01*
X0Y894D02*
X7Y894D01*
X5503Y894D02*
X5510Y894D01*
X0Y893D02*
X7Y893D01*
X5181Y893D02*
X5224Y893D01*
X5503Y893D02*
X5510Y893D01*
X0Y892D02*
X7Y892D01*
X5180Y892D02*
X5227Y892D01*
X5503Y892D02*
X5510Y892D01*
X0Y891D02*
X7Y891D01*
X5179Y891D02*
X5228Y891D01*
X5503Y891D02*
X5510Y891D01*
X0Y890D02*
X7Y890D01*
X5179Y890D02*
X5229Y890D01*
X5503Y890D02*
X5510Y890D01*
X0Y889D02*
X7Y889D01*
X5179Y889D02*
X5230Y889D01*
X5503Y889D02*
X5510Y889D01*
X0Y888D02*
X7Y888D01*
X5180Y888D02*
X5231Y888D01*
X5503Y888D02*
X5510Y888D01*
X0Y887D02*
X7Y887D01*
X5181Y887D02*
X5231Y887D01*
X5503Y887D02*
X5510Y887D01*
X0Y886D02*
X7Y886D01*
X5224Y886D02*
X5232Y886D01*
X5503Y886D02*
X5510Y886D01*
X0Y885D02*
X7Y885D01*
X5225Y885D02*
X5232Y885D01*
X5503Y885D02*
X5510Y885D01*
X0Y884D02*
X7Y884D01*
X5226Y884D02*
X5232Y884D01*
X5503Y884D02*
X5510Y884D01*
X0Y883D02*
X7Y883D01*
X5226Y883D02*
X5232Y883D01*
X5503Y883D02*
X5510Y883D01*
X0Y882D02*
X7Y882D01*
X5226Y882D02*
X5232Y882D01*
X5503Y882D02*
X5510Y882D01*
X0Y881D02*
X7Y881D01*
X5226Y881D02*
X5232Y881D01*
X5503Y881D02*
X5510Y881D01*
X0Y880D02*
X7Y880D01*
X5226Y880D02*
X5232Y880D01*
X5503Y880D02*
X5510Y880D01*
X0Y879D02*
X7Y879D01*
X5226Y879D02*
X5232Y879D01*
X5503Y879D02*
X5510Y879D01*
X0Y878D02*
X7Y878D01*
X5226Y878D02*
X5232Y878D01*
X5503Y878D02*
X5510Y878D01*
X0Y877D02*
X7Y877D01*
X5226Y877D02*
X5232Y877D01*
X5503Y877D02*
X5510Y877D01*
X0Y876D02*
X7Y876D01*
X5226Y876D02*
X5232Y876D01*
X5503Y876D02*
X5510Y876D01*
X0Y875D02*
X7Y875D01*
X5226Y875D02*
X5232Y875D01*
X5503Y875D02*
X5510Y875D01*
X0Y874D02*
X7Y874D01*
X5226Y874D02*
X5232Y874D01*
X5503Y874D02*
X5510Y874D01*
X0Y873D02*
X7Y873D01*
X5226Y873D02*
X5232Y873D01*
X5503Y873D02*
X5510Y873D01*
X0Y872D02*
X7Y872D01*
X5226Y872D02*
X5232Y872D01*
X5503Y872D02*
X5510Y872D01*
X0Y871D02*
X7Y871D01*
X5226Y871D02*
X5232Y871D01*
X5503Y871D02*
X5510Y871D01*
X0Y870D02*
X7Y870D01*
X5226Y870D02*
X5232Y870D01*
X5503Y870D02*
X5510Y870D01*
X0Y869D02*
X7Y869D01*
X5226Y869D02*
X5232Y869D01*
X5503Y869D02*
X5510Y869D01*
X0Y868D02*
X7Y868D01*
X5226Y868D02*
X5232Y868D01*
X5503Y868D02*
X5510Y868D01*
X0Y867D02*
X7Y867D01*
X5225Y867D02*
X5232Y867D01*
X5503Y867D02*
X5510Y867D01*
X0Y866D02*
X7Y866D01*
X5224Y866D02*
X5232Y866D01*
X5503Y866D02*
X5510Y866D01*
X0Y865D02*
X7Y865D01*
X5181Y865D02*
X5231Y865D01*
X5503Y865D02*
X5510Y865D01*
X0Y864D02*
X7Y864D01*
X5180Y864D02*
X5231Y864D01*
X5503Y864D02*
X5510Y864D01*
X0Y863D02*
X7Y863D01*
X5179Y863D02*
X5230Y863D01*
X5503Y863D02*
X5510Y863D01*
X0Y862D02*
X7Y862D01*
X5179Y862D02*
X5229Y862D01*
X5503Y862D02*
X5510Y862D01*
X0Y861D02*
X7Y861D01*
X5179Y861D02*
X5228Y861D01*
X5503Y861D02*
X5510Y861D01*
X0Y860D02*
X7Y860D01*
X5180Y860D02*
X5227Y860D01*
X5503Y860D02*
X5510Y860D01*
X0Y859D02*
X7Y859D01*
X5181Y859D02*
X5224Y859D01*
X5503Y859D02*
X5510Y859D01*
X0Y858D02*
X7Y858D01*
X5503Y858D02*
X5510Y858D01*
X0Y857D02*
X7Y857D01*
X5503Y857D02*
X5510Y857D01*
X0Y856D02*
X7Y856D01*
X5503Y856D02*
X5510Y856D01*
X0Y855D02*
X7Y855D01*
X5503Y855D02*
X5510Y855D01*
X0Y854D02*
X7Y854D01*
X5503Y854D02*
X5510Y854D01*
X0Y853D02*
X7Y853D01*
X5503Y853D02*
X5510Y853D01*
X0Y852D02*
X7Y852D01*
X5503Y852D02*
X5510Y852D01*
X0Y851D02*
X7Y851D01*
X5503Y851D02*
X5510Y851D01*
X0Y850D02*
X7Y850D01*
X5503Y850D02*
X5510Y850D01*
X0Y849D02*
X7Y849D01*
X5503Y849D02*
X5510Y849D01*
X0Y848D02*
X7Y848D01*
X5503Y848D02*
X5510Y848D01*
X0Y847D02*
X7Y847D01*
X5503Y847D02*
X5510Y847D01*
X0Y846D02*
X7Y846D01*
X5503Y846D02*
X5510Y846D01*
X0Y845D02*
X7Y845D01*
X5503Y845D02*
X5510Y845D01*
X0Y844D02*
X7Y844D01*
X5503Y844D02*
X5510Y844D01*
X0Y843D02*
X7Y843D01*
X5182Y843D02*
X5182Y843D01*
X5229Y843D02*
X5229Y843D01*
X5503Y843D02*
X5510Y843D01*
X0Y842D02*
X7Y842D01*
X5180Y842D02*
X5184Y842D01*
X5227Y842D02*
X5231Y842D01*
X5503Y842D02*
X5510Y842D01*
X0Y841D02*
X7Y841D01*
X5180Y841D02*
X5185Y841D01*
X5227Y841D02*
X5232Y841D01*
X5503Y841D02*
X5510Y841D01*
X0Y840D02*
X7Y840D01*
X5179Y840D02*
X5185Y840D01*
X5226Y840D02*
X5232Y840D01*
X5503Y840D02*
X5510Y840D01*
X0Y839D02*
X7Y839D01*
X5179Y839D02*
X5185Y839D01*
X5226Y839D02*
X5232Y839D01*
X5503Y839D02*
X5510Y839D01*
X0Y838D02*
X7Y838D01*
X5179Y838D02*
X5185Y838D01*
X5226Y838D02*
X5232Y838D01*
X5503Y838D02*
X5510Y838D01*
X0Y837D02*
X7Y837D01*
X5179Y837D02*
X5185Y837D01*
X5226Y837D02*
X5232Y837D01*
X5503Y837D02*
X5510Y837D01*
X0Y836D02*
X7Y836D01*
X5179Y836D02*
X5185Y836D01*
X5226Y836D02*
X5232Y836D01*
X5503Y836D02*
X5510Y836D01*
X0Y835D02*
X7Y835D01*
X5179Y835D02*
X5185Y835D01*
X5226Y835D02*
X5232Y835D01*
X5503Y835D02*
X5510Y835D01*
X0Y834D02*
X7Y834D01*
X5179Y834D02*
X5185Y834D01*
X5226Y834D02*
X5232Y834D01*
X5503Y834D02*
X5510Y834D01*
X0Y833D02*
X7Y833D01*
X5179Y833D02*
X5185Y833D01*
X5226Y833D02*
X5232Y833D01*
X5503Y833D02*
X5510Y833D01*
X0Y832D02*
X7Y832D01*
X5179Y832D02*
X5185Y832D01*
X5226Y832D02*
X5232Y832D01*
X5503Y832D02*
X5510Y832D01*
X0Y831D02*
X7Y831D01*
X5179Y831D02*
X5185Y831D01*
X5226Y831D02*
X5232Y831D01*
X5503Y831D02*
X5510Y831D01*
X0Y830D02*
X7Y830D01*
X5179Y830D02*
X5185Y830D01*
X5226Y830D02*
X5232Y830D01*
X5503Y830D02*
X5510Y830D01*
X0Y829D02*
X7Y829D01*
X5179Y829D02*
X5232Y829D01*
X5503Y829D02*
X5510Y829D01*
X0Y828D02*
X7Y828D01*
X5179Y828D02*
X5232Y828D01*
X5503Y828D02*
X5510Y828D01*
X0Y827D02*
X7Y827D01*
X5179Y827D02*
X5232Y827D01*
X5503Y827D02*
X5510Y827D01*
X0Y826D02*
X7Y826D01*
X5179Y826D02*
X5232Y826D01*
X5503Y826D02*
X5510Y826D01*
X0Y825D02*
X7Y825D01*
X5179Y825D02*
X5232Y825D01*
X5503Y825D02*
X5510Y825D01*
X0Y824D02*
X7Y824D01*
X5179Y824D02*
X5232Y824D01*
X5503Y824D02*
X5510Y824D01*
X0Y823D02*
X7Y823D01*
X5179Y823D02*
X5232Y823D01*
X5503Y823D02*
X5510Y823D01*
X0Y822D02*
X7Y822D01*
X5226Y822D02*
X5232Y822D01*
X5503Y822D02*
X5510Y822D01*
X0Y821D02*
X7Y821D01*
X5226Y821D02*
X5232Y821D01*
X5503Y821D02*
X5510Y821D01*
X0Y820D02*
X7Y820D01*
X5226Y820D02*
X5232Y820D01*
X5503Y820D02*
X5510Y820D01*
X0Y819D02*
X7Y819D01*
X5226Y819D02*
X5232Y819D01*
X5503Y819D02*
X5510Y819D01*
X0Y818D02*
X7Y818D01*
X5226Y818D02*
X5232Y818D01*
X5503Y818D02*
X5510Y818D01*
X0Y817D02*
X7Y817D01*
X5226Y817D02*
X5232Y817D01*
X5503Y817D02*
X5510Y817D01*
X0Y816D02*
X7Y816D01*
X5226Y816D02*
X5232Y816D01*
X5503Y816D02*
X5510Y816D01*
X0Y815D02*
X7Y815D01*
X5210Y815D02*
X5232Y815D01*
X5503Y815D02*
X5510Y815D01*
X0Y814D02*
X7Y814D01*
X5209Y814D02*
X5232Y814D01*
X5503Y814D02*
X5510Y814D01*
X0Y813D02*
X7Y813D01*
X5209Y813D02*
X5232Y813D01*
X5503Y813D02*
X5510Y813D01*
X0Y812D02*
X7Y812D01*
X5209Y812D02*
X5232Y812D01*
X5503Y812D02*
X5510Y812D01*
X0Y811D02*
X7Y811D01*
X5209Y811D02*
X5232Y811D01*
X5503Y811D02*
X5510Y811D01*
X0Y810D02*
X7Y810D01*
X5209Y810D02*
X5232Y810D01*
X5503Y810D02*
X5510Y810D01*
X0Y809D02*
X7Y809D01*
X5210Y809D02*
X5231Y809D01*
X5503Y809D02*
X5510Y809D01*
X0Y808D02*
X7Y808D01*
X5503Y808D02*
X5510Y808D01*
X0Y807D02*
X7Y807D01*
X5503Y807D02*
X5510Y807D01*
X0Y806D02*
X7Y806D01*
X5503Y806D02*
X5510Y806D01*
X0Y805D02*
X7Y805D01*
X5503Y805D02*
X5510Y805D01*
X0Y804D02*
X7Y804D01*
X5503Y804D02*
X5510Y804D01*
X0Y803D02*
X7Y803D01*
X5503Y803D02*
X5510Y803D01*
X0Y802D02*
X7Y802D01*
X5503Y802D02*
X5510Y802D01*
X0Y801D02*
X7Y801D01*
X5503Y801D02*
X5510Y801D01*
X0Y800D02*
X7Y800D01*
X5503Y800D02*
X5510Y800D01*
X0Y799D02*
X7Y799D01*
X5503Y799D02*
X5510Y799D01*
X0Y798D02*
X7Y798D01*
X5503Y798D02*
X5510Y798D01*
X0Y797D02*
X7Y797D01*
X5503Y797D02*
X5510Y797D01*
X0Y796D02*
X7Y796D01*
X5503Y796D02*
X5510Y796D01*
X0Y795D02*
X7Y795D01*
X5503Y795D02*
X5510Y795D01*
X0Y794D02*
X7Y794D01*
X5503Y794D02*
X5510Y794D01*
X0Y793D02*
X7Y793D01*
X5503Y793D02*
X5510Y793D01*
X0Y792D02*
X7Y792D01*
X5503Y792D02*
X5510Y792D01*
X0Y791D02*
X7Y791D01*
X5503Y791D02*
X5510Y791D01*
X0Y790D02*
X7Y790D01*
X5503Y790D02*
X5510Y790D01*
X0Y789D02*
X7Y789D01*
X5503Y789D02*
X5510Y789D01*
X0Y788D02*
X7Y788D01*
X5503Y788D02*
X5510Y788D01*
X0Y787D02*
X7Y787D01*
X5503Y787D02*
X5510Y787D01*
X0Y786D02*
X7Y786D01*
X5503Y786D02*
X5510Y786D01*
X0Y785D02*
X7Y785D01*
X5503Y785D02*
X5510Y785D01*
X0Y784D02*
X7Y784D01*
X5503Y784D02*
X5510Y784D01*
X0Y783D02*
X7Y783D01*
X5503Y783D02*
X5510Y783D01*
X0Y782D02*
X7Y782D01*
X5503Y782D02*
X5510Y782D01*
X0Y781D02*
X7Y781D01*
X5503Y781D02*
X5510Y781D01*
X0Y780D02*
X7Y780D01*
X5503Y780D02*
X5510Y780D01*
X0Y779D02*
X7Y779D01*
X5503Y779D02*
X5510Y779D01*
X0Y778D02*
X7Y778D01*
X5503Y778D02*
X5510Y778D01*
X0Y777D02*
X7Y777D01*
X5503Y777D02*
X5510Y777D01*
X0Y776D02*
X7Y776D01*
X5503Y776D02*
X5510Y776D01*
X0Y775D02*
X7Y775D01*
X5503Y775D02*
X5510Y775D01*
X0Y774D02*
X7Y774D01*
X5503Y774D02*
X5510Y774D01*
X0Y773D02*
X7Y773D01*
X5503Y773D02*
X5510Y773D01*
X0Y772D02*
X7Y772D01*
X5503Y772D02*
X5510Y772D01*
X0Y771D02*
X7Y771D01*
X5503Y771D02*
X5510Y771D01*
X0Y770D02*
X7Y770D01*
X5503Y770D02*
X5510Y770D01*
X0Y769D02*
X7Y769D01*
X5503Y769D02*
X5510Y769D01*
X0Y768D02*
X7Y768D01*
X5503Y768D02*
X5510Y768D01*
X0Y767D02*
X7Y767D01*
X5503Y767D02*
X5510Y767D01*
X0Y766D02*
X7Y766D01*
X5503Y766D02*
X5510Y766D01*
X0Y765D02*
X7Y765D01*
X5503Y765D02*
X5510Y765D01*
X0Y764D02*
X7Y764D01*
X5503Y764D02*
X5510Y764D01*
X0Y763D02*
X7Y763D01*
X5503Y763D02*
X5510Y763D01*
X0Y762D02*
X7Y762D01*
X5503Y762D02*
X5510Y762D01*
X0Y761D02*
X7Y761D01*
X5503Y761D02*
X5510Y761D01*
X0Y760D02*
X7Y760D01*
X5503Y760D02*
X5510Y760D01*
X0Y759D02*
X7Y759D01*
X5503Y759D02*
X5510Y759D01*
X0Y758D02*
X7Y758D01*
X5503Y758D02*
X5510Y758D01*
X0Y757D02*
X7Y757D01*
X5503Y757D02*
X5510Y757D01*
X0Y756D02*
X7Y756D01*
X5503Y756D02*
X5510Y756D01*
X0Y755D02*
X7Y755D01*
X5503Y755D02*
X5510Y755D01*
X0Y754D02*
X7Y754D01*
X5503Y754D02*
X5510Y754D01*
X0Y753D02*
X7Y753D01*
X5503Y753D02*
X5510Y753D01*
X0Y752D02*
X7Y752D01*
X5503Y752D02*
X5510Y752D01*
X0Y751D02*
X7Y751D01*
X5503Y751D02*
X5510Y751D01*
X0Y750D02*
X7Y750D01*
X5503Y750D02*
X5510Y750D01*
X0Y749D02*
X7Y749D01*
X5503Y749D02*
X5510Y749D01*
X0Y748D02*
X7Y748D01*
X5503Y748D02*
X5510Y748D01*
X0Y747D02*
X7Y747D01*
X5503Y747D02*
X5510Y747D01*
X0Y746D02*
X7Y746D01*
X5503Y746D02*
X5510Y746D01*
X0Y745D02*
X7Y745D01*
X5503Y745D02*
X5510Y745D01*
X0Y744D02*
X7Y744D01*
X5503Y744D02*
X5510Y744D01*
X0Y743D02*
X7Y743D01*
X5503Y743D02*
X5510Y743D01*
X0Y742D02*
X7Y742D01*
X5503Y742D02*
X5510Y742D01*
X0Y741D02*
X7Y741D01*
X5503Y741D02*
X5510Y741D01*
X0Y740D02*
X7Y740D01*
X5503Y740D02*
X5510Y740D01*
X0Y739D02*
X7Y739D01*
X5503Y739D02*
X5510Y739D01*
X0Y738D02*
X7Y738D01*
X5503Y738D02*
X5510Y738D01*
X0Y737D02*
X7Y737D01*
X5503Y737D02*
X5510Y737D01*
X0Y736D02*
X7Y736D01*
X5503Y736D02*
X5510Y736D01*
X0Y735D02*
X7Y735D01*
X5503Y735D02*
X5510Y735D01*
X0Y734D02*
X7Y734D01*
X5503Y734D02*
X5510Y734D01*
X0Y733D02*
X7Y733D01*
X5503Y733D02*
X5510Y733D01*
X0Y732D02*
X7Y732D01*
X5503Y732D02*
X5510Y732D01*
X0Y731D02*
X7Y731D01*
X5503Y731D02*
X5510Y731D01*
X0Y730D02*
X7Y730D01*
X5503Y730D02*
X5510Y730D01*
X0Y729D02*
X7Y729D01*
X5503Y729D02*
X5510Y729D01*
X0Y728D02*
X7Y728D01*
X5503Y728D02*
X5510Y728D01*
X0Y727D02*
X7Y727D01*
X5503Y727D02*
X5510Y727D01*
X0Y726D02*
X7Y726D01*
X5503Y726D02*
X5510Y726D01*
X0Y725D02*
X7Y725D01*
X5503Y725D02*
X5510Y725D01*
X0Y724D02*
X7Y724D01*
X5503Y724D02*
X5510Y724D01*
X0Y723D02*
X7Y723D01*
X5503Y723D02*
X5510Y723D01*
X0Y722D02*
X7Y722D01*
X5503Y722D02*
X5510Y722D01*
X0Y721D02*
X7Y721D01*
X5503Y721D02*
X5510Y721D01*
X0Y720D02*
X7Y720D01*
X5503Y720D02*
X5510Y720D01*
X0Y719D02*
X7Y719D01*
X5503Y719D02*
X5510Y719D01*
X0Y718D02*
X7Y718D01*
X5503Y718D02*
X5510Y718D01*
X0Y717D02*
X7Y717D01*
X5503Y717D02*
X5510Y717D01*
X0Y716D02*
X7Y716D01*
X5503Y716D02*
X5510Y716D01*
X0Y715D02*
X7Y715D01*
X5503Y715D02*
X5510Y715D01*
X0Y714D02*
X7Y714D01*
X5503Y714D02*
X5510Y714D01*
X0Y713D02*
X7Y713D01*
X5503Y713D02*
X5510Y713D01*
X0Y712D02*
X7Y712D01*
X5503Y712D02*
X5510Y712D01*
X0Y711D02*
X7Y711D01*
X5503Y711D02*
X5510Y711D01*
X0Y710D02*
X7Y710D01*
X5503Y710D02*
X5510Y710D01*
X0Y709D02*
X7Y709D01*
X5503Y709D02*
X5510Y709D01*
X0Y708D02*
X7Y708D01*
X5503Y708D02*
X5510Y708D01*
X0Y707D02*
X7Y707D01*
X5503Y707D02*
X5510Y707D01*
X0Y706D02*
X7Y706D01*
X5503Y706D02*
X5510Y706D01*
X0Y705D02*
X7Y705D01*
X5503Y705D02*
X5510Y705D01*
X0Y704D02*
X7Y704D01*
X5503Y704D02*
X5510Y704D01*
X0Y703D02*
X7Y703D01*
X5503Y703D02*
X5510Y703D01*
X0Y702D02*
X7Y702D01*
X5503Y702D02*
X5510Y702D01*
X0Y701D02*
X7Y701D01*
X5503Y701D02*
X5510Y701D01*
X0Y700D02*
X7Y700D01*
X5503Y700D02*
X5510Y700D01*
X0Y699D02*
X7Y699D01*
X5503Y699D02*
X5510Y699D01*
X0Y698D02*
X7Y698D01*
X5503Y698D02*
X5510Y698D01*
X0Y697D02*
X7Y697D01*
X5503Y697D02*
X5510Y697D01*
X0Y696D02*
X7Y696D01*
X5503Y696D02*
X5510Y696D01*
X0Y695D02*
X7Y695D01*
X5503Y695D02*
X5510Y695D01*
X0Y694D02*
X7Y694D01*
X5503Y694D02*
X5510Y694D01*
X0Y693D02*
X7Y693D01*
X5503Y693D02*
X5510Y693D01*
X0Y692D02*
X7Y692D01*
X5503Y692D02*
X5510Y692D01*
X0Y691D02*
X7Y691D01*
X5503Y691D02*
X5510Y691D01*
X0Y690D02*
X7Y690D01*
X5503Y690D02*
X5510Y690D01*
X0Y689D02*
X7Y689D01*
X5503Y689D02*
X5510Y689D01*
X0Y688D02*
X7Y688D01*
X5503Y688D02*
X5510Y688D01*
X0Y687D02*
X7Y687D01*
X5503Y687D02*
X5510Y687D01*
X0Y686D02*
X7Y686D01*
X5503Y686D02*
X5510Y686D01*
X0Y685D02*
X7Y685D01*
X5503Y685D02*
X5510Y685D01*
X0Y684D02*
X7Y684D01*
X5503Y684D02*
X5510Y684D01*
X0Y683D02*
X7Y683D01*
X5503Y683D02*
X5510Y683D01*
X0Y682D02*
X7Y682D01*
X5503Y682D02*
X5510Y682D01*
X0Y681D02*
X7Y681D01*
X5503Y681D02*
X5510Y681D01*
X0Y680D02*
X7Y680D01*
X5503Y680D02*
X5510Y680D01*
X0Y679D02*
X7Y679D01*
X5503Y679D02*
X5510Y679D01*
X0Y678D02*
X7Y678D01*
X5503Y678D02*
X5510Y678D01*
X0Y677D02*
X7Y677D01*
X5503Y677D02*
X5510Y677D01*
X0Y676D02*
X7Y676D01*
X5503Y676D02*
X5510Y676D01*
X0Y675D02*
X7Y675D01*
X5503Y675D02*
X5510Y675D01*
X0Y674D02*
X7Y674D01*
X5503Y674D02*
X5510Y674D01*
X0Y673D02*
X7Y673D01*
X5503Y673D02*
X5510Y673D01*
X0Y672D02*
X7Y672D01*
X5503Y672D02*
X5510Y672D01*
X0Y671D02*
X7Y671D01*
X5503Y671D02*
X5510Y671D01*
X0Y670D02*
X7Y670D01*
X5503Y670D02*
X5510Y670D01*
X0Y669D02*
X7Y669D01*
X5503Y669D02*
X5510Y669D01*
X0Y668D02*
X7Y668D01*
X5503Y668D02*
X5510Y668D01*
X0Y667D02*
X7Y667D01*
X5503Y667D02*
X5510Y667D01*
X0Y666D02*
X7Y666D01*
X5503Y666D02*
X5510Y666D01*
X0Y665D02*
X7Y665D01*
X5503Y665D02*
X5510Y665D01*
X0Y664D02*
X7Y664D01*
X5503Y664D02*
X5510Y664D01*
X0Y663D02*
X7Y663D01*
X5503Y663D02*
X5510Y663D01*
X0Y662D02*
X7Y662D01*
X5503Y662D02*
X5510Y662D01*
X0Y661D02*
X7Y661D01*
X5503Y661D02*
X5510Y661D01*
X0Y660D02*
X7Y660D01*
X5503Y660D02*
X5510Y660D01*
X0Y659D02*
X7Y659D01*
X5503Y659D02*
X5510Y659D01*
X0Y658D02*
X7Y658D01*
X5503Y658D02*
X5510Y658D01*
X0Y657D02*
X7Y657D01*
X5503Y657D02*
X5510Y657D01*
X0Y656D02*
X7Y656D01*
X5503Y656D02*
X5510Y656D01*
X0Y655D02*
X7Y655D01*
X5503Y655D02*
X5510Y655D01*
X0Y654D02*
X7Y654D01*
X5503Y654D02*
X5510Y654D01*
X0Y653D02*
X7Y653D01*
X5503Y653D02*
X5510Y653D01*
X0Y652D02*
X7Y652D01*
X5503Y652D02*
X5510Y652D01*
X0Y651D02*
X7Y651D01*
X5503Y651D02*
X5510Y651D01*
X0Y650D02*
X7Y650D01*
X5503Y650D02*
X5510Y650D01*
X0Y649D02*
X7Y649D01*
X5503Y649D02*
X5510Y649D01*
X0Y648D02*
X7Y648D01*
X5503Y648D02*
X5510Y648D01*
X0Y647D02*
X7Y647D01*
X5503Y647D02*
X5510Y647D01*
X0Y646D02*
X7Y646D01*
X5503Y646D02*
X5510Y646D01*
X0Y645D02*
X7Y645D01*
X5503Y645D02*
X5510Y645D01*
X0Y644D02*
X7Y644D01*
X5503Y644D02*
X5510Y644D01*
X0Y643D02*
X7Y643D01*
X5503Y643D02*
X5510Y643D01*
X0Y642D02*
X7Y642D01*
X5503Y642D02*
X5510Y642D01*
X0Y641D02*
X7Y641D01*
X5503Y641D02*
X5510Y641D01*
X0Y640D02*
X7Y640D01*
X5503Y640D02*
X5510Y640D01*
X0Y639D02*
X7Y639D01*
X5503Y639D02*
X5510Y639D01*
X0Y638D02*
X7Y638D01*
X5503Y638D02*
X5510Y638D01*
X0Y637D02*
X7Y637D01*
X5503Y637D02*
X5510Y637D01*
X0Y636D02*
X7Y636D01*
X5503Y636D02*
X5510Y636D01*
X0Y635D02*
X7Y635D01*
X5503Y635D02*
X5510Y635D01*
X0Y634D02*
X7Y634D01*
X5503Y634D02*
X5510Y634D01*
X0Y633D02*
X7Y633D01*
X5503Y633D02*
X5510Y633D01*
X0Y632D02*
X7Y632D01*
X5503Y632D02*
X5510Y632D01*
X0Y631D02*
X7Y631D01*
X5503Y631D02*
X5510Y631D01*
X0Y630D02*
X7Y630D01*
X5503Y630D02*
X5510Y630D01*
X0Y629D02*
X7Y629D01*
X5503Y629D02*
X5510Y629D01*
X0Y628D02*
X7Y628D01*
X5503Y628D02*
X5510Y628D01*
X0Y627D02*
X7Y627D01*
X5503Y627D02*
X5510Y627D01*
X0Y626D02*
X7Y626D01*
X5503Y626D02*
X5510Y626D01*
X0Y625D02*
X7Y625D01*
X5503Y625D02*
X5510Y625D01*
X0Y624D02*
X7Y624D01*
X5503Y624D02*
X5510Y624D01*
X0Y623D02*
X7Y623D01*
X5503Y623D02*
X5510Y623D01*
X0Y622D02*
X7Y622D01*
X5503Y622D02*
X5510Y622D01*
X0Y621D02*
X7Y621D01*
X5503Y621D02*
X5510Y621D01*
X0Y620D02*
X7Y620D01*
X5503Y620D02*
X5510Y620D01*
X0Y619D02*
X7Y619D01*
X5503Y619D02*
X5510Y619D01*
X0Y618D02*
X7Y618D01*
X5503Y618D02*
X5510Y618D01*
X0Y617D02*
X7Y617D01*
X5503Y617D02*
X5510Y617D01*
X0Y616D02*
X7Y616D01*
X5503Y616D02*
X5510Y616D01*
X0Y615D02*
X7Y615D01*
X5503Y615D02*
X5510Y615D01*
X0Y614D02*
X7Y614D01*
X5503Y614D02*
X5510Y614D01*
X0Y613D02*
X7Y613D01*
X5503Y613D02*
X5510Y613D01*
X0Y612D02*
X7Y612D01*
X5503Y612D02*
X5510Y612D01*
X0Y611D02*
X7Y611D01*
X5503Y611D02*
X5510Y611D01*
X0Y610D02*
X7Y610D01*
X5503Y610D02*
X5510Y610D01*
X0Y609D02*
X7Y609D01*
X5503Y609D02*
X5510Y609D01*
X0Y608D02*
X7Y608D01*
X5503Y608D02*
X5510Y608D01*
X0Y607D02*
X7Y607D01*
X5503Y607D02*
X5510Y607D01*
X0Y606D02*
X7Y606D01*
X5503Y606D02*
X5510Y606D01*
X0Y605D02*
X7Y605D01*
X5503Y605D02*
X5510Y605D01*
X0Y604D02*
X7Y604D01*
X5503Y604D02*
X5510Y604D01*
X0Y603D02*
X7Y603D01*
X5503Y603D02*
X5510Y603D01*
X0Y602D02*
X7Y602D01*
X5503Y602D02*
X5510Y602D01*
X0Y601D02*
X7Y601D01*
X5503Y601D02*
X5510Y601D01*
X0Y600D02*
X7Y600D01*
X5503Y600D02*
X5510Y600D01*
X0Y599D02*
X7Y599D01*
X5503Y599D02*
X5510Y599D01*
X0Y598D02*
X7Y598D01*
X5503Y598D02*
X5510Y598D01*
X0Y597D02*
X7Y597D01*
X5503Y597D02*
X5510Y597D01*
X0Y596D02*
X7Y596D01*
X5503Y596D02*
X5510Y596D01*
X0Y595D02*
X7Y595D01*
X5503Y595D02*
X5510Y595D01*
X0Y594D02*
X7Y594D01*
X5503Y594D02*
X5510Y594D01*
X0Y593D02*
X7Y593D01*
X5503Y593D02*
X5510Y593D01*
X0Y592D02*
X7Y592D01*
X5503Y592D02*
X5510Y592D01*
X0Y591D02*
X7Y591D01*
X5503Y591D02*
X5510Y591D01*
X0Y590D02*
X7Y590D01*
X5503Y590D02*
X5510Y590D01*
X0Y589D02*
X7Y589D01*
X5503Y589D02*
X5510Y589D01*
X0Y588D02*
X7Y588D01*
X5503Y588D02*
X5510Y588D01*
X0Y587D02*
X7Y587D01*
X5503Y587D02*
X5510Y587D01*
X0Y586D02*
X7Y586D01*
X5503Y586D02*
X5510Y586D01*
X0Y585D02*
X7Y585D01*
X5503Y585D02*
X5510Y585D01*
X0Y584D02*
X7Y584D01*
X5503Y584D02*
X5510Y584D01*
X0Y583D02*
X7Y583D01*
X5503Y583D02*
X5510Y583D01*
X0Y582D02*
X7Y582D01*
X5503Y582D02*
X5510Y582D01*
X0Y581D02*
X7Y581D01*
X5503Y581D02*
X5510Y581D01*
X0Y580D02*
X7Y580D01*
X5503Y580D02*
X5510Y580D01*
X0Y579D02*
X7Y579D01*
X5503Y579D02*
X5510Y579D01*
X0Y578D02*
X7Y578D01*
X5503Y578D02*
X5510Y578D01*
X0Y577D02*
X7Y577D01*
X5503Y577D02*
X5510Y577D01*
X0Y576D02*
X7Y576D01*
X5503Y576D02*
X5510Y576D01*
X0Y575D02*
X7Y575D01*
X5503Y575D02*
X5510Y575D01*
X0Y574D02*
X7Y574D01*
X5503Y574D02*
X5510Y574D01*
X0Y573D02*
X7Y573D01*
X5503Y573D02*
X5510Y573D01*
X0Y572D02*
X7Y572D01*
X5503Y572D02*
X5510Y572D01*
X0Y571D02*
X7Y571D01*
X5503Y571D02*
X5510Y571D01*
X0Y570D02*
X7Y570D01*
X5503Y570D02*
X5510Y570D01*
X0Y569D02*
X7Y569D01*
X5503Y569D02*
X5510Y569D01*
X0Y568D02*
X7Y568D01*
X5503Y568D02*
X5510Y568D01*
X0Y567D02*
X7Y567D01*
X5503Y567D02*
X5510Y567D01*
X0Y566D02*
X7Y566D01*
X5503Y566D02*
X5510Y566D01*
X0Y565D02*
X7Y565D01*
X5503Y565D02*
X5510Y565D01*
X0Y564D02*
X7Y564D01*
X5503Y564D02*
X5510Y564D01*
X0Y563D02*
X7Y563D01*
X5503Y563D02*
X5510Y563D01*
X0Y562D02*
X7Y562D01*
X5503Y562D02*
X5510Y562D01*
X0Y561D02*
X7Y561D01*
X5503Y561D02*
X5510Y561D01*
X0Y560D02*
X7Y560D01*
X5503Y560D02*
X5510Y560D01*
X0Y559D02*
X7Y559D01*
X5503Y559D02*
X5510Y559D01*
X0Y558D02*
X7Y558D01*
X5503Y558D02*
X5510Y558D01*
X0Y557D02*
X7Y557D01*
X5503Y557D02*
X5510Y557D01*
X0Y556D02*
X7Y556D01*
X5503Y556D02*
X5510Y556D01*
X0Y555D02*
X7Y555D01*
X5503Y555D02*
X5510Y555D01*
X0Y554D02*
X7Y554D01*
X5503Y554D02*
X5510Y554D01*
X0Y553D02*
X7Y553D01*
X5503Y553D02*
X5510Y553D01*
X0Y552D02*
X7Y552D01*
X5503Y552D02*
X5510Y552D01*
X0Y551D02*
X7Y551D01*
X5503Y551D02*
X5510Y551D01*
X0Y550D02*
X7Y550D01*
X5503Y550D02*
X5510Y550D01*
X0Y549D02*
X7Y549D01*
X5503Y549D02*
X5510Y549D01*
X0Y548D02*
X7Y548D01*
X5503Y548D02*
X5510Y548D01*
X0Y547D02*
X7Y547D01*
X5503Y547D02*
X5510Y547D01*
X0Y546D02*
X7Y546D01*
X5503Y546D02*
X5510Y546D01*
X0Y545D02*
X7Y545D01*
X5503Y545D02*
X5510Y545D01*
X0Y544D02*
X7Y544D01*
X5503Y544D02*
X5510Y544D01*
X0Y543D02*
X7Y543D01*
X5503Y543D02*
X5510Y543D01*
X0Y542D02*
X7Y542D01*
X5503Y542D02*
X5510Y542D01*
X0Y541D02*
X7Y541D01*
X5503Y541D02*
X5510Y541D01*
X0Y540D02*
X7Y540D01*
X5503Y540D02*
X5510Y540D01*
X0Y539D02*
X7Y539D01*
X5503Y539D02*
X5510Y539D01*
X0Y538D02*
X7Y538D01*
X5503Y538D02*
X5510Y538D01*
X0Y537D02*
X7Y537D01*
X5503Y537D02*
X5510Y537D01*
X0Y536D02*
X7Y536D01*
X5503Y536D02*
X5510Y536D01*
X0Y535D02*
X7Y535D01*
X5503Y535D02*
X5510Y535D01*
X0Y534D02*
X7Y534D01*
X5503Y534D02*
X5510Y534D01*
X0Y533D02*
X7Y533D01*
X5503Y533D02*
X5510Y533D01*
X0Y532D02*
X7Y532D01*
X5503Y532D02*
X5510Y532D01*
X0Y531D02*
X7Y531D01*
X5503Y531D02*
X5510Y531D01*
X0Y530D02*
X7Y530D01*
X5503Y530D02*
X5510Y530D01*
X0Y529D02*
X7Y529D01*
X5503Y529D02*
X5510Y529D01*
X0Y528D02*
X7Y528D01*
X5503Y528D02*
X5510Y528D01*
X0Y527D02*
X7Y527D01*
X5503Y527D02*
X5510Y527D01*
X0Y526D02*
X7Y526D01*
X5503Y526D02*
X5510Y526D01*
X0Y525D02*
X7Y525D01*
X5503Y525D02*
X5510Y525D01*
X0Y524D02*
X7Y524D01*
X5503Y524D02*
X5510Y524D01*
X0Y523D02*
X7Y523D01*
X5503Y523D02*
X5510Y523D01*
X0Y522D02*
X7Y522D01*
X5503Y522D02*
X5510Y522D01*
X0Y521D02*
X7Y521D01*
X5503Y521D02*
X5510Y521D01*
X0Y520D02*
X7Y520D01*
X5503Y520D02*
X5510Y520D01*
X0Y519D02*
X7Y519D01*
X5503Y519D02*
X5510Y519D01*
X0Y518D02*
X7Y518D01*
X5503Y518D02*
X5510Y518D01*
X0Y517D02*
X7Y517D01*
X5503Y517D02*
X5510Y517D01*
X0Y516D02*
X7Y516D01*
X5503Y516D02*
X5510Y516D01*
X0Y515D02*
X7Y515D01*
X5503Y515D02*
X5510Y515D01*
X0Y514D02*
X7Y514D01*
X5503Y514D02*
X5510Y514D01*
X0Y513D02*
X7Y513D01*
X5503Y513D02*
X5510Y513D01*
X0Y512D02*
X7Y512D01*
X5503Y512D02*
X5510Y512D01*
X0Y511D02*
X7Y511D01*
X5503Y511D02*
X5510Y511D01*
X0Y510D02*
X7Y510D01*
X5503Y510D02*
X5510Y510D01*
X0Y509D02*
X7Y509D01*
X5503Y509D02*
X5510Y509D01*
X0Y508D02*
X7Y508D01*
X5503Y508D02*
X5510Y508D01*
X0Y507D02*
X7Y507D01*
X5503Y507D02*
X5510Y507D01*
X0Y506D02*
X7Y506D01*
X5503Y506D02*
X5510Y506D01*
X0Y505D02*
X7Y505D01*
X5503Y505D02*
X5510Y505D01*
X0Y504D02*
X7Y504D01*
X5503Y504D02*
X5510Y504D01*
X0Y503D02*
X7Y503D01*
X5503Y503D02*
X5510Y503D01*
X0Y502D02*
X7Y502D01*
X5503Y502D02*
X5510Y502D01*
X0Y501D02*
X7Y501D01*
X5503Y501D02*
X5510Y501D01*
X0Y500D02*
X7Y500D01*
X5503Y500D02*
X5510Y500D01*
X0Y499D02*
X7Y499D01*
X5503Y499D02*
X5510Y499D01*
X0Y498D02*
X7Y498D01*
X5503Y498D02*
X5510Y498D01*
X0Y497D02*
X7Y497D01*
X5503Y497D02*
X5510Y497D01*
X0Y496D02*
X7Y496D01*
X5503Y496D02*
X5510Y496D01*
X0Y495D02*
X7Y495D01*
X5503Y495D02*
X5510Y495D01*
X0Y494D02*
X7Y494D01*
X5503Y494D02*
X5510Y494D01*
X0Y493D02*
X7Y493D01*
X5503Y493D02*
X5510Y493D01*
X0Y492D02*
X7Y492D01*
X5503Y492D02*
X5510Y492D01*
X0Y491D02*
X7Y491D01*
X5503Y491D02*
X5510Y491D01*
X0Y490D02*
X7Y490D01*
X5503Y490D02*
X5510Y490D01*
X0Y489D02*
X7Y489D01*
X5503Y489D02*
X5510Y489D01*
X0Y488D02*
X7Y488D01*
X5503Y488D02*
X5510Y488D01*
X0Y487D02*
X7Y487D01*
X5503Y487D02*
X5510Y487D01*
X0Y486D02*
X7Y486D01*
X5503Y486D02*
X5510Y486D01*
X0Y485D02*
X7Y485D01*
X5503Y485D02*
X5510Y485D01*
X0Y484D02*
X7Y484D01*
X5503Y484D02*
X5510Y484D01*
X0Y483D02*
X7Y483D01*
X5503Y483D02*
X5510Y483D01*
X0Y482D02*
X7Y482D01*
X5503Y482D02*
X5510Y482D01*
X0Y481D02*
X7Y481D01*
X5503Y481D02*
X5510Y481D01*
X0Y480D02*
X7Y480D01*
X5503Y480D02*
X5510Y480D01*
X0Y479D02*
X7Y479D01*
X5503Y479D02*
X5510Y479D01*
X0Y478D02*
X7Y478D01*
X5503Y478D02*
X5510Y478D01*
X0Y477D02*
X7Y477D01*
X5503Y477D02*
X5510Y477D01*
X0Y476D02*
X7Y476D01*
X5503Y476D02*
X5510Y476D01*
X0Y475D02*
X7Y475D01*
X5503Y475D02*
X5510Y475D01*
X0Y474D02*
X7Y474D01*
X5503Y474D02*
X5510Y474D01*
X0Y473D02*
X7Y473D01*
X5503Y473D02*
X5510Y473D01*
X0Y472D02*
X7Y472D01*
X5503Y472D02*
X5510Y472D01*
X0Y471D02*
X7Y471D01*
X5503Y471D02*
X5510Y471D01*
X0Y470D02*
X7Y470D01*
X5503Y470D02*
X5510Y470D01*
X0Y469D02*
X7Y469D01*
X5503Y469D02*
X5510Y469D01*
X0Y468D02*
X7Y468D01*
X5503Y468D02*
X5510Y468D01*
X0Y467D02*
X7Y467D01*
X5503Y467D02*
X5510Y467D01*
X0Y466D02*
X7Y466D01*
X5503Y466D02*
X5510Y466D01*
X0Y465D02*
X7Y465D01*
X5503Y465D02*
X5510Y465D01*
X0Y464D02*
X7Y464D01*
X5503Y464D02*
X5510Y464D01*
X0Y463D02*
X7Y463D01*
X5503Y463D02*
X5510Y463D01*
X0Y462D02*
X7Y462D01*
X5503Y462D02*
X5510Y462D01*
X0Y461D02*
X7Y461D01*
X5503Y461D02*
X5510Y461D01*
X0Y460D02*
X7Y460D01*
X5503Y460D02*
X5510Y460D01*
X0Y459D02*
X7Y459D01*
X5503Y459D02*
X5510Y459D01*
X0Y458D02*
X7Y458D01*
X5503Y458D02*
X5510Y458D01*
X0Y457D02*
X7Y457D01*
X5503Y457D02*
X5510Y457D01*
X0Y456D02*
X7Y456D01*
X5503Y456D02*
X5510Y456D01*
X0Y455D02*
X7Y455D01*
X5503Y455D02*
X5510Y455D01*
X0Y454D02*
X7Y454D01*
X5503Y454D02*
X5510Y454D01*
X0Y453D02*
X7Y453D01*
X5503Y453D02*
X5510Y453D01*
X0Y452D02*
X7Y452D01*
X5503Y452D02*
X5510Y452D01*
X0Y451D02*
X7Y451D01*
X5503Y451D02*
X5510Y451D01*
X0Y450D02*
X7Y450D01*
X5503Y450D02*
X5510Y450D01*
X0Y449D02*
X7Y449D01*
X5503Y449D02*
X5510Y449D01*
X0Y448D02*
X7Y448D01*
X5503Y448D02*
X5510Y448D01*
X0Y447D02*
X7Y447D01*
X5503Y447D02*
X5510Y447D01*
X0Y446D02*
X7Y446D01*
X5503Y446D02*
X5510Y446D01*
X0Y445D02*
X7Y445D01*
X5503Y445D02*
X5510Y445D01*
X0Y444D02*
X7Y444D01*
X5503Y444D02*
X5510Y444D01*
X0Y443D02*
X7Y443D01*
X5503Y443D02*
X5510Y443D01*
X0Y442D02*
X7Y442D01*
X5503Y442D02*
X5510Y442D01*
X0Y441D02*
X7Y441D01*
X5503Y441D02*
X5510Y441D01*
X0Y440D02*
X7Y440D01*
X5503Y440D02*
X5510Y440D01*
X0Y439D02*
X7Y439D01*
X5503Y439D02*
X5510Y439D01*
X0Y438D02*
X7Y438D01*
X5503Y438D02*
X5510Y438D01*
X0Y437D02*
X7Y437D01*
X5503Y437D02*
X5510Y437D01*
X0Y436D02*
X7Y436D01*
X5503Y436D02*
X5510Y436D01*
X0Y435D02*
X7Y435D01*
X5503Y435D02*
X5510Y435D01*
X0Y434D02*
X7Y434D01*
X5503Y434D02*
X5510Y434D01*
X0Y433D02*
X7Y433D01*
X5503Y433D02*
X5510Y433D01*
X0Y432D02*
X7Y432D01*
X5503Y432D02*
X5510Y432D01*
X0Y431D02*
X7Y431D01*
X5503Y431D02*
X5510Y431D01*
X0Y430D02*
X7Y430D01*
X5503Y430D02*
X5510Y430D01*
X0Y429D02*
X7Y429D01*
X5503Y429D02*
X5510Y429D01*
X0Y428D02*
X7Y428D01*
X5503Y428D02*
X5510Y428D01*
X0Y427D02*
X7Y427D01*
X5503Y427D02*
X5510Y427D01*
X0Y426D02*
X7Y426D01*
X5503Y426D02*
X5510Y426D01*
X0Y425D02*
X7Y425D01*
X5503Y425D02*
X5510Y425D01*
X0Y424D02*
X7Y424D01*
X5503Y424D02*
X5510Y424D01*
X0Y423D02*
X7Y423D01*
X5503Y423D02*
X5510Y423D01*
X0Y422D02*
X7Y422D01*
X5503Y422D02*
X5510Y422D01*
X0Y421D02*
X7Y421D01*
X5503Y421D02*
X5510Y421D01*
X0Y420D02*
X7Y420D01*
X5503Y420D02*
X5510Y420D01*
X0Y419D02*
X7Y419D01*
X5503Y419D02*
X5510Y419D01*
X0Y418D02*
X7Y418D01*
X5503Y418D02*
X5510Y418D01*
X0Y417D02*
X7Y417D01*
X5503Y417D02*
X5510Y417D01*
X0Y416D02*
X7Y416D01*
X5503Y416D02*
X5510Y416D01*
X0Y415D02*
X7Y415D01*
X5503Y415D02*
X5510Y415D01*
X0Y414D02*
X7Y414D01*
X5503Y414D02*
X5510Y414D01*
X0Y413D02*
X7Y413D01*
X5503Y413D02*
X5510Y413D01*
X0Y412D02*
X7Y412D01*
X5503Y412D02*
X5510Y412D01*
X0Y411D02*
X7Y411D01*
X5503Y411D02*
X5510Y411D01*
X0Y410D02*
X7Y410D01*
X5503Y410D02*
X5510Y410D01*
X0Y409D02*
X7Y409D01*
X5503Y409D02*
X5510Y409D01*
X0Y408D02*
X7Y408D01*
X5503Y408D02*
X5510Y408D01*
X0Y407D02*
X7Y407D01*
X5503Y407D02*
X5510Y407D01*
X0Y406D02*
X7Y406D01*
X5503Y406D02*
X5510Y406D01*
X0Y405D02*
X7Y405D01*
X5503Y405D02*
X5510Y405D01*
X0Y404D02*
X7Y404D01*
X5503Y404D02*
X5510Y404D01*
X0Y403D02*
X7Y403D01*
X5503Y403D02*
X5510Y403D01*
X0Y402D02*
X7Y402D01*
X5503Y402D02*
X5510Y402D01*
X0Y401D02*
X7Y401D01*
X5503Y401D02*
X5510Y401D01*
X0Y400D02*
X7Y400D01*
X5503Y400D02*
X5510Y400D01*
X0Y399D02*
X7Y399D01*
X5503Y399D02*
X5510Y399D01*
X0Y398D02*
X7Y398D01*
X5503Y398D02*
X5510Y398D01*
X0Y397D02*
X7Y397D01*
X5503Y397D02*
X5510Y397D01*
X0Y396D02*
X7Y396D01*
X5503Y396D02*
X5510Y396D01*
X0Y395D02*
X7Y395D01*
X5503Y395D02*
X5510Y395D01*
X0Y394D02*
X7Y394D01*
X5503Y394D02*
X5510Y394D01*
X0Y393D02*
X7Y393D01*
X5503Y393D02*
X5510Y393D01*
X0Y392D02*
X7Y392D01*
X5503Y392D02*
X5510Y392D01*
X0Y391D02*
X7Y391D01*
X5503Y391D02*
X5510Y391D01*
X0Y390D02*
X7Y390D01*
X5503Y390D02*
X5510Y390D01*
X0Y389D02*
X7Y389D01*
X5503Y389D02*
X5510Y389D01*
X0Y388D02*
X7Y388D01*
X5503Y388D02*
X5510Y388D01*
X0Y387D02*
X7Y387D01*
X5503Y387D02*
X5510Y387D01*
X0Y386D02*
X7Y386D01*
X5503Y386D02*
X5510Y386D01*
X0Y385D02*
X7Y385D01*
X5503Y385D02*
X5510Y385D01*
X0Y384D02*
X7Y384D01*
X5503Y384D02*
X5510Y384D01*
X0Y383D02*
X7Y383D01*
X5503Y383D02*
X5510Y383D01*
X0Y382D02*
X7Y382D01*
X5503Y382D02*
X5510Y382D01*
X0Y381D02*
X7Y381D01*
X5503Y381D02*
X5510Y381D01*
X0Y380D02*
X7Y380D01*
X5503Y380D02*
X5510Y380D01*
X0Y379D02*
X7Y379D01*
X5503Y379D02*
X5510Y379D01*
X1Y378D02*
X8Y378D01*
X5503Y378D02*
X5510Y378D01*
X1Y377D02*
X8Y377D01*
X5502Y377D02*
X5509Y377D01*
X1Y376D02*
X8Y376D01*
X5502Y376D02*
X5509Y376D01*
X1Y375D02*
X8Y375D01*
X5502Y375D02*
X5509Y375D01*
X1Y374D02*
X8Y374D01*
X5502Y374D02*
X5509Y374D01*
X1Y373D02*
X8Y373D01*
X5502Y373D02*
X5509Y373D01*
X1Y372D02*
X8Y372D01*
X5502Y372D02*
X5509Y372D01*
X1Y371D02*
X8Y371D01*
X5502Y371D02*
X5509Y371D01*
X1Y370D02*
X8Y370D01*
X5502Y370D02*
X5509Y370D01*
X1Y369D02*
X8Y369D01*
X5502Y369D02*
X5509Y369D01*
X1Y368D02*
X8Y368D01*
X5502Y368D02*
X5509Y368D01*
X1Y367D02*
X8Y367D01*
X5502Y367D02*
X5509Y367D01*
X1Y366D02*
X8Y366D01*
X5502Y366D02*
X5509Y366D01*
X1Y365D02*
X8Y365D01*
X5502Y365D02*
X5509Y365D01*
X1Y364D02*
X8Y364D01*
X5502Y364D02*
X5509Y364D01*
X2Y363D02*
X9Y363D01*
X5501Y363D02*
X5508Y363D01*
X2Y362D02*
X9Y362D01*
X5501Y362D02*
X5508Y362D01*
X2Y361D02*
X9Y361D01*
X5501Y361D02*
X5508Y361D01*
X2Y360D02*
X9Y360D01*
X5501Y360D02*
X5508Y360D01*
X2Y359D02*
X9Y359D01*
X5501Y359D02*
X5508Y359D01*
X2Y358D02*
X9Y358D01*
X5501Y358D02*
X5508Y358D01*
X2Y357D02*
X9Y357D01*
X5501Y357D02*
X5508Y357D01*
X2Y356D02*
X9Y356D01*
X5501Y356D02*
X5508Y356D01*
X2Y355D02*
X9Y355D01*
X5501Y355D02*
X5508Y355D01*
X2Y354D02*
X9Y354D01*
X5501Y354D02*
X5508Y354D01*
X3Y353D02*
X10Y353D01*
X5500Y353D02*
X5507Y353D01*
X3Y352D02*
X10Y352D01*
X5500Y352D02*
X5507Y352D01*
X3Y351D02*
X10Y351D01*
X5500Y351D02*
X5507Y351D01*
X3Y350D02*
X10Y350D01*
X5500Y350D02*
X5507Y350D01*
X3Y349D02*
X10Y349D01*
X5500Y349D02*
X5507Y349D01*
X3Y348D02*
X10Y348D01*
X5500Y348D02*
X5507Y348D01*
X3Y347D02*
X10Y347D01*
X5500Y347D02*
X5507Y347D01*
X3Y346D02*
X10Y346D01*
X5500Y346D02*
X5507Y346D01*
X4Y345D02*
X11Y345D01*
X5499Y345D02*
X5507Y345D01*
X4Y344D02*
X11Y344D01*
X5499Y344D02*
X5506Y344D01*
X4Y343D02*
X11Y343D01*
X5499Y343D02*
X5506Y343D01*
X4Y342D02*
X11Y342D01*
X5499Y342D02*
X5506Y342D01*
X4Y341D02*
X11Y341D01*
X5499Y341D02*
X5506Y341D01*
X4Y340D02*
X11Y340D01*
X5499Y340D02*
X5506Y340D01*
X4Y339D02*
X11Y339D01*
X5499Y339D02*
X5506Y339D01*
X4Y338D02*
X12Y338D01*
X5498Y338D02*
X5506Y338D01*
X5Y337D02*
X12Y337D01*
X5498Y337D02*
X5505Y337D01*
X5Y336D02*
X12Y336D01*
X5498Y336D02*
X5505Y336D01*
X5Y335D02*
X12Y335D01*
X5498Y335D02*
X5505Y335D01*
X5Y334D02*
X12Y334D01*
X5498Y334D02*
X5505Y334D01*
X5Y333D02*
X12Y333D01*
X5498Y333D02*
X5505Y333D01*
X5Y332D02*
X12Y332D01*
X5498Y332D02*
X5505Y332D01*
X6Y331D02*
X13Y331D01*
X5497Y331D02*
X5504Y331D01*
X6Y330D02*
X13Y330D01*
X5497Y330D02*
X5504Y330D01*
X6Y329D02*
X13Y329D01*
X5497Y329D02*
X5504Y329D01*
X6Y328D02*
X13Y328D01*
X5497Y328D02*
X5504Y328D01*
X6Y327D02*
X13Y327D01*
X5497Y327D02*
X5504Y327D01*
X6Y326D02*
X14Y326D01*
X5496Y326D02*
X5504Y326D01*
X7Y325D02*
X14Y325D01*
X5496Y325D02*
X5503Y325D01*
X7Y324D02*
X14Y324D01*
X5496Y324D02*
X5503Y324D01*
X7Y323D02*
X14Y323D01*
X5496Y323D02*
X5503Y323D01*
X7Y322D02*
X14Y322D01*
X5496Y322D02*
X5503Y322D01*
X7Y321D02*
X14Y321D01*
X5496Y321D02*
X5503Y321D01*
X8Y320D02*
X15Y320D01*
X5495Y320D02*
X5502Y320D01*
X8Y319D02*
X15Y319D01*
X5495Y319D02*
X5502Y319D01*
X8Y318D02*
X15Y318D01*
X5495Y318D02*
X5502Y318D01*
X8Y317D02*
X15Y317D01*
X5495Y317D02*
X5502Y317D01*
X8Y316D02*
X16Y316D01*
X5494Y316D02*
X5502Y316D01*
X9Y315D02*
X16Y315D01*
X5494Y315D02*
X5501Y315D01*
X9Y314D02*
X16Y314D01*
X5494Y314D02*
X5501Y314D01*
X9Y313D02*
X16Y313D01*
X5494Y313D02*
X5501Y313D01*
X9Y312D02*
X16Y312D01*
X5494Y312D02*
X5501Y312D01*
X9Y311D02*
X17Y311D01*
X5493Y311D02*
X5501Y311D01*
X10Y310D02*
X17Y310D01*
X5493Y310D02*
X5500Y310D01*
X10Y309D02*
X17Y309D01*
X5493Y309D02*
X5500Y309D01*
X10Y308D02*
X17Y308D01*
X5493Y308D02*
X5500Y308D01*
X10Y307D02*
X18Y307D01*
X5492Y307D02*
X5500Y307D01*
X11Y306D02*
X18Y306D01*
X5492Y306D02*
X5499Y306D01*
X11Y305D02*
X18Y305D01*
X5492Y305D02*
X5499Y305D01*
X11Y304D02*
X18Y304D01*
X5492Y304D02*
X5499Y304D01*
X11Y303D02*
X18Y303D01*
X5492Y303D02*
X5499Y303D01*
X12Y302D02*
X19Y302D01*
X5491Y302D02*
X5498Y302D01*
X12Y301D02*
X19Y301D01*
X5491Y301D02*
X5498Y301D01*
X12Y300D02*
X19Y300D01*
X5491Y300D02*
X5498Y300D01*
X12Y299D02*
X19Y299D01*
X5491Y299D02*
X5498Y299D01*
X13Y298D02*
X20Y298D01*
X5490Y298D02*
X5497Y298D01*
X13Y297D02*
X20Y297D01*
X5490Y297D02*
X5497Y297D01*
X13Y296D02*
X20Y296D01*
X5490Y296D02*
X5497Y296D01*
X13Y295D02*
X21Y295D01*
X5489Y295D02*
X5497Y295D01*
X14Y294D02*
X21Y294D01*
X5489Y294D02*
X5496Y294D01*
X14Y293D02*
X21Y293D01*
X5489Y293D02*
X5496Y293D01*
X14Y292D02*
X21Y292D01*
X5489Y292D02*
X5496Y292D01*
X14Y291D02*
X22Y291D01*
X5488Y291D02*
X5496Y291D01*
X15Y290D02*
X22Y290D01*
X5488Y290D02*
X5495Y290D01*
X15Y289D02*
X22Y289D01*
X5488Y289D02*
X5495Y289D01*
X15Y288D02*
X22Y288D01*
X5488Y288D02*
X5495Y288D01*
X16Y287D02*
X23Y287D01*
X5487Y287D02*
X5494Y287D01*
X16Y286D02*
X23Y286D01*
X5487Y286D02*
X5494Y286D01*
X16Y285D02*
X23Y285D01*
X5487Y285D02*
X5494Y285D01*
X16Y284D02*
X24Y284D01*
X5486Y284D02*
X5494Y284D01*
X17Y283D02*
X24Y283D01*
X5486Y283D02*
X5493Y283D01*
X17Y282D02*
X24Y282D01*
X5486Y282D02*
X5493Y282D01*
X17Y281D02*
X25Y281D01*
X5485Y281D02*
X5493Y281D01*
X18Y280D02*
X25Y280D01*
X5485Y280D02*
X5492Y280D01*
X18Y279D02*
X25Y279D01*
X5485Y279D02*
X5492Y279D01*
X18Y278D02*
X26Y278D01*
X5484Y278D02*
X5492Y278D01*
X19Y277D02*
X26Y277D01*
X5484Y277D02*
X5491Y277D01*
X19Y276D02*
X26Y276D01*
X5484Y276D02*
X5491Y276D01*
X19Y275D02*
X27Y275D01*
X5483Y275D02*
X5491Y275D01*
X20Y274D02*
X27Y274D01*
X5483Y274D02*
X5490Y274D01*
X20Y273D02*
X27Y273D01*
X5483Y273D02*
X5490Y273D01*
X20Y272D02*
X28Y272D01*
X5482Y272D02*
X5490Y272D01*
X21Y271D02*
X28Y271D01*
X5482Y271D02*
X5489Y271D01*
X21Y270D02*
X28Y270D01*
X5482Y270D02*
X5489Y270D01*
X21Y269D02*
X29Y269D01*
X5481Y269D02*
X5489Y269D01*
X22Y268D02*
X29Y268D01*
X5481Y268D02*
X5488Y268D01*
X22Y267D02*
X29Y267D01*
X5481Y267D02*
X5488Y267D01*
X22Y266D02*
X30Y266D01*
X5480Y266D02*
X5488Y266D01*
X23Y265D02*
X30Y265D01*
X5480Y265D02*
X5487Y265D01*
X23Y264D02*
X30Y264D01*
X5480Y264D02*
X5487Y264D01*
X23Y263D02*
X31Y263D01*
X5479Y263D02*
X5487Y263D01*
X24Y262D02*
X31Y262D01*
X5479Y262D02*
X5486Y262D01*
X24Y261D02*
X31Y261D01*
X5479Y261D02*
X5486Y261D01*
X24Y260D02*
X32Y260D01*
X5478Y260D02*
X5486Y260D01*
X25Y259D02*
X32Y259D01*
X5478Y259D02*
X5485Y259D01*
X25Y258D02*
X33Y258D01*
X5477Y258D02*
X5485Y258D01*
X26Y257D02*
X33Y257D01*
X5477Y257D02*
X5484Y257D01*
X26Y256D02*
X33Y256D01*
X5477Y256D02*
X5484Y256D01*
X26Y255D02*
X34Y255D01*
X5476Y255D02*
X5484Y255D01*
X27Y254D02*
X34Y254D01*
X5476Y254D02*
X5483Y254D01*
X27Y253D02*
X35Y253D01*
X5476Y253D02*
X5483Y253D01*
X27Y252D02*
X35Y252D01*
X5475Y252D02*
X5483Y252D01*
X28Y251D02*
X35Y251D01*
X5475Y251D02*
X5482Y251D01*
X28Y250D02*
X36Y250D01*
X5474Y250D02*
X5482Y250D01*
X29Y249D02*
X36Y249D01*
X5474Y249D02*
X5481Y249D01*
X29Y248D02*
X36Y248D01*
X5474Y248D02*
X5481Y248D01*
X29Y247D02*
X37Y247D01*
X5473Y247D02*
X5481Y247D01*
X30Y246D02*
X37Y246D01*
X5473Y246D02*
X5480Y246D01*
X30Y245D02*
X38Y245D01*
X5472Y245D02*
X5480Y245D01*
X31Y244D02*
X38Y244D01*
X5472Y244D02*
X5479Y244D01*
X31Y243D02*
X39Y243D01*
X5471Y243D02*
X5479Y243D01*
X31Y242D02*
X39Y242D01*
X5471Y242D02*
X5479Y242D01*
X32Y241D02*
X39Y241D01*
X5471Y241D02*
X5478Y241D01*
X32Y240D02*
X40Y240D01*
X5470Y240D02*
X5478Y240D01*
X33Y239D02*
X40Y239D01*
X5470Y239D02*
X5477Y239D01*
X33Y238D02*
X41Y238D01*
X5469Y238D02*
X5477Y238D01*
X34Y237D02*
X41Y237D01*
X5469Y237D02*
X5476Y237D01*
X34Y236D02*
X42Y236D01*
X5468Y236D02*
X5476Y236D01*
X35Y235D02*
X42Y235D01*
X5468Y235D02*
X5475Y235D01*
X35Y234D02*
X43Y234D01*
X5467Y234D02*
X5475Y234D01*
X35Y233D02*
X43Y233D01*
X5467Y233D02*
X5475Y233D01*
X36Y232D02*
X43Y232D01*
X5467Y232D02*
X5474Y232D01*
X36Y231D02*
X44Y231D01*
X5466Y231D02*
X5474Y231D01*
X37Y230D02*
X44Y230D01*
X5466Y230D02*
X5473Y230D01*
X37Y229D02*
X45Y229D01*
X5465Y229D02*
X5473Y229D01*
X38Y228D02*
X45Y228D01*
X5465Y228D02*
X5472Y228D01*
X38Y227D02*
X46Y227D01*
X5464Y227D02*
X5472Y227D01*
X39Y226D02*
X46Y226D01*
X5464Y226D02*
X5471Y226D01*
X39Y225D02*
X47Y225D01*
X5463Y225D02*
X5471Y225D01*
X40Y224D02*
X47Y224D01*
X5463Y224D02*
X5470Y224D01*
X40Y223D02*
X48Y223D01*
X5462Y223D02*
X5470Y223D01*
X41Y222D02*
X48Y222D01*
X5462Y222D02*
X5469Y222D01*
X41Y221D02*
X49Y221D01*
X5461Y221D02*
X5469Y221D01*
X42Y220D02*
X49Y220D01*
X5461Y220D02*
X5468Y220D01*
X42Y219D02*
X50Y219D01*
X5460Y219D02*
X5468Y219D01*
X43Y218D02*
X50Y218D01*
X5460Y218D02*
X5467Y218D01*
X43Y217D02*
X51Y217D01*
X5459Y217D02*
X5467Y217D01*
X44Y216D02*
X51Y216D01*
X5459Y216D02*
X5466Y216D01*
X44Y215D02*
X52Y215D01*
X5458Y215D02*
X5466Y215D01*
X45Y214D02*
X52Y214D01*
X5458Y214D02*
X5465Y214D01*
X45Y213D02*
X53Y213D01*
X5457Y213D02*
X5465Y213D01*
X46Y212D02*
X53Y212D01*
X5457Y212D02*
X5464Y212D01*
X46Y211D02*
X54Y211D01*
X5456Y211D02*
X5464Y211D01*
X47Y210D02*
X55Y210D01*
X5455Y210D02*
X5463Y210D01*
X47Y209D02*
X55Y209D01*
X5455Y209D02*
X5463Y209D01*
X48Y208D02*
X56Y208D01*
X5454Y208D02*
X5462Y208D01*
X48Y207D02*
X56Y207D01*
X5454Y207D02*
X5462Y207D01*
X49Y206D02*
X57Y206D01*
X5453Y206D02*
X5461Y206D01*
X49Y205D02*
X57Y205D01*
X5453Y205D02*
X5461Y205D01*
X50Y204D02*
X58Y204D01*
X5452Y204D02*
X5460Y204D01*
X50Y203D02*
X59Y203D01*
X5451Y203D02*
X5460Y203D01*
X51Y202D02*
X59Y202D01*
X5451Y202D02*
X5459Y202D01*
X52Y201D02*
X60Y201D01*
X5450Y201D02*
X5458Y201D01*
X52Y200D02*
X60Y200D01*
X5450Y200D02*
X5458Y200D01*
X53Y199D02*
X61Y199D01*
X5449Y199D02*
X5457Y199D01*
X53Y198D02*
X61Y198D01*
X5449Y198D02*
X5457Y198D01*
X54Y197D02*
X62Y197D01*
X5448Y197D02*
X5456Y197D01*
X54Y196D02*
X63Y196D01*
X5447Y196D02*
X5456Y196D01*
X55Y195D02*
X63Y195D01*
X5447Y195D02*
X5455Y195D01*
X56Y194D02*
X64Y194D01*
X5446Y194D02*
X5454Y194D01*
X56Y193D02*
X64Y193D01*
X5446Y193D02*
X5454Y193D01*
X57Y192D02*
X65Y192D01*
X5445Y192D02*
X5453Y192D01*
X57Y191D02*
X66Y191D01*
X5444Y191D02*
X5453Y191D01*
X58Y190D02*
X66Y190D01*
X5444Y190D02*
X5452Y190D01*
X59Y189D02*
X67Y189D01*
X5443Y189D02*
X5451Y189D01*
X59Y188D02*
X68Y188D01*
X5442Y188D02*
X5451Y188D01*
X60Y187D02*
X68Y187D01*
X5442Y187D02*
X5450Y187D01*
X60Y186D02*
X69Y186D01*
X5441Y186D02*
X5450Y186D01*
X61Y185D02*
X69Y185D01*
X5441Y185D02*
X5449Y185D01*
X62Y184D02*
X70Y184D01*
X5440Y184D02*
X5448Y184D01*
X62Y183D02*
X71Y183D01*
X5439Y183D02*
X5448Y183D01*
X63Y182D02*
X71Y182D01*
X5439Y182D02*
X5447Y182D01*
X64Y181D02*
X72Y181D01*
X5438Y181D02*
X5446Y181D01*
X64Y180D02*
X73Y180D01*
X5437Y180D02*
X5446Y180D01*
X65Y179D02*
X73Y179D01*
X5437Y179D02*
X5445Y179D01*
X65Y178D02*
X74Y178D01*
X5436Y178D02*
X5445Y178D01*
X66Y177D02*
X75Y177D01*
X5435Y177D02*
X5444Y177D01*
X67Y176D02*
X75Y176D01*
X5435Y176D02*
X5443Y176D01*
X67Y175D02*
X76Y175D01*
X5434Y175D02*
X5443Y175D01*
X68Y174D02*
X77Y174D01*
X5433Y174D02*
X5442Y174D01*
X69Y173D02*
X78Y173D01*
X5432Y173D02*
X5441Y173D01*
X70Y172D02*
X78Y172D01*
X5432Y172D02*
X5440Y172D01*
X70Y171D02*
X79Y171D01*
X5431Y171D02*
X5440Y171D01*
X71Y170D02*
X80Y170D01*
X5430Y170D02*
X5439Y170D01*
X72Y169D02*
X80Y169D01*
X5430Y169D02*
X5438Y169D01*
X72Y168D02*
X81Y168D01*
X5429Y168D02*
X5438Y168D01*
X73Y167D02*
X82Y167D01*
X5428Y167D02*
X5437Y167D01*
X74Y166D02*
X82Y166D01*
X5428Y166D02*
X5436Y166D01*
X74Y165D02*
X83Y165D01*
X5427Y165D02*
X5436Y165D01*
X75Y164D02*
X84Y164D01*
X5426Y164D02*
X5435Y164D01*
X76Y163D02*
X85Y163D01*
X5425Y163D02*
X5434Y163D01*
X77Y162D02*
X85Y162D01*
X5425Y162D02*
X5433Y162D01*
X77Y161D02*
X86Y161D01*
X5424Y161D02*
X5433Y161D01*
X78Y160D02*
X87Y160D01*
X5423Y160D02*
X5432Y160D01*
X79Y159D02*
X88Y159D01*
X5422Y159D02*
X5431Y159D01*
X80Y158D02*
X89Y158D01*
X5421Y158D02*
X5430Y158D01*
X80Y157D02*
X89Y157D01*
X5421Y157D02*
X5430Y157D01*
X81Y156D02*
X90Y156D01*
X5420Y156D02*
X5429Y156D01*
X82Y155D02*
X91Y155D01*
X5419Y155D02*
X5428Y155D01*
X83Y154D02*
X92Y154D01*
X5418Y154D02*
X5427Y154D01*
X83Y153D02*
X92Y153D01*
X5418Y153D02*
X5427Y153D01*
X84Y152D02*
X93Y152D01*
X5417Y152D02*
X5426Y152D01*
X85Y151D02*
X94Y151D01*
X5416Y151D02*
X5425Y151D01*
X86Y150D02*
X95Y150D01*
X5415Y150D02*
X5424Y150D01*
X86Y149D02*
X96Y149D01*
X5414Y149D02*
X5424Y149D01*
X87Y148D02*
X97Y148D01*
X5413Y148D02*
X5423Y148D01*
X88Y147D02*
X97Y147D01*
X5413Y147D02*
X5422Y147D01*
X89Y146D02*
X98Y146D01*
X5412Y146D02*
X5421Y146D01*
X90Y145D02*
X99Y145D01*
X5411Y145D02*
X5420Y145D01*
X90Y144D02*
X100Y144D01*
X5410Y144D02*
X5420Y144D01*
X91Y143D02*
X101Y143D01*
X5409Y143D02*
X5419Y143D01*
X92Y142D02*
X102Y142D01*
X5408Y142D02*
X5418Y142D01*
X93Y141D02*
X102Y141D01*
X5408Y141D02*
X5417Y141D01*
X94Y140D02*
X103Y140D01*
X5407Y140D02*
X5416Y140D01*
X95Y139D02*
X104Y139D01*
X5406Y139D02*
X5415Y139D01*
X96Y138D02*
X105Y138D01*
X5405Y138D02*
X5414Y138D01*
X96Y137D02*
X106Y137D01*
X5404Y137D02*
X5414Y137D01*
X97Y136D02*
X107Y136D01*
X5403Y136D02*
X5413Y136D01*
X98Y135D02*
X108Y135D01*
X5402Y135D02*
X5412Y135D01*
X99Y134D02*
X109Y134D01*
X5401Y134D02*
X5411Y134D01*
X100Y133D02*
X110Y133D01*
X5400Y133D02*
X5410Y133D01*
X101Y132D02*
X111Y132D01*
X5399Y132D02*
X5409Y132D01*
X102Y131D02*
X111Y131D01*
X5399Y131D02*
X5408Y131D01*
X102Y130D02*
X112Y130D01*
X5398Y130D02*
X5408Y130D01*
X103Y129D02*
X113Y129D01*
X5397Y129D02*
X5407Y129D01*
X104Y128D02*
X114Y128D01*
X5396Y128D02*
X5406Y128D01*
X105Y127D02*
X115Y127D01*
X5395Y127D02*
X5405Y127D01*
X106Y126D02*
X116Y126D01*
X5394Y126D02*
X5404Y126D01*
X107Y125D02*
X117Y125D01*
X5393Y125D02*
X5403Y125D01*
X108Y124D02*
X118Y124D01*
X5392Y124D02*
X5402Y124D01*
X109Y123D02*
X119Y123D01*
X5391Y123D02*
X5401Y123D01*
X110Y122D02*
X120Y122D01*
X5390Y122D02*
X5400Y122D01*
X111Y121D02*
X121Y121D01*
X5389Y121D02*
X5399Y121D01*
X112Y120D02*
X122Y120D01*
X5388Y120D02*
X5398Y120D01*
X113Y119D02*
X123Y119D01*
X5387Y119D02*
X5397Y119D01*
X114Y118D02*
X124Y118D01*
X5386Y118D02*
X5396Y118D01*
X115Y117D02*
X125Y117D01*
X5385Y117D02*
X5395Y117D01*
X116Y116D02*
X126Y116D01*
X5384Y116D02*
X5394Y116D01*
X117Y115D02*
X127Y115D01*
X5383Y115D02*
X5393Y115D01*
X118Y114D02*
X128Y114D01*
X5382Y114D02*
X5392Y114D01*
X119Y113D02*
X129Y113D01*
X5381Y113D02*
X5391Y113D01*
X120Y112D02*
X130Y112D01*
X5380Y112D02*
X5390Y112D01*
X121Y111D02*
X131Y111D01*
X5379Y111D02*
X5389Y111D01*
X122Y110D02*
X132Y110D01*
X5378Y110D02*
X5388Y110D01*
X123Y109D02*
X134Y109D01*
X5376Y109D02*
X5387Y109D01*
X124Y108D02*
X135Y108D01*
X5375Y108D02*
X5386Y108D01*
X125Y107D02*
X136Y107D01*
X5374Y107D02*
X5385Y107D01*
X126Y106D02*
X137Y106D01*
X5373Y106D02*
X5384Y106D01*
X127Y105D02*
X138Y105D01*
X5372Y105D02*
X5383Y105D01*
X128Y104D02*
X139Y104D01*
X5371Y104D02*
X5382Y104D01*
X129Y103D02*
X140Y103D01*
X5370Y103D02*
X5381Y103D01*
X130Y102D02*
X141Y102D01*
X5369Y102D02*
X5380Y102D01*
X132Y101D02*
X143Y101D01*
X5367Y101D02*
X5378Y101D01*
X133Y100D02*
X144Y100D01*
X5366Y100D02*
X5377Y100D01*
X134Y99D02*
X145Y99D01*
X5365Y99D02*
X5376Y99D01*
X135Y98D02*
X146Y98D01*
X5364Y98D02*
X5375Y98D01*
X136Y97D02*
X147Y97D01*
X5363Y97D02*
X5374Y97D01*
X137Y96D02*
X148Y96D01*
X5362Y96D02*
X5373Y96D01*
X138Y95D02*
X150Y95D01*
X5360Y95D02*
X5372Y95D01*
X139Y94D02*
X151Y94D01*
X5359Y94D02*
X5371Y94D01*
X141Y93D02*
X152Y93D01*
X5358Y93D02*
X5369Y93D01*
X142Y92D02*
X153Y92D01*
X5357Y92D02*
X5368Y92D01*
X143Y91D02*
X155Y91D01*
X5355Y91D02*
X5367Y91D01*
X144Y90D02*
X156Y90D01*
X5354Y90D02*
X5366Y90D01*
X146Y89D02*
X157Y89D01*
X5353Y89D02*
X5365Y89D01*
X147Y88D02*
X158Y88D01*
X5352Y88D02*
X5363Y88D01*
X148Y87D02*
X160Y87D01*
X5350Y87D02*
X5362Y87D01*
X149Y86D02*
X161Y86D01*
X5349Y86D02*
X5361Y86D01*
X151Y85D02*
X162Y85D01*
X5348Y85D02*
X5360Y85D01*
X152Y84D02*
X164Y84D01*
X5346Y84D02*
X5358Y84D01*
X153Y83D02*
X165Y83D01*
X5345Y83D02*
X5357Y83D01*
X154Y82D02*
X167Y82D01*
X5343Y82D02*
X5356Y82D01*
X156Y81D02*
X168Y81D01*
X5342Y81D02*
X5355Y81D01*
X157Y80D02*
X169Y80D01*
X5341Y80D02*
X5353Y80D01*
X158Y79D02*
X171Y79D01*
X5339Y79D02*
X5352Y79D01*
X160Y78D02*
X172Y78D01*
X5338Y78D02*
X5350Y78D01*
X161Y77D02*
X173Y77D01*
X5337Y77D02*
X5349Y77D01*
X162Y76D02*
X175Y76D01*
X5335Y76D02*
X5348Y76D01*
X164Y75D02*
X176Y75D01*
X5334Y75D02*
X5346Y75D01*
X165Y74D02*
X178Y74D01*
X5332Y74D02*
X5345Y74D01*
X166Y73D02*
X179Y73D01*
X5331Y73D02*
X5344Y73D01*
X168Y72D02*
X181Y72D01*
X5329Y72D02*
X5342Y72D01*
X169Y71D02*
X182Y71D01*
X5328Y71D02*
X5341Y71D01*
X171Y70D02*
X184Y70D01*
X5326Y70D02*
X5339Y70D01*
X172Y69D02*
X186Y69D01*
X5325Y69D02*
X5338Y69D01*
X174Y68D02*
X187Y68D01*
X5323Y68D02*
X5336Y68D01*
X175Y67D02*
X189Y67D01*
X5321Y67D02*
X5335Y67D01*
X177Y66D02*
X190Y66D01*
X5320Y66D02*
X5333Y66D01*
X178Y65D02*
X192Y65D01*
X5318Y65D02*
X5332Y65D01*
X180Y64D02*
X193Y64D01*
X5317Y64D02*
X5330Y64D01*
X181Y63D02*
X195Y63D01*
X5315Y63D02*
X5329Y63D01*
X183Y62D02*
X197Y62D01*
X5313Y62D02*
X5327Y62D01*
X184Y61D02*
X199Y61D01*
X5311Y61D02*
X5326Y61D01*
X186Y60D02*
X200Y60D01*
X5310Y60D02*
X5324Y60D01*
X187Y59D02*
X202Y59D01*
X5308Y59D02*
X5323Y59D01*
X189Y58D02*
X204Y58D01*
X5306Y58D02*
X5321Y58D01*
X191Y57D02*
X205Y57D01*
X5305Y57D02*
X5319Y57D01*
X192Y56D02*
X207Y56D01*
X5303Y56D02*
X5318Y56D01*
X194Y55D02*
X209Y55D01*
X5301Y55D02*
X5316Y55D01*
X196Y54D02*
X211Y54D01*
X5299Y54D02*
X5314Y54D01*
X198Y53D02*
X213Y53D01*
X5297Y53D02*
X5312Y53D01*
X199Y52D02*
X215Y52D01*
X5295Y52D02*
X5311Y52D01*
X201Y51D02*
X217Y51D01*
X5293Y51D02*
X5309Y51D01*
X203Y50D02*
X219Y50D01*
X5291Y50D02*
X5307Y50D01*
X205Y49D02*
X221Y49D01*
X5289Y49D02*
X5305Y49D01*
X206Y48D02*
X222Y48D01*
X5288Y48D02*
X5304Y48D01*
X208Y47D02*
X225Y47D01*
X5285Y47D02*
X5302Y47D01*
X210Y46D02*
X227Y46D01*
X5283Y46D02*
X5300Y46D01*
X212Y45D02*
X229Y45D01*
X5281Y45D02*
X5298Y45D01*
X214Y44D02*
X231Y44D01*
X5279Y44D02*
X5296Y44D01*
X216Y43D02*
X233Y43D01*
X5277Y43D02*
X5294Y43D01*
X218Y42D02*
X235Y42D01*
X5275Y42D02*
X5292Y42D01*
X220Y41D02*
X238Y41D01*
X5272Y41D02*
X5290Y41D01*
X222Y40D02*
X240Y40D01*
X5270Y40D02*
X5288Y40D01*
X224Y39D02*
X242Y39D01*
X5268Y39D02*
X5286Y39D01*
X226Y38D02*
X245Y38D01*
X5265Y38D02*
X5284Y38D01*
X228Y37D02*
X247Y37D01*
X5263Y37D02*
X5282Y37D01*
X231Y36D02*
X250Y36D01*
X5260Y36D02*
X5279Y36D01*
X233Y35D02*
X252Y35D01*
X5258Y35D02*
X5277Y35D01*
X235Y34D02*
X255Y34D01*
X5255Y34D02*
X5275Y34D01*
X237Y33D02*
X257Y33D01*
X5253Y33D02*
X5273Y33D01*
X240Y32D02*
X260Y32D01*
X5250Y32D02*
X5270Y32D01*
X242Y31D02*
X263Y31D01*
X5247Y31D02*
X5268Y31D01*
X245Y30D02*
X266Y30D01*
X5244Y30D02*
X5265Y30D01*
X247Y29D02*
X269Y29D01*
X5241Y29D02*
X5263Y29D01*
X250Y28D02*
X272Y28D01*
X5238Y28D02*
X5260Y28D01*
X252Y27D02*
X275Y27D01*
X5235Y27D02*
X5258Y27D01*
X255Y26D02*
X278Y26D01*
X5232Y26D02*
X5256Y26D01*
X257Y25D02*
X281Y25D01*
X5229Y25D02*
X5253Y25D01*
X260Y24D02*
X284Y24D01*
X5226Y24D02*
X5250Y24D01*
X263Y23D02*
X288Y23D01*
X5222Y23D02*
X5247Y23D01*
X266Y22D02*
X292Y22D01*
X5218Y22D02*
X5244Y22D01*
X269Y21D02*
X296Y21D01*
X5214Y21D02*
X5241Y21D01*
X272Y20D02*
X300Y20D01*
X5210Y20D02*
X5238Y20D01*
X275Y19D02*
X304Y19D01*
X5206Y19D02*
X5235Y19D01*
X278Y18D02*
X308Y18D01*
X5202Y18D02*
X5232Y18D01*
X281Y17D02*
X313Y17D01*
X5197Y17D02*
X5229Y17D01*
X285Y16D02*
X318Y16D01*
X5192Y16D02*
X5225Y16D01*
X288Y15D02*
X324Y15D01*
X5186Y15D02*
X5222Y15D01*
X292Y14D02*
X330Y14D01*
X5180Y14D02*
X5218Y14D01*
X296Y13D02*
X337Y13D01*
X5173Y13D02*
X5214Y13D01*
X300Y12D02*
X345Y12D01*
X5165Y12D02*
X5210Y12D01*
X304Y11D02*
X355Y11D01*
X5155Y11D02*
X5206Y11D01*
X309Y10D02*
X369Y10D01*
X5141Y10D02*
X5201Y10D01*
X314Y9D02*
X5196Y9D01*
X319Y8D02*
X5191Y8D01*
X325Y7D02*
X5185Y7D01*
X331Y6D02*
X5179Y6D01*
X338Y5D02*
X5172Y5D01*
X346Y4D02*
X5164Y4D01*
X356Y3D02*
X5154Y3D01*
X370Y2D02*
X5140Y2D01*
D02*
G04 End of Silk0*
M02*