G04 MADE WITH FRITZING*
G04 WWW.FRITZING.ORG*
G04 DOUBLE SIDED*
G04 HOLES PLATED*
G04 CONTOUR ON CENTER OF CONTOUR VECTOR*
%ASAXBY*%
%FSLAX23Y23*%
%MOIN*%
%OFA0B0*%
%SFA1.0B1.0*%
%ADD10C,0.047859*%
%ADD11C,0.039370*%
%ADD12C,0.082000*%
%ADD13C,0.075000*%
%ADD14C,0.244000*%
%ADD15R,0.082000X0.082000*%
%ADD16C,0.048000*%
%ADD17C,0.020000*%
%LNCOPPER1*%
G90*
G70*
G54D10*
X3690Y1171D03*
X3491Y274D03*
X3591Y274D03*
X3690Y274D03*
X3790Y274D03*
X3890Y274D03*
X3591Y1171D03*
X3491Y1171D03*
X3790Y1171D03*
X3990Y274D03*
X4090Y274D03*
X4190Y274D03*
X4289Y274D03*
X4389Y274D03*
X4489Y274D03*
X4589Y274D03*
X4689Y274D03*
X4789Y274D03*
X4889Y274D03*
X4190Y1171D03*
X4289Y1171D03*
X4389Y1171D03*
X4489Y1171D03*
X4589Y1171D03*
X4689Y1171D03*
X4789Y1171D03*
X4889Y1171D03*
X3890Y1171D03*
X3990Y1171D03*
X4090Y1171D03*
G54D11*
X3989Y668D03*
G54D12*
X2545Y1078D03*
X2333Y865D03*
G54D13*
X4289Y1471D03*
X3889Y1471D03*
G54D14*
X2989Y371D03*
X2989Y371D03*
X2189Y371D03*
X2189Y371D03*
X5089Y1471D03*
X5089Y1471D03*
X489Y2471D03*
X489Y2471D03*
X789Y2771D03*
X789Y2771D03*
X489Y1371D03*
X489Y1371D03*
X1989Y2771D03*
X1989Y2771D03*
X2689Y2771D03*
X2689Y2771D03*
X4289Y2771D03*
X4289Y2771D03*
X5089Y2071D03*
X5089Y2071D03*
X489Y1871D03*
X489Y1871D03*
X1389Y2771D03*
X1389Y2771D03*
X3489Y2771D03*
X3489Y2771D03*
X4989Y2771D03*
X4989Y2771D03*
X1389Y371D03*
X1389Y371D03*
X489Y771D03*
X489Y771D03*
X689Y371D03*
X689Y371D03*
G54D12*
X3189Y1771D03*
X3401Y1984D03*
X1589Y1571D03*
X1289Y1571D03*
X2183Y2128D03*
X2183Y2428D03*
G54D15*
X2183Y2128D03*
G54D16*
X3890Y1205D02*
X3889Y1432D01*
D02*
X2789Y771D02*
X2572Y1044D01*
D02*
X2946Y458D02*
X2789Y771D01*
D02*
X4992Y1471D02*
X4329Y1471D01*
D02*
X1589Y1971D02*
X1589Y1615D01*
D02*
X578Y2431D02*
X1589Y1971D01*
D02*
X1489Y1271D02*
X576Y815D01*
D02*
X1576Y1530D02*
X1489Y1271D01*
D02*
X3189Y2571D02*
X3189Y1815D01*
D02*
X3408Y2718D02*
X3189Y2571D01*
D02*
X1689Y1171D02*
X765Y432D01*
D02*
X2289Y1271D02*
X1689Y1171D01*
D02*
X2511Y1104D02*
X2289Y1271D01*
D02*
X4089Y1871D02*
X4994Y2052D01*
D02*
X3389Y1871D02*
X4089Y1871D01*
D02*
X3228Y1791D02*
X3389Y1871D01*
D02*
X2489Y2371D02*
X2217Y2154D01*
D02*
X2646Y2684D02*
X2489Y2371D01*
D02*
X1589Y2371D02*
X876Y2728D01*
D02*
X2143Y2144D02*
X1589Y2371D01*
G54D17*
X2545Y1034D02*
X2502Y1078D01*
X2545Y1121D01*
X2589Y1078D01*
X2545Y1034D01*
D02*
X3189Y1815D02*
X3233Y1771D01*
X3189Y1728D01*
X3145Y1771D01*
X3189Y1815D01*
D02*
X1558Y1540D02*
X1558Y1602D01*
X1620Y1602D01*
X1620Y1540D01*
X1558Y1540D01*
D02*
G04 End of Copper1*
M02*