G04 MADE WITH FRITZING*
G04 WWW.FRITZING.ORG*
G04 DOUBLE SIDED*
G04 HOLES PLATED*
G04 CONTOUR ON CENTER OF CONTOUR VECTOR*
%ASAXBY*%
%FSLAX23Y23*%
%MOIN*%
%OFA0B0*%
%SFA1.0B1.0*%
%ADD10C,0.045433*%
%ADD11C,0.057829*%
%ADD12C,0.049370*%
%ADD13C,0.092000*%
%ADD14C,0.085000*%
%ADD15C,0.254000*%
%ADD16R,0.041496X0.049370*%
%ADD17R,0.069055X0.037559*%
%ADD18R,0.092000X0.092000*%
%ADD19C,0.030000*%
%LNMASK0*%
G90*
G70*
G54D10*
X5378Y1142D03*
X5378Y1024D03*
X5378Y1142D03*
X5378Y1024D03*
X5378Y1142D03*
X5378Y1024D03*
G54D11*
X3690Y1171D03*
X3491Y274D03*
X3591Y274D03*
X3690Y274D03*
X3790Y274D03*
X3890Y274D03*
X3591Y1171D03*
X3491Y1171D03*
X3790Y1171D03*
X3990Y274D03*
X4090Y274D03*
X4190Y274D03*
X4289Y274D03*
X4389Y274D03*
X4489Y274D03*
X4589Y274D03*
X4689Y274D03*
X4789Y274D03*
X4889Y274D03*
X4190Y1171D03*
X4289Y1171D03*
X4389Y1171D03*
X4489Y1171D03*
X4589Y1171D03*
X4689Y1171D03*
X4789Y1171D03*
X4889Y1171D03*
X3890Y1171D03*
X3990Y1171D03*
X4090Y1171D03*
G54D12*
X3989Y668D03*
G54D13*
X2545Y1078D03*
X2333Y865D03*
G54D14*
X4289Y1471D03*
X3889Y1471D03*
G54D15*
X2989Y371D03*
X2189Y371D03*
X5089Y1471D03*
X489Y2471D03*
X789Y2771D03*
X489Y1371D03*
X1989Y2771D03*
X2689Y2771D03*
X4289Y2771D03*
X5089Y2071D03*
X489Y1871D03*
X1389Y2771D03*
X3489Y2771D03*
X4989Y2771D03*
X1389Y371D03*
X489Y771D03*
X689Y371D03*
G54D13*
X3189Y1771D03*
X3401Y1984D03*
X1589Y1571D03*
X1289Y1571D03*
X2183Y2128D03*
X2183Y2428D03*
G54D16*
X5335Y1246D03*
X5421Y1246D03*
X5421Y919D03*
X5335Y919D03*
G54D17*
X5289Y1171D03*
X5289Y1053D03*
X5289Y994D03*
G54D18*
X2183Y2128D03*
G54D19*
G36*
X2545Y1034D02*
X2502Y1078D01*
X2545Y1121D01*
X2589Y1078D01*
X2545Y1034D01*
G37*
D02*
G36*
X3189Y1815D02*
X3233Y1771D01*
X3189Y1728D01*
X3145Y1771D01*
X3189Y1815D01*
G37*
D02*
G36*
X1558Y1540D02*
X1558Y1602D01*
X1620Y1602D01*
X1620Y1540D01*
X1558Y1540D01*
G37*
D02*
G04 End of Mask0*
M02*