G04 MADE WITH FRITZING*
G04 WWW.FRITZING.ORG*
G04 DOUBLE SIDED*
G04 HOLES PLATED*
G04 CONTOUR ON CENTER OF CONTOUR VECTOR*
%ASAXBY*%
%FSLAX23Y23*%
%MOIN*%
%OFA0B0*%
%SFA1.0B1.0*%
%ADD10C,0.047859*%
%ADD11C,0.039370*%
%ADD12C,0.082000*%
%ADD13C,0.075000*%
%ADD14C,0.244000*%
%ADD15R,0.031496X0.039370*%
%ADD16R,0.059055X0.027559*%
%ADD17R,0.082000X0.082000*%
%ADD18C,0.032000*%
%ADD19C,0.048000*%
%ADD20C,0.020000*%
%LNCOPPER0*%
G90*
G70*
G54D10*
X3690Y1171D03*
X3491Y274D03*
X3591Y274D03*
X3690Y274D03*
X3790Y274D03*
X3890Y274D03*
X3591Y1171D03*
X3491Y1171D03*
X3790Y1171D03*
X3990Y274D03*
X4090Y274D03*
X4190Y274D03*
X4289Y274D03*
X4389Y274D03*
X4489Y274D03*
X4589Y274D03*
X4689Y274D03*
X4789Y274D03*
X4889Y274D03*
X4190Y1171D03*
X4289Y1171D03*
X4389Y1171D03*
X4489Y1171D03*
X4589Y1171D03*
X4689Y1171D03*
X4789Y1171D03*
X4889Y1171D03*
X3890Y1171D03*
X3990Y1171D03*
X4090Y1171D03*
G54D11*
X3989Y668D03*
G54D12*
X2545Y1078D03*
X2333Y865D03*
G54D13*
X4289Y1471D03*
X3889Y1471D03*
G54D14*
X2989Y371D03*
X2189Y371D03*
X5089Y1471D03*
X489Y2471D03*
X789Y2771D03*
X489Y1371D03*
X1989Y2771D03*
X2689Y2771D03*
X4289Y2771D03*
X5089Y2071D03*
X489Y1871D03*
X1389Y2771D03*
X3489Y2771D03*
X4989Y2771D03*
X1389Y371D03*
X489Y771D03*
X689Y371D03*
G54D12*
X3189Y1771D03*
X3401Y1984D03*
X1589Y1571D03*
X1289Y1571D03*
X2183Y2128D03*
X2183Y2428D03*
G54D15*
X5335Y1246D03*
X5421Y1246D03*
X5421Y919D03*
X5335Y919D03*
G54D16*
X5289Y1171D03*
X5289Y1053D03*
X5289Y994D03*
G54D17*
X2183Y2128D03*
G54D18*
X4791Y872D02*
X4389Y872D01*
D02*
X4989Y1071D02*
X4791Y872D01*
D02*
X5188Y1172D02*
X4989Y1071D01*
D02*
X2589Y669D02*
X2363Y842D01*
D02*
X3189Y669D02*
X2589Y669D01*
D02*
X3189Y572D02*
X3189Y669D01*
D02*
X4389Y572D02*
X3189Y572D01*
D02*
X4389Y872D02*
X4389Y572D01*
D02*
X5265Y1172D02*
X5188Y1172D01*
D02*
X4989Y872D02*
X5276Y1045D01*
D02*
X4989Y374D02*
X4989Y872D01*
D02*
X3489Y374D02*
X4989Y374D01*
D02*
X3490Y302D02*
X3489Y374D01*
G54D19*
D02*
X4589Y2371D02*
X4921Y2703D01*
D02*
X3443Y1997D02*
X4589Y2371D01*
D02*
X989Y1471D02*
X585Y1391D01*
D02*
X1089Y1871D02*
X587Y1871D01*
D02*
X1248Y1558D02*
X989Y1471D01*
D02*
X1265Y1607D02*
X1089Y1871D01*
D02*
X2889Y1071D02*
X2589Y1077D01*
D02*
X2962Y1305D02*
X1632Y1563D01*
D02*
X3089Y1271D02*
X2962Y1305D01*
D02*
X3089Y1271D02*
X2889Y1071D01*
D02*
X3087Y872D02*
X3089Y1271D01*
D02*
X4089Y872D02*
X3087Y872D01*
D02*
X3089Y1271D02*
X2215Y2098D01*
D02*
X3089Y1571D02*
X3170Y1733D01*
D02*
X3089Y1271D02*
X3089Y1571D01*
D02*
X4090Y1138D02*
X4089Y872D01*
D02*
X2289Y2671D02*
X2082Y2741D01*
D02*
X2200Y2467D02*
X2289Y2671D01*
D02*
X2144Y2445D02*
X1479Y2733D01*
D02*
X3889Y2571D02*
X3429Y2017D01*
D02*
X4202Y2728D02*
X3889Y2571D01*
D02*
X1789Y771D02*
X2291Y858D01*
D02*
X1458Y440D02*
X1789Y771D01*
D02*
X2217Y465D02*
X2321Y824D01*
G54D20*
X2545Y1034D02*
X2502Y1078D01*
X2545Y1121D01*
X2589Y1078D01*
X2545Y1034D01*
D02*
X3189Y1815D02*
X3233Y1771D01*
X3189Y1728D01*
X3145Y1771D01*
X3189Y1815D01*
D02*
X1558Y1540D02*
X1558Y1602D01*
X1620Y1602D01*
X1620Y1540D01*
X1558Y1540D01*
D02*
G04 End of Copper0*
M02*