G04 MADE WITH FRITZING*
G04 WWW.FRITZING.ORG*
G04 DOUBLE SIDED*
G04 HOLES PLATED*
G04 CONTOUR ON CENTER OF CONTOUR VECTOR*
%ASAXBY*%
%FSLAX23Y23*%
%MOIN*%
%OFA0B0*%
%SFA1.0B1.0*%
%ADD10C,0.070000*%
%ADD11C,0.082000*%
%ADD12C,0.075000*%
%ADD13C,0.244000*%
%ADD14R,0.069972X0.070000*%
%ADD15R,0.082000X0.082000*%
%ADD16C,0.048000*%
%ADD17C,0.032000*%
%ADD18C,0.020000*%
%LNCOPPER1*%
G90*
G70*
G54D10*
X1689Y1984D03*
X1689Y1884D03*
X1689Y1784D03*
X1689Y1684D03*
X1689Y1584D03*
X1689Y1484D03*
X1689Y1384D03*
X1689Y1284D03*
X1689Y1184D03*
X1689Y1084D03*
X1689Y984D03*
X1689Y884D03*
X1689Y784D03*
X1689Y684D03*
X1689Y584D03*
X2289Y1984D03*
X2289Y1884D03*
X2289Y1784D03*
X2289Y1684D03*
X2289Y1584D03*
X2289Y1484D03*
X2289Y1384D03*
X2289Y1284D03*
X2289Y1184D03*
X2289Y1084D03*
X2289Y984D03*
X2289Y884D03*
X2289Y784D03*
X2289Y684D03*
X2289Y584D03*
G54D11*
X1089Y884D03*
X877Y672D03*
G54D12*
X1489Y484D03*
X1489Y884D03*
G54D13*
X289Y684D03*
X289Y684D03*
X389Y284D03*
X389Y284D03*
X1589Y284D03*
X1589Y284D03*
X289Y984D03*
X289Y984D03*
X289Y1684D03*
X289Y1684D03*
X289Y2084D03*
X289Y2084D03*
X1689Y2384D03*
X1689Y2384D03*
X889Y2384D03*
X889Y2384D03*
X289Y1384D03*
X289Y1384D03*
X489Y2384D03*
X489Y2384D03*
X2089Y2384D03*
X2089Y2384D03*
X789Y284D03*
X789Y284D03*
X1189Y284D03*
X1189Y284D03*
G54D11*
X1089Y1984D03*
X1389Y1984D03*
X989Y1484D03*
X689Y1484D03*
G54D14*
X1689Y1984D03*
G54D15*
X1089Y1984D03*
G54D16*
X1546Y371D02*
X1507Y448D01*
D02*
X789Y884D02*
X1046Y884D01*
D02*
X380Y720D02*
X789Y884D01*
D02*
X1082Y926D02*
X996Y1441D01*
D02*
X1088Y1686D02*
X1008Y1523D01*
D02*
X1089Y1941D02*
X1088Y1686D01*
D02*
X587Y2384D02*
X790Y2086D01*
D02*
X790Y2086D02*
X1048Y1998D01*
D02*
X587Y2384D02*
X587Y2384D01*
D02*
X1189Y685D02*
X1189Y381D01*
D02*
X1109Y845D02*
X1189Y685D01*
D02*
X1088Y2181D02*
X957Y2314D01*
D02*
X1089Y2027D02*
X1088Y2181D01*
D02*
X891Y1782D02*
X976Y1525D01*
D02*
X688Y1984D02*
X891Y1782D01*
D02*
X384Y2060D02*
X688Y1984D01*
D02*
X689Y1084D02*
X384Y1007D01*
D02*
X963Y1449D02*
X689Y1084D01*
G54D17*
D02*
X1026Y1494D02*
X1656Y1674D01*
G54D18*
X1089Y840D02*
X1045Y884D01*
X1089Y928D01*
X1133Y884D01*
X1089Y840D01*
D02*
X958Y1453D02*
X958Y1515D01*
X1020Y1515D01*
X1020Y1453D01*
X958Y1453D01*
D02*
G04 End of Copper1*
M02*