; NON-PLATED HOLES START AT T1
; THROUGH (PLATED) HOLES START AT T100
M48
INCH
T100C0.036000
T101C0.042000
T102C0.150000
T103C0.035000
%
T100
X022893Y008837
X022893Y012837
X016893Y015837
X022893Y005837
X016893Y008837
X016893Y012837
X016893Y005837
X022893Y017837
X022893Y014837
X016893Y017837
X022893Y007837
X022893Y011837
X016893Y014837
X016893Y007837
X016893Y011837
X022893Y019837
X022893Y016837
X016893Y019837
X022893Y009837
X022893Y013837
X016893Y016837
X022893Y006837
X016893Y009837
X022893Y010837
X016893Y013837
X016893Y006837
X016893Y010837
X022893Y018837
X022893Y015837
X016893Y018837
T101
X013893Y019837
X010893Y008837
X009893Y014837
X010893Y019837
X006893Y014837
X008771Y006716
T102
X008893Y023837
X007893Y002837
X004893Y023837
X002893Y016837
X003893Y002837
X002893Y009837
X020893Y023837
X002893Y020837
X016893Y023837
X002893Y013837
X002893Y006837
X015893Y002837
X011893Y002837
T103
X014893Y004837
X014893Y008837
T00
M30
