G04 MADE WITH FRITZING*
G04 WWW.FRITZING.ORG*
G04 DOUBLE SIDED*
G04 HOLES PLATED*
G04 CONTOUR ON CENTER OF CONTOUR VECTOR*
%ASAXBY*%
%FSLAX23Y23*%
%MOIN*%
%OFA0B0*%
%SFA1.0B1.0*%
%ADD10R,0.001000X0.001000*%
%LNSILK0*%
G90*
G70*
G54D10*
X371Y2643D02*
X2055Y2643D01*
X357Y2642D02*
X2069Y2642D01*
X347Y2641D02*
X2079Y2641D01*
X338Y2640D02*
X2088Y2640D01*
X331Y2639D02*
X2095Y2639D01*
X325Y2638D02*
X2101Y2638D01*
X319Y2637D02*
X2106Y2637D01*
X314Y2636D02*
X2112Y2636D01*
X309Y2635D02*
X370Y2635D01*
X2056Y2635D02*
X2117Y2635D01*
X305Y2634D02*
X356Y2634D01*
X2070Y2634D02*
X2121Y2634D01*
X300Y2633D02*
X346Y2633D01*
X2080Y2633D02*
X2126Y2633D01*
X296Y2632D02*
X338Y2632D01*
X2088Y2632D02*
X2130Y2632D01*
X292Y2631D02*
X331Y2631D01*
X2095Y2631D02*
X2134Y2631D01*
X288Y2630D02*
X324Y2630D01*
X2102Y2630D02*
X2138Y2630D01*
X285Y2629D02*
X319Y2629D01*
X2107Y2629D02*
X2141Y2629D01*
X281Y2628D02*
X314Y2628D01*
X2112Y2628D02*
X2145Y2628D01*
X278Y2627D02*
X309Y2627D01*
X2117Y2627D02*
X2148Y2627D01*
X275Y2626D02*
X304Y2626D01*
X2122Y2626D02*
X2151Y2626D01*
X272Y2625D02*
X300Y2625D01*
X2126Y2625D02*
X2154Y2625D01*
X269Y2624D02*
X296Y2624D01*
X2130Y2624D02*
X2157Y2624D01*
X266Y2623D02*
X292Y2623D01*
X2134Y2623D02*
X2160Y2623D01*
X263Y2622D02*
X288Y2622D01*
X2138Y2622D02*
X2163Y2622D01*
X260Y2621D02*
X284Y2621D01*
X2142Y2621D02*
X2166Y2621D01*
X257Y2620D02*
X281Y2620D01*
X2145Y2620D02*
X2169Y2620D01*
X254Y2619D02*
X278Y2619D01*
X2148Y2619D02*
X2172Y2619D01*
X251Y2618D02*
X274Y2618D01*
X2152Y2618D02*
X2175Y2618D01*
X249Y2617D02*
X271Y2617D01*
X2155Y2617D02*
X2177Y2617D01*
X246Y2616D02*
X268Y2616D01*
X2158Y2616D02*
X2180Y2616D01*
X244Y2615D02*
X265Y2615D01*
X2161Y2615D02*
X2182Y2615D01*
X241Y2614D02*
X262Y2614D01*
X2164Y2614D02*
X2185Y2614D01*
X239Y2613D02*
X259Y2613D01*
X2167Y2613D02*
X2187Y2613D01*
X236Y2612D02*
X257Y2612D01*
X2169Y2612D02*
X2190Y2612D01*
X234Y2611D02*
X254Y2611D01*
X2172Y2611D02*
X2192Y2611D01*
X232Y2610D02*
X252Y2610D01*
X2174Y2610D02*
X2194Y2610D01*
X230Y2609D02*
X249Y2609D01*
X2177Y2609D02*
X2196Y2609D01*
X227Y2608D02*
X246Y2608D01*
X2180Y2608D02*
X2199Y2608D01*
X225Y2607D02*
X244Y2607D01*
X2182Y2607D02*
X2201Y2607D01*
X223Y2606D02*
X241Y2606D01*
X2185Y2606D02*
X2203Y2606D01*
X221Y2605D02*
X239Y2605D01*
X2187Y2605D02*
X2205Y2605D01*
X219Y2604D02*
X237Y2604D01*
X2189Y2604D02*
X2207Y2604D01*
X217Y2603D02*
X235Y2603D01*
X2191Y2603D02*
X2209Y2603D01*
X215Y2602D02*
X232Y2602D01*
X2194Y2602D02*
X2211Y2602D01*
X213Y2601D02*
X230Y2601D01*
X2196Y2601D02*
X2213Y2601D01*
X211Y2600D02*
X228Y2600D01*
X2198Y2600D02*
X2215Y2600D01*
X209Y2599D02*
X226Y2599D01*
X2200Y2599D02*
X2217Y2599D01*
X207Y2598D02*
X223Y2598D01*
X2203Y2598D02*
X2219Y2598D01*
X205Y2597D02*
X221Y2597D01*
X2205Y2597D02*
X2221Y2597D01*
X203Y2596D02*
X219Y2596D01*
X2207Y2596D02*
X2223Y2596D01*
X201Y2595D02*
X217Y2595D01*
X2209Y2595D02*
X2225Y2595D01*
X200Y2594D02*
X215Y2594D01*
X2211Y2594D02*
X2226Y2594D01*
X198Y2593D02*
X213Y2593D01*
X2213Y2593D02*
X2228Y2593D01*
X196Y2592D02*
X212Y2592D01*
X2214Y2592D02*
X2230Y2592D01*
X194Y2591D02*
X210Y2591D01*
X2216Y2591D02*
X2232Y2591D01*
X193Y2590D02*
X208Y2590D01*
X2218Y2590D02*
X2233Y2590D01*
X191Y2589D02*
X206Y2589D01*
X2220Y2589D02*
X2235Y2589D01*
X189Y2588D02*
X204Y2588D01*
X2222Y2588D02*
X2237Y2588D01*
X187Y2587D02*
X202Y2587D01*
X2224Y2587D02*
X2239Y2587D01*
X186Y2586D02*
X201Y2586D01*
X2225Y2586D02*
X2240Y2586D01*
X184Y2585D02*
X199Y2585D01*
X2227Y2585D02*
X2242Y2585D01*
X183Y2584D02*
X197Y2584D01*
X2229Y2584D02*
X2243Y2584D01*
X181Y2583D02*
X195Y2583D01*
X2231Y2583D02*
X2245Y2583D01*
X180Y2582D02*
X193Y2582D01*
X2233Y2582D02*
X2246Y2582D01*
X178Y2581D02*
X192Y2581D01*
X2234Y2581D02*
X2248Y2581D01*
X176Y2580D02*
X190Y2580D01*
X2236Y2580D02*
X2250Y2580D01*
X175Y2579D02*
X189Y2579D01*
X2237Y2579D02*
X2251Y2579D01*
X173Y2578D02*
X187Y2578D01*
X2239Y2578D02*
X2253Y2578D01*
X172Y2577D02*
X185Y2577D01*
X2241Y2577D02*
X2254Y2577D01*
X170Y2576D02*
X184Y2576D01*
X2242Y2576D02*
X2256Y2576D01*
X169Y2575D02*
X182Y2575D01*
X2244Y2575D02*
X2257Y2575D01*
X167Y2574D02*
X181Y2574D01*
X2245Y2574D02*
X2259Y2574D01*
X166Y2573D02*
X179Y2573D01*
X2247Y2573D02*
X2260Y2573D01*
X165Y2572D02*
X177Y2572D01*
X2249Y2572D02*
X2261Y2572D01*
X163Y2571D02*
X176Y2571D01*
X2250Y2571D02*
X2263Y2571D01*
X162Y2570D02*
X174Y2570D01*
X2252Y2570D02*
X2264Y2570D01*
X160Y2569D02*
X173Y2569D01*
X2253Y2569D02*
X2266Y2569D01*
X159Y2568D02*
X172Y2568D01*
X2254Y2568D02*
X2267Y2568D01*
X157Y2567D02*
X170Y2567D01*
X2256Y2567D02*
X2269Y2567D01*
X156Y2566D02*
X169Y2566D01*
X2257Y2566D02*
X2270Y2566D01*
X155Y2565D02*
X167Y2565D01*
X2259Y2565D02*
X2271Y2565D01*
X153Y2564D02*
X166Y2564D01*
X2260Y2564D02*
X2273Y2564D01*
X152Y2563D02*
X165Y2563D01*
X2261Y2563D02*
X2274Y2563D01*
X151Y2562D02*
X163Y2562D01*
X2263Y2562D02*
X2275Y2562D01*
X150Y2561D02*
X162Y2561D01*
X2264Y2561D02*
X2276Y2561D01*
X148Y2560D02*
X160Y2560D01*
X2266Y2560D02*
X2278Y2560D01*
X147Y2559D02*
X159Y2559D01*
X2267Y2559D02*
X2279Y2559D01*
X146Y2558D02*
X158Y2558D01*
X2268Y2558D02*
X2280Y2558D01*
X144Y2557D02*
X156Y2557D01*
X2270Y2557D02*
X2282Y2557D01*
X143Y2556D02*
X155Y2556D01*
X2271Y2556D02*
X2283Y2556D01*
X142Y2555D02*
X154Y2555D01*
X2272Y2555D02*
X2284Y2555D01*
X141Y2554D02*
X153Y2554D01*
X2273Y2554D02*
X2285Y2554D01*
X140Y2553D02*
X151Y2553D01*
X2275Y2553D02*
X2286Y2553D01*
X138Y2552D02*
X150Y2552D01*
X2276Y2552D02*
X2288Y2552D01*
X137Y2551D02*
X149Y2551D01*
X2277Y2551D02*
X2289Y2551D01*
X136Y2550D02*
X147Y2550D01*
X2279Y2550D02*
X2290Y2550D01*
X135Y2549D02*
X146Y2549D01*
X2280Y2549D02*
X2291Y2549D01*
X134Y2548D02*
X145Y2548D01*
X2281Y2548D02*
X2292Y2548D01*
X133Y2547D02*
X144Y2547D01*
X2282Y2547D02*
X2293Y2547D01*
X131Y2546D02*
X143Y2546D01*
X2283Y2546D02*
X2295Y2546D01*
X130Y2545D02*
X142Y2545D01*
X2284Y2545D02*
X2296Y2545D01*
X129Y2544D02*
X140Y2544D01*
X2286Y2544D02*
X2297Y2544D01*
X128Y2543D02*
X139Y2543D01*
X2287Y2543D02*
X2298Y2543D01*
X127Y2542D02*
X138Y2542D01*
X2288Y2542D02*
X2299Y2542D01*
X126Y2541D02*
X137Y2541D01*
X2289Y2541D02*
X2300Y2541D01*
X125Y2540D02*
X136Y2540D01*
X2290Y2540D02*
X2301Y2540D01*
X124Y2539D02*
X134Y2539D01*
X2292Y2539D02*
X2302Y2539D01*
X123Y2538D02*
X133Y2538D01*
X2293Y2538D02*
X2303Y2538D01*
X122Y2537D02*
X132Y2537D01*
X2294Y2537D02*
X2304Y2537D01*
X120Y2536D02*
X131Y2536D01*
X2295Y2536D02*
X2306Y2536D01*
X119Y2535D02*
X130Y2535D01*
X2296Y2535D02*
X2307Y2535D01*
X118Y2534D02*
X129Y2534D01*
X2297Y2534D02*
X2308Y2534D01*
X117Y2533D02*
X128Y2533D01*
X2298Y2533D02*
X2309Y2533D01*
X116Y2532D02*
X127Y2532D01*
X2299Y2532D02*
X2310Y2532D01*
X115Y2531D02*
X126Y2531D01*
X2300Y2531D02*
X2311Y2531D01*
X114Y2530D02*
X125Y2530D01*
X2301Y2530D02*
X2312Y2530D01*
X113Y2529D02*
X124Y2529D01*
X2302Y2529D02*
X2313Y2529D01*
X112Y2528D02*
X123Y2528D01*
X2303Y2528D02*
X2314Y2528D01*
X111Y2527D02*
X122Y2527D01*
X2304Y2527D02*
X2315Y2527D01*
X110Y2526D02*
X120Y2526D01*
X2305Y2526D02*
X2316Y2526D01*
X109Y2525D02*
X119Y2525D01*
X2307Y2525D02*
X2317Y2525D01*
X108Y2524D02*
X118Y2524D01*
X2308Y2524D02*
X2318Y2524D01*
X107Y2523D02*
X117Y2523D01*
X2309Y2523D02*
X2319Y2523D01*
X106Y2522D02*
X117Y2522D01*
X2309Y2522D02*
X2320Y2522D01*
X105Y2521D02*
X116Y2521D01*
X2310Y2521D02*
X2321Y2521D01*
X104Y2520D02*
X115Y2520D01*
X2311Y2520D02*
X2322Y2520D01*
X104Y2519D02*
X114Y2519D01*
X2312Y2519D02*
X2322Y2519D01*
X103Y2518D02*
X113Y2518D01*
X2313Y2518D02*
X2323Y2518D01*
X102Y2517D02*
X112Y2517D01*
X2314Y2517D02*
X2324Y2517D01*
X101Y2516D02*
X111Y2516D01*
X2315Y2516D02*
X2325Y2516D01*
X100Y2515D02*
X110Y2515D01*
X2316Y2515D02*
X2326Y2515D01*
X99Y2514D02*
X109Y2514D01*
X2317Y2514D02*
X2327Y2514D01*
X98Y2513D02*
X108Y2513D01*
X2318Y2513D02*
X2328Y2513D01*
X97Y2512D02*
X107Y2512D01*
X2319Y2512D02*
X2329Y2512D01*
X96Y2511D02*
X106Y2511D01*
X2320Y2511D02*
X2330Y2511D01*
X95Y2510D02*
X105Y2510D01*
X2321Y2510D02*
X2331Y2510D01*
X95Y2509D02*
X104Y2509D01*
X2322Y2509D02*
X2331Y2509D01*
X94Y2508D02*
X103Y2508D01*
X2323Y2508D02*
X2332Y2508D01*
X93Y2507D02*
X102Y2507D01*
X2324Y2507D02*
X2333Y2507D01*
X92Y2506D02*
X102Y2506D01*
X2324Y2506D02*
X2334Y2506D01*
X91Y2505D02*
X101Y2505D01*
X2325Y2505D02*
X2335Y2505D01*
X90Y2504D02*
X100Y2504D01*
X2326Y2504D02*
X2336Y2504D01*
X89Y2503D02*
X99Y2503D01*
X2327Y2503D02*
X2337Y2503D01*
X89Y2502D02*
X98Y2502D01*
X2328Y2502D02*
X2337Y2502D01*
X88Y2501D02*
X97Y2501D01*
X2329Y2501D02*
X2338Y2501D01*
X87Y2500D02*
X96Y2500D01*
X2330Y2500D02*
X2339Y2500D01*
X86Y2499D02*
X95Y2499D01*
X2331Y2499D02*
X2340Y2499D01*
X85Y2498D02*
X95Y2498D01*
X2331Y2498D02*
X2341Y2498D01*
X85Y2497D02*
X94Y2497D01*
X2332Y2497D02*
X2341Y2497D01*
X84Y2496D02*
X93Y2496D01*
X2333Y2496D02*
X2342Y2496D01*
X83Y2495D02*
X92Y2495D01*
X2334Y2495D02*
X2343Y2495D01*
X82Y2494D02*
X91Y2494D01*
X2335Y2494D02*
X2344Y2494D01*
X81Y2493D02*
X91Y2493D01*
X2335Y2493D02*
X2345Y2493D01*
X81Y2492D02*
X90Y2492D01*
X2336Y2492D02*
X2345Y2492D01*
X80Y2491D02*
X89Y2491D01*
X2337Y2491D02*
X2346Y2491D01*
X79Y2490D02*
X88Y2490D01*
X2338Y2490D02*
X2347Y2490D01*
X78Y2489D02*
X87Y2489D01*
X2339Y2489D02*
X2348Y2489D01*
X77Y2488D02*
X87Y2488D01*
X2339Y2488D02*
X2349Y2488D01*
X77Y2487D02*
X86Y2487D01*
X2340Y2487D02*
X2349Y2487D01*
X76Y2486D02*
X85Y2486D01*
X2341Y2486D02*
X2350Y2486D01*
X75Y2485D02*
X84Y2485D01*
X2342Y2485D02*
X2351Y2485D01*
X75Y2484D02*
X83Y2484D01*
X2343Y2484D02*
X2351Y2484D01*
X74Y2483D02*
X83Y2483D01*
X2343Y2483D02*
X2352Y2483D01*
X73Y2482D02*
X82Y2482D01*
X2344Y2482D02*
X2353Y2482D01*
X72Y2481D02*
X81Y2481D01*
X2345Y2481D02*
X2354Y2481D01*
X72Y2480D02*
X80Y2480D01*
X2346Y2480D02*
X2354Y2480D01*
X71Y2479D02*
X80Y2479D01*
X2346Y2479D02*
X2355Y2479D01*
X70Y2478D02*
X79Y2478D01*
X2347Y2478D02*
X2356Y2478D01*
X70Y2477D02*
X78Y2477D01*
X2348Y2477D02*
X2356Y2477D01*
X69Y2476D02*
X78Y2476D01*
X2348Y2476D02*
X2357Y2476D01*
X68Y2475D02*
X77Y2475D01*
X2349Y2475D02*
X2358Y2475D01*
X67Y2474D02*
X76Y2474D01*
X2350Y2474D02*
X2359Y2474D01*
X67Y2473D02*
X75Y2473D01*
X2351Y2473D02*
X2359Y2473D01*
X66Y2472D02*
X75Y2472D01*
X2351Y2472D02*
X2360Y2472D01*
X65Y2471D02*
X74Y2471D01*
X2352Y2471D02*
X2361Y2471D01*
X65Y2470D02*
X73Y2470D01*
X2353Y2470D02*
X2361Y2470D01*
X64Y2469D02*
X72Y2469D01*
X2354Y2469D02*
X2362Y2469D01*
X63Y2468D02*
X72Y2468D01*
X2354Y2468D02*
X2363Y2468D01*
X63Y2467D02*
X71Y2467D01*
X2355Y2467D02*
X2363Y2467D01*
X62Y2466D02*
X71Y2466D01*
X2355Y2466D02*
X2364Y2466D01*
X61Y2465D02*
X70Y2465D01*
X2356Y2465D02*
X2365Y2465D01*
X61Y2464D02*
X69Y2464D01*
X2357Y2464D02*
X2365Y2464D01*
X60Y2463D02*
X69Y2463D01*
X2357Y2463D02*
X2366Y2463D01*
X60Y2462D02*
X68Y2462D01*
X2358Y2462D02*
X2366Y2462D01*
X59Y2461D02*
X67Y2461D01*
X2359Y2461D02*
X2367Y2461D01*
X58Y2460D02*
X67Y2460D01*
X2359Y2460D02*
X2368Y2460D01*
X58Y2459D02*
X66Y2459D01*
X2360Y2459D02*
X2368Y2459D01*
X57Y2458D02*
X65Y2458D01*
X2361Y2458D02*
X2369Y2458D01*
X56Y2457D02*
X65Y2457D01*
X2361Y2457D02*
X2370Y2457D01*
X56Y2456D02*
X64Y2456D01*
X2362Y2456D02*
X2370Y2456D01*
X55Y2455D02*
X63Y2455D01*
X2363Y2455D02*
X2371Y2455D01*
X55Y2454D02*
X63Y2454D01*
X2363Y2454D02*
X2371Y2454D01*
X54Y2453D02*
X62Y2453D01*
X2364Y2453D02*
X2372Y2453D01*
X53Y2452D02*
X62Y2452D01*
X2364Y2452D02*
X2373Y2452D01*
X53Y2451D02*
X61Y2451D01*
X2365Y2451D02*
X2373Y2451D01*
X52Y2450D02*
X60Y2450D01*
X2366Y2450D02*
X2374Y2450D01*
X52Y2449D02*
X60Y2449D01*
X2366Y2449D02*
X2374Y2449D01*
X51Y2448D02*
X59Y2448D01*
X2367Y2448D02*
X2375Y2448D01*
X51Y2447D02*
X59Y2447D01*
X2367Y2447D02*
X2375Y2447D01*
X50Y2446D02*
X58Y2446D01*
X2368Y2446D02*
X2376Y2446D01*
X49Y2445D02*
X57Y2445D01*
X2369Y2445D02*
X2377Y2445D01*
X49Y2444D02*
X57Y2444D01*
X2369Y2444D02*
X2377Y2444D01*
X48Y2443D02*
X56Y2443D01*
X2370Y2443D02*
X2378Y2443D01*
X48Y2442D02*
X56Y2442D01*
X2370Y2442D02*
X2378Y2442D01*
X47Y2441D02*
X55Y2441D01*
X2371Y2441D02*
X2379Y2441D01*
X47Y2440D02*
X55Y2440D01*
X2371Y2440D02*
X2379Y2440D01*
X46Y2439D02*
X54Y2439D01*
X2372Y2439D02*
X2380Y2439D01*
X45Y2438D02*
X53Y2438D01*
X2373Y2438D02*
X2381Y2438D01*
X45Y2437D02*
X53Y2437D01*
X2373Y2437D02*
X2381Y2437D01*
X44Y2436D02*
X52Y2436D01*
X2374Y2436D02*
X2382Y2436D01*
X44Y2435D02*
X52Y2435D01*
X2374Y2435D02*
X2382Y2435D01*
X43Y2434D02*
X51Y2434D01*
X2375Y2434D02*
X2383Y2434D01*
X43Y2433D02*
X51Y2433D01*
X2375Y2433D02*
X2383Y2433D01*
X42Y2432D02*
X50Y2432D01*
X2376Y2432D02*
X2384Y2432D01*
X42Y2431D02*
X50Y2431D01*
X2376Y2431D02*
X2384Y2431D01*
X41Y2430D02*
X49Y2430D01*
X2377Y2430D02*
X2385Y2430D01*
X41Y2429D02*
X49Y2429D01*
X2377Y2429D02*
X2385Y2429D01*
X40Y2428D02*
X48Y2428D01*
X2378Y2428D02*
X2386Y2428D01*
X40Y2427D02*
X48Y2427D01*
X2378Y2427D02*
X2386Y2427D01*
X39Y2426D02*
X47Y2426D01*
X2379Y2426D02*
X2387Y2426D01*
X39Y2425D02*
X47Y2425D01*
X2379Y2425D02*
X2387Y2425D01*
X38Y2424D02*
X46Y2424D01*
X2380Y2424D02*
X2388Y2424D01*
X38Y2423D02*
X46Y2423D01*
X2380Y2423D02*
X2388Y2423D01*
X37Y2422D02*
X45Y2422D01*
X2381Y2422D02*
X2389Y2422D01*
X37Y2421D02*
X45Y2421D01*
X2381Y2421D02*
X2389Y2421D01*
X36Y2420D02*
X44Y2420D01*
X2382Y2420D02*
X2390Y2420D01*
X36Y2419D02*
X44Y2419D01*
X2382Y2419D02*
X2390Y2419D01*
X36Y2418D02*
X43Y2418D01*
X2383Y2418D02*
X2390Y2418D01*
X35Y2417D02*
X43Y2417D01*
X2383Y2417D02*
X2391Y2417D01*
X35Y2416D02*
X42Y2416D01*
X2384Y2416D02*
X2391Y2416D01*
X34Y2415D02*
X42Y2415D01*
X2384Y2415D02*
X2392Y2415D01*
X34Y2414D02*
X41Y2414D01*
X2385Y2414D02*
X2392Y2414D01*
X33Y2413D02*
X41Y2413D01*
X2385Y2413D02*
X2393Y2413D01*
X33Y2412D02*
X40Y2412D01*
X2386Y2412D02*
X2393Y2412D01*
X32Y2411D02*
X40Y2411D01*
X2386Y2411D02*
X2394Y2411D01*
X32Y2410D02*
X39Y2410D01*
X2387Y2410D02*
X2394Y2410D01*
X31Y2409D02*
X39Y2409D01*
X2387Y2409D02*
X2395Y2409D01*
X31Y2408D02*
X39Y2408D01*
X2387Y2408D02*
X2395Y2408D01*
X31Y2407D02*
X38Y2407D01*
X2388Y2407D02*
X2395Y2407D01*
X30Y2406D02*
X38Y2406D01*
X2388Y2406D02*
X2396Y2406D01*
X30Y2405D02*
X37Y2405D01*
X2389Y2405D02*
X2396Y2405D01*
X29Y2404D02*
X37Y2404D01*
X2389Y2404D02*
X2397Y2404D01*
X29Y2403D02*
X36Y2403D01*
X2390Y2403D02*
X2397Y2403D01*
X29Y2402D02*
X36Y2402D01*
X2390Y2402D02*
X2397Y2402D01*
X28Y2401D02*
X36Y2401D01*
X2390Y2401D02*
X2398Y2401D01*
X28Y2400D02*
X35Y2400D01*
X2391Y2400D02*
X2398Y2400D01*
X27Y2399D02*
X35Y2399D01*
X2391Y2399D02*
X2399Y2399D01*
X27Y2398D02*
X34Y2398D01*
X2392Y2398D02*
X2399Y2398D01*
X27Y2397D02*
X34Y2397D01*
X2392Y2397D02*
X2399Y2397D01*
X26Y2396D02*
X34Y2396D01*
X2392Y2396D02*
X2400Y2396D01*
X26Y2395D02*
X33Y2395D01*
X2393Y2395D02*
X2400Y2395D01*
X25Y2394D02*
X33Y2394D01*
X2393Y2394D02*
X2401Y2394D01*
X25Y2393D02*
X32Y2393D01*
X2394Y2393D02*
X2401Y2393D01*
X25Y2392D02*
X32Y2392D01*
X2394Y2392D02*
X2401Y2392D01*
X24Y2391D02*
X32Y2391D01*
X2394Y2391D02*
X2402Y2391D01*
X24Y2390D02*
X31Y2390D01*
X2395Y2390D02*
X2402Y2390D01*
X23Y2389D02*
X31Y2389D01*
X2395Y2389D02*
X2403Y2389D01*
X23Y2388D02*
X30Y2388D01*
X2396Y2388D02*
X2403Y2388D01*
X23Y2387D02*
X30Y2387D01*
X2396Y2387D02*
X2403Y2387D01*
X22Y2386D02*
X30Y2386D01*
X2396Y2386D02*
X2404Y2386D01*
X22Y2385D02*
X29Y2385D01*
X2397Y2385D02*
X2404Y2385D01*
X22Y2384D02*
X29Y2384D01*
X2397Y2384D02*
X2404Y2384D01*
X21Y2383D02*
X29Y2383D01*
X2397Y2383D02*
X2405Y2383D01*
X21Y2382D02*
X28Y2382D01*
X2398Y2382D02*
X2405Y2382D01*
X21Y2381D02*
X28Y2381D01*
X2398Y2381D02*
X2405Y2381D01*
X20Y2380D02*
X28Y2380D01*
X2398Y2380D02*
X2406Y2380D01*
X20Y2379D02*
X27Y2379D01*
X2399Y2379D02*
X2406Y2379D01*
X20Y2378D02*
X27Y2378D01*
X2399Y2378D02*
X2406Y2378D01*
X19Y2377D02*
X27Y2377D01*
X2399Y2377D02*
X2407Y2377D01*
X19Y2376D02*
X26Y2376D01*
X2400Y2376D02*
X2407Y2376D01*
X19Y2375D02*
X26Y2375D01*
X2400Y2375D02*
X2407Y2375D01*
X18Y2374D02*
X26Y2374D01*
X2400Y2374D02*
X2408Y2374D01*
X18Y2373D02*
X25Y2373D01*
X2401Y2373D02*
X2408Y2373D01*
X18Y2372D02*
X25Y2372D01*
X2401Y2372D02*
X2408Y2372D01*
X17Y2371D02*
X25Y2371D01*
X2401Y2371D02*
X2409Y2371D01*
X17Y2370D02*
X24Y2370D01*
X2402Y2370D02*
X2409Y2370D01*
X17Y2369D02*
X24Y2369D01*
X2402Y2369D02*
X2409Y2369D01*
X16Y2368D02*
X24Y2368D01*
X2402Y2368D02*
X2410Y2368D01*
X16Y2367D02*
X23Y2367D01*
X2403Y2367D02*
X2410Y2367D01*
X16Y2366D02*
X23Y2366D01*
X2403Y2366D02*
X2410Y2366D01*
X15Y2365D02*
X23Y2365D01*
X2403Y2365D02*
X2411Y2365D01*
X15Y2364D02*
X22Y2364D01*
X2404Y2364D02*
X2411Y2364D01*
X15Y2363D02*
X22Y2363D01*
X2404Y2363D02*
X2411Y2363D01*
X15Y2362D02*
X22Y2362D01*
X2404Y2362D02*
X2411Y2362D01*
X14Y2361D02*
X21Y2361D01*
X2405Y2361D02*
X2412Y2361D01*
X14Y2360D02*
X21Y2360D01*
X2405Y2360D02*
X2412Y2360D01*
X14Y2359D02*
X21Y2359D01*
X2405Y2359D02*
X2412Y2359D01*
X13Y2358D02*
X21Y2358D01*
X2405Y2358D02*
X2412Y2358D01*
X13Y2357D02*
X20Y2357D01*
X2406Y2357D02*
X2413Y2357D01*
X13Y2356D02*
X20Y2356D01*
X2406Y2356D02*
X2413Y2356D01*
X13Y2355D02*
X20Y2355D01*
X2406Y2355D02*
X2413Y2355D01*
X12Y2354D02*
X20Y2354D01*
X2406Y2354D02*
X2414Y2354D01*
X12Y2353D02*
X19Y2353D01*
X2407Y2353D02*
X2414Y2353D01*
X12Y2352D02*
X19Y2352D01*
X2407Y2352D02*
X2414Y2352D01*
X12Y2351D02*
X19Y2351D01*
X2407Y2351D02*
X2414Y2351D01*
X11Y2350D02*
X19Y2350D01*
X2407Y2350D02*
X2415Y2350D01*
X11Y2349D02*
X18Y2349D01*
X2408Y2349D02*
X2415Y2349D01*
X11Y2348D02*
X18Y2348D01*
X2408Y2348D02*
X2415Y2348D01*
X11Y2347D02*
X18Y2347D01*
X2408Y2347D02*
X2415Y2347D01*
X10Y2346D02*
X18Y2346D01*
X2408Y2346D02*
X2416Y2346D01*
X10Y2345D02*
X17Y2345D01*
X2409Y2345D02*
X2416Y2345D01*
X10Y2344D02*
X17Y2344D01*
X2409Y2344D02*
X2416Y2344D01*
X10Y2343D02*
X17Y2343D01*
X2409Y2343D02*
X2416Y2343D01*
X9Y2342D02*
X17Y2342D01*
X2409Y2342D02*
X2417Y2342D01*
X9Y2341D02*
X16Y2341D01*
X2410Y2341D02*
X2417Y2341D01*
X9Y2340D02*
X16Y2340D01*
X2410Y2340D02*
X2417Y2340D01*
X9Y2339D02*
X16Y2339D01*
X2410Y2339D02*
X2417Y2339D01*
X9Y2338D02*
X16Y2338D01*
X2410Y2338D02*
X2417Y2338D01*
X8Y2337D02*
X15Y2337D01*
X2411Y2337D02*
X2418Y2337D01*
X8Y2336D02*
X15Y2336D01*
X2411Y2336D02*
X2418Y2336D01*
X8Y2335D02*
X15Y2335D01*
X2411Y2335D02*
X2418Y2335D01*
X8Y2334D02*
X15Y2334D01*
X2411Y2334D02*
X2418Y2334D01*
X8Y2333D02*
X15Y2333D01*
X2411Y2333D02*
X2418Y2333D01*
X7Y2332D02*
X14Y2332D01*
X2412Y2332D02*
X2419Y2332D01*
X7Y2331D02*
X14Y2331D01*
X2412Y2331D02*
X2419Y2331D01*
X7Y2330D02*
X14Y2330D01*
X2412Y2330D02*
X2419Y2330D01*
X7Y2329D02*
X14Y2329D01*
X2412Y2329D02*
X2419Y2329D01*
X7Y2328D02*
X14Y2328D01*
X2412Y2328D02*
X2419Y2328D01*
X6Y2327D02*
X13Y2327D01*
X2413Y2327D02*
X2420Y2327D01*
X6Y2326D02*
X13Y2326D01*
X2413Y2326D02*
X2420Y2326D01*
X6Y2325D02*
X13Y2325D01*
X2413Y2325D02*
X2420Y2325D01*
X6Y2324D02*
X13Y2324D01*
X2413Y2324D02*
X2420Y2324D01*
X6Y2323D02*
X13Y2323D01*
X2413Y2323D02*
X2420Y2323D01*
X6Y2322D02*
X13Y2322D01*
X2413Y2322D02*
X2420Y2322D01*
X5Y2321D02*
X12Y2321D01*
X2414Y2321D02*
X2421Y2321D01*
X5Y2320D02*
X12Y2320D01*
X2414Y2320D02*
X2421Y2320D01*
X5Y2319D02*
X12Y2319D01*
X2414Y2319D02*
X2421Y2319D01*
X5Y2318D02*
X12Y2318D01*
X2414Y2318D02*
X2421Y2318D01*
X5Y2317D02*
X12Y2317D01*
X2414Y2317D02*
X2421Y2317D01*
X5Y2316D02*
X12Y2316D01*
X2414Y2316D02*
X2421Y2316D01*
X4Y2315D02*
X11Y2315D01*
X2415Y2315D02*
X2422Y2315D01*
X4Y2314D02*
X11Y2314D01*
X2415Y2314D02*
X2422Y2314D01*
X4Y2313D02*
X11Y2313D01*
X2415Y2313D02*
X2422Y2313D01*
X4Y2312D02*
X11Y2312D01*
X2415Y2312D02*
X2422Y2312D01*
X4Y2311D02*
X11Y2311D01*
X2415Y2311D02*
X2422Y2311D01*
X4Y2310D02*
X11Y2310D01*
X2415Y2310D02*
X2422Y2310D01*
X4Y2309D02*
X11Y2309D01*
X2415Y2309D02*
X2422Y2309D01*
X3Y2308D02*
X10Y2308D01*
X2416Y2308D02*
X2423Y2308D01*
X3Y2307D02*
X10Y2307D01*
X2416Y2307D02*
X2423Y2307D01*
X3Y2306D02*
X10Y2306D01*
X2416Y2306D02*
X2423Y2306D01*
X3Y2305D02*
X10Y2305D01*
X2416Y2305D02*
X2423Y2305D01*
X3Y2304D02*
X10Y2304D01*
X2416Y2304D02*
X2423Y2304D01*
X3Y2303D02*
X10Y2303D01*
X2416Y2303D02*
X2423Y2303D01*
X3Y2302D02*
X10Y2302D01*
X2416Y2302D02*
X2423Y2302D01*
X3Y2301D02*
X10Y2301D01*
X2416Y2301D02*
X2423Y2301D01*
X2Y2300D02*
X9Y2300D01*
X2417Y2300D02*
X2424Y2300D01*
X2Y2299D02*
X9Y2299D01*
X2417Y2299D02*
X2424Y2299D01*
X2Y2298D02*
X9Y2298D01*
X2417Y2298D02*
X2424Y2298D01*
X2Y2297D02*
X9Y2297D01*
X2417Y2297D02*
X2424Y2297D01*
X2Y2296D02*
X9Y2296D01*
X2417Y2296D02*
X2424Y2296D01*
X2Y2295D02*
X9Y2295D01*
X2417Y2295D02*
X2424Y2295D01*
X2Y2294D02*
X9Y2294D01*
X2417Y2294D02*
X2424Y2294D01*
X2Y2293D02*
X9Y2293D01*
X2417Y2293D02*
X2424Y2293D01*
X2Y2292D02*
X9Y2292D01*
X2417Y2292D02*
X2424Y2292D01*
X1Y2291D02*
X9Y2291D01*
X2417Y2291D02*
X2425Y2291D01*
X1Y2290D02*
X8Y2290D01*
X2418Y2290D02*
X2425Y2290D01*
X1Y2289D02*
X8Y2289D01*
X2418Y2289D02*
X2425Y2289D01*
X1Y2288D02*
X8Y2288D01*
X2418Y2288D02*
X2425Y2288D01*
X1Y2287D02*
X8Y2287D01*
X2418Y2287D02*
X2425Y2287D01*
X1Y2286D02*
X8Y2286D01*
X2418Y2286D02*
X2425Y2286D01*
X1Y2285D02*
X8Y2285D01*
X2418Y2285D02*
X2425Y2285D01*
X1Y2284D02*
X8Y2284D01*
X2418Y2284D02*
X2425Y2284D01*
X1Y2283D02*
X8Y2283D01*
X2418Y2283D02*
X2425Y2283D01*
X1Y2282D02*
X8Y2282D01*
X2418Y2282D02*
X2425Y2282D01*
X1Y2281D02*
X8Y2281D01*
X2418Y2281D02*
X2425Y2281D01*
X1Y2280D02*
X8Y2280D01*
X2418Y2280D02*
X2425Y2280D01*
X1Y2279D02*
X8Y2279D01*
X2418Y2279D02*
X2425Y2279D01*
X1Y2278D02*
X8Y2278D01*
X2418Y2278D02*
X2425Y2278D01*
X1Y2277D02*
X8Y2277D01*
X2418Y2277D02*
X2425Y2277D01*
X0Y2276D02*
X7Y2276D01*
X2419Y2276D02*
X2426Y2276D01*
X0Y2275D02*
X7Y2275D01*
X2419Y2275D02*
X2426Y2275D01*
X0Y2274D02*
X7Y2274D01*
X2419Y2274D02*
X2426Y2274D01*
X0Y2273D02*
X7Y2273D01*
X2419Y2273D02*
X2426Y2273D01*
X0Y2272D02*
X7Y2272D01*
X2419Y2272D02*
X2426Y2272D01*
X0Y2271D02*
X7Y2271D01*
X2419Y2271D02*
X2426Y2271D01*
X0Y2270D02*
X7Y2270D01*
X2419Y2270D02*
X2426Y2270D01*
X0Y2269D02*
X7Y2269D01*
X2419Y2269D02*
X2426Y2269D01*
X0Y2268D02*
X7Y2268D01*
X2419Y2268D02*
X2426Y2268D01*
X0Y2267D02*
X7Y2267D01*
X2419Y2267D02*
X2426Y2267D01*
X0Y2266D02*
X7Y2266D01*
X2419Y2266D02*
X2426Y2266D01*
X0Y2265D02*
X7Y2265D01*
X2419Y2265D02*
X2426Y2265D01*
X0Y2264D02*
X7Y2264D01*
X2419Y2264D02*
X2426Y2264D01*
X0Y2263D02*
X7Y2263D01*
X2419Y2263D02*
X2426Y2263D01*
X0Y2262D02*
X7Y2262D01*
X2419Y2262D02*
X2426Y2262D01*
X0Y2261D02*
X7Y2261D01*
X2419Y2261D02*
X2426Y2261D01*
X0Y2260D02*
X7Y2260D01*
X2419Y2260D02*
X2426Y2260D01*
X0Y2259D02*
X7Y2259D01*
X2419Y2259D02*
X2426Y2259D01*
X0Y2258D02*
X7Y2258D01*
X2419Y2258D02*
X2426Y2258D01*
X0Y2257D02*
X7Y2257D01*
X2419Y2257D02*
X2426Y2257D01*
X0Y2256D02*
X7Y2256D01*
X2419Y2256D02*
X2426Y2256D01*
X0Y2255D02*
X7Y2255D01*
X2419Y2255D02*
X2426Y2255D01*
X0Y2254D02*
X7Y2254D01*
X2419Y2254D02*
X2426Y2254D01*
X0Y2253D02*
X7Y2253D01*
X2419Y2253D02*
X2426Y2253D01*
X0Y2252D02*
X7Y2252D01*
X2419Y2252D02*
X2426Y2252D01*
X0Y2251D02*
X7Y2251D01*
X2419Y2251D02*
X2426Y2251D01*
X0Y2250D02*
X7Y2250D01*
X2419Y2250D02*
X2426Y2250D01*
X0Y2249D02*
X7Y2249D01*
X2419Y2249D02*
X2426Y2249D01*
X0Y2248D02*
X7Y2248D01*
X2419Y2248D02*
X2426Y2248D01*
X0Y2247D02*
X7Y2247D01*
X2419Y2247D02*
X2426Y2247D01*
X0Y2246D02*
X7Y2246D01*
X2419Y2246D02*
X2426Y2246D01*
X0Y2245D02*
X7Y2245D01*
X2419Y2245D02*
X2426Y2245D01*
X0Y2244D02*
X7Y2244D01*
X2419Y2244D02*
X2426Y2244D01*
X0Y2243D02*
X7Y2243D01*
X2419Y2243D02*
X2426Y2243D01*
X0Y2242D02*
X7Y2242D01*
X2419Y2242D02*
X2426Y2242D01*
X0Y2241D02*
X7Y2241D01*
X2419Y2241D02*
X2426Y2241D01*
X0Y2240D02*
X7Y2240D01*
X2419Y2240D02*
X2426Y2240D01*
X0Y2239D02*
X7Y2239D01*
X2419Y2239D02*
X2426Y2239D01*
X0Y2238D02*
X7Y2238D01*
X2419Y2238D02*
X2426Y2238D01*
X0Y2237D02*
X7Y2237D01*
X2419Y2237D02*
X2426Y2237D01*
X0Y2236D02*
X7Y2236D01*
X2419Y2236D02*
X2426Y2236D01*
X0Y2235D02*
X7Y2235D01*
X2419Y2235D02*
X2426Y2235D01*
X0Y2234D02*
X7Y2234D01*
X2419Y2234D02*
X2426Y2234D01*
X0Y2233D02*
X7Y2233D01*
X2419Y2233D02*
X2426Y2233D01*
X0Y2232D02*
X7Y2232D01*
X2419Y2232D02*
X2426Y2232D01*
X0Y2231D02*
X7Y2231D01*
X2419Y2231D02*
X2426Y2231D01*
X0Y2230D02*
X7Y2230D01*
X2419Y2230D02*
X2426Y2230D01*
X0Y2229D02*
X7Y2229D01*
X2419Y2229D02*
X2426Y2229D01*
X0Y2228D02*
X7Y2228D01*
X2419Y2228D02*
X2426Y2228D01*
X0Y2227D02*
X7Y2227D01*
X2419Y2227D02*
X2426Y2227D01*
X0Y2226D02*
X7Y2226D01*
X2419Y2226D02*
X2426Y2226D01*
X0Y2225D02*
X7Y2225D01*
X2419Y2225D02*
X2426Y2225D01*
X0Y2224D02*
X7Y2224D01*
X2419Y2224D02*
X2426Y2224D01*
X0Y2223D02*
X7Y2223D01*
X2419Y2223D02*
X2426Y2223D01*
X0Y2222D02*
X7Y2222D01*
X2419Y2222D02*
X2426Y2222D01*
X0Y2221D02*
X7Y2221D01*
X2419Y2221D02*
X2426Y2221D01*
X0Y2220D02*
X7Y2220D01*
X2419Y2220D02*
X2426Y2220D01*
X0Y2219D02*
X7Y2219D01*
X2419Y2219D02*
X2426Y2219D01*
X0Y2218D02*
X7Y2218D01*
X2419Y2218D02*
X2426Y2218D01*
X0Y2217D02*
X7Y2217D01*
X2419Y2217D02*
X2426Y2217D01*
X0Y2216D02*
X7Y2216D01*
X2419Y2216D02*
X2426Y2216D01*
X0Y2215D02*
X7Y2215D01*
X2419Y2215D02*
X2426Y2215D01*
X0Y2214D02*
X7Y2214D01*
X2419Y2214D02*
X2426Y2214D01*
X0Y2213D02*
X7Y2213D01*
X2419Y2213D02*
X2426Y2213D01*
X0Y2212D02*
X7Y2212D01*
X2419Y2212D02*
X2426Y2212D01*
X0Y2211D02*
X7Y2211D01*
X2419Y2211D02*
X2426Y2211D01*
X0Y2210D02*
X7Y2210D01*
X2419Y2210D02*
X2426Y2210D01*
X0Y2209D02*
X7Y2209D01*
X2419Y2209D02*
X2426Y2209D01*
X0Y2208D02*
X7Y2208D01*
X2419Y2208D02*
X2426Y2208D01*
X0Y2207D02*
X7Y2207D01*
X2419Y2207D02*
X2426Y2207D01*
X0Y2206D02*
X7Y2206D01*
X2419Y2206D02*
X2426Y2206D01*
X0Y2205D02*
X7Y2205D01*
X2419Y2205D02*
X2426Y2205D01*
X0Y2204D02*
X7Y2204D01*
X2419Y2204D02*
X2426Y2204D01*
X0Y2203D02*
X7Y2203D01*
X2419Y2203D02*
X2426Y2203D01*
X0Y2202D02*
X7Y2202D01*
X2419Y2202D02*
X2426Y2202D01*
X0Y2201D02*
X7Y2201D01*
X2419Y2201D02*
X2426Y2201D01*
X0Y2200D02*
X7Y2200D01*
X2419Y2200D02*
X2426Y2200D01*
X0Y2199D02*
X7Y2199D01*
X2419Y2199D02*
X2426Y2199D01*
X0Y2198D02*
X7Y2198D01*
X2419Y2198D02*
X2426Y2198D01*
X0Y2197D02*
X7Y2197D01*
X2419Y2197D02*
X2426Y2197D01*
X0Y2196D02*
X7Y2196D01*
X2419Y2196D02*
X2426Y2196D01*
X0Y2195D02*
X7Y2195D01*
X2419Y2195D02*
X2426Y2195D01*
X0Y2194D02*
X7Y2194D01*
X2419Y2194D02*
X2426Y2194D01*
X0Y2193D02*
X7Y2193D01*
X2419Y2193D02*
X2426Y2193D01*
X0Y2192D02*
X7Y2192D01*
X2419Y2192D02*
X2426Y2192D01*
X0Y2191D02*
X7Y2191D01*
X2419Y2191D02*
X2426Y2191D01*
X0Y2190D02*
X7Y2190D01*
X2419Y2190D02*
X2426Y2190D01*
X0Y2189D02*
X7Y2189D01*
X2419Y2189D02*
X2426Y2189D01*
X0Y2188D02*
X7Y2188D01*
X2419Y2188D02*
X2426Y2188D01*
X0Y2187D02*
X7Y2187D01*
X2419Y2187D02*
X2426Y2187D01*
X0Y2186D02*
X7Y2186D01*
X2419Y2186D02*
X2426Y2186D01*
X0Y2185D02*
X7Y2185D01*
X2419Y2185D02*
X2426Y2185D01*
X0Y2184D02*
X7Y2184D01*
X2419Y2184D02*
X2426Y2184D01*
X0Y2183D02*
X7Y2183D01*
X2419Y2183D02*
X2426Y2183D01*
X0Y2182D02*
X7Y2182D01*
X2419Y2182D02*
X2426Y2182D01*
X0Y2181D02*
X7Y2181D01*
X2419Y2181D02*
X2426Y2181D01*
X0Y2180D02*
X7Y2180D01*
X2419Y2180D02*
X2426Y2180D01*
X0Y2179D02*
X7Y2179D01*
X2419Y2179D02*
X2426Y2179D01*
X0Y2178D02*
X7Y2178D01*
X2419Y2178D02*
X2426Y2178D01*
X0Y2177D02*
X7Y2177D01*
X2419Y2177D02*
X2426Y2177D01*
X0Y2176D02*
X7Y2176D01*
X2419Y2176D02*
X2426Y2176D01*
X0Y2175D02*
X7Y2175D01*
X2419Y2175D02*
X2426Y2175D01*
X0Y2174D02*
X7Y2174D01*
X2419Y2174D02*
X2426Y2174D01*
X0Y2173D02*
X7Y2173D01*
X2419Y2173D02*
X2426Y2173D01*
X0Y2172D02*
X7Y2172D01*
X2419Y2172D02*
X2426Y2172D01*
X0Y2171D02*
X7Y2171D01*
X2419Y2171D02*
X2426Y2171D01*
X0Y2170D02*
X7Y2170D01*
X2419Y2170D02*
X2426Y2170D01*
X0Y2169D02*
X7Y2169D01*
X2419Y2169D02*
X2426Y2169D01*
X0Y2168D02*
X7Y2168D01*
X2419Y2168D02*
X2426Y2168D01*
X0Y2167D02*
X7Y2167D01*
X2419Y2167D02*
X2426Y2167D01*
X0Y2166D02*
X7Y2166D01*
X2419Y2166D02*
X2426Y2166D01*
X0Y2165D02*
X7Y2165D01*
X2419Y2165D02*
X2426Y2165D01*
X0Y2164D02*
X7Y2164D01*
X2419Y2164D02*
X2426Y2164D01*
X0Y2163D02*
X7Y2163D01*
X2419Y2163D02*
X2426Y2163D01*
X0Y2162D02*
X7Y2162D01*
X2419Y2162D02*
X2426Y2162D01*
X0Y2161D02*
X7Y2161D01*
X2419Y2161D02*
X2426Y2161D01*
X0Y2160D02*
X7Y2160D01*
X2419Y2160D02*
X2426Y2160D01*
X0Y2159D02*
X7Y2159D01*
X2419Y2159D02*
X2426Y2159D01*
X0Y2158D02*
X7Y2158D01*
X2419Y2158D02*
X2426Y2158D01*
X0Y2157D02*
X7Y2157D01*
X2419Y2157D02*
X2426Y2157D01*
X0Y2156D02*
X7Y2156D01*
X2419Y2156D02*
X2426Y2156D01*
X0Y2155D02*
X7Y2155D01*
X2419Y2155D02*
X2426Y2155D01*
X0Y2154D02*
X7Y2154D01*
X2419Y2154D02*
X2426Y2154D01*
X0Y2153D02*
X7Y2153D01*
X2419Y2153D02*
X2426Y2153D01*
X0Y2152D02*
X7Y2152D01*
X2419Y2152D02*
X2426Y2152D01*
X0Y2151D02*
X7Y2151D01*
X2419Y2151D02*
X2426Y2151D01*
X0Y2150D02*
X7Y2150D01*
X2419Y2150D02*
X2426Y2150D01*
X0Y2149D02*
X7Y2149D01*
X2419Y2149D02*
X2426Y2149D01*
X0Y2148D02*
X7Y2148D01*
X2419Y2148D02*
X2426Y2148D01*
X0Y2147D02*
X7Y2147D01*
X2419Y2147D02*
X2426Y2147D01*
X0Y2146D02*
X7Y2146D01*
X2419Y2146D02*
X2426Y2146D01*
X0Y2145D02*
X7Y2145D01*
X2419Y2145D02*
X2426Y2145D01*
X0Y2144D02*
X7Y2144D01*
X2419Y2144D02*
X2426Y2144D01*
X0Y2143D02*
X7Y2143D01*
X2419Y2143D02*
X2426Y2143D01*
X0Y2142D02*
X7Y2142D01*
X2419Y2142D02*
X2426Y2142D01*
X0Y2141D02*
X7Y2141D01*
X2419Y2141D02*
X2426Y2141D01*
X0Y2140D02*
X7Y2140D01*
X2419Y2140D02*
X2426Y2140D01*
X0Y2139D02*
X7Y2139D01*
X2419Y2139D02*
X2426Y2139D01*
X0Y2138D02*
X7Y2138D01*
X2419Y2138D02*
X2426Y2138D01*
X0Y2137D02*
X7Y2137D01*
X2419Y2137D02*
X2426Y2137D01*
X0Y2136D02*
X7Y2136D01*
X2419Y2136D02*
X2426Y2136D01*
X0Y2135D02*
X7Y2135D01*
X2419Y2135D02*
X2426Y2135D01*
X0Y2134D02*
X7Y2134D01*
X2419Y2134D02*
X2426Y2134D01*
X0Y2133D02*
X7Y2133D01*
X2419Y2133D02*
X2426Y2133D01*
X0Y2132D02*
X7Y2132D01*
X2419Y2132D02*
X2426Y2132D01*
X0Y2131D02*
X7Y2131D01*
X2419Y2131D02*
X2426Y2131D01*
X0Y2130D02*
X7Y2130D01*
X2419Y2130D02*
X2426Y2130D01*
X0Y2129D02*
X7Y2129D01*
X2419Y2129D02*
X2426Y2129D01*
X0Y2128D02*
X7Y2128D01*
X2419Y2128D02*
X2426Y2128D01*
X0Y2127D02*
X7Y2127D01*
X2419Y2127D02*
X2426Y2127D01*
X0Y2126D02*
X7Y2126D01*
X2419Y2126D02*
X2426Y2126D01*
X0Y2125D02*
X7Y2125D01*
X2419Y2125D02*
X2426Y2125D01*
X0Y2124D02*
X7Y2124D01*
X2419Y2124D02*
X2426Y2124D01*
X0Y2123D02*
X7Y2123D01*
X2419Y2123D02*
X2426Y2123D01*
X0Y2122D02*
X7Y2122D01*
X2419Y2122D02*
X2426Y2122D01*
X0Y2121D02*
X7Y2121D01*
X2419Y2121D02*
X2426Y2121D01*
X0Y2120D02*
X7Y2120D01*
X2419Y2120D02*
X2426Y2120D01*
X0Y2119D02*
X7Y2119D01*
X2419Y2119D02*
X2426Y2119D01*
X0Y2118D02*
X7Y2118D01*
X2419Y2118D02*
X2426Y2118D01*
X0Y2117D02*
X7Y2117D01*
X2419Y2117D02*
X2426Y2117D01*
X0Y2116D02*
X7Y2116D01*
X2419Y2116D02*
X2426Y2116D01*
X0Y2115D02*
X7Y2115D01*
X2419Y2115D02*
X2426Y2115D01*
X0Y2114D02*
X7Y2114D01*
X2419Y2114D02*
X2426Y2114D01*
X0Y2113D02*
X7Y2113D01*
X2419Y2113D02*
X2426Y2113D01*
X0Y2112D02*
X7Y2112D01*
X2419Y2112D02*
X2426Y2112D01*
X0Y2111D02*
X7Y2111D01*
X2419Y2111D02*
X2426Y2111D01*
X0Y2110D02*
X7Y2110D01*
X2419Y2110D02*
X2426Y2110D01*
X0Y2109D02*
X7Y2109D01*
X2419Y2109D02*
X2426Y2109D01*
X0Y2108D02*
X7Y2108D01*
X2419Y2108D02*
X2426Y2108D01*
X0Y2107D02*
X7Y2107D01*
X2419Y2107D02*
X2426Y2107D01*
X0Y2106D02*
X7Y2106D01*
X2419Y2106D02*
X2426Y2106D01*
X0Y2105D02*
X7Y2105D01*
X2419Y2105D02*
X2426Y2105D01*
X0Y2104D02*
X7Y2104D01*
X2419Y2104D02*
X2426Y2104D01*
X0Y2103D02*
X7Y2103D01*
X2419Y2103D02*
X2426Y2103D01*
X0Y2102D02*
X7Y2102D01*
X2419Y2102D02*
X2426Y2102D01*
X0Y2101D02*
X7Y2101D01*
X2419Y2101D02*
X2426Y2101D01*
X0Y2100D02*
X7Y2100D01*
X2419Y2100D02*
X2426Y2100D01*
X0Y2099D02*
X7Y2099D01*
X2419Y2099D02*
X2426Y2099D01*
X0Y2098D02*
X7Y2098D01*
X2419Y2098D02*
X2426Y2098D01*
X0Y2097D02*
X7Y2097D01*
X2419Y2097D02*
X2426Y2097D01*
X0Y2096D02*
X7Y2096D01*
X2419Y2096D02*
X2426Y2096D01*
X0Y2095D02*
X7Y2095D01*
X2419Y2095D02*
X2426Y2095D01*
X0Y2094D02*
X7Y2094D01*
X2419Y2094D02*
X2426Y2094D01*
X0Y2093D02*
X7Y2093D01*
X2419Y2093D02*
X2426Y2093D01*
X0Y2092D02*
X7Y2092D01*
X2419Y2092D02*
X2426Y2092D01*
X0Y2091D02*
X7Y2091D01*
X2419Y2091D02*
X2426Y2091D01*
X0Y2090D02*
X7Y2090D01*
X2419Y2090D02*
X2426Y2090D01*
X0Y2089D02*
X7Y2089D01*
X2419Y2089D02*
X2426Y2089D01*
X0Y2088D02*
X7Y2088D01*
X2419Y2088D02*
X2426Y2088D01*
X0Y2087D02*
X7Y2087D01*
X2419Y2087D02*
X2426Y2087D01*
X0Y2086D02*
X7Y2086D01*
X2419Y2086D02*
X2426Y2086D01*
X0Y2085D02*
X7Y2085D01*
X2419Y2085D02*
X2426Y2085D01*
X0Y2084D02*
X7Y2084D01*
X2419Y2084D02*
X2426Y2084D01*
X0Y2083D02*
X7Y2083D01*
X2419Y2083D02*
X2426Y2083D01*
X0Y2082D02*
X7Y2082D01*
X2419Y2082D02*
X2426Y2082D01*
X0Y2081D02*
X7Y2081D01*
X2419Y2081D02*
X2426Y2081D01*
X0Y2080D02*
X7Y2080D01*
X2419Y2080D02*
X2426Y2080D01*
X0Y2079D02*
X7Y2079D01*
X2419Y2079D02*
X2426Y2079D01*
X0Y2078D02*
X7Y2078D01*
X2419Y2078D02*
X2426Y2078D01*
X0Y2077D02*
X7Y2077D01*
X2419Y2077D02*
X2426Y2077D01*
X0Y2076D02*
X7Y2076D01*
X2419Y2076D02*
X2426Y2076D01*
X0Y2075D02*
X7Y2075D01*
X2419Y2075D02*
X2426Y2075D01*
X0Y2074D02*
X7Y2074D01*
X2419Y2074D02*
X2426Y2074D01*
X0Y2073D02*
X7Y2073D01*
X2419Y2073D02*
X2426Y2073D01*
X0Y2072D02*
X7Y2072D01*
X2419Y2072D02*
X2426Y2072D01*
X0Y2071D02*
X7Y2071D01*
X2419Y2071D02*
X2426Y2071D01*
X0Y2070D02*
X7Y2070D01*
X2419Y2070D02*
X2426Y2070D01*
X0Y2069D02*
X7Y2069D01*
X2419Y2069D02*
X2426Y2069D01*
X0Y2068D02*
X7Y2068D01*
X2419Y2068D02*
X2426Y2068D01*
X0Y2067D02*
X7Y2067D01*
X2419Y2067D02*
X2426Y2067D01*
X0Y2066D02*
X7Y2066D01*
X2419Y2066D02*
X2426Y2066D01*
X0Y2065D02*
X7Y2065D01*
X2419Y2065D02*
X2426Y2065D01*
X0Y2064D02*
X7Y2064D01*
X2419Y2064D02*
X2426Y2064D01*
X0Y2063D02*
X7Y2063D01*
X2419Y2063D02*
X2426Y2063D01*
X0Y2062D02*
X7Y2062D01*
X2419Y2062D02*
X2426Y2062D01*
X0Y2061D02*
X7Y2061D01*
X2419Y2061D02*
X2426Y2061D01*
X0Y2060D02*
X7Y2060D01*
X2419Y2060D02*
X2426Y2060D01*
X0Y2059D02*
X7Y2059D01*
X2419Y2059D02*
X2426Y2059D01*
X0Y2058D02*
X7Y2058D01*
X2419Y2058D02*
X2426Y2058D01*
X0Y2057D02*
X7Y2057D01*
X2419Y2057D02*
X2426Y2057D01*
X0Y2056D02*
X7Y2056D01*
X2419Y2056D02*
X2426Y2056D01*
X0Y2055D02*
X7Y2055D01*
X2419Y2055D02*
X2426Y2055D01*
X0Y2054D02*
X7Y2054D01*
X2419Y2054D02*
X2426Y2054D01*
X0Y2053D02*
X7Y2053D01*
X2419Y2053D02*
X2426Y2053D01*
X0Y2052D02*
X7Y2052D01*
X2419Y2052D02*
X2426Y2052D01*
X0Y2051D02*
X7Y2051D01*
X2419Y2051D02*
X2426Y2051D01*
X0Y2050D02*
X7Y2050D01*
X2419Y2050D02*
X2426Y2050D01*
X0Y2049D02*
X7Y2049D01*
X2419Y2049D02*
X2426Y2049D01*
X0Y2048D02*
X7Y2048D01*
X2419Y2048D02*
X2426Y2048D01*
X0Y2047D02*
X7Y2047D01*
X2419Y2047D02*
X2426Y2047D01*
X0Y2046D02*
X7Y2046D01*
X2419Y2046D02*
X2426Y2046D01*
X0Y2045D02*
X7Y2045D01*
X2419Y2045D02*
X2426Y2045D01*
X0Y2044D02*
X7Y2044D01*
X2419Y2044D02*
X2426Y2044D01*
X0Y2043D02*
X7Y2043D01*
X2419Y2043D02*
X2426Y2043D01*
X0Y2042D02*
X7Y2042D01*
X2419Y2042D02*
X2426Y2042D01*
X0Y2041D02*
X7Y2041D01*
X2419Y2041D02*
X2426Y2041D01*
X0Y2040D02*
X7Y2040D01*
X2419Y2040D02*
X2426Y2040D01*
X0Y2039D02*
X7Y2039D01*
X2419Y2039D02*
X2426Y2039D01*
X0Y2038D02*
X7Y2038D01*
X2419Y2038D02*
X2426Y2038D01*
X0Y2037D02*
X7Y2037D01*
X2419Y2037D02*
X2426Y2037D01*
X0Y2036D02*
X7Y2036D01*
X2419Y2036D02*
X2426Y2036D01*
X0Y2035D02*
X7Y2035D01*
X2419Y2035D02*
X2426Y2035D01*
X0Y2034D02*
X7Y2034D01*
X2419Y2034D02*
X2426Y2034D01*
X0Y2033D02*
X7Y2033D01*
X2419Y2033D02*
X2426Y2033D01*
X0Y2032D02*
X7Y2032D01*
X2419Y2032D02*
X2426Y2032D01*
X0Y2031D02*
X7Y2031D01*
X2419Y2031D02*
X2426Y2031D01*
X0Y2030D02*
X7Y2030D01*
X2419Y2030D02*
X2426Y2030D01*
X0Y2029D02*
X7Y2029D01*
X2419Y2029D02*
X2426Y2029D01*
X0Y2028D02*
X7Y2028D01*
X2419Y2028D02*
X2426Y2028D01*
X0Y2027D02*
X7Y2027D01*
X2419Y2027D02*
X2426Y2027D01*
X0Y2026D02*
X7Y2026D01*
X2419Y2026D02*
X2426Y2026D01*
X0Y2025D02*
X7Y2025D01*
X2419Y2025D02*
X2426Y2025D01*
X0Y2024D02*
X7Y2024D01*
X2419Y2024D02*
X2426Y2024D01*
X0Y2023D02*
X7Y2023D01*
X2419Y2023D02*
X2426Y2023D01*
X0Y2022D02*
X7Y2022D01*
X2419Y2022D02*
X2426Y2022D01*
X0Y2021D02*
X7Y2021D01*
X2419Y2021D02*
X2426Y2021D01*
X0Y2020D02*
X7Y2020D01*
X2419Y2020D02*
X2426Y2020D01*
X0Y2019D02*
X7Y2019D01*
X2419Y2019D02*
X2426Y2019D01*
X0Y2018D02*
X7Y2018D01*
X2419Y2018D02*
X2426Y2018D01*
X0Y2017D02*
X7Y2017D01*
X2419Y2017D02*
X2426Y2017D01*
X0Y2016D02*
X7Y2016D01*
X2419Y2016D02*
X2426Y2016D01*
X0Y2015D02*
X7Y2015D01*
X2419Y2015D02*
X2426Y2015D01*
X0Y2014D02*
X7Y2014D01*
X2419Y2014D02*
X2426Y2014D01*
X0Y2013D02*
X7Y2013D01*
X2419Y2013D02*
X2426Y2013D01*
X0Y2012D02*
X7Y2012D01*
X2419Y2012D02*
X2426Y2012D01*
X0Y2011D02*
X7Y2011D01*
X2419Y2011D02*
X2426Y2011D01*
X0Y2010D02*
X7Y2010D01*
X2419Y2010D02*
X2426Y2010D01*
X0Y2009D02*
X7Y2009D01*
X2419Y2009D02*
X2426Y2009D01*
X0Y2008D02*
X7Y2008D01*
X2419Y2008D02*
X2426Y2008D01*
X0Y2007D02*
X7Y2007D01*
X2419Y2007D02*
X2426Y2007D01*
X0Y2006D02*
X7Y2006D01*
X2419Y2006D02*
X2426Y2006D01*
X0Y2005D02*
X7Y2005D01*
X2419Y2005D02*
X2426Y2005D01*
X0Y2004D02*
X7Y2004D01*
X2419Y2004D02*
X2426Y2004D01*
X0Y2003D02*
X7Y2003D01*
X2419Y2003D02*
X2426Y2003D01*
X0Y2002D02*
X7Y2002D01*
X2419Y2002D02*
X2426Y2002D01*
X0Y2001D02*
X7Y2001D01*
X2419Y2001D02*
X2426Y2001D01*
X0Y2000D02*
X7Y2000D01*
X2419Y2000D02*
X2426Y2000D01*
X0Y1999D02*
X7Y1999D01*
X2419Y1999D02*
X2426Y1999D01*
X0Y1998D02*
X7Y1998D01*
X2419Y1998D02*
X2426Y1998D01*
X0Y1997D02*
X7Y1997D01*
X2419Y1997D02*
X2426Y1997D01*
X0Y1996D02*
X7Y1996D01*
X2419Y1996D02*
X2426Y1996D01*
X0Y1995D02*
X7Y1995D01*
X2419Y1995D02*
X2426Y1995D01*
X0Y1994D02*
X7Y1994D01*
X2419Y1994D02*
X2426Y1994D01*
X0Y1993D02*
X7Y1993D01*
X2419Y1993D02*
X2426Y1993D01*
X0Y1992D02*
X7Y1992D01*
X2419Y1992D02*
X2426Y1992D01*
X0Y1991D02*
X7Y1991D01*
X2419Y1991D02*
X2426Y1991D01*
X0Y1990D02*
X7Y1990D01*
X2419Y1990D02*
X2426Y1990D01*
X0Y1989D02*
X7Y1989D01*
X2419Y1989D02*
X2426Y1989D01*
X0Y1988D02*
X7Y1988D01*
X2419Y1988D02*
X2426Y1988D01*
X0Y1987D02*
X7Y1987D01*
X2419Y1987D02*
X2426Y1987D01*
X0Y1986D02*
X7Y1986D01*
X2419Y1986D02*
X2426Y1986D01*
X0Y1985D02*
X7Y1985D01*
X2419Y1985D02*
X2426Y1985D01*
X0Y1984D02*
X7Y1984D01*
X2419Y1984D02*
X2426Y1984D01*
X0Y1983D02*
X7Y1983D01*
X2419Y1983D02*
X2426Y1983D01*
X0Y1982D02*
X7Y1982D01*
X2419Y1982D02*
X2426Y1982D01*
X0Y1981D02*
X7Y1981D01*
X2419Y1981D02*
X2426Y1981D01*
X0Y1980D02*
X7Y1980D01*
X2419Y1980D02*
X2426Y1980D01*
X0Y1979D02*
X7Y1979D01*
X2419Y1979D02*
X2426Y1979D01*
X0Y1978D02*
X7Y1978D01*
X2419Y1978D02*
X2426Y1978D01*
X0Y1977D02*
X7Y1977D01*
X2419Y1977D02*
X2426Y1977D01*
X0Y1976D02*
X7Y1976D01*
X2419Y1976D02*
X2426Y1976D01*
X0Y1975D02*
X7Y1975D01*
X2419Y1975D02*
X2426Y1975D01*
X0Y1974D02*
X7Y1974D01*
X2419Y1974D02*
X2426Y1974D01*
X0Y1973D02*
X7Y1973D01*
X2419Y1973D02*
X2426Y1973D01*
X0Y1972D02*
X7Y1972D01*
X2419Y1972D02*
X2426Y1972D01*
X0Y1971D02*
X7Y1971D01*
X2419Y1971D02*
X2426Y1971D01*
X0Y1970D02*
X7Y1970D01*
X2419Y1970D02*
X2426Y1970D01*
X0Y1969D02*
X7Y1969D01*
X2419Y1969D02*
X2426Y1969D01*
X0Y1968D02*
X7Y1968D01*
X2419Y1968D02*
X2426Y1968D01*
X0Y1967D02*
X7Y1967D01*
X2419Y1967D02*
X2426Y1967D01*
X0Y1966D02*
X7Y1966D01*
X2419Y1966D02*
X2426Y1966D01*
X0Y1965D02*
X7Y1965D01*
X2419Y1965D02*
X2426Y1965D01*
X0Y1964D02*
X7Y1964D01*
X2419Y1964D02*
X2426Y1964D01*
X0Y1963D02*
X7Y1963D01*
X2419Y1963D02*
X2426Y1963D01*
X0Y1962D02*
X7Y1962D01*
X2419Y1962D02*
X2426Y1962D01*
X0Y1961D02*
X7Y1961D01*
X2419Y1961D02*
X2426Y1961D01*
X0Y1960D02*
X7Y1960D01*
X2419Y1960D02*
X2426Y1960D01*
X0Y1959D02*
X7Y1959D01*
X2419Y1959D02*
X2426Y1959D01*
X0Y1958D02*
X7Y1958D01*
X2419Y1958D02*
X2426Y1958D01*
X0Y1957D02*
X7Y1957D01*
X2419Y1957D02*
X2426Y1957D01*
X0Y1956D02*
X7Y1956D01*
X2419Y1956D02*
X2426Y1956D01*
X0Y1955D02*
X7Y1955D01*
X2419Y1955D02*
X2426Y1955D01*
X0Y1954D02*
X7Y1954D01*
X2419Y1954D02*
X2426Y1954D01*
X0Y1953D02*
X7Y1953D01*
X2419Y1953D02*
X2426Y1953D01*
X0Y1952D02*
X7Y1952D01*
X2419Y1952D02*
X2426Y1952D01*
X0Y1951D02*
X7Y1951D01*
X2419Y1951D02*
X2426Y1951D01*
X0Y1950D02*
X7Y1950D01*
X2419Y1950D02*
X2426Y1950D01*
X0Y1949D02*
X7Y1949D01*
X2419Y1949D02*
X2426Y1949D01*
X0Y1948D02*
X7Y1948D01*
X2419Y1948D02*
X2426Y1948D01*
X0Y1947D02*
X7Y1947D01*
X2419Y1947D02*
X2426Y1947D01*
X0Y1946D02*
X7Y1946D01*
X2419Y1946D02*
X2426Y1946D01*
X0Y1945D02*
X7Y1945D01*
X2419Y1945D02*
X2426Y1945D01*
X0Y1944D02*
X7Y1944D01*
X2419Y1944D02*
X2426Y1944D01*
X0Y1943D02*
X7Y1943D01*
X2419Y1943D02*
X2426Y1943D01*
X0Y1942D02*
X7Y1942D01*
X2419Y1942D02*
X2426Y1942D01*
X0Y1941D02*
X7Y1941D01*
X2419Y1941D02*
X2426Y1941D01*
X0Y1940D02*
X7Y1940D01*
X2419Y1940D02*
X2426Y1940D01*
X0Y1939D02*
X7Y1939D01*
X2419Y1939D02*
X2426Y1939D01*
X0Y1938D02*
X7Y1938D01*
X2419Y1938D02*
X2426Y1938D01*
X0Y1937D02*
X7Y1937D01*
X2419Y1937D02*
X2426Y1937D01*
X0Y1936D02*
X7Y1936D01*
X2419Y1936D02*
X2426Y1936D01*
X0Y1935D02*
X7Y1935D01*
X2419Y1935D02*
X2426Y1935D01*
X0Y1934D02*
X7Y1934D01*
X2419Y1934D02*
X2426Y1934D01*
X0Y1933D02*
X7Y1933D01*
X2419Y1933D02*
X2426Y1933D01*
X0Y1932D02*
X7Y1932D01*
X2419Y1932D02*
X2426Y1932D01*
X0Y1931D02*
X7Y1931D01*
X2419Y1931D02*
X2426Y1931D01*
X0Y1930D02*
X7Y1930D01*
X2419Y1930D02*
X2426Y1930D01*
X0Y1929D02*
X7Y1929D01*
X2419Y1929D02*
X2426Y1929D01*
X0Y1928D02*
X7Y1928D01*
X2419Y1928D02*
X2426Y1928D01*
X0Y1927D02*
X7Y1927D01*
X2419Y1927D02*
X2426Y1927D01*
X0Y1926D02*
X7Y1926D01*
X2419Y1926D02*
X2426Y1926D01*
X0Y1925D02*
X7Y1925D01*
X2419Y1925D02*
X2426Y1925D01*
X0Y1924D02*
X7Y1924D01*
X2419Y1924D02*
X2426Y1924D01*
X0Y1923D02*
X7Y1923D01*
X2419Y1923D02*
X2426Y1923D01*
X0Y1922D02*
X7Y1922D01*
X2419Y1922D02*
X2426Y1922D01*
X0Y1921D02*
X7Y1921D01*
X2419Y1921D02*
X2426Y1921D01*
X0Y1920D02*
X7Y1920D01*
X2419Y1920D02*
X2426Y1920D01*
X0Y1919D02*
X7Y1919D01*
X2419Y1919D02*
X2426Y1919D01*
X0Y1918D02*
X7Y1918D01*
X2419Y1918D02*
X2426Y1918D01*
X0Y1917D02*
X7Y1917D01*
X2419Y1917D02*
X2426Y1917D01*
X0Y1916D02*
X7Y1916D01*
X2419Y1916D02*
X2426Y1916D01*
X0Y1915D02*
X7Y1915D01*
X2419Y1915D02*
X2426Y1915D01*
X0Y1914D02*
X7Y1914D01*
X2419Y1914D02*
X2426Y1914D01*
X0Y1913D02*
X7Y1913D01*
X2419Y1913D02*
X2426Y1913D01*
X0Y1912D02*
X7Y1912D01*
X2419Y1912D02*
X2426Y1912D01*
X0Y1911D02*
X7Y1911D01*
X2419Y1911D02*
X2426Y1911D01*
X0Y1910D02*
X7Y1910D01*
X2419Y1910D02*
X2426Y1910D01*
X0Y1909D02*
X7Y1909D01*
X2419Y1909D02*
X2426Y1909D01*
X0Y1908D02*
X7Y1908D01*
X2419Y1908D02*
X2426Y1908D01*
X0Y1907D02*
X7Y1907D01*
X2419Y1907D02*
X2426Y1907D01*
X0Y1906D02*
X7Y1906D01*
X2419Y1906D02*
X2426Y1906D01*
X0Y1905D02*
X7Y1905D01*
X2419Y1905D02*
X2426Y1905D01*
X0Y1904D02*
X7Y1904D01*
X2419Y1904D02*
X2426Y1904D01*
X0Y1903D02*
X7Y1903D01*
X2419Y1903D02*
X2426Y1903D01*
X0Y1902D02*
X7Y1902D01*
X2419Y1902D02*
X2426Y1902D01*
X0Y1901D02*
X7Y1901D01*
X2419Y1901D02*
X2426Y1901D01*
X0Y1900D02*
X7Y1900D01*
X2419Y1900D02*
X2426Y1900D01*
X0Y1899D02*
X7Y1899D01*
X2419Y1899D02*
X2426Y1899D01*
X0Y1898D02*
X7Y1898D01*
X2419Y1898D02*
X2426Y1898D01*
X0Y1897D02*
X7Y1897D01*
X2419Y1897D02*
X2426Y1897D01*
X0Y1896D02*
X7Y1896D01*
X2419Y1896D02*
X2426Y1896D01*
X0Y1895D02*
X7Y1895D01*
X2419Y1895D02*
X2426Y1895D01*
X0Y1894D02*
X7Y1894D01*
X2419Y1894D02*
X2426Y1894D01*
X0Y1893D02*
X7Y1893D01*
X2419Y1893D02*
X2426Y1893D01*
X0Y1892D02*
X7Y1892D01*
X2419Y1892D02*
X2426Y1892D01*
X0Y1891D02*
X7Y1891D01*
X2419Y1891D02*
X2426Y1891D01*
X0Y1890D02*
X7Y1890D01*
X2419Y1890D02*
X2426Y1890D01*
X0Y1889D02*
X7Y1889D01*
X2419Y1889D02*
X2426Y1889D01*
X0Y1888D02*
X7Y1888D01*
X2419Y1888D02*
X2426Y1888D01*
X0Y1887D02*
X7Y1887D01*
X2419Y1887D02*
X2426Y1887D01*
X0Y1886D02*
X7Y1886D01*
X2419Y1886D02*
X2426Y1886D01*
X0Y1885D02*
X7Y1885D01*
X2419Y1885D02*
X2426Y1885D01*
X0Y1884D02*
X7Y1884D01*
X2419Y1884D02*
X2426Y1884D01*
X0Y1883D02*
X7Y1883D01*
X2419Y1883D02*
X2426Y1883D01*
X0Y1882D02*
X7Y1882D01*
X2419Y1882D02*
X2426Y1882D01*
X0Y1881D02*
X7Y1881D01*
X2419Y1881D02*
X2426Y1881D01*
X0Y1880D02*
X7Y1880D01*
X2419Y1880D02*
X2426Y1880D01*
X0Y1879D02*
X7Y1879D01*
X2419Y1879D02*
X2426Y1879D01*
X0Y1878D02*
X7Y1878D01*
X2419Y1878D02*
X2426Y1878D01*
X0Y1877D02*
X7Y1877D01*
X2419Y1877D02*
X2426Y1877D01*
X0Y1876D02*
X7Y1876D01*
X2419Y1876D02*
X2426Y1876D01*
X0Y1875D02*
X7Y1875D01*
X2419Y1875D02*
X2426Y1875D01*
X0Y1874D02*
X7Y1874D01*
X2419Y1874D02*
X2426Y1874D01*
X0Y1873D02*
X7Y1873D01*
X2419Y1873D02*
X2426Y1873D01*
X0Y1872D02*
X7Y1872D01*
X2419Y1872D02*
X2426Y1872D01*
X0Y1871D02*
X7Y1871D01*
X2419Y1871D02*
X2426Y1871D01*
X0Y1870D02*
X7Y1870D01*
X2419Y1870D02*
X2426Y1870D01*
X0Y1869D02*
X7Y1869D01*
X2419Y1869D02*
X2426Y1869D01*
X0Y1868D02*
X7Y1868D01*
X2419Y1868D02*
X2426Y1868D01*
X0Y1867D02*
X7Y1867D01*
X2419Y1867D02*
X2426Y1867D01*
X0Y1866D02*
X7Y1866D01*
X2419Y1866D02*
X2426Y1866D01*
X0Y1865D02*
X7Y1865D01*
X2419Y1865D02*
X2426Y1865D01*
X0Y1864D02*
X7Y1864D01*
X2419Y1864D02*
X2426Y1864D01*
X0Y1863D02*
X7Y1863D01*
X2419Y1863D02*
X2426Y1863D01*
X0Y1862D02*
X7Y1862D01*
X2419Y1862D02*
X2426Y1862D01*
X0Y1861D02*
X7Y1861D01*
X2419Y1861D02*
X2426Y1861D01*
X0Y1860D02*
X7Y1860D01*
X2419Y1860D02*
X2426Y1860D01*
X0Y1859D02*
X7Y1859D01*
X2419Y1859D02*
X2426Y1859D01*
X0Y1858D02*
X7Y1858D01*
X2419Y1858D02*
X2426Y1858D01*
X0Y1857D02*
X7Y1857D01*
X2419Y1857D02*
X2426Y1857D01*
X0Y1856D02*
X7Y1856D01*
X2419Y1856D02*
X2426Y1856D01*
X0Y1855D02*
X7Y1855D01*
X2419Y1855D02*
X2426Y1855D01*
X0Y1854D02*
X7Y1854D01*
X2419Y1854D02*
X2426Y1854D01*
X0Y1853D02*
X7Y1853D01*
X2419Y1853D02*
X2426Y1853D01*
X0Y1852D02*
X7Y1852D01*
X2419Y1852D02*
X2426Y1852D01*
X0Y1851D02*
X7Y1851D01*
X2419Y1851D02*
X2426Y1851D01*
X0Y1850D02*
X7Y1850D01*
X2419Y1850D02*
X2426Y1850D01*
X0Y1849D02*
X7Y1849D01*
X2419Y1849D02*
X2426Y1849D01*
X0Y1848D02*
X7Y1848D01*
X2419Y1848D02*
X2426Y1848D01*
X0Y1847D02*
X7Y1847D01*
X2419Y1847D02*
X2426Y1847D01*
X0Y1846D02*
X7Y1846D01*
X2419Y1846D02*
X2426Y1846D01*
X0Y1845D02*
X7Y1845D01*
X2419Y1845D02*
X2426Y1845D01*
X0Y1844D02*
X7Y1844D01*
X2419Y1844D02*
X2426Y1844D01*
X0Y1843D02*
X7Y1843D01*
X2419Y1843D02*
X2426Y1843D01*
X0Y1842D02*
X7Y1842D01*
X2419Y1842D02*
X2426Y1842D01*
X0Y1841D02*
X7Y1841D01*
X2419Y1841D02*
X2426Y1841D01*
X0Y1840D02*
X7Y1840D01*
X2419Y1840D02*
X2426Y1840D01*
X0Y1839D02*
X7Y1839D01*
X2419Y1839D02*
X2426Y1839D01*
X0Y1838D02*
X7Y1838D01*
X2419Y1838D02*
X2426Y1838D01*
X0Y1837D02*
X7Y1837D01*
X2419Y1837D02*
X2426Y1837D01*
X0Y1836D02*
X7Y1836D01*
X2419Y1836D02*
X2426Y1836D01*
X0Y1835D02*
X7Y1835D01*
X2419Y1835D02*
X2426Y1835D01*
X0Y1834D02*
X7Y1834D01*
X2419Y1834D02*
X2426Y1834D01*
X0Y1833D02*
X7Y1833D01*
X2419Y1833D02*
X2426Y1833D01*
X0Y1832D02*
X7Y1832D01*
X2419Y1832D02*
X2426Y1832D01*
X0Y1831D02*
X7Y1831D01*
X2419Y1831D02*
X2426Y1831D01*
X0Y1830D02*
X7Y1830D01*
X2419Y1830D02*
X2426Y1830D01*
X0Y1829D02*
X7Y1829D01*
X2419Y1829D02*
X2426Y1829D01*
X0Y1828D02*
X7Y1828D01*
X2419Y1828D02*
X2426Y1828D01*
X0Y1827D02*
X7Y1827D01*
X2419Y1827D02*
X2426Y1827D01*
X0Y1826D02*
X7Y1826D01*
X2419Y1826D02*
X2426Y1826D01*
X0Y1825D02*
X7Y1825D01*
X2419Y1825D02*
X2426Y1825D01*
X0Y1824D02*
X7Y1824D01*
X2419Y1824D02*
X2426Y1824D01*
X0Y1823D02*
X7Y1823D01*
X2419Y1823D02*
X2426Y1823D01*
X0Y1822D02*
X7Y1822D01*
X2419Y1822D02*
X2426Y1822D01*
X0Y1821D02*
X7Y1821D01*
X2419Y1821D02*
X2426Y1821D01*
X0Y1820D02*
X7Y1820D01*
X2419Y1820D02*
X2426Y1820D01*
X0Y1819D02*
X7Y1819D01*
X2419Y1819D02*
X2426Y1819D01*
X0Y1818D02*
X7Y1818D01*
X2419Y1818D02*
X2426Y1818D01*
X0Y1817D02*
X7Y1817D01*
X2419Y1817D02*
X2426Y1817D01*
X0Y1816D02*
X7Y1816D01*
X2419Y1816D02*
X2426Y1816D01*
X0Y1815D02*
X7Y1815D01*
X2419Y1815D02*
X2426Y1815D01*
X0Y1814D02*
X7Y1814D01*
X2419Y1814D02*
X2426Y1814D01*
X0Y1813D02*
X7Y1813D01*
X2419Y1813D02*
X2426Y1813D01*
X0Y1812D02*
X7Y1812D01*
X2419Y1812D02*
X2426Y1812D01*
X0Y1811D02*
X7Y1811D01*
X2419Y1811D02*
X2426Y1811D01*
X0Y1810D02*
X7Y1810D01*
X2419Y1810D02*
X2426Y1810D01*
X0Y1809D02*
X7Y1809D01*
X2419Y1809D02*
X2426Y1809D01*
X0Y1808D02*
X7Y1808D01*
X2419Y1808D02*
X2426Y1808D01*
X0Y1807D02*
X7Y1807D01*
X2419Y1807D02*
X2426Y1807D01*
X0Y1806D02*
X7Y1806D01*
X2419Y1806D02*
X2426Y1806D01*
X0Y1805D02*
X7Y1805D01*
X2419Y1805D02*
X2426Y1805D01*
X0Y1804D02*
X7Y1804D01*
X2419Y1804D02*
X2426Y1804D01*
X0Y1803D02*
X7Y1803D01*
X2419Y1803D02*
X2426Y1803D01*
X0Y1802D02*
X7Y1802D01*
X2419Y1802D02*
X2426Y1802D01*
X0Y1801D02*
X7Y1801D01*
X2419Y1801D02*
X2426Y1801D01*
X0Y1800D02*
X7Y1800D01*
X2419Y1800D02*
X2426Y1800D01*
X0Y1799D02*
X7Y1799D01*
X2419Y1799D02*
X2426Y1799D01*
X0Y1798D02*
X7Y1798D01*
X2419Y1798D02*
X2426Y1798D01*
X0Y1797D02*
X7Y1797D01*
X2419Y1797D02*
X2426Y1797D01*
X0Y1796D02*
X7Y1796D01*
X2419Y1796D02*
X2426Y1796D01*
X0Y1795D02*
X7Y1795D01*
X2419Y1795D02*
X2426Y1795D01*
X0Y1794D02*
X7Y1794D01*
X2419Y1794D02*
X2426Y1794D01*
X0Y1793D02*
X7Y1793D01*
X2419Y1793D02*
X2426Y1793D01*
X0Y1792D02*
X7Y1792D01*
X2419Y1792D02*
X2426Y1792D01*
X0Y1791D02*
X7Y1791D01*
X2419Y1791D02*
X2426Y1791D01*
X0Y1790D02*
X7Y1790D01*
X2419Y1790D02*
X2426Y1790D01*
X0Y1789D02*
X7Y1789D01*
X2419Y1789D02*
X2426Y1789D01*
X0Y1788D02*
X7Y1788D01*
X2419Y1788D02*
X2426Y1788D01*
X0Y1787D02*
X7Y1787D01*
X2419Y1787D02*
X2426Y1787D01*
X0Y1786D02*
X7Y1786D01*
X2419Y1786D02*
X2426Y1786D01*
X0Y1785D02*
X7Y1785D01*
X2419Y1785D02*
X2426Y1785D01*
X0Y1784D02*
X7Y1784D01*
X2419Y1784D02*
X2426Y1784D01*
X0Y1783D02*
X7Y1783D01*
X2419Y1783D02*
X2426Y1783D01*
X0Y1782D02*
X7Y1782D01*
X2419Y1782D02*
X2426Y1782D01*
X0Y1781D02*
X7Y1781D01*
X2419Y1781D02*
X2426Y1781D01*
X0Y1780D02*
X7Y1780D01*
X2419Y1780D02*
X2426Y1780D01*
X0Y1779D02*
X7Y1779D01*
X2419Y1779D02*
X2426Y1779D01*
X0Y1778D02*
X7Y1778D01*
X2419Y1778D02*
X2426Y1778D01*
X0Y1777D02*
X7Y1777D01*
X2419Y1777D02*
X2426Y1777D01*
X0Y1776D02*
X7Y1776D01*
X2419Y1776D02*
X2426Y1776D01*
X0Y1775D02*
X7Y1775D01*
X2419Y1775D02*
X2426Y1775D01*
X0Y1774D02*
X7Y1774D01*
X2419Y1774D02*
X2426Y1774D01*
X0Y1773D02*
X7Y1773D01*
X2419Y1773D02*
X2426Y1773D01*
X0Y1772D02*
X7Y1772D01*
X2419Y1772D02*
X2426Y1772D01*
X0Y1771D02*
X7Y1771D01*
X2419Y1771D02*
X2426Y1771D01*
X0Y1770D02*
X7Y1770D01*
X2419Y1770D02*
X2426Y1770D01*
X0Y1769D02*
X7Y1769D01*
X2419Y1769D02*
X2426Y1769D01*
X0Y1768D02*
X7Y1768D01*
X2419Y1768D02*
X2426Y1768D01*
X0Y1767D02*
X7Y1767D01*
X2419Y1767D02*
X2426Y1767D01*
X0Y1766D02*
X7Y1766D01*
X2419Y1766D02*
X2426Y1766D01*
X0Y1765D02*
X7Y1765D01*
X2419Y1765D02*
X2426Y1765D01*
X0Y1764D02*
X7Y1764D01*
X2419Y1764D02*
X2426Y1764D01*
X0Y1763D02*
X7Y1763D01*
X2419Y1763D02*
X2426Y1763D01*
X0Y1762D02*
X7Y1762D01*
X2419Y1762D02*
X2426Y1762D01*
X0Y1761D02*
X7Y1761D01*
X2419Y1761D02*
X2426Y1761D01*
X0Y1760D02*
X7Y1760D01*
X2419Y1760D02*
X2426Y1760D01*
X0Y1759D02*
X7Y1759D01*
X2419Y1759D02*
X2426Y1759D01*
X0Y1758D02*
X7Y1758D01*
X2419Y1758D02*
X2426Y1758D01*
X0Y1757D02*
X7Y1757D01*
X2419Y1757D02*
X2426Y1757D01*
X0Y1756D02*
X7Y1756D01*
X2419Y1756D02*
X2426Y1756D01*
X0Y1755D02*
X7Y1755D01*
X2419Y1755D02*
X2426Y1755D01*
X0Y1754D02*
X7Y1754D01*
X2419Y1754D02*
X2426Y1754D01*
X0Y1753D02*
X7Y1753D01*
X2419Y1753D02*
X2426Y1753D01*
X0Y1752D02*
X7Y1752D01*
X2419Y1752D02*
X2426Y1752D01*
X0Y1751D02*
X7Y1751D01*
X2419Y1751D02*
X2426Y1751D01*
X0Y1750D02*
X7Y1750D01*
X2419Y1750D02*
X2426Y1750D01*
X0Y1749D02*
X7Y1749D01*
X2419Y1749D02*
X2426Y1749D01*
X0Y1748D02*
X7Y1748D01*
X2419Y1748D02*
X2426Y1748D01*
X0Y1747D02*
X7Y1747D01*
X2419Y1747D02*
X2426Y1747D01*
X0Y1746D02*
X7Y1746D01*
X2419Y1746D02*
X2426Y1746D01*
X0Y1745D02*
X7Y1745D01*
X2419Y1745D02*
X2426Y1745D01*
X0Y1744D02*
X7Y1744D01*
X2419Y1744D02*
X2426Y1744D01*
X0Y1743D02*
X7Y1743D01*
X2419Y1743D02*
X2426Y1743D01*
X0Y1742D02*
X7Y1742D01*
X2419Y1742D02*
X2426Y1742D01*
X0Y1741D02*
X7Y1741D01*
X2419Y1741D02*
X2426Y1741D01*
X0Y1740D02*
X7Y1740D01*
X2419Y1740D02*
X2426Y1740D01*
X0Y1739D02*
X7Y1739D01*
X2419Y1739D02*
X2426Y1739D01*
X0Y1738D02*
X7Y1738D01*
X2419Y1738D02*
X2426Y1738D01*
X0Y1737D02*
X7Y1737D01*
X2419Y1737D02*
X2426Y1737D01*
X0Y1736D02*
X7Y1736D01*
X2419Y1736D02*
X2426Y1736D01*
X0Y1735D02*
X7Y1735D01*
X2419Y1735D02*
X2426Y1735D01*
X0Y1734D02*
X7Y1734D01*
X2419Y1734D02*
X2426Y1734D01*
X0Y1733D02*
X7Y1733D01*
X2419Y1733D02*
X2426Y1733D01*
X0Y1732D02*
X7Y1732D01*
X2419Y1732D02*
X2426Y1732D01*
X0Y1731D02*
X7Y1731D01*
X2419Y1731D02*
X2426Y1731D01*
X0Y1730D02*
X7Y1730D01*
X2419Y1730D02*
X2426Y1730D01*
X0Y1729D02*
X7Y1729D01*
X2419Y1729D02*
X2426Y1729D01*
X0Y1728D02*
X7Y1728D01*
X2419Y1728D02*
X2426Y1728D01*
X0Y1727D02*
X7Y1727D01*
X2419Y1727D02*
X2426Y1727D01*
X0Y1726D02*
X7Y1726D01*
X2419Y1726D02*
X2426Y1726D01*
X0Y1725D02*
X7Y1725D01*
X2419Y1725D02*
X2426Y1725D01*
X0Y1724D02*
X7Y1724D01*
X2419Y1724D02*
X2426Y1724D01*
X0Y1723D02*
X7Y1723D01*
X2419Y1723D02*
X2426Y1723D01*
X0Y1722D02*
X7Y1722D01*
X2419Y1722D02*
X2426Y1722D01*
X0Y1721D02*
X7Y1721D01*
X2419Y1721D02*
X2426Y1721D01*
X0Y1720D02*
X7Y1720D01*
X2419Y1720D02*
X2426Y1720D01*
X0Y1719D02*
X7Y1719D01*
X2419Y1719D02*
X2426Y1719D01*
X0Y1718D02*
X7Y1718D01*
X2419Y1718D02*
X2426Y1718D01*
X0Y1717D02*
X7Y1717D01*
X2419Y1717D02*
X2426Y1717D01*
X0Y1716D02*
X7Y1716D01*
X2419Y1716D02*
X2426Y1716D01*
X0Y1715D02*
X7Y1715D01*
X2419Y1715D02*
X2426Y1715D01*
X0Y1714D02*
X7Y1714D01*
X2419Y1714D02*
X2426Y1714D01*
X0Y1713D02*
X7Y1713D01*
X2419Y1713D02*
X2426Y1713D01*
X0Y1712D02*
X7Y1712D01*
X2419Y1712D02*
X2426Y1712D01*
X0Y1711D02*
X7Y1711D01*
X2419Y1711D02*
X2426Y1711D01*
X0Y1710D02*
X7Y1710D01*
X2419Y1710D02*
X2426Y1710D01*
X0Y1709D02*
X7Y1709D01*
X2419Y1709D02*
X2426Y1709D01*
X0Y1708D02*
X7Y1708D01*
X2419Y1708D02*
X2426Y1708D01*
X0Y1707D02*
X7Y1707D01*
X2419Y1707D02*
X2426Y1707D01*
X0Y1706D02*
X7Y1706D01*
X2419Y1706D02*
X2426Y1706D01*
X0Y1705D02*
X7Y1705D01*
X2419Y1705D02*
X2426Y1705D01*
X0Y1704D02*
X7Y1704D01*
X2419Y1704D02*
X2426Y1704D01*
X0Y1703D02*
X7Y1703D01*
X2419Y1703D02*
X2426Y1703D01*
X0Y1702D02*
X7Y1702D01*
X2419Y1702D02*
X2426Y1702D01*
X0Y1701D02*
X7Y1701D01*
X2419Y1701D02*
X2426Y1701D01*
X0Y1700D02*
X7Y1700D01*
X2419Y1700D02*
X2426Y1700D01*
X0Y1699D02*
X7Y1699D01*
X2419Y1699D02*
X2426Y1699D01*
X0Y1698D02*
X7Y1698D01*
X2419Y1698D02*
X2426Y1698D01*
X0Y1697D02*
X7Y1697D01*
X2419Y1697D02*
X2426Y1697D01*
X0Y1696D02*
X7Y1696D01*
X2419Y1696D02*
X2426Y1696D01*
X0Y1695D02*
X7Y1695D01*
X2419Y1695D02*
X2426Y1695D01*
X0Y1694D02*
X7Y1694D01*
X2419Y1694D02*
X2426Y1694D01*
X0Y1693D02*
X7Y1693D01*
X2419Y1693D02*
X2426Y1693D01*
X0Y1692D02*
X7Y1692D01*
X2419Y1692D02*
X2426Y1692D01*
X0Y1691D02*
X7Y1691D01*
X2419Y1691D02*
X2426Y1691D01*
X0Y1690D02*
X7Y1690D01*
X2419Y1690D02*
X2426Y1690D01*
X0Y1689D02*
X7Y1689D01*
X2419Y1689D02*
X2426Y1689D01*
X0Y1688D02*
X7Y1688D01*
X2419Y1688D02*
X2426Y1688D01*
X0Y1687D02*
X7Y1687D01*
X2419Y1687D02*
X2426Y1687D01*
X0Y1686D02*
X7Y1686D01*
X2419Y1686D02*
X2426Y1686D01*
X0Y1685D02*
X7Y1685D01*
X2419Y1685D02*
X2426Y1685D01*
X0Y1684D02*
X7Y1684D01*
X2419Y1684D02*
X2426Y1684D01*
X0Y1683D02*
X7Y1683D01*
X2419Y1683D02*
X2426Y1683D01*
X0Y1682D02*
X7Y1682D01*
X2419Y1682D02*
X2426Y1682D01*
X0Y1681D02*
X7Y1681D01*
X2419Y1681D02*
X2426Y1681D01*
X0Y1680D02*
X7Y1680D01*
X2419Y1680D02*
X2426Y1680D01*
X0Y1679D02*
X7Y1679D01*
X2419Y1679D02*
X2426Y1679D01*
X0Y1678D02*
X7Y1678D01*
X2419Y1678D02*
X2426Y1678D01*
X0Y1677D02*
X7Y1677D01*
X2419Y1677D02*
X2426Y1677D01*
X0Y1676D02*
X7Y1676D01*
X2419Y1676D02*
X2426Y1676D01*
X0Y1675D02*
X7Y1675D01*
X2419Y1675D02*
X2426Y1675D01*
X0Y1674D02*
X7Y1674D01*
X2419Y1674D02*
X2426Y1674D01*
X0Y1673D02*
X7Y1673D01*
X2419Y1673D02*
X2426Y1673D01*
X0Y1672D02*
X7Y1672D01*
X2419Y1672D02*
X2426Y1672D01*
X0Y1671D02*
X7Y1671D01*
X2419Y1671D02*
X2426Y1671D01*
X0Y1670D02*
X7Y1670D01*
X2419Y1670D02*
X2426Y1670D01*
X0Y1669D02*
X7Y1669D01*
X2419Y1669D02*
X2426Y1669D01*
X0Y1668D02*
X7Y1668D01*
X2419Y1668D02*
X2426Y1668D01*
X0Y1667D02*
X7Y1667D01*
X2419Y1667D02*
X2426Y1667D01*
X0Y1666D02*
X7Y1666D01*
X2419Y1666D02*
X2426Y1666D01*
X0Y1665D02*
X7Y1665D01*
X2419Y1665D02*
X2426Y1665D01*
X0Y1664D02*
X7Y1664D01*
X2419Y1664D02*
X2426Y1664D01*
X0Y1663D02*
X7Y1663D01*
X2419Y1663D02*
X2426Y1663D01*
X0Y1662D02*
X7Y1662D01*
X2419Y1662D02*
X2426Y1662D01*
X0Y1661D02*
X7Y1661D01*
X2419Y1661D02*
X2426Y1661D01*
X0Y1660D02*
X7Y1660D01*
X2419Y1660D02*
X2426Y1660D01*
X0Y1659D02*
X7Y1659D01*
X2419Y1659D02*
X2426Y1659D01*
X0Y1658D02*
X7Y1658D01*
X2419Y1658D02*
X2426Y1658D01*
X0Y1657D02*
X7Y1657D01*
X2419Y1657D02*
X2426Y1657D01*
X0Y1656D02*
X7Y1656D01*
X2419Y1656D02*
X2426Y1656D01*
X0Y1655D02*
X7Y1655D01*
X2419Y1655D02*
X2426Y1655D01*
X0Y1654D02*
X7Y1654D01*
X2419Y1654D02*
X2426Y1654D01*
X0Y1653D02*
X7Y1653D01*
X2419Y1653D02*
X2426Y1653D01*
X0Y1652D02*
X7Y1652D01*
X2419Y1652D02*
X2426Y1652D01*
X0Y1651D02*
X7Y1651D01*
X2419Y1651D02*
X2426Y1651D01*
X0Y1650D02*
X7Y1650D01*
X2419Y1650D02*
X2426Y1650D01*
X0Y1649D02*
X7Y1649D01*
X2419Y1649D02*
X2426Y1649D01*
X0Y1648D02*
X7Y1648D01*
X2419Y1648D02*
X2426Y1648D01*
X0Y1647D02*
X7Y1647D01*
X2419Y1647D02*
X2426Y1647D01*
X0Y1646D02*
X7Y1646D01*
X2419Y1646D02*
X2426Y1646D01*
X0Y1645D02*
X7Y1645D01*
X2419Y1645D02*
X2426Y1645D01*
X0Y1644D02*
X7Y1644D01*
X2419Y1644D02*
X2426Y1644D01*
X0Y1643D02*
X7Y1643D01*
X2419Y1643D02*
X2426Y1643D01*
X0Y1642D02*
X7Y1642D01*
X2419Y1642D02*
X2426Y1642D01*
X0Y1641D02*
X7Y1641D01*
X2419Y1641D02*
X2426Y1641D01*
X0Y1640D02*
X7Y1640D01*
X2419Y1640D02*
X2426Y1640D01*
X0Y1639D02*
X7Y1639D01*
X2419Y1639D02*
X2426Y1639D01*
X0Y1638D02*
X7Y1638D01*
X2419Y1638D02*
X2426Y1638D01*
X0Y1637D02*
X7Y1637D01*
X2419Y1637D02*
X2426Y1637D01*
X0Y1636D02*
X7Y1636D01*
X2419Y1636D02*
X2426Y1636D01*
X0Y1635D02*
X7Y1635D01*
X2419Y1635D02*
X2426Y1635D01*
X0Y1634D02*
X7Y1634D01*
X2419Y1634D02*
X2426Y1634D01*
X0Y1633D02*
X7Y1633D01*
X2419Y1633D02*
X2426Y1633D01*
X0Y1632D02*
X7Y1632D01*
X2419Y1632D02*
X2426Y1632D01*
X0Y1631D02*
X7Y1631D01*
X2419Y1631D02*
X2426Y1631D01*
X0Y1630D02*
X7Y1630D01*
X2419Y1630D02*
X2426Y1630D01*
X0Y1629D02*
X7Y1629D01*
X2419Y1629D02*
X2426Y1629D01*
X0Y1628D02*
X7Y1628D01*
X2419Y1628D02*
X2426Y1628D01*
X0Y1627D02*
X7Y1627D01*
X2419Y1627D02*
X2426Y1627D01*
X0Y1626D02*
X7Y1626D01*
X2419Y1626D02*
X2426Y1626D01*
X0Y1625D02*
X7Y1625D01*
X2419Y1625D02*
X2426Y1625D01*
X0Y1624D02*
X7Y1624D01*
X2419Y1624D02*
X2426Y1624D01*
X0Y1623D02*
X7Y1623D01*
X2419Y1623D02*
X2426Y1623D01*
X0Y1622D02*
X7Y1622D01*
X2419Y1622D02*
X2426Y1622D01*
X0Y1621D02*
X7Y1621D01*
X2419Y1621D02*
X2426Y1621D01*
X0Y1620D02*
X7Y1620D01*
X2419Y1620D02*
X2426Y1620D01*
X0Y1619D02*
X7Y1619D01*
X2419Y1619D02*
X2426Y1619D01*
X0Y1618D02*
X7Y1618D01*
X2419Y1618D02*
X2426Y1618D01*
X0Y1617D02*
X7Y1617D01*
X2419Y1617D02*
X2426Y1617D01*
X0Y1616D02*
X7Y1616D01*
X2419Y1616D02*
X2426Y1616D01*
X0Y1615D02*
X7Y1615D01*
X2419Y1615D02*
X2426Y1615D01*
X0Y1614D02*
X7Y1614D01*
X2419Y1614D02*
X2426Y1614D01*
X0Y1613D02*
X7Y1613D01*
X2419Y1613D02*
X2426Y1613D01*
X0Y1612D02*
X7Y1612D01*
X2419Y1612D02*
X2426Y1612D01*
X0Y1611D02*
X7Y1611D01*
X2419Y1611D02*
X2426Y1611D01*
X0Y1610D02*
X7Y1610D01*
X2419Y1610D02*
X2426Y1610D01*
X0Y1609D02*
X7Y1609D01*
X2419Y1609D02*
X2426Y1609D01*
X0Y1608D02*
X7Y1608D01*
X2419Y1608D02*
X2426Y1608D01*
X0Y1607D02*
X7Y1607D01*
X2419Y1607D02*
X2426Y1607D01*
X0Y1606D02*
X7Y1606D01*
X2419Y1606D02*
X2426Y1606D01*
X0Y1605D02*
X7Y1605D01*
X2419Y1605D02*
X2426Y1605D01*
X0Y1604D02*
X7Y1604D01*
X2419Y1604D02*
X2426Y1604D01*
X0Y1603D02*
X7Y1603D01*
X2419Y1603D02*
X2426Y1603D01*
X0Y1602D02*
X7Y1602D01*
X2419Y1602D02*
X2426Y1602D01*
X0Y1601D02*
X7Y1601D01*
X2419Y1601D02*
X2426Y1601D01*
X0Y1600D02*
X7Y1600D01*
X2419Y1600D02*
X2426Y1600D01*
X0Y1599D02*
X7Y1599D01*
X2419Y1599D02*
X2426Y1599D01*
X0Y1598D02*
X7Y1598D01*
X2419Y1598D02*
X2426Y1598D01*
X0Y1597D02*
X7Y1597D01*
X2419Y1597D02*
X2426Y1597D01*
X0Y1596D02*
X7Y1596D01*
X2419Y1596D02*
X2426Y1596D01*
X0Y1595D02*
X7Y1595D01*
X2419Y1595D02*
X2426Y1595D01*
X0Y1594D02*
X7Y1594D01*
X2419Y1594D02*
X2426Y1594D01*
X0Y1593D02*
X7Y1593D01*
X2419Y1593D02*
X2426Y1593D01*
X0Y1592D02*
X7Y1592D01*
X2419Y1592D02*
X2426Y1592D01*
X0Y1591D02*
X7Y1591D01*
X2419Y1591D02*
X2426Y1591D01*
X0Y1590D02*
X7Y1590D01*
X2419Y1590D02*
X2426Y1590D01*
X0Y1589D02*
X7Y1589D01*
X2419Y1589D02*
X2426Y1589D01*
X0Y1588D02*
X7Y1588D01*
X2419Y1588D02*
X2426Y1588D01*
X0Y1587D02*
X7Y1587D01*
X2419Y1587D02*
X2426Y1587D01*
X0Y1586D02*
X7Y1586D01*
X2419Y1586D02*
X2426Y1586D01*
X0Y1585D02*
X7Y1585D01*
X2419Y1585D02*
X2426Y1585D01*
X0Y1584D02*
X7Y1584D01*
X2419Y1584D02*
X2426Y1584D01*
X0Y1583D02*
X7Y1583D01*
X2419Y1583D02*
X2426Y1583D01*
X0Y1582D02*
X7Y1582D01*
X2419Y1582D02*
X2426Y1582D01*
X0Y1581D02*
X7Y1581D01*
X2419Y1581D02*
X2426Y1581D01*
X0Y1580D02*
X7Y1580D01*
X2419Y1580D02*
X2426Y1580D01*
X0Y1579D02*
X7Y1579D01*
X2419Y1579D02*
X2426Y1579D01*
X0Y1578D02*
X7Y1578D01*
X2419Y1578D02*
X2426Y1578D01*
X0Y1577D02*
X7Y1577D01*
X2419Y1577D02*
X2426Y1577D01*
X0Y1576D02*
X7Y1576D01*
X2419Y1576D02*
X2426Y1576D01*
X0Y1575D02*
X7Y1575D01*
X2419Y1575D02*
X2426Y1575D01*
X0Y1574D02*
X7Y1574D01*
X2419Y1574D02*
X2426Y1574D01*
X0Y1573D02*
X7Y1573D01*
X2419Y1573D02*
X2426Y1573D01*
X0Y1572D02*
X7Y1572D01*
X2419Y1572D02*
X2426Y1572D01*
X0Y1571D02*
X7Y1571D01*
X2419Y1571D02*
X2426Y1571D01*
X0Y1570D02*
X7Y1570D01*
X2419Y1570D02*
X2426Y1570D01*
X0Y1569D02*
X7Y1569D01*
X2419Y1569D02*
X2426Y1569D01*
X0Y1568D02*
X7Y1568D01*
X2419Y1568D02*
X2426Y1568D01*
X0Y1567D02*
X7Y1567D01*
X2419Y1567D02*
X2426Y1567D01*
X0Y1566D02*
X7Y1566D01*
X2419Y1566D02*
X2426Y1566D01*
X0Y1565D02*
X7Y1565D01*
X2419Y1565D02*
X2426Y1565D01*
X0Y1564D02*
X7Y1564D01*
X2419Y1564D02*
X2426Y1564D01*
X0Y1563D02*
X7Y1563D01*
X2419Y1563D02*
X2426Y1563D01*
X0Y1562D02*
X7Y1562D01*
X2419Y1562D02*
X2426Y1562D01*
X0Y1561D02*
X7Y1561D01*
X2419Y1561D02*
X2426Y1561D01*
X0Y1560D02*
X7Y1560D01*
X2419Y1560D02*
X2426Y1560D01*
X0Y1559D02*
X7Y1559D01*
X2419Y1559D02*
X2426Y1559D01*
X0Y1558D02*
X7Y1558D01*
X2419Y1558D02*
X2426Y1558D01*
X0Y1557D02*
X7Y1557D01*
X2419Y1557D02*
X2426Y1557D01*
X0Y1556D02*
X7Y1556D01*
X2419Y1556D02*
X2426Y1556D01*
X0Y1555D02*
X7Y1555D01*
X2419Y1555D02*
X2426Y1555D01*
X0Y1554D02*
X7Y1554D01*
X2419Y1554D02*
X2426Y1554D01*
X0Y1553D02*
X7Y1553D01*
X2419Y1553D02*
X2426Y1553D01*
X0Y1552D02*
X7Y1552D01*
X2419Y1552D02*
X2426Y1552D01*
X0Y1551D02*
X7Y1551D01*
X2419Y1551D02*
X2426Y1551D01*
X0Y1550D02*
X7Y1550D01*
X2419Y1550D02*
X2426Y1550D01*
X0Y1549D02*
X7Y1549D01*
X2419Y1549D02*
X2426Y1549D01*
X0Y1548D02*
X7Y1548D01*
X2419Y1548D02*
X2426Y1548D01*
X0Y1547D02*
X7Y1547D01*
X2419Y1547D02*
X2426Y1547D01*
X0Y1546D02*
X7Y1546D01*
X2419Y1546D02*
X2426Y1546D01*
X0Y1545D02*
X7Y1545D01*
X2419Y1545D02*
X2426Y1545D01*
X0Y1544D02*
X7Y1544D01*
X2419Y1544D02*
X2426Y1544D01*
X0Y1543D02*
X7Y1543D01*
X2419Y1543D02*
X2426Y1543D01*
X0Y1542D02*
X7Y1542D01*
X2419Y1542D02*
X2426Y1542D01*
X0Y1541D02*
X7Y1541D01*
X2419Y1541D02*
X2426Y1541D01*
X0Y1540D02*
X7Y1540D01*
X2419Y1540D02*
X2426Y1540D01*
X0Y1539D02*
X7Y1539D01*
X2419Y1539D02*
X2426Y1539D01*
X0Y1538D02*
X7Y1538D01*
X2419Y1538D02*
X2426Y1538D01*
X0Y1537D02*
X7Y1537D01*
X2419Y1537D02*
X2426Y1537D01*
X0Y1536D02*
X7Y1536D01*
X2419Y1536D02*
X2426Y1536D01*
X0Y1535D02*
X7Y1535D01*
X2419Y1535D02*
X2426Y1535D01*
X0Y1534D02*
X7Y1534D01*
X2419Y1534D02*
X2426Y1534D01*
X0Y1533D02*
X7Y1533D01*
X2419Y1533D02*
X2426Y1533D01*
X0Y1532D02*
X7Y1532D01*
X2419Y1532D02*
X2426Y1532D01*
X0Y1531D02*
X7Y1531D01*
X2419Y1531D02*
X2426Y1531D01*
X0Y1530D02*
X7Y1530D01*
X2419Y1530D02*
X2426Y1530D01*
X0Y1529D02*
X7Y1529D01*
X2419Y1529D02*
X2426Y1529D01*
X0Y1528D02*
X7Y1528D01*
X2419Y1528D02*
X2426Y1528D01*
X0Y1527D02*
X7Y1527D01*
X2419Y1527D02*
X2426Y1527D01*
X0Y1526D02*
X7Y1526D01*
X2419Y1526D02*
X2426Y1526D01*
X0Y1525D02*
X7Y1525D01*
X2419Y1525D02*
X2426Y1525D01*
X0Y1524D02*
X7Y1524D01*
X2419Y1524D02*
X2426Y1524D01*
X0Y1523D02*
X7Y1523D01*
X2419Y1523D02*
X2426Y1523D01*
X0Y1522D02*
X7Y1522D01*
X2419Y1522D02*
X2426Y1522D01*
X0Y1521D02*
X7Y1521D01*
X2419Y1521D02*
X2426Y1521D01*
X0Y1520D02*
X7Y1520D01*
X2419Y1520D02*
X2426Y1520D01*
X0Y1519D02*
X7Y1519D01*
X2419Y1519D02*
X2426Y1519D01*
X0Y1518D02*
X7Y1518D01*
X2419Y1518D02*
X2426Y1518D01*
X0Y1517D02*
X7Y1517D01*
X2419Y1517D02*
X2426Y1517D01*
X0Y1516D02*
X7Y1516D01*
X2419Y1516D02*
X2426Y1516D01*
X0Y1515D02*
X7Y1515D01*
X2419Y1515D02*
X2426Y1515D01*
X0Y1514D02*
X7Y1514D01*
X2419Y1514D02*
X2426Y1514D01*
X0Y1513D02*
X7Y1513D01*
X2419Y1513D02*
X2426Y1513D01*
X0Y1512D02*
X7Y1512D01*
X2419Y1512D02*
X2426Y1512D01*
X0Y1511D02*
X7Y1511D01*
X2419Y1511D02*
X2426Y1511D01*
X0Y1510D02*
X7Y1510D01*
X2419Y1510D02*
X2426Y1510D01*
X0Y1509D02*
X7Y1509D01*
X2419Y1509D02*
X2426Y1509D01*
X0Y1508D02*
X7Y1508D01*
X2419Y1508D02*
X2426Y1508D01*
X0Y1507D02*
X7Y1507D01*
X2419Y1507D02*
X2426Y1507D01*
X0Y1506D02*
X7Y1506D01*
X2419Y1506D02*
X2426Y1506D01*
X0Y1505D02*
X7Y1505D01*
X2419Y1505D02*
X2426Y1505D01*
X0Y1504D02*
X7Y1504D01*
X2419Y1504D02*
X2426Y1504D01*
X0Y1503D02*
X7Y1503D01*
X2419Y1503D02*
X2426Y1503D01*
X0Y1502D02*
X7Y1502D01*
X2419Y1502D02*
X2426Y1502D01*
X0Y1501D02*
X7Y1501D01*
X2419Y1501D02*
X2426Y1501D01*
X0Y1500D02*
X7Y1500D01*
X2419Y1500D02*
X2426Y1500D01*
X0Y1499D02*
X7Y1499D01*
X2419Y1499D02*
X2426Y1499D01*
X0Y1498D02*
X7Y1498D01*
X2419Y1498D02*
X2426Y1498D01*
X0Y1497D02*
X7Y1497D01*
X2419Y1497D02*
X2426Y1497D01*
X0Y1496D02*
X7Y1496D01*
X2419Y1496D02*
X2426Y1496D01*
X0Y1495D02*
X7Y1495D01*
X2419Y1495D02*
X2426Y1495D01*
X0Y1494D02*
X7Y1494D01*
X2419Y1494D02*
X2426Y1494D01*
X0Y1493D02*
X7Y1493D01*
X2419Y1493D02*
X2426Y1493D01*
X0Y1492D02*
X7Y1492D01*
X2419Y1492D02*
X2426Y1492D01*
X0Y1491D02*
X7Y1491D01*
X2419Y1491D02*
X2426Y1491D01*
X0Y1490D02*
X7Y1490D01*
X2419Y1490D02*
X2426Y1490D01*
X0Y1489D02*
X7Y1489D01*
X2419Y1489D02*
X2426Y1489D01*
X0Y1488D02*
X7Y1488D01*
X2419Y1488D02*
X2426Y1488D01*
X0Y1487D02*
X7Y1487D01*
X2419Y1487D02*
X2426Y1487D01*
X0Y1486D02*
X7Y1486D01*
X2419Y1486D02*
X2426Y1486D01*
X0Y1485D02*
X7Y1485D01*
X2419Y1485D02*
X2426Y1485D01*
X0Y1484D02*
X7Y1484D01*
X2419Y1484D02*
X2426Y1484D01*
X0Y1483D02*
X7Y1483D01*
X2419Y1483D02*
X2426Y1483D01*
X0Y1482D02*
X7Y1482D01*
X2419Y1482D02*
X2426Y1482D01*
X0Y1481D02*
X7Y1481D01*
X2419Y1481D02*
X2426Y1481D01*
X0Y1480D02*
X7Y1480D01*
X2419Y1480D02*
X2426Y1480D01*
X0Y1479D02*
X7Y1479D01*
X2419Y1479D02*
X2426Y1479D01*
X0Y1478D02*
X7Y1478D01*
X2419Y1478D02*
X2426Y1478D01*
X0Y1477D02*
X7Y1477D01*
X2419Y1477D02*
X2426Y1477D01*
X0Y1476D02*
X7Y1476D01*
X2419Y1476D02*
X2426Y1476D01*
X0Y1475D02*
X7Y1475D01*
X2419Y1475D02*
X2426Y1475D01*
X0Y1474D02*
X7Y1474D01*
X2419Y1474D02*
X2426Y1474D01*
X0Y1473D02*
X7Y1473D01*
X2419Y1473D02*
X2426Y1473D01*
X0Y1472D02*
X7Y1472D01*
X2419Y1472D02*
X2426Y1472D01*
X0Y1471D02*
X7Y1471D01*
X2419Y1471D02*
X2426Y1471D01*
X0Y1470D02*
X7Y1470D01*
X2419Y1470D02*
X2426Y1470D01*
X0Y1469D02*
X7Y1469D01*
X2419Y1469D02*
X2426Y1469D01*
X0Y1468D02*
X7Y1468D01*
X2419Y1468D02*
X2426Y1468D01*
X0Y1467D02*
X7Y1467D01*
X2419Y1467D02*
X2426Y1467D01*
X0Y1466D02*
X7Y1466D01*
X2419Y1466D02*
X2426Y1466D01*
X0Y1465D02*
X7Y1465D01*
X2419Y1465D02*
X2426Y1465D01*
X0Y1464D02*
X7Y1464D01*
X2419Y1464D02*
X2426Y1464D01*
X0Y1463D02*
X7Y1463D01*
X2419Y1463D02*
X2426Y1463D01*
X0Y1462D02*
X7Y1462D01*
X2419Y1462D02*
X2426Y1462D01*
X0Y1461D02*
X7Y1461D01*
X2419Y1461D02*
X2426Y1461D01*
X0Y1460D02*
X7Y1460D01*
X2419Y1460D02*
X2426Y1460D01*
X0Y1459D02*
X7Y1459D01*
X2419Y1459D02*
X2426Y1459D01*
X0Y1458D02*
X7Y1458D01*
X2419Y1458D02*
X2426Y1458D01*
X0Y1457D02*
X7Y1457D01*
X2419Y1457D02*
X2426Y1457D01*
X0Y1456D02*
X7Y1456D01*
X2419Y1456D02*
X2426Y1456D01*
X0Y1455D02*
X7Y1455D01*
X2419Y1455D02*
X2426Y1455D01*
X0Y1454D02*
X7Y1454D01*
X2419Y1454D02*
X2426Y1454D01*
X0Y1453D02*
X7Y1453D01*
X2419Y1453D02*
X2426Y1453D01*
X0Y1452D02*
X7Y1452D01*
X2419Y1452D02*
X2426Y1452D01*
X0Y1451D02*
X7Y1451D01*
X2419Y1451D02*
X2426Y1451D01*
X0Y1450D02*
X7Y1450D01*
X2419Y1450D02*
X2426Y1450D01*
X0Y1449D02*
X7Y1449D01*
X2419Y1449D02*
X2426Y1449D01*
X0Y1448D02*
X7Y1448D01*
X2419Y1448D02*
X2426Y1448D01*
X0Y1447D02*
X7Y1447D01*
X2419Y1447D02*
X2426Y1447D01*
X0Y1446D02*
X7Y1446D01*
X2419Y1446D02*
X2426Y1446D01*
X0Y1445D02*
X7Y1445D01*
X2419Y1445D02*
X2426Y1445D01*
X0Y1444D02*
X7Y1444D01*
X2419Y1444D02*
X2426Y1444D01*
X0Y1443D02*
X7Y1443D01*
X2419Y1443D02*
X2426Y1443D01*
X0Y1442D02*
X7Y1442D01*
X2419Y1442D02*
X2426Y1442D01*
X0Y1441D02*
X7Y1441D01*
X2419Y1441D02*
X2426Y1441D01*
X0Y1440D02*
X7Y1440D01*
X2419Y1440D02*
X2426Y1440D01*
X0Y1439D02*
X7Y1439D01*
X2419Y1439D02*
X2426Y1439D01*
X0Y1438D02*
X7Y1438D01*
X2419Y1438D02*
X2426Y1438D01*
X0Y1437D02*
X7Y1437D01*
X2419Y1437D02*
X2426Y1437D01*
X0Y1436D02*
X7Y1436D01*
X2419Y1436D02*
X2426Y1436D01*
X0Y1435D02*
X7Y1435D01*
X2419Y1435D02*
X2426Y1435D01*
X0Y1434D02*
X7Y1434D01*
X2419Y1434D02*
X2426Y1434D01*
X0Y1433D02*
X7Y1433D01*
X2419Y1433D02*
X2426Y1433D01*
X0Y1432D02*
X7Y1432D01*
X2419Y1432D02*
X2426Y1432D01*
X0Y1431D02*
X7Y1431D01*
X2419Y1431D02*
X2426Y1431D01*
X0Y1430D02*
X7Y1430D01*
X2419Y1430D02*
X2426Y1430D01*
X0Y1429D02*
X7Y1429D01*
X2419Y1429D02*
X2426Y1429D01*
X0Y1428D02*
X7Y1428D01*
X2419Y1428D02*
X2426Y1428D01*
X0Y1427D02*
X7Y1427D01*
X2419Y1427D02*
X2426Y1427D01*
X0Y1426D02*
X7Y1426D01*
X2419Y1426D02*
X2426Y1426D01*
X0Y1425D02*
X7Y1425D01*
X2419Y1425D02*
X2426Y1425D01*
X0Y1424D02*
X7Y1424D01*
X2419Y1424D02*
X2426Y1424D01*
X0Y1423D02*
X7Y1423D01*
X2419Y1423D02*
X2426Y1423D01*
X0Y1422D02*
X7Y1422D01*
X2419Y1422D02*
X2426Y1422D01*
X0Y1421D02*
X7Y1421D01*
X2419Y1421D02*
X2426Y1421D01*
X0Y1420D02*
X7Y1420D01*
X2419Y1420D02*
X2426Y1420D01*
X0Y1419D02*
X7Y1419D01*
X2419Y1419D02*
X2426Y1419D01*
X0Y1418D02*
X7Y1418D01*
X2419Y1418D02*
X2426Y1418D01*
X0Y1417D02*
X7Y1417D01*
X2419Y1417D02*
X2426Y1417D01*
X0Y1416D02*
X7Y1416D01*
X2419Y1416D02*
X2426Y1416D01*
X0Y1415D02*
X7Y1415D01*
X2419Y1415D02*
X2426Y1415D01*
X0Y1414D02*
X7Y1414D01*
X2419Y1414D02*
X2426Y1414D01*
X0Y1413D02*
X7Y1413D01*
X2419Y1413D02*
X2426Y1413D01*
X0Y1412D02*
X7Y1412D01*
X2419Y1412D02*
X2426Y1412D01*
X0Y1411D02*
X7Y1411D01*
X2419Y1411D02*
X2426Y1411D01*
X0Y1410D02*
X7Y1410D01*
X2419Y1410D02*
X2426Y1410D01*
X0Y1409D02*
X7Y1409D01*
X2419Y1409D02*
X2426Y1409D01*
X0Y1408D02*
X7Y1408D01*
X2419Y1408D02*
X2426Y1408D01*
X0Y1407D02*
X7Y1407D01*
X2419Y1407D02*
X2426Y1407D01*
X0Y1406D02*
X7Y1406D01*
X2419Y1406D02*
X2426Y1406D01*
X0Y1405D02*
X7Y1405D01*
X2419Y1405D02*
X2426Y1405D01*
X0Y1404D02*
X7Y1404D01*
X2419Y1404D02*
X2426Y1404D01*
X0Y1403D02*
X7Y1403D01*
X2419Y1403D02*
X2426Y1403D01*
X0Y1402D02*
X7Y1402D01*
X2419Y1402D02*
X2426Y1402D01*
X0Y1401D02*
X7Y1401D01*
X2419Y1401D02*
X2426Y1401D01*
X0Y1400D02*
X7Y1400D01*
X2419Y1400D02*
X2426Y1400D01*
X0Y1399D02*
X7Y1399D01*
X2419Y1399D02*
X2426Y1399D01*
X0Y1398D02*
X7Y1398D01*
X2419Y1398D02*
X2426Y1398D01*
X0Y1397D02*
X7Y1397D01*
X2419Y1397D02*
X2426Y1397D01*
X0Y1396D02*
X7Y1396D01*
X2419Y1396D02*
X2426Y1396D01*
X0Y1395D02*
X7Y1395D01*
X2419Y1395D02*
X2426Y1395D01*
X0Y1394D02*
X7Y1394D01*
X2419Y1394D02*
X2426Y1394D01*
X0Y1393D02*
X7Y1393D01*
X2419Y1393D02*
X2426Y1393D01*
X0Y1392D02*
X7Y1392D01*
X2419Y1392D02*
X2426Y1392D01*
X0Y1391D02*
X7Y1391D01*
X2419Y1391D02*
X2426Y1391D01*
X0Y1390D02*
X7Y1390D01*
X2419Y1390D02*
X2426Y1390D01*
X0Y1389D02*
X7Y1389D01*
X2419Y1389D02*
X2426Y1389D01*
X0Y1388D02*
X7Y1388D01*
X2419Y1388D02*
X2426Y1388D01*
X0Y1387D02*
X7Y1387D01*
X2419Y1387D02*
X2426Y1387D01*
X0Y1386D02*
X7Y1386D01*
X2419Y1386D02*
X2426Y1386D01*
X0Y1385D02*
X7Y1385D01*
X2419Y1385D02*
X2426Y1385D01*
X0Y1384D02*
X7Y1384D01*
X2419Y1384D02*
X2426Y1384D01*
X0Y1383D02*
X7Y1383D01*
X2419Y1383D02*
X2426Y1383D01*
X0Y1382D02*
X7Y1382D01*
X2419Y1382D02*
X2426Y1382D01*
X0Y1381D02*
X7Y1381D01*
X2419Y1381D02*
X2426Y1381D01*
X0Y1380D02*
X7Y1380D01*
X2419Y1380D02*
X2426Y1380D01*
X0Y1379D02*
X7Y1379D01*
X2419Y1379D02*
X2426Y1379D01*
X0Y1378D02*
X7Y1378D01*
X2419Y1378D02*
X2426Y1378D01*
X0Y1377D02*
X7Y1377D01*
X2419Y1377D02*
X2426Y1377D01*
X0Y1376D02*
X7Y1376D01*
X2419Y1376D02*
X2426Y1376D01*
X0Y1375D02*
X7Y1375D01*
X2419Y1375D02*
X2426Y1375D01*
X0Y1374D02*
X7Y1374D01*
X2419Y1374D02*
X2426Y1374D01*
X0Y1373D02*
X7Y1373D01*
X2419Y1373D02*
X2426Y1373D01*
X0Y1372D02*
X7Y1372D01*
X2419Y1372D02*
X2426Y1372D01*
X0Y1371D02*
X7Y1371D01*
X2419Y1371D02*
X2426Y1371D01*
X0Y1370D02*
X7Y1370D01*
X2419Y1370D02*
X2426Y1370D01*
X0Y1369D02*
X7Y1369D01*
X2419Y1369D02*
X2426Y1369D01*
X0Y1368D02*
X7Y1368D01*
X2419Y1368D02*
X2426Y1368D01*
X0Y1367D02*
X7Y1367D01*
X2419Y1367D02*
X2426Y1367D01*
X0Y1366D02*
X7Y1366D01*
X2419Y1366D02*
X2426Y1366D01*
X0Y1365D02*
X7Y1365D01*
X2419Y1365D02*
X2426Y1365D01*
X0Y1364D02*
X7Y1364D01*
X2419Y1364D02*
X2426Y1364D01*
X0Y1363D02*
X7Y1363D01*
X2419Y1363D02*
X2426Y1363D01*
X0Y1362D02*
X7Y1362D01*
X2419Y1362D02*
X2426Y1362D01*
X0Y1361D02*
X7Y1361D01*
X2419Y1361D02*
X2426Y1361D01*
X0Y1360D02*
X7Y1360D01*
X2419Y1360D02*
X2426Y1360D01*
X0Y1359D02*
X7Y1359D01*
X2419Y1359D02*
X2426Y1359D01*
X0Y1358D02*
X7Y1358D01*
X2419Y1358D02*
X2426Y1358D01*
X0Y1357D02*
X7Y1357D01*
X2419Y1357D02*
X2426Y1357D01*
X0Y1356D02*
X7Y1356D01*
X2419Y1356D02*
X2426Y1356D01*
X0Y1355D02*
X7Y1355D01*
X2419Y1355D02*
X2426Y1355D01*
X0Y1354D02*
X7Y1354D01*
X2419Y1354D02*
X2426Y1354D01*
X0Y1353D02*
X7Y1353D01*
X2419Y1353D02*
X2426Y1353D01*
X0Y1352D02*
X7Y1352D01*
X2419Y1352D02*
X2426Y1352D01*
X0Y1351D02*
X7Y1351D01*
X2419Y1351D02*
X2426Y1351D01*
X0Y1350D02*
X7Y1350D01*
X2419Y1350D02*
X2426Y1350D01*
X0Y1349D02*
X7Y1349D01*
X2419Y1349D02*
X2426Y1349D01*
X0Y1348D02*
X7Y1348D01*
X2419Y1348D02*
X2426Y1348D01*
X0Y1347D02*
X7Y1347D01*
X2419Y1347D02*
X2426Y1347D01*
X0Y1346D02*
X7Y1346D01*
X2419Y1346D02*
X2426Y1346D01*
X0Y1345D02*
X7Y1345D01*
X2419Y1345D02*
X2426Y1345D01*
X0Y1344D02*
X7Y1344D01*
X2419Y1344D02*
X2426Y1344D01*
X0Y1343D02*
X7Y1343D01*
X2419Y1343D02*
X2426Y1343D01*
X0Y1342D02*
X7Y1342D01*
X2419Y1342D02*
X2426Y1342D01*
X0Y1341D02*
X7Y1341D01*
X2419Y1341D02*
X2426Y1341D01*
X0Y1340D02*
X7Y1340D01*
X2419Y1340D02*
X2426Y1340D01*
X0Y1339D02*
X7Y1339D01*
X2419Y1339D02*
X2426Y1339D01*
X0Y1338D02*
X7Y1338D01*
X2419Y1338D02*
X2426Y1338D01*
X0Y1337D02*
X7Y1337D01*
X2419Y1337D02*
X2426Y1337D01*
X0Y1336D02*
X7Y1336D01*
X2419Y1336D02*
X2426Y1336D01*
X0Y1335D02*
X7Y1335D01*
X2419Y1335D02*
X2426Y1335D01*
X0Y1334D02*
X7Y1334D01*
X2419Y1334D02*
X2426Y1334D01*
X0Y1333D02*
X7Y1333D01*
X2419Y1333D02*
X2426Y1333D01*
X0Y1332D02*
X7Y1332D01*
X2419Y1332D02*
X2426Y1332D01*
X0Y1331D02*
X7Y1331D01*
X2419Y1331D02*
X2426Y1331D01*
X0Y1330D02*
X7Y1330D01*
X2419Y1330D02*
X2426Y1330D01*
X0Y1329D02*
X7Y1329D01*
X2419Y1329D02*
X2426Y1329D01*
X0Y1328D02*
X7Y1328D01*
X2419Y1328D02*
X2426Y1328D01*
X0Y1327D02*
X7Y1327D01*
X2419Y1327D02*
X2426Y1327D01*
X0Y1326D02*
X7Y1326D01*
X2419Y1326D02*
X2426Y1326D01*
X0Y1325D02*
X7Y1325D01*
X2419Y1325D02*
X2426Y1325D01*
X0Y1324D02*
X7Y1324D01*
X2419Y1324D02*
X2426Y1324D01*
X0Y1323D02*
X7Y1323D01*
X2419Y1323D02*
X2426Y1323D01*
X0Y1322D02*
X7Y1322D01*
X2419Y1322D02*
X2426Y1322D01*
X0Y1321D02*
X7Y1321D01*
X2419Y1321D02*
X2426Y1321D01*
X0Y1320D02*
X7Y1320D01*
X2419Y1320D02*
X2426Y1320D01*
X0Y1319D02*
X7Y1319D01*
X2419Y1319D02*
X2426Y1319D01*
X0Y1318D02*
X7Y1318D01*
X2419Y1318D02*
X2426Y1318D01*
X0Y1317D02*
X7Y1317D01*
X2419Y1317D02*
X2426Y1317D01*
X0Y1316D02*
X7Y1316D01*
X2419Y1316D02*
X2426Y1316D01*
X0Y1315D02*
X7Y1315D01*
X2419Y1315D02*
X2426Y1315D01*
X0Y1314D02*
X7Y1314D01*
X2419Y1314D02*
X2426Y1314D01*
X0Y1313D02*
X7Y1313D01*
X2419Y1313D02*
X2426Y1313D01*
X0Y1312D02*
X7Y1312D01*
X2419Y1312D02*
X2426Y1312D01*
X0Y1311D02*
X7Y1311D01*
X2419Y1311D02*
X2426Y1311D01*
X0Y1310D02*
X7Y1310D01*
X2419Y1310D02*
X2426Y1310D01*
X0Y1309D02*
X7Y1309D01*
X2419Y1309D02*
X2426Y1309D01*
X0Y1308D02*
X7Y1308D01*
X2419Y1308D02*
X2426Y1308D01*
X0Y1307D02*
X7Y1307D01*
X2419Y1307D02*
X2426Y1307D01*
X0Y1306D02*
X7Y1306D01*
X2419Y1306D02*
X2426Y1306D01*
X0Y1305D02*
X7Y1305D01*
X2419Y1305D02*
X2426Y1305D01*
X0Y1304D02*
X7Y1304D01*
X2419Y1304D02*
X2426Y1304D01*
X0Y1303D02*
X7Y1303D01*
X2419Y1303D02*
X2426Y1303D01*
X0Y1302D02*
X7Y1302D01*
X2419Y1302D02*
X2426Y1302D01*
X0Y1301D02*
X7Y1301D01*
X2419Y1301D02*
X2426Y1301D01*
X0Y1300D02*
X7Y1300D01*
X2419Y1300D02*
X2426Y1300D01*
X0Y1299D02*
X7Y1299D01*
X2419Y1299D02*
X2426Y1299D01*
X0Y1298D02*
X7Y1298D01*
X2419Y1298D02*
X2426Y1298D01*
X0Y1297D02*
X7Y1297D01*
X2419Y1297D02*
X2426Y1297D01*
X0Y1296D02*
X7Y1296D01*
X2419Y1296D02*
X2426Y1296D01*
X0Y1295D02*
X7Y1295D01*
X2419Y1295D02*
X2426Y1295D01*
X0Y1294D02*
X7Y1294D01*
X2419Y1294D02*
X2426Y1294D01*
X0Y1293D02*
X7Y1293D01*
X2419Y1293D02*
X2426Y1293D01*
X0Y1292D02*
X7Y1292D01*
X2419Y1292D02*
X2426Y1292D01*
X0Y1291D02*
X7Y1291D01*
X2419Y1291D02*
X2426Y1291D01*
X0Y1290D02*
X7Y1290D01*
X2419Y1290D02*
X2426Y1290D01*
X0Y1289D02*
X7Y1289D01*
X2419Y1289D02*
X2426Y1289D01*
X0Y1288D02*
X7Y1288D01*
X2419Y1288D02*
X2426Y1288D01*
X0Y1287D02*
X7Y1287D01*
X2419Y1287D02*
X2426Y1287D01*
X0Y1286D02*
X7Y1286D01*
X2419Y1286D02*
X2426Y1286D01*
X0Y1285D02*
X7Y1285D01*
X2419Y1285D02*
X2426Y1285D01*
X0Y1284D02*
X7Y1284D01*
X2419Y1284D02*
X2426Y1284D01*
X0Y1283D02*
X7Y1283D01*
X2419Y1283D02*
X2426Y1283D01*
X0Y1282D02*
X7Y1282D01*
X2419Y1282D02*
X2426Y1282D01*
X0Y1281D02*
X7Y1281D01*
X2419Y1281D02*
X2426Y1281D01*
X0Y1280D02*
X7Y1280D01*
X2419Y1280D02*
X2426Y1280D01*
X0Y1279D02*
X7Y1279D01*
X2419Y1279D02*
X2426Y1279D01*
X0Y1278D02*
X7Y1278D01*
X2419Y1278D02*
X2426Y1278D01*
X0Y1277D02*
X7Y1277D01*
X2419Y1277D02*
X2426Y1277D01*
X0Y1276D02*
X7Y1276D01*
X2419Y1276D02*
X2426Y1276D01*
X0Y1275D02*
X7Y1275D01*
X2419Y1275D02*
X2426Y1275D01*
X0Y1274D02*
X7Y1274D01*
X2419Y1274D02*
X2426Y1274D01*
X0Y1273D02*
X7Y1273D01*
X2419Y1273D02*
X2426Y1273D01*
X0Y1272D02*
X7Y1272D01*
X2419Y1272D02*
X2426Y1272D01*
X0Y1271D02*
X7Y1271D01*
X2419Y1271D02*
X2426Y1271D01*
X0Y1270D02*
X7Y1270D01*
X2419Y1270D02*
X2426Y1270D01*
X0Y1269D02*
X7Y1269D01*
X2419Y1269D02*
X2426Y1269D01*
X0Y1268D02*
X7Y1268D01*
X2419Y1268D02*
X2426Y1268D01*
X0Y1267D02*
X7Y1267D01*
X2419Y1267D02*
X2426Y1267D01*
X0Y1266D02*
X7Y1266D01*
X2419Y1266D02*
X2426Y1266D01*
X0Y1265D02*
X7Y1265D01*
X2419Y1265D02*
X2426Y1265D01*
X0Y1264D02*
X7Y1264D01*
X2419Y1264D02*
X2426Y1264D01*
X0Y1263D02*
X7Y1263D01*
X2419Y1263D02*
X2426Y1263D01*
X0Y1262D02*
X7Y1262D01*
X2419Y1262D02*
X2426Y1262D01*
X0Y1261D02*
X7Y1261D01*
X2419Y1261D02*
X2426Y1261D01*
X0Y1260D02*
X7Y1260D01*
X2419Y1260D02*
X2426Y1260D01*
X0Y1259D02*
X7Y1259D01*
X2419Y1259D02*
X2426Y1259D01*
X0Y1258D02*
X7Y1258D01*
X2419Y1258D02*
X2426Y1258D01*
X0Y1257D02*
X7Y1257D01*
X2419Y1257D02*
X2426Y1257D01*
X0Y1256D02*
X7Y1256D01*
X2419Y1256D02*
X2426Y1256D01*
X0Y1255D02*
X7Y1255D01*
X2419Y1255D02*
X2426Y1255D01*
X0Y1254D02*
X7Y1254D01*
X2419Y1254D02*
X2426Y1254D01*
X0Y1253D02*
X7Y1253D01*
X2419Y1253D02*
X2426Y1253D01*
X0Y1252D02*
X7Y1252D01*
X2419Y1252D02*
X2426Y1252D01*
X0Y1251D02*
X7Y1251D01*
X2419Y1251D02*
X2426Y1251D01*
X0Y1250D02*
X7Y1250D01*
X2419Y1250D02*
X2426Y1250D01*
X0Y1249D02*
X7Y1249D01*
X2419Y1249D02*
X2426Y1249D01*
X0Y1248D02*
X7Y1248D01*
X2419Y1248D02*
X2426Y1248D01*
X0Y1247D02*
X7Y1247D01*
X2419Y1247D02*
X2426Y1247D01*
X0Y1246D02*
X7Y1246D01*
X2419Y1246D02*
X2426Y1246D01*
X0Y1245D02*
X7Y1245D01*
X2419Y1245D02*
X2426Y1245D01*
X0Y1244D02*
X7Y1244D01*
X2419Y1244D02*
X2426Y1244D01*
X0Y1243D02*
X7Y1243D01*
X2419Y1243D02*
X2426Y1243D01*
X0Y1242D02*
X7Y1242D01*
X2419Y1242D02*
X2426Y1242D01*
X0Y1241D02*
X7Y1241D01*
X2419Y1241D02*
X2426Y1241D01*
X0Y1240D02*
X7Y1240D01*
X2419Y1240D02*
X2426Y1240D01*
X0Y1239D02*
X7Y1239D01*
X2419Y1239D02*
X2426Y1239D01*
X0Y1238D02*
X7Y1238D01*
X2419Y1238D02*
X2426Y1238D01*
X0Y1237D02*
X7Y1237D01*
X2419Y1237D02*
X2426Y1237D01*
X0Y1236D02*
X7Y1236D01*
X2419Y1236D02*
X2426Y1236D01*
X0Y1235D02*
X7Y1235D01*
X2419Y1235D02*
X2426Y1235D01*
X0Y1234D02*
X7Y1234D01*
X2419Y1234D02*
X2426Y1234D01*
X0Y1233D02*
X7Y1233D01*
X2419Y1233D02*
X2426Y1233D01*
X0Y1232D02*
X7Y1232D01*
X2419Y1232D02*
X2426Y1232D01*
X0Y1231D02*
X7Y1231D01*
X2419Y1231D02*
X2426Y1231D01*
X0Y1230D02*
X7Y1230D01*
X2419Y1230D02*
X2426Y1230D01*
X0Y1229D02*
X7Y1229D01*
X2419Y1229D02*
X2426Y1229D01*
X0Y1228D02*
X7Y1228D01*
X2419Y1228D02*
X2426Y1228D01*
X0Y1227D02*
X7Y1227D01*
X2419Y1227D02*
X2426Y1227D01*
X0Y1226D02*
X7Y1226D01*
X2419Y1226D02*
X2426Y1226D01*
X0Y1225D02*
X7Y1225D01*
X2419Y1225D02*
X2426Y1225D01*
X0Y1224D02*
X7Y1224D01*
X2419Y1224D02*
X2426Y1224D01*
X0Y1223D02*
X7Y1223D01*
X2419Y1223D02*
X2426Y1223D01*
X0Y1222D02*
X7Y1222D01*
X2419Y1222D02*
X2426Y1222D01*
X0Y1221D02*
X7Y1221D01*
X2419Y1221D02*
X2426Y1221D01*
X0Y1220D02*
X7Y1220D01*
X2419Y1220D02*
X2426Y1220D01*
X0Y1219D02*
X7Y1219D01*
X2419Y1219D02*
X2426Y1219D01*
X0Y1218D02*
X7Y1218D01*
X2419Y1218D02*
X2426Y1218D01*
X0Y1217D02*
X7Y1217D01*
X2419Y1217D02*
X2426Y1217D01*
X0Y1216D02*
X7Y1216D01*
X2419Y1216D02*
X2426Y1216D01*
X0Y1215D02*
X7Y1215D01*
X2419Y1215D02*
X2426Y1215D01*
X0Y1214D02*
X7Y1214D01*
X2419Y1214D02*
X2426Y1214D01*
X0Y1213D02*
X7Y1213D01*
X2419Y1213D02*
X2426Y1213D01*
X0Y1212D02*
X7Y1212D01*
X2419Y1212D02*
X2426Y1212D01*
X0Y1211D02*
X7Y1211D01*
X2419Y1211D02*
X2426Y1211D01*
X0Y1210D02*
X7Y1210D01*
X2419Y1210D02*
X2426Y1210D01*
X0Y1209D02*
X7Y1209D01*
X2419Y1209D02*
X2426Y1209D01*
X0Y1208D02*
X7Y1208D01*
X2419Y1208D02*
X2426Y1208D01*
X0Y1207D02*
X7Y1207D01*
X2419Y1207D02*
X2426Y1207D01*
X0Y1206D02*
X7Y1206D01*
X2419Y1206D02*
X2426Y1206D01*
X0Y1205D02*
X7Y1205D01*
X2419Y1205D02*
X2426Y1205D01*
X0Y1204D02*
X7Y1204D01*
X2419Y1204D02*
X2426Y1204D01*
X0Y1203D02*
X7Y1203D01*
X2419Y1203D02*
X2426Y1203D01*
X0Y1202D02*
X7Y1202D01*
X2419Y1202D02*
X2426Y1202D01*
X0Y1201D02*
X7Y1201D01*
X2419Y1201D02*
X2426Y1201D01*
X0Y1200D02*
X7Y1200D01*
X2419Y1200D02*
X2426Y1200D01*
X0Y1199D02*
X7Y1199D01*
X2419Y1199D02*
X2426Y1199D01*
X0Y1198D02*
X7Y1198D01*
X2419Y1198D02*
X2426Y1198D01*
X0Y1197D02*
X7Y1197D01*
X2419Y1197D02*
X2426Y1197D01*
X0Y1196D02*
X7Y1196D01*
X2419Y1196D02*
X2426Y1196D01*
X0Y1195D02*
X7Y1195D01*
X2419Y1195D02*
X2426Y1195D01*
X0Y1194D02*
X7Y1194D01*
X2419Y1194D02*
X2426Y1194D01*
X0Y1193D02*
X7Y1193D01*
X2419Y1193D02*
X2426Y1193D01*
X0Y1192D02*
X7Y1192D01*
X2419Y1192D02*
X2426Y1192D01*
X0Y1191D02*
X7Y1191D01*
X2419Y1191D02*
X2426Y1191D01*
X0Y1190D02*
X7Y1190D01*
X2419Y1190D02*
X2426Y1190D01*
X0Y1189D02*
X7Y1189D01*
X2419Y1189D02*
X2426Y1189D01*
X0Y1188D02*
X7Y1188D01*
X2419Y1188D02*
X2426Y1188D01*
X0Y1187D02*
X7Y1187D01*
X2419Y1187D02*
X2426Y1187D01*
X0Y1186D02*
X7Y1186D01*
X2419Y1186D02*
X2426Y1186D01*
X0Y1185D02*
X7Y1185D01*
X2419Y1185D02*
X2426Y1185D01*
X0Y1184D02*
X7Y1184D01*
X2419Y1184D02*
X2426Y1184D01*
X0Y1183D02*
X7Y1183D01*
X2419Y1183D02*
X2426Y1183D01*
X0Y1182D02*
X7Y1182D01*
X2419Y1182D02*
X2426Y1182D01*
X0Y1181D02*
X7Y1181D01*
X2419Y1181D02*
X2426Y1181D01*
X0Y1180D02*
X7Y1180D01*
X2419Y1180D02*
X2426Y1180D01*
X0Y1179D02*
X7Y1179D01*
X2419Y1179D02*
X2426Y1179D01*
X0Y1178D02*
X7Y1178D01*
X2419Y1178D02*
X2426Y1178D01*
X0Y1177D02*
X7Y1177D01*
X2419Y1177D02*
X2426Y1177D01*
X0Y1176D02*
X7Y1176D01*
X2419Y1176D02*
X2426Y1176D01*
X0Y1175D02*
X7Y1175D01*
X2419Y1175D02*
X2426Y1175D01*
X0Y1174D02*
X7Y1174D01*
X2419Y1174D02*
X2426Y1174D01*
X0Y1173D02*
X7Y1173D01*
X2419Y1173D02*
X2426Y1173D01*
X0Y1172D02*
X7Y1172D01*
X2419Y1172D02*
X2426Y1172D01*
X0Y1171D02*
X7Y1171D01*
X2419Y1171D02*
X2426Y1171D01*
X0Y1170D02*
X7Y1170D01*
X2419Y1170D02*
X2426Y1170D01*
X0Y1169D02*
X7Y1169D01*
X2419Y1169D02*
X2426Y1169D01*
X0Y1168D02*
X7Y1168D01*
X2419Y1168D02*
X2426Y1168D01*
X0Y1167D02*
X7Y1167D01*
X2419Y1167D02*
X2426Y1167D01*
X0Y1166D02*
X7Y1166D01*
X2419Y1166D02*
X2426Y1166D01*
X0Y1165D02*
X7Y1165D01*
X2419Y1165D02*
X2426Y1165D01*
X0Y1164D02*
X7Y1164D01*
X2419Y1164D02*
X2426Y1164D01*
X0Y1163D02*
X7Y1163D01*
X2419Y1163D02*
X2426Y1163D01*
X0Y1162D02*
X7Y1162D01*
X2419Y1162D02*
X2426Y1162D01*
X0Y1161D02*
X7Y1161D01*
X2419Y1161D02*
X2426Y1161D01*
X0Y1160D02*
X7Y1160D01*
X2419Y1160D02*
X2426Y1160D01*
X0Y1159D02*
X7Y1159D01*
X2419Y1159D02*
X2426Y1159D01*
X0Y1158D02*
X7Y1158D01*
X2419Y1158D02*
X2426Y1158D01*
X0Y1157D02*
X7Y1157D01*
X2419Y1157D02*
X2426Y1157D01*
X0Y1156D02*
X7Y1156D01*
X2419Y1156D02*
X2426Y1156D01*
X0Y1155D02*
X7Y1155D01*
X2419Y1155D02*
X2426Y1155D01*
X0Y1154D02*
X7Y1154D01*
X2419Y1154D02*
X2426Y1154D01*
X0Y1153D02*
X7Y1153D01*
X2419Y1153D02*
X2426Y1153D01*
X0Y1152D02*
X7Y1152D01*
X2419Y1152D02*
X2426Y1152D01*
X0Y1151D02*
X7Y1151D01*
X2419Y1151D02*
X2426Y1151D01*
X0Y1150D02*
X7Y1150D01*
X2419Y1150D02*
X2426Y1150D01*
X0Y1149D02*
X7Y1149D01*
X2419Y1149D02*
X2426Y1149D01*
X0Y1148D02*
X7Y1148D01*
X2419Y1148D02*
X2426Y1148D01*
X0Y1147D02*
X7Y1147D01*
X2419Y1147D02*
X2426Y1147D01*
X0Y1146D02*
X7Y1146D01*
X2419Y1146D02*
X2426Y1146D01*
X0Y1145D02*
X7Y1145D01*
X2419Y1145D02*
X2426Y1145D01*
X0Y1144D02*
X7Y1144D01*
X2419Y1144D02*
X2426Y1144D01*
X0Y1143D02*
X7Y1143D01*
X2419Y1143D02*
X2426Y1143D01*
X0Y1142D02*
X7Y1142D01*
X2419Y1142D02*
X2426Y1142D01*
X0Y1141D02*
X7Y1141D01*
X2419Y1141D02*
X2426Y1141D01*
X0Y1140D02*
X7Y1140D01*
X2419Y1140D02*
X2426Y1140D01*
X0Y1139D02*
X7Y1139D01*
X2419Y1139D02*
X2426Y1139D01*
X0Y1138D02*
X7Y1138D01*
X2419Y1138D02*
X2426Y1138D01*
X0Y1137D02*
X7Y1137D01*
X2419Y1137D02*
X2426Y1137D01*
X0Y1136D02*
X7Y1136D01*
X2419Y1136D02*
X2426Y1136D01*
X0Y1135D02*
X7Y1135D01*
X2419Y1135D02*
X2426Y1135D01*
X0Y1134D02*
X7Y1134D01*
X2419Y1134D02*
X2426Y1134D01*
X0Y1133D02*
X7Y1133D01*
X2419Y1133D02*
X2426Y1133D01*
X0Y1132D02*
X7Y1132D01*
X2419Y1132D02*
X2426Y1132D01*
X0Y1131D02*
X7Y1131D01*
X2419Y1131D02*
X2426Y1131D01*
X0Y1130D02*
X7Y1130D01*
X2419Y1130D02*
X2426Y1130D01*
X0Y1129D02*
X7Y1129D01*
X2419Y1129D02*
X2426Y1129D01*
X0Y1128D02*
X7Y1128D01*
X2419Y1128D02*
X2426Y1128D01*
X0Y1127D02*
X7Y1127D01*
X2419Y1127D02*
X2426Y1127D01*
X0Y1126D02*
X7Y1126D01*
X2419Y1126D02*
X2426Y1126D01*
X0Y1125D02*
X7Y1125D01*
X2419Y1125D02*
X2426Y1125D01*
X0Y1124D02*
X7Y1124D01*
X2419Y1124D02*
X2426Y1124D01*
X0Y1123D02*
X7Y1123D01*
X2419Y1123D02*
X2426Y1123D01*
X0Y1122D02*
X7Y1122D01*
X2419Y1122D02*
X2426Y1122D01*
X0Y1121D02*
X7Y1121D01*
X2419Y1121D02*
X2426Y1121D01*
X0Y1120D02*
X7Y1120D01*
X2419Y1120D02*
X2426Y1120D01*
X0Y1119D02*
X7Y1119D01*
X2419Y1119D02*
X2426Y1119D01*
X0Y1118D02*
X7Y1118D01*
X2419Y1118D02*
X2426Y1118D01*
X0Y1117D02*
X7Y1117D01*
X2419Y1117D02*
X2426Y1117D01*
X0Y1116D02*
X7Y1116D01*
X2419Y1116D02*
X2426Y1116D01*
X0Y1115D02*
X7Y1115D01*
X2419Y1115D02*
X2426Y1115D01*
X0Y1114D02*
X7Y1114D01*
X2419Y1114D02*
X2426Y1114D01*
X0Y1113D02*
X7Y1113D01*
X2419Y1113D02*
X2426Y1113D01*
X0Y1112D02*
X7Y1112D01*
X2419Y1112D02*
X2426Y1112D01*
X0Y1111D02*
X7Y1111D01*
X2419Y1111D02*
X2426Y1111D01*
X0Y1110D02*
X7Y1110D01*
X2419Y1110D02*
X2426Y1110D01*
X0Y1109D02*
X7Y1109D01*
X2419Y1109D02*
X2426Y1109D01*
X0Y1108D02*
X7Y1108D01*
X2419Y1108D02*
X2426Y1108D01*
X0Y1107D02*
X7Y1107D01*
X2419Y1107D02*
X2426Y1107D01*
X0Y1106D02*
X7Y1106D01*
X2419Y1106D02*
X2426Y1106D01*
X0Y1105D02*
X7Y1105D01*
X2419Y1105D02*
X2426Y1105D01*
X0Y1104D02*
X7Y1104D01*
X2419Y1104D02*
X2426Y1104D01*
X0Y1103D02*
X7Y1103D01*
X2419Y1103D02*
X2426Y1103D01*
X0Y1102D02*
X7Y1102D01*
X2419Y1102D02*
X2426Y1102D01*
X0Y1101D02*
X7Y1101D01*
X2419Y1101D02*
X2426Y1101D01*
X0Y1100D02*
X7Y1100D01*
X2419Y1100D02*
X2426Y1100D01*
X0Y1099D02*
X7Y1099D01*
X2419Y1099D02*
X2426Y1099D01*
X0Y1098D02*
X7Y1098D01*
X2419Y1098D02*
X2426Y1098D01*
X0Y1097D02*
X7Y1097D01*
X2419Y1097D02*
X2426Y1097D01*
X0Y1096D02*
X7Y1096D01*
X2419Y1096D02*
X2426Y1096D01*
X0Y1095D02*
X7Y1095D01*
X2419Y1095D02*
X2426Y1095D01*
X0Y1094D02*
X7Y1094D01*
X2419Y1094D02*
X2426Y1094D01*
X0Y1093D02*
X7Y1093D01*
X2419Y1093D02*
X2426Y1093D01*
X0Y1092D02*
X7Y1092D01*
X2419Y1092D02*
X2426Y1092D01*
X0Y1091D02*
X7Y1091D01*
X2419Y1091D02*
X2426Y1091D01*
X0Y1090D02*
X7Y1090D01*
X2419Y1090D02*
X2426Y1090D01*
X0Y1089D02*
X7Y1089D01*
X2419Y1089D02*
X2426Y1089D01*
X0Y1088D02*
X7Y1088D01*
X2419Y1088D02*
X2426Y1088D01*
X0Y1087D02*
X7Y1087D01*
X2419Y1087D02*
X2426Y1087D01*
X0Y1086D02*
X7Y1086D01*
X2419Y1086D02*
X2426Y1086D01*
X0Y1085D02*
X7Y1085D01*
X2419Y1085D02*
X2426Y1085D01*
X0Y1084D02*
X7Y1084D01*
X2419Y1084D02*
X2426Y1084D01*
X0Y1083D02*
X7Y1083D01*
X2419Y1083D02*
X2426Y1083D01*
X0Y1082D02*
X7Y1082D01*
X2419Y1082D02*
X2426Y1082D01*
X0Y1081D02*
X7Y1081D01*
X2419Y1081D02*
X2426Y1081D01*
X0Y1080D02*
X7Y1080D01*
X2419Y1080D02*
X2426Y1080D01*
X0Y1079D02*
X7Y1079D01*
X2419Y1079D02*
X2426Y1079D01*
X0Y1078D02*
X7Y1078D01*
X2419Y1078D02*
X2426Y1078D01*
X0Y1077D02*
X7Y1077D01*
X2419Y1077D02*
X2426Y1077D01*
X0Y1076D02*
X7Y1076D01*
X2419Y1076D02*
X2426Y1076D01*
X0Y1075D02*
X7Y1075D01*
X2419Y1075D02*
X2426Y1075D01*
X0Y1074D02*
X7Y1074D01*
X2419Y1074D02*
X2426Y1074D01*
X0Y1073D02*
X7Y1073D01*
X2419Y1073D02*
X2426Y1073D01*
X0Y1072D02*
X7Y1072D01*
X2419Y1072D02*
X2426Y1072D01*
X0Y1071D02*
X7Y1071D01*
X2419Y1071D02*
X2426Y1071D01*
X0Y1070D02*
X7Y1070D01*
X2419Y1070D02*
X2426Y1070D01*
X0Y1069D02*
X7Y1069D01*
X2419Y1069D02*
X2426Y1069D01*
X0Y1068D02*
X7Y1068D01*
X2419Y1068D02*
X2426Y1068D01*
X0Y1067D02*
X7Y1067D01*
X2419Y1067D02*
X2426Y1067D01*
X0Y1066D02*
X7Y1066D01*
X2419Y1066D02*
X2426Y1066D01*
X0Y1065D02*
X7Y1065D01*
X2419Y1065D02*
X2426Y1065D01*
X0Y1064D02*
X7Y1064D01*
X2419Y1064D02*
X2426Y1064D01*
X0Y1063D02*
X7Y1063D01*
X2419Y1063D02*
X2426Y1063D01*
X0Y1062D02*
X7Y1062D01*
X2419Y1062D02*
X2426Y1062D01*
X0Y1061D02*
X7Y1061D01*
X2419Y1061D02*
X2426Y1061D01*
X0Y1060D02*
X7Y1060D01*
X2419Y1060D02*
X2426Y1060D01*
X0Y1059D02*
X7Y1059D01*
X2419Y1059D02*
X2426Y1059D01*
X0Y1058D02*
X7Y1058D01*
X2419Y1058D02*
X2426Y1058D01*
X0Y1057D02*
X7Y1057D01*
X2419Y1057D02*
X2426Y1057D01*
X0Y1056D02*
X7Y1056D01*
X2419Y1056D02*
X2426Y1056D01*
X0Y1055D02*
X7Y1055D01*
X2419Y1055D02*
X2426Y1055D01*
X0Y1054D02*
X7Y1054D01*
X2419Y1054D02*
X2426Y1054D01*
X0Y1053D02*
X7Y1053D01*
X2419Y1053D02*
X2426Y1053D01*
X0Y1052D02*
X7Y1052D01*
X2419Y1052D02*
X2426Y1052D01*
X0Y1051D02*
X7Y1051D01*
X2419Y1051D02*
X2426Y1051D01*
X0Y1050D02*
X7Y1050D01*
X2419Y1050D02*
X2426Y1050D01*
X0Y1049D02*
X7Y1049D01*
X2419Y1049D02*
X2426Y1049D01*
X0Y1048D02*
X7Y1048D01*
X2419Y1048D02*
X2426Y1048D01*
X0Y1047D02*
X7Y1047D01*
X2419Y1047D02*
X2426Y1047D01*
X0Y1046D02*
X7Y1046D01*
X2419Y1046D02*
X2426Y1046D01*
X0Y1045D02*
X7Y1045D01*
X2419Y1045D02*
X2426Y1045D01*
X0Y1044D02*
X7Y1044D01*
X2419Y1044D02*
X2426Y1044D01*
X0Y1043D02*
X7Y1043D01*
X2419Y1043D02*
X2426Y1043D01*
X0Y1042D02*
X7Y1042D01*
X2419Y1042D02*
X2426Y1042D01*
X0Y1041D02*
X7Y1041D01*
X2419Y1041D02*
X2426Y1041D01*
X0Y1040D02*
X7Y1040D01*
X2419Y1040D02*
X2426Y1040D01*
X0Y1039D02*
X7Y1039D01*
X2419Y1039D02*
X2426Y1039D01*
X0Y1038D02*
X7Y1038D01*
X2419Y1038D02*
X2426Y1038D01*
X0Y1037D02*
X7Y1037D01*
X2419Y1037D02*
X2426Y1037D01*
X0Y1036D02*
X7Y1036D01*
X2419Y1036D02*
X2426Y1036D01*
X0Y1035D02*
X7Y1035D01*
X2419Y1035D02*
X2426Y1035D01*
X0Y1034D02*
X7Y1034D01*
X2419Y1034D02*
X2426Y1034D01*
X0Y1033D02*
X7Y1033D01*
X2419Y1033D02*
X2426Y1033D01*
X0Y1032D02*
X7Y1032D01*
X2419Y1032D02*
X2426Y1032D01*
X0Y1031D02*
X7Y1031D01*
X2419Y1031D02*
X2426Y1031D01*
X0Y1030D02*
X7Y1030D01*
X2419Y1030D02*
X2426Y1030D01*
X0Y1029D02*
X7Y1029D01*
X2419Y1029D02*
X2426Y1029D01*
X0Y1028D02*
X7Y1028D01*
X2419Y1028D02*
X2426Y1028D01*
X0Y1027D02*
X7Y1027D01*
X2419Y1027D02*
X2426Y1027D01*
X0Y1026D02*
X7Y1026D01*
X2419Y1026D02*
X2426Y1026D01*
X0Y1025D02*
X7Y1025D01*
X2419Y1025D02*
X2426Y1025D01*
X0Y1024D02*
X7Y1024D01*
X2419Y1024D02*
X2426Y1024D01*
X0Y1023D02*
X7Y1023D01*
X2419Y1023D02*
X2426Y1023D01*
X0Y1022D02*
X7Y1022D01*
X2419Y1022D02*
X2426Y1022D01*
X0Y1021D02*
X7Y1021D01*
X2419Y1021D02*
X2426Y1021D01*
X0Y1020D02*
X7Y1020D01*
X2419Y1020D02*
X2426Y1020D01*
X0Y1019D02*
X7Y1019D01*
X2419Y1019D02*
X2426Y1019D01*
X0Y1018D02*
X7Y1018D01*
X2419Y1018D02*
X2426Y1018D01*
X0Y1017D02*
X7Y1017D01*
X2419Y1017D02*
X2426Y1017D01*
X0Y1016D02*
X7Y1016D01*
X2419Y1016D02*
X2426Y1016D01*
X0Y1015D02*
X7Y1015D01*
X2419Y1015D02*
X2426Y1015D01*
X0Y1014D02*
X7Y1014D01*
X2419Y1014D02*
X2426Y1014D01*
X0Y1013D02*
X7Y1013D01*
X2419Y1013D02*
X2426Y1013D01*
X0Y1012D02*
X7Y1012D01*
X2419Y1012D02*
X2426Y1012D01*
X0Y1011D02*
X7Y1011D01*
X2419Y1011D02*
X2426Y1011D01*
X0Y1010D02*
X7Y1010D01*
X2419Y1010D02*
X2426Y1010D01*
X0Y1009D02*
X7Y1009D01*
X2419Y1009D02*
X2426Y1009D01*
X0Y1008D02*
X7Y1008D01*
X2419Y1008D02*
X2426Y1008D01*
X0Y1007D02*
X7Y1007D01*
X2419Y1007D02*
X2426Y1007D01*
X0Y1006D02*
X7Y1006D01*
X2419Y1006D02*
X2426Y1006D01*
X0Y1005D02*
X7Y1005D01*
X2419Y1005D02*
X2426Y1005D01*
X0Y1004D02*
X7Y1004D01*
X2419Y1004D02*
X2426Y1004D01*
X0Y1003D02*
X7Y1003D01*
X2419Y1003D02*
X2426Y1003D01*
X0Y1002D02*
X7Y1002D01*
X2419Y1002D02*
X2426Y1002D01*
X0Y1001D02*
X7Y1001D01*
X2419Y1001D02*
X2426Y1001D01*
X0Y1000D02*
X7Y1000D01*
X2419Y1000D02*
X2426Y1000D01*
X0Y999D02*
X7Y999D01*
X2419Y999D02*
X2426Y999D01*
X0Y998D02*
X7Y998D01*
X2419Y998D02*
X2426Y998D01*
X0Y997D02*
X7Y997D01*
X2419Y997D02*
X2426Y997D01*
X0Y996D02*
X7Y996D01*
X2419Y996D02*
X2426Y996D01*
X0Y995D02*
X7Y995D01*
X2419Y995D02*
X2426Y995D01*
X0Y994D02*
X7Y994D01*
X2419Y994D02*
X2426Y994D01*
X0Y993D02*
X7Y993D01*
X2419Y993D02*
X2426Y993D01*
X0Y992D02*
X7Y992D01*
X2419Y992D02*
X2426Y992D01*
X0Y991D02*
X7Y991D01*
X2419Y991D02*
X2426Y991D01*
X0Y990D02*
X7Y990D01*
X2419Y990D02*
X2426Y990D01*
X0Y989D02*
X7Y989D01*
X2419Y989D02*
X2426Y989D01*
X0Y988D02*
X7Y988D01*
X2419Y988D02*
X2426Y988D01*
X0Y987D02*
X7Y987D01*
X2419Y987D02*
X2426Y987D01*
X0Y986D02*
X7Y986D01*
X2419Y986D02*
X2426Y986D01*
X0Y985D02*
X7Y985D01*
X2419Y985D02*
X2426Y985D01*
X0Y984D02*
X7Y984D01*
X2419Y984D02*
X2426Y984D01*
X0Y983D02*
X7Y983D01*
X2419Y983D02*
X2426Y983D01*
X0Y982D02*
X7Y982D01*
X2419Y982D02*
X2426Y982D01*
X0Y981D02*
X7Y981D01*
X2419Y981D02*
X2426Y981D01*
X0Y980D02*
X7Y980D01*
X2419Y980D02*
X2426Y980D01*
X0Y979D02*
X7Y979D01*
X2419Y979D02*
X2426Y979D01*
X0Y978D02*
X7Y978D01*
X2419Y978D02*
X2426Y978D01*
X0Y977D02*
X7Y977D01*
X2419Y977D02*
X2426Y977D01*
X0Y976D02*
X7Y976D01*
X2419Y976D02*
X2426Y976D01*
X0Y975D02*
X7Y975D01*
X2419Y975D02*
X2426Y975D01*
X0Y974D02*
X7Y974D01*
X2419Y974D02*
X2426Y974D01*
X0Y973D02*
X7Y973D01*
X2419Y973D02*
X2426Y973D01*
X0Y972D02*
X7Y972D01*
X2419Y972D02*
X2426Y972D01*
X0Y971D02*
X7Y971D01*
X2419Y971D02*
X2426Y971D01*
X0Y970D02*
X7Y970D01*
X2419Y970D02*
X2426Y970D01*
X0Y969D02*
X7Y969D01*
X2419Y969D02*
X2426Y969D01*
X0Y968D02*
X7Y968D01*
X2419Y968D02*
X2426Y968D01*
X0Y967D02*
X7Y967D01*
X2419Y967D02*
X2426Y967D01*
X0Y966D02*
X7Y966D01*
X2419Y966D02*
X2426Y966D01*
X0Y965D02*
X7Y965D01*
X2419Y965D02*
X2426Y965D01*
X0Y964D02*
X7Y964D01*
X2419Y964D02*
X2426Y964D01*
X0Y963D02*
X7Y963D01*
X2419Y963D02*
X2426Y963D01*
X0Y962D02*
X7Y962D01*
X2419Y962D02*
X2426Y962D01*
X0Y961D02*
X7Y961D01*
X2419Y961D02*
X2426Y961D01*
X0Y960D02*
X7Y960D01*
X2419Y960D02*
X2426Y960D01*
X0Y959D02*
X7Y959D01*
X2419Y959D02*
X2426Y959D01*
X0Y958D02*
X7Y958D01*
X2419Y958D02*
X2426Y958D01*
X0Y957D02*
X7Y957D01*
X2419Y957D02*
X2426Y957D01*
X0Y956D02*
X7Y956D01*
X2419Y956D02*
X2426Y956D01*
X0Y955D02*
X7Y955D01*
X2419Y955D02*
X2426Y955D01*
X0Y954D02*
X7Y954D01*
X2419Y954D02*
X2426Y954D01*
X0Y953D02*
X7Y953D01*
X2419Y953D02*
X2426Y953D01*
X0Y952D02*
X7Y952D01*
X2419Y952D02*
X2426Y952D01*
X0Y951D02*
X7Y951D01*
X2419Y951D02*
X2426Y951D01*
X0Y950D02*
X7Y950D01*
X2419Y950D02*
X2426Y950D01*
X0Y949D02*
X7Y949D01*
X2419Y949D02*
X2426Y949D01*
X0Y948D02*
X7Y948D01*
X2419Y948D02*
X2426Y948D01*
X0Y947D02*
X7Y947D01*
X2419Y947D02*
X2426Y947D01*
X0Y946D02*
X7Y946D01*
X2419Y946D02*
X2426Y946D01*
X0Y945D02*
X7Y945D01*
X2419Y945D02*
X2426Y945D01*
X0Y944D02*
X7Y944D01*
X2419Y944D02*
X2426Y944D01*
X0Y943D02*
X7Y943D01*
X2419Y943D02*
X2426Y943D01*
X0Y942D02*
X7Y942D01*
X2419Y942D02*
X2426Y942D01*
X0Y941D02*
X7Y941D01*
X2419Y941D02*
X2426Y941D01*
X0Y940D02*
X7Y940D01*
X2419Y940D02*
X2426Y940D01*
X0Y939D02*
X7Y939D01*
X2419Y939D02*
X2426Y939D01*
X0Y938D02*
X7Y938D01*
X2419Y938D02*
X2426Y938D01*
X0Y937D02*
X7Y937D01*
X2419Y937D02*
X2426Y937D01*
X0Y936D02*
X7Y936D01*
X2419Y936D02*
X2426Y936D01*
X0Y935D02*
X7Y935D01*
X2419Y935D02*
X2426Y935D01*
X0Y934D02*
X7Y934D01*
X2419Y934D02*
X2426Y934D01*
X0Y933D02*
X7Y933D01*
X2419Y933D02*
X2426Y933D01*
X0Y932D02*
X7Y932D01*
X2419Y932D02*
X2426Y932D01*
X0Y931D02*
X7Y931D01*
X2419Y931D02*
X2426Y931D01*
X0Y930D02*
X7Y930D01*
X2419Y930D02*
X2426Y930D01*
X0Y929D02*
X7Y929D01*
X2419Y929D02*
X2426Y929D01*
X0Y928D02*
X7Y928D01*
X2419Y928D02*
X2426Y928D01*
X0Y927D02*
X7Y927D01*
X2419Y927D02*
X2426Y927D01*
X0Y926D02*
X7Y926D01*
X2419Y926D02*
X2426Y926D01*
X0Y925D02*
X7Y925D01*
X2419Y925D02*
X2426Y925D01*
X0Y924D02*
X7Y924D01*
X2419Y924D02*
X2426Y924D01*
X0Y923D02*
X7Y923D01*
X2419Y923D02*
X2426Y923D01*
X0Y922D02*
X7Y922D01*
X2419Y922D02*
X2426Y922D01*
X0Y921D02*
X7Y921D01*
X2419Y921D02*
X2426Y921D01*
X0Y920D02*
X7Y920D01*
X2419Y920D02*
X2426Y920D01*
X0Y919D02*
X7Y919D01*
X2419Y919D02*
X2426Y919D01*
X0Y918D02*
X7Y918D01*
X2419Y918D02*
X2426Y918D01*
X0Y917D02*
X7Y917D01*
X2419Y917D02*
X2426Y917D01*
X0Y916D02*
X7Y916D01*
X2419Y916D02*
X2426Y916D01*
X0Y915D02*
X7Y915D01*
X2419Y915D02*
X2426Y915D01*
X0Y914D02*
X7Y914D01*
X2419Y914D02*
X2426Y914D01*
X0Y913D02*
X7Y913D01*
X2419Y913D02*
X2426Y913D01*
X0Y912D02*
X7Y912D01*
X2419Y912D02*
X2426Y912D01*
X0Y911D02*
X7Y911D01*
X2419Y911D02*
X2426Y911D01*
X0Y910D02*
X7Y910D01*
X2419Y910D02*
X2426Y910D01*
X0Y909D02*
X7Y909D01*
X2419Y909D02*
X2426Y909D01*
X0Y908D02*
X7Y908D01*
X2419Y908D02*
X2426Y908D01*
X0Y907D02*
X7Y907D01*
X2419Y907D02*
X2426Y907D01*
X0Y906D02*
X7Y906D01*
X2419Y906D02*
X2426Y906D01*
X0Y905D02*
X7Y905D01*
X2419Y905D02*
X2426Y905D01*
X0Y904D02*
X7Y904D01*
X2419Y904D02*
X2426Y904D01*
X0Y903D02*
X7Y903D01*
X2419Y903D02*
X2426Y903D01*
X0Y902D02*
X7Y902D01*
X2419Y902D02*
X2426Y902D01*
X0Y901D02*
X7Y901D01*
X2419Y901D02*
X2426Y901D01*
X0Y900D02*
X7Y900D01*
X2419Y900D02*
X2426Y900D01*
X0Y899D02*
X7Y899D01*
X2419Y899D02*
X2426Y899D01*
X0Y898D02*
X7Y898D01*
X2419Y898D02*
X2426Y898D01*
X0Y897D02*
X7Y897D01*
X2419Y897D02*
X2426Y897D01*
X0Y896D02*
X7Y896D01*
X2419Y896D02*
X2426Y896D01*
X0Y895D02*
X7Y895D01*
X2419Y895D02*
X2426Y895D01*
X0Y894D02*
X7Y894D01*
X2419Y894D02*
X2426Y894D01*
X0Y893D02*
X7Y893D01*
X2419Y893D02*
X2426Y893D01*
X0Y892D02*
X7Y892D01*
X2419Y892D02*
X2426Y892D01*
X0Y891D02*
X7Y891D01*
X2419Y891D02*
X2426Y891D01*
X0Y890D02*
X7Y890D01*
X2419Y890D02*
X2426Y890D01*
X0Y889D02*
X7Y889D01*
X2419Y889D02*
X2426Y889D01*
X0Y888D02*
X7Y888D01*
X2419Y888D02*
X2426Y888D01*
X0Y887D02*
X7Y887D01*
X2419Y887D02*
X2426Y887D01*
X0Y886D02*
X7Y886D01*
X2419Y886D02*
X2426Y886D01*
X0Y885D02*
X7Y885D01*
X2419Y885D02*
X2426Y885D01*
X0Y884D02*
X7Y884D01*
X2419Y884D02*
X2426Y884D01*
X0Y883D02*
X7Y883D01*
X2419Y883D02*
X2426Y883D01*
X0Y882D02*
X7Y882D01*
X2419Y882D02*
X2426Y882D01*
X0Y881D02*
X7Y881D01*
X2419Y881D02*
X2426Y881D01*
X0Y880D02*
X7Y880D01*
X2419Y880D02*
X2426Y880D01*
X0Y879D02*
X7Y879D01*
X2419Y879D02*
X2426Y879D01*
X0Y878D02*
X7Y878D01*
X2419Y878D02*
X2426Y878D01*
X0Y877D02*
X7Y877D01*
X2419Y877D02*
X2426Y877D01*
X0Y876D02*
X7Y876D01*
X2419Y876D02*
X2426Y876D01*
X0Y875D02*
X7Y875D01*
X2419Y875D02*
X2426Y875D01*
X0Y874D02*
X7Y874D01*
X2419Y874D02*
X2426Y874D01*
X0Y873D02*
X7Y873D01*
X2419Y873D02*
X2426Y873D01*
X0Y872D02*
X7Y872D01*
X2419Y872D02*
X2426Y872D01*
X0Y871D02*
X7Y871D01*
X2419Y871D02*
X2426Y871D01*
X0Y870D02*
X7Y870D01*
X2419Y870D02*
X2426Y870D01*
X0Y869D02*
X7Y869D01*
X2419Y869D02*
X2426Y869D01*
X0Y868D02*
X7Y868D01*
X2419Y868D02*
X2426Y868D01*
X0Y867D02*
X7Y867D01*
X2419Y867D02*
X2426Y867D01*
X0Y866D02*
X7Y866D01*
X2419Y866D02*
X2426Y866D01*
X0Y865D02*
X7Y865D01*
X2419Y865D02*
X2426Y865D01*
X0Y864D02*
X7Y864D01*
X2419Y864D02*
X2426Y864D01*
X0Y863D02*
X7Y863D01*
X2419Y863D02*
X2426Y863D01*
X0Y862D02*
X7Y862D01*
X2419Y862D02*
X2426Y862D01*
X0Y861D02*
X7Y861D01*
X2419Y861D02*
X2426Y861D01*
X0Y860D02*
X7Y860D01*
X2419Y860D02*
X2426Y860D01*
X0Y859D02*
X7Y859D01*
X2419Y859D02*
X2426Y859D01*
X0Y858D02*
X7Y858D01*
X2419Y858D02*
X2426Y858D01*
X0Y857D02*
X7Y857D01*
X2419Y857D02*
X2426Y857D01*
X0Y856D02*
X7Y856D01*
X2419Y856D02*
X2426Y856D01*
X0Y855D02*
X7Y855D01*
X2419Y855D02*
X2426Y855D01*
X0Y854D02*
X7Y854D01*
X2419Y854D02*
X2426Y854D01*
X0Y853D02*
X7Y853D01*
X2419Y853D02*
X2426Y853D01*
X0Y852D02*
X7Y852D01*
X2419Y852D02*
X2426Y852D01*
X0Y851D02*
X7Y851D01*
X2419Y851D02*
X2426Y851D01*
X0Y850D02*
X7Y850D01*
X2419Y850D02*
X2426Y850D01*
X0Y849D02*
X7Y849D01*
X2419Y849D02*
X2426Y849D01*
X0Y848D02*
X7Y848D01*
X2419Y848D02*
X2426Y848D01*
X0Y847D02*
X7Y847D01*
X2419Y847D02*
X2426Y847D01*
X0Y846D02*
X7Y846D01*
X2419Y846D02*
X2426Y846D01*
X0Y845D02*
X7Y845D01*
X2419Y845D02*
X2426Y845D01*
X0Y844D02*
X7Y844D01*
X2419Y844D02*
X2426Y844D01*
X0Y843D02*
X7Y843D01*
X2419Y843D02*
X2426Y843D01*
X0Y842D02*
X7Y842D01*
X2419Y842D02*
X2426Y842D01*
X0Y841D02*
X7Y841D01*
X2419Y841D02*
X2426Y841D01*
X0Y840D02*
X7Y840D01*
X2419Y840D02*
X2426Y840D01*
X0Y839D02*
X7Y839D01*
X2419Y839D02*
X2426Y839D01*
X0Y838D02*
X7Y838D01*
X2419Y838D02*
X2426Y838D01*
X0Y837D02*
X7Y837D01*
X2419Y837D02*
X2426Y837D01*
X0Y836D02*
X7Y836D01*
X2419Y836D02*
X2426Y836D01*
X0Y835D02*
X7Y835D01*
X2419Y835D02*
X2426Y835D01*
X0Y834D02*
X7Y834D01*
X2419Y834D02*
X2426Y834D01*
X0Y833D02*
X7Y833D01*
X2419Y833D02*
X2426Y833D01*
X0Y832D02*
X7Y832D01*
X2419Y832D02*
X2426Y832D01*
X0Y831D02*
X7Y831D01*
X2419Y831D02*
X2426Y831D01*
X0Y830D02*
X7Y830D01*
X2419Y830D02*
X2426Y830D01*
X0Y829D02*
X7Y829D01*
X2419Y829D02*
X2426Y829D01*
X0Y828D02*
X7Y828D01*
X2419Y828D02*
X2426Y828D01*
X0Y827D02*
X7Y827D01*
X2419Y827D02*
X2426Y827D01*
X0Y826D02*
X7Y826D01*
X2419Y826D02*
X2426Y826D01*
X0Y825D02*
X7Y825D01*
X2419Y825D02*
X2426Y825D01*
X0Y824D02*
X7Y824D01*
X2419Y824D02*
X2426Y824D01*
X0Y823D02*
X7Y823D01*
X2419Y823D02*
X2426Y823D01*
X0Y822D02*
X7Y822D01*
X2419Y822D02*
X2426Y822D01*
X0Y821D02*
X7Y821D01*
X2419Y821D02*
X2426Y821D01*
X0Y820D02*
X7Y820D01*
X2419Y820D02*
X2426Y820D01*
X0Y819D02*
X7Y819D01*
X2419Y819D02*
X2426Y819D01*
X0Y818D02*
X7Y818D01*
X2419Y818D02*
X2426Y818D01*
X0Y817D02*
X7Y817D01*
X2419Y817D02*
X2426Y817D01*
X0Y816D02*
X7Y816D01*
X2419Y816D02*
X2426Y816D01*
X0Y815D02*
X7Y815D01*
X2419Y815D02*
X2426Y815D01*
X0Y814D02*
X7Y814D01*
X2419Y814D02*
X2426Y814D01*
X0Y813D02*
X7Y813D01*
X2419Y813D02*
X2426Y813D01*
X0Y812D02*
X7Y812D01*
X2419Y812D02*
X2426Y812D01*
X0Y811D02*
X7Y811D01*
X2419Y811D02*
X2426Y811D01*
X0Y810D02*
X7Y810D01*
X2419Y810D02*
X2426Y810D01*
X0Y809D02*
X7Y809D01*
X2419Y809D02*
X2426Y809D01*
X0Y808D02*
X7Y808D01*
X2419Y808D02*
X2426Y808D01*
X0Y807D02*
X7Y807D01*
X2419Y807D02*
X2426Y807D01*
X0Y806D02*
X7Y806D01*
X2419Y806D02*
X2426Y806D01*
X0Y805D02*
X7Y805D01*
X2419Y805D02*
X2426Y805D01*
X0Y804D02*
X7Y804D01*
X2419Y804D02*
X2426Y804D01*
X0Y803D02*
X7Y803D01*
X2419Y803D02*
X2426Y803D01*
X0Y802D02*
X7Y802D01*
X2419Y802D02*
X2426Y802D01*
X0Y801D02*
X7Y801D01*
X2419Y801D02*
X2426Y801D01*
X0Y800D02*
X7Y800D01*
X2419Y800D02*
X2426Y800D01*
X0Y799D02*
X7Y799D01*
X2419Y799D02*
X2426Y799D01*
X0Y798D02*
X7Y798D01*
X2419Y798D02*
X2426Y798D01*
X0Y797D02*
X7Y797D01*
X2419Y797D02*
X2426Y797D01*
X0Y796D02*
X7Y796D01*
X2419Y796D02*
X2426Y796D01*
X0Y795D02*
X7Y795D01*
X2419Y795D02*
X2426Y795D01*
X0Y794D02*
X7Y794D01*
X2419Y794D02*
X2426Y794D01*
X0Y793D02*
X7Y793D01*
X2419Y793D02*
X2426Y793D01*
X0Y792D02*
X7Y792D01*
X2419Y792D02*
X2426Y792D01*
X0Y791D02*
X7Y791D01*
X2419Y791D02*
X2426Y791D01*
X0Y790D02*
X7Y790D01*
X2419Y790D02*
X2426Y790D01*
X0Y789D02*
X7Y789D01*
X2419Y789D02*
X2426Y789D01*
X0Y788D02*
X7Y788D01*
X2419Y788D02*
X2426Y788D01*
X0Y787D02*
X7Y787D01*
X2419Y787D02*
X2426Y787D01*
X0Y786D02*
X7Y786D01*
X2419Y786D02*
X2426Y786D01*
X0Y785D02*
X7Y785D01*
X2419Y785D02*
X2426Y785D01*
X0Y784D02*
X7Y784D01*
X2419Y784D02*
X2426Y784D01*
X0Y783D02*
X7Y783D01*
X2419Y783D02*
X2426Y783D01*
X0Y782D02*
X7Y782D01*
X2419Y782D02*
X2426Y782D01*
X0Y781D02*
X7Y781D01*
X2419Y781D02*
X2426Y781D01*
X0Y780D02*
X7Y780D01*
X2419Y780D02*
X2426Y780D01*
X0Y779D02*
X7Y779D01*
X2419Y779D02*
X2426Y779D01*
X0Y778D02*
X7Y778D01*
X2419Y778D02*
X2426Y778D01*
X0Y777D02*
X7Y777D01*
X2419Y777D02*
X2426Y777D01*
X0Y776D02*
X7Y776D01*
X2419Y776D02*
X2426Y776D01*
X0Y775D02*
X7Y775D01*
X2419Y775D02*
X2426Y775D01*
X0Y774D02*
X7Y774D01*
X2419Y774D02*
X2426Y774D01*
X0Y773D02*
X7Y773D01*
X2419Y773D02*
X2426Y773D01*
X0Y772D02*
X7Y772D01*
X2419Y772D02*
X2426Y772D01*
X0Y771D02*
X7Y771D01*
X2419Y771D02*
X2426Y771D01*
X0Y770D02*
X7Y770D01*
X2419Y770D02*
X2426Y770D01*
X0Y769D02*
X7Y769D01*
X2419Y769D02*
X2426Y769D01*
X0Y768D02*
X7Y768D01*
X2419Y768D02*
X2426Y768D01*
X0Y767D02*
X7Y767D01*
X2419Y767D02*
X2426Y767D01*
X0Y766D02*
X7Y766D01*
X2419Y766D02*
X2426Y766D01*
X0Y765D02*
X7Y765D01*
X2419Y765D02*
X2426Y765D01*
X0Y764D02*
X7Y764D01*
X2419Y764D02*
X2426Y764D01*
X0Y763D02*
X7Y763D01*
X2419Y763D02*
X2426Y763D01*
X0Y762D02*
X7Y762D01*
X2419Y762D02*
X2426Y762D01*
X0Y761D02*
X7Y761D01*
X2419Y761D02*
X2426Y761D01*
X0Y760D02*
X7Y760D01*
X2419Y760D02*
X2426Y760D01*
X0Y759D02*
X7Y759D01*
X2419Y759D02*
X2426Y759D01*
X0Y758D02*
X7Y758D01*
X2419Y758D02*
X2426Y758D01*
X0Y757D02*
X7Y757D01*
X2419Y757D02*
X2426Y757D01*
X0Y756D02*
X7Y756D01*
X2419Y756D02*
X2426Y756D01*
X0Y755D02*
X7Y755D01*
X2419Y755D02*
X2426Y755D01*
X0Y754D02*
X7Y754D01*
X2419Y754D02*
X2426Y754D01*
X0Y753D02*
X7Y753D01*
X2419Y753D02*
X2426Y753D01*
X0Y752D02*
X7Y752D01*
X2419Y752D02*
X2426Y752D01*
X0Y751D02*
X7Y751D01*
X2419Y751D02*
X2426Y751D01*
X0Y750D02*
X7Y750D01*
X2419Y750D02*
X2426Y750D01*
X0Y749D02*
X7Y749D01*
X2419Y749D02*
X2426Y749D01*
X0Y748D02*
X7Y748D01*
X2419Y748D02*
X2426Y748D01*
X0Y747D02*
X7Y747D01*
X2419Y747D02*
X2426Y747D01*
X0Y746D02*
X7Y746D01*
X2419Y746D02*
X2426Y746D01*
X0Y745D02*
X7Y745D01*
X2419Y745D02*
X2426Y745D01*
X0Y744D02*
X7Y744D01*
X2419Y744D02*
X2426Y744D01*
X0Y743D02*
X7Y743D01*
X2419Y743D02*
X2426Y743D01*
X0Y742D02*
X7Y742D01*
X2419Y742D02*
X2426Y742D01*
X0Y741D02*
X7Y741D01*
X2419Y741D02*
X2426Y741D01*
X0Y740D02*
X7Y740D01*
X2419Y740D02*
X2426Y740D01*
X0Y739D02*
X7Y739D01*
X2419Y739D02*
X2426Y739D01*
X0Y738D02*
X7Y738D01*
X2419Y738D02*
X2426Y738D01*
X0Y737D02*
X7Y737D01*
X2419Y737D02*
X2426Y737D01*
X0Y736D02*
X7Y736D01*
X2419Y736D02*
X2426Y736D01*
X0Y735D02*
X7Y735D01*
X2419Y735D02*
X2426Y735D01*
X0Y734D02*
X7Y734D01*
X2419Y734D02*
X2426Y734D01*
X0Y733D02*
X7Y733D01*
X2419Y733D02*
X2426Y733D01*
X0Y732D02*
X7Y732D01*
X2419Y732D02*
X2426Y732D01*
X0Y731D02*
X7Y731D01*
X2419Y731D02*
X2426Y731D01*
X0Y730D02*
X7Y730D01*
X2419Y730D02*
X2426Y730D01*
X0Y729D02*
X7Y729D01*
X2419Y729D02*
X2426Y729D01*
X0Y728D02*
X7Y728D01*
X2419Y728D02*
X2426Y728D01*
X0Y727D02*
X7Y727D01*
X2419Y727D02*
X2426Y727D01*
X0Y726D02*
X7Y726D01*
X2419Y726D02*
X2426Y726D01*
X0Y725D02*
X7Y725D01*
X2419Y725D02*
X2426Y725D01*
X0Y724D02*
X7Y724D01*
X2419Y724D02*
X2426Y724D01*
X0Y723D02*
X7Y723D01*
X2419Y723D02*
X2426Y723D01*
X0Y722D02*
X7Y722D01*
X2419Y722D02*
X2426Y722D01*
X0Y721D02*
X7Y721D01*
X2419Y721D02*
X2426Y721D01*
X0Y720D02*
X7Y720D01*
X2419Y720D02*
X2426Y720D01*
X0Y719D02*
X7Y719D01*
X2419Y719D02*
X2426Y719D01*
X0Y718D02*
X7Y718D01*
X2419Y718D02*
X2426Y718D01*
X0Y717D02*
X7Y717D01*
X2419Y717D02*
X2426Y717D01*
X0Y716D02*
X7Y716D01*
X2419Y716D02*
X2426Y716D01*
X0Y715D02*
X7Y715D01*
X2419Y715D02*
X2426Y715D01*
X0Y714D02*
X7Y714D01*
X2419Y714D02*
X2426Y714D01*
X0Y713D02*
X7Y713D01*
X2419Y713D02*
X2426Y713D01*
X0Y712D02*
X7Y712D01*
X2419Y712D02*
X2426Y712D01*
X0Y711D02*
X7Y711D01*
X2419Y711D02*
X2426Y711D01*
X0Y710D02*
X7Y710D01*
X2419Y710D02*
X2426Y710D01*
X0Y709D02*
X7Y709D01*
X2419Y709D02*
X2426Y709D01*
X0Y708D02*
X7Y708D01*
X2419Y708D02*
X2426Y708D01*
X0Y707D02*
X7Y707D01*
X2419Y707D02*
X2426Y707D01*
X0Y706D02*
X7Y706D01*
X2419Y706D02*
X2426Y706D01*
X0Y705D02*
X7Y705D01*
X2419Y705D02*
X2426Y705D01*
X0Y704D02*
X7Y704D01*
X2419Y704D02*
X2426Y704D01*
X0Y703D02*
X7Y703D01*
X2419Y703D02*
X2426Y703D01*
X0Y702D02*
X7Y702D01*
X2419Y702D02*
X2426Y702D01*
X0Y701D02*
X7Y701D01*
X2419Y701D02*
X2426Y701D01*
X0Y700D02*
X7Y700D01*
X2419Y700D02*
X2426Y700D01*
X0Y699D02*
X7Y699D01*
X2419Y699D02*
X2426Y699D01*
X0Y698D02*
X7Y698D01*
X2419Y698D02*
X2426Y698D01*
X0Y697D02*
X7Y697D01*
X2419Y697D02*
X2426Y697D01*
X0Y696D02*
X7Y696D01*
X2419Y696D02*
X2426Y696D01*
X0Y695D02*
X7Y695D01*
X2419Y695D02*
X2426Y695D01*
X0Y694D02*
X7Y694D01*
X2419Y694D02*
X2426Y694D01*
X0Y693D02*
X7Y693D01*
X2419Y693D02*
X2426Y693D01*
X0Y692D02*
X7Y692D01*
X2419Y692D02*
X2426Y692D01*
X0Y691D02*
X7Y691D01*
X2419Y691D02*
X2426Y691D01*
X0Y690D02*
X7Y690D01*
X2419Y690D02*
X2426Y690D01*
X0Y689D02*
X7Y689D01*
X2419Y689D02*
X2426Y689D01*
X0Y688D02*
X7Y688D01*
X2419Y688D02*
X2426Y688D01*
X0Y687D02*
X7Y687D01*
X2419Y687D02*
X2426Y687D01*
X0Y686D02*
X7Y686D01*
X2419Y686D02*
X2426Y686D01*
X0Y685D02*
X7Y685D01*
X2419Y685D02*
X2426Y685D01*
X0Y684D02*
X7Y684D01*
X2419Y684D02*
X2426Y684D01*
X0Y683D02*
X7Y683D01*
X2419Y683D02*
X2426Y683D01*
X0Y682D02*
X7Y682D01*
X2419Y682D02*
X2426Y682D01*
X0Y681D02*
X7Y681D01*
X2419Y681D02*
X2426Y681D01*
X0Y680D02*
X7Y680D01*
X2419Y680D02*
X2426Y680D01*
X0Y679D02*
X7Y679D01*
X2419Y679D02*
X2426Y679D01*
X0Y678D02*
X7Y678D01*
X2419Y678D02*
X2426Y678D01*
X0Y677D02*
X7Y677D01*
X2419Y677D02*
X2426Y677D01*
X0Y676D02*
X7Y676D01*
X2419Y676D02*
X2426Y676D01*
X0Y675D02*
X7Y675D01*
X2419Y675D02*
X2426Y675D01*
X0Y674D02*
X7Y674D01*
X2419Y674D02*
X2426Y674D01*
X0Y673D02*
X7Y673D01*
X2419Y673D02*
X2426Y673D01*
X0Y672D02*
X7Y672D01*
X2419Y672D02*
X2426Y672D01*
X0Y671D02*
X7Y671D01*
X2419Y671D02*
X2426Y671D01*
X0Y670D02*
X7Y670D01*
X2419Y670D02*
X2426Y670D01*
X0Y669D02*
X7Y669D01*
X2419Y669D02*
X2426Y669D01*
X0Y668D02*
X7Y668D01*
X2419Y668D02*
X2426Y668D01*
X0Y667D02*
X7Y667D01*
X2419Y667D02*
X2426Y667D01*
X0Y666D02*
X7Y666D01*
X2419Y666D02*
X2426Y666D01*
X0Y665D02*
X7Y665D01*
X2419Y665D02*
X2426Y665D01*
X0Y664D02*
X7Y664D01*
X2419Y664D02*
X2426Y664D01*
X0Y663D02*
X7Y663D01*
X2419Y663D02*
X2426Y663D01*
X0Y662D02*
X7Y662D01*
X2419Y662D02*
X2426Y662D01*
X0Y661D02*
X7Y661D01*
X2419Y661D02*
X2426Y661D01*
X0Y660D02*
X7Y660D01*
X2419Y660D02*
X2426Y660D01*
X0Y659D02*
X7Y659D01*
X2419Y659D02*
X2426Y659D01*
X0Y658D02*
X7Y658D01*
X2419Y658D02*
X2426Y658D01*
X0Y657D02*
X7Y657D01*
X2419Y657D02*
X2426Y657D01*
X0Y656D02*
X7Y656D01*
X2419Y656D02*
X2426Y656D01*
X0Y655D02*
X7Y655D01*
X2419Y655D02*
X2426Y655D01*
X0Y654D02*
X7Y654D01*
X2419Y654D02*
X2426Y654D01*
X0Y653D02*
X7Y653D01*
X2419Y653D02*
X2426Y653D01*
X0Y652D02*
X7Y652D01*
X2419Y652D02*
X2426Y652D01*
X0Y651D02*
X7Y651D01*
X2419Y651D02*
X2426Y651D01*
X0Y650D02*
X7Y650D01*
X2419Y650D02*
X2426Y650D01*
X0Y649D02*
X7Y649D01*
X2419Y649D02*
X2426Y649D01*
X0Y648D02*
X7Y648D01*
X2419Y648D02*
X2426Y648D01*
X0Y647D02*
X7Y647D01*
X2419Y647D02*
X2426Y647D01*
X0Y646D02*
X7Y646D01*
X2419Y646D02*
X2426Y646D01*
X0Y645D02*
X7Y645D01*
X2419Y645D02*
X2426Y645D01*
X0Y644D02*
X7Y644D01*
X2419Y644D02*
X2426Y644D01*
X0Y643D02*
X7Y643D01*
X2419Y643D02*
X2426Y643D01*
X0Y642D02*
X7Y642D01*
X2419Y642D02*
X2426Y642D01*
X0Y641D02*
X7Y641D01*
X2419Y641D02*
X2426Y641D01*
X0Y640D02*
X7Y640D01*
X2419Y640D02*
X2426Y640D01*
X0Y639D02*
X7Y639D01*
X2419Y639D02*
X2426Y639D01*
X0Y638D02*
X7Y638D01*
X2419Y638D02*
X2426Y638D01*
X0Y637D02*
X7Y637D01*
X2419Y637D02*
X2426Y637D01*
X0Y636D02*
X7Y636D01*
X2419Y636D02*
X2426Y636D01*
X0Y635D02*
X7Y635D01*
X2419Y635D02*
X2426Y635D01*
X0Y634D02*
X7Y634D01*
X2419Y634D02*
X2426Y634D01*
X0Y633D02*
X7Y633D01*
X2419Y633D02*
X2426Y633D01*
X0Y632D02*
X7Y632D01*
X2419Y632D02*
X2426Y632D01*
X0Y631D02*
X7Y631D01*
X2419Y631D02*
X2426Y631D01*
X0Y630D02*
X7Y630D01*
X2419Y630D02*
X2426Y630D01*
X0Y629D02*
X7Y629D01*
X2419Y629D02*
X2426Y629D01*
X0Y628D02*
X7Y628D01*
X2419Y628D02*
X2426Y628D01*
X0Y627D02*
X7Y627D01*
X2419Y627D02*
X2426Y627D01*
X0Y626D02*
X7Y626D01*
X2419Y626D02*
X2426Y626D01*
X0Y625D02*
X7Y625D01*
X2419Y625D02*
X2426Y625D01*
X0Y624D02*
X7Y624D01*
X2419Y624D02*
X2426Y624D01*
X0Y623D02*
X7Y623D01*
X2419Y623D02*
X2426Y623D01*
X0Y622D02*
X7Y622D01*
X2419Y622D02*
X2426Y622D01*
X0Y621D02*
X7Y621D01*
X2419Y621D02*
X2426Y621D01*
X0Y620D02*
X7Y620D01*
X2419Y620D02*
X2426Y620D01*
X0Y619D02*
X7Y619D01*
X2419Y619D02*
X2426Y619D01*
X0Y618D02*
X7Y618D01*
X2419Y618D02*
X2426Y618D01*
X0Y617D02*
X7Y617D01*
X2419Y617D02*
X2426Y617D01*
X0Y616D02*
X7Y616D01*
X2419Y616D02*
X2426Y616D01*
X0Y615D02*
X7Y615D01*
X2419Y615D02*
X2426Y615D01*
X0Y614D02*
X7Y614D01*
X2419Y614D02*
X2426Y614D01*
X0Y613D02*
X7Y613D01*
X2419Y613D02*
X2426Y613D01*
X0Y612D02*
X7Y612D01*
X2419Y612D02*
X2426Y612D01*
X0Y611D02*
X7Y611D01*
X2419Y611D02*
X2426Y611D01*
X0Y610D02*
X7Y610D01*
X2419Y610D02*
X2426Y610D01*
X0Y609D02*
X7Y609D01*
X2419Y609D02*
X2426Y609D01*
X0Y608D02*
X7Y608D01*
X2419Y608D02*
X2426Y608D01*
X0Y607D02*
X7Y607D01*
X2419Y607D02*
X2426Y607D01*
X0Y606D02*
X7Y606D01*
X2419Y606D02*
X2426Y606D01*
X0Y605D02*
X7Y605D01*
X2419Y605D02*
X2426Y605D01*
X0Y604D02*
X7Y604D01*
X2419Y604D02*
X2426Y604D01*
X0Y603D02*
X7Y603D01*
X2419Y603D02*
X2426Y603D01*
X0Y602D02*
X7Y602D01*
X2419Y602D02*
X2426Y602D01*
X0Y601D02*
X7Y601D01*
X2419Y601D02*
X2426Y601D01*
X0Y600D02*
X7Y600D01*
X2419Y600D02*
X2426Y600D01*
X0Y599D02*
X7Y599D01*
X2419Y599D02*
X2426Y599D01*
X0Y598D02*
X7Y598D01*
X2419Y598D02*
X2426Y598D01*
X0Y597D02*
X7Y597D01*
X2419Y597D02*
X2426Y597D01*
X0Y596D02*
X7Y596D01*
X2419Y596D02*
X2426Y596D01*
X0Y595D02*
X7Y595D01*
X2419Y595D02*
X2426Y595D01*
X0Y594D02*
X7Y594D01*
X2419Y594D02*
X2426Y594D01*
X0Y593D02*
X7Y593D01*
X2419Y593D02*
X2426Y593D01*
X0Y592D02*
X7Y592D01*
X2419Y592D02*
X2426Y592D01*
X0Y591D02*
X7Y591D01*
X2419Y591D02*
X2426Y591D01*
X0Y590D02*
X7Y590D01*
X2419Y590D02*
X2426Y590D01*
X0Y589D02*
X7Y589D01*
X2419Y589D02*
X2426Y589D01*
X0Y588D02*
X7Y588D01*
X2419Y588D02*
X2426Y588D01*
X0Y587D02*
X7Y587D01*
X2419Y587D02*
X2426Y587D01*
X0Y586D02*
X7Y586D01*
X2419Y586D02*
X2426Y586D01*
X0Y585D02*
X7Y585D01*
X2419Y585D02*
X2426Y585D01*
X0Y584D02*
X7Y584D01*
X2419Y584D02*
X2426Y584D01*
X0Y583D02*
X7Y583D01*
X2419Y583D02*
X2426Y583D01*
X0Y582D02*
X7Y582D01*
X2419Y582D02*
X2426Y582D01*
X0Y581D02*
X7Y581D01*
X2419Y581D02*
X2426Y581D01*
X0Y580D02*
X7Y580D01*
X2419Y580D02*
X2426Y580D01*
X0Y579D02*
X7Y579D01*
X2419Y579D02*
X2426Y579D01*
X0Y578D02*
X7Y578D01*
X2419Y578D02*
X2426Y578D01*
X0Y577D02*
X7Y577D01*
X2419Y577D02*
X2426Y577D01*
X0Y576D02*
X7Y576D01*
X2419Y576D02*
X2426Y576D01*
X0Y575D02*
X7Y575D01*
X2419Y575D02*
X2426Y575D01*
X0Y574D02*
X7Y574D01*
X2419Y574D02*
X2426Y574D01*
X0Y573D02*
X7Y573D01*
X2419Y573D02*
X2426Y573D01*
X0Y572D02*
X7Y572D01*
X2419Y572D02*
X2426Y572D01*
X0Y571D02*
X7Y571D01*
X2419Y571D02*
X2426Y571D01*
X0Y570D02*
X7Y570D01*
X2419Y570D02*
X2426Y570D01*
X0Y569D02*
X7Y569D01*
X2419Y569D02*
X2426Y569D01*
X0Y568D02*
X7Y568D01*
X2419Y568D02*
X2426Y568D01*
X0Y567D02*
X7Y567D01*
X2419Y567D02*
X2426Y567D01*
X0Y566D02*
X7Y566D01*
X2419Y566D02*
X2426Y566D01*
X0Y565D02*
X7Y565D01*
X2419Y565D02*
X2426Y565D01*
X0Y564D02*
X7Y564D01*
X2419Y564D02*
X2426Y564D01*
X0Y563D02*
X7Y563D01*
X2419Y563D02*
X2426Y563D01*
X0Y562D02*
X7Y562D01*
X2419Y562D02*
X2426Y562D01*
X0Y561D02*
X7Y561D01*
X2419Y561D02*
X2426Y561D01*
X0Y560D02*
X7Y560D01*
X2419Y560D02*
X2426Y560D01*
X0Y559D02*
X7Y559D01*
X2419Y559D02*
X2426Y559D01*
X0Y558D02*
X7Y558D01*
X2419Y558D02*
X2426Y558D01*
X0Y557D02*
X7Y557D01*
X2419Y557D02*
X2426Y557D01*
X0Y556D02*
X7Y556D01*
X2419Y556D02*
X2426Y556D01*
X0Y555D02*
X7Y555D01*
X2419Y555D02*
X2426Y555D01*
X0Y554D02*
X7Y554D01*
X2419Y554D02*
X2426Y554D01*
X0Y553D02*
X7Y553D01*
X2419Y553D02*
X2426Y553D01*
X0Y552D02*
X7Y552D01*
X2419Y552D02*
X2426Y552D01*
X0Y551D02*
X7Y551D01*
X2419Y551D02*
X2426Y551D01*
X0Y550D02*
X7Y550D01*
X2419Y550D02*
X2426Y550D01*
X0Y549D02*
X7Y549D01*
X2419Y549D02*
X2426Y549D01*
X0Y548D02*
X7Y548D01*
X2419Y548D02*
X2426Y548D01*
X0Y547D02*
X7Y547D01*
X2419Y547D02*
X2426Y547D01*
X0Y546D02*
X7Y546D01*
X2419Y546D02*
X2426Y546D01*
X0Y545D02*
X7Y545D01*
X2419Y545D02*
X2426Y545D01*
X0Y544D02*
X7Y544D01*
X2419Y544D02*
X2426Y544D01*
X0Y543D02*
X7Y543D01*
X2419Y543D02*
X2426Y543D01*
X0Y542D02*
X7Y542D01*
X2419Y542D02*
X2426Y542D01*
X0Y541D02*
X7Y541D01*
X2419Y541D02*
X2426Y541D01*
X0Y540D02*
X7Y540D01*
X2419Y540D02*
X2426Y540D01*
X0Y539D02*
X7Y539D01*
X2419Y539D02*
X2426Y539D01*
X0Y538D02*
X7Y538D01*
X2419Y538D02*
X2426Y538D01*
X0Y537D02*
X7Y537D01*
X2419Y537D02*
X2426Y537D01*
X0Y536D02*
X7Y536D01*
X2419Y536D02*
X2426Y536D01*
X0Y535D02*
X7Y535D01*
X2419Y535D02*
X2426Y535D01*
X0Y534D02*
X7Y534D01*
X2419Y534D02*
X2426Y534D01*
X0Y533D02*
X7Y533D01*
X2419Y533D02*
X2426Y533D01*
X0Y532D02*
X7Y532D01*
X2419Y532D02*
X2426Y532D01*
X0Y531D02*
X7Y531D01*
X2419Y531D02*
X2426Y531D01*
X0Y530D02*
X7Y530D01*
X2419Y530D02*
X2426Y530D01*
X0Y529D02*
X7Y529D01*
X2419Y529D02*
X2426Y529D01*
X0Y528D02*
X7Y528D01*
X2419Y528D02*
X2426Y528D01*
X0Y527D02*
X7Y527D01*
X2419Y527D02*
X2426Y527D01*
X0Y526D02*
X7Y526D01*
X2419Y526D02*
X2426Y526D01*
X0Y525D02*
X7Y525D01*
X2419Y525D02*
X2426Y525D01*
X0Y524D02*
X7Y524D01*
X2419Y524D02*
X2426Y524D01*
X0Y523D02*
X7Y523D01*
X2419Y523D02*
X2426Y523D01*
X0Y522D02*
X7Y522D01*
X2419Y522D02*
X2426Y522D01*
X0Y521D02*
X7Y521D01*
X2419Y521D02*
X2426Y521D01*
X0Y520D02*
X7Y520D01*
X2419Y520D02*
X2426Y520D01*
X0Y519D02*
X7Y519D01*
X2419Y519D02*
X2426Y519D01*
X0Y518D02*
X7Y518D01*
X2419Y518D02*
X2426Y518D01*
X0Y517D02*
X7Y517D01*
X2419Y517D02*
X2426Y517D01*
X0Y516D02*
X7Y516D01*
X2419Y516D02*
X2426Y516D01*
X0Y515D02*
X7Y515D01*
X2419Y515D02*
X2426Y515D01*
X0Y514D02*
X7Y514D01*
X2419Y514D02*
X2426Y514D01*
X0Y513D02*
X7Y513D01*
X2419Y513D02*
X2426Y513D01*
X0Y512D02*
X7Y512D01*
X2419Y512D02*
X2426Y512D01*
X0Y511D02*
X7Y511D01*
X2419Y511D02*
X2426Y511D01*
X0Y510D02*
X7Y510D01*
X2419Y510D02*
X2426Y510D01*
X0Y509D02*
X7Y509D01*
X2419Y509D02*
X2426Y509D01*
X0Y508D02*
X7Y508D01*
X2419Y508D02*
X2426Y508D01*
X0Y507D02*
X7Y507D01*
X2419Y507D02*
X2426Y507D01*
X0Y506D02*
X7Y506D01*
X2419Y506D02*
X2426Y506D01*
X0Y505D02*
X7Y505D01*
X2419Y505D02*
X2426Y505D01*
X0Y504D02*
X7Y504D01*
X2419Y504D02*
X2426Y504D01*
X0Y503D02*
X7Y503D01*
X2419Y503D02*
X2426Y503D01*
X0Y502D02*
X7Y502D01*
X2419Y502D02*
X2426Y502D01*
X0Y501D02*
X7Y501D01*
X2419Y501D02*
X2426Y501D01*
X0Y500D02*
X7Y500D01*
X2419Y500D02*
X2426Y500D01*
X0Y499D02*
X7Y499D01*
X2419Y499D02*
X2426Y499D01*
X0Y498D02*
X7Y498D01*
X2419Y498D02*
X2426Y498D01*
X0Y497D02*
X7Y497D01*
X2419Y497D02*
X2426Y497D01*
X0Y496D02*
X7Y496D01*
X2419Y496D02*
X2426Y496D01*
X0Y495D02*
X7Y495D01*
X2419Y495D02*
X2426Y495D01*
X0Y494D02*
X7Y494D01*
X2419Y494D02*
X2426Y494D01*
X0Y493D02*
X7Y493D01*
X2419Y493D02*
X2426Y493D01*
X0Y492D02*
X7Y492D01*
X2419Y492D02*
X2426Y492D01*
X0Y491D02*
X7Y491D01*
X2419Y491D02*
X2426Y491D01*
X0Y490D02*
X7Y490D01*
X2419Y490D02*
X2426Y490D01*
X0Y489D02*
X7Y489D01*
X2419Y489D02*
X2426Y489D01*
X0Y488D02*
X7Y488D01*
X2419Y488D02*
X2426Y488D01*
X0Y487D02*
X7Y487D01*
X2419Y487D02*
X2426Y487D01*
X0Y486D02*
X7Y486D01*
X2419Y486D02*
X2426Y486D01*
X0Y485D02*
X7Y485D01*
X2419Y485D02*
X2426Y485D01*
X0Y484D02*
X7Y484D01*
X2419Y484D02*
X2426Y484D01*
X0Y483D02*
X7Y483D01*
X2419Y483D02*
X2426Y483D01*
X0Y482D02*
X7Y482D01*
X2419Y482D02*
X2426Y482D01*
X0Y481D02*
X7Y481D01*
X2419Y481D02*
X2426Y481D01*
X0Y480D02*
X7Y480D01*
X2419Y480D02*
X2426Y480D01*
X0Y479D02*
X7Y479D01*
X2419Y479D02*
X2426Y479D01*
X0Y478D02*
X7Y478D01*
X2419Y478D02*
X2426Y478D01*
X0Y477D02*
X7Y477D01*
X2419Y477D02*
X2426Y477D01*
X0Y476D02*
X7Y476D01*
X2419Y476D02*
X2426Y476D01*
X0Y475D02*
X7Y475D01*
X2419Y475D02*
X2426Y475D01*
X0Y474D02*
X7Y474D01*
X2419Y474D02*
X2426Y474D01*
X0Y473D02*
X7Y473D01*
X2419Y473D02*
X2426Y473D01*
X0Y472D02*
X7Y472D01*
X2419Y472D02*
X2426Y472D01*
X0Y471D02*
X7Y471D01*
X2419Y471D02*
X2426Y471D01*
X0Y470D02*
X7Y470D01*
X2419Y470D02*
X2426Y470D01*
X0Y469D02*
X7Y469D01*
X2419Y469D02*
X2426Y469D01*
X0Y468D02*
X7Y468D01*
X2419Y468D02*
X2426Y468D01*
X0Y467D02*
X7Y467D01*
X2419Y467D02*
X2426Y467D01*
X0Y466D02*
X7Y466D01*
X2419Y466D02*
X2426Y466D01*
X0Y465D02*
X7Y465D01*
X2419Y465D02*
X2426Y465D01*
X0Y464D02*
X7Y464D01*
X2419Y464D02*
X2426Y464D01*
X0Y463D02*
X7Y463D01*
X2419Y463D02*
X2426Y463D01*
X0Y462D02*
X7Y462D01*
X2419Y462D02*
X2426Y462D01*
X0Y461D02*
X7Y461D01*
X2419Y461D02*
X2426Y461D01*
X0Y460D02*
X7Y460D01*
X2419Y460D02*
X2426Y460D01*
X0Y459D02*
X7Y459D01*
X2419Y459D02*
X2426Y459D01*
X0Y458D02*
X7Y458D01*
X2419Y458D02*
X2426Y458D01*
X0Y457D02*
X7Y457D01*
X2419Y457D02*
X2426Y457D01*
X0Y456D02*
X7Y456D01*
X2419Y456D02*
X2426Y456D01*
X0Y455D02*
X7Y455D01*
X2419Y455D02*
X2426Y455D01*
X0Y454D02*
X7Y454D01*
X2419Y454D02*
X2426Y454D01*
X0Y453D02*
X7Y453D01*
X2419Y453D02*
X2426Y453D01*
X0Y452D02*
X7Y452D01*
X2419Y452D02*
X2426Y452D01*
X0Y451D02*
X7Y451D01*
X2419Y451D02*
X2426Y451D01*
X0Y450D02*
X7Y450D01*
X2419Y450D02*
X2426Y450D01*
X0Y449D02*
X7Y449D01*
X2419Y449D02*
X2426Y449D01*
X0Y448D02*
X7Y448D01*
X2419Y448D02*
X2426Y448D01*
X0Y447D02*
X7Y447D01*
X2419Y447D02*
X2426Y447D01*
X0Y446D02*
X7Y446D01*
X2419Y446D02*
X2426Y446D01*
X0Y445D02*
X7Y445D01*
X2419Y445D02*
X2426Y445D01*
X0Y444D02*
X7Y444D01*
X2419Y444D02*
X2426Y444D01*
X0Y443D02*
X7Y443D01*
X2419Y443D02*
X2426Y443D01*
X0Y442D02*
X7Y442D01*
X2419Y442D02*
X2426Y442D01*
X0Y441D02*
X7Y441D01*
X2419Y441D02*
X2426Y441D01*
X0Y440D02*
X7Y440D01*
X2419Y440D02*
X2426Y440D01*
X0Y439D02*
X7Y439D01*
X2419Y439D02*
X2426Y439D01*
X0Y438D02*
X7Y438D01*
X2419Y438D02*
X2426Y438D01*
X0Y437D02*
X7Y437D01*
X2419Y437D02*
X2426Y437D01*
X0Y436D02*
X7Y436D01*
X2419Y436D02*
X2426Y436D01*
X0Y435D02*
X7Y435D01*
X2419Y435D02*
X2426Y435D01*
X0Y434D02*
X7Y434D01*
X2419Y434D02*
X2426Y434D01*
X0Y433D02*
X7Y433D01*
X2419Y433D02*
X2426Y433D01*
X0Y432D02*
X7Y432D01*
X2419Y432D02*
X2426Y432D01*
X0Y431D02*
X7Y431D01*
X2419Y431D02*
X2426Y431D01*
X0Y430D02*
X7Y430D01*
X2419Y430D02*
X2426Y430D01*
X0Y429D02*
X7Y429D01*
X2419Y429D02*
X2426Y429D01*
X0Y428D02*
X7Y428D01*
X2419Y428D02*
X2426Y428D01*
X0Y427D02*
X7Y427D01*
X2419Y427D02*
X2426Y427D01*
X0Y426D02*
X7Y426D01*
X2419Y426D02*
X2426Y426D01*
X0Y425D02*
X7Y425D01*
X2419Y425D02*
X2426Y425D01*
X0Y424D02*
X7Y424D01*
X2419Y424D02*
X2426Y424D01*
X0Y423D02*
X7Y423D01*
X2419Y423D02*
X2426Y423D01*
X0Y422D02*
X7Y422D01*
X2419Y422D02*
X2426Y422D01*
X0Y421D02*
X7Y421D01*
X2419Y421D02*
X2426Y421D01*
X0Y420D02*
X7Y420D01*
X2419Y420D02*
X2426Y420D01*
X0Y419D02*
X7Y419D01*
X2419Y419D02*
X2426Y419D01*
X0Y418D02*
X7Y418D01*
X2419Y418D02*
X2426Y418D01*
X0Y417D02*
X7Y417D01*
X2419Y417D02*
X2426Y417D01*
X0Y416D02*
X7Y416D01*
X2419Y416D02*
X2426Y416D01*
X0Y415D02*
X7Y415D01*
X2419Y415D02*
X2426Y415D01*
X0Y414D02*
X7Y414D01*
X2419Y414D02*
X2426Y414D01*
X0Y413D02*
X7Y413D01*
X2419Y413D02*
X2426Y413D01*
X0Y412D02*
X7Y412D01*
X2419Y412D02*
X2426Y412D01*
X0Y411D02*
X7Y411D01*
X2419Y411D02*
X2426Y411D01*
X0Y410D02*
X7Y410D01*
X2419Y410D02*
X2426Y410D01*
X0Y409D02*
X7Y409D01*
X2419Y409D02*
X2426Y409D01*
X0Y408D02*
X7Y408D01*
X2419Y408D02*
X2426Y408D01*
X0Y407D02*
X7Y407D01*
X2419Y407D02*
X2426Y407D01*
X0Y406D02*
X7Y406D01*
X2419Y406D02*
X2426Y406D01*
X0Y405D02*
X7Y405D01*
X2419Y405D02*
X2426Y405D01*
X0Y404D02*
X7Y404D01*
X2419Y404D02*
X2426Y404D01*
X0Y403D02*
X7Y403D01*
X2419Y403D02*
X2426Y403D01*
X0Y402D02*
X7Y402D01*
X2419Y402D02*
X2426Y402D01*
X0Y401D02*
X7Y401D01*
X2419Y401D02*
X2426Y401D01*
X0Y400D02*
X7Y400D01*
X2419Y400D02*
X2426Y400D01*
X0Y399D02*
X7Y399D01*
X2419Y399D02*
X2426Y399D01*
X0Y398D02*
X7Y398D01*
X2419Y398D02*
X2426Y398D01*
X0Y397D02*
X7Y397D01*
X2419Y397D02*
X2426Y397D01*
X0Y396D02*
X7Y396D01*
X2419Y396D02*
X2426Y396D01*
X0Y395D02*
X7Y395D01*
X2419Y395D02*
X2426Y395D01*
X0Y394D02*
X7Y394D01*
X2419Y394D02*
X2426Y394D01*
X0Y393D02*
X7Y393D01*
X2419Y393D02*
X2426Y393D01*
X0Y392D02*
X7Y392D01*
X2419Y392D02*
X2426Y392D01*
X0Y391D02*
X7Y391D01*
X2419Y391D02*
X2426Y391D01*
X0Y390D02*
X7Y390D01*
X2419Y390D02*
X2426Y390D01*
X0Y389D02*
X7Y389D01*
X2419Y389D02*
X2426Y389D01*
X0Y388D02*
X7Y388D01*
X2419Y388D02*
X2426Y388D01*
X0Y387D02*
X7Y387D01*
X2419Y387D02*
X2426Y387D01*
X0Y386D02*
X7Y386D01*
X2419Y386D02*
X2426Y386D01*
X0Y385D02*
X7Y385D01*
X2419Y385D02*
X2426Y385D01*
X0Y384D02*
X7Y384D01*
X2419Y384D02*
X2426Y384D01*
X0Y383D02*
X7Y383D01*
X2419Y383D02*
X2426Y383D01*
X0Y382D02*
X7Y382D01*
X2419Y382D02*
X2426Y382D01*
X0Y381D02*
X7Y381D01*
X2419Y381D02*
X2426Y381D01*
X0Y380D02*
X7Y380D01*
X2419Y380D02*
X2426Y380D01*
X0Y379D02*
X7Y379D01*
X2419Y379D02*
X2426Y379D01*
X0Y378D02*
X7Y378D01*
X2419Y378D02*
X2426Y378D01*
X0Y377D02*
X7Y377D01*
X2419Y377D02*
X2426Y377D01*
X0Y376D02*
X7Y376D01*
X2419Y376D02*
X2426Y376D01*
X0Y375D02*
X7Y375D01*
X2419Y375D02*
X2426Y375D01*
X0Y374D02*
X7Y374D01*
X2419Y374D02*
X2426Y374D01*
X0Y373D02*
X7Y373D01*
X2419Y373D02*
X2426Y373D01*
X0Y372D02*
X7Y372D01*
X2419Y372D02*
X2426Y372D01*
X0Y371D02*
X7Y371D01*
X2419Y371D02*
X2426Y371D01*
X0Y370D02*
X7Y370D01*
X2419Y370D02*
X2426Y370D01*
X0Y369D02*
X7Y369D01*
X2419Y369D02*
X2426Y369D01*
X0Y368D02*
X7Y368D01*
X2419Y368D02*
X2426Y368D01*
X1Y367D02*
X8Y367D01*
X2418Y367D02*
X2425Y367D01*
X1Y366D02*
X8Y366D01*
X2418Y366D02*
X2425Y366D01*
X1Y365D02*
X8Y365D01*
X2418Y365D02*
X2425Y365D01*
X1Y364D02*
X8Y364D01*
X2418Y364D02*
X2425Y364D01*
X1Y363D02*
X8Y363D01*
X2418Y363D02*
X2425Y363D01*
X1Y362D02*
X8Y362D01*
X2418Y362D02*
X2425Y362D01*
X1Y361D02*
X8Y361D01*
X2418Y361D02*
X2425Y361D01*
X1Y360D02*
X8Y360D01*
X2418Y360D02*
X2425Y360D01*
X1Y359D02*
X8Y359D01*
X2418Y359D02*
X2425Y359D01*
X1Y358D02*
X8Y358D01*
X2418Y358D02*
X2425Y358D01*
X1Y357D02*
X8Y357D01*
X2418Y357D02*
X2425Y357D01*
X1Y356D02*
X8Y356D01*
X2418Y356D02*
X2425Y356D01*
X1Y355D02*
X8Y355D01*
X2418Y355D02*
X2425Y355D01*
X1Y354D02*
X8Y354D01*
X2418Y354D02*
X2425Y354D01*
X1Y353D02*
X9Y353D01*
X2417Y353D02*
X2425Y353D01*
X2Y352D02*
X9Y352D01*
X2417Y352D02*
X2424Y352D01*
X2Y351D02*
X9Y351D01*
X2417Y351D02*
X2424Y351D01*
X2Y350D02*
X9Y350D01*
X2417Y350D02*
X2424Y350D01*
X2Y349D02*
X9Y349D01*
X2417Y349D02*
X2424Y349D01*
X2Y348D02*
X9Y348D01*
X2417Y348D02*
X2424Y348D01*
X2Y347D02*
X9Y347D01*
X2417Y347D02*
X2424Y347D01*
X2Y346D02*
X9Y346D01*
X2417Y346D02*
X2424Y346D01*
X2Y345D02*
X9Y345D01*
X2417Y345D02*
X2424Y345D01*
X2Y344D02*
X9Y344D01*
X2417Y344D02*
X2424Y344D01*
X3Y343D02*
X10Y343D01*
X2416Y343D02*
X2423Y343D01*
X3Y342D02*
X10Y342D01*
X2416Y342D02*
X2423Y342D01*
X3Y341D02*
X10Y341D01*
X2416Y341D02*
X2423Y341D01*
X3Y340D02*
X10Y340D01*
X2416Y340D02*
X2423Y340D01*
X3Y339D02*
X10Y339D01*
X2416Y339D02*
X2423Y339D01*
X3Y338D02*
X10Y338D01*
X2416Y338D02*
X2423Y338D01*
X3Y337D02*
X10Y337D01*
X2416Y337D02*
X2423Y337D01*
X3Y336D02*
X10Y336D01*
X2416Y336D02*
X2423Y336D01*
X4Y335D02*
X11Y335D01*
X2415Y335D02*
X2422Y335D01*
X4Y334D02*
X11Y334D01*
X2415Y334D02*
X2422Y334D01*
X4Y333D02*
X11Y333D01*
X2415Y333D02*
X2422Y333D01*
X4Y332D02*
X11Y332D01*
X2415Y332D02*
X2422Y332D01*
X4Y331D02*
X11Y331D01*
X2415Y331D02*
X2422Y331D01*
X4Y330D02*
X11Y330D01*
X2415Y330D02*
X2422Y330D01*
X4Y329D02*
X11Y329D01*
X2415Y329D02*
X2422Y329D01*
X5Y328D02*
X12Y328D01*
X2414Y328D02*
X2421Y328D01*
X5Y327D02*
X12Y327D01*
X2414Y327D02*
X2421Y327D01*
X5Y326D02*
X12Y326D01*
X2414Y326D02*
X2421Y326D01*
X5Y325D02*
X12Y325D01*
X2414Y325D02*
X2421Y325D01*
X5Y324D02*
X12Y324D01*
X2414Y324D02*
X2421Y324D01*
X5Y323D02*
X12Y323D01*
X2414Y323D02*
X2421Y323D01*
X6Y322D02*
X13Y322D01*
X2413Y322D02*
X2420Y322D01*
X6Y321D02*
X13Y321D01*
X2413Y321D02*
X2420Y321D01*
X6Y320D02*
X13Y320D01*
X2413Y320D02*
X2420Y320D01*
X6Y319D02*
X13Y319D01*
X2413Y319D02*
X2420Y319D01*
X6Y318D02*
X13Y318D01*
X2413Y318D02*
X2420Y318D01*
X6Y317D02*
X13Y317D01*
X2413Y317D02*
X2420Y317D01*
X7Y316D02*
X14Y316D01*
X2412Y316D02*
X2419Y316D01*
X7Y315D02*
X14Y315D01*
X2412Y315D02*
X2419Y315D01*
X7Y314D02*
X14Y314D01*
X2412Y314D02*
X2419Y314D01*
X7Y313D02*
X14Y313D01*
X2412Y313D02*
X2419Y313D01*
X7Y312D02*
X14Y312D01*
X2412Y312D02*
X2419Y312D01*
X8Y311D02*
X15Y311D01*
X2411Y311D02*
X2418Y311D01*
X8Y310D02*
X15Y310D01*
X2411Y310D02*
X2418Y310D01*
X8Y309D02*
X15Y309D01*
X2411Y309D02*
X2418Y309D01*
X8Y308D02*
X15Y308D01*
X2411Y308D02*
X2418Y308D01*
X8Y307D02*
X15Y307D01*
X2411Y307D02*
X2418Y307D01*
X9Y306D02*
X16Y306D01*
X2410Y306D02*
X2417Y306D01*
X9Y305D02*
X16Y305D01*
X2410Y305D02*
X2417Y305D01*
X9Y304D02*
X16Y304D01*
X2410Y304D02*
X2417Y304D01*
X9Y303D02*
X16Y303D01*
X2410Y303D02*
X2417Y303D01*
X9Y302D02*
X17Y302D01*
X2409Y302D02*
X2417Y302D01*
X10Y301D02*
X17Y301D01*
X2409Y301D02*
X2416Y301D01*
X10Y300D02*
X17Y300D01*
X2409Y300D02*
X2416Y300D01*
X10Y299D02*
X17Y299D01*
X2409Y299D02*
X2416Y299D01*
X10Y298D02*
X18Y298D01*
X2408Y298D02*
X2416Y298D01*
X11Y297D02*
X18Y297D01*
X2408Y297D02*
X2415Y297D01*
X11Y296D02*
X18Y296D01*
X2408Y296D02*
X2415Y296D01*
X11Y295D02*
X18Y295D01*
X2408Y295D02*
X2415Y295D01*
X11Y294D02*
X19Y294D01*
X2407Y294D02*
X2415Y294D01*
X12Y293D02*
X19Y293D01*
X2407Y293D02*
X2414Y293D01*
X12Y292D02*
X19Y292D01*
X2407Y292D02*
X2414Y292D01*
X12Y291D02*
X19Y291D01*
X2407Y291D02*
X2414Y291D01*
X12Y290D02*
X20Y290D01*
X2406Y290D02*
X2414Y290D01*
X13Y289D02*
X20Y289D01*
X2406Y289D02*
X2413Y289D01*
X13Y288D02*
X20Y288D01*
X2406Y288D02*
X2413Y288D01*
X13Y287D02*
X20Y287D01*
X2406Y287D02*
X2413Y287D01*
X13Y286D02*
X21Y286D01*
X2405Y286D02*
X2412Y286D01*
X14Y285D02*
X21Y285D01*
X2405Y285D02*
X2412Y285D01*
X14Y284D02*
X21Y284D01*
X2405Y284D02*
X2412Y284D01*
X14Y283D02*
X21Y283D01*
X2405Y283D02*
X2412Y283D01*
X15Y282D02*
X22Y282D01*
X2404Y282D02*
X2411Y282D01*
X15Y281D02*
X22Y281D01*
X2404Y281D02*
X2411Y281D01*
X15Y280D02*
X22Y280D01*
X2404Y280D02*
X2411Y280D01*
X15Y279D02*
X23Y279D01*
X2403Y279D02*
X2411Y279D01*
X16Y278D02*
X23Y278D01*
X2403Y278D02*
X2410Y278D01*
X16Y277D02*
X23Y277D01*
X2403Y277D02*
X2410Y277D01*
X16Y276D02*
X24Y276D01*
X2402Y276D02*
X2410Y276D01*
X17Y275D02*
X24Y275D01*
X2402Y275D02*
X2409Y275D01*
X17Y274D02*
X24Y274D01*
X2402Y274D02*
X2409Y274D01*
X17Y273D02*
X25Y273D01*
X2401Y273D02*
X2409Y273D01*
X18Y272D02*
X25Y272D01*
X2401Y272D02*
X2408Y272D01*
X18Y271D02*
X25Y271D01*
X2401Y271D02*
X2408Y271D01*
X18Y270D02*
X26Y270D01*
X2400Y270D02*
X2408Y270D01*
X19Y269D02*
X26Y269D01*
X2400Y269D02*
X2407Y269D01*
X19Y268D02*
X26Y268D01*
X2400Y268D02*
X2407Y268D01*
X19Y267D02*
X27Y267D01*
X2399Y267D02*
X2407Y267D01*
X20Y266D02*
X27Y266D01*
X2399Y266D02*
X2406Y266D01*
X20Y265D02*
X27Y265D01*
X2399Y265D02*
X2406Y265D01*
X20Y264D02*
X28Y264D01*
X2398Y264D02*
X2406Y264D01*
X21Y263D02*
X28Y263D01*
X2398Y263D02*
X2405Y263D01*
X21Y262D02*
X28Y262D01*
X2398Y262D02*
X2405Y262D01*
X21Y261D02*
X29Y261D01*
X2397Y261D02*
X2405Y261D01*
X22Y260D02*
X29Y260D01*
X2397Y260D02*
X2404Y260D01*
X22Y259D02*
X29Y259D01*
X2397Y259D02*
X2404Y259D01*
X22Y258D02*
X30Y258D01*
X2396Y258D02*
X2404Y258D01*
X23Y257D02*
X30Y257D01*
X2396Y257D02*
X2403Y257D01*
X23Y256D02*
X30Y256D01*
X2396Y256D02*
X2403Y256D01*
X23Y255D02*
X31Y255D01*
X2395Y255D02*
X2403Y255D01*
X24Y254D02*
X31Y254D01*
X2395Y254D02*
X2402Y254D01*
X24Y253D02*
X32Y253D01*
X2394Y253D02*
X2402Y253D01*
X25Y252D02*
X32Y252D01*
X2394Y252D02*
X2401Y252D01*
X25Y251D02*
X32Y251D01*
X2394Y251D02*
X2401Y251D01*
X25Y250D02*
X33Y250D01*
X2393Y250D02*
X2401Y250D01*
X26Y249D02*
X33Y249D01*
X2393Y249D02*
X2400Y249D01*
X26Y248D02*
X34Y248D01*
X2392Y248D02*
X2400Y248D01*
X27Y247D02*
X34Y247D01*
X2392Y247D02*
X2399Y247D01*
X27Y246D02*
X34Y246D01*
X2392Y246D02*
X2399Y246D01*
X27Y245D02*
X35Y245D01*
X2391Y245D02*
X2399Y245D01*
X28Y244D02*
X35Y244D01*
X2391Y244D02*
X2398Y244D01*
X28Y243D02*
X36Y243D01*
X2390Y243D02*
X2398Y243D01*
X29Y242D02*
X36Y242D01*
X2390Y242D02*
X2397Y242D01*
X29Y241D02*
X36Y241D01*
X2390Y241D02*
X2397Y241D01*
X29Y240D02*
X37Y240D01*
X2389Y240D02*
X2397Y240D01*
X30Y239D02*
X37Y239D01*
X2389Y239D02*
X2396Y239D01*
X30Y238D02*
X38Y238D01*
X2388Y238D02*
X2396Y238D01*
X31Y237D02*
X38Y237D01*
X2388Y237D02*
X2395Y237D01*
X31Y236D02*
X39Y236D01*
X2387Y236D02*
X2395Y236D01*
X31Y235D02*
X39Y235D01*
X2387Y235D02*
X2395Y235D01*
X32Y234D02*
X39Y234D01*
X2387Y234D02*
X2394Y234D01*
X32Y233D02*
X40Y233D01*
X2386Y233D02*
X2394Y233D01*
X33Y232D02*
X40Y232D01*
X2386Y232D02*
X2393Y232D01*
X33Y231D02*
X41Y231D01*
X2385Y231D02*
X2393Y231D01*
X34Y230D02*
X41Y230D01*
X2385Y230D02*
X2392Y230D01*
X34Y229D02*
X42Y229D01*
X2384Y229D02*
X2392Y229D01*
X35Y228D02*
X42Y228D01*
X2384Y228D02*
X2391Y228D01*
X35Y227D02*
X43Y227D01*
X2383Y227D02*
X2391Y227D01*
X36Y226D02*
X43Y226D01*
X2383Y226D02*
X2390Y226D01*
X36Y225D02*
X44Y225D01*
X2382Y225D02*
X2390Y225D01*
X36Y224D02*
X44Y224D01*
X2382Y224D02*
X2390Y224D01*
X37Y223D02*
X45Y223D01*
X2381Y223D02*
X2389Y223D01*
X37Y222D02*
X45Y222D01*
X2381Y222D02*
X2389Y222D01*
X38Y221D02*
X46Y221D01*
X2380Y221D02*
X2388Y221D01*
X38Y220D02*
X46Y220D01*
X2380Y220D02*
X2388Y220D01*
X39Y219D02*
X47Y219D01*
X2379Y219D02*
X2387Y219D01*
X39Y218D02*
X47Y218D01*
X2379Y218D02*
X2387Y218D01*
X40Y217D02*
X48Y217D01*
X2378Y217D02*
X2386Y217D01*
X40Y216D02*
X48Y216D01*
X2378Y216D02*
X2386Y216D01*
X41Y215D02*
X49Y215D01*
X2377Y215D02*
X2385Y215D01*
X41Y214D02*
X49Y214D01*
X2377Y214D02*
X2385Y214D01*
X42Y213D02*
X50Y213D01*
X2376Y213D02*
X2384Y213D01*
X42Y212D02*
X50Y212D01*
X2376Y212D02*
X2384Y212D01*
X43Y211D02*
X51Y211D01*
X2375Y211D02*
X2383Y211D01*
X43Y210D02*
X51Y210D01*
X2375Y210D02*
X2383Y210D01*
X44Y209D02*
X52Y209D01*
X2374Y209D02*
X2382Y209D01*
X44Y208D02*
X52Y208D01*
X2374Y208D02*
X2382Y208D01*
X45Y207D02*
X53Y207D01*
X2373Y207D02*
X2381Y207D01*
X45Y206D02*
X53Y206D01*
X2373Y206D02*
X2381Y206D01*
X46Y205D02*
X54Y205D01*
X2372Y205D02*
X2380Y205D01*
X47Y204D02*
X55Y204D01*
X2371Y204D02*
X2379Y204D01*
X47Y203D02*
X55Y203D01*
X2371Y203D02*
X2379Y203D01*
X48Y202D02*
X56Y202D01*
X2370Y202D02*
X2378Y202D01*
X48Y201D02*
X56Y201D01*
X2370Y201D02*
X2378Y201D01*
X49Y200D02*
X57Y200D01*
X2369Y200D02*
X2377Y200D01*
X49Y199D02*
X57Y199D01*
X2369Y199D02*
X2377Y199D01*
X50Y198D02*
X58Y198D01*
X2368Y198D02*
X2376Y198D01*
X51Y197D02*
X59Y197D01*
X2367Y197D02*
X2375Y197D01*
X51Y196D02*
X59Y196D01*
X2367Y196D02*
X2375Y196D01*
X52Y195D02*
X60Y195D01*
X2366Y195D02*
X2374Y195D01*
X52Y194D02*
X60Y194D01*
X2366Y194D02*
X2374Y194D01*
X53Y193D02*
X61Y193D01*
X2365Y193D02*
X2373Y193D01*
X53Y192D02*
X62Y192D01*
X2364Y192D02*
X2373Y192D01*
X54Y191D02*
X62Y191D01*
X2364Y191D02*
X2372Y191D01*
X55Y190D02*
X63Y190D01*
X2363Y190D02*
X2371Y190D01*
X55Y189D02*
X63Y189D01*
X2363Y189D02*
X2371Y189D01*
X56Y188D02*
X64Y188D01*
X2362Y188D02*
X2370Y188D01*
X56Y187D02*
X65Y187D01*
X2361Y187D02*
X2370Y187D01*
X57Y186D02*
X65Y186D01*
X2361Y186D02*
X2369Y186D01*
X58Y185D02*
X66Y185D01*
X2360Y185D02*
X2368Y185D01*
X58Y184D02*
X67Y184D01*
X2359Y184D02*
X2368Y184D01*
X59Y183D02*
X67Y183D01*
X2359Y183D02*
X2367Y183D01*
X60Y182D02*
X68Y182D01*
X2358Y182D02*
X2366Y182D01*
X60Y181D02*
X69Y181D01*
X2357Y181D02*
X2366Y181D01*
X61Y180D02*
X69Y180D01*
X2357Y180D02*
X2365Y180D01*
X61Y179D02*
X70Y179D01*
X2356Y179D02*
X2365Y179D01*
X62Y178D02*
X71Y178D01*
X2355Y178D02*
X2364Y178D01*
X63Y177D02*
X71Y177D01*
X2355Y177D02*
X2363Y177D01*
X63Y176D02*
X72Y176D01*
X2354Y176D02*
X2363Y176D01*
X64Y175D02*
X72Y175D01*
X2354Y175D02*
X2362Y175D01*
X65Y174D02*
X73Y174D01*
X2353Y174D02*
X2361Y174D01*
X65Y173D02*
X74Y173D01*
X2352Y173D02*
X2361Y173D01*
X66Y172D02*
X75Y172D01*
X2351Y172D02*
X2360Y172D01*
X67Y171D02*
X75Y171D01*
X2351Y171D02*
X2359Y171D01*
X67Y170D02*
X76Y170D01*
X2350Y170D02*
X2359Y170D01*
X68Y169D02*
X77Y169D01*
X2349Y169D02*
X2358Y169D01*
X69Y168D02*
X78Y168D01*
X2348Y168D02*
X2357Y168D01*
X70Y167D02*
X78Y167D01*
X2348Y167D02*
X2356Y167D01*
X70Y166D02*
X79Y166D01*
X2347Y166D02*
X2356Y166D01*
X71Y165D02*
X80Y165D01*
X2346Y165D02*
X2355Y165D01*
X72Y164D02*
X80Y164D01*
X2346Y164D02*
X2354Y164D01*
X72Y163D02*
X81Y163D01*
X2345Y163D02*
X2354Y163D01*
X73Y162D02*
X82Y162D01*
X2344Y162D02*
X2353Y162D01*
X74Y161D02*
X83Y161D01*
X2343Y161D02*
X2352Y161D01*
X75Y160D02*
X83Y160D01*
X2343Y160D02*
X2351Y160D01*
X75Y159D02*
X84Y159D01*
X2342Y159D02*
X2351Y159D01*
X76Y158D02*
X85Y158D01*
X2341Y158D02*
X2350Y158D01*
X77Y157D02*
X86Y157D01*
X2340Y157D02*
X2349Y157D01*
X77Y156D02*
X87Y156D01*
X2339Y156D02*
X2349Y156D01*
X78Y155D02*
X87Y155D01*
X2339Y155D02*
X2348Y155D01*
X79Y154D02*
X88Y154D01*
X2338Y154D02*
X2347Y154D01*
X80Y153D02*
X89Y153D01*
X2337Y153D02*
X2346Y153D01*
X81Y152D02*
X90Y152D01*
X2336Y152D02*
X2345Y152D01*
X81Y151D02*
X91Y151D01*
X2335Y151D02*
X2345Y151D01*
X82Y150D02*
X91Y150D01*
X2335Y150D02*
X2344Y150D01*
X83Y149D02*
X92Y149D01*
X2334Y149D02*
X2343Y149D01*
X84Y148D02*
X93Y148D01*
X2333Y148D02*
X2342Y148D01*
X85Y147D02*
X94Y147D01*
X2332Y147D02*
X2341Y147D01*
X85Y146D02*
X95Y146D01*
X2331Y146D02*
X2341Y146D01*
X86Y145D02*
X95Y145D01*
X2331Y145D02*
X2340Y145D01*
X87Y144D02*
X96Y144D01*
X2330Y144D02*
X2339Y144D01*
X88Y143D02*
X97Y143D01*
X2329Y143D02*
X2338Y143D01*
X89Y142D02*
X98Y142D01*
X2328Y142D02*
X2337Y142D01*
X89Y141D02*
X99Y141D01*
X2327Y141D02*
X2337Y141D01*
X90Y140D02*
X100Y140D01*
X2326Y140D02*
X2336Y140D01*
X91Y139D02*
X101Y139D01*
X2325Y139D02*
X2335Y139D01*
X92Y138D02*
X102Y138D01*
X2324Y138D02*
X2334Y138D01*
X93Y137D02*
X102Y137D01*
X2324Y137D02*
X2333Y137D01*
X94Y136D02*
X103Y136D01*
X2323Y136D02*
X2332Y136D01*
X95Y135D02*
X104Y135D01*
X2322Y135D02*
X2331Y135D01*
X95Y134D02*
X105Y134D01*
X2321Y134D02*
X2331Y134D01*
X96Y133D02*
X106Y133D01*
X2320Y133D02*
X2330Y133D01*
X97Y132D02*
X107Y132D01*
X2319Y132D02*
X2329Y132D01*
X98Y131D02*
X108Y131D01*
X2318Y131D02*
X2328Y131D01*
X99Y130D02*
X109Y130D01*
X2317Y130D02*
X2327Y130D01*
X100Y129D02*
X110Y129D01*
X2316Y129D02*
X2326Y129D01*
X101Y128D02*
X111Y128D01*
X2315Y128D02*
X2325Y128D01*
X102Y127D02*
X112Y127D01*
X2314Y127D02*
X2324Y127D01*
X103Y126D02*
X113Y126D01*
X2313Y126D02*
X2323Y126D01*
X104Y125D02*
X114Y125D01*
X2312Y125D02*
X2322Y125D01*
X104Y124D02*
X115Y124D01*
X2311Y124D02*
X2322Y124D01*
X105Y123D02*
X116Y123D01*
X2310Y123D02*
X2321Y123D01*
X106Y122D02*
X117Y122D01*
X2309Y122D02*
X2320Y122D01*
X107Y121D02*
X117Y121D01*
X2309Y121D02*
X2319Y121D01*
X108Y120D02*
X118Y120D01*
X2308Y120D02*
X2318Y120D01*
X109Y119D02*
X119Y119D01*
X2307Y119D02*
X2317Y119D01*
X110Y118D02*
X121Y118D01*
X2305Y118D02*
X2316Y118D01*
X111Y117D02*
X122Y117D01*
X2304Y117D02*
X2315Y117D01*
X112Y116D02*
X123Y116D01*
X2303Y116D02*
X2314Y116D01*
X113Y115D02*
X124Y115D01*
X2302Y115D02*
X2313Y115D01*
X114Y114D02*
X125Y114D01*
X2301Y114D02*
X2312Y114D01*
X115Y113D02*
X126Y113D01*
X2300Y113D02*
X2311Y113D01*
X116Y112D02*
X127Y112D01*
X2299Y112D02*
X2310Y112D01*
X117Y111D02*
X128Y111D01*
X2298Y111D02*
X2309Y111D01*
X118Y110D02*
X129Y110D01*
X2297Y110D02*
X2308Y110D01*
X119Y109D02*
X130Y109D01*
X2296Y109D02*
X2307Y109D01*
X120Y108D02*
X131Y108D01*
X2295Y108D02*
X2306Y108D01*
X122Y107D02*
X132Y107D01*
X2294Y107D02*
X2304Y107D01*
X123Y106D02*
X133Y106D01*
X2293Y106D02*
X2303Y106D01*
X124Y105D02*
X134Y105D01*
X2291Y105D02*
X2302Y105D01*
X125Y104D02*
X136Y104D01*
X2290Y104D02*
X2301Y104D01*
X126Y103D02*
X137Y103D01*
X2289Y103D02*
X2300Y103D01*
X127Y102D02*
X138Y102D01*
X2288Y102D02*
X2299Y102D01*
X128Y101D02*
X139Y101D01*
X2287Y101D02*
X2298Y101D01*
X129Y100D02*
X140Y100D01*
X2286Y100D02*
X2297Y100D01*
X130Y99D02*
X142Y99D01*
X2284Y99D02*
X2296Y99D01*
X131Y98D02*
X143Y98D01*
X2283Y98D02*
X2295Y98D01*
X133Y97D02*
X144Y97D01*
X2282Y97D02*
X2293Y97D01*
X134Y96D02*
X145Y96D01*
X2281Y96D02*
X2292Y96D01*
X135Y95D02*
X146Y95D01*
X2280Y95D02*
X2291Y95D01*
X136Y94D02*
X147Y94D01*
X2279Y94D02*
X2290Y94D01*
X137Y93D02*
X149Y93D01*
X2277Y93D02*
X2289Y93D01*
X138Y92D02*
X150Y92D01*
X2276Y92D02*
X2288Y92D01*
X140Y91D02*
X151Y91D01*
X2275Y91D02*
X2286Y91D01*
X141Y90D02*
X153Y90D01*
X2273Y90D02*
X2285Y90D01*
X142Y89D02*
X154Y89D01*
X2272Y89D02*
X2284Y89D01*
X143Y88D02*
X155Y88D01*
X2271Y88D02*
X2283Y88D01*
X144Y87D02*
X156Y87D01*
X2270Y87D02*
X2282Y87D01*
X146Y86D02*
X158Y86D01*
X2268Y86D02*
X2280Y86D01*
X147Y85D02*
X159Y85D01*
X2267Y85D02*
X2279Y85D01*
X148Y84D02*
X160Y84D01*
X2266Y84D02*
X2278Y84D01*
X150Y83D02*
X162Y83D01*
X2264Y83D02*
X2276Y83D01*
X151Y82D02*
X163Y82D01*
X2263Y82D02*
X2275Y82D01*
X152Y81D02*
X165Y81D01*
X2261Y81D02*
X2274Y81D01*
X153Y80D02*
X166Y80D01*
X2260Y80D02*
X2272Y80D01*
X155Y79D02*
X167Y79D01*
X2259Y79D02*
X2271Y79D01*
X156Y78D02*
X169Y78D01*
X2257Y78D02*
X2270Y78D01*
X157Y77D02*
X170Y77D01*
X2256Y77D02*
X2269Y77D01*
X159Y76D02*
X172Y76D01*
X2254Y76D02*
X2267Y76D01*
X160Y75D02*
X173Y75D01*
X2253Y75D02*
X2266Y75D01*
X162Y74D02*
X174Y74D01*
X2252Y74D02*
X2264Y74D01*
X163Y73D02*
X176Y73D01*
X2250Y73D02*
X2263Y73D01*
X165Y72D02*
X177Y72D01*
X2249Y72D02*
X2261Y72D01*
X166Y71D02*
X179Y71D01*
X2247Y71D02*
X2260Y71D01*
X167Y70D02*
X181Y70D01*
X2245Y70D02*
X2259Y70D01*
X169Y69D02*
X182Y69D01*
X2244Y69D02*
X2257Y69D01*
X170Y68D02*
X184Y68D01*
X2242Y68D02*
X2256Y68D01*
X172Y67D02*
X185Y67D01*
X2241Y67D02*
X2254Y67D01*
X173Y66D02*
X187Y66D01*
X2239Y66D02*
X2253Y66D01*
X175Y65D02*
X189Y65D01*
X2237Y65D02*
X2251Y65D01*
X176Y64D02*
X190Y64D01*
X2236Y64D02*
X2250Y64D01*
X178Y63D02*
X192Y63D01*
X2234Y63D02*
X2248Y63D01*
X180Y62D02*
X193Y62D01*
X2233Y62D02*
X2246Y62D01*
X181Y61D02*
X195Y61D01*
X2231Y61D02*
X2245Y61D01*
X183Y60D02*
X197Y60D01*
X2229Y60D02*
X2243Y60D01*
X184Y59D02*
X199Y59D01*
X2227Y59D02*
X2242Y59D01*
X186Y58D02*
X201Y58D01*
X2225Y58D02*
X2240Y58D01*
X187Y57D02*
X202Y57D01*
X2224Y57D02*
X2239Y57D01*
X189Y56D02*
X204Y56D01*
X2222Y56D02*
X2237Y56D01*
X191Y55D02*
X206Y55D01*
X2220Y55D02*
X2235Y55D01*
X193Y54D02*
X208Y54D01*
X2218Y54D02*
X2233Y54D01*
X194Y53D02*
X210Y53D01*
X2216Y53D02*
X2232Y53D01*
X196Y52D02*
X212Y52D01*
X2214Y52D02*
X2230Y52D01*
X198Y51D02*
X214Y51D01*
X2212Y51D02*
X2228Y51D01*
X200Y50D02*
X215Y50D01*
X2211Y50D02*
X2226Y50D01*
X201Y49D02*
X217Y49D01*
X2209Y49D02*
X2225Y49D01*
X203Y48D02*
X219Y48D01*
X2207Y48D02*
X2223Y48D01*
X205Y47D02*
X221Y47D01*
X2205Y47D02*
X2221Y47D01*
X207Y46D02*
X223Y46D01*
X2203Y46D02*
X2219Y46D01*
X209Y45D02*
X226Y45D01*
X2200Y45D02*
X2217Y45D01*
X211Y44D02*
X228Y44D01*
X2198Y44D02*
X2215Y44D01*
X213Y43D02*
X230Y43D01*
X2196Y43D02*
X2213Y43D01*
X215Y42D02*
X232Y42D01*
X2194Y42D02*
X2211Y42D01*
X217Y41D02*
X235Y41D01*
X2191Y41D02*
X2209Y41D01*
X219Y40D02*
X237Y40D01*
X2189Y40D02*
X2207Y40D01*
X221Y39D02*
X239Y39D01*
X2187Y39D02*
X2205Y39D01*
X223Y38D02*
X241Y38D01*
X2185Y38D02*
X2203Y38D01*
X225Y37D02*
X244Y37D01*
X2182Y37D02*
X2201Y37D01*
X227Y36D02*
X246Y36D01*
X2180Y36D02*
X2199Y36D01*
X230Y35D02*
X249Y35D01*
X2177Y35D02*
X2196Y35D01*
X232Y34D02*
X252Y34D01*
X2174Y34D02*
X2194Y34D01*
X234Y33D02*
X254Y33D01*
X2172Y33D02*
X2192Y33D01*
X236Y32D02*
X257Y32D01*
X2169Y32D02*
X2190Y32D01*
X239Y31D02*
X259Y31D01*
X2167Y31D02*
X2187Y31D01*
X241Y30D02*
X262Y30D01*
X2164Y30D02*
X2185Y30D01*
X244Y29D02*
X265Y29D01*
X2161Y29D02*
X2182Y29D01*
X246Y28D02*
X268Y28D01*
X2158Y28D02*
X2180Y28D01*
X249Y27D02*
X271Y27D01*
X2155Y27D02*
X2177Y27D01*
X251Y26D02*
X274Y26D01*
X2152Y26D02*
X2175Y26D01*
X254Y25D02*
X278Y25D01*
X2148Y25D02*
X2172Y25D01*
X257Y24D02*
X281Y24D01*
X2145Y24D02*
X2169Y24D01*
X260Y23D02*
X284Y23D01*
X2142Y23D02*
X2166Y23D01*
X263Y22D02*
X288Y22D01*
X2138Y22D02*
X2163Y22D01*
X266Y21D02*
X292Y21D01*
X2134Y21D02*
X2160Y21D01*
X269Y20D02*
X296Y20D01*
X2130Y20D02*
X2157Y20D01*
X272Y19D02*
X300Y19D01*
X2126Y19D02*
X2154Y19D01*
X275Y18D02*
X304Y18D01*
X2122Y18D02*
X2151Y18D01*
X278Y17D02*
X309Y17D01*
X2117Y17D02*
X2148Y17D01*
X281Y16D02*
X314Y16D01*
X2112Y16D02*
X2145Y16D01*
X285Y15D02*
X319Y15D01*
X2107Y15D02*
X2141Y15D01*
X288Y14D02*
X325Y14D01*
X2101Y14D02*
X2138Y14D01*
X292Y13D02*
X331Y13D01*
X2095Y13D02*
X2134Y13D01*
X296Y12D02*
X338Y12D01*
X2088Y12D02*
X2130Y12D01*
X300Y11D02*
X346Y11D01*
X2080Y11D02*
X2126Y11D01*
X305Y10D02*
X356Y10D01*
X2070Y10D02*
X2121Y10D01*
X309Y9D02*
X370Y9D01*
X2056Y9D02*
X2117Y9D01*
X314Y8D02*
X2112Y8D01*
X320Y7D02*
X2106Y7D01*
X325Y6D02*
X2101Y6D01*
X331Y5D02*
X2095Y5D01*
X339Y4D02*
X2087Y4D01*
X347Y3D02*
X2079Y3D01*
X357Y2D02*
X2069Y2D01*
X371Y1D02*
X2055Y1D01*
D02*
G04 End of Silk0*
M02*