G04 MADE WITH FRITZING*
G04 WWW.FRITZING.ORG*
G04 DOUBLE SIDED*
G04 HOLES PLATED*
G04 CONTOUR ON CENTER OF CONTOUR VECTOR*
%ASAXBY*%
%FSLAX23Y23*%
%MOIN*%
%OFA0B0*%
%SFA1.0B1.0*%
%ADD10C,0.008*%
%LNCONTOUR*%
G90*
G70*
G54D10*
X371Y2643D02*
X372Y2643D01*
X373Y2643D01*
X374Y2643D01*
X375Y2643D01*
X376Y2643D01*
X377Y2643D01*
X378Y2643D01*
X379Y2643D01*
X380Y2643D01*
X381Y2643D01*
X382Y2643D01*
X383Y2643D01*
X384Y2643D01*
X385Y2643D01*
X386Y2643D01*
X387Y2643D01*
X388Y2643D01*
X389Y2643D01*
X390Y2643D01*
X391Y2643D01*
X392Y2643D01*
X393Y2643D01*
X394Y2643D01*
X395Y2643D01*
X396Y2643D01*
X397Y2643D01*
X398Y2643D01*
X399Y2643D01*
X400Y2643D01*
X401Y2643D01*
X402Y2643D01*
X403Y2643D01*
X404Y2643D01*
X405Y2643D01*
X406Y2643D01*
X407Y2643D01*
X408Y2643D01*
X409Y2643D01*
X410Y2643D01*
X411Y2643D01*
X412Y2643D01*
X413Y2643D01*
X414Y2643D01*
X415Y2643D01*
X416Y2643D01*
X417Y2643D01*
X418Y2643D01*
X419Y2643D01*
X420Y2643D01*
X421Y2643D01*
X422Y2643D01*
X423Y2643D01*
X424Y2643D01*
X425Y2643D01*
X426Y2643D01*
X427Y2643D01*
X428Y2643D01*
X429Y2643D01*
X430Y2643D01*
X431Y2643D01*
X432Y2643D01*
X433Y2643D01*
X434Y2643D01*
X435Y2643D01*
X436Y2643D01*
X437Y2643D01*
X438Y2643D01*
X439Y2643D01*
X440Y2643D01*
X441Y2643D01*
X442Y2643D01*
X443Y2643D01*
X444Y2643D01*
X445Y2643D01*
X446Y2643D01*
X447Y2643D01*
X448Y2643D01*
X449Y2643D01*
X450Y2643D01*
X451Y2643D01*
X452Y2643D01*
X453Y2643D01*
X454Y2643D01*
X455Y2643D01*
X456Y2643D01*
X457Y2643D01*
X458Y2643D01*
X459Y2643D01*
X460Y2643D01*
X461Y2643D01*
X462Y2643D01*
X463Y2643D01*
X464Y2643D01*
X465Y2643D01*
X466Y2643D01*
X467Y2643D01*
X468Y2643D01*
X469Y2643D01*
X470Y2643D01*
X471Y2643D01*
X472Y2643D01*
X473Y2643D01*
X474Y2643D01*
X475Y2643D01*
X476Y2643D01*
X477Y2643D01*
X478Y2643D01*
X479Y2643D01*
X480Y2643D01*
X481Y2643D01*
X482Y2643D01*
X483Y2643D01*
X484Y2643D01*
X485Y2643D01*
X486Y2643D01*
X487Y2643D01*
X488Y2643D01*
X489Y2643D01*
X490Y2643D01*
X491Y2643D01*
X492Y2643D01*
X493Y2643D01*
X494Y2643D01*
X495Y2643D01*
X496Y2643D01*
X497Y2643D01*
X498Y2643D01*
X499Y2643D01*
X500Y2643D01*
X501Y2643D01*
X502Y2643D01*
X503Y2643D01*
X504Y2643D01*
X505Y2643D01*
X506Y2643D01*
X507Y2643D01*
X508Y2643D01*
X509Y2643D01*
X510Y2643D01*
X511Y2643D01*
X512Y2643D01*
X513Y2643D01*
X514Y2643D01*
X515Y2643D01*
X516Y2643D01*
X517Y2643D01*
X518Y2643D01*
X519Y2643D01*
X520Y2643D01*
X521Y2643D01*
X522Y2643D01*
X523Y2643D01*
X524Y2643D01*
X525Y2643D01*
X526Y2643D01*
X527Y2643D01*
X528Y2643D01*
X529Y2643D01*
X530Y2643D01*
X531Y2643D01*
X532Y2643D01*
X533Y2643D01*
X534Y2643D01*
X535Y2643D01*
X536Y2643D01*
X537Y2643D01*
X538Y2643D01*
X539Y2643D01*
X540Y2643D01*
X541Y2643D01*
X542Y2643D01*
X543Y2643D01*
X544Y2643D01*
X545Y2643D01*
X546Y2643D01*
X547Y2643D01*
X548Y2643D01*
X549Y2643D01*
X550Y2643D01*
X551Y2643D01*
X552Y2643D01*
X553Y2643D01*
X554Y2643D01*
X555Y2643D01*
X556Y2643D01*
X557Y2643D01*
X558Y2643D01*
X559Y2643D01*
X560Y2643D01*
X561Y2643D01*
X562Y2643D01*
X563Y2643D01*
X564Y2643D01*
X565Y2643D01*
X566Y2643D01*
X567Y2643D01*
X568Y2643D01*
X569Y2643D01*
X570Y2643D01*
X571Y2643D01*
X572Y2643D01*
X573Y2643D01*
X574Y2643D01*
X575Y2643D01*
X576Y2643D01*
X577Y2643D01*
X578Y2643D01*
X579Y2643D01*
X580Y2643D01*
X581Y2643D01*
X582Y2643D01*
X583Y2643D01*
X584Y2643D01*
X585Y2643D01*
X586Y2643D01*
X587Y2643D01*
X588Y2643D01*
X589Y2643D01*
X590Y2643D01*
X591Y2643D01*
X592Y2643D01*
X593Y2643D01*
X594Y2643D01*
X595Y2643D01*
X596Y2643D01*
X597Y2643D01*
X598Y2643D01*
X599Y2643D01*
X600Y2643D01*
X601Y2643D01*
X602Y2643D01*
X603Y2643D01*
X604Y2643D01*
X605Y2643D01*
X606Y2643D01*
X607Y2643D01*
X608Y2643D01*
X609Y2643D01*
X610Y2643D01*
X611Y2643D01*
X612Y2643D01*
X613Y2643D01*
X614Y2643D01*
X615Y2643D01*
X616Y2643D01*
X617Y2643D01*
X618Y2643D01*
X619Y2643D01*
X620Y2643D01*
X621Y2643D01*
X622Y2643D01*
X623Y2643D01*
X624Y2643D01*
X625Y2643D01*
X626Y2643D01*
X627Y2643D01*
X628Y2643D01*
X629Y2643D01*
X630Y2643D01*
X631Y2643D01*
X632Y2643D01*
X633Y2643D01*
X634Y2643D01*
X635Y2643D01*
X636Y2643D01*
X637Y2643D01*
X638Y2643D01*
X639Y2643D01*
X640Y2643D01*
X641Y2643D01*
X642Y2643D01*
X643Y2643D01*
X644Y2643D01*
X645Y2643D01*
X646Y2643D01*
X647Y2643D01*
X648Y2643D01*
X649Y2643D01*
X650Y2643D01*
X651Y2643D01*
X652Y2643D01*
X653Y2643D01*
X654Y2643D01*
X655Y2643D01*
X656Y2643D01*
X657Y2643D01*
X658Y2643D01*
X659Y2643D01*
X660Y2643D01*
X661Y2643D01*
X662Y2643D01*
X663Y2643D01*
X664Y2643D01*
X665Y2643D01*
X666Y2643D01*
X667Y2643D01*
X668Y2643D01*
X669Y2643D01*
X670Y2643D01*
X671Y2643D01*
X672Y2643D01*
X673Y2643D01*
X674Y2643D01*
X675Y2643D01*
X676Y2643D01*
X677Y2643D01*
X678Y2643D01*
X679Y2643D01*
X680Y2643D01*
X681Y2643D01*
X682Y2643D01*
X683Y2643D01*
X684Y2643D01*
X685Y2643D01*
X686Y2643D01*
X687Y2643D01*
X688Y2643D01*
X689Y2643D01*
X690Y2643D01*
X691Y2643D01*
X692Y2643D01*
X693Y2643D01*
X694Y2643D01*
X695Y2643D01*
X696Y2643D01*
X697Y2643D01*
X698Y2643D01*
X699Y2643D01*
X700Y2643D01*
X701Y2643D01*
X702Y2643D01*
X703Y2643D01*
X704Y2643D01*
X705Y2643D01*
X706Y2643D01*
X707Y2643D01*
X708Y2643D01*
X709Y2643D01*
X710Y2643D01*
X711Y2643D01*
X712Y2643D01*
X713Y2643D01*
X714Y2643D01*
X715Y2643D01*
X716Y2643D01*
X717Y2643D01*
X718Y2643D01*
X719Y2643D01*
X720Y2643D01*
X721Y2643D01*
X722Y2643D01*
X723Y2643D01*
X724Y2643D01*
X725Y2643D01*
X726Y2643D01*
X727Y2643D01*
X728Y2643D01*
X729Y2643D01*
X730Y2643D01*
X731Y2643D01*
X732Y2643D01*
X733Y2643D01*
X734Y2643D01*
X735Y2643D01*
X736Y2643D01*
X737Y2643D01*
X738Y2643D01*
X739Y2643D01*
X740Y2643D01*
X741Y2643D01*
X742Y2643D01*
X743Y2643D01*
X744Y2643D01*
X745Y2643D01*
X746Y2643D01*
X747Y2643D01*
X748Y2643D01*
X749Y2643D01*
X750Y2643D01*
X751Y2643D01*
X752Y2643D01*
X753Y2643D01*
X754Y2643D01*
X755Y2643D01*
X756Y2643D01*
X757Y2643D01*
X758Y2643D01*
X759Y2643D01*
X760Y2643D01*
X761Y2643D01*
X762Y2643D01*
X763Y2643D01*
X764Y2643D01*
X765Y2643D01*
X766Y2643D01*
X767Y2643D01*
X768Y2643D01*
X769Y2643D01*
X770Y2643D01*
X771Y2643D01*
X772Y2643D01*
X773Y2643D01*
X774Y2643D01*
X775Y2643D01*
X776Y2643D01*
X777Y2643D01*
X778Y2643D01*
X779Y2643D01*
X780Y2643D01*
X781Y2643D01*
X782Y2643D01*
X783Y2643D01*
X784Y2643D01*
X785Y2643D01*
X786Y2643D01*
X787Y2643D01*
X788Y2643D01*
X789Y2643D01*
X790Y2643D01*
X791Y2643D01*
X792Y2643D01*
X793Y2643D01*
X794Y2643D01*
X795Y2643D01*
X796Y2643D01*
X797Y2643D01*
X798Y2643D01*
X799Y2643D01*
X800Y2643D01*
X801Y2643D01*
X802Y2643D01*
X803Y2643D01*
X804Y2643D01*
X805Y2643D01*
X806Y2643D01*
X807Y2643D01*
X808Y2643D01*
X809Y2643D01*
X810Y2643D01*
X811Y2643D01*
X812Y2643D01*
X813Y2643D01*
X814Y2643D01*
X815Y2643D01*
X816Y2643D01*
X817Y2643D01*
X818Y2643D01*
X819Y2643D01*
X820Y2643D01*
X821Y2643D01*
X822Y2643D01*
X823Y2643D01*
X824Y2643D01*
X825Y2643D01*
X826Y2643D01*
X827Y2643D01*
X828Y2643D01*
X829Y2643D01*
X830Y2643D01*
X831Y2643D01*
X832Y2643D01*
X833Y2643D01*
X834Y2643D01*
X835Y2643D01*
X836Y2643D01*
X837Y2643D01*
X838Y2643D01*
X839Y2643D01*
X840Y2643D01*
X841Y2643D01*
X842Y2643D01*
X843Y2643D01*
X844Y2643D01*
X845Y2643D01*
X846Y2643D01*
X847Y2643D01*
X848Y2643D01*
X849Y2643D01*
X850Y2643D01*
X851Y2643D01*
X852Y2643D01*
X853Y2643D01*
X854Y2643D01*
X855Y2643D01*
X856Y2643D01*
X857Y2643D01*
X858Y2643D01*
X859Y2643D01*
X860Y2643D01*
X861Y2643D01*
X862Y2643D01*
X863Y2643D01*
X864Y2643D01*
X865Y2643D01*
X866Y2643D01*
X867Y2643D01*
X868Y2643D01*
X869Y2643D01*
X870Y2643D01*
X871Y2643D01*
X872Y2643D01*
X873Y2643D01*
X874Y2643D01*
X875Y2643D01*
X876Y2643D01*
X877Y2643D01*
X878Y2643D01*
X879Y2643D01*
X880Y2643D01*
X881Y2643D01*
X882Y2643D01*
X883Y2643D01*
X884Y2643D01*
X885Y2643D01*
X886Y2643D01*
X887Y2643D01*
X888Y2643D01*
X889Y2643D01*
X890Y2643D01*
X891Y2643D01*
X892Y2643D01*
X893Y2643D01*
X894Y2643D01*
X895Y2643D01*
X896Y2643D01*
X897Y2643D01*
X898Y2643D01*
X899Y2643D01*
X900Y2643D01*
X901Y2643D01*
X902Y2643D01*
X903Y2643D01*
X904Y2643D01*
X905Y2643D01*
X906Y2643D01*
X907Y2643D01*
X908Y2643D01*
X909Y2643D01*
X910Y2643D01*
X911Y2643D01*
X912Y2643D01*
X913Y2643D01*
X914Y2643D01*
X915Y2643D01*
X916Y2643D01*
X917Y2643D01*
X918Y2643D01*
X919Y2643D01*
X920Y2643D01*
X921Y2643D01*
X922Y2643D01*
X923Y2643D01*
X924Y2643D01*
X925Y2643D01*
X926Y2643D01*
X927Y2643D01*
X928Y2643D01*
X929Y2643D01*
X930Y2643D01*
X931Y2643D01*
X932Y2643D01*
X933Y2643D01*
X934Y2643D01*
X935Y2643D01*
X936Y2643D01*
X937Y2643D01*
X938Y2643D01*
X939Y2643D01*
X940Y2643D01*
X941Y2643D01*
X942Y2643D01*
X943Y2643D01*
X944Y2643D01*
X945Y2643D01*
X946Y2643D01*
X947Y2643D01*
X948Y2643D01*
X949Y2643D01*
X950Y2643D01*
X951Y2643D01*
X952Y2643D01*
X953Y2643D01*
X954Y2643D01*
X955Y2643D01*
X956Y2643D01*
X957Y2643D01*
X958Y2643D01*
X959Y2643D01*
X960Y2643D01*
X961Y2643D01*
X962Y2643D01*
X963Y2643D01*
X964Y2643D01*
X965Y2643D01*
X966Y2643D01*
X967Y2643D01*
X968Y2643D01*
X969Y2643D01*
X970Y2643D01*
X971Y2643D01*
X972Y2643D01*
X973Y2643D01*
X974Y2643D01*
X975Y2643D01*
X976Y2643D01*
X977Y2643D01*
X978Y2643D01*
X979Y2643D01*
X980Y2643D01*
X981Y2643D01*
X982Y2643D01*
X983Y2643D01*
X984Y2643D01*
X985Y2643D01*
X986Y2643D01*
X987Y2643D01*
X988Y2643D01*
X989Y2643D01*
X990Y2643D01*
X991Y2643D01*
X992Y2643D01*
X993Y2643D01*
X994Y2643D01*
X995Y2643D01*
X996Y2643D01*
X997Y2643D01*
X998Y2643D01*
X999Y2643D01*
X1000Y2643D01*
X1001Y2643D01*
X1002Y2643D01*
X1003Y2643D01*
X1004Y2643D01*
X1005Y2643D01*
X1006Y2643D01*
X1007Y2643D01*
X1008Y2643D01*
X1009Y2643D01*
X1010Y2643D01*
X1011Y2643D01*
X1012Y2643D01*
X1013Y2643D01*
X1014Y2643D01*
X1015Y2643D01*
X1016Y2643D01*
X1017Y2643D01*
X1018Y2643D01*
X1019Y2643D01*
X1020Y2643D01*
X1021Y2643D01*
X1022Y2643D01*
X1023Y2643D01*
X1024Y2643D01*
X1025Y2643D01*
X1026Y2643D01*
X1027Y2643D01*
X1028Y2643D01*
X1029Y2643D01*
X1030Y2643D01*
X1031Y2643D01*
X1032Y2643D01*
X1033Y2643D01*
X1034Y2643D01*
X1035Y2643D01*
X1036Y2643D01*
X1037Y2643D01*
X1038Y2643D01*
X1039Y2643D01*
X1040Y2643D01*
X1041Y2643D01*
X1042Y2643D01*
X1043Y2643D01*
X1044Y2643D01*
X1045Y2643D01*
X1046Y2643D01*
X1047Y2643D01*
X1048Y2643D01*
X1049Y2643D01*
X1050Y2643D01*
X1051Y2643D01*
X1052Y2643D01*
X1053Y2643D01*
X1054Y2643D01*
X1055Y2643D01*
X1056Y2643D01*
X1057Y2643D01*
X1058Y2643D01*
X1059Y2643D01*
X1060Y2643D01*
X1061Y2643D01*
X1062Y2643D01*
X1063Y2643D01*
X1064Y2643D01*
X1065Y2643D01*
X1066Y2643D01*
X1067Y2643D01*
X1068Y2643D01*
X1069Y2643D01*
X1070Y2643D01*
X1071Y2643D01*
X1072Y2643D01*
X1073Y2643D01*
X1074Y2643D01*
X1075Y2643D01*
X1076Y2643D01*
X1077Y2643D01*
X1078Y2643D01*
X1079Y2643D01*
X1080Y2643D01*
X1081Y2643D01*
X1082Y2643D01*
X1083Y2643D01*
X1084Y2643D01*
X1085Y2643D01*
X1086Y2643D01*
X1087Y2643D01*
X1088Y2643D01*
X1089Y2643D01*
X1090Y2643D01*
X1091Y2643D01*
X1092Y2643D01*
X1093Y2643D01*
X1094Y2643D01*
X1095Y2643D01*
X1096Y2643D01*
X1097Y2643D01*
X1098Y2643D01*
X1099Y2643D01*
X1100Y2643D01*
X1101Y2643D01*
X1102Y2643D01*
X1103Y2643D01*
X1104Y2643D01*
X1105Y2643D01*
X1106Y2643D01*
X1107Y2643D01*
X1108Y2643D01*
X1109Y2643D01*
X1110Y2643D01*
X1111Y2643D01*
X1112Y2643D01*
X1113Y2643D01*
X1114Y2643D01*
X1115Y2643D01*
X1116Y2643D01*
X1117Y2643D01*
X1118Y2643D01*
X1119Y2643D01*
X1120Y2643D01*
X1121Y2643D01*
X1122Y2643D01*
X1123Y2643D01*
X1124Y2643D01*
X1125Y2643D01*
X1126Y2643D01*
X1127Y2643D01*
X1128Y2643D01*
X1129Y2643D01*
X1130Y2643D01*
X1131Y2643D01*
X1132Y2643D01*
X1133Y2643D01*
X1134Y2643D01*
X1135Y2643D01*
X1136Y2643D01*
X1137Y2643D01*
X1138Y2643D01*
X1139Y2643D01*
X1140Y2643D01*
X1141Y2643D01*
X1142Y2643D01*
X1143Y2643D01*
X1144Y2643D01*
X1145Y2643D01*
X1146Y2643D01*
X1147Y2643D01*
X1148Y2643D01*
X1149Y2643D01*
X1150Y2643D01*
X1151Y2643D01*
X1152Y2643D01*
X1153Y2643D01*
X1154Y2643D01*
X1155Y2643D01*
X1156Y2643D01*
X1157Y2643D01*
X1158Y2643D01*
X1159Y2643D01*
X1160Y2643D01*
X1161Y2643D01*
X1162Y2643D01*
X1163Y2643D01*
X1164Y2643D01*
X1165Y2643D01*
X1166Y2643D01*
X1167Y2643D01*
X1168Y2643D01*
X1169Y2643D01*
X1170Y2643D01*
X1171Y2643D01*
X1172Y2643D01*
X1173Y2643D01*
X1174Y2643D01*
X1175Y2643D01*
X1176Y2643D01*
X1177Y2643D01*
X1178Y2643D01*
X1179Y2643D01*
X1180Y2643D01*
X1181Y2643D01*
X1182Y2643D01*
X1183Y2643D01*
X1184Y2643D01*
X1185Y2643D01*
X1186Y2643D01*
X1187Y2643D01*
X1188Y2643D01*
X1189Y2643D01*
X1190Y2643D01*
X1191Y2643D01*
X1192Y2643D01*
X1193Y2643D01*
X1194Y2643D01*
X1195Y2643D01*
X1196Y2643D01*
X1197Y2643D01*
X1198Y2643D01*
X1199Y2643D01*
X1200Y2643D01*
X1201Y2643D01*
X1202Y2643D01*
X1203Y2643D01*
X1204Y2643D01*
X1205Y2643D01*
X1206Y2643D01*
X1207Y2643D01*
X1208Y2643D01*
X1209Y2643D01*
X1210Y2643D01*
X1211Y2643D01*
X1212Y2643D01*
X1213Y2643D01*
X1214Y2643D01*
X1215Y2643D01*
X1216Y2643D01*
X1217Y2643D01*
X1218Y2643D01*
X1219Y2643D01*
X1220Y2643D01*
X1221Y2643D01*
X1222Y2643D01*
X1223Y2643D01*
X1224Y2643D01*
X1225Y2643D01*
X1226Y2643D01*
X1227Y2643D01*
X1228Y2643D01*
X1229Y2643D01*
X1230Y2643D01*
X1231Y2643D01*
X1232Y2643D01*
X1233Y2643D01*
X1234Y2643D01*
X1235Y2643D01*
X1236Y2643D01*
X1237Y2643D01*
X1238Y2643D01*
X1239Y2643D01*
X1240Y2643D01*
X1241Y2643D01*
X1242Y2643D01*
X1243Y2643D01*
X1244Y2643D01*
X1245Y2643D01*
X1246Y2643D01*
X1247Y2643D01*
X1248Y2643D01*
X1249Y2643D01*
X1250Y2643D01*
X1251Y2643D01*
X1252Y2643D01*
X1253Y2643D01*
X1254Y2643D01*
X1255Y2643D01*
X1256Y2643D01*
X1257Y2643D01*
X1258Y2643D01*
X1259Y2643D01*
X1260Y2643D01*
X1261Y2643D01*
X1262Y2643D01*
X1263Y2643D01*
X1264Y2643D01*
X1265Y2643D01*
X1266Y2643D01*
X1267Y2643D01*
X1268Y2643D01*
X1269Y2643D01*
X1270Y2643D01*
X1271Y2643D01*
X1272Y2643D01*
X1273Y2643D01*
X1274Y2643D01*
X1275Y2643D01*
X1276Y2643D01*
X1277Y2643D01*
X1278Y2643D01*
X1279Y2643D01*
X1280Y2643D01*
X1281Y2643D01*
X1282Y2643D01*
X1283Y2643D01*
X1284Y2643D01*
X1285Y2643D01*
X1286Y2643D01*
X1287Y2643D01*
X1288Y2643D01*
X1289Y2643D01*
X1290Y2643D01*
X1291Y2643D01*
X1292Y2643D01*
X1293Y2643D01*
X1294Y2643D01*
X1295Y2643D01*
X1296Y2643D01*
X1297Y2643D01*
X1298Y2643D01*
X1299Y2643D01*
X1300Y2643D01*
X1301Y2643D01*
X1302Y2643D01*
X1303Y2643D01*
X1304Y2643D01*
X1305Y2643D01*
X1306Y2643D01*
X1307Y2643D01*
X1308Y2643D01*
X1309Y2643D01*
X1310Y2643D01*
X1311Y2643D01*
X1312Y2643D01*
X1313Y2643D01*
X1314Y2643D01*
X1315Y2643D01*
X1316Y2643D01*
X1317Y2643D01*
X1318Y2643D01*
X1319Y2643D01*
X1320Y2643D01*
X1321Y2643D01*
X1322Y2643D01*
X1323Y2643D01*
X1324Y2643D01*
X1325Y2643D01*
X1326Y2643D01*
X1327Y2643D01*
X1328Y2643D01*
X1329Y2643D01*
X1330Y2643D01*
X1331Y2643D01*
X1332Y2643D01*
X1333Y2643D01*
X1334Y2643D01*
X1335Y2643D01*
X1336Y2643D01*
X1337Y2643D01*
X1338Y2643D01*
X1339Y2643D01*
X1340Y2643D01*
X1341Y2643D01*
X1342Y2643D01*
X1343Y2643D01*
X1344Y2643D01*
X1345Y2643D01*
X1346Y2643D01*
X1347Y2643D01*
X1348Y2643D01*
X1349Y2643D01*
X1350Y2643D01*
X1351Y2643D01*
X1352Y2643D01*
X1353Y2643D01*
X1354Y2643D01*
X1355Y2643D01*
X1356Y2643D01*
X1357Y2643D01*
X1358Y2643D01*
X1359Y2643D01*
X1360Y2643D01*
X1361Y2643D01*
X1362Y2643D01*
X1363Y2643D01*
X1364Y2643D01*
X1365Y2643D01*
X1366Y2643D01*
X1367Y2643D01*
X1368Y2643D01*
X1369Y2643D01*
X1370Y2643D01*
X1371Y2643D01*
X1372Y2643D01*
X1373Y2643D01*
X1374Y2643D01*
X1375Y2643D01*
X1376Y2643D01*
X1377Y2643D01*
X1378Y2643D01*
X1379Y2643D01*
X1380Y2643D01*
X1381Y2643D01*
X1382Y2643D01*
X1383Y2643D01*
X1384Y2643D01*
X1385Y2643D01*
X1386Y2643D01*
X1387Y2643D01*
X1388Y2643D01*
X1389Y2643D01*
X1390Y2643D01*
X1391Y2643D01*
X1392Y2643D01*
X1393Y2643D01*
X1394Y2643D01*
X1395Y2643D01*
X1396Y2643D01*
X1397Y2643D01*
X1398Y2643D01*
X1399Y2643D01*
X1400Y2643D01*
X1401Y2643D01*
X1402Y2643D01*
X1403Y2643D01*
X1404Y2643D01*
X1405Y2643D01*
X1406Y2643D01*
X1407Y2643D01*
X1408Y2643D01*
X1409Y2643D01*
X1410Y2643D01*
X1411Y2643D01*
X1412Y2643D01*
X1413Y2643D01*
X1414Y2643D01*
X1415Y2643D01*
X1416Y2643D01*
X1417Y2643D01*
X1418Y2643D01*
X1419Y2643D01*
X1420Y2643D01*
X1421Y2643D01*
X1422Y2643D01*
X1423Y2643D01*
X1424Y2643D01*
X1425Y2643D01*
X1426Y2643D01*
X1427Y2643D01*
X1428Y2643D01*
X1429Y2643D01*
X1430Y2643D01*
X1431Y2643D01*
X1432Y2643D01*
X1433Y2643D01*
X1434Y2643D01*
X1435Y2643D01*
X1436Y2643D01*
X1437Y2643D01*
X1438Y2643D01*
X1439Y2643D01*
X1440Y2643D01*
X1441Y2643D01*
X1442Y2643D01*
X1443Y2643D01*
X1444Y2643D01*
X1445Y2643D01*
X1446Y2643D01*
X1447Y2643D01*
X1448Y2643D01*
X1449Y2643D01*
X1450Y2643D01*
X1451Y2643D01*
X1452Y2643D01*
X1453Y2643D01*
X1454Y2643D01*
X1455Y2643D01*
X1456Y2643D01*
X1457Y2643D01*
X1458Y2643D01*
X1459Y2643D01*
X1460Y2643D01*
X1461Y2643D01*
X1462Y2643D01*
X1463Y2643D01*
X1464Y2643D01*
X1465Y2643D01*
X1466Y2643D01*
X1467Y2643D01*
X1468Y2643D01*
X1469Y2643D01*
X1470Y2643D01*
X1471Y2643D01*
X1472Y2643D01*
X1473Y2643D01*
X1474Y2643D01*
X1475Y2643D01*
X1476Y2643D01*
X1477Y2643D01*
X1478Y2643D01*
X1479Y2643D01*
X1480Y2643D01*
X1481Y2643D01*
X1482Y2643D01*
X1483Y2643D01*
X1484Y2643D01*
X1485Y2643D01*
X1486Y2643D01*
X1487Y2643D01*
X1488Y2643D01*
X1489Y2643D01*
X1490Y2643D01*
X1491Y2643D01*
X1492Y2643D01*
X1493Y2643D01*
X1494Y2643D01*
X1495Y2643D01*
X1496Y2643D01*
X1497Y2643D01*
X1498Y2643D01*
X1499Y2643D01*
X1500Y2643D01*
X1501Y2643D01*
X1502Y2643D01*
X1503Y2643D01*
X1504Y2643D01*
X1505Y2643D01*
X1506Y2643D01*
X1507Y2643D01*
X1508Y2643D01*
X1509Y2643D01*
X1510Y2643D01*
X1511Y2643D01*
X1512Y2643D01*
X1513Y2643D01*
X1514Y2643D01*
X1515Y2643D01*
X1516Y2643D01*
X1517Y2643D01*
X1518Y2643D01*
X1519Y2643D01*
X1520Y2643D01*
X1521Y2643D01*
X1522Y2643D01*
X1523Y2643D01*
X1524Y2643D01*
X1525Y2643D01*
X1526Y2643D01*
X1527Y2643D01*
X1528Y2643D01*
X1529Y2643D01*
X1530Y2643D01*
X1531Y2643D01*
X1532Y2643D01*
X1533Y2643D01*
X1534Y2643D01*
X1535Y2643D01*
X1536Y2643D01*
X1537Y2643D01*
X1538Y2643D01*
X1539Y2643D01*
X1540Y2643D01*
X1541Y2643D01*
X1542Y2643D01*
X1543Y2643D01*
X1544Y2643D01*
X1545Y2643D01*
X1546Y2643D01*
X1547Y2643D01*
X1548Y2643D01*
X1549Y2643D01*
X1550Y2643D01*
X1551Y2643D01*
X1552Y2643D01*
X1553Y2643D01*
X1554Y2643D01*
X1555Y2643D01*
X1556Y2643D01*
X1557Y2643D01*
X1558Y2643D01*
X1559Y2643D01*
X1560Y2643D01*
X1561Y2643D01*
X1562Y2643D01*
X1563Y2643D01*
X1564Y2643D01*
X1565Y2643D01*
X1566Y2643D01*
X1567Y2643D01*
X1568Y2643D01*
X1569Y2643D01*
X1570Y2643D01*
X1571Y2643D01*
X1572Y2643D01*
X1573Y2643D01*
X1574Y2643D01*
X1575Y2643D01*
X1576Y2643D01*
X1577Y2643D01*
X1578Y2643D01*
X1579Y2643D01*
X1580Y2643D01*
X1581Y2643D01*
X1582Y2643D01*
X1583Y2643D01*
X1584Y2643D01*
X1585Y2643D01*
X1586Y2643D01*
X1587Y2643D01*
X1588Y2643D01*
X1589Y2643D01*
X1590Y2643D01*
X1591Y2643D01*
X1592Y2643D01*
X1593Y2643D01*
X1594Y2643D01*
X1595Y2643D01*
X1596Y2643D01*
X1597Y2643D01*
X1598Y2643D01*
X1599Y2643D01*
X1600Y2643D01*
X1601Y2643D01*
X1602Y2643D01*
X1603Y2643D01*
X1604Y2643D01*
X1605Y2643D01*
X1606Y2643D01*
X1607Y2643D01*
X1608Y2643D01*
X1609Y2643D01*
X1610Y2643D01*
X1611Y2643D01*
X1612Y2643D01*
X1613Y2643D01*
X1614Y2643D01*
X1615Y2643D01*
X1616Y2643D01*
X1617Y2643D01*
X1618Y2643D01*
X1619Y2643D01*
X1620Y2643D01*
X1621Y2643D01*
X1622Y2643D01*
X1623Y2643D01*
X1624Y2643D01*
X1625Y2643D01*
X1626Y2643D01*
X1627Y2643D01*
X1628Y2643D01*
X1629Y2643D01*
X1630Y2643D01*
X1631Y2643D01*
X1632Y2643D01*
X1633Y2643D01*
X1634Y2643D01*
X1635Y2643D01*
X1636Y2643D01*
X1637Y2643D01*
X1638Y2643D01*
X1639Y2643D01*
X1640Y2643D01*
X1641Y2643D01*
X1642Y2643D01*
X1643Y2643D01*
X1644Y2643D01*
X1645Y2643D01*
X1646Y2643D01*
X1647Y2643D01*
X1648Y2643D01*
X1649Y2643D01*
X1650Y2643D01*
X1651Y2643D01*
X1652Y2643D01*
X1653Y2643D01*
X1654Y2643D01*
X1655Y2643D01*
X1656Y2643D01*
X1657Y2643D01*
X1658Y2643D01*
X1659Y2643D01*
X1660Y2643D01*
X1661Y2643D01*
X1662Y2643D01*
X1663Y2643D01*
X1664Y2643D01*
X1665Y2643D01*
X1666Y2643D01*
X1667Y2643D01*
X1668Y2643D01*
X1669Y2643D01*
X1670Y2643D01*
X1671Y2643D01*
X1672Y2643D01*
X1673Y2643D01*
X1674Y2643D01*
X1675Y2643D01*
X1676Y2643D01*
X1677Y2643D01*
X1678Y2643D01*
X1679Y2643D01*
X1680Y2643D01*
X1681Y2643D01*
X1682Y2643D01*
X1683Y2643D01*
X1684Y2643D01*
X1685Y2643D01*
X1686Y2643D01*
X1687Y2643D01*
X1688Y2643D01*
X1689Y2643D01*
X1690Y2643D01*
X1691Y2643D01*
X1692Y2643D01*
X1693Y2643D01*
X1694Y2643D01*
X1695Y2643D01*
X1696Y2643D01*
X1697Y2643D01*
X1698Y2643D01*
X1699Y2643D01*
X1700Y2643D01*
X1701Y2643D01*
X1702Y2643D01*
X1703Y2643D01*
X1704Y2643D01*
X1705Y2643D01*
X1706Y2643D01*
X1707Y2643D01*
X1708Y2643D01*
X1709Y2643D01*
X1710Y2643D01*
X1711Y2643D01*
X1712Y2643D01*
X1713Y2643D01*
X1714Y2643D01*
X1715Y2643D01*
X1716Y2643D01*
X1717Y2643D01*
X1718Y2643D01*
X1719Y2643D01*
X1720Y2643D01*
X1721Y2643D01*
X1722Y2643D01*
X1723Y2643D01*
X1724Y2643D01*
X1725Y2643D01*
X1726Y2643D01*
X1727Y2643D01*
X1728Y2643D01*
X1729Y2643D01*
X1730Y2643D01*
X1731Y2643D01*
X1732Y2643D01*
X1733Y2643D01*
X1734Y2643D01*
X1735Y2643D01*
X1736Y2643D01*
X1737Y2643D01*
X1738Y2643D01*
X1739Y2643D01*
X1740Y2643D01*
X1741Y2643D01*
X1742Y2643D01*
X1743Y2643D01*
X1744Y2643D01*
X1745Y2643D01*
X1746Y2643D01*
X1747Y2643D01*
X1748Y2643D01*
X1749Y2643D01*
X1750Y2643D01*
X1751Y2643D01*
X1752Y2643D01*
X1753Y2643D01*
X1754Y2643D01*
X1755Y2643D01*
X1756Y2643D01*
X1757Y2643D01*
X1758Y2643D01*
X1759Y2643D01*
X1760Y2643D01*
X1761Y2643D01*
X1762Y2643D01*
X1763Y2643D01*
X1764Y2643D01*
X1765Y2643D01*
X1766Y2643D01*
X1767Y2643D01*
X1768Y2643D01*
X1769Y2643D01*
X1770Y2643D01*
X1771Y2643D01*
X1772Y2643D01*
X1773Y2643D01*
X1774Y2643D01*
X1775Y2643D01*
X1776Y2643D01*
X1777Y2643D01*
X1778Y2643D01*
X1779Y2643D01*
X1780Y2643D01*
X1781Y2643D01*
X1782Y2643D01*
X1783Y2643D01*
X1784Y2643D01*
X1785Y2643D01*
X1786Y2643D01*
X1787Y2643D01*
X1788Y2643D01*
X1789Y2643D01*
X1790Y2643D01*
X1791Y2643D01*
X1792Y2643D01*
X1793Y2643D01*
X1794Y2643D01*
X1795Y2643D01*
X1796Y2643D01*
X1797Y2643D01*
X1798Y2643D01*
X1799Y2643D01*
X1800Y2643D01*
X1801Y2643D01*
X1802Y2643D01*
X1803Y2643D01*
X1804Y2643D01*
X1805Y2643D01*
X1806Y2643D01*
X1807Y2643D01*
X1808Y2643D01*
X1809Y2643D01*
X1810Y2643D01*
X1811Y2643D01*
X1812Y2643D01*
X1813Y2643D01*
X1814Y2643D01*
X1815Y2643D01*
X1816Y2643D01*
X1817Y2643D01*
X1818Y2643D01*
X1819Y2643D01*
X1820Y2643D01*
X1821Y2643D01*
X1822Y2643D01*
X1823Y2643D01*
X1824Y2643D01*
X1825Y2643D01*
X1826Y2643D01*
X1827Y2643D01*
X1828Y2643D01*
X1829Y2643D01*
X1830Y2643D01*
X1831Y2643D01*
X1832Y2643D01*
X1833Y2643D01*
X1834Y2643D01*
X1835Y2643D01*
X1836Y2643D01*
X1837Y2643D01*
X1838Y2643D01*
X1839Y2643D01*
X1840Y2643D01*
X1841Y2643D01*
X1842Y2643D01*
X1843Y2643D01*
X1844Y2643D01*
X1845Y2643D01*
X1846Y2643D01*
X1847Y2643D01*
X1848Y2643D01*
X1849Y2643D01*
X1850Y2643D01*
X1851Y2643D01*
X1852Y2643D01*
X1853Y2643D01*
X1854Y2643D01*
X1855Y2643D01*
X1856Y2643D01*
X1857Y2643D01*
X1858Y2643D01*
X1859Y2643D01*
X1860Y2643D01*
X1861Y2643D01*
X1862Y2643D01*
X1863Y2643D01*
X1864Y2643D01*
X1865Y2643D01*
X1866Y2643D01*
X1867Y2643D01*
X1868Y2643D01*
X1869Y2643D01*
X1870Y2643D01*
X1871Y2643D01*
X1872Y2643D01*
X1873Y2643D01*
X1874Y2643D01*
X1875Y2643D01*
X1876Y2643D01*
X1877Y2643D01*
X1878Y2643D01*
X1879Y2643D01*
X1880Y2643D01*
X1881Y2643D01*
X1882Y2643D01*
X1883Y2643D01*
X1884Y2643D01*
X1885Y2643D01*
X1886Y2643D01*
X1887Y2643D01*
X1888Y2643D01*
X1889Y2643D01*
X1890Y2643D01*
X1891Y2643D01*
X1892Y2643D01*
X1893Y2643D01*
X1894Y2643D01*
X1895Y2643D01*
X1896Y2643D01*
X1897Y2643D01*
X1898Y2643D01*
X1899Y2643D01*
X1900Y2643D01*
X1901Y2643D01*
X1902Y2643D01*
X1903Y2643D01*
X1904Y2643D01*
X1905Y2643D01*
X1906Y2643D01*
X1907Y2643D01*
X1908Y2643D01*
X1909Y2643D01*
X1910Y2643D01*
X1911Y2643D01*
X1912Y2643D01*
X1913Y2643D01*
X1914Y2643D01*
X1915Y2643D01*
X1916Y2643D01*
X1917Y2643D01*
X1918Y2643D01*
X1919Y2643D01*
X1920Y2643D01*
X1921Y2643D01*
X1922Y2643D01*
X1923Y2643D01*
X1924Y2643D01*
X1925Y2643D01*
X1926Y2643D01*
X1927Y2643D01*
X1928Y2643D01*
X1929Y2643D01*
X1930Y2643D01*
X1931Y2643D01*
X1932Y2643D01*
X1933Y2643D01*
X1934Y2643D01*
X1935Y2643D01*
X1936Y2643D01*
X1937Y2643D01*
X1938Y2643D01*
X1939Y2643D01*
X1940Y2643D01*
X1941Y2643D01*
X1942Y2643D01*
X1943Y2643D01*
X1944Y2643D01*
X1945Y2643D01*
X1946Y2643D01*
X1947Y2643D01*
X1948Y2643D01*
X1949Y2643D01*
X1950Y2643D01*
X1951Y2643D01*
X1952Y2643D01*
X1953Y2643D01*
X1954Y2643D01*
X1955Y2643D01*
X1956Y2643D01*
X1957Y2643D01*
X1958Y2643D01*
X1959Y2643D01*
X1960Y2643D01*
X1961Y2643D01*
X1962Y2643D01*
X1963Y2643D01*
X1964Y2643D01*
X1965Y2643D01*
X1966Y2643D01*
X1967Y2643D01*
X1968Y2643D01*
X1969Y2643D01*
X1970Y2643D01*
X1971Y2643D01*
X1972Y2643D01*
X1973Y2643D01*
X1974Y2643D01*
X1975Y2643D01*
X1976Y2643D01*
X1977Y2643D01*
X1978Y2643D01*
X1979Y2643D01*
X1980Y2643D01*
X1981Y2643D01*
X1982Y2643D01*
X1983Y2643D01*
X1984Y2643D01*
X1985Y2643D01*
X1986Y2643D01*
X1987Y2643D01*
X1988Y2643D01*
X1989Y2643D01*
X1990Y2643D01*
X1991Y2643D01*
X1992Y2643D01*
X1993Y2643D01*
X1994Y2643D01*
X1995Y2643D01*
X1996Y2643D01*
X1997Y2643D01*
X1998Y2643D01*
X1999Y2643D01*
X2000Y2643D01*
X2001Y2643D01*
X2002Y2643D01*
X2003Y2643D01*
X2004Y2643D01*
X2005Y2643D01*
X2006Y2643D01*
X2007Y2643D01*
X2008Y2643D01*
X2009Y2643D01*
X2010Y2643D01*
X2011Y2643D01*
X2012Y2643D01*
X2013Y2643D01*
X2014Y2643D01*
X2015Y2643D01*
X2016Y2643D01*
X2017Y2643D01*
X2018Y2643D01*
X2019Y2643D01*
X2020Y2643D01*
X2021Y2643D01*
X2022Y2643D01*
X2023Y2643D01*
X2024Y2643D01*
X2025Y2643D01*
X2026Y2643D01*
X2027Y2643D01*
X2028Y2643D01*
X2029Y2643D01*
X2030Y2643D01*
X2031Y2643D01*
X2032Y2643D01*
X2033Y2643D01*
X2034Y2643D01*
X2035Y2643D01*
X2036Y2643D01*
X2037Y2643D01*
X2038Y2643D01*
X2039Y2643D01*
X2040Y2643D01*
X2041Y2643D01*
X2042Y2643D01*
X2043Y2643D01*
X2044Y2643D01*
X2045Y2643D01*
X2046Y2643D01*
X2047Y2643D01*
X2048Y2643D01*
X2049Y2643D01*
X2050Y2643D01*
X2051Y2643D01*
X2052Y2643D01*
X2053Y2643D01*
X2054Y2643D01*
X2055Y2643D01*
X2056Y2642D01*
X2057Y2642D01*
X2058Y2642D01*
X2059Y2642D01*
X2060Y2642D01*
X2061Y2642D01*
X2062Y2642D01*
X2063Y2642D01*
X2064Y2642D01*
X2065Y2642D01*
X2066Y2642D01*
X2067Y2642D01*
X2068Y2642D01*
X2069Y2642D01*
X2070Y2641D01*
X2071Y2641D01*
X2072Y2641D01*
X2073Y2641D01*
X2074Y2641D01*
X2075Y2641D01*
X2076Y2641D01*
X2077Y2641D01*
X2078Y2641D01*
X2079Y2641D01*
X2080Y2640D01*
X2081Y2640D01*
X2082Y2640D01*
X2083Y2640D01*
X2084Y2640D01*
X2085Y2640D01*
X2086Y2640D01*
X2087Y2640D01*
X2088Y2640D01*
X2089Y2639D01*
X2090Y2639D01*
X2091Y2639D01*
X2092Y2639D01*
X2093Y2639D01*
X2094Y2639D01*
X2095Y2639D01*
X2096Y2638D01*
X2097Y2638D01*
X2098Y2638D01*
X2099Y2638D01*
X2100Y2638D01*
X2101Y2638D01*
X2102Y2637D01*
X2103Y2637D01*
X2104Y2637D01*
X2105Y2637D01*
X2106Y2637D01*
X2107Y2636D01*
X2108Y2636D01*
X2109Y2636D01*
X2110Y2636D01*
X2111Y2636D01*
X2112Y2636D01*
X2113Y2635D01*
X2114Y2635D01*
X2115Y2635D01*
X2116Y2635D01*
X2117Y2635D01*
X2118Y2634D01*
X2119Y2634D01*
X2120Y2634D01*
X2121Y2634D01*
X2122Y2633D01*
X2123Y2633D01*
X2124Y2633D01*
X2125Y2633D01*
X2126Y2633D01*
X2127Y2632D01*
X2128Y2632D01*
X2129Y2632D01*
X2130Y2632D01*
X2131Y2631D01*
X2132Y2631D01*
X2133Y2631D01*
X2134Y2631D01*
X2135Y2630D01*
X2136Y2630D01*
X2137Y2630D01*
X2138Y2630D01*
X2139Y2629D01*
X2140Y2629D01*
X2141Y2629D01*
X2142Y2628D01*
X2143Y2628D01*
X2144Y2628D01*
X2145Y2628D01*
X2146Y2627D01*
X2147Y2627D01*
X2148Y2627D01*
X2149Y2626D01*
X2150Y2626D01*
X2151Y2626D01*
X2152Y2625D01*
X2153Y2625D01*
X2154Y2625D01*
X2155Y2624D01*
X2156Y2624D01*
X2157Y2624D01*
X2158Y2623D01*
X2159Y2623D01*
X2160Y2623D01*
X2161Y2622D01*
X2162Y2622D01*
X2163Y2622D01*
X2164Y2621D01*
X2165Y2621D01*
X2166Y2621D01*
X2167Y2620D01*
X2168Y2620D01*
X2169Y2620D01*
X2170Y2619D01*
X2171Y2619D01*
X2172Y2619D01*
X2173Y2618D01*
X2174Y2618D01*
X2175Y2618D01*
X2176Y2617D01*
X2177Y2617D01*
X2178Y2616D01*
X2179Y2616D01*
X2180Y2616D01*
X2181Y2615D01*
X2182Y2615D01*
X2183Y2614D01*
X2184Y2614D01*
X2185Y2614D01*
X2186Y2613D01*
X2187Y2613D01*
X2188Y2612D01*
X2189Y2612D01*
X2190Y2612D01*
X2191Y2611D01*
X2192Y2611D01*
X2193Y2610D01*
X2194Y2610D01*
X2195Y2609D01*
X2196Y2609D01*
X2197Y2608D01*
X2198Y2608D01*
X2199Y2608D01*
X2200Y2607D01*
X2201Y2607D01*
X2202Y2606D01*
X2203Y2606D01*
X2204Y2605D01*
X2205Y2605D01*
X2206Y2604D01*
X2207Y2604D01*
X2208Y2603D01*
X2209Y2603D01*
X2210Y2602D01*
X2211Y2602D01*
X2212Y2601D01*
X2213Y2601D01*
X2214Y2600D01*
X2215Y2600D01*
X2216Y2599D01*
X2217Y2599D01*
X2218Y2598D01*
X2219Y2598D01*
X2220Y2597D01*
X2221Y2597D01*
X2222Y2596D01*
X2223Y2596D01*
X2224Y2595D01*
X2225Y2595D01*
X2226Y2594D01*
X2227Y2593D01*
X2228Y2593D01*
X2229Y2592D01*
X2230Y2592D01*
X2231Y2591D01*
X2232Y2591D01*
X2233Y2590D01*
X2234Y2589D01*
X2235Y2589D01*
X2236Y2588D01*
X2237Y2588D01*
X2238Y2587D01*
X2239Y2587D01*
X2240Y2586D01*
X2241Y2585D01*
X2242Y2585D01*
X2243Y2584D01*
X2244Y2583D01*
X2245Y2583D01*
X2246Y2582D01*
X2247Y2581D01*
X2248Y2581D01*
X2249Y2580D01*
X2250Y2580D01*
X2251Y2579D01*
X2252Y2578D01*
X2253Y2578D01*
X2254Y2577D01*
X2255Y2576D01*
X2256Y2576D01*
X2257Y2575D01*
X2258Y2574D01*
X2259Y2574D01*
X2260Y2573D01*
X2261Y2572D01*
X2262Y2571D01*
X2263Y2571D01*
X2264Y2570D01*
X2265Y2569D01*
X2266Y2569D01*
X2267Y2568D01*
X2268Y2567D01*
X2269Y2567D01*
X2270Y2566D01*
X2271Y2565D01*
X2272Y2564D01*
X2273Y2564D01*
X2274Y2563D01*
X2275Y2562D01*
X2276Y2561D01*
X2277Y2560D01*
X2278Y2560D01*
X2279Y2559D01*
X2280Y2558D01*
X2281Y2557D01*
X2282Y2557D01*
X2283Y2556D01*
X2284Y2555D01*
X2285Y2554D01*
X2286Y2553D01*
X2287Y2552D01*
X2288Y2552D01*
X2289Y2551D01*
X2290Y2550D01*
X2291Y2549D01*
X2292Y2548D01*
X2293Y2547D01*
X2294Y2546D01*
X2295Y2546D01*
X2296Y2545D01*
X2297Y2544D01*
X2298Y2543D01*
X2299Y2542D01*
X2300Y2541D01*
X2301Y2540D01*
X2302Y2539D01*
X2303Y2538D01*
X2304Y2537D01*
X2305Y2536D01*
X2306Y2536D01*
X2307Y2535D01*
X2308Y2534D01*
X2309Y2533D01*
X2310Y2532D01*
X2311Y2531D01*
X2312Y2530D01*
X2313Y2529D01*
X2314Y2528D01*
X2315Y2527D01*
X2316Y2526D01*
X2317Y2525D01*
X2318Y2524D01*
X2319Y2523D01*
X2320Y2522D01*
X2321Y2521D01*
X2322Y2520D01*
X2322Y2519D01*
X2323Y2518D01*
X2324Y2517D01*
X2325Y2516D01*
X2326Y2515D01*
X2327Y2514D01*
X2328Y2513D01*
X2329Y2512D01*
X2330Y2511D01*
X2331Y2510D01*
X2331Y2509D01*
X2332Y2508D01*
X2333Y2507D01*
X2334Y2506D01*
X2335Y2505D01*
X2336Y2504D01*
X2337Y2503D01*
X2337Y2502D01*
X2338Y2501D01*
X2339Y2500D01*
X2340Y2499D01*
X2341Y2498D01*
X2341Y2497D01*
X2342Y2496D01*
X2343Y2495D01*
X2344Y2494D01*
X2345Y2493D01*
X2345Y2492D01*
X2346Y2491D01*
X2347Y2490D01*
X2348Y2489D01*
X2349Y2488D01*
X2349Y2487D01*
X2350Y2486D01*
X2351Y2485D01*
X2351Y2484D01*
X2352Y2483D01*
X2353Y2482D01*
X2354Y2481D01*
X2354Y2480D01*
X2355Y2479D01*
X2356Y2478D01*
X2356Y2477D01*
X2357Y2476D01*
X2358Y2475D01*
X2359Y2474D01*
X2359Y2473D01*
X2360Y2472D01*
X2361Y2471D01*
X2361Y2470D01*
X2362Y2469D01*
X2363Y2468D01*
X2363Y2467D01*
X2364Y2466D01*
X2365Y2465D01*
X2365Y2464D01*
X2366Y2463D01*
X2366Y2462D01*
X2367Y2461D01*
X2368Y2460D01*
X2368Y2459D01*
X2369Y2458D01*
X2370Y2457D01*
X2370Y2456D01*
X2371Y2455D01*
X2371Y2454D01*
X2372Y2453D01*
X2373Y2452D01*
X2373Y2451D01*
X2374Y2450D01*
X2374Y2449D01*
X2375Y2448D01*
X2375Y2447D01*
X2376Y2446D01*
X2377Y2445D01*
X2377Y2444D01*
X2378Y2443D01*
X2378Y2442D01*
X2379Y2441D01*
X2379Y2440D01*
X2380Y2439D01*
X2381Y2438D01*
X2381Y2437D01*
X2382Y2436D01*
X2382Y2435D01*
X2383Y2434D01*
X2383Y2433D01*
X2384Y2432D01*
X2384Y2431D01*
X2385Y2430D01*
X2385Y2429D01*
X2386Y2428D01*
X2386Y2427D01*
X2387Y2426D01*
X2387Y2425D01*
X2388Y2424D01*
X2388Y2423D01*
X2389Y2422D01*
X2389Y2421D01*
X2390Y2420D01*
X2390Y2418D01*
X2391Y2417D01*
X2391Y2416D01*
X2392Y2415D01*
X2392Y2414D01*
X2393Y2413D01*
X2393Y2412D01*
X2394Y2411D01*
X2394Y2410D01*
X2395Y2409D01*
X2395Y2407D01*
X2396Y2406D01*
X2396Y2405D01*
X2397Y2404D01*
X2397Y2402D01*
X2398Y2401D01*
X2398Y2400D01*
X2399Y2399D01*
X2399Y2397D01*
X2400Y2396D01*
X2400Y2395D01*
X2401Y2394D01*
X2401Y2392D01*
X2402Y2391D01*
X2402Y2390D01*
X2403Y2389D01*
X2403Y2387D01*
X2404Y2386D01*
X2404Y2384D01*
X2405Y2383D01*
X2405Y2381D01*
X2406Y2380D01*
X2406Y2378D01*
X2407Y2377D01*
X2407Y2375D01*
X2408Y2374D01*
X2408Y2372D01*
X2409Y2371D01*
X2409Y2369D01*
X2410Y2368D01*
X2410Y2366D01*
X2411Y2365D01*
X2411Y2362D01*
X2412Y2361D01*
X2412Y2358D01*
X2413Y2357D01*
X2413Y2355D01*
X2414Y2354D01*
X2414Y2351D01*
X2415Y2350D01*
X2415Y2347D01*
X2416Y2346D01*
X2416Y2343D01*
X2417Y2342D01*
X2417Y2338D01*
X2418Y2337D01*
X2418Y2333D01*
X2419Y2332D01*
X2419Y2328D01*
X2420Y2327D01*
X2420Y2322D01*
X2421Y2321D01*
X2421Y2316D01*
X2422Y2315D01*
X2422Y2309D01*
X2423Y2308D01*
X2423Y2301D01*
X2424Y2300D01*
X2424Y2292D01*
X2425Y2291D01*
X2425Y2277D01*
X2426Y2276D01*
X2426Y368D01*
X2425Y367D01*
X2425Y353D01*
X2424Y352D01*
X2424Y344D01*
X2423Y343D01*
X2423Y336D01*
X2422Y335D01*
X2422Y329D01*
X2421Y328D01*
X2421Y323D01*
X2420Y322D01*
X2420Y317D01*
X2419Y316D01*
X2419Y312D01*
X2418Y311D01*
X2418Y307D01*
X2417Y306D01*
X2417Y302D01*
X2416Y301D01*
X2416Y298D01*
X2415Y297D01*
X2415Y294D01*
X2414Y293D01*
X2414Y290D01*
X2413Y289D01*
X2413Y287D01*
X2412Y286D01*
X2412Y283D01*
X2411Y282D01*
X2411Y279D01*
X2410Y278D01*
X2410Y276D01*
X2409Y275D01*
X2409Y273D01*
X2408Y272D01*
X2408Y270D01*
X2407Y269D01*
X2407Y267D01*
X2406Y266D01*
X2406Y264D01*
X2405Y263D01*
X2405Y261D01*
X2404Y260D01*
X2404Y258D01*
X2403Y257D01*
X2403Y255D01*
X2402Y254D01*
X2402Y253D01*
X2401Y252D01*
X2401Y250D01*
X2400Y249D01*
X2400Y248D01*
X2399Y247D01*
X2399Y245D01*
X2398Y244D01*
X2398Y243D01*
X2397Y242D01*
X2397Y240D01*
X2396Y239D01*
X2396Y238D01*
X2395Y237D01*
X2395Y235D01*
X2394Y234D01*
X2394Y233D01*
X2393Y232D01*
X2393Y231D01*
X2392Y230D01*
X2392Y229D01*
X2391Y228D01*
X2391Y227D01*
X2390Y226D01*
X2390Y224D01*
X2389Y223D01*
X2389Y222D01*
X2388Y221D01*
X2388Y220D01*
X2387Y219D01*
X2387Y218D01*
X2386Y217D01*
X2386Y216D01*
X2385Y215D01*
X2385Y214D01*
X2384Y213D01*
X2384Y212D01*
X2383Y211D01*
X2383Y210D01*
X2382Y209D01*
X2382Y208D01*
X2381Y207D01*
X2381Y206D01*
X2380Y205D01*
X2379Y204D01*
X2379Y203D01*
X2378Y202D01*
X2378Y201D01*
X2377Y200D01*
X2377Y199D01*
X2376Y198D01*
X2375Y197D01*
X2375Y196D01*
X2374Y195D01*
X2374Y194D01*
X2373Y193D01*
X2373Y192D01*
X2372Y191D01*
X2371Y190D01*
X2371Y189D01*
X2370Y188D01*
X2370Y187D01*
X2369Y186D01*
X2368Y185D01*
X2368Y184D01*
X2367Y183D01*
X2366Y182D01*
X2366Y181D01*
X2365Y180D01*
X2365Y179D01*
X2364Y178D01*
X2363Y177D01*
X2363Y176D01*
X2362Y175D01*
X2361Y174D01*
X2361Y173D01*
X2360Y172D01*
X2359Y171D01*
X2359Y170D01*
X2358Y169D01*
X2357Y168D01*
X2356Y167D01*
X2356Y166D01*
X2355Y165D01*
X2354Y164D01*
X2354Y163D01*
X2353Y162D01*
X2352Y161D01*
X2351Y160D01*
X2351Y159D01*
X2350Y158D01*
X2349Y157D01*
X2349Y156D01*
X2348Y155D01*
X2347Y154D01*
X2346Y153D01*
X2345Y152D01*
X2345Y151D01*
X2344Y150D01*
X2343Y149D01*
X2342Y148D01*
X2341Y147D01*
X2341Y146D01*
X2340Y145D01*
X2339Y144D01*
X2338Y143D01*
X2337Y142D01*
X2337Y141D01*
X2336Y140D01*
X2335Y139D01*
X2334Y138D01*
X2333Y137D01*
X2332Y136D01*
X2331Y135D01*
X2331Y134D01*
X2330Y133D01*
X2329Y132D01*
X2328Y131D01*
X2327Y130D01*
X2326Y129D01*
X2325Y128D01*
X2324Y127D01*
X2323Y126D01*
X2322Y125D01*
X2322Y124D01*
X2321Y123D01*
X2320Y122D01*
X2319Y121D01*
X2318Y120D01*
X2317Y119D01*
X2316Y118D01*
X2315Y117D01*
X2314Y116D01*
X2313Y115D01*
X2312Y114D01*
X2311Y113D01*
X2310Y112D01*
X2309Y111D01*
X2308Y110D01*
X2307Y109D01*
X2306Y108D01*
X2305Y108D01*
X2304Y107D01*
X2303Y106D01*
X2302Y105D01*
X2301Y104D01*
X2300Y103D01*
X2299Y102D01*
X2298Y101D01*
X2297Y100D01*
X2296Y99D01*
X2295Y98D01*
X2294Y98D01*
X2293Y97D01*
X2292Y96D01*
X2291Y95D01*
X2290Y94D01*
X2289Y93D01*
X2288Y92D01*
X2287Y92D01*
X2286Y91D01*
X2285Y90D01*
X2284Y89D01*
X2283Y88D01*
X2282Y87D01*
X2281Y87D01*
X2280Y86D01*
X2279Y85D01*
X2278Y84D01*
X2277Y84D01*
X2276Y83D01*
X2275Y82D01*
X2274Y81D01*
X2273Y81D01*
X2272Y80D01*
X2271Y79D01*
X2270Y78D01*
X2269Y77D01*
X2268Y77D01*
X2267Y76D01*
X2266Y75D01*
X2265Y75D01*
X2264Y74D01*
X2263Y73D01*
X2262Y73D01*
X2261Y72D01*
X2260Y71D01*
X2259Y70D01*
X2258Y70D01*
X2257Y69D01*
X2256Y68D01*
X2255Y68D01*
X2254Y67D01*
X2253Y66D01*
X2252Y66D01*
X2251Y65D01*
X2250Y64D01*
X2249Y64D01*
X2248Y63D01*
X2247Y63D01*
X2246Y62D01*
X2245Y61D01*
X2244Y61D01*
X2243Y60D01*
X2242Y59D01*
X2241Y59D01*
X2240Y58D01*
X2239Y57D01*
X2238Y57D01*
X2237Y56D01*
X2236Y56D01*
X2235Y55D01*
X2234Y55D01*
X2233Y54D01*
X2232Y53D01*
X2231Y53D01*
X2230Y52D01*
X2229Y52D01*
X2228Y51D01*
X2227Y51D01*
X2226Y50D01*
X2225Y49D01*
X2224Y49D01*
X2223Y48D01*
X2222Y48D01*
X2221Y47D01*
X2220Y47D01*
X2219Y46D01*
X2218Y46D01*
X2217Y45D01*
X2216Y45D01*
X2215Y44D01*
X2214Y44D01*
X2213Y43D01*
X2212Y43D01*
X2211Y42D01*
X2210Y42D01*
X2209Y41D01*
X2208Y41D01*
X2207Y40D01*
X2206Y40D01*
X2205Y39D01*
X2204Y39D01*
X2203Y38D01*
X2202Y38D01*
X2201Y37D01*
X2200Y37D01*
X2199Y36D01*
X2198Y36D01*
X2197Y36D01*
X2196Y35D01*
X2195Y35D01*
X2194Y34D01*
X2193Y34D01*
X2192Y33D01*
X2191Y33D01*
X2190Y32D01*
X2189Y32D01*
X2188Y32D01*
X2187Y31D01*
X2186Y31D01*
X2185Y30D01*
X2184Y30D01*
X2183Y30D01*
X2182Y29D01*
X2181Y29D01*
X2180Y28D01*
X2179Y28D01*
X2178Y28D01*
X2177Y27D01*
X2176Y27D01*
X2175Y26D01*
X2174Y26D01*
X2173Y26D01*
X2172Y25D01*
X2171Y25D01*
X2170Y25D01*
X2169Y24D01*
X2168Y24D01*
X2167Y24D01*
X2166Y23D01*
X2165Y23D01*
X2164Y23D01*
X2163Y22D01*
X2162Y22D01*
X2161Y22D01*
X2160Y21D01*
X2159Y21D01*
X2158Y21D01*
X2157Y20D01*
X2156Y20D01*
X2155Y20D01*
X2154Y19D01*
X2153Y19D01*
X2152Y19D01*
X2151Y18D01*
X2150Y18D01*
X2149Y18D01*
X2148Y17D01*
X2147Y17D01*
X2146Y17D01*
X2145Y16D01*
X2144Y16D01*
X2143Y16D01*
X2142Y16D01*
X2141Y15D01*
X2140Y15D01*
X2139Y15D01*
X2138Y14D01*
X2137Y14D01*
X2136Y14D01*
X2135Y14D01*
X2134Y13D01*
X2133Y13D01*
X2132Y13D01*
X2131Y13D01*
X2130Y12D01*
X2129Y12D01*
X2128Y12D01*
X2127Y12D01*
X2126Y11D01*
X2125Y11D01*
X2124Y11D01*
X2123Y11D01*
X2122Y11D01*
X2121Y10D01*
X2120Y10D01*
X2119Y10D01*
X2118Y10D01*
X2117Y9D01*
X2116Y9D01*
X2115Y9D01*
X2114Y9D01*
X2113Y9D01*
X2112Y8D01*
X2111Y8D01*
X2110Y8D01*
X2109Y8D01*
X2108Y8D01*
X2107Y8D01*
X2106Y7D01*
X2105Y7D01*
X2104Y7D01*
X2103Y7D01*
X2102Y7D01*
X2101Y6D01*
X2100Y6D01*
X2099Y6D01*
X2098Y6D01*
X2097Y6D01*
X2096Y6D01*
X2095Y5D01*
X2094Y5D01*
X2093Y5D01*
X2092Y5D01*
X2091Y5D01*
X2090Y5D01*
X2089Y5D01*
X2088Y5D01*
X2087Y4D01*
X2086Y4D01*
X2085Y4D01*
X2084Y4D01*
X2083Y4D01*
X2082Y4D01*
X2081Y4D01*
X2080Y4D01*
X2079Y3D01*
X2078Y3D01*
X2077Y3D01*
X2076Y3D01*
X2075Y3D01*
X2074Y3D01*
X2073Y3D01*
X2072Y3D01*
X2071Y3D01*
X2070Y3D01*
X2069Y2D01*
X2068Y2D01*
X2067Y2D01*
X2066Y2D01*
X2065Y2D01*
X2064Y2D01*
X2063Y2D01*
X2062Y2D01*
X2061Y2D01*
X2060Y2D01*
X2059Y2D01*
X2058Y2D01*
X2057Y2D01*
X2056Y2D01*
X2055Y1D01*
X2054Y1D01*
X2053Y1D01*
X2052Y1D01*
X2051Y1D01*
X2050Y1D01*
X2049Y1D01*
X2048Y1D01*
X2047Y1D01*
X2046Y1D01*
X2045Y1D01*
X2044Y1D01*
X2043Y1D01*
X2042Y1D01*
X2041Y1D01*
X2040Y1D01*
X2039Y1D01*
X2038Y1D01*
X2037Y1D01*
X2036Y1D01*
X2035Y1D01*
X2034Y1D01*
X2033Y1D01*
X2032Y1D01*
X2031Y1D01*
X2030Y1D01*
X2029Y1D01*
X2028Y1D01*
X2027Y1D01*
X2026Y1D01*
X2025Y1D01*
X2024Y1D01*
X2023Y1D01*
X2022Y1D01*
X2021Y1D01*
X2020Y1D01*
X2019Y1D01*
X2018Y1D01*
X2017Y1D01*
X2016Y1D01*
X2015Y1D01*
X2014Y1D01*
X2013Y1D01*
X2012Y1D01*
X2011Y1D01*
X2010Y1D01*
X2009Y1D01*
X2008Y1D01*
X2007Y1D01*
X2006Y1D01*
X2005Y1D01*
X2004Y1D01*
X2003Y1D01*
X2002Y1D01*
X2001Y1D01*
X2000Y1D01*
X1999Y1D01*
X1998Y1D01*
X1997Y1D01*
X1996Y1D01*
X1995Y1D01*
X1994Y1D01*
X1993Y1D01*
X1992Y1D01*
X1991Y1D01*
X1990Y1D01*
X1989Y1D01*
X1988Y1D01*
X1987Y1D01*
X1986Y1D01*
X1985Y1D01*
X1984Y1D01*
X1983Y1D01*
X1982Y1D01*
X1981Y1D01*
X1980Y1D01*
X1979Y1D01*
X1978Y1D01*
X1977Y1D01*
X1976Y1D01*
X1975Y1D01*
X1974Y1D01*
X1973Y1D01*
X1972Y1D01*
X1971Y1D01*
X1970Y1D01*
X1969Y1D01*
X1968Y1D01*
X1967Y1D01*
X1966Y1D01*
X1965Y1D01*
X1964Y1D01*
X1963Y1D01*
X1962Y1D01*
X1961Y1D01*
X1960Y1D01*
X1959Y1D01*
X1958Y1D01*
X1957Y1D01*
X1956Y1D01*
X1955Y1D01*
X1954Y1D01*
X1953Y1D01*
X1952Y1D01*
X1951Y1D01*
X1950Y1D01*
X1949Y1D01*
X1948Y1D01*
X1947Y1D01*
X1946Y1D01*
X1945Y1D01*
X1944Y1D01*
X1943Y1D01*
X1942Y1D01*
X1941Y1D01*
X1940Y1D01*
X1939Y1D01*
X1938Y1D01*
X1937Y1D01*
X1936Y1D01*
X1935Y1D01*
X1934Y1D01*
X1933Y1D01*
X1932Y1D01*
X1931Y1D01*
X1930Y1D01*
X1929Y1D01*
X1928Y1D01*
X1927Y1D01*
X1926Y1D01*
X1925Y1D01*
X1924Y1D01*
X1923Y1D01*
X1922Y1D01*
X1921Y1D01*
X1920Y1D01*
X1919Y1D01*
X1918Y1D01*
X1917Y1D01*
X1916Y1D01*
X1915Y1D01*
X1914Y1D01*
X1913Y1D01*
X1912Y1D01*
X1911Y1D01*
X1910Y1D01*
X1909Y1D01*
X1908Y1D01*
X1907Y1D01*
X1906Y1D01*
X1905Y1D01*
X1904Y1D01*
X1903Y1D01*
X1902Y1D01*
X1901Y1D01*
X1900Y1D01*
X1899Y1D01*
X1898Y1D01*
X1897Y1D01*
X1896Y1D01*
X1895Y1D01*
X1894Y1D01*
X1893Y1D01*
X1892Y1D01*
X1891Y1D01*
X1890Y1D01*
X1889Y1D01*
X1888Y1D01*
X1887Y1D01*
X1886Y1D01*
X1885Y1D01*
X1884Y1D01*
X1883Y1D01*
X1882Y1D01*
X1881Y1D01*
X1880Y1D01*
X1879Y1D01*
X1878Y1D01*
X1877Y1D01*
X1876Y1D01*
X1875Y1D01*
X1874Y1D01*
X1873Y1D01*
X1872Y1D01*
X1871Y1D01*
X1870Y1D01*
X1869Y1D01*
X1868Y1D01*
X1867Y1D01*
X1866Y1D01*
X1865Y1D01*
X1864Y1D01*
X1863Y1D01*
X1862Y1D01*
X1861Y1D01*
X1860Y1D01*
X1859Y1D01*
X1858Y1D01*
X1857Y1D01*
X1856Y1D01*
X1855Y1D01*
X1854Y1D01*
X1853Y1D01*
X1852Y1D01*
X1851Y1D01*
X1850Y1D01*
X1849Y1D01*
X1848Y1D01*
X1847Y1D01*
X1846Y1D01*
X1845Y1D01*
X1844Y1D01*
X1843Y1D01*
X1842Y1D01*
X1841Y1D01*
X1840Y1D01*
X1839Y1D01*
X1838Y1D01*
X1837Y1D01*
X1836Y1D01*
X1835Y1D01*
X1834Y1D01*
X1833Y1D01*
X1832Y1D01*
X1831Y1D01*
X1830Y1D01*
X1829Y1D01*
X1828Y1D01*
X1827Y1D01*
X1826Y1D01*
X1825Y1D01*
X1824Y1D01*
X1823Y1D01*
X1822Y1D01*
X1821Y1D01*
X1820Y1D01*
X1819Y1D01*
X1818Y1D01*
X1817Y1D01*
X1816Y1D01*
X1815Y1D01*
X1814Y1D01*
X1813Y1D01*
X1812Y1D01*
X1811Y1D01*
X1810Y1D01*
X1809Y1D01*
X1808Y1D01*
X1807Y1D01*
X1806Y1D01*
X1805Y1D01*
X1804Y1D01*
X1803Y1D01*
X1802Y1D01*
X1801Y1D01*
X1800Y1D01*
X1799Y1D01*
X1798Y1D01*
X1797Y1D01*
X1796Y1D01*
X1795Y1D01*
X1794Y1D01*
X1793Y1D01*
X1792Y1D01*
X1791Y1D01*
X1790Y1D01*
X1789Y1D01*
X1788Y1D01*
X1787Y1D01*
X1786Y1D01*
X1785Y1D01*
X1784Y1D01*
X1783Y1D01*
X1782Y1D01*
X1781Y1D01*
X1780Y1D01*
X1779Y1D01*
X1778Y1D01*
X1777Y1D01*
X1776Y1D01*
X1775Y1D01*
X1774Y1D01*
X1773Y1D01*
X1772Y1D01*
X1771Y1D01*
X1770Y1D01*
X1769Y1D01*
X1768Y1D01*
X1767Y1D01*
X1766Y1D01*
X1765Y1D01*
X1764Y1D01*
X1763Y1D01*
X1762Y1D01*
X1761Y1D01*
X1760Y1D01*
X1759Y1D01*
X1758Y1D01*
X1757Y1D01*
X1756Y1D01*
X1755Y1D01*
X1754Y1D01*
X1753Y1D01*
X1752Y1D01*
X1751Y1D01*
X1750Y1D01*
X1749Y1D01*
X1748Y1D01*
X1747Y1D01*
X1746Y1D01*
X1745Y1D01*
X1744Y1D01*
X1743Y1D01*
X1742Y1D01*
X1741Y1D01*
X1740Y1D01*
X1739Y1D01*
X1738Y1D01*
X1737Y1D01*
X1736Y1D01*
X1735Y1D01*
X1734Y1D01*
X1733Y1D01*
X1732Y1D01*
X1731Y1D01*
X1730Y1D01*
X1729Y1D01*
X1728Y1D01*
X1727Y1D01*
X1726Y1D01*
X1725Y1D01*
X1724Y1D01*
X1723Y1D01*
X1722Y1D01*
X1721Y1D01*
X1720Y1D01*
X1719Y1D01*
X1718Y1D01*
X1717Y1D01*
X1716Y1D01*
X1715Y1D01*
X1714Y1D01*
X1713Y1D01*
X1712Y1D01*
X1711Y1D01*
X1710Y1D01*
X1709Y1D01*
X1708Y1D01*
X1707Y1D01*
X1706Y1D01*
X1705Y1D01*
X1704Y1D01*
X1703Y1D01*
X1702Y1D01*
X1701Y1D01*
X1700Y1D01*
X1699Y1D01*
X1698Y1D01*
X1697Y1D01*
X1696Y1D01*
X1695Y1D01*
X1694Y1D01*
X1693Y1D01*
X1692Y1D01*
X1691Y1D01*
X1690Y1D01*
X1689Y1D01*
X1688Y1D01*
X1687Y1D01*
X1686Y1D01*
X1685Y1D01*
X1684Y1D01*
X1683Y1D01*
X1682Y1D01*
X1681Y1D01*
X1680Y1D01*
X1679Y1D01*
X1678Y1D01*
X1677Y1D01*
X1676Y1D01*
X1675Y1D01*
X1674Y1D01*
X1673Y1D01*
X1672Y1D01*
X1671Y1D01*
X1670Y1D01*
X1669Y1D01*
X1668Y1D01*
X1667Y1D01*
X1666Y1D01*
X1665Y1D01*
X1664Y1D01*
X1663Y1D01*
X1662Y1D01*
X1661Y1D01*
X1660Y1D01*
X1659Y1D01*
X1658Y1D01*
X1657Y1D01*
X1656Y1D01*
X1655Y1D01*
X1654Y1D01*
X1653Y1D01*
X1652Y1D01*
X1651Y1D01*
X1650Y1D01*
X1649Y1D01*
X1648Y1D01*
X1647Y1D01*
X1646Y1D01*
X1645Y1D01*
X1644Y1D01*
X1643Y1D01*
X1642Y1D01*
X1641Y1D01*
X1640Y1D01*
X1639Y1D01*
X1638Y1D01*
X1637Y1D01*
X1636Y1D01*
X1635Y1D01*
X1634Y1D01*
X1633Y1D01*
X1632Y1D01*
X1631Y1D01*
X1630Y1D01*
X1629Y1D01*
X1628Y1D01*
X1627Y1D01*
X1626Y1D01*
X1625Y1D01*
X1624Y1D01*
X1623Y1D01*
X1622Y1D01*
X1621Y1D01*
X1620Y1D01*
X1619Y1D01*
X1618Y1D01*
X1617Y1D01*
X1616Y1D01*
X1615Y1D01*
X1614Y1D01*
X1613Y1D01*
X1612Y1D01*
X1611Y1D01*
X1610Y1D01*
X1609Y1D01*
X1608Y1D01*
X1607Y1D01*
X1606Y1D01*
X1605Y1D01*
X1604Y1D01*
X1603Y1D01*
X1602Y1D01*
X1601Y1D01*
X1600Y1D01*
X1599Y1D01*
X1598Y1D01*
X1597Y1D01*
X1596Y1D01*
X1595Y1D01*
X1594Y1D01*
X1593Y1D01*
X1592Y1D01*
X1591Y1D01*
X1590Y1D01*
X1589Y1D01*
X1588Y1D01*
X1587Y1D01*
X1586Y1D01*
X1585Y1D01*
X1584Y1D01*
X1583Y1D01*
X1582Y1D01*
X1581Y1D01*
X1580Y1D01*
X1579Y1D01*
X1578Y1D01*
X1577Y1D01*
X1576Y1D01*
X1575Y1D01*
X1574Y1D01*
X1573Y1D01*
X1572Y1D01*
X1571Y1D01*
X1570Y1D01*
X1569Y1D01*
X1568Y1D01*
X1567Y1D01*
X1566Y1D01*
X1565Y1D01*
X1564Y1D01*
X1563Y1D01*
X1562Y1D01*
X1561Y1D01*
X1560Y1D01*
X1559Y1D01*
X1558Y1D01*
X1557Y1D01*
X1556Y1D01*
X1555Y1D01*
X1554Y1D01*
X1553Y1D01*
X1552Y1D01*
X1551Y1D01*
X1550Y1D01*
X1549Y1D01*
X1548Y1D01*
X1547Y1D01*
X1546Y1D01*
X1545Y1D01*
X1544Y1D01*
X1543Y1D01*
X1542Y1D01*
X1541Y1D01*
X1540Y1D01*
X1539Y1D01*
X1538Y1D01*
X1537Y1D01*
X1536Y1D01*
X1535Y1D01*
X1534Y1D01*
X1533Y1D01*
X1532Y1D01*
X1531Y1D01*
X1530Y1D01*
X1529Y1D01*
X1528Y1D01*
X1527Y1D01*
X1526Y1D01*
X1525Y1D01*
X1524Y1D01*
X1523Y1D01*
X1522Y1D01*
X1521Y1D01*
X1520Y1D01*
X1519Y1D01*
X1518Y1D01*
X1517Y1D01*
X1516Y1D01*
X1515Y1D01*
X1514Y1D01*
X1513Y1D01*
X1512Y1D01*
X1511Y1D01*
X1510Y1D01*
X1509Y1D01*
X1508Y1D01*
X1507Y1D01*
X1506Y1D01*
X1505Y1D01*
X1504Y1D01*
X1503Y1D01*
X1502Y1D01*
X1501Y1D01*
X1500Y1D01*
X1499Y1D01*
X1498Y1D01*
X1497Y1D01*
X1496Y1D01*
X1495Y1D01*
X1494Y1D01*
X1493Y1D01*
X1492Y1D01*
X1491Y1D01*
X1490Y1D01*
X1489Y1D01*
X1488Y1D01*
X1487Y1D01*
X1486Y1D01*
X1485Y1D01*
X1484Y1D01*
X1483Y1D01*
X1482Y1D01*
X1481Y1D01*
X1480Y1D01*
X1479Y1D01*
X1478Y1D01*
X1477Y1D01*
X1476Y1D01*
X1475Y1D01*
X1474Y1D01*
X1473Y1D01*
X1472Y1D01*
X1471Y1D01*
X1470Y1D01*
X1469Y1D01*
X1468Y1D01*
X1467Y1D01*
X1466Y1D01*
X1465Y1D01*
X1464Y1D01*
X1463Y1D01*
X1462Y1D01*
X1461Y1D01*
X1460Y1D01*
X1459Y1D01*
X1458Y1D01*
X1457Y1D01*
X1456Y1D01*
X1455Y1D01*
X1454Y1D01*
X1453Y1D01*
X1452Y1D01*
X1451Y1D01*
X1450Y1D01*
X1449Y1D01*
X1448Y1D01*
X1447Y1D01*
X1446Y1D01*
X1445Y1D01*
X1444Y1D01*
X1443Y1D01*
X1442Y1D01*
X1441Y1D01*
X1440Y1D01*
X1439Y1D01*
X1438Y1D01*
X1437Y1D01*
X1436Y1D01*
X1435Y1D01*
X1434Y1D01*
X1433Y1D01*
X1432Y1D01*
X1431Y1D01*
X1430Y1D01*
X1429Y1D01*
X1428Y1D01*
X1427Y1D01*
X1426Y1D01*
X1425Y1D01*
X1424Y1D01*
X1423Y1D01*
X1422Y1D01*
X1421Y1D01*
X1420Y1D01*
X1419Y1D01*
X1418Y1D01*
X1417Y1D01*
X1416Y1D01*
X1415Y1D01*
X1414Y1D01*
X1413Y1D01*
X1412Y1D01*
X1411Y1D01*
X1410Y1D01*
X1409Y1D01*
X1408Y1D01*
X1407Y1D01*
X1406Y1D01*
X1405Y1D01*
X1404Y1D01*
X1403Y1D01*
X1402Y1D01*
X1401Y1D01*
X1400Y1D01*
X1399Y1D01*
X1398Y1D01*
X1397Y1D01*
X1396Y1D01*
X1395Y1D01*
X1394Y1D01*
X1393Y1D01*
X1392Y1D01*
X1391Y1D01*
X1390Y1D01*
X1389Y1D01*
X1388Y1D01*
X1387Y1D01*
X1386Y1D01*
X1385Y1D01*
X1384Y1D01*
X1383Y1D01*
X1382Y1D01*
X1381Y1D01*
X1380Y1D01*
X1379Y1D01*
X1378Y1D01*
X1377Y1D01*
X1376Y1D01*
X1375Y1D01*
X1374Y1D01*
X1373Y1D01*
X1372Y1D01*
X1371Y1D01*
X1370Y1D01*
X1369Y1D01*
X1368Y1D01*
X1367Y1D01*
X1366Y1D01*
X1365Y1D01*
X1364Y1D01*
X1363Y1D01*
X1362Y1D01*
X1361Y1D01*
X1360Y1D01*
X1359Y1D01*
X1358Y1D01*
X1357Y1D01*
X1356Y1D01*
X1355Y1D01*
X1354Y1D01*
X1353Y1D01*
X1352Y1D01*
X1351Y1D01*
X1350Y1D01*
X1349Y1D01*
X1348Y1D01*
X1347Y1D01*
X1346Y1D01*
X1345Y1D01*
X1344Y1D01*
X1343Y1D01*
X1342Y1D01*
X1341Y1D01*
X1340Y1D01*
X1339Y1D01*
X1338Y1D01*
X1337Y1D01*
X1336Y1D01*
X1335Y1D01*
X1334Y1D01*
X1333Y1D01*
X1332Y1D01*
X1331Y1D01*
X1330Y1D01*
X1329Y1D01*
X1328Y1D01*
X1327Y1D01*
X1326Y1D01*
X1325Y1D01*
X1324Y1D01*
X1323Y1D01*
X1322Y1D01*
X1321Y1D01*
X1320Y1D01*
X1319Y1D01*
X1318Y1D01*
X1317Y1D01*
X1316Y1D01*
X1315Y1D01*
X1314Y1D01*
X1313Y1D01*
X1312Y1D01*
X1311Y1D01*
X1310Y1D01*
X1309Y1D01*
X1308Y1D01*
X1307Y1D01*
X1306Y1D01*
X1305Y1D01*
X1304Y1D01*
X1303Y1D01*
X1302Y1D01*
X1301Y1D01*
X1300Y1D01*
X1299Y1D01*
X1298Y1D01*
X1297Y1D01*
X1296Y1D01*
X1295Y1D01*
X1294Y1D01*
X1293Y1D01*
X1292Y1D01*
X1291Y1D01*
X1290Y1D01*
X1289Y1D01*
X1288Y1D01*
X1287Y1D01*
X1286Y1D01*
X1285Y1D01*
X1284Y1D01*
X1283Y1D01*
X1282Y1D01*
X1281Y1D01*
X1280Y1D01*
X1279Y1D01*
X1278Y1D01*
X1277Y1D01*
X1276Y1D01*
X1275Y1D01*
X1274Y1D01*
X1273Y1D01*
X1272Y1D01*
X1271Y1D01*
X1270Y1D01*
X1269Y1D01*
X1268Y1D01*
X1267Y1D01*
X1266Y1D01*
X1265Y1D01*
X1264Y1D01*
X1263Y1D01*
X1262Y1D01*
X1261Y1D01*
X1260Y1D01*
X1259Y1D01*
X1258Y1D01*
X1257Y1D01*
X1256Y1D01*
X1255Y1D01*
X1254Y1D01*
X1253Y1D01*
X1252Y1D01*
X1251Y1D01*
X1250Y1D01*
X1249Y1D01*
X1248Y1D01*
X1247Y1D01*
X1246Y1D01*
X1245Y1D01*
X1244Y1D01*
X1243Y1D01*
X1242Y1D01*
X1241Y1D01*
X1240Y1D01*
X1239Y1D01*
X1238Y1D01*
X1237Y1D01*
X1236Y1D01*
X1235Y1D01*
X1234Y1D01*
X1233Y1D01*
X1232Y1D01*
X1231Y1D01*
X1230Y1D01*
X1229Y1D01*
X1228Y1D01*
X1227Y1D01*
X1226Y1D01*
X1225Y1D01*
X1224Y1D01*
X1223Y1D01*
X1222Y1D01*
X1221Y1D01*
X1220Y1D01*
X1219Y1D01*
X1218Y1D01*
X1217Y1D01*
X1216Y1D01*
X1215Y1D01*
X1214Y1D01*
X1213Y1D01*
X1212Y1D01*
X1211Y1D01*
X1210Y1D01*
X1209Y1D01*
X1208Y1D01*
X1207Y1D01*
X1206Y1D01*
X1205Y1D01*
X1204Y1D01*
X1203Y1D01*
X1202Y1D01*
X1201Y1D01*
X1200Y1D01*
X1199Y1D01*
X1198Y1D01*
X1197Y1D01*
X1196Y1D01*
X1195Y1D01*
X1194Y1D01*
X1193Y1D01*
X1192Y1D01*
X1191Y1D01*
X1190Y1D01*
X1189Y1D01*
X1188Y1D01*
X1187Y1D01*
X1186Y1D01*
X1185Y1D01*
X1184Y1D01*
X1183Y1D01*
X1182Y1D01*
X1181Y1D01*
X1180Y1D01*
X1179Y1D01*
X1178Y1D01*
X1177Y1D01*
X1176Y1D01*
X1175Y1D01*
X1174Y1D01*
X1173Y1D01*
X1172Y1D01*
X1171Y1D01*
X1170Y1D01*
X1169Y1D01*
X1168Y1D01*
X1167Y1D01*
X1166Y1D01*
X1165Y1D01*
X1164Y1D01*
X1163Y1D01*
X1162Y1D01*
X1161Y1D01*
X1160Y1D01*
X1159Y1D01*
X1158Y1D01*
X1157Y1D01*
X1156Y1D01*
X1155Y1D01*
X1154Y1D01*
X1153Y1D01*
X1152Y1D01*
X1151Y1D01*
X1150Y1D01*
X1149Y1D01*
X1148Y1D01*
X1147Y1D01*
X1146Y1D01*
X1145Y1D01*
X1144Y1D01*
X1143Y1D01*
X1142Y1D01*
X1141Y1D01*
X1140Y1D01*
X1139Y1D01*
X1138Y1D01*
X1137Y1D01*
X1136Y1D01*
X1135Y1D01*
X1134Y1D01*
X1133Y1D01*
X1132Y1D01*
X1131Y1D01*
X1130Y1D01*
X1129Y1D01*
X1128Y1D01*
X1127Y1D01*
X1126Y1D01*
X1125Y1D01*
X1124Y1D01*
X1123Y1D01*
X1122Y1D01*
X1121Y1D01*
X1120Y1D01*
X1119Y1D01*
X1118Y1D01*
X1117Y1D01*
X1116Y1D01*
X1115Y1D01*
X1114Y1D01*
X1113Y1D01*
X1112Y1D01*
X1111Y1D01*
X1110Y1D01*
X1109Y1D01*
X1108Y1D01*
X1107Y1D01*
X1106Y1D01*
X1105Y1D01*
X1104Y1D01*
X1103Y1D01*
X1102Y1D01*
X1101Y1D01*
X1100Y1D01*
X1099Y1D01*
X1098Y1D01*
X1097Y1D01*
X1096Y1D01*
X1095Y1D01*
X1094Y1D01*
X1093Y1D01*
X1092Y1D01*
X1091Y1D01*
X1090Y1D01*
X1089Y1D01*
X1088Y1D01*
X1087Y1D01*
X1086Y1D01*
X1085Y1D01*
X1084Y1D01*
X1083Y1D01*
X1082Y1D01*
X1081Y1D01*
X1080Y1D01*
X1079Y1D01*
X1078Y1D01*
X1077Y1D01*
X1076Y1D01*
X1075Y1D01*
X1074Y1D01*
X1073Y1D01*
X1072Y1D01*
X1071Y1D01*
X1070Y1D01*
X1069Y1D01*
X1068Y1D01*
X1067Y1D01*
X1066Y1D01*
X1065Y1D01*
X1064Y1D01*
X1063Y1D01*
X1062Y1D01*
X1061Y1D01*
X1060Y1D01*
X1059Y1D01*
X1058Y1D01*
X1057Y1D01*
X1056Y1D01*
X1055Y1D01*
X1054Y1D01*
X1053Y1D01*
X1052Y1D01*
X1051Y1D01*
X1050Y1D01*
X1049Y1D01*
X1048Y1D01*
X1047Y1D01*
X1046Y1D01*
X1045Y1D01*
X1044Y1D01*
X1043Y1D01*
X1042Y1D01*
X1041Y1D01*
X1040Y1D01*
X1039Y1D01*
X1038Y1D01*
X1037Y1D01*
X1036Y1D01*
X1035Y1D01*
X1034Y1D01*
X1033Y1D01*
X1032Y1D01*
X1031Y1D01*
X1030Y1D01*
X1029Y1D01*
X1028Y1D01*
X1027Y1D01*
X1026Y1D01*
X1025Y1D01*
X1024Y1D01*
X1023Y1D01*
X1022Y1D01*
X1021Y1D01*
X1020Y1D01*
X1019Y1D01*
X1018Y1D01*
X1017Y1D01*
X1016Y1D01*
X1015Y1D01*
X1014Y1D01*
X1013Y1D01*
X1012Y1D01*
X1011Y1D01*
X1010Y1D01*
X1009Y1D01*
X1008Y1D01*
X1007Y1D01*
X1006Y1D01*
X1005Y1D01*
X1004Y1D01*
X1003Y1D01*
X1002Y1D01*
X1001Y1D01*
X1000Y1D01*
X999Y1D01*
X998Y1D01*
X997Y1D01*
X996Y1D01*
X995Y1D01*
X994Y1D01*
X993Y1D01*
X992Y1D01*
X991Y1D01*
X990Y1D01*
X989Y1D01*
X988Y1D01*
X987Y1D01*
X986Y1D01*
X985Y1D01*
X984Y1D01*
X983Y1D01*
X982Y1D01*
X981Y1D01*
X980Y1D01*
X979Y1D01*
X978Y1D01*
X977Y1D01*
X976Y1D01*
X975Y1D01*
X974Y1D01*
X973Y1D01*
X972Y1D01*
X971Y1D01*
X970Y1D01*
X969Y1D01*
X968Y1D01*
X967Y1D01*
X966Y1D01*
X965Y1D01*
X964Y1D01*
X963Y1D01*
X962Y1D01*
X961Y1D01*
X960Y1D01*
X959Y1D01*
X958Y1D01*
X957Y1D01*
X956Y1D01*
X955Y1D01*
X954Y1D01*
X953Y1D01*
X952Y1D01*
X951Y1D01*
X950Y1D01*
X949Y1D01*
X948Y1D01*
X947Y1D01*
X946Y1D01*
X945Y1D01*
X944Y1D01*
X943Y1D01*
X942Y1D01*
X941Y1D01*
X940Y1D01*
X939Y1D01*
X938Y1D01*
X937Y1D01*
X936Y1D01*
X935Y1D01*
X934Y1D01*
X933Y1D01*
X932Y1D01*
X931Y1D01*
X930Y1D01*
X929Y1D01*
X928Y1D01*
X927Y1D01*
X926Y1D01*
X925Y1D01*
X924Y1D01*
X923Y1D01*
X922Y1D01*
X921Y1D01*
X920Y1D01*
X919Y1D01*
X918Y1D01*
X917Y1D01*
X916Y1D01*
X915Y1D01*
X914Y1D01*
X913Y1D01*
X912Y1D01*
X911Y1D01*
X910Y1D01*
X909Y1D01*
X908Y1D01*
X907Y1D01*
X906Y1D01*
X905Y1D01*
X904Y1D01*
X903Y1D01*
X902Y1D01*
X901Y1D01*
X900Y1D01*
X899Y1D01*
X898Y1D01*
X897Y1D01*
X896Y1D01*
X895Y1D01*
X894Y1D01*
X893Y1D01*
X892Y1D01*
X891Y1D01*
X890Y1D01*
X889Y1D01*
X888Y1D01*
X887Y1D01*
X886Y1D01*
X885Y1D01*
X884Y1D01*
X883Y1D01*
X882Y1D01*
X881Y1D01*
X880Y1D01*
X879Y1D01*
X878Y1D01*
X877Y1D01*
X876Y1D01*
X875Y1D01*
X874Y1D01*
X873Y1D01*
X872Y1D01*
X871Y1D01*
X870Y1D01*
X869Y1D01*
X868Y1D01*
X867Y1D01*
X866Y1D01*
X865Y1D01*
X864Y1D01*
X863Y1D01*
X862Y1D01*
X861Y1D01*
X860Y1D01*
X859Y1D01*
X858Y1D01*
X857Y1D01*
X856Y1D01*
X855Y1D01*
X854Y1D01*
X853Y1D01*
X852Y1D01*
X851Y1D01*
X850Y1D01*
X849Y1D01*
X848Y1D01*
X847Y1D01*
X846Y1D01*
X845Y1D01*
X844Y1D01*
X843Y1D01*
X842Y1D01*
X841Y1D01*
X840Y1D01*
X839Y1D01*
X838Y1D01*
X837Y1D01*
X836Y1D01*
X835Y1D01*
X834Y1D01*
X833Y1D01*
X832Y1D01*
X831Y1D01*
X830Y1D01*
X829Y1D01*
X828Y1D01*
X827Y1D01*
X826Y1D01*
X825Y1D01*
X824Y1D01*
X823Y1D01*
X822Y1D01*
X821Y1D01*
X820Y1D01*
X819Y1D01*
X818Y1D01*
X817Y1D01*
X816Y1D01*
X815Y1D01*
X814Y1D01*
X813Y1D01*
X812Y1D01*
X811Y1D01*
X810Y1D01*
X809Y1D01*
X808Y1D01*
X807Y1D01*
X806Y1D01*
X805Y1D01*
X804Y1D01*
X803Y1D01*
X802Y1D01*
X801Y1D01*
X800Y1D01*
X799Y1D01*
X798Y1D01*
X797Y1D01*
X796Y1D01*
X795Y1D01*
X794Y1D01*
X793Y1D01*
X792Y1D01*
X791Y1D01*
X790Y1D01*
X789Y1D01*
X788Y1D01*
X787Y1D01*
X786Y1D01*
X785Y1D01*
X784Y1D01*
X783Y1D01*
X782Y1D01*
X781Y1D01*
X780Y1D01*
X779Y1D01*
X778Y1D01*
X777Y1D01*
X776Y1D01*
X775Y1D01*
X774Y1D01*
X773Y1D01*
X772Y1D01*
X771Y1D01*
X770Y1D01*
X769Y1D01*
X768Y1D01*
X767Y1D01*
X766Y1D01*
X765Y1D01*
X764Y1D01*
X763Y1D01*
X762Y1D01*
X761Y1D01*
X760Y1D01*
X759Y1D01*
X758Y1D01*
X757Y1D01*
X756Y1D01*
X755Y1D01*
X754Y1D01*
X753Y1D01*
X752Y1D01*
X751Y1D01*
X750Y1D01*
X749Y1D01*
X748Y1D01*
X747Y1D01*
X746Y1D01*
X745Y1D01*
X744Y1D01*
X743Y1D01*
X742Y1D01*
X741Y1D01*
X740Y1D01*
X739Y1D01*
X738Y1D01*
X737Y1D01*
X736Y1D01*
X735Y1D01*
X734Y1D01*
X733Y1D01*
X732Y1D01*
X731Y1D01*
X730Y1D01*
X729Y1D01*
X728Y1D01*
X727Y1D01*
X726Y1D01*
X725Y1D01*
X724Y1D01*
X723Y1D01*
X722Y1D01*
X721Y1D01*
X720Y1D01*
X719Y1D01*
X718Y1D01*
X717Y1D01*
X716Y1D01*
X715Y1D01*
X714Y1D01*
X713Y1D01*
X712Y1D01*
X711Y1D01*
X710Y1D01*
X709Y1D01*
X708Y1D01*
X707Y1D01*
X706Y1D01*
X705Y1D01*
X704Y1D01*
X703Y1D01*
X702Y1D01*
X701Y1D01*
X700Y1D01*
X699Y1D01*
X698Y1D01*
X697Y1D01*
X696Y1D01*
X695Y1D01*
X694Y1D01*
X693Y1D01*
X692Y1D01*
X691Y1D01*
X690Y1D01*
X689Y1D01*
X688Y1D01*
X687Y1D01*
X686Y1D01*
X685Y1D01*
X684Y1D01*
X683Y1D01*
X682Y1D01*
X681Y1D01*
X680Y1D01*
X679Y1D01*
X678Y1D01*
X677Y1D01*
X676Y1D01*
X675Y1D01*
X674Y1D01*
X673Y1D01*
X672Y1D01*
X671Y1D01*
X670Y1D01*
X669Y1D01*
X668Y1D01*
X667Y1D01*
X666Y1D01*
X665Y1D01*
X664Y1D01*
X663Y1D01*
X662Y1D01*
X661Y1D01*
X660Y1D01*
X659Y1D01*
X658Y1D01*
X657Y1D01*
X656Y1D01*
X655Y1D01*
X654Y1D01*
X653Y1D01*
X652Y1D01*
X651Y1D01*
X650Y1D01*
X649Y1D01*
X648Y1D01*
X647Y1D01*
X646Y1D01*
X645Y1D01*
X644Y1D01*
X643Y1D01*
X642Y1D01*
X641Y1D01*
X640Y1D01*
X639Y1D01*
X638Y1D01*
X637Y1D01*
X636Y1D01*
X635Y1D01*
X634Y1D01*
X633Y1D01*
X632Y1D01*
X631Y1D01*
X630Y1D01*
X629Y1D01*
X628Y1D01*
X627Y1D01*
X626Y1D01*
X625Y1D01*
X624Y1D01*
X623Y1D01*
X622Y1D01*
X621Y1D01*
X620Y1D01*
X619Y1D01*
X618Y1D01*
X617Y1D01*
X616Y1D01*
X615Y1D01*
X614Y1D01*
X613Y1D01*
X612Y1D01*
X611Y1D01*
X610Y1D01*
X609Y1D01*
X608Y1D01*
X607Y1D01*
X606Y1D01*
X605Y1D01*
X604Y1D01*
X603Y1D01*
X602Y1D01*
X601Y1D01*
X600Y1D01*
X599Y1D01*
X598Y1D01*
X597Y1D01*
X596Y1D01*
X595Y1D01*
X594Y1D01*
X593Y1D01*
X592Y1D01*
X591Y1D01*
X590Y1D01*
X589Y1D01*
X588Y1D01*
X587Y1D01*
X586Y1D01*
X585Y1D01*
X584Y1D01*
X583Y1D01*
X582Y1D01*
X581Y1D01*
X580Y1D01*
X579Y1D01*
X578Y1D01*
X577Y1D01*
X576Y1D01*
X575Y1D01*
X574Y1D01*
X573Y1D01*
X572Y1D01*
X571Y1D01*
X570Y1D01*
X569Y1D01*
X568Y1D01*
X567Y1D01*
X566Y1D01*
X565Y1D01*
X564Y1D01*
X563Y1D01*
X562Y1D01*
X561Y1D01*
X560Y1D01*
X559Y1D01*
X558Y1D01*
X557Y1D01*
X556Y1D01*
X555Y1D01*
X554Y1D01*
X553Y1D01*
X552Y1D01*
X551Y1D01*
X550Y1D01*
X549Y1D01*
X548Y1D01*
X547Y1D01*
X546Y1D01*
X545Y1D01*
X544Y1D01*
X543Y1D01*
X542Y1D01*
X541Y1D01*
X540Y1D01*
X539Y1D01*
X538Y1D01*
X537Y1D01*
X536Y1D01*
X535Y1D01*
X534Y1D01*
X533Y1D01*
X532Y1D01*
X531Y1D01*
X530Y1D01*
X529Y1D01*
X528Y1D01*
X527Y1D01*
X526Y1D01*
X525Y1D01*
X524Y1D01*
X523Y1D01*
X522Y1D01*
X521Y1D01*
X520Y1D01*
X519Y1D01*
X518Y1D01*
X517Y1D01*
X516Y1D01*
X515Y1D01*
X514Y1D01*
X513Y1D01*
X512Y1D01*
X511Y1D01*
X510Y1D01*
X509Y1D01*
X508Y1D01*
X507Y1D01*
X506Y1D01*
X505Y1D01*
X504Y1D01*
X503Y1D01*
X502Y1D01*
X501Y1D01*
X500Y1D01*
X499Y1D01*
X498Y1D01*
X497Y1D01*
X496Y1D01*
X495Y1D01*
X494Y1D01*
X493Y1D01*
X492Y1D01*
X491Y1D01*
X490Y1D01*
X489Y1D01*
X488Y1D01*
X487Y1D01*
X486Y1D01*
X485Y1D01*
X484Y1D01*
X483Y1D01*
X482Y1D01*
X481Y1D01*
X480Y1D01*
X479Y1D01*
X478Y1D01*
X477Y1D01*
X476Y1D01*
X475Y1D01*
X474Y1D01*
X473Y1D01*
X472Y1D01*
X471Y1D01*
X470Y1D01*
X469Y1D01*
X468Y1D01*
X467Y1D01*
X466Y1D01*
X465Y1D01*
X464Y1D01*
X463Y1D01*
X462Y1D01*
X461Y1D01*
X460Y1D01*
X459Y1D01*
X458Y1D01*
X457Y1D01*
X456Y1D01*
X455Y1D01*
X454Y1D01*
X453Y1D01*
X452Y1D01*
X451Y1D01*
X450Y1D01*
X449Y1D01*
X448Y1D01*
X447Y1D01*
X446Y1D01*
X445Y1D01*
X444Y1D01*
X443Y1D01*
X442Y1D01*
X441Y1D01*
X440Y1D01*
X439Y1D01*
X438Y1D01*
X437Y1D01*
X436Y1D01*
X435Y1D01*
X434Y1D01*
X433Y1D01*
X432Y1D01*
X431Y1D01*
X430Y1D01*
X429Y1D01*
X428Y1D01*
X427Y1D01*
X426Y1D01*
X425Y1D01*
X424Y1D01*
X423Y1D01*
X422Y1D01*
X421Y1D01*
X420Y1D01*
X419Y1D01*
X418Y1D01*
X417Y1D01*
X416Y1D01*
X415Y1D01*
X414Y1D01*
X413Y1D01*
X412Y1D01*
X411Y1D01*
X410Y1D01*
X409Y1D01*
X408Y1D01*
X407Y1D01*
X406Y1D01*
X405Y1D01*
X404Y1D01*
X403Y1D01*
X402Y1D01*
X401Y1D01*
X400Y1D01*
X399Y1D01*
X398Y1D01*
X397Y1D01*
X396Y1D01*
X395Y1D01*
X394Y1D01*
X393Y1D01*
X392Y1D01*
X391Y1D01*
X390Y1D01*
X389Y1D01*
X388Y1D01*
X387Y1D01*
X386Y1D01*
X385Y1D01*
X384Y1D01*
X383Y1D01*
X382Y1D01*
X381Y1D01*
X380Y1D01*
X379Y1D01*
X378Y1D01*
X377Y1D01*
X376Y1D01*
X375Y1D01*
X374Y1D01*
X373Y1D01*
X372Y1D01*
X371Y1D01*
X370Y2D01*
X369Y2D01*
X368Y2D01*
X367Y2D01*
X366Y2D01*
X365Y2D01*
X364Y2D01*
X363Y2D01*
X362Y2D01*
X361Y2D01*
X360Y2D01*
X359Y2D01*
X358Y2D01*
X357Y2D01*
X356Y3D01*
X355Y3D01*
X354Y3D01*
X353Y3D01*
X352Y3D01*
X351Y3D01*
X350Y3D01*
X349Y3D01*
X348Y3D01*
X347Y3D01*
X346Y4D01*
X345Y4D01*
X344Y4D01*
X343Y4D01*
X342Y4D01*
X341Y4D01*
X340Y4D01*
X339Y4D01*
X338Y5D01*
X337Y5D01*
X336Y5D01*
X335Y5D01*
X334Y5D01*
X333Y5D01*
X332Y5D01*
X331Y5D01*
X330Y6D01*
X329Y6D01*
X328Y6D01*
X327Y6D01*
X326Y6D01*
X325Y6D01*
X324Y7D01*
X323Y7D01*
X322Y7D01*
X321Y7D01*
X320Y7D01*
X319Y8D01*
X318Y8D01*
X317Y8D01*
X316Y8D01*
X315Y8D01*
X314Y8D01*
X313Y9D01*
X312Y9D01*
X311Y9D01*
X310Y9D01*
X309Y9D01*
X308Y10D01*
X307Y10D01*
X306Y10D01*
X305Y10D01*
X304Y11D01*
X303Y11D01*
X302Y11D01*
X301Y11D01*
X300Y11D01*
X299Y12D01*
X298Y12D01*
X297Y12D01*
X296Y12D01*
X295Y13D01*
X294Y13D01*
X293Y13D01*
X292Y13D01*
X291Y14D01*
X290Y14D01*
X289Y14D01*
X288Y14D01*
X287Y15D01*
X286Y15D01*
X285Y15D01*
X284Y16D01*
X283Y16D01*
X282Y16D01*
X281Y16D01*
X280Y17D01*
X279Y17D01*
X278Y17D01*
X277Y18D01*
X276Y18D01*
X275Y18D01*
X274Y19D01*
X273Y19D01*
X272Y19D01*
X271Y20D01*
X270Y20D01*
X269Y20D01*
X268Y21D01*
X267Y21D01*
X266Y21D01*
X265Y22D01*
X264Y22D01*
X263Y22D01*
X262Y23D01*
X261Y23D01*
X260Y23D01*
X259Y24D01*
X258Y24D01*
X257Y24D01*
X256Y25D01*
X255Y25D01*
X254Y25D01*
X253Y26D01*
X252Y26D01*
X251Y26D01*
X250Y27D01*
X249Y27D01*
X248Y28D01*
X247Y28D01*
X246Y28D01*
X245Y29D01*
X244Y29D01*
X243Y30D01*
X242Y30D01*
X241Y30D01*
X240Y31D01*
X239Y31D01*
X238Y32D01*
X237Y32D01*
X236Y32D01*
X235Y33D01*
X234Y33D01*
X233Y34D01*
X232Y34D01*
X231Y35D01*
X230Y35D01*
X229Y36D01*
X228Y36D01*
X227Y36D01*
X226Y37D01*
X225Y37D01*
X224Y38D01*
X223Y38D01*
X222Y39D01*
X221Y39D01*
X220Y40D01*
X219Y40D01*
X218Y41D01*
X217Y41D01*
X216Y42D01*
X215Y42D01*
X214Y43D01*
X213Y43D01*
X212Y44D01*
X211Y44D01*
X210Y45D01*
X209Y45D01*
X208Y46D01*
X207Y46D01*
X206Y47D01*
X205Y47D01*
X204Y48D01*
X203Y48D01*
X202Y49D01*
X201Y49D01*
X200Y50D01*
X199Y51D01*
X198Y51D01*
X197Y52D01*
X196Y52D01*
X195Y53D01*
X194Y53D01*
X193Y54D01*
X192Y55D01*
X191Y55D01*
X190Y56D01*
X189Y56D01*
X188Y57D01*
X187Y57D01*
X186Y58D01*
X185Y59D01*
X184Y59D01*
X183Y60D01*
X182Y61D01*
X181Y61D01*
X180Y62D01*
X179Y63D01*
X178Y63D01*
X177Y64D01*
X176Y64D01*
X175Y65D01*
X174Y66D01*
X173Y66D01*
X172Y67D01*
X171Y68D01*
X170Y68D01*
X169Y69D01*
X168Y70D01*
X167Y70D01*
X166Y71D01*
X165Y72D01*
X164Y73D01*
X163Y73D01*
X162Y74D01*
X161Y75D01*
X160Y75D01*
X159Y76D01*
X158Y77D01*
X157Y77D01*
X156Y78D01*
X155Y79D01*
X154Y80D01*
X153Y80D01*
X152Y81D01*
X151Y82D01*
X150Y83D01*
X149Y84D01*
X148Y84D01*
X147Y85D01*
X146Y86D01*
X145Y87D01*
X144Y87D01*
X143Y88D01*
X142Y89D01*
X141Y90D01*
X140Y91D01*
X139Y92D01*
X138Y92D01*
X137Y93D01*
X136Y94D01*
X135Y95D01*
X134Y96D01*
X133Y97D01*
X132Y98D01*
X131Y98D01*
X130Y99D01*
X129Y100D01*
X128Y101D01*
X127Y102D01*
X126Y103D01*
X125Y104D01*
X124Y105D01*
X123Y106D01*
X122Y107D01*
X121Y108D01*
X120Y108D01*
X119Y109D01*
X118Y110D01*
X117Y111D01*
X116Y112D01*
X115Y113D01*
X114Y114D01*
X113Y115D01*
X112Y116D01*
X111Y117D01*
X110Y118D01*
X109Y119D01*
X108Y120D01*
X107Y121D01*
X106Y122D01*
X105Y123D01*
X104Y124D01*
X104Y125D01*
X103Y126D01*
X102Y127D01*
X101Y128D01*
X100Y129D01*
X99Y130D01*
X98Y131D01*
X97Y132D01*
X96Y133D01*
X95Y134D01*
X95Y135D01*
X94Y136D01*
X93Y137D01*
X92Y138D01*
X91Y139D01*
X90Y140D01*
X89Y141D01*
X89Y142D01*
X88Y143D01*
X87Y144D01*
X86Y145D01*
X85Y146D01*
X85Y147D01*
X84Y148D01*
X83Y149D01*
X82Y150D01*
X81Y151D01*
X81Y152D01*
X80Y153D01*
X79Y154D01*
X78Y155D01*
X77Y156D01*
X77Y157D01*
X76Y158D01*
X75Y159D01*
X75Y160D01*
X74Y161D01*
X73Y162D01*
X72Y163D01*
X72Y164D01*
X71Y165D01*
X70Y166D01*
X70Y167D01*
X69Y168D01*
X68Y169D01*
X67Y170D01*
X67Y171D01*
X66Y172D01*
X65Y173D01*
X65Y174D01*
X64Y175D01*
X63Y176D01*
X63Y177D01*
X62Y178D01*
X61Y179D01*
X61Y180D01*
X60Y181D01*
X60Y182D01*
X59Y183D01*
X58Y184D01*
X58Y185D01*
X57Y186D01*
X56Y187D01*
X56Y188D01*
X55Y189D01*
X55Y190D01*
X54Y191D01*
X53Y192D01*
X53Y193D01*
X52Y194D01*
X52Y195D01*
X51Y196D01*
X51Y197D01*
X50Y198D01*
X49Y199D01*
X49Y200D01*
X48Y201D01*
X48Y202D01*
X47Y203D01*
X47Y204D01*
X46Y205D01*
X45Y206D01*
X45Y207D01*
X44Y208D01*
X44Y209D01*
X43Y210D01*
X43Y211D01*
X42Y212D01*
X42Y213D01*
X41Y214D01*
X41Y215D01*
X40Y216D01*
X40Y217D01*
X39Y218D01*
X39Y219D01*
X38Y220D01*
X38Y221D01*
X37Y222D01*
X37Y223D01*
X36Y224D01*
X36Y226D01*
X35Y227D01*
X35Y228D01*
X34Y229D01*
X34Y230D01*
X33Y231D01*
X33Y232D01*
X32Y233D01*
X32Y234D01*
X31Y235D01*
X31Y237D01*
X30Y238D01*
X30Y239D01*
X29Y240D01*
X29Y242D01*
X28Y243D01*
X28Y244D01*
X27Y245D01*
X27Y247D01*
X26Y248D01*
X26Y249D01*
X25Y250D01*
X25Y252D01*
X24Y253D01*
X24Y254D01*
X23Y255D01*
X23Y257D01*
X22Y258D01*
X22Y260D01*
X21Y261D01*
X21Y263D01*
X20Y264D01*
X20Y266D01*
X19Y267D01*
X19Y269D01*
X18Y270D01*
X18Y272D01*
X17Y273D01*
X17Y275D01*
X16Y276D01*
X16Y278D01*
X15Y279D01*
X15Y282D01*
X14Y283D01*
X14Y285D01*
X13Y286D01*
X13Y289D01*
X12Y290D01*
X12Y293D01*
X11Y294D01*
X11Y297D01*
X10Y298D01*
X10Y301D01*
X9Y302D01*
X9Y306D01*
X8Y307D01*
X8Y311D01*
X7Y312D01*
X7Y316D01*
X6Y317D01*
X6Y322D01*
X5Y323D01*
X5Y328D01*
X4Y329D01*
X4Y335D01*
X3Y336D01*
X3Y343D01*
X2Y344D01*
X2Y352D01*
X1Y353D01*
X1Y367D01*
X0Y368D01*
X0Y2276D01*
X1Y2277D01*
X1Y2291D01*
X2Y2292D01*
X2Y2300D01*
X3Y2301D01*
X3Y2308D01*
X4Y2309D01*
X4Y2315D01*
X5Y2316D01*
X5Y2321D01*
X6Y2322D01*
X6Y2327D01*
X7Y2328D01*
X7Y2332D01*
X8Y2333D01*
X8Y2337D01*
X9Y2338D01*
X9Y2342D01*
X10Y2343D01*
X10Y2346D01*
X11Y2347D01*
X11Y2350D01*
X12Y2351D01*
X12Y2354D01*
X13Y2355D01*
X13Y2358D01*
X14Y2359D01*
X14Y2361D01*
X15Y2362D01*
X15Y2365D01*
X16Y2366D01*
X16Y2368D01*
X17Y2369D01*
X17Y2371D01*
X18Y2372D01*
X18Y2374D01*
X19Y2375D01*
X19Y2377D01*
X20Y2378D01*
X20Y2380D01*
X21Y2381D01*
X21Y2383D01*
X22Y2384D01*
X22Y2386D01*
X23Y2387D01*
X23Y2389D01*
X24Y2390D01*
X24Y2391D01*
X25Y2392D01*
X25Y2394D01*
X26Y2395D01*
X26Y2396D01*
X27Y2397D01*
X27Y2399D01*
X28Y2400D01*
X28Y2401D01*
X29Y2402D01*
X29Y2404D01*
X30Y2405D01*
X30Y2406D01*
X31Y2407D01*
X31Y2409D01*
X32Y2410D01*
X32Y2411D01*
X33Y2412D01*
X33Y2413D01*
X34Y2414D01*
X34Y2415D01*
X35Y2416D01*
X35Y2417D01*
X36Y2418D01*
X36Y2420D01*
X37Y2421D01*
X37Y2422D01*
X38Y2423D01*
X38Y2424D01*
X39Y2425D01*
X39Y2426D01*
X40Y2427D01*
X40Y2428D01*
X41Y2429D01*
X41Y2430D01*
X42Y2431D01*
X42Y2432D01*
X43Y2433D01*
X43Y2434D01*
X44Y2435D01*
X44Y2436D01*
X45Y2437D01*
X45Y2438D01*
X46Y2439D01*
X47Y2440D01*
X47Y2441D01*
X48Y2442D01*
X48Y2443D01*
X49Y2444D01*
X49Y2445D01*
X50Y2446D01*
X51Y2447D01*
X51Y2448D01*
X52Y2449D01*
X52Y2450D01*
X53Y2451D01*
X53Y2452D01*
X54Y2453D01*
X55Y2454D01*
X55Y2455D01*
X56Y2456D01*
X56Y2457D01*
X57Y2458D01*
X58Y2459D01*
X58Y2460D01*
X59Y2461D01*
X60Y2462D01*
X60Y2463D01*
X61Y2464D01*
X61Y2465D01*
X62Y2466D01*
X63Y2467D01*
X63Y2468D01*
X64Y2469D01*
X65Y2470D01*
X65Y2471D01*
X66Y2472D01*
X67Y2473D01*
X67Y2474D01*
X68Y2475D01*
X69Y2476D01*
X70Y2477D01*
X70Y2478D01*
X71Y2479D01*
X72Y2480D01*
X72Y2481D01*
X73Y2482D01*
X74Y2483D01*
X75Y2484D01*
X75Y2485D01*
X76Y2486D01*
X77Y2487D01*
X77Y2488D01*
X78Y2489D01*
X79Y2490D01*
X80Y2491D01*
X81Y2492D01*
X81Y2493D01*
X82Y2494D01*
X83Y2495D01*
X84Y2496D01*
X85Y2497D01*
X85Y2498D01*
X86Y2499D01*
X87Y2500D01*
X88Y2501D01*
X89Y2502D01*
X89Y2503D01*
X90Y2504D01*
X91Y2505D01*
X92Y2506D01*
X93Y2507D01*
X94Y2508D01*
X95Y2509D01*
X95Y2510D01*
X96Y2511D01*
X97Y2512D01*
X98Y2513D01*
X99Y2514D01*
X100Y2515D01*
X101Y2516D01*
X102Y2517D01*
X103Y2518D01*
X104Y2519D01*
X104Y2520D01*
X105Y2521D01*
X106Y2522D01*
X107Y2523D01*
X108Y2524D01*
X109Y2525D01*
X110Y2526D01*
X111Y2527D01*
X112Y2528D01*
X113Y2529D01*
X114Y2530D01*
X115Y2531D01*
X116Y2532D01*
X117Y2533D01*
X118Y2534D01*
X119Y2535D01*
X120Y2536D01*
X121Y2536D01*
X122Y2537D01*
X123Y2538D01*
X124Y2539D01*
X125Y2540D01*
X126Y2541D01*
X127Y2542D01*
X128Y2543D01*
X129Y2544D01*
X130Y2545D01*
X131Y2546D01*
X132Y2546D01*
X133Y2547D01*
X134Y2548D01*
X135Y2549D01*
X136Y2550D01*
X137Y2551D01*
X138Y2552D01*
X139Y2552D01*
X140Y2553D01*
X141Y2554D01*
X142Y2555D01*
X143Y2556D01*
X144Y2557D01*
X145Y2557D01*
X146Y2558D01*
X147Y2559D01*
X148Y2560D01*
X149Y2560D01*
X150Y2561D01*
X151Y2562D01*
X152Y2563D01*
X153Y2564D01*
X154Y2564D01*
X155Y2565D01*
X156Y2566D01*
X157Y2567D01*
X158Y2567D01*
X159Y2568D01*
X160Y2569D01*
X161Y2569D01*
X162Y2570D01*
X163Y2571D01*
X164Y2571D01*
X165Y2572D01*
X166Y2573D01*
X167Y2574D01*
X168Y2574D01*
X169Y2575D01*
X170Y2576D01*
X171Y2576D01*
X172Y2577D01*
X173Y2578D01*
X174Y2578D01*
X175Y2579D01*
X176Y2580D01*
X177Y2580D01*
X178Y2581D01*
X179Y2581D01*
X180Y2582D01*
X181Y2583D01*
X182Y2583D01*
X183Y2584D01*
X184Y2585D01*
X185Y2585D01*
X186Y2586D01*
X187Y2587D01*
X188Y2587D01*
X189Y2588D01*
X190Y2588D01*
X191Y2589D01*
X192Y2589D01*
X193Y2590D01*
X194Y2591D01*
X195Y2591D01*
X196Y2592D01*
X197Y2592D01*
X198Y2593D01*
X199Y2593D01*
X200Y2594D01*
X201Y2595D01*
X202Y2595D01*
X203Y2596D01*
X204Y2596D01*
X205Y2597D01*
X206Y2597D01*
X207Y2598D01*
X208Y2598D01*
X209Y2599D01*
X210Y2599D01*
X211Y2600D01*
X212Y2600D01*
X213Y2601D01*
X214Y2601D01*
X215Y2602D01*
X216Y2602D01*
X217Y2603D01*
X218Y2603D01*
X219Y2604D01*
X220Y2604D01*
X221Y2605D01*
X222Y2605D01*
X223Y2606D01*
X224Y2606D01*
X225Y2607D01*
X226Y2607D01*
X227Y2608D01*
X228Y2608D01*
X229Y2608D01*
X230Y2609D01*
X231Y2609D01*
X232Y2610D01*
X233Y2610D01*
X234Y2611D01*
X235Y2611D01*
X236Y2612D01*
X237Y2612D01*
X238Y2612D01*
X239Y2613D01*
X240Y2613D01*
X241Y2614D01*
X242Y2614D01*
X243Y2614D01*
X244Y2615D01*
X245Y2615D01*
X246Y2616D01*
X247Y2616D01*
X248Y2616D01*
X249Y2617D01*
X250Y2617D01*
X251Y2618D01*
X252Y2618D01*
X253Y2618D01*
X254Y2619D01*
X255Y2619D01*
X256Y2619D01*
X257Y2620D01*
X258Y2620D01*
X259Y2620D01*
X260Y2621D01*
X261Y2621D01*
X262Y2621D01*
X263Y2622D01*
X264Y2622D01*
X265Y2622D01*
X266Y2623D01*
X267Y2623D01*
X268Y2623D01*
X269Y2624D01*
X270Y2624D01*
X271Y2624D01*
X272Y2625D01*
X273Y2625D01*
X274Y2625D01*
X275Y2626D01*
X276Y2626D01*
X277Y2626D01*
X278Y2627D01*
X279Y2627D01*
X280Y2627D01*
X281Y2628D01*
X282Y2628D01*
X283Y2628D01*
X284Y2628D01*
X285Y2629D01*
X286Y2629D01*
X287Y2629D01*
X288Y2630D01*
X289Y2630D01*
X290Y2630D01*
X291Y2630D01*
X292Y2631D01*
X293Y2631D01*
X294Y2631D01*
X295Y2631D01*
X296Y2632D01*
X297Y2632D01*
X298Y2632D01*
X299Y2632D01*
X300Y2633D01*
X301Y2633D01*
X302Y2633D01*
X303Y2633D01*
X304Y2633D01*
X305Y2634D01*
X306Y2634D01*
X307Y2634D01*
X308Y2634D01*
X309Y2635D01*
X310Y2635D01*
X311Y2635D01*
X312Y2635D01*
X313Y2635D01*
X314Y2636D01*
X315Y2636D01*
X316Y2636D01*
X317Y2636D01*
X318Y2636D01*
X319Y2637D01*
X320Y2637D01*
X321Y2637D01*
X322Y2637D01*
X323Y2637D01*
X324Y2637D01*
X325Y2638D01*
X326Y2638D01*
X327Y2638D01*
X328Y2638D01*
X329Y2638D01*
X330Y2638D01*
X331Y2639D01*
X332Y2639D01*
X333Y2639D01*
X334Y2639D01*
X335Y2639D01*
X336Y2639D01*
X337Y2639D01*
X338Y2640D01*
X339Y2640D01*
X340Y2640D01*
X341Y2640D01*
X342Y2640D01*
X343Y2640D01*
X344Y2640D01*
X345Y2640D01*
X346Y2640D01*
X347Y2641D01*
X348Y2641D01*
X349Y2641D01*
X350Y2641D01*
X351Y2641D01*
X352Y2641D01*
X353Y2641D01*
X354Y2641D01*
X355Y2641D01*
X356Y2641D01*
X357Y2642D01*
X358Y2642D01*
X359Y2642D01*
X360Y2642D01*
X361Y2642D01*
X362Y2642D01*
X363Y2642D01*
X364Y2642D01*
X365Y2642D01*
X366Y2642D01*
X367Y2642D01*
X368Y2642D01*
X369Y2642D01*
X370Y2642D01*
X371Y2643D01*
D02*
G04 End of contour*
M02*