G04 MADE WITH FRITZING*
G04 WWW.FRITZING.ORG*
G04 DOUBLE SIDED*
G04 HOLES PLATED*
G04 CONTOUR ON CENTER OF CONTOUR VECTOR*
%ASAXBY*%
%FSLAX23Y23*%
%MOIN*%
%OFA0B0*%
%SFA1.0B1.0*%
%ADD10C,0.080000*%
%ADD11C,0.092000*%
%ADD12C,0.085000*%
%ADD13C,0.254000*%
%ADD14R,0.079972X0.080000*%
%ADD15R,0.092000X0.092000*%
%ADD16C,0.030000*%
%LNMASK0*%
G90*
G70*
G54D10*
X1689Y1984D03*
X1689Y1884D03*
X1689Y1784D03*
X1689Y1684D03*
X1689Y1584D03*
X1689Y1484D03*
X1689Y1384D03*
X1689Y1284D03*
X1689Y1184D03*
X1689Y1084D03*
X1689Y984D03*
X1689Y884D03*
X1689Y784D03*
X1689Y684D03*
X1689Y584D03*
X2289Y1984D03*
X2289Y1884D03*
X2289Y1784D03*
X2289Y1684D03*
X2289Y1584D03*
X2289Y1484D03*
X2289Y1384D03*
X2289Y1284D03*
X2289Y1184D03*
X2289Y1084D03*
X2289Y984D03*
X2289Y884D03*
X2289Y784D03*
X2289Y684D03*
X2289Y584D03*
G54D11*
X1089Y884D03*
X877Y672D03*
G54D12*
X1489Y484D03*
X1489Y884D03*
G54D13*
X289Y684D03*
X389Y284D03*
X1589Y284D03*
X289Y984D03*
X289Y1684D03*
X289Y2084D03*
X1689Y2384D03*
X889Y2384D03*
X289Y1384D03*
X489Y2384D03*
X2089Y2384D03*
X789Y284D03*
X1189Y284D03*
G54D11*
X1089Y1984D03*
X1389Y1984D03*
X989Y1484D03*
X689Y1484D03*
G54D14*
X1689Y1984D03*
G54D15*
X1089Y1984D03*
G54D16*
G36*
X1089Y840D02*
X1045Y884D01*
X1089Y928D01*
X1133Y884D01*
X1089Y840D01*
G37*
D02*
G36*
X958Y1453D02*
X958Y1515D01*
X1020Y1515D01*
X1020Y1453D01*
X958Y1453D01*
G37*
D02*
G04 End of Mask0*
M02*