; NON-PLATED HOLES START AT T1
; THROUGH (PLATED) HOLES START AT T100
M48
INCH
T100C0.042000
T101C0.015748
T102C0.150000
T103C0.035000
T104C0.022334
%
T100
X012893Y015714
X021832Y021275
X031893Y017714
X034014Y019835
X021832Y024275
X023332Y008653
X025453Y010775
X015893Y015714
T101
X039893Y006677
T102
X034893Y027714
X021893Y003714
X049893Y027714
X013893Y027714
X007893Y027714
X029893Y003714
X004893Y013714
X042893Y027714
X050893Y014714
X004893Y018714
X050893Y020714
X026893Y027714
X013893Y003714
X019893Y027714
X006893Y003714
X004893Y024714
X004893Y007714
T103
X042893Y014714
X038893Y014714
T104
X035905Y011714
X035905Y002740
X038900Y011714
X042894Y011714
X034907Y011714
X038900Y002740
X042894Y002740
X034907Y002740
X037902Y011714
X041896Y011714
X037902Y002740
X041896Y002740
X047887Y011714
X044891Y011714
X036904Y011714
X047887Y002740
X044891Y002740
X046888Y011714
X036904Y002740
X043893Y011714
X046888Y002740
X043893Y002740
X048885Y011714
X045890Y011714
X048885Y002740
X045890Y002740
X040897Y011714
X039899Y011714
X040897Y002740
X039899Y002740
T00
M30
